<svg width="450" height="450" viewBox="0 0 450 450" fill="none" xmlns="http://www.w3.org/2000/svg">
<path d="M224.883 390.425C176.402 390.425 127.921 390.425 79.4392 390.425C68.2243 390.425 59.8131 385.402 53.972 375.822C51.5187 371.734 50.2336 367.178 50 362.271C50 361.453 50 360.752 50 359.935C50 269.748 50 179.561 50 89.3738C50 80.729 52.8037 73.2523 58.9953 67.1776C64.2523 62.0374 70.6776 59.2336 78.0374 59C78.6215 59 79.2056 59 79.7897 59C176.636 59 273.481 59 370.21 59C381.542 59 390.187 63.9065 396.028 73.6028C398.481 77.6916 399.766 82.2477 400 87.1542C400 87.972 400 88.6729 400 89.4907C400 179.678 400 269.864 400 360.051C400 368.346 397.43 375.589 391.706 381.664C386.215 387.388 379.322 390.425 371.379 390.425C359.93 390.425 348.481 390.425 337.15 390.425C299.65 390.425 262.266 390.425 224.883 390.425ZM225.935 259.935C281.075 259.935 336.332 259.935 391.472 259.935C393.692 259.935 393.692 259.935 393.692 257.715C393.692 212.855 393.692 167.995 393.692 123.136C393.692 113.089 393.808 103.042 393.692 92.8785C393.575 80.028 382.827 69.514 369.977 69.514C274.065 69.514 178.037 69.514 82.1262 69.514C80.1402 69.514 78.271 69.7477 76.4019 70.3318C65.3037 73.3692 58.4112 82.5981 58.4112 94.6308C58.4112 149.07 58.4112 203.509 58.4112 257.832C58.4112 260.285 58.1776 260.051 60.6308 260.051C115.654 259.935 170.794 259.935 225.935 259.935ZM132.71 307.014C129.322 301.523 125.935 296.383 122.897 290.893C121.378 288.089 119.626 286.687 116.355 287.154C115.187 287.388 114.72 287.505 114.72 288.79C114.836 296.967 114.72 305.145 114.72 313.322C114.72 317.294 114.72 317.178 118.692 317.294C120.093 317.294 120.327 316.827 120.327 315.542C120.21 310.168 120.327 304.794 120.327 299.421C120.327 298.953 120.21 298.486 120.561 298.019C120.911 298.486 121.145 298.953 121.495 299.304C124.416 303.977 127.22 308.65 130.14 313.322C132.71 317.411 132.71 317.411 137.383 317.294C138.318 317.294 138.551 316.944 138.551 316.009C138.551 306.78 138.551 297.668 138.551 288.439C138.551 287.388 138.201 287.037 137.15 287.154C136.215 287.271 135.28 287.271 134.346 287.154C133.178 287.037 132.827 287.621 132.827 288.673C132.827 294.164 132.827 299.654 132.827 305.145C133.061 305.729 133.178 306.313 132.71 307.014ZM266.706 345.098C266.355 342.411 266.355 342.411 263.785 342.411C263.318 342.411 262.967 342.411 262.5 342.411C261.332 342.294 261.098 342.762 261.098 343.813C261.098 349.187 261.098 354.561 261.098 359.935C261.098 364.374 261.098 364.374 265.537 364.257C266.589 364.257 266.939 363.907 266.822 362.855C266.822 359.467 266.822 356.196 266.822 352.808C266.822 351.523 266.822 350.238 267.29 348.953C267.991 347.084 269.86 346.033 271.846 346.383C273.364 346.617 274.065 347.551 274.065 349.771C274.182 353.159 274.182 356.43 274.182 359.818C274.182 364.374 274.182 364.374 278.738 364.14C279.673 364.14 280.023 363.79 280.023 362.855C280.023 359.584 280.023 356.313 280.023 353.042C280.023 351.757 280.14 350.472 280.491 349.187C281.075 347.201 282.944 346.15 284.813 346.383C286.449 346.617 287.15 347.668 287.266 350.005C287.266 353.276 287.266 356.43 287.266 359.701C287.266 364.491 287.266 364.491 292.056 364.14C292.874 364.14 293.107 363.79 293.107 363.089C293.107 358.299 293.107 353.509 292.991 348.72C292.874 345.215 291.355 343.112 288.318 342.294C285.164 341.477 282.477 342.178 280.14 344.514C279.439 345.215 279.206 345.332 278.505 344.514C277.336 342.878 275.584 342.178 273.598 342.061C271.028 341.944 268.808 343.112 266.706 345.098ZM331.776 313.907C331.776 315.776 331.776 317.178 331.776 318.579C331.776 319.748 331.192 320.682 330.14 321.15C328.621 321.734 326.986 321.967 325.35 321.5C324.883 321.383 324.182 321.15 324.065 320.682C323.715 319.397 322.78 319.397 321.729 319.28C320.561 319.164 319.276 319.047 318.107 318.813C316.939 318.579 316.939 319.164 316.939 319.981C317.056 322.435 318.925 324.537 321.612 325.472C324.182 326.29 326.869 326.407 329.556 326.056C334.813 325.355 337.033 322.902 337.266 317.645C337.383 316.593 337.383 315.425 337.383 314.374C337.383 309 337.383 303.743 337.383 298.369C337.383 295.565 337.383 295.565 334.579 295.565C332.126 295.565 332.126 295.565 332.009 297.902C332.009 298.019 331.893 298.019 331.776 298.136C331.659 298.019 331.542 298.019 331.425 297.902C327.687 293.229 319.042 294.397 316.822 301.407C315.888 304.561 315.771 307.832 316.822 310.986C317.874 314.14 319.977 316.477 323.481 317.178C326.869 317.762 329.439 316.71 331.776 313.907ZM147.547 334.234C147.079 334.234 146.729 334.35 146.262 334.234C144.626 334 143.925 334.701 143.458 336.103C142.874 338.089 141.939 340.075 141.121 342.061C138.435 348.953 135.748 355.846 133.061 362.738C132.593 363.907 132.71 364.374 134.112 364.257C135.397 364.14 136.565 364.14 137.85 364.257C138.785 364.257 139.136 363.907 139.369 363.089C139.836 361.57 140.537 360.051 141.005 358.533C141.238 357.598 141.706 357.364 142.64 357.364C145.444 357.481 148.131 357.481 150.935 357.364C152.921 357.248 153.855 357.832 154.439 359.701C154.907 361.22 155.14 363.322 156.308 364.023C157.593 364.724 159.579 364.14 161.215 364.257C162.5 364.374 162.5 363.907 162.15 362.855C158.645 354.327 155.257 345.682 151.869 337.154C150.701 334.234 150.701 334.234 147.547 334.234ZM202.22 309.467C201.986 309.117 201.869 309 201.869 309C201.051 305.963 200.35 302.808 199.533 299.771C198.481 295.565 198.481 295.682 194.276 295.682C193.224 295.682 192.874 296.033 192.523 296.967C191.589 300.706 190.537 304.444 189.603 308.182C189.486 308.533 189.486 309 189.019 309.467C188.084 306.079 187.15 302.808 186.215 299.537C185.047 295.565 185.047 295.682 180.958 295.682C179.673 295.682 179.556 296.033 179.907 297.201C181.659 302.575 183.411 308.065 185.047 313.439C186.449 317.645 186.449 317.645 190.771 317.528H190.888C191.706 317.645 191.939 317.178 192.173 316.477C192.757 314.14 193.341 311.804 193.925 309.467C194.393 307.598 194.743 305.729 195.561 303.743C196.495 307.014 197.313 310.168 198.131 313.322C199.299 317.528 199.299 317.528 203.622 317.411C204.556 317.411 204.907 317.061 205.14 316.243C206.542 311.804 207.944 307.364 209.346 303.042C210.164 300.589 210.864 298.252 211.682 295.565C210.164 295.565 208.879 295.682 207.593 295.565C206.425 295.449 205.841 295.916 205.607 297.084C204.673 301.173 203.505 305.145 202.22 309.467ZM226.869 344.514C226.168 344.514 225.935 344.047 225.584 343.813C221.378 340.542 215.07 341.71 212.734 346.617C210.514 351.056 210.514 355.729 212.85 360.168C215.537 365.425 222.079 366.36 226.285 362.154C226.519 361.921 226.636 361.57 226.986 361.687C227.453 364.257 227.453 364.257 230.257 364.257C230.491 364.257 230.724 364.257 230.841 364.257C232.126 364.491 232.477 363.907 232.477 362.621C232.477 354.561 232.477 346.5 232.477 338.322C232.477 334.117 232.477 334.117 228.271 334.117C227.103 334.117 226.752 334.467 226.752 335.636C226.869 338.673 226.869 341.593 226.869 344.514ZM265.187 307.598C266.355 309.584 267.64 311.453 268.458 313.556C269.743 316.827 271.846 317.879 275.117 317.411C276.752 317.178 276.869 317.411 275.935 315.776C273.715 312.037 271.612 308.299 269.393 304.561C268.925 303.86 268.925 303.276 269.626 302.692C271.495 300.706 273.364 298.72 275.234 296.617C275.467 296.383 275.935 296.15 275.818 295.565C274.065 295.565 272.313 295.682 270.561 295.565C269.509 295.565 268.925 295.916 268.341 296.617C266.589 298.72 264.72 300.822 262.5 303.276C262.5 302.341 262.5 301.874 262.5 301.29C262.5 297.084 262.5 292.995 262.5 288.79C262.5 287.738 262.266 287.271 261.098 287.388C260.047 287.505 258.879 287.388 257.827 287.388C257.009 287.388 256.659 287.621 256.659 288.556C256.659 297.785 256.659 307.131 256.659 316.36C256.659 316.827 256.659 317.411 257.243 317.411C258.879 317.411 260.748 317.995 262.15 317.178C263.084 316.593 262.266 314.841 262.383 313.673C262.383 313.439 262.383 313.206 262.383 313.089C262.033 310.402 263.551 309 265.187 307.598ZM307.71 357.481C307.593 357.481 307.477 357.481 307.36 357.364C306.192 353.86 304.907 350.238 303.738 346.734C302.336 342.528 302.336 342.528 297.897 342.411C296.495 342.411 296.145 342.645 296.729 344.047C299.182 350.355 301.519 356.664 303.972 362.972C304.907 365.425 303.154 368.112 300.584 368.463C299.65 368.579 298.248 367.645 297.78 368.813C297.43 369.748 297.897 370.916 298.014 372.084C298.014 372.551 298.248 372.668 298.715 372.785C302.453 374.07 307.126 372.435 308.879 368.813C309.93 366.71 310.631 364.491 311.449 362.271C313.668 356.079 315.888 349.888 318.224 343.813C318.692 342.645 318.458 342.411 317.29 342.411C316.238 342.528 315.07 342.528 314.019 342.411C313.084 342.294 312.617 342.762 312.383 343.696C311.682 346.033 310.864 348.252 310.164 350.472C309.229 352.808 308.411 355.145 307.71 357.481ZM224.883 295.215C218.224 295.215 213.668 299.771 213.668 306.43C213.668 313.556 217.991 317.995 225 317.995C231.425 317.995 236.098 313.206 236.215 306.664C236.215 299.888 231.425 295.215 224.883 295.215ZM201.869 361.804C201.869 364.257 203.154 364.491 204.79 364.257C205.607 364.14 206.308 364.257 207.126 364.257C207.827 364.257 208.061 364.023 207.71 363.322C206.776 361.22 206.776 358.883 206.776 356.547C206.776 353.626 207.009 350.706 206.776 347.785C206.542 344.748 205.023 343.112 202.22 342.411C199.883 341.827 197.43 341.827 195.093 342.178C191.939 342.528 189.72 344.28 188.668 347.318C188.551 347.785 188.318 348.252 189.019 348.369C190.304 348.603 191.472 348.72 192.757 348.953C193.341 349.07 193.575 348.836 193.925 348.369C195.21 346.383 198.014 345.682 200.117 346.734C201.168 347.318 201.285 348.252 201.402 349.304C201.402 350.472 200.584 350.355 199.883 350.472C197.43 351.173 194.743 351.407 192.29 352.341C189.136 353.509 187.5 355.963 187.85 359.117C188.201 362.154 190.654 364.374 193.925 364.724C196.846 365.075 199.416 364.14 201.869 361.804ZM249.65 355.028C251.636 355.028 253.738 355.028 255.724 355.028C256.542 355.028 256.893 354.794 256.893 353.86C256.776 352.224 256.659 350.472 256.192 348.953C254.907 344.748 251.636 342.178 247.196 342.061C242.523 341.944 239.019 344.164 237.383 348.369C236.332 351.173 236.332 354.093 236.916 357.014C238.435 364.257 247.664 367.528 253.388 362.855C254.556 361.921 255.374 360.752 256.075 359.467C256.425 358.766 256.425 358.182 255.491 358.065C254.322 357.949 253.154 357.715 251.986 357.481C251.168 357.365 250.701 357.481 250.467 358.299C250 359.467 249.182 360.168 247.897 360.402C245.093 360.869 242.523 358.533 242.523 355.846C242.523 355.028 242.991 355.028 243.575 355.028C245.561 355.028 247.547 355.028 249.65 355.028ZM156.425 308.065C158.411 308.065 160.397 308.065 162.383 308.065C163.318 308.065 163.668 307.832 163.668 306.78C163.551 305.145 163.435 303.509 162.967 301.991C161.799 297.902 158.645 295.332 154.673 295.098C149.766 294.748 146.262 296.617 144.509 300.706C142.991 304.327 142.874 308.065 144.276 311.687C146.729 318.112 156.308 319.981 161.098 315.075C161.916 314.257 162.5 313.322 162.967 312.271C163.084 311.921 163.435 311.453 162.85 311.336C161.215 310.986 159.579 310.752 157.944 310.519C157.36 310.402 157.36 311.22 157.126 311.57C156.425 312.972 155.257 313.556 153.621 313.439C151.402 313.322 149.883 311.804 149.299 309.35C149.065 308.299 149.299 307.949 150.35 307.949C152.453 308.182 154.439 308.065 156.425 308.065ZM297.43 298.486C296.963 295.565 296.963 295.565 294.159 295.565C293.808 295.565 293.575 295.565 293.224 295.565C292.173 295.449 291.939 295.916 291.939 296.85C291.939 302.341 291.939 307.832 291.939 313.322C291.939 317.411 291.939 317.294 295.911 317.411C297.313 317.411 297.664 317.061 297.664 315.659C297.664 311.57 297.313 307.481 297.897 303.509C298.248 300.939 300.234 299.421 302.687 299.654C304.79 299.771 305.958 301.173 305.958 303.977C306.075 307.014 305.958 310.168 305.958 313.206C305.958 317.878 305.958 317.879 310.748 317.528C311.565 317.411 311.682 317.178 311.682 316.477C311.682 311.57 311.799 306.547 311.565 301.64C311.449 297.902 308.879 295.565 305.14 295.332C302.103 294.981 299.65 296.033 297.43 298.486ZM184.813 348.953C183.645 344.631 180.841 342.294 176.402 342.178C170.794 341.944 167.173 343.93 165.537 348.252C164.603 350.706 164.486 353.276 164.836 355.963C165.888 363.79 174.883 367.762 181.308 363.322C183.178 362.037 184.229 360.168 184.93 357.949C185.164 357.364 185.047 357.014 184.229 356.897C183.061 356.78 182.009 356.547 180.841 356.313C179.79 356.079 179.322 356.313 179.089 357.364C178.621 359.117 177.453 360.051 175.584 360.168C173.715 360.285 172.079 359.584 171.379 357.832C170.093 355.028 170.093 351.991 171.145 349.187C171.729 347.551 173.131 346.85 174.883 346.734C176.285 346.617 177.921 346.85 178.388 348.252C179.089 350.355 180.374 350.005 181.893 349.654C182.827 349.304 183.762 349.187 184.813 348.953ZM174.299 287.855C173.131 288.556 172.313 289.14 171.379 289.491C169.276 290.425 167.991 291.71 168.575 294.28C168.808 295.332 168.224 295.682 167.29 295.565C166.822 295.565 166.121 295.332 166.121 295.916C166.005 297.201 166.005 298.486 166.121 299.771C166.121 300.121 166.589 300.121 166.939 300.121C168.575 299.771 168.692 300.706 168.692 302.107C168.692 305.963 168.341 309.818 168.925 313.673C169.276 316.36 170.678 317.645 173.364 317.878C174.065 317.878 174.766 317.878 175.35 317.878C178.738 317.645 178.972 317.528 178.505 314.14C178.505 314.023 178.505 313.907 178.505 313.79C178.621 312.738 178.154 312.738 177.336 312.972C175.234 313.439 174.533 312.972 174.533 310.752C174.533 307.949 174.533 305.262 174.533 302.458C174.533 299.888 174.182 300.121 176.752 300.238C178.154 300.238 178.621 299.888 178.505 298.486C178.388 295.799 178.505 295.682 175.701 295.682C174.65 295.682 174.416 295.215 174.416 294.28C174.416 292.178 174.299 290.192 174.299 287.855ZM245.794 298.252C245.561 295.565 245.561 295.565 242.874 295.565C242.523 295.565 242.173 295.565 241.822 295.565C240.654 295.449 240.304 295.799 240.304 297.084C240.304 303.393 240.304 309.701 240.304 316.009C240.304 317.061 240.537 317.528 241.706 317.411C242.757 317.294 243.808 317.294 244.86 317.411C245.911 317.528 246.262 317.178 246.262 316.126C246.262 312.972 246.262 309.818 246.262 306.78C246.262 305.262 246.379 303.86 246.963 302.458C247.664 300.822 248.949 300.121 250.701 300.472C252.804 300.822 252.804 300.822 253.621 298.836C253.738 298.369 253.855 297.902 254.089 297.551C254.556 296.5 254.206 296.033 253.271 295.682C250.35 294.514 248.715 295.098 245.794 298.252ZM280.374 306.43C280.374 308.65 280.374 310.752 280.374 312.972C280.374 317.411 280.374 317.411 284.813 317.294C285.864 317.294 286.098 316.944 286.098 316.009C286.098 309.584 286.098 303.159 286.098 296.734C286.098 295.799 285.865 295.449 284.93 295.449C283.879 295.565 282.827 295.565 281.776 295.449C280.724 295.332 280.374 295.682 280.374 296.85C280.374 300.121 280.374 303.276 280.374 306.43ZM283.178 292.645C286.098 292.645 286.098 292.645 286.098 289.841C286.098 289.374 286.098 289.023 286.098 288.556C286.215 287.505 285.748 287.154 284.696 287.271C283.762 287.388 282.71 287.388 281.776 287.271C280.724 287.154 280.257 287.505 280.374 288.673C280.374 289.023 280.374 289.374 280.374 289.724C280.374 292.645 280.374 292.645 283.178 292.645Z" fill="#0E74A5"/>
<path d="M225.934 259.935C170.794 259.935 115.654 259.935 60.5137 259.935C58.0604 259.935 58.2941 260.168 58.2941 257.715C58.2941 203.276 58.2941 148.836 58.2941 94.514C58.2941 82.4813 65.1866 73.2523 76.2847 70.215C78.1539 69.7477 80.023 69.3972 82.009 69.3972C177.92 69.3972 273.948 69.3972 369.859 69.3972C382.71 69.3972 393.458 79.9112 393.574 92.7617C393.691 102.808 393.574 112.855 393.574 123.019C393.574 167.879 393.574 212.738 393.574 257.598C393.574 259.818 393.574 259.818 391.355 259.818C336.331 259.935 281.074 259.935 225.934 259.935ZM303.855 183.65C291.588 183.65 281.308 193.696 281.191 205.729C281.191 217.762 291.355 227.925 303.621 227.925C316.355 227.925 326.285 218.229 326.285 205.612C326.285 193.579 316.121 183.65 303.855 183.65ZM197.546 221.85C197.546 223.019 197.546 224.304 197.546 225.472C197.43 226.523 197.897 226.874 198.831 226.991C201.285 227.224 203.738 227.692 206.074 227.808C211.098 228.159 216.121 227.692 220.56 225.005C225.117 222.318 227.102 218.112 226.752 212.855C226.402 207.832 223.715 204.327 219.159 202.341C217.99 201.874 216.705 201.407 215.537 200.939C214.018 200.355 212.5 199.888 210.981 199.187C209.696 198.603 208.761 197.785 208.761 196.266C208.761 194.748 209.813 193.93 211.098 193.463C212.266 192.879 213.551 192.762 214.953 192.762C217.523 192.762 220.093 193.112 222.546 193.696C223.481 193.93 223.948 193.813 223.948 192.645C223.831 190.542 223.831 188.322 223.948 186.22C223.948 185.168 223.598 184.701 222.546 184.584C220.911 184.35 219.392 184 217.757 183.766C212.5 183.299 207.243 183.299 202.57 186.57C195.911 191.243 195.677 201.407 202.219 206.313C204.439 207.949 206.892 208.883 209.462 209.584C211.098 210.051 212.85 210.519 214.252 211.687C216.355 213.556 216.004 216.126 213.434 217.294C212.032 217.879 210.514 218.112 208.995 218.229C205.49 218.346 202.102 217.762 198.831 216.944C197.897 216.71 197.546 216.944 197.663 217.879C197.546 219.397 197.546 220.682 197.546 221.85ZM157.359 215.075C154.205 216.477 151.051 217.294 147.897 217.294C139.486 217.294 133.995 208.766 137.5 201.056C139.719 196.15 144.976 193.696 150.934 194.631C153.154 194.981 155.14 195.682 157.359 196.734C157.359 193.229 157.243 189.958 157.359 186.804C157.359 185.636 156.892 185.168 155.841 184.818C152.102 183.766 148.364 183.65 144.509 183.883C132.126 184.818 122.897 196.734 124.883 209C127.57 226.173 144.159 230.729 156.425 226.757C157.009 226.523 157.359 226.29 157.359 225.589C157.359 222.084 157.359 218.696 157.359 215.075ZM269.859 215.075C269.159 215.308 268.574 215.542 268.107 215.776C264.953 216.944 261.799 217.528 258.411 217.061C252.92 216.243 249.065 211.687 249.065 206.196C248.948 200.238 252.453 195.799 258.06 194.748C261.682 194.047 265.187 194.631 268.458 196.033C269.859 196.617 269.976 196.266 269.976 194.981C269.859 192.294 269.859 189.607 269.976 186.804C269.976 185.519 269.509 184.935 268.341 184.701C265.07 183.883 261.799 183.533 258.411 183.766C250.116 184.35 243.574 187.972 239.836 195.565C235.981 203.393 236.331 211.22 241.238 218.463C247.663 228.159 260.046 229.561 269.042 226.64C269.509 226.523 269.976 226.29 269.976 225.706C269.859 222.201 269.859 218.696 269.859 215.075ZM289.719 132.131C289.719 122.785 289.719 113.322 289.719 103.977C289.719 102.458 289.369 101.173 288.434 100.122C286.916 98.486 284.696 97.9019 282.593 98.6028C280.49 99.3037 279.205 101.173 279.205 103.509C279.205 122.435 279.205 141.36 279.205 160.285C279.205 160.752 279.205 161.336 279.439 161.804C280.14 164.491 282.476 165.893 285.28 165.542C287.85 165.192 289.836 163.089 289.836 160.168C289.719 150.939 289.719 141.593 289.719 132.131ZM172.196 131.897C172.196 129.21 172.196 126.523 172.196 123.953C172.196 117.178 172.196 110.402 172.196 103.626C172.196 99.8879 168.808 97.4346 165.303 98.6028C162.85 99.4206 161.565 101.407 161.565 104.561C161.565 122.201 161.565 139.958 161.565 157.598C161.565 158.533 161.565 159.584 161.565 160.519C161.799 163.556 164.369 165.893 167.289 165.659C170.21 165.425 172.196 163.206 172.196 159.935C172.196 150.589 172.196 141.243 172.196 131.897ZM172.313 205.729C172.313 212.388 172.313 219.047 172.313 225.706C172.313 226.757 172.663 227.107 173.715 227.107C176.168 226.991 178.621 226.991 181.074 227.107C182.71 227.224 183.06 226.757 183.06 225.122C182.944 212.738 183.06 200.355 183.06 188.089C183.06 187.154 183.06 186.336 183.06 185.402C183.06 184.584 182.71 184.35 181.892 184.35C179.205 184.35 176.518 184.467 173.715 184.35C172.546 184.35 172.196 184.701 172.313 185.869C172.313 192.411 172.313 199.07 172.313 205.729ZM308.528 136.687C308.528 136.687 308.411 136.687 308.528 136.687C308.528 141.009 308.411 145.215 308.528 149.537C308.528 152.925 310.631 155.028 313.785 155.145C316.939 155.145 319.159 153.042 319.159 149.654C319.275 141.126 319.159 132.598 319.159 124.07C319.159 122.551 318.691 121.033 317.406 119.981C315.771 118.579 313.902 118.112 311.916 118.93C309.813 119.748 308.528 121.266 308.528 123.603C308.411 127.925 308.528 132.248 308.528 136.687ZM132.243 136.687C132.243 141.126 132.126 145.565 132.243 150.005C132.243 153.042 134.462 155.028 137.5 155.028C140.42 155.028 142.757 152.925 142.757 150.005C142.874 141.243 142.757 132.481 142.757 123.72C142.757 121.967 142.056 120.449 140.537 119.397C138.902 118.229 137.032 118.112 135.163 118.93C133.294 119.865 132.126 121.383 132.126 123.486C132.243 127.925 132.243 132.364 132.243 136.687ZM249.766 136.804C249.766 141.126 249.766 145.332 249.766 149.654C249.766 152.808 251.986 155.028 255.023 155.145C257.944 155.262 260.397 152.925 260.397 149.888C260.514 141.243 260.397 132.598 260.397 123.953C260.397 121.85 259.462 120.098 257.476 119.164C253.855 117.411 249.883 119.864 249.766 124.07C249.649 128.159 249.766 132.481 249.766 136.804ZM201.635 136.804C201.635 132.598 201.635 128.393 201.635 124.187C201.635 122.785 201.402 121.617 200.467 120.565C198.948 118.813 196.612 118.112 194.509 118.93C192.173 119.748 190.888 121.617 190.888 124.421C190.888 132.832 190.888 141.243 190.888 149.654C190.888 152.925 192.99 155.145 196.145 155.262C199.416 155.262 201.518 153.159 201.518 149.771C201.635 145.215 201.635 141.009 201.635 136.804ZM348.364 144.28C348.364 142.294 348.364 140.425 348.364 138.439C348.364 135.519 346.261 133.416 343.458 133.182C340.654 132.949 337.967 134.935 337.85 137.855C337.616 142.061 337.616 146.15 337.85 150.355C337.967 153.276 340.654 155.262 343.458 155.028C346.145 154.794 348.247 152.575 348.364 149.654C348.481 147.902 348.364 146.033 348.364 144.28ZM230.958 144.047C230.958 142.178 230.958 140.308 230.958 138.439C230.841 135.519 228.504 133.182 225.584 133.182C222.78 133.182 220.327 135.402 220.327 138.322C220.21 142.178 220.21 145.916 220.327 149.771C220.444 153.042 222.663 155.262 225.817 155.145C228.738 155.028 230.958 152.808 230.958 149.654C230.958 147.668 230.958 145.916 230.958 144.047ZM102.803 144.164C102.803 146.033 102.803 147.902 102.803 149.771C102.803 152.808 105.14 155.028 108.06 155.028C110.981 155.028 113.317 152.808 113.317 149.771C113.434 145.916 113.317 142.061 113.317 138.206C113.317 135.285 110.981 133.065 108.177 133.065C105.257 133.065 102.92 135.285 102.92 138.206C102.803 140.308 102.803 142.178 102.803 144.164ZM345.677 226.056C345.093 224.537 344.626 223.369 344.159 222.201C344.042 221.85 343.925 221.5 343.458 221.5C343.224 221.5 342.873 221.5 342.873 221.85C342.873 223.603 342.873 225.238 342.873 226.991C342.99 226.991 343.107 226.991 343.341 226.991C343.808 225.939 343.224 224.771 343.808 223.486C344.275 224.537 344.509 225.355 344.859 226.173C344.976 226.523 344.976 226.991 345.56 226.991C346.145 226.991 346.145 226.523 346.261 226.173C346.612 225.238 346.962 224.421 347.43 223.136C347.897 224.654 347.313 226.056 348.13 226.991C348.364 225.472 348.364 223.953 348.364 222.551C348.364 222.201 348.598 221.617 348.014 221.5C347.43 221.383 347.079 221.734 346.962 222.318C346.612 223.486 346.145 224.654 345.677 226.056ZM342.406 221.85C340.771 221.383 339.252 221.5 337.5 221.85C340.42 221.617 339.602 223.486 339.719 224.888C339.836 225.589 339.486 226.407 340.07 227.107C340.537 226.29 340.303 225.472 340.303 224.771C340.42 223.486 339.836 221.617 342.406 221.85Z" fill="white"/>
<path d="M132.71 307.014C133.061 306.313 132.944 305.729 132.944 305.262C132.944 299.771 132.944 294.28 132.944 288.79C132.944 287.622 133.178 287.154 134.463 287.271C135.397 287.388 136.332 287.388 137.266 287.271C138.201 287.154 138.668 287.505 138.668 288.556C138.668 297.785 138.668 306.897 138.668 316.126C138.668 317.061 138.435 317.411 137.5 317.411C132.71 317.528 132.71 317.528 130.257 313.439C127.336 308.766 124.533 304.094 121.612 299.421C121.378 298.953 121.028 298.603 120.678 298.136C120.327 298.72 120.444 299.187 120.444 299.537C120.444 304.911 120.444 310.285 120.444 315.659C120.444 316.944 120.21 317.411 118.808 317.411C114.836 317.294 114.836 317.411 114.836 313.439C114.836 305.262 114.836 297.084 114.836 288.907C114.836 287.622 115.304 287.388 116.472 287.271C119.743 286.804 121.495 288.206 123.014 291.009C125.935 296.383 129.439 301.523 132.71 307.014Z" fill="#FBFCFD"/>
<path d="M266.705 345.098C268.808 342.995 271.028 341.827 273.832 342.061C275.818 342.178 277.57 342.878 278.738 344.514C279.322 345.449 279.673 345.215 280.374 344.514C282.71 342.178 285.397 341.477 288.551 342.294C291.589 343.112 293.107 345.215 293.224 348.72C293.341 353.509 293.224 358.299 293.341 363.089C293.341 363.907 293.107 364.14 292.289 364.14C287.5 364.374 287.5 364.491 287.5 359.701C287.5 356.43 287.5 353.276 287.5 350.005C287.5 347.668 286.682 346.617 285.046 346.383C283.177 346.15 281.308 347.201 280.724 349.187C280.374 350.472 280.257 351.757 280.257 353.042C280.257 356.313 280.257 359.584 280.257 362.855C280.257 363.79 279.906 364.14 278.972 364.14C274.416 364.257 274.416 364.257 274.416 359.818C274.416 356.43 274.416 353.159 274.299 349.771C274.299 347.551 273.598 346.617 272.079 346.383C270.093 346.033 268.224 347.084 267.523 348.953C267.056 350.238 267.056 351.523 267.056 352.808C267.056 356.196 267.056 359.467 267.056 362.855C267.056 363.907 266.705 364.14 265.771 364.257C261.332 364.374 261.332 364.374 261.332 359.935C261.332 354.561 261.332 349.187 261.332 343.813C261.332 342.762 261.565 342.294 262.733 342.411C263.201 342.411 263.551 342.411 264.018 342.411C266.355 342.528 266.355 342.528 266.705 345.098Z" fill="#FBFCFD"/>
<path d="M331.775 313.907C329.556 316.71 326.869 317.762 323.714 317.178C320.21 316.477 318.224 314.14 317.056 310.986C316.004 307.832 316.004 304.561 317.056 301.407C319.275 294.28 327.92 293.229 331.658 297.902C331.775 298.019 331.892 298.136 332.009 298.136C332.126 298.019 332.243 298.019 332.243 297.902C332.476 295.565 332.476 295.565 334.813 295.565C337.616 295.565 337.616 295.565 337.616 298.369C337.616 303.743 337.616 309 337.616 314.374C337.616 315.425 337.616 316.593 337.5 317.645C337.149 323.019 335.046 325.355 329.789 326.056C327.102 326.407 324.415 326.29 321.845 325.472C319.158 324.654 317.289 322.435 317.172 319.981C317.172 319.164 317.172 318.579 318.341 318.813C319.509 319.047 320.677 319.047 321.962 319.28C322.897 319.397 323.948 319.397 324.299 320.682C324.415 321.15 325 321.383 325.584 321.5C327.219 321.967 328.738 321.85 330.373 321.15C331.542 320.682 332.009 319.748 332.009 318.579C331.775 317.178 331.775 315.776 331.775 313.907ZM322.313 306.196C322.313 307.014 322.313 308.065 322.663 309C323.364 311.22 324.766 312.505 326.635 312.621C328.738 312.738 330.607 311.57 331.308 309.467C332.126 307.131 332.126 304.794 331.191 302.458C330.49 300.472 328.738 299.421 326.635 299.537C324.766 299.654 323.247 300.822 322.546 302.925C322.313 303.86 322.313 304.911 322.313 306.196Z" fill="#FBFCFD"/>
<path d="M147.547 334.234C150.701 334.234 150.701 334.234 151.869 337.271C155.257 345.799 158.762 354.444 162.15 362.972C162.617 364.023 162.617 364.491 161.215 364.374C159.58 364.257 157.594 364.841 156.309 364.14C155.024 363.439 154.79 361.336 154.439 359.818C153.972 357.949 152.921 357.364 150.935 357.481C148.131 357.715 145.444 357.598 142.64 357.481C141.706 357.481 141.238 357.715 141.005 358.65C140.538 360.168 139.953 361.687 139.369 363.206C139.136 364.023 138.668 364.374 137.851 364.374C136.566 364.257 135.397 364.257 134.112 364.374C132.827 364.491 132.594 364.023 133.061 362.855C135.748 355.963 138.435 349.07 141.122 342.178C141.939 340.192 142.757 338.206 143.458 336.22C143.925 334.701 144.626 334 146.262 334.35C146.612 334.35 147.08 334.234 147.547 334.234ZM147.43 341.243C146.028 344.981 144.86 348.135 143.692 351.407C143.458 352.107 143.575 352.458 144.393 352.458C146.496 352.458 148.598 352.458 150.701 352.458C151.519 352.458 151.519 352.107 151.285 351.523C150 348.252 148.832 344.981 147.43 341.243Z" fill="#FBFCFD"/>
<path d="M202.22 309.467C203.505 305.145 204.673 301.173 205.841 297.084C206.192 295.916 206.659 295.449 207.827 295.565C209.112 295.682 210.397 295.565 211.916 295.565C211.098 298.136 210.397 300.589 209.579 303.042C208.178 307.481 206.659 311.804 205.374 316.243C205.14 317.061 204.79 317.411 203.855 317.411C199.533 317.528 199.533 317.528 198.364 313.322C197.547 310.168 196.612 307.131 195.794 303.743C194.977 305.729 194.626 307.598 194.159 309.467C193.458 311.804 192.874 314.14 192.406 316.477C192.29 317.178 191.939 317.645 191.121 317.528H191.005C186.565 317.645 186.565 317.645 185.28 313.439C183.528 308.065 181.892 302.575 180.14 297.201C179.79 296.033 179.906 295.682 181.192 295.682C185.28 295.682 185.28 295.682 186.449 299.537C187.383 302.808 188.318 306.079 189.252 309.467C189.836 309.117 189.72 308.533 189.836 308.182C190.888 304.444 191.822 300.706 192.757 296.967C192.991 295.916 193.458 295.682 194.509 295.682C198.715 295.682 198.715 295.682 199.766 299.771C200.584 302.808 201.285 305.963 202.103 309C201.869 309 201.986 309.117 202.22 309.467Z" fill="#FBFCFD"/>
<path d="M226.869 344.514C226.869 341.477 226.869 338.556 226.869 335.636C226.869 334.467 227.22 334.117 228.388 334.117C232.594 334.117 232.594 334.117 232.594 338.322C232.594 346.383 232.594 354.444 232.594 362.621C232.594 363.907 232.243 364.491 230.958 364.257C230.724 364.257 230.491 364.257 230.374 364.257C227.57 364.257 227.57 364.257 227.103 361.687C226.752 361.687 226.636 362.037 226.402 362.154C222.08 366.36 215.654 365.425 212.967 360.168C210.631 355.729 210.631 351.056 212.851 346.617C215.187 341.827 221.495 340.542 225.701 343.813C225.935 344.164 226.168 344.514 226.869 344.514ZM217.29 353.276C217.29 354.327 217.407 355.379 217.64 356.43C218.224 358.766 219.86 360.168 221.963 360.285C224.066 360.402 225.818 359 226.519 356.664C227.22 354.327 227.103 351.991 226.402 349.771C225.818 347.785 224.299 346.5 222.313 346.5C220.327 346.383 218.692 347.551 217.874 349.537C217.29 350.706 217.173 351.991 217.29 353.276Z" fill="#FBFCFD"/>
<path d="M265.187 307.598C263.434 309 262.032 310.402 262.5 312.855C262.5 313.089 262.5 313.322 262.5 313.439C262.383 314.608 263.084 316.477 262.266 316.944C260.864 317.762 258.995 317.178 257.359 317.178C256.659 317.178 256.775 316.593 256.775 316.126C256.775 306.897 256.775 297.551 256.775 288.322C256.775 287.388 257.126 287.154 257.944 287.154C258.995 287.154 260.163 287.271 261.215 287.154C262.383 287.037 262.616 287.622 262.616 288.556C262.616 292.762 262.616 296.85 262.616 301.056C262.616 301.523 262.616 302.107 262.616 303.042C264.719 300.589 266.588 298.603 268.458 296.383C269.042 295.682 269.743 295.332 270.677 295.332C272.43 295.449 274.182 295.332 275.934 295.332C276.168 295.916 275.584 296.15 275.35 296.383C273.481 298.369 271.612 300.472 269.743 302.458C269.159 303.159 269.042 303.626 269.509 304.327C271.729 308.065 273.831 311.804 276.051 315.542C276.986 317.061 276.869 316.944 275.233 317.178C271.962 317.645 269.743 316.593 268.574 313.322C267.757 311.453 266.355 309.701 265.187 307.598Z" fill="#FBFCFD"/>
<path d="M307.71 357.481C308.528 355.145 309.229 352.808 310.047 350.589C310.748 348.369 311.565 346.033 312.266 343.813C312.5 342.878 312.85 342.528 313.902 342.528C314.953 342.645 316.121 342.645 317.173 342.528C318.341 342.411 318.575 342.762 318.107 343.93C315.771 350.121 313.551 356.196 311.332 362.388C310.514 364.607 309.813 366.827 308.762 368.93C307.009 372.551 302.336 374.304 298.598 372.902C298.248 372.785 298.014 372.551 297.897 372.201C297.78 371.149 297.313 369.864 297.664 368.93C298.131 367.762 299.533 368.696 300.467 368.579C303.037 368.229 304.79 365.542 303.855 363.089C301.519 356.78 299.065 350.472 296.612 344.164C296.028 342.762 296.378 342.528 297.78 342.528C302.22 342.528 302.22 342.528 303.621 346.85C304.79 350.355 306.075 353.977 307.243 357.481C307.477 357.481 307.593 357.481 307.71 357.481Z" fill="#FBFCFD"/>
<path d="M224.883 295.215C231.425 295.215 236.215 300.005 236.098 306.547C236.098 313.089 231.308 317.879 224.883 317.879C217.874 317.879 213.551 313.439 213.551 306.313C213.668 299.771 218.224 295.215 224.883 295.215ZM230.14 306.547C230.14 305.612 230.14 304.678 229.79 303.743C229.089 301.29 227.22 299.771 224.766 299.771C222.43 299.771 220.561 301.29 219.86 303.626C219.276 305.612 219.276 307.598 219.977 309.467C220.677 311.687 222.663 313.089 224.883 313.089C227.103 313.089 228.855 311.687 229.673 309.467C230.023 308.65 230.14 307.598 230.14 306.547Z" fill="#FBFCFD"/>
<path d="M201.869 361.804C199.415 364.14 196.845 365.075 193.808 364.724C190.537 364.374 188.201 362.271 187.733 359.117C187.383 356.079 189.018 353.509 192.172 352.341C194.626 351.406 197.196 351.173 199.766 350.472C200.35 350.238 201.285 350.355 201.285 349.304C201.285 348.252 201.051 347.318 200 346.734C197.897 345.682 195.21 346.266 193.808 348.369C193.458 348.836 193.224 349.07 192.64 348.953C191.472 348.72 190.187 348.486 188.901 348.369C188.084 348.252 188.317 347.785 188.551 347.318C189.602 344.28 191.822 342.528 194.976 342.178C197.313 341.944 199.766 341.827 202.102 342.411C205.023 343.112 206.425 344.864 206.658 347.785C206.892 350.706 206.658 353.626 206.658 356.547C206.658 358.883 206.542 361.103 207.593 363.322C207.944 364.023 207.71 364.257 207.009 364.257C206.191 364.257 205.49 364.14 204.672 364.257C203.154 364.491 201.869 364.257 201.869 361.804ZM201.285 355.612C200.701 355.378 202.219 353.977 200.584 354.21C198.948 354.444 197.196 354.911 195.56 355.378C194.275 355.729 193.458 356.664 193.574 358.182C193.691 359.467 194.859 360.635 196.261 360.752C199.182 360.986 201.168 359.117 201.285 355.612Z" fill="#FBFCFD"/>
<path d="M249.649 355.028C247.663 355.028 245.561 355.028 243.575 355.028C242.991 355.028 242.523 355.028 242.523 355.846C242.523 358.65 245.093 360.869 247.897 360.402C249.182 360.168 250 359.467 250.467 358.299C250.818 357.481 251.168 357.365 251.986 357.481C253.154 357.715 254.322 357.949 255.491 358.065C256.542 358.182 256.542 358.649 256.075 359.467C255.374 360.752 254.556 361.921 253.388 362.855C247.547 367.411 238.434 364.14 236.916 357.014C236.332 354.093 236.332 351.173 237.383 348.369C238.902 344.164 242.406 341.944 247.196 342.061C251.635 342.178 254.906 344.748 256.192 348.953C256.659 350.589 256.892 352.224 256.892 353.86C256.892 354.794 256.542 355.028 255.724 355.028C253.738 355.028 251.635 355.028 249.649 355.028ZM246.846 351.523C248.014 351.523 249.182 351.523 250.467 351.523C251.051 351.523 251.285 351.29 251.168 350.706C251.051 348.486 249.416 346.617 247.313 346.5C245.093 346.383 243.341 347.668 242.757 349.888C242.406 351.173 242.757 351.64 244.159 351.523C244.977 351.523 245.911 351.523 246.846 351.523Z" fill="#FBFCFD"/>
<path d="M156.425 308.065C154.439 308.065 152.453 308.065 150.467 308.065C149.299 308.065 149.182 308.416 149.416 309.467C149.883 311.921 151.402 313.439 153.738 313.556C155.257 313.673 156.425 313.089 157.243 311.687C157.477 311.336 157.477 310.636 158.061 310.636C159.696 310.869 161.332 311.103 162.967 311.453C163.551 311.57 163.201 312.037 163.084 312.388C162.617 313.439 162.033 314.374 161.215 315.192C156.425 320.215 146.846 318.346 144.392 311.804C142.991 308.182 143.107 304.444 144.626 300.822C146.378 296.734 149.883 294.864 154.79 295.215C158.762 295.449 161.916 298.136 163.084 302.107C163.551 303.626 163.668 305.262 163.785 306.897C163.902 307.832 163.435 308.182 162.5 308.182C160.397 308.065 158.411 308.065 156.425 308.065ZM153.738 304.561C154.906 304.561 156.075 304.561 157.126 304.561C157.477 304.561 157.944 304.678 157.944 303.977C158.061 301.757 156.075 299.537 153.855 299.537C151.519 299.421 149.533 301.29 149.533 303.743C149.533 304.444 149.649 304.678 150.35 304.678C151.402 304.561 152.57 304.561 153.738 304.561Z" fill="#FBFCFD"/>
<path d="M297.43 298.486C299.65 296.033 302.103 294.981 305.257 295.215C309.112 295.449 311.566 297.668 311.682 301.523C311.799 306.43 311.799 311.453 311.799 316.36C311.799 317.061 311.682 317.411 310.865 317.411C306.075 317.762 306.075 317.879 306.075 313.089C306.075 310.051 306.075 306.897 306.075 303.86C305.958 301.056 304.907 299.654 302.804 299.537C300.351 299.421 298.365 300.939 298.014 303.393C297.43 307.481 297.78 311.453 297.78 315.542C297.78 316.944 297.43 317.294 296.028 317.294C292.056 317.178 292.056 317.294 292.056 313.206C292.056 307.715 292.056 302.224 292.056 296.734C292.056 295.682 292.29 295.215 293.341 295.449C293.692 295.449 293.925 295.449 294.276 295.449C296.963 295.565 296.963 295.565 297.43 298.486Z" fill="#FBFCFD"/>
<path d="M184.813 348.953C183.762 349.187 182.827 349.304 181.893 349.537C180.374 349.888 179.206 350.238 178.388 348.136C177.921 346.734 176.285 346.5 174.883 346.617C173.248 346.734 171.729 347.435 171.145 349.07C170.094 351.991 170.094 354.911 171.379 357.715C172.196 359.467 173.715 360.168 175.584 360.051C177.453 359.935 178.622 359 179.089 357.248C179.323 356.196 179.79 355.963 180.841 356.196C182.009 356.43 183.061 356.664 184.229 356.78C184.93 356.897 185.047 357.248 184.93 357.832C184.229 359.935 183.178 361.804 181.308 363.206C174.766 367.645 165.771 363.673 164.837 355.846C164.486 353.159 164.603 350.589 165.537 348.136C167.173 343.813 170.794 341.827 176.402 342.061C180.724 342.294 183.645 344.631 184.813 348.953Z" fill="#FBFCFD"/>
<path d="M174.299 287.855C174.299 290.192 174.299 292.178 174.299 294.164C174.299 295.098 174.533 295.565 175.584 295.565C178.271 295.565 178.271 295.565 178.388 298.369C178.505 299.771 178.037 300.238 176.635 300.122C174.065 300.005 174.416 299.771 174.416 302.341C174.416 305.145 174.416 307.832 174.416 310.636C174.416 312.855 175.117 313.322 177.22 312.855C178.037 312.622 178.505 312.622 178.388 313.673C178.388 313.79 178.388 313.907 178.388 314.023C178.855 317.411 178.738 317.645 175.234 317.762C174.533 317.762 173.832 317.762 173.248 317.762C170.561 317.528 169.159 316.36 168.808 313.556C168.341 309.701 168.575 305.846 168.575 301.991C168.575 300.589 168.458 299.771 166.822 300.005C166.472 300.005 166.005 300.005 166.005 299.654C165.888 298.369 165.888 297.084 166.005 295.799C166.005 295.215 166.822 295.449 167.173 295.449C168.224 295.565 168.692 295.215 168.458 294.164C167.874 291.71 169.159 290.308 171.262 289.374C172.43 289.14 173.248 288.556 174.299 287.855Z" fill="#FBFCFD"/>
<path d="M245.794 298.252C248.598 295.098 250.35 294.514 253.154 295.565C254.088 295.916 254.556 296.383 253.972 297.435C253.738 297.902 253.621 298.369 253.504 298.72C252.803 300.822 252.803 300.822 250.584 300.355C248.831 300.005 247.546 300.706 246.845 302.341C246.261 303.743 246.144 305.145 246.144 306.664C246.144 309.818 246.028 312.972 246.144 316.009C246.144 317.061 245.794 317.411 244.743 317.294C243.691 317.178 242.64 317.178 241.588 317.294C240.42 317.411 240.187 316.944 240.187 315.893C240.187 309.584 240.187 303.276 240.187 296.967C240.187 295.799 240.537 295.332 241.705 295.449C242.056 295.449 242.406 295.449 242.757 295.449C245.56 295.565 245.56 295.565 245.794 298.252Z" fill="#FBFCFD"/>
<path d="M280.374 306.43C280.374 303.276 280.374 300.121 280.374 296.85C280.374 295.799 280.725 295.332 281.776 295.449C282.827 295.565 283.879 295.565 284.93 295.449C285.982 295.332 286.098 295.799 286.098 296.734C286.098 303.159 286.098 309.584 286.098 316.009C286.098 317.061 285.748 317.294 284.813 317.294C280.374 317.411 280.374 317.411 280.374 312.972C280.374 310.869 280.374 308.65 280.374 306.43Z" fill="#FBFCFD"/>
<path d="M283.178 292.645C280.374 292.645 280.374 292.645 280.374 289.724C280.374 289.374 280.374 289.023 280.374 288.673C280.257 287.505 280.724 287.154 281.776 287.271C282.71 287.388 283.762 287.388 284.696 287.271C285.631 287.154 286.215 287.505 286.098 288.556C286.098 289.023 286.098 289.374 286.098 289.841C286.098 292.645 286.098 292.645 283.178 292.645Z" fill="#FBFCFD"/>
<path d="M303.855 183.65C316.238 183.65 326.402 193.579 326.402 205.612C326.402 218.229 316.472 228.042 303.738 227.925C291.472 227.925 281.191 217.762 281.308 205.729C281.191 193.696 291.588 183.65 303.855 183.65ZM292.64 205.729C292.64 212.037 297.546 217.061 303.972 217.061C310.046 217.061 315.07 212.037 315.07 205.846C315.07 199.771 310.046 194.748 303.972 194.631C297.663 194.631 292.64 199.537 292.64 205.729Z" fill="#DF2D32"/>
<path d="M197.547 221.85C197.547 220.565 197.547 219.397 197.547 218.112C197.547 217.178 197.897 216.944 198.715 217.178C202.103 217.995 205.491 218.579 208.878 218.463C210.397 218.463 211.916 218.229 213.318 217.528C215.888 216.36 216.238 213.673 214.135 211.921C212.734 210.752 210.981 210.285 209.346 209.818C206.776 209 204.322 208.182 202.103 206.547C195.561 201.64 195.794 191.477 202.453 186.804C207.126 183.533 212.266 183.533 217.64 184C219.276 184.117 220.794 184.584 222.43 184.818C223.364 184.935 223.832 185.402 223.832 186.453C223.715 188.556 223.715 190.776 223.832 192.879C223.832 194.047 223.364 194.164 222.43 193.93C219.977 193.346 217.406 192.995 214.836 192.995C213.551 192.995 212.266 193.112 210.981 193.696C209.696 194.28 208.645 195.098 208.645 196.5C208.645 198.019 209.579 198.953 210.864 199.421C212.383 200.005 213.902 200.589 215.421 201.173C216.589 201.64 217.874 201.991 219.042 202.575C223.598 204.561 226.402 208.065 226.635 213.089C226.986 218.346 225 222.435 220.444 225.238C216.005 227.925 210.981 228.393 205.958 228.042C203.505 227.808 201.051 227.458 198.715 227.224C197.78 227.107 197.313 226.757 197.43 225.706C197.547 224.304 197.547 223.136 197.547 221.85Z" fill="#DF2D32"/>
<path d="M157.36 215.075C157.36 218.696 157.36 222.084 157.36 225.472C157.36 226.173 157.009 226.523 156.425 226.64C144.276 230.612 127.687 226.056 124.883 208.883C122.897 196.734 132.243 184.818 144.509 183.766C148.365 183.416 152.103 183.65 155.841 184.701C156.893 184.935 157.36 185.402 157.36 186.687C157.243 189.958 157.36 193.112 157.36 196.617C155.14 195.565 153.154 194.864 150.935 194.514C144.86 193.579 139.72 195.916 137.5 200.939C133.995 208.65 139.486 217.178 147.897 217.178C151.168 217.178 154.206 216.477 157.36 215.075Z" fill="#DF2D32"/>
<path d="M269.86 215.075C269.86 218.696 269.86 222.201 269.86 225.706C269.86 226.29 269.392 226.523 268.925 226.64C259.93 229.561 247.547 228.159 241.121 218.463C236.332 211.22 235.864 203.393 239.719 195.565C243.458 187.972 250 184.35 258.294 183.766C261.682 183.533 264.953 183.883 268.224 184.701C269.392 185.051 269.976 185.519 269.86 186.804C269.743 189.491 269.743 192.178 269.86 194.981C269.86 196.266 269.743 196.617 268.341 196.033C265.07 194.514 261.565 194.047 257.944 194.748C252.336 195.799 248.832 200.355 248.948 206.196C249.065 211.687 252.92 216.243 258.294 217.061C261.682 217.528 264.836 216.944 267.99 215.776C268.575 215.542 269.159 215.425 269.86 215.075Z" fill="#DF2D32"/>
<path d="M289.72 132.131C289.72 141.477 289.72 150.939 289.72 160.285C289.72 163.089 287.851 165.308 285.164 165.659C282.36 166.009 280.023 164.491 279.322 161.921C279.206 161.453 279.089 160.869 279.089 160.402C279.089 141.477 279.089 122.551 279.089 103.626C279.089 101.29 280.374 99.4206 282.477 98.7196C284.58 98.0187 286.799 98.6028 288.318 100.238C289.369 101.407 289.603 102.692 289.603 104.093C289.72 113.439 289.72 122.785 289.72 132.131Z" fill="#2C5659"/>
<path d="M172.196 131.897C172.196 141.243 172.196 150.589 172.196 159.935C172.196 163.322 170.21 165.542 167.29 165.659C164.369 165.893 161.682 163.556 161.566 160.519C161.449 159.584 161.566 158.533 161.566 157.598C161.566 139.958 161.566 122.201 161.566 104.561C161.566 101.407 162.851 99.3037 165.304 98.6028C168.809 97.5514 172.196 99.8879 172.196 103.626C172.313 110.402 172.196 117.178 172.196 123.953C172.196 126.64 172.196 129.327 172.196 131.897Z" fill="#2C5659"/>
<path d="M172.313 205.729C172.313 199.07 172.313 192.528 172.313 185.869C172.313 184.701 172.547 184.351 173.715 184.351C176.402 184.467 179.089 184.351 181.893 184.351C182.711 184.351 183.061 184.584 183.061 185.402C183.061 186.336 183.061 187.154 183.061 188.089C183.061 200.472 183.061 212.855 183.061 225.122C183.061 226.757 182.711 227.224 181.075 227.108C178.622 226.991 176.169 226.991 173.715 227.108C172.664 227.108 172.313 226.757 172.313 225.706C172.313 219.047 172.313 212.388 172.313 205.729Z" fill="#DF2D32"/>
<path d="M308.528 136.687C308.528 132.364 308.528 127.925 308.528 123.603C308.528 121.266 309.813 119.864 311.916 118.93C313.902 118.112 315.771 118.579 317.407 119.981C318.692 121.033 319.159 122.435 319.159 124.07C319.159 132.598 319.159 141.126 319.159 149.654C319.159 152.925 316.822 155.145 313.785 155.145C310.631 155.145 308.528 152.925 308.528 149.537C308.411 145.215 308.411 140.893 308.528 136.687C308.528 136.687 308.411 136.687 308.528 136.687Z" fill="#2C5659"/>
<path d="M132.243 136.687C132.243 132.364 132.243 127.925 132.243 123.603C132.243 121.5 133.294 119.981 135.28 119.047C137.149 118.229 138.902 118.346 140.654 119.514C142.173 120.565 142.874 121.967 142.874 123.836C142.874 132.598 142.874 141.36 142.874 150.121C142.874 153.042 140.537 155.145 137.617 155.145C134.696 155.145 132.476 153.159 132.36 150.121C132.243 145.565 132.243 141.126 132.243 136.687Z" fill="#2C5659"/>
<path d="M249.767 136.804C249.767 132.481 249.767 128.276 249.767 123.953C249.883 119.865 253.855 117.294 257.477 119.047C259.463 119.981 260.397 121.734 260.397 123.836C260.397 132.481 260.514 141.126 260.397 149.771C260.397 152.925 257.944 155.145 255.024 155.028C251.986 154.911 249.883 152.692 249.767 149.537C249.767 145.332 249.767 141.009 249.767 136.804Z" fill="#2C5659"/>
<path d="M201.636 136.804C201.636 141.009 201.636 145.215 201.636 149.421C201.636 152.808 199.533 155.028 196.262 154.911C193.108 154.911 191.005 152.692 191.005 149.304C191.005 140.893 191.005 132.481 191.005 124.07C191.005 121.266 192.29 119.514 194.626 118.579C196.729 117.762 199.066 118.463 200.584 120.215C201.519 121.266 201.753 122.551 201.753 123.836C201.636 128.393 201.636 132.598 201.636 136.804Z" fill="#2C5659"/>
<path d="M348.365 144.28C348.365 146.15 348.365 147.902 348.365 149.771C348.365 152.692 346.262 154.911 343.458 155.145C340.537 155.379 337.967 153.393 337.851 150.472C337.617 146.266 337.617 142.178 337.851 137.972C337.967 135.051 340.537 133.065 343.458 133.299C346.262 133.533 348.365 135.636 348.365 138.556C348.481 140.425 348.365 142.294 348.365 144.28Z" fill="#2C5659"/>
<path d="M230.958 144.047C230.958 145.916 230.958 147.668 230.958 149.537C230.958 152.692 228.739 155.028 225.818 155.028C222.781 155.145 220.444 152.808 220.327 149.654C220.211 145.799 220.211 142.061 220.327 138.206C220.444 135.285 222.781 133.065 225.584 133.065C228.505 133.065 230.841 135.402 230.958 138.322C230.958 140.308 230.958 142.178 230.958 144.047Z" fill="#2C5659"/>
<path d="M102.804 144.164C102.804 142.294 102.804 140.308 102.804 138.439C102.921 135.402 105.14 133.182 108.061 133.299C110.981 133.299 113.201 135.519 113.201 138.439C113.318 142.294 113.318 146.15 113.201 150.005C113.201 152.925 110.748 155.262 107.944 155.262C105.023 155.262 102.804 152.925 102.687 150.005C102.804 147.902 102.804 146.033 102.804 144.164Z" fill="#2C5659"/>
<path d="M345.678 226.056C346.262 224.537 346.612 223.486 346.963 222.318C347.196 221.734 347.43 221.383 348.014 221.5C348.598 221.617 348.365 222.201 348.365 222.551C348.365 224.07 348.365 225.472 348.131 226.991C347.313 225.939 347.897 224.654 347.43 223.135C346.963 224.421 346.612 225.238 346.262 226.173C346.145 226.523 346.028 226.991 345.561 226.991C344.977 226.991 344.977 226.523 344.86 226.173C344.51 225.355 344.276 224.537 343.809 223.486C343.225 224.771 343.809 226.056 343.341 226.991C343.225 226.991 343.108 226.991 342.874 226.991C342.874 225.238 342.874 223.603 342.874 221.85C342.874 221.5 343.224 221.5 343.458 221.5C343.925 221.5 344.042 221.85 344.159 222.201C344.626 223.369 344.977 224.537 345.678 226.056Z" fill="#DF2D32"/>
<path d="M342.407 221.85C339.72 221.617 340.421 223.369 340.304 224.771C340.304 225.472 340.537 226.29 340.07 227.107C339.603 226.29 339.836 225.589 339.72 224.888C339.603 223.603 340.421 221.617 337.5 221.85C339.252 221.5 340.771 221.5 342.407 221.85Z" fill="#DF2D32"/>
<path d="M322.313 306.196C322.313 304.911 322.43 303.86 322.663 302.808C323.364 300.822 324.766 299.537 326.752 299.421C328.855 299.304 330.491 300.355 331.308 302.341C332.126 304.678 332.243 307.014 331.425 309.35C330.724 311.453 328.738 312.621 326.752 312.505C324.883 312.388 323.364 311.103 322.78 308.883C322.313 308.065 322.313 307.014 322.313 306.196Z" fill="#0E74A5"/>
<path d="M147.43 341.243C148.831 344.981 150 348.135 151.285 351.407C151.518 352.107 151.518 352.341 150.701 352.341C148.598 352.341 146.495 352.341 144.392 352.341C143.574 352.341 143.458 351.991 143.691 351.29C144.859 348.135 146.028 344.981 147.43 341.243Z" fill="#0E74A5"/>
<path d="M217.29 353.276C217.29 351.991 217.407 350.706 217.874 349.537C218.692 347.551 220.327 346.5 222.313 346.5C224.299 346.617 225.818 347.785 226.402 349.771C227.103 352.107 227.103 354.444 226.519 356.664C225.818 359 224.066 360.285 221.963 360.285C219.86 360.168 218.224 358.766 217.64 356.43C217.29 355.378 217.173 354.327 217.29 353.276Z" fill="#0E74A5"/>
<path d="M230.14 306.547C230.14 307.598 230.023 308.65 229.673 309.584C228.855 311.804 227.103 313.206 224.883 313.206C222.663 313.206 220.677 311.804 219.976 309.584C219.392 307.598 219.392 305.729 219.86 303.743C220.56 301.29 222.43 299.888 224.766 299.888C227.219 299.888 229.089 301.29 229.789 303.86C230.14 304.678 230.14 305.612 230.14 306.547Z" fill="#0E74A5"/>
<path d="M201.285 355.612C201.168 359.117 199.299 360.986 196.261 360.752C194.86 360.636 193.691 359.584 193.575 358.182C193.458 356.664 194.159 355.846 195.561 355.378C197.196 354.911 198.832 354.444 200.584 354.21C202.103 353.977 200.584 355.379 201.285 355.612Z" fill="#0E74A5"/>
<path d="M246.846 351.523C245.911 351.523 245.093 351.407 244.159 351.523C242.757 351.64 242.406 351.173 242.757 349.888C243.341 347.668 244.976 346.266 247.313 346.5C249.416 346.617 251.051 348.486 251.168 350.706C251.168 351.29 251.051 351.523 250.467 351.523C249.182 351.523 248.014 351.523 246.846 351.523Z" fill="#0E74A5"/>
<path d="M153.738 304.561C152.57 304.561 151.402 304.561 150.35 304.561C149.65 304.561 149.533 304.327 149.533 303.626C149.65 301.29 151.519 299.421 153.855 299.421C156.075 299.421 158.061 301.64 157.944 303.86C157.944 304.561 157.477 304.444 157.126 304.444C155.958 304.678 154.907 304.561 153.738 304.561Z" fill="#0E74A5"/>
<path d="M292.641 205.729C292.641 199.537 297.664 194.514 303.972 194.631C310.164 194.631 315.071 199.771 315.071 205.846C315.071 212.037 310.047 217.061 303.972 217.061C297.547 217.061 292.641 212.154 292.641 205.729Z" fill="white"/>
</svg>
