<svg width="450" height="450" viewBox="0 0 450 450" fill="none" xmlns="http://www.w3.org/2000/svg">
<path d="M126.9 399.8C103.8 399.8 80.7 399.8 57.6 399.9C54.9 399.9 54 399.2 54 396.4C54.1 282.4 54.1 168.5 54.1 54.5C54.1 52.7 53.8 51 56.7 51C86.1 51.1 115.6 51.1 145 51.1C145.4 51.5 145.7 51.9 146.1 52.3C156.1 60.9 166.1 69.6 176.2 78.2C177.8 79.6 178.9 80.7 177.6 83.1C174.5 88.8 171.7 94.6 169 100.4C168 102.6 166.7 103.1 164.4 103C145.1 102.3 125.9 101.7 106.6 101C104.6 100.9 103.7 101.4 103 103.4C99.5 114.4 95.9 125.3 92.2 136.2C91.6 138.1 91.9 139 93.5 140C107 148.4 120.4 156.9 133.8 165.3C135.4 166.3 135.9 167.2 135.7 169.1C134.9 176.8 134.2 184.5 133.6 192.2C133.4 194.6 132.5 195.6 130.2 196.3C114.5 200.9 98.8 205.7 83.1 210.4C81.4 210.9 80.7 211.5 80.7 213.4C80.8 221.5 80.8 229.5 80.7 237.6C80.7 239.4 81 240.3 83.1 240.3C87.7 240.2 92.2 240.2 96.8 240.3C98.7 240.3 99.4 239.8 99.3 237.8C99.2 233.1 99.3 228.5 99.2 223.8C99.2 222.3 99.6 221.7 101.2 221.2C117.1 216.4 132.9 211.4 148.9 206.8C152.4 205.8 153.7 204.2 154 200.7C155.2 188.9 156.7 177.1 158.2 165.4C158.5 163.3 157.9 162.2 156 161.2C143 154 130.2 146.7 117.2 139.5C115.3 138.5 114.3 137.6 114.9 135.2C116.1 130.4 117 125.5 117.7 120.6C118.1 117.9 119.1 117 121.9 117.1C139.5 117.7 157.1 118.1 174.6 118.5C176.2 118.5 177.4 118.4 178.4 116.9C185 107.3 191.8 97.9 198.4 88.3C202.4 82.6 202.3 82.7 196.9 78.4C185.6 69.3 174.3 60.2 163 51.1C164.2 51.1 165.3 51 166.5 51C241.2 51 315.9 51 390.6 51C395.2 51 395.2 51 395.2 55.6C395.2 168.8 395.2 281.9 395.2 395.1C395.2 399.8 395.2 399.8 390.6 399.8C380.7 399.8 370.9 399.8 361 399.8C357.1 397.3 353.2 394.8 349.3 392.3C318.9 372.6 292.3 348.9 270.8 319.6C258.5 302.9 248.5 284.8 242.2 265C233.9 239.2 229.7 212.8 232.5 185.5C234.7 164.1 240.6 143.8 251.9 125.3C253.8 122.2 257.4 119.6 257.5 116.1C257.6 112.4 255.8 108.7 254.9 105C254.9 104.9 254.8 104.8 254.8 104.7C254.6 102.5 253.6 102.8 252.5 104C249.9 106.9 247.3 109.8 244.8 112.9C229.4 132.4 219.5 154.5 213.9 178.7C208.4 202.7 207.9 226.9 211.4 251.3C216.7 287.6 229.4 321 251.5 350.5C261.2 363.4 272.2 375.1 284.7 385.4C290.9 390.5 297.6 394.8 304.2 399.4C303 400 301.7 399.8 300.4 399.8C254.9 399.8 209.3 399.8 163.8 399.8C162.4 399.8 161 400 159.7 399.4C160.2 398.9 160.7 398.3 161.2 397.9C172.6 389.1 183.9 380.3 195.3 371.5C197.2 370 197.7 369 196 366.9C188.5 357.3 181.2 347.6 174 337.9C172.8 336.3 171.9 336.7 170.7 337.5C165.6 340.7 160.5 343.9 155.2 346.8C153 348 153 348.9 154.3 350.8C157.8 355.8 161 361.1 164.5 366.1C165.5 367.6 165.3 368.3 164 369.3C157.3 374.6 150.6 379.9 144 385.4C138.4 390.3 132.2 394.5 126.9 399.8ZM90.2 305.6C91.7 316.5 93.3 327.3 94.8 338.1C95 339.8 96 339.8 97.3 339.5C103.4 338.1 109.4 336.7 115.5 335.4C117.3 335 117.4 334.3 117.2 332.8C116.5 328.5 115.9 324.2 115.3 319.9C114.3 312.5 114.3 312.5 121 309.4C122.1 308.9 123.3 308.3 124.4 307.8C136.5 302.3 148.6 296.8 160.8 291.3C161.9 290.8 163.2 290.6 162.5 288.7C157.7 276.3 152.9 263.9 148.2 251.4C147.7 250 147 249.5 145.4 250C141.4 251.3 137.3 252.6 133.2 253.6C131 254.1 130.5 255 131.3 257.1C133.6 263.4 135.9 269.8 138 276.3C140 282.3 140.9 280.9 134.7 283.7C120.5 290.2 106.2 296.6 92 303C90.7 303.5 89.7 304.1 90.2 305.6Z" fill="#94192B"/>
<path d="M304.5 399.5C297.9 394.9 291.2 390.6 285 385.5C272.5 375.2 261.5 363.6 251.8 350.6C229.7 321 217 287.7 211.7 251.4C208.1 227 208.6 202.8 214.2 178.8C219.8 154.7 229.7 132.6 245.1 113C247.5 109.9 250.2 107 252.8 104.1C253.9 102.8 254.9 102.6 255.1 104.8C255.1 104.9 255.1 105 255.2 105.1C256.1 108.8 257.9 112.5 257.8 116.2C257.7 119.8 254.1 122.3 252.2 125.4C240.9 143.9 235 164.1 232.8 185.6C230 212.8 234.2 239.3 242.5 265.1C248.9 284.9 258.9 302.9 271.1 319.7C292.6 349 319.3 372.7 349.6 392.4C353.5 394.9 357.4 397.4 361.3 399.9C360.5 399.9 359.8 399.9 359 399.9C358.9 399.6 358.9 399.7 358.8 399.9C341.3 399.9 323.7 399.9 306.2 399.9C305.6 399.7 305.1 399.6 304.5 399.5Z" fill="#C9BCBE"/>
<path d="M163.3 51.1C174.6 60.2 185.8 69.3 197.2 78.4C202.5 82.7 202.6 82.6 198.7 88.3C192 97.8 185.3 107.3 178.7 116.9C177.7 118.4 176.5 118.6 174.9 118.5C157.3 118 139.7 117.7 122.2 117.1C119.4 117 118.4 117.9 118 120.6C117.3 125.5 116.4 130.4 115.2 135.2C114.6 137.7 115.6 138.5 117.5 139.5C130.5 146.7 143.3 154 156.3 161.2C158.2 162.2 158.7 163.3 158.5 165.4C157 177.2 155.4 188.9 154.3 200.7C153.9 204.3 152.7 205.8 149.2 206.8C133.3 211.4 117.4 216.4 101.5 221.2C100 221.7 99.5 222.3 99.5 223.8C99.6 228.5 99.5 233.1 99.6 237.8C99.7 239.8 99 240.4 97.1 240.3C92.5 240.2 88 240.2 83.4 240.3C81.3 240.4 81 239.4 81 237.6C81.1 229.5 81.1 221.5 81 213.4C81 211.5 81.7 210.9 83.4 210.4C99.1 205.7 114.8 200.9 130.5 196.3C132.8 195.6 133.7 194.7 133.9 192.2C134.4 184.5 135.2 176.8 136 169.1C136.2 167.2 135.7 166.3 134.1 165.3C120.6 156.9 107.2 148.4 93.8 140C92.1 139 91.8 138.1 92.5 136.2C96.2 125.3 99.9 114.4 103.3 103.4C104 101.3 104.9 100.9 106.9 101C126.2 101.7 145.4 102.3 164.7 103C167 103.1 168.3 102.6 169.3 100.4C172 94.6 174.8 88.7 177.9 83.1C179.2 80.7 178.1 79.6 176.5 78.2C166.4 69.6 156.4 60.9 146.4 52.3C146 52 145.7 51.5 145.3 51.1C151.1 51.1 157.2 51.1 163.3 51.1Z" fill="#C9BCBE"/>
<path d="M126.9 399.8C132.2 394.5 138.4 390.2 144.2 385.4C150.8 379.9 157.5 374.6 164.2 369.3C165.6 368.2 165.7 367.5 164.7 366.1C161.2 361.1 158 355.8 154.5 350.8C153.2 348.9 153.2 348 155.4 346.8C160.7 343.9 165.7 340.6 170.9 337.5C172.2 336.7 173 336.2 174.2 337.9C181.5 347.7 188.8 357.4 196.2 366.9C197.9 369.1 197.4 370.1 195.5 371.5C184.1 380.2 172.7 389.1 161.4 397.9C160.8 398.3 160.4 398.9 159.9 399.4C159.5 399.5 159 399.7 158.6 399.8C148.1 399.8 137.5 399.8 126.9 399.8Z" fill="#C9BCBE"/>
<path d="M358.8 399.8C358.9 399.6 358.9 399.5 359 399.8L358.9 399.9L358.8 399.8Z" fill="#94192B"/>
<path d="M90.2 305.6C89.6 304 90.7 303.5 92 303C106.3 296.6 120.5 290.2 134.7 283.7C140.9 280.8 139.9 282.3 138 276.3C135.9 269.9 133.7 263.5 131.3 257.1C130.5 255 131 254.2 133.2 253.6C137.3 252.6 141.3 251.4 145.4 250C147 249.5 147.7 249.9 148.2 251.4C152.9 263.8 157.7 276.3 162.5 288.7C163.3 290.6 162 290.8 160.8 291.3C148.7 296.8 136.6 302.3 124.4 307.8C123.2 308.3 122.1 308.9 121 309.4C114.2 312.5 114.2 312.5 115.3 319.9C115.9 324.2 116.5 328.5 117.2 332.8C117.4 334.3 117.3 335.1 115.5 335.4C109.4 336.6 103.3 338.1 97.3 339.5C96 339.8 95.1 339.8 94.8 338.1C93.3 327.3 91.8 316.5 90.2 305.6Z" fill="#C9BCBE"/>
</svg>
