<svg width="450" height="450" viewBox="0 0 450 450" fill="none" xmlns="http://www.w3.org/2000/svg">
<path d="M220.781 225.382C181.886 196.401 142.8 167.612 103.906 138.631C81.0262 121.662 75.3064 93.4445 90.3686 71.7091C105.812 49.5925 134.602 44.4446 158.625 59.8882C220.209 99.5456 281.602 139.203 342.994 179.051C378.457 202.121 377.313 251.121 340.706 272.666C337.656 274.382 334.605 276.098 331.555 277.814C306.387 284.296 286.177 275.335 267.111 259.51C252.43 247.308 236.415 236.821 220.781 225.382Z" fill="#51B269"/>
<path d="M220.781 225.382C236.415 236.821 252.431 247.308 267.302 259.51C286.368 275.335 306.579 284.296 331.746 277.814C310.582 293.448 287.894 306.794 265.968 321.284C229.933 344.926 193.707 368.377 157.291 391.638C136.318 405.175 111.151 401.934 94.9449 384.393C75.6881 363.611 78.5481 332.152 101.809 314.039C119.159 300.502 136.89 287.919 154.431 274.763C176.548 258.366 198.664 241.779 220.781 225.382Z" fill="#458BCA"/>
<path d="M88.2705 223.666C88.2705 213.942 96.0876 206.125 105.621 206.125C115.154 206.125 123.161 213.942 123.161 223.475C123.352 233.39 114.963 241.779 105.239 241.588C96.0876 241.397 88.2705 233.199 88.2705 223.666Z" fill="#51B269"/>
</svg>
