<svg width="450" height="450" viewBox="0 0 450 450" fill="none" xmlns="http://www.w3.org/2000/svg">
<path d="M331.964 49H119V402H331.964V49Z" fill="#85BC30"/>
<path d="M264.508 205.173C258.275 205.173 252.042 205.243 245.878 205.104C244.493 205.104 244.077 205.589 243.8 206.835C237.29 235.715 230.78 264.665 224.201 293.544C221.5 305.318 219.284 317.299 215.336 328.727C212.289 337.592 208.41 346.041 202.593 353.451C193.451 365.156 181.331 370.973 166.579 371.527C163.463 371.666 160.346 371.596 157.299 371.25C156.33 371.181 156.191 370.835 156.399 370.004C156.884 368.203 157.299 366.402 157.645 364.602C157.784 363.909 158.061 363.563 158.892 363.493C170.042 363.355 178.007 357.745 183.963 348.811C189.296 340.777 192.274 331.705 194.421 322.355C203.147 283.849 211.873 245.342 220.53 206.835C220.946 205.035 220.946 205.035 219.007 205.035C207.164 205.035 195.321 205.035 183.478 205.035C181.954 205.035 181.747 204.619 182.024 203.234C182.578 200.395 183.132 197.555 183.478 194.646C183.686 193.261 184.101 192.776 185.625 192.776C197.606 192.846 209.518 192.776 221.5 192.846C223.3 192.846 223.855 192.292 224.27 190.629C229.672 166.32 235.143 142.011 240.684 117.772C246.086 94.2245 265.062 76.9796 288.956 73.5168C294.011 72.755 299.136 72.6857 304.261 72.9627C305.439 73.032 305.785 73.3783 305.577 74.5556C305.231 76.4256 305.023 78.2955 304.954 80.2347C304.885 81.412 304.538 81.8276 303.292 81.8276C299.621 81.6198 295.95 82.0353 292.349 82.9357C280.645 85.8444 272.75 93.1164 267.971 103.99C265.685 109.115 264.785 114.586 263.538 119.919C258.206 143.535 252.873 167.151 247.54 190.768C247.471 190.976 247.471 191.183 247.402 191.391C246.917 192.638 247.402 192.846 248.579 192.846C260.699 192.776 272.819 192.846 284.939 192.846C286.947 192.846 286.947 192.846 286.601 194.854C286.116 197.763 285.562 200.672 285.146 203.58C285.008 204.758 284.523 205.035 283.415 205.035C277.043 205.104 270.741 205.173 264.508 205.173Z" fill="white"/>
<path d="M280.991 253.791C273.789 253.791 268.04 248.112 268.11 240.84C268.11 233.707 273.858 228.028 280.922 227.959C288.125 227.959 293.942 233.707 293.942 240.84C293.942 247.974 288.194 253.791 280.991 253.791Z" fill="white"/>
</svg>
