<svg width="450" height="450" viewBox="0 0 450 450" fill="none" xmlns="http://www.w3.org/2000/svg">
<path d="M180.03 51.91C110.111 98.3191 86.2962 162.132 110.417 241.821C127.515 299.222 182.778 339.524 240.484 344.104C311.014 349.295 371.468 323.953 399.558 253.423C402.916 275.712 386.734 317.541 365.361 342.272C330.249 382.88 284.451 398.757 232.241 398.451C144.613 397.841 74.9993 343.493 54.848 261.362C33.4754 174.039 84.7696 80.9157 169.344 53.1313C172.703 51.91 175.756 49.7727 180.03 51.91Z" fill="#3A5B81"/>
<path d="M371.773 222.28C345.21 222.585 233.157 222.585 233.157 222.585V270.216C233.157 270.216 297.58 270.521 324.754 270.521C313.762 298.916 293.305 312.961 267.658 321.205C323.227 324.563 369.941 288.23 381.544 234.493C383.681 224.723 381.849 222.28 371.773 222.28Z" fill="#F59D1B"/>
<path d="M373.3 120.302C373.3 120.302 354.37 100.151 354.065 99.8458C303.992 42.7504 204.151 42.1397 155.605 103.51C129.958 135.569 122.325 172.207 129.042 211.899C129.347 210.067 129.347 208.235 129.958 206.403C137.591 165.796 158.353 135.569 199.266 124.272C238.347 113.585 274.375 119.386 303.686 147.781L319.258 164.88C321.395 167.322 325.364 167.322 327.807 165.185L373.3 123.356C374.216 122.44 374.216 120.913 373.3 120.302Z" fill="#57B46A"/>
</svg>
