<svg width="450" height="450" viewBox="0 0 450 450" fill="none" xmlns="http://www.w3.org/2000/svg">
<path d="M147.911 132.813C161.492 124.276 174.684 115.352 189.818 109.531C190.206 117.486 183.415 124.665 187.489 133.007C190.206 138.439 195.056 143.872 186.713 149.11C183.997 150.856 187.489 152.99 188.459 154.737C197.578 172.198 204.563 190.629 210.383 209.255C211.741 213.523 213.487 219.925 210.383 222.253C199.518 230.402 207.279 235.834 211.935 241.849C213.875 244.177 216.203 248.057 219.502 246.699C222.994 245.147 220.472 241.073 220.472 237.969C220.472 235.446 217.367 232.148 221.248 230.402C223.188 229.626 225.904 229.626 227.844 230.402C231.725 232.148 228.62 235.446 228.814 237.969C229.008 240.879 226.098 244.953 229.784 246.505C233.083 247.863 235.411 243.983 237.351 241.461C240.843 236.804 248.604 231.372 242.783 226.134C235.799 219.537 237.933 213.717 239.679 207.12C244.335 190.629 251.126 174.914 258.304 159.587C260.827 154.155 266.453 149.304 258.11 143.872C255.782 142.32 258.11 139.798 259.469 138.051C263.737 132.037 264.125 125.635 261.603 118.65C260.633 115.74 258.886 112.636 259.663 109.337C274.602 115.158 287.795 124.276 301.57 132.619C293.033 136.499 284.69 140.38 276.154 144.066C273.244 145.23 270.333 145.812 273.631 149.886C284.69 162.885 284.108 178.794 282.362 194.121C281.586 200.136 282.75 204.21 286.242 208.866C294.973 220.507 298.465 233.506 295.943 248.057C295.555 250.191 293.615 252.52 295.361 254.46C297.689 256.788 300.211 254.266 302.346 253.296C317.673 246.311 330.866 236.028 344.641 226.522C344.641 244.177 344.835 262.026 344.835 279.682C344.835 288.218 342.506 295.979 334.746 300.441C300.211 320.424 265.677 340.02 230.948 359.809C231.531 357.287 232.113 354.765 232.307 352.243C233.277 344.676 235.993 340.214 243.947 336.334C258.886 329.155 269.557 316.738 270.333 298.889C270.527 294.815 272.273 295.979 274.02 295.397C281.974 292.486 287.795 278.711 282.75 272.309C278.87 267.653 280.81 264.936 282.556 260.862C285.272 254.46 287.601 247.669 289.929 241.073C290.899 237.969 291.869 233.894 289.735 231.76C282.75 224.388 280.616 213.523 272.273 206.732C265.871 223.806 255.006 237.969 244.529 252.52C232.307 269.399 216.785 269.205 204.369 252.326C193.892 237.969 183.415 223.612 176.431 206.926C160.716 224.388 152.567 242.431 168.088 263.578C168.282 263.772 168.282 264.16 168.476 264.354C169.64 266.295 169.834 267.653 168.088 269.981C161.298 279.487 165.372 291.128 176.431 295.979C177.983 296.561 178.371 296.755 178.565 298.889C179.729 317.126 190.4 329.349 205.921 336.722C212.711 340.02 215.427 343.9 216.591 350.303C217.173 353.407 217.756 356.511 218.338 359.809C183.803 340.02 149.075 320.424 114.54 300.441C107.168 296.173 104.646 288.8 104.646 280.652C104.646 262.608 104.839 244.565 104.839 226.522C106.004 227.298 106.974 227.88 108.138 228.656C120.943 237.969 133.554 247.281 148.105 253.684C151.015 255.042 156.059 258.146 154.313 250.967C150.239 233.894 155.089 219.149 165.566 205.956C167.7 203.24 167.894 200.912 167.506 197.226C165.566 180.734 164.208 164.243 175.849 150.08C179.147 146.2 176.237 145.618 173.326 144.26C164.79 140.574 156.447 136.693 147.911 132.813ZM206.115 220.701C201.264 197.614 192.728 178.018 183.221 158.811C181.087 154.349 178.565 157.259 176.819 159.587C170.416 168.124 170.028 187.719 176.237 196.45C183.415 206.732 193.504 213.523 206.115 220.701ZM243.365 220.119C256.752 213.523 267.617 204.598 273.438 196.062C279.452 187.331 278.87 167.348 272.467 159.199C270.139 156.289 268.005 155.125 266.065 159.199C256.752 178.406 248.216 197.808 243.365 220.119Z" fill="#F8BC0C"/>
<path d="M147.91 132.813C156.447 136.693 164.79 140.574 173.326 144.26C176.236 145.424 179.147 146.006 175.848 150.08C164.207 164.049 165.566 180.734 167.506 197.226C167.894 200.718 167.7 203.046 165.566 205.956C155.089 219.343 150.238 233.894 154.313 250.967C156.059 258.146 151.015 255.042 148.104 253.684C133.553 247.281 120.748 237.969 108.138 228.656C107.167 227.88 106.003 227.298 104.839 226.522C86.0199 210.807 67.2006 195.286 51.2915 176.466C36.3524 158.811 34.0242 137.469 32.0841 116.128C31.5021 110.307 33.8303 106.233 42.5609 105.069C72.633 100.995 97.8548 115.934 124.629 124.276C132.389 126.605 140.15 129.903 147.91 132.813Z" fill="#1F1F1D"/>
<path d="M344.446 226.522C330.671 236.028 317.479 246.311 302.151 253.296C300.017 254.266 297.495 256.788 295.167 254.46C293.227 252.714 295.361 250.191 295.749 248.057C298.465 233.506 294.779 220.507 286.048 208.866C282.556 204.21 281.586 200.33 282.168 194.121C283.914 178.794 284.496 162.885 273.437 149.886C270.139 146.006 273.049 145.424 275.96 144.066C284.496 140.38 293.033 136.499 301.375 132.619C326.015 124.276 349.685 113.8 374.907 106.815C384.413 104.099 393.92 105.457 403.427 103.517C412.739 101.577 418.172 108.755 417.202 119.426C414.873 145.036 407.889 168.318 388.488 187.137C374.325 200.912 359.385 213.717 344.446 226.522Z" fill="#1F1F1D"/>
<path d="M218.338 359.615C217.756 356.511 217.174 353.407 216.592 350.108C215.427 343.706 212.905 339.826 205.921 336.528C190.4 329.155 179.729 316.932 178.565 298.695C178.371 296.561 177.983 296.367 176.431 295.785C165.372 290.934 161.298 279.293 168.088 269.787C169.834 267.265 169.64 266.101 168.476 264.16C168.282 263.966 168.282 263.578 168.088 263.384C152.567 242.237 160.91 224.194 176.431 206.732C183.415 223.418 193.892 237.775 204.369 252.132C216.592 269.011 232.307 269.011 244.53 252.326C255.006 237.775 265.871 223.612 272.274 206.538C280.616 213.329 282.556 224 289.735 231.566C291.869 233.894 290.899 237.774 289.929 240.879C287.601 247.475 285.272 254.266 282.556 260.668C280.81 264.742 278.87 267.459 282.75 272.115C287.795 278.517 281.974 292.292 274.02 295.203C272.274 295.785 270.527 294.621 270.333 298.695C269.557 316.544 258.887 328.961 243.948 336.14C235.799 340.02 233.083 344.482 232.307 352.049C231.919 354.571 231.337 357.093 230.949 359.615C229.202 366.988 227.262 374.36 225.516 381.733C224.934 381.733 224.352 381.733 223.77 381.927C222.024 374.554 220.084 366.988 218.338 359.615ZM200.294 262.802C184.385 265.324 182.833 250.773 174.685 244.371C166.148 252.714 173.132 257.564 178.565 262.414C189.818 272.697 189.818 272.503 200.294 262.802ZM249.962 262.996C259.275 272.891 259.275 272.697 272.08 261.25C277.706 256.206 282.556 251.161 274.602 244.177C266.647 250.967 264.901 264.548 249.962 262.996ZM195.638 281.04C188.46 279.099 181.669 282.786 176.043 277.935C174.491 276.577 173.132 277.935 172.356 279.293C170.998 281.622 169.834 284.144 171.968 286.278C174.103 288.606 176.819 289.77 180.311 288.8C185.549 287.248 190.206 284.92 195.638 281.04ZM252.484 281.234C259.081 284.338 263.737 286.666 268.393 288.994C272.08 290.74 274.408 287.83 276.542 285.696C278.288 283.95 278.094 281.622 276.93 279.488C276.154 277.935 274.796 276.383 273.244 277.741C267.811 282.786 261.215 279.293 252.484 281.234ZM216.204 307.425C208.249 307.619 202.623 309.56 196.996 307.425C194.862 306.649 192.728 303.351 190.982 307.62C189.624 311.112 192.146 313.052 194.668 314.41C203.011 318.678 208.249 312.858 216.204 307.425ZM235.605 308.396C241.619 313.052 247.052 319.454 255.782 313.634C258.305 312.082 259.275 309.754 257.917 307.038C256.558 304.321 254.812 306.261 253.066 307.038C247.44 309.754 241.619 307.813 235.605 308.396Z" fill="#1F1F1D"/>
<path d="M259.662 109.531C258.886 113.024 260.632 115.934 261.602 118.844C263.93 125.635 263.542 132.037 259.468 138.245C258.304 139.992 255.781 142.514 258.109 144.066C266.452 149.498 260.826 154.349 258.304 159.781C251.125 175.302 244.334 191.017 239.678 207.314C237.932 213.911 235.604 219.731 242.782 226.328C248.603 231.76 240.842 237.193 237.35 241.655C235.604 243.983 233.082 248.057 229.784 246.699C226.097 245.147 229.007 241.073 228.813 238.163C228.619 235.64 231.724 232.342 227.843 230.596C225.903 229.82 223.187 229.82 221.247 230.596C217.367 232.342 220.471 235.64 220.471 238.163C220.471 241.073 223.187 245.341 219.501 246.893C216.203 248.251 213.874 244.371 211.934 242.043C207.278 236.028 199.517 230.596 210.382 222.447C213.486 220.119 211.74 213.717 210.382 209.449C204.562 190.629 197.577 172.392 188.459 154.931C187.488 153.185 183.996 151.05 186.712 149.304C195.055 144.066 190.011 138.633 187.488 133.201C183.414 124.858 190.399 117.68 189.817 109.725V109.919C190.981 109.919 191.369 109.143 191.369 107.979C193.115 102.935 194.667 97.8906 196.413 92.6522C199.711 94.5923 200.875 97.6966 201.845 100.995C198.159 108.949 195.443 117.292 194.085 125.635C192.533 134.753 198.547 139.021 206.308 135.335C218.337 129.709 230.366 129.321 242.588 134.753C245.305 135.917 248.021 140.574 251.707 136.887C255.199 133.395 257.139 128.739 255.587 123.5C253.259 115.934 250.543 108.367 248.021 100.801C247.439 97.1145 248.797 94.0103 251.513 90.9061C255.975 95.5624 255.781 102.353 258.498 107.785C258.11 108.755 258.498 109.725 259.662 109.531Z" fill="#1F1F1D"/>
<path d="M213.098 399C169.251 373.778 126.374 349.139 83.4971 324.499C74.7665 319.454 69.1401 312.47 68.9461 302.187C68.7521 273.085 68.9461 244.177 68.9461 214.105C79.8109 221.089 88.5415 227.104 86.9894 242.043C85.4373 257.37 86.9894 273.085 86.6014 288.412C86.2133 300.829 91.6457 308.978 102.122 314.992C133.359 332.647 164.595 350.691 195.831 368.734C210.77 377.076 212.128 379.405 213.098 399Z" fill="#1F1F1D"/>
<path d="M380.338 214.105C380.338 243.789 380.338 272.503 380.338 301.217C380.338 311.112 375.487 318.484 367.145 323.335C326.014 347.198 284.689 370.868 243.558 394.538C242.006 395.508 240.26 398.03 237.738 395.508C236.186 393.762 236.574 392.016 236.768 390.075C237.932 381.151 241.424 374.748 250.155 369.898C281.973 352.437 313.015 333.617 344.833 315.962C357.638 308.978 363.847 299.859 362.877 284.92C362.1 271.339 363.847 257.758 362.489 244.177C360.742 229.82 367.145 221.089 380.338 214.105Z" fill="#1F1F1D"/>
<path d="M330.477 107.203C317.284 116.322 306.225 115.352 293.808 107.009C276.347 95.1744 257.14 85.4737 238.902 74.803C229.396 69.1766 220.083 69.1766 210.576 74.803C192.145 85.4737 173.132 95.1744 155.67 107.009C143.254 115.352 132.195 116.904 119.778 107.979C119.972 105.069 123.076 104.875 125.016 103.711C150.238 88.966 175.848 74.6089 201.07 59.6698C217.173 49.9691 231.724 48.9991 248.409 59.4758C274.989 76.161 302.733 91.1001 330.477 107.203Z" fill="#1F1F1D"/>
<path d="M247.633 100.801C250.155 108.367 252.871 115.934 255.199 123.5C256.752 128.545 254.811 133.201 251.319 136.887C247.633 140.38 244.917 135.917 242.201 134.753C229.784 129.321 217.949 129.709 205.92 135.335C198.159 139.021 192.145 134.753 193.697 125.635C195.055 117.098 197.771 108.755 201.458 100.995C204.174 99.4427 207.278 98.2786 209.8 96.5325C219.695 90.13 229.396 90.13 239.096 96.5325C242.007 98.0846 244.917 99.2487 247.633 100.801Z" fill="#F8BC0C"/>
<path d="M191.175 107.785C191.175 108.949 190.981 109.725 189.623 109.725C189.041 108.173 190.205 107.979 191.175 107.785Z" fill="#F8BC0C"/>
<path d="M259.662 109.725C258.303 109.725 258.109 108.949 258.109 107.785C259.273 107.979 260.438 108.173 259.662 109.725Z" fill="#F8BC0C"/>
<path d="M206.115 220.701C193.504 213.523 183.609 206.538 176.237 196.45C170.028 187.719 170.416 168.318 176.819 159.587C178.565 157.065 181.087 154.349 183.221 158.811C192.534 178.212 201.07 197.808 206.115 220.701Z" fill="#1F1F1D"/>
<path d="M243.365 220.119C248.216 197.808 256.752 178.406 265.871 159.393C267.811 155.319 269.945 156.483 272.273 159.393C278.676 167.542 279.258 187.525 273.243 196.256C267.617 204.598 256.752 213.523 243.365 220.119Z" fill="#1F1F1D"/>
<path d="M200.294 262.802C190.011 272.697 189.817 272.697 178.564 262.414C173.132 257.564 166.147 252.714 174.684 244.371C182.832 250.579 184.191 265.324 200.294 262.802Z" fill="#F8BC0C"/>
<path d="M249.961 262.996C265.095 264.548 266.647 250.773 274.407 244.177C282.362 251.161 277.511 256.206 271.885 261.25C259.274 272.891 259.274 272.891 249.961 262.996Z" fill="#F8BC0C"/>
<path d="M195.637 281.04C190.205 284.92 185.549 287.248 180.31 288.8C176.818 289.77 174.102 288.606 171.968 286.278C169.833 283.95 170.997 281.428 172.356 279.293C173.132 277.741 174.49 276.383 176.042 277.935C181.474 282.786 188.265 279.099 195.637 281.04Z" fill="#F8BC0C"/>
<path d="M252.483 281.234C261.02 279.294 267.811 282.786 273.437 277.936C274.989 276.577 276.347 278.129 277.123 279.682C278.287 281.816 278.481 284.144 276.735 285.89C274.601 288.024 272.273 290.934 268.587 289.188C263.736 286.666 259.08 284.338 252.483 281.234Z" fill="#F8BC0C"/>
<path d="M216.203 307.425C208.248 312.858 203.01 318.678 194.667 314.41C192.145 313.052 189.623 311.112 190.981 307.619C192.727 303.351 195.055 306.649 196.996 307.425C202.428 309.56 208.248 307.619 216.203 307.425Z" fill="#F8BC0C"/>
</svg>
