<svg width="450" height="450" viewBox="0 0 450 450" fill="none" xmlns="http://www.w3.org/2000/svg">
<path d="M400 206.319C400 254.142 400 301.964 400 349.787C400 379.526 379.372 400 349.625 400C253.061 400 156.347 400 59.7827 399.851C50.2159 399.851 50.0664 399.701 50.0664 389.987C50.0664 292.699 49.917 195.26 50.0664 97.9718C50.0664 71.3706 71.1432 50.1495 97.3022 50.1495C195.212 50 292.972 50.1494 390.882 50C398.057 50 400 52.0922 400 59.2656C399.851 108.283 400 157.301 400 206.319ZM132.281 335.141C137.064 334.394 140.652 334.095 144.239 333.348C165.465 329.611 186.841 325.726 208.067 321.84C242.298 315.713 276.529 309.436 310.76 303.459C315.544 302.562 317.786 300.918 317.786 295.239C317.487 238.301 317.636 181.213 317.636 124.274C317.636 121.584 317.337 119.044 317.188 115.756C313.301 116.204 310.461 116.204 307.472 116.802C278.622 121.883 249.772 127.114 220.923 132.344C193.717 137.276 166.661 142.208 139.456 146.99C134.074 147.886 132.281 150.278 132.281 155.807C132.43 211.998 132.281 268.339 132.281 324.53C132.281 327.818 132.281 330.956 132.281 335.141Z" fill="#223A8B"/>
</svg>
