<svg width="450" height="450" viewBox="0 0 450 450" fill="none" xmlns="http://www.w3.org/2000/svg">
<path d="M144.973 228.4C155.445 223.811 193.449 191.689 207.804 184.982C212.393 182.865 214.393 183.453 214.158 192.395C213.805 210.986 213.687 229.576 213.569 248.167C213.569 255.932 212.157 258.05 207.098 255.109C184.625 242.166 169.799 242.284 144.973 228.4Z" fill="#F4F9FB"/>
<path d="M238.396 171.922C238.867 175.687 240.396 175.217 242.867 173.334C253.927 164.627 265.105 155.92 276.165 147.213C291.108 135.565 306.169 123.798 320.994 112.15C323.348 110.267 325.818 108.973 328.76 108.267C348.88 103.325 369.118 98.5013 389.238 93.4418C393.003 92.5005 394.768 92.7359 394.886 97.4423C395.474 111.915 396.415 126.387 397.474 140.859C397.592 143.33 397.239 145.095 395.356 146.507C378.884 159.332 371.824 176.864 369.236 196.984C367.941 206.868 364.764 216.398 363.117 226.282C362.293 231.341 360.058 232.518 355.351 232.282C345.821 231.812 336.173 231.929 326.524 231.929C324.524 231.929 321.7 230.753 320.641 232.988C319.7 234.989 322.053 236.754 323.23 238.518C331.113 250.873 338.996 263.227 346.997 275.582C348.409 277.817 349.233 279.818 348.409 282.642C342.526 301.938 336.761 321.234 331.113 340.649C330.407 343.237 328.995 344.296 326.407 344.884C309.934 348.179 293.461 351.591 276.989 355.239C272.871 356.18 270.753 355.474 268.635 351.709C257.928 333.118 246.868 314.645 235.925 296.055C235.454 295.114 234.866 294.408 233.925 294.055C235.807 291.819 237.69 289.584 239.573 287.348C253.457 293.702 266.046 302.762 280.048 308.88C280.754 306.997 279.93 306.291 279.342 305.586C266.988 291.937 254.516 278.406 242.161 264.757C241.22 263.816 240.514 262.521 238.867 262.757C238.396 260.521 238.514 258.403 239.455 256.285C260.399 247.461 281.225 238.636 302.168 229.812C303.11 229.459 304.757 230.164 304.875 228.4C304.992 226.87 304.051 226.164 302.757 225.458C292.52 218.987 282.401 212.28 272.165 205.691C260.987 198.514 250.28 190.513 238.631 184.159C238.514 179.805 238.396 175.805 238.396 171.922ZM380.413 150.625C383.826 151.096 384.531 147.801 386.414 146.272C387.355 145.566 389.12 144.507 388.061 143.095C387.355 142.154 385.708 141.801 384.532 141.448C382.531 140.977 382.531 142.742 382.178 143.919C381.59 146.154 381.002 148.39 380.413 150.625C380.413 150.861 380.413 150.978 380.413 151.214C380.413 150.978 380.413 150.743 380.413 150.625ZM247.456 179.688C247.338 180.158 247.221 180.629 247.103 181.1C267.458 194.513 287.931 208.044 308.287 221.575C311.581 223.811 312.17 221.693 313.229 219.457C319.347 205.691 325.583 192.042 331.819 178.276C334.761 171.804 334.525 171.451 327.466 172.157C311.934 173.569 296.285 175.099 280.754 176.511C269.459 177.57 258.516 178.629 247.456 179.688ZM256.516 170.863C256.633 171.334 256.869 171.804 256.986 172.393C281.931 169.922 306.875 167.569 331.937 165.215C335.82 164.862 335.114 162.744 334.408 160.274C330.76 148.037 326.995 135.918 323.583 123.681C322.642 120.386 321.7 119.916 318.994 122.151C312.64 127.328 306.051 132.27 299.58 137.33C285.108 148.507 270.753 159.685 256.516 170.863ZM253.927 256.991C253.927 257.344 253.927 257.815 254.045 258.168C273.224 262.051 292.285 265.816 311.464 269.699C314.994 270.405 314.876 268.169 314.641 265.934C313.935 259.462 313.346 253.108 312.405 246.637C311.699 242.284 313.229 236.048 309.934 234.165C306.993 232.4 302.168 236.636 298.286 238.283C283.343 244.284 268.635 250.638 253.927 256.991ZM246.279 297.938C246.044 298.173 245.691 298.526 245.456 298.761C254.633 314.292 263.811 329.941 272.871 345.473C274.518 348.297 275.695 346.179 276.754 345.002C281.813 339.825 286.519 334.177 291.932 329.471C295.932 326.059 294.167 324.529 290.991 322.764C286.049 319.94 281.107 317.234 276.165 314.41C266.399 308.998 256.398 303.468 246.279 297.938ZM318.17 225.458C328.995 225.458 339.114 225.34 349.233 225.458C352.645 225.458 353.234 223.928 352.292 221.105C347.939 207.221 344.291 193.101 338.408 178.04C332.29 194.631 323.583 208.515 318.17 225.458ZM333.231 114.033C348.174 121.092 362.293 125.446 375.942 130.976C377.942 131.799 378.766 131.094 379.237 129.211C381.472 120.151 383.826 111.209 386.414 101.09C368.647 105.326 351.822 109.444 333.231 114.033ZM263.223 275.817C263.811 279.112 265.105 280.641 266.635 282.171C275.106 291.348 283.578 300.526 292.05 309.821C301.11 319.705 301.11 319.705 310.758 309.939C311.346 309.351 311.817 308.762 312.405 308.292C315.347 305.821 315.582 304.056 311.699 302.056C300.992 296.29 290.52 290.172 279.93 284.406C274.753 281.465 269.459 278.994 263.223 275.817ZM368.647 168.745C361.352 168.157 354.763 169.922 347.939 170.039C344.88 170.039 344.291 171.569 345.115 174.628C347.821 184.159 350.998 193.572 353.234 203.22C354.057 206.632 354.41 211.103 357.587 214.045C362.764 199.22 365.353 184.041 368.647 168.745ZM318.053 298.173C317.347 291.819 316.406 286.524 316.17 281.347C316.053 277.817 314.405 276.758 311.346 276.17C298.874 273.817 286.402 271.228 274.047 268.64C271.694 268.169 269.341 267.934 266.517 269.228C283.931 278.994 300.639 288.407 318.053 298.173ZM371.118 160.744C372.53 155.449 373.707 151.331 374.648 147.213C376.648 138.153 376.531 138.153 368.059 134.859C358.881 131.211 349.586 127.799 338.408 124.622C349.704 137.212 359.94 148.507 371.118 160.744ZM363.705 162.156C353.94 151.449 345.115 141.565 336.29 131.799C335.349 130.858 334.172 130.27 333.113 130.976C332.054 131.682 332.525 132.976 332.878 134.153C335.584 142.86 338.408 151.567 340.997 160.391C341.82 162.98 342.997 164.274 345.939 163.803C351.351 163.097 356.763 162.862 363.705 162.156ZM320.288 339.237C314.052 335.824 309.346 332.883 304.286 330.412C302.404 329.471 299.227 328.882 298.403 330.647C295.579 336.766 289.579 340.296 285.461 346.532C297.109 344.061 308.052 341.708 320.288 339.237ZM318.523 243.225C319.465 252.52 320.288 259.933 321.112 267.463C321.347 269.11 320.994 271.346 323.23 271.817C327.936 272.876 332.643 274.523 338.408 274.17C331.819 263.933 325.583 254.285 318.523 243.225ZM328.289 323.235C333.231 313.586 335.349 302.997 338.644 292.29C324.759 299.467 323.701 310.527 328.289 323.235ZM321.936 332.53C320.877 324.882 320.994 318.175 319.347 311.939C315.464 315.469 312.17 318.411 308.875 321.47C307.346 322.764 306.522 324.058 308.993 325.47C312.993 327.588 316.994 329.824 321.936 332.53ZM338.055 281.936C322.171 277.7 322.171 277.7 323.936 292.525C324.054 293.231 323.936 294.172 324.877 294.408C329.113 290.525 333.349 286.524 338.055 281.936ZM389.473 118.504C389.238 118.504 389.003 118.386 388.65 118.386C387.473 122.857 386.532 127.328 385.237 131.799C384.296 135.094 386.767 135.447 388.767 135.8C392.297 136.506 390.65 133.564 390.65 132.388C390.532 127.799 389.944 123.093 389.473 118.504Z" fill="#C65654"/>
<path d="M216.275 293.584C208.98 308.174 200.038 321.705 192.037 335.825C188.743 341.825 184.977 347.591 181.683 353.591C180.036 356.651 178.271 357.592 174.623 356.651C157.915 352.532 141.09 348.65 124.264 344.884C122.028 344.414 121.087 343.59 120.381 341.355C114.498 322.529 108.615 303.585 102.379 284.877C101.32 281.7 101.791 279.347 103.556 276.641C111.91 263.816 120.028 250.873 128.382 238.165C131.088 234.165 130.147 232.871 125.441 233.106C115.086 233.459 104.615 233.341 94.2603 233.812C90.1422 234.047 88.4949 233.106 87.5536 228.753C83.9061 210.75 79.6703 192.866 75.9051 174.864C75.0815 170.863 73.4342 167.569 70.728 164.627C67.9041 161.685 65.4333 158.038 62.2564 155.685C53.5494 149.331 52.2552 140.859 53.3141 130.976C54.4907 120.269 55.0791 109.444 55.5497 98.7366C55.785 94.5008 56.9616 93.9125 60.8445 94.9714C81.6705 100.501 102.497 105.796 123.323 111.209C126.147 111.915 128.617 113.327 131.088 115.209C157.327 135.447 183.683 155.449 209.922 175.57C210.51 176.04 211.216 176.393 211.922 176.746C211.922 179.805 211.922 182.747 211.922 185.806C211.216 186.159 210.392 186.394 209.804 186.747C189.919 199.69 170.034 212.633 150.267 225.576C149.091 226.399 147.208 226.87 147.561 229.223C169.093 237.695 190.86 246.166 212.51 254.638C212.628 256.991 212.863 259.227 212.981 261.58C212.157 262.168 211.333 262.521 210.628 263.227C196.743 278.523 182.859 293.819 168.858 309.351C173.446 310.292 176.035 307.115 179.212 305.468C190.39 299.702 201.45 293.584 212.51 287.583C214.04 289.466 216.04 291.113 216.275 293.584ZM202.98 182.512C204.274 182.747 130.618 174.04 120.969 173.099C117.322 172.746 116.381 173.569 118.028 177.217C124.735 191.689 131.324 206.279 137.913 220.987C139.207 223.928 140.501 224.281 143.09 222.516C158.268 212.398 201.921 183.335 202.98 182.512ZM128.029 120.975C123.793 135.565 119.911 149.213 115.792 162.862C114.969 165.686 116.145 166.039 118.499 166.274C130.382 167.333 142.266 168.51 154.032 169.569C167.328 170.745 180.624 171.687 195.685 172.981C172.505 155.096 150.738 138.389 128.029 120.975ZM199.803 256.638C180.506 249.108 162.975 242.401 145.561 235.342C141.678 233.812 140.384 234.753 140.031 238.518C139.089 247.696 138.148 256.874 136.971 265.934C136.383 270.287 137.913 270.64 141.796 269.699C153.562 266.875 165.446 264.286 177.329 261.58C184.271 260.168 191.213 258.521 199.803 256.638ZM205.333 300.055C205.097 299.82 204.744 299.467 204.509 299.232C188.037 308.292 171.682 317.469 154.856 326.765C161.563 333.707 167.799 340.178 173.917 346.767C176.153 349.12 177.212 348.414 178.624 345.943C181.8 340.296 185.095 334.766 188.39 329.235C193.92 319.47 199.567 309.704 205.333 300.055ZM111.321 178.393C106.732 194.278 102.614 208.75 98.2608 223.105C97.2018 226.635 98.6138 227.105 101.555 227.105C110.498 226.87 119.558 226.635 128.5 226.635C132.618 226.635 132.5 225.105 131.088 222.046C124.735 208.044 118.381 193.925 111.321 178.393ZM114.38 117.092C114.38 116.621 114.38 116.15 114.498 115.68C99.0844 111.679 83.6708 107.679 68.1395 103.796C67.0805 103.561 65.9039 104.031 64.8449 104.031C67.0805 112.503 69.0808 120.857 71.3163 129.211C71.787 131.093 71.6693 133.8 75.1992 132.388C88.1419 127.211 101.32 122.151 114.38 117.092ZM192.272 273.699C188.86 272.052 187.331 275.229 185.448 276.288C169.799 285.112 154.385 294.408 138.854 303.35C135.559 305.232 135.207 306.762 137.913 309.351C140.972 312.292 144.031 315.469 146.737 318.764C148.855 321.234 150.267 320.764 152.15 318.528C165.563 303.585 178.859 288.76 192.272 273.699ZM92.6131 214.633C98.6138 201.808 101.32 188.277 105.556 175.217C106.497 172.393 105.203 171.804 102.85 171.569C96.9665 170.981 91.2011 170.392 85.318 169.804C82.0235 169.451 82.0235 170.981 82.7295 173.687C85.2004 183.923 87.2006 194.278 89.5539 204.632C90.1422 207.809 89.7892 211.456 92.6131 214.633ZM133.677 298.643C151.679 289.348 167.799 278.053 184.86 267.934C183.33 267.581 182.036 267.581 180.742 267.816C174.152 268.64 168.152 272.287 161.68 272.876C154.15 273.464 147.09 275.699 139.795 276.994C137.56 277.347 135.677 277.935 135.442 280.877C134.736 286.524 133.324 292.172 133.677 298.643ZM79.5526 162.156C90.7305 149.802 101.085 138.388 111.321 127.093C111.086 126.622 110.733 126.152 110.498 125.799C98.7315 130.27 86.9653 134.859 75.1992 139.33C73.5519 139.918 74.1402 141.095 74.4932 142.154C76.1404 148.272 77.67 154.626 79.5526 162.156ZM118.381 130.74C118.028 130.505 117.793 130.388 117.44 130.152C107.556 140.977 97.7902 151.802 87.2006 163.45C94.1427 164.039 99.5551 164.509 104.968 164.98C107.203 165.215 108.497 164.509 109.086 162.038C112.145 151.684 115.322 141.212 118.381 130.74ZM111.91 276.288C114.616 275.817 116.263 275.464 118.028 275.111C129.559 272.405 129.794 272.405 130.971 260.639C131.441 256.168 133.206 251.461 131.559 245.813C124.852 256.168 118.616 265.816 111.91 276.288ZM163.328 347.355C159.562 340.766 154.856 336.295 150.267 331.706C149.091 330.53 147.914 330.53 146.502 331.236C141.678 333.942 136.854 336.648 131.088 339.825C142.502 342.414 152.503 344.767 163.328 347.355ZM122.617 325.706C127.794 309.233 124.499 298.996 113.439 297.232C116.381 306.644 119.322 315.822 122.617 325.706ZM129.088 333.354C133.677 330.883 137.56 328.765 141.443 326.529C142.737 325.823 143.678 324.882 142.266 323.352C138.972 319.705 135.912 315.94 131.441 312.763C130.618 319.823 129.912 326.059 129.088 333.354ZM126.735 295.937C127.323 290.878 128.029 285.465 128.735 279.582C123.323 280.759 118.381 281.818 112.263 283.112C117.557 287.701 122.028 291.584 126.735 295.937ZM61.0798 122.034C60.7268 126.034 60.3738 130.035 60.1385 134.035C60.0208 135.447 59.0795 137.683 61.5504 137.33C63.1977 137.094 66.3746 137.212 65.5509 133.8C64.492 129.799 64.139 125.563 61.0798 122.034ZM70.9633 154.743C69.9044 150.272 69.1984 147.684 68.4925 144.978C68.1395 143.919 67.9041 142.389 66.3746 142.742C65.0803 142.977 63.5507 143.448 62.727 144.272C61.5504 145.448 63.1977 146.272 63.9037 147.095C65.6686 149.331 67.7865 151.449 70.9633 154.743Z" fill="#3C77BA"/>
<path d="M212.157 185.688C212.157 182.629 212.157 179.688 212.157 176.628C212.157 172.51 211.921 168.392 216.04 165.686C218.393 164.156 217.099 162.391 216.04 160.626C211.568 152.978 207.333 145.33 202.861 137.8C201.332 135.094 201.097 133.447 204.273 131.799C207.568 130.152 210.509 128.034 214.039 125.799C216.393 136.624 218.628 146.978 220.864 157.214C221.57 160.391 222.276 162.862 226.629 162.509C230.865 162.156 230.394 159.332 230.865 156.861C232.63 146.742 234.395 136.624 236.042 126.622C236.748 126.505 236.983 126.387 237.219 126.505C249.926 133.211 249.926 133.211 243.572 145.919C242.278 148.507 240.866 151.096 239.572 153.802C236.866 159.685 231.453 165.333 238.16 171.922C238.278 175.922 238.278 179.923 238.395 183.923C238.395 200.867 238.278 217.81 238.513 234.636C238.631 241.813 237.807 248.99 239.219 256.168C238.278 258.286 238.278 260.403 238.631 262.639C238.984 270.758 238.042 278.994 239.337 287.23C237.454 289.466 235.571 291.701 233.689 293.937C230.983 297.231 228.629 302.762 225.57 303.232C221.923 303.821 220.393 297.467 217.452 294.525C217.099 294.172 216.51 293.937 215.922 293.702C215.687 291.113 213.804 289.583 212.392 287.701C213.922 278.994 212.745 270.287 212.98 261.58C212.863 259.227 212.627 256.991 212.392 254.638C212.51 231.694 212.392 208.632 212.157 185.688ZM227.1 237.224C227.1 249.343 227.57 260.521 226.982 271.699C226.629 277.935 229.218 281.347 234.395 284.053C235.454 268.051 235.218 252.52 227.1 237.224ZM234.277 241.225C234.277 226.046 234.277 210.868 234.277 195.807C225.453 210.868 226.041 226.046 234.277 241.225ZM217.452 284.171C220.04 281.23 222.982 280.171 222.982 276.994C223.099 264.992 222.982 252.991 222.982 239.93C215.804 254.285 216.981 268.64 217.452 284.171ZM217.216 198.161C217.216 211.809 217.216 225.105 217.216 239.577C224.511 225.105 224.747 211.692 217.216 198.161ZM225.57 297.937C228.041 294.761 231.453 292.172 231.806 289.231C232.159 286.642 228.159 283.465 225.57 283.347C222.746 283.112 219.099 286.995 219.452 289.231C219.805 292.054 223.099 294.643 225.57 297.937ZM222.158 197.69C222.393 197.572 222.629 197.572 222.982 197.455C222.982 190.748 222.982 183.923 222.982 176.04C220.746 179.099 216.51 179.217 217.569 183.217C218.863 188.159 220.628 192.866 222.158 197.69ZM227.57 176.746C227.57 184.159 227.57 190.748 227.57 198.043C234.395 184.747 234.512 182.041 227.57 176.746ZM213.686 148.037C214.039 147.919 214.392 147.801 214.745 147.684C213.922 143.801 213.098 139.8 212.157 135.918C211.804 134.741 211.921 132.27 209.333 133.682C207.921 134.506 206.156 135.212 207.686 137.565C209.804 140.977 211.686 144.507 213.686 148.037ZM240.396 133.094C238.748 133.8 238.513 135.565 238.631 136.741C238.866 139.565 235.336 143.683 237.925 144.389C241.454 145.33 241.454 139.918 243.102 137.447C244.984 134.859 241.925 134.506 240.396 133.094ZM234.042 176.393C235.689 171.216 231.806 169.451 229.924 166.863C229.688 166.51 228.747 166.392 228.394 166.51C227.335 166.98 227.453 168.039 227.57 168.98C227.923 172.746 231.336 173.805 234.042 176.393ZM216.51 176.393C219.922 172.981 224.982 172.04 222.511 166.039C219.216 168.392 215.804 170.157 216.51 176.393Z" fill="#403F3F"/>
<path d="M239.337 256.168C238.043 248.99 238.749 241.813 238.631 234.636C238.396 217.692 238.513 200.749 238.513 183.924C250.162 190.395 260.869 198.278 272.047 205.456C282.283 212.045 292.402 218.751 302.639 225.223C303.933 226.046 304.874 226.635 304.757 228.164C304.639 229.929 302.992 229.223 302.051 229.576C281.107 238.401 260.281 247.225 239.337 256.168Z" fill="#FDF5F4"/>
<path d="M247.456 179.688C258.516 178.629 269.576 177.57 280.636 176.511C296.167 174.981 311.816 173.569 327.348 172.157C334.407 171.451 334.643 171.804 331.701 178.276C325.583 192.042 319.347 205.691 313.111 219.457C312.052 221.693 311.463 223.811 308.169 221.575C287.813 208.044 267.458 194.631 246.985 181.1C247.22 180.629 247.338 180.158 247.456 179.688Z" fill="#FDF5F4"/>
<path d="M256.515 170.863C270.87 159.685 285.225 148.507 299.462 137.33C305.933 132.27 312.522 127.328 318.876 122.151C321.582 120.033 322.523 120.386 323.465 123.681C326.994 135.918 330.642 148.037 334.289 160.274C334.995 162.627 335.701 164.862 331.818 165.215C306.874 167.569 281.93 170.039 256.868 172.393C256.75 171.804 256.633 171.334 256.515 170.863Z" fill="#FDF5F4"/>
<path d="M253.927 256.991C268.635 250.755 283.343 244.402 298.05 238.165C301.933 236.518 306.757 232.282 309.699 234.047C312.993 236.048 311.581 242.166 312.17 246.519C313.111 252.873 313.699 259.345 314.405 265.816C314.641 268.169 314.758 270.287 311.228 269.581C292.167 265.698 272.988 261.933 253.81 258.05C253.927 257.697 253.927 257.344 253.927 256.991Z" fill="#FDF5F4"/>
<path d="M246.279 297.938C256.28 303.468 266.281 308.998 276.282 314.528C281.224 317.234 286.166 320.058 291.108 322.882C294.285 324.647 295.932 326.176 292.049 329.589C286.519 334.295 281.93 339.943 276.871 345.12C275.812 346.296 274.635 348.414 272.988 345.59C263.81 329.941 254.633 314.41 245.573 298.879C245.808 298.526 246.043 298.173 246.279 297.938Z" fill="#FDF5F4"/>
<path d="M318.17 225.458C323.583 208.515 332.29 194.631 338.526 178.04C344.409 193.101 348.056 207.221 352.41 221.105C353.351 224.046 352.763 225.576 349.351 225.458C339.114 225.458 328.995 225.458 318.17 225.458Z" fill="#FDF5F4"/>
<path d="M333.231 114.033C351.821 109.444 368.647 105.326 386.414 101.09C383.825 111.091 381.59 120.151 379.237 129.211C378.766 131.093 377.942 131.799 375.942 130.976C362.293 125.446 348.174 121.092 333.231 114.033Z" fill="#FDF5F4"/>
<path d="M263.222 275.817C269.458 278.994 274.753 281.465 279.93 284.289C290.52 290.172 300.991 296.29 311.699 301.938C315.582 304.056 315.346 305.703 312.405 308.174C311.816 308.645 311.228 309.233 310.757 309.821C301.109 319.587 301.109 319.587 292.049 309.704C283.578 300.526 275.106 291.231 266.634 282.053C265.222 280.641 263.81 279.112 263.222 275.817Z" fill="#FDF5F4"/>
<path d="M368.647 168.745C365.352 184.041 362.764 199.22 357.704 214.163C354.527 211.221 354.057 206.75 353.351 203.338C351.115 193.689 347.938 184.277 345.232 174.746C344.409 171.687 344.997 170.157 348.056 170.157C354.763 170.04 361.469 168.157 368.647 168.745Z" fill="#FDF5F4"/>
<path d="M239.572 287.113C238.278 278.994 239.219 270.758 238.866 262.521C240.513 262.286 241.337 263.58 242.161 264.522C254.633 278.17 266.987 291.701 279.342 305.35C279.93 306.056 280.754 306.762 280.048 308.645C266.046 302.526 253.456 293.466 239.572 287.113Z" fill="#FDF5F4"/>
<path d="M318.052 298.173C300.521 288.289 283.813 278.994 266.517 269.228C269.34 268.052 271.694 268.169 274.047 268.64C286.519 271.111 298.874 273.699 311.346 276.17C314.405 276.758 316.052 277.817 316.17 281.347C316.405 286.524 317.346 291.819 318.052 298.173Z" fill="#FDF5F4"/>
<path d="M371.118 160.744C360.057 148.507 349.703 137.094 338.408 124.622C349.586 127.681 358.763 131.211 368.058 134.859C376.648 138.271 376.765 138.153 374.647 147.213C373.706 151.449 372.53 155.567 371.118 160.744Z" fill="#FDF5F4"/>
<path d="M363.705 162.156C356.763 162.744 351.351 163.097 345.938 163.803C342.879 164.156 341.702 162.98 340.996 160.391C338.408 151.567 335.584 142.86 332.878 134.153C332.525 132.976 332.054 131.682 333.113 130.976C334.054 130.388 335.349 130.858 336.29 131.799C345.115 141.683 353.939 151.449 363.705 162.156Z" fill="#FDF5F4"/>
<path d="M320.288 339.237C308.051 341.825 297.108 344.061 285.46 346.414C289.578 340.178 295.579 336.766 298.403 330.53C299.226 328.765 302.403 329.353 304.286 330.294C309.228 332.883 314.052 335.707 320.288 339.237Z" fill="#FDF5F4"/>
<path d="M318.523 243.225C325.583 254.285 331.819 263.933 338.408 274.17C332.642 274.523 328.054 272.876 323.229 271.817C320.994 271.346 321.347 269.11 321.111 267.463C320.288 259.933 319.464 252.52 318.523 243.225Z" fill="#FDF5F4"/>
<path d="M328.289 323.235C323.7 310.527 324.641 299.585 338.643 292.29C335.348 302.879 333.348 313.587 328.289 323.235Z" fill="#FDF5F4"/>
<path d="M321.936 332.53C316.994 329.824 312.993 327.588 308.875 325.353C306.404 324.058 307.345 322.764 308.757 321.352C312.052 318.293 315.464 315.351 319.229 311.822C321.112 318.175 320.994 324.882 321.936 332.53Z" fill="#FDF5F4"/>
<path d="M338.055 281.936C333.231 286.524 329.113 290.407 324.877 294.408C323.936 294.172 324.053 293.231 323.936 292.525C322.171 277.817 322.171 277.817 338.055 281.936Z" fill="#FDF5F4"/>
<path d="M389.472 118.504C389.943 123.093 390.414 127.799 390.649 132.388C390.649 133.564 392.296 136.506 388.766 135.8C386.766 135.447 384.295 134.976 385.237 131.799C386.531 127.328 387.472 122.857 388.649 118.386C389.002 118.386 389.237 118.504 389.472 118.504Z" fill="#FDF5F4"/>
<path d="M380.531 150.625C381.119 148.39 381.59 146.154 382.178 143.919C382.531 142.624 382.531 140.977 384.531 141.448C385.826 141.801 387.473 142.154 388.061 143.095C389.12 144.507 387.237 145.566 386.414 146.272C384.531 147.801 383.825 151.096 380.531 150.625Z" fill="#FDF5F4"/>
<path d="M380.413 150.625C380.413 150.861 380.413 150.978 380.413 151.214C380.413 150.978 380.531 150.861 380.413 150.625C380.413 150.625 380.531 150.625 380.413 150.625Z" fill="#FDF5F4"/>
<path d="M212.158 185.688C212.393 208.632 212.511 231.576 212.746 254.52C191.096 246.049 169.329 237.577 147.797 229.106C147.561 226.752 149.326 226.282 150.503 225.458C170.388 212.515 190.155 199.572 210.04 186.63C210.746 186.277 211.452 186.041 212.158 185.688Z" fill="#F4F9FB"/>
<path d="M202.98 182.512C201.921 183.335 158.386 212.398 143.09 222.516C140.501 224.281 139.207 223.811 137.913 220.987C131.441 206.397 124.852 191.807 118.028 177.217C116.381 173.569 117.322 172.746 120.97 173.099C130.618 174.04 202.627 181.806 202.98 182.512Z" fill="#F4F9FB"/>
<path d="M128.029 120.975C150.738 138.389 172.505 155.096 195.802 172.863C180.741 171.687 167.446 170.628 154.15 169.451C142.266 168.392 130.382 167.216 118.616 166.157C116.263 165.921 115.086 165.686 115.91 162.744C119.91 149.213 123.793 135.565 128.029 120.975Z" fill="#F4F9FB"/>
<path d="M199.803 256.638C191.213 258.521 184.154 260.168 177.094 261.698C165.21 264.404 153.326 266.875 141.56 269.816C137.795 270.758 136.265 270.405 136.736 266.051C137.913 256.874 138.854 247.814 139.795 238.636C140.148 234.753 141.442 233.812 145.325 235.459C162.974 242.401 180.506 249.108 199.803 256.638Z" fill="#F4F9FB"/>
<path d="M205.333 300.055C199.685 309.704 193.92 319.47 188.272 329.118C184.977 334.648 181.683 340.178 178.506 345.826C177.094 348.297 176.035 349.003 173.799 346.649C167.681 340.06 161.445 333.589 154.738 326.647C171.564 317.352 188.036 308.292 204.391 299.114C204.744 299.467 204.98 299.82 205.333 300.055Z" fill="#F4F9FB"/>
<path d="M111.321 178.393C118.381 193.925 124.735 208.044 131.206 222.046C132.618 225.105 132.736 226.635 128.618 226.635C119.675 226.635 110.615 226.87 101.673 227.105C98.7316 227.223 97.3196 226.635 98.3786 223.105C102.497 208.75 106.615 194.278 111.321 178.393Z" fill="#F4F9FB"/>
<path d="M114.38 117.092C101.32 122.151 88.1417 127.093 75.1989 132.27C71.5514 133.682 71.7868 130.976 71.3161 129.093C69.0805 120.739 67.0803 112.503 64.8447 103.914C65.9037 103.796 67.198 103.325 68.1393 103.678C83.5529 107.561 99.0842 111.562 114.498 115.562C114.38 116.151 114.38 116.621 114.38 117.092Z" fill="#F4F9FB"/>
<path d="M192.273 273.699C178.859 288.642 165.446 303.585 152.268 318.528C150.268 320.764 148.856 321.117 146.855 318.764C144.031 315.469 141.09 312.41 138.031 309.351C135.207 306.762 135.56 305.233 138.972 303.35C154.503 294.408 169.917 285.112 185.566 276.288C187.331 275.229 188.861 272.17 192.273 273.699Z" fill="#F4F9FB"/>
<path d="M213.216 261.58C212.981 270.287 214.158 278.994 212.628 287.701C201.568 293.702 190.508 299.702 179.33 305.586C176.153 307.233 173.564 310.41 168.976 309.468C183.095 293.937 196.861 278.641 210.745 263.345C211.569 262.521 212.51 262.051 213.216 261.58Z" fill="#F4F9FB"/>
<path d="M92.6133 214.633C89.907 211.456 90.26 207.926 89.554 204.632C87.3185 194.278 85.2006 183.923 82.7297 173.687C82.1414 170.981 82.0237 169.569 85.3182 169.804C91.2013 170.392 96.9667 170.981 102.85 171.569C105.203 171.804 106.38 172.393 105.556 175.217C101.203 188.159 98.614 201.69 92.6133 214.633Z" fill="#F4F9FB"/>
<path d="M133.677 298.643C133.441 292.172 134.853 286.524 135.324 280.759C135.559 277.935 137.559 277.347 139.677 276.876C146.972 275.582 154.032 273.464 161.562 272.758C168.034 272.287 174.035 268.522 180.624 267.698C181.918 267.581 183.212 267.463 184.742 267.816C167.798 278.053 151.561 289.348 133.677 298.643Z" fill="#F4F9FB"/>
<path d="M79.5526 162.156C77.67 154.626 76.0227 148.39 74.4931 142.154C74.2578 141.095 73.5518 139.918 75.1991 139.33C86.9652 134.859 98.7314 130.27 110.498 125.799C110.733 126.269 111.086 126.74 111.321 127.093C101.085 138.388 90.7304 149.802 79.5526 162.156Z" fill="#F4F9FB"/>
<path d="M118.381 130.741C115.322 141.212 112.145 151.567 109.203 162.156C108.497 164.627 107.321 165.215 105.085 165.098C99.6728 164.627 94.1427 164.156 87.3184 163.568C97.9079 151.92 107.674 141.095 117.557 130.27C117.793 130.388 118.028 130.623 118.381 130.741Z" fill="#F4F9FB"/>
<path d="M111.91 276.288C118.616 265.816 124.852 256.285 131.559 245.813C133.206 251.461 131.324 256.05 130.971 260.639C129.794 272.523 129.559 272.405 118.028 275.111C116.381 275.464 114.616 275.699 111.91 276.288Z" fill="#F4F9FB"/>
<path d="M163.328 347.355C152.503 344.767 142.502 342.414 131.206 339.707C136.971 336.531 141.796 333.824 146.62 331.118C147.914 330.412 149.208 330.412 150.385 331.589C154.856 336.295 159.68 340.766 163.328 347.355Z" fill="#F4F9FB"/>
<path d="M122.617 325.706C119.44 315.822 116.498 306.644 113.439 297.232C124.499 298.996 127.794 309.233 122.617 325.706Z" fill="#F4F9FB"/>
<path d="M129.088 333.354C129.912 326.059 130.617 319.823 131.441 312.763C135.912 315.94 139.089 319.705 142.266 323.352C143.678 324.882 142.737 325.823 141.442 326.529C137.56 328.765 133.677 330.883 129.088 333.354Z" fill="#F4F9FB"/>
<path d="M126.736 295.937C121.911 291.701 117.44 287.701 112.263 283.112C118.264 281.818 123.206 280.759 128.736 279.582C128.03 285.465 127.442 290.76 126.736 295.937Z" fill="#F4F9FB"/>
<path d="M61.0797 122.034C64.1389 125.563 64.4919 129.799 65.5509 133.917C66.4922 137.33 63.1976 137.212 61.5504 137.447C59.0795 137.8 60.0208 135.447 60.1384 134.153C60.3738 130.035 60.7268 126.034 61.0797 122.034Z" fill="#F4F9FB"/>
<path d="M70.963 154.743C67.7862 151.449 65.7859 149.331 63.7857 147.213C63.0797 146.389 61.4325 145.566 62.6091 144.389C63.4327 143.448 64.9623 143.095 66.2566 142.86C67.9038 142.507 68.1392 144.036 68.3745 145.095C69.1981 147.684 69.7864 150.272 70.963 154.743Z" fill="#F4F9FB"/>
<path d="M198.273 186.041C198.861 185.688 199.332 185.335 199.92 184.982C199.332 185.453 198.861 185.806 198.273 186.041Z" fill="#F4F9FB"/>
<path d="M227.1 237.224C235.219 252.52 235.454 268.052 234.278 284.171C229.1 281.465 226.512 278.053 226.865 271.817C227.571 260.521 227.1 249.226 227.1 237.224Z" fill="#FDF5F4"/>
<path d="M234.278 241.225C226.041 226.046 225.453 210.986 234.278 195.807C234.278 210.868 234.278 226.046 234.278 241.225Z" fill="#F4F9FB"/>
<path d="M217.452 284.171C216.981 268.64 215.805 254.403 222.982 239.813C222.982 252.873 222.982 264.875 222.982 276.876C222.982 280.053 220.04 281.23 217.452 284.171Z" fill="#F4F9FB"/>
<path d="M217.216 198.161C224.747 211.692 224.629 225.105 217.216 239.577C217.216 225.105 217.216 211.809 217.216 198.161Z" fill="#F4F9FB"/>
<path d="M225.571 297.937C223.218 294.643 219.805 292.054 219.453 289.113C219.1 286.877 222.747 282.994 225.571 283.23C228.159 283.465 232.16 286.524 231.807 289.113C231.336 292.054 228.042 294.643 225.571 297.937Z" fill="#F4F9FB"/>
<path d="M222.158 197.69C220.629 192.866 218.746 188.042 217.452 183.218C216.393 179.217 220.629 179.099 222.864 176.04C222.864 184.041 222.864 190.748 222.864 197.455C222.746 197.572 222.393 197.69 222.158 197.69Z" fill="#FDF5F4"/>
<path d="M227.571 176.746C234.396 182.041 234.396 184.747 227.571 198.043C227.571 190.748 227.571 184.159 227.571 176.746Z" fill="#FDF5F4"/>
<path d="M213.687 148.037C211.687 144.507 209.804 140.977 207.686 137.683C206.156 135.329 207.921 134.623 209.333 133.8C211.804 132.388 211.804 134.741 212.157 136.035C213.099 139.918 213.922 143.801 214.746 147.801C214.393 147.801 214.04 147.919 213.687 148.037Z" fill="#F4F9FB"/>
<path d="M240.396 133.094C241.925 134.506 244.985 134.741 243.102 137.447C241.337 139.918 241.455 145.331 237.925 144.389C235.336 143.683 238.984 139.565 238.631 136.741C238.631 135.682 238.748 133.8 240.396 133.094Z" fill="#F4F9FB"/>
<path d="M234.042 176.393C231.454 173.922 227.924 172.863 227.453 168.981C227.336 168.039 227.218 166.98 228.277 166.51C228.63 166.274 229.571 166.51 229.807 166.863C231.807 169.451 235.69 171.216 234.042 176.393Z" fill="#FDF5F4"/>
<path d="M216.511 176.393C215.805 170.275 219.217 168.392 222.511 166.039C224.982 172.04 219.923 172.981 216.511 176.393Z" fill="#FDF5F4"/>
</svg>
