<svg width="450" height="450" viewBox="0 0 450 450" fill="none" xmlns="http://www.w3.org/2000/svg">
<path d="M362.703 225.258C362.703 229.508 362.703 233.872 362.703 238.122C362.703 238.696 362.933 239.5 362.129 239.845C361.899 239.96 362.014 240.304 361.899 240.649C360.636 259.256 356.96 277.403 350.988 295.091C343.752 316.569 333.07 335.98 318.368 353.324C304.471 369.748 288.046 382.842 268.061 391.112C257.839 395.362 247.157 397.774 236.245 399.382C229.813 400.415 223.381 399.841 216.949 399.841C215.341 399.841 213.619 399.037 211.781 398.922C192.025 396.395 174.337 388.929 158.142 377.444C147.805 370.093 138.732 361.364 130.806 351.601C114.382 331.616 103.241 308.874 96.3493 284.065C93.2481 273.153 91.0659 262.012 89.8024 250.641C89.4579 247.31 89.5727 243.98 88.8836 240.764C87.2756 233.068 88.4241 225.488 88.0796 217.792C88.0796 217.218 88.0796 216.529 88.0796 215.954C88.0796 214.002 88.539 212.049 88.7687 210.212C89.8024 197.462 91.755 184.943 94.7413 172.653C100.254 149.797 109.213 128.433 122.881 109.252C133.678 93.976 146.427 80.5377 162.162 69.9709C176.29 60.5526 191.681 54.4651 208.45 51.7086C210.747 51.364 213.274 51.364 215.456 50.7897C220.969 49.2966 226.597 50.4451 232.225 50.1006C232.915 50.1006 233.719 49.9857 234.178 50.6749C234.293 50.7897 234.637 50.7897 234.867 50.7897C246.468 51.5937 257.609 54.58 268.291 59.0594C281.384 64.5726 293.215 72.0383 303.782 81.5715C326.523 102.016 341.799 127.285 351.562 156.114C355.812 168.748 358.798 181.612 360.636 194.706C361.325 199.53 361.44 204.469 362.244 209.293C362.703 211.934 362.818 214.576 362.933 217.218C362.818 219.86 362.818 222.501 362.703 225.258C362.703 225.258 362.818 225.258 362.703 225.258ZM359.372 223.765C359.487 215.84 358.683 205.158 357.305 194.476C355.582 181.842 352.711 169.552 348.691 157.492C345.015 146.581 340.536 136.129 334.908 126.021C327.672 112.928 319.172 100.867 308.72 90.1858C304.7 86.1657 300.451 82.3755 295.971 78.8149C284.945 70.2006 273 63.424 259.906 58.8297C242.448 52.7423 224.53 51.5937 206.268 55.0394C193.404 57.4514 181.229 61.9309 169.858 68.4777C156.075 76.4029 144.474 86.8549 134.367 99.0298C125.868 109.252 118.517 120.393 112.544 132.223C107.72 141.757 103.7 151.749 100.714 162.086C93.8224 185.632 90.7213 209.522 91.755 234.102C92.4441 249.608 94.7413 264.769 98.5316 279.815C101.403 291.071 105.308 301.983 110.247 312.435C115.071 322.772 120.814 332.764 127.59 342.068C132.185 348.5 137.353 354.587 142.981 360.215C145.968 363.201 149.069 366.073 152.285 368.715C161.588 376.41 171.696 382.842 182.722 387.551C198.343 394.328 214.537 397.199 231.536 396.28C241.414 395.706 251.062 393.868 260.365 390.652C270.932 386.977 280.695 381.808 289.884 375.376C300.451 368.025 309.754 359.296 317.909 349.304C327.098 337.933 334.678 325.643 340.766 312.32C346.049 300.949 350.184 289.233 353.17 277.059C357.305 260.519 359.258 243.635 359.372 223.765Z" fill="#7D1810"/>
<path d="M128.05 224.799C127.935 201.597 132.184 179.315 141.028 157.952C146.197 145.662 152.744 134.061 161.358 123.839C170.777 112.698 181.688 103.28 195.126 97.3069C217.753 87.4292 239.921 88.4629 261.514 100.408C276.215 108.563 287.586 120.164 296.775 134.061C308.261 151.52 315.612 170.586 319.287 191.03C324.456 219.17 323.422 247.196 315.612 274.761C310.443 293.139 302.288 310.023 290.458 324.954C281.039 336.784 269.898 346.432 256.001 352.749C233.833 362.857 211.781 361.938 190.187 350.682C175.715 343.101 164.345 331.96 155.156 318.637C142.407 300.145 134.711 279.7 130.691 257.763C128.968 246.851 128.05 235.825 128.05 224.799ZM319.287 220.204C319.172 215.15 318.713 207.11 317.564 199.185C315.612 185.058 311.936 171.39 306.308 158.296C298.727 140.493 288.39 124.758 273.344 112.238C260.825 101.786 246.582 95.2395 230.158 93.976C221.773 93.4018 213.618 94.2058 205.693 96.6178C188.924 101.786 175.486 111.779 164.345 125.102C156.19 134.75 149.873 145.662 144.819 157.148C136.205 176.673 132.184 197.118 131.38 218.366C130.806 231.69 131.84 245.013 134.252 258.107C137.698 277.173 144.359 295.091 154.582 311.516C163.311 325.528 174.222 337.473 188.579 345.858C210.862 358.952 233.718 359.871 256.919 348.729C269.439 342.757 279.317 333.568 288.046 322.887C298.842 309.563 306.078 294.402 311.362 278.207C317.105 260.519 319.632 242.027 319.287 220.204Z" fill="#7D1810"/>
<path d="M157.682 337.818C158.946 337.359 160.324 336.899 161.588 336.555C163.54 336.095 164.918 336.669 165.837 338.048C166.182 338.622 166.297 339.082 165.608 339.656C162.621 342.298 160.554 345.858 157.797 348.729C157.453 349.074 157.223 349.534 157.453 349.993C157.797 351.142 156.993 351.256 156.189 351.142C155.156 351.142 154.581 350.338 153.892 349.648C152.629 348.155 152.629 348.155 154.122 347.007C156.534 345.169 158.372 342.757 160.209 340.345C160.324 340.23 160.554 340 160.439 339.771C160.209 339.426 159.865 339.656 159.635 339.771C157.912 340.23 156.304 340.804 154.581 341.264C153.777 341.493 152.514 342.068 152.054 341.379C151.595 340.804 152.744 340 153.088 339.196C153.777 337.703 154.581 336.21 155.385 334.717C155.5 334.487 155.615 334.257 155.5 334.028C155.27 333.798 155.041 333.913 154.811 334.028C152.054 335.176 149.528 336.784 148.264 339.541C147.805 340.46 146.886 340.804 145.967 340.345C145.163 339.885 144.704 339.196 144.244 338.507C143.9 337.933 144.359 337.703 144.704 337.473C147.92 335.636 150.906 333.453 154.007 331.501C154.811 331.041 155.5 330.582 155.385 329.433C155.385 328.629 156.304 328.515 156.878 328.744C158.486 329.319 159.29 330.812 160.209 332.075C160.439 332.42 159.98 332.764 159.865 332.994C159.061 334.487 158.257 335.866 157.453 337.359C157.568 337.703 157.682 337.818 157.682 337.818Z" fill="#7D1810"/>
<path d="M239.462 77.4366C239.002 79.6189 238.543 81.8012 238.083 83.9835C237.968 84.328 238.083 84.6726 238.313 85.0172C239.002 85.936 238.658 86.8549 237.509 87.0846C236.59 87.3143 235.786 86.9697 234.982 86.5103C234.408 86.1657 234.752 85.5915 234.867 85.2469C236.016 81.6863 236.705 78.0109 237.509 74.3355C237.624 73.6463 237.739 73.072 237.164 72.4977C236.705 71.9234 237.394 70.8897 238.313 70.7749C239.921 70.5452 241.529 71.5789 241.988 73.1869C242.792 76.288 243.941 79.2743 245.09 82.3755C245.204 82.6052 245.204 82.8349 245.549 82.9498C245.894 82.8349 245.894 82.3754 246.008 82.0309C246.353 80.4229 246.698 78.8149 247.042 77.2069C247.272 76.288 247.387 75.484 246.468 74.7949C245.894 74.3354 246.468 73.3017 247.387 73.072C248.42 72.8423 249.454 73.1869 250.373 73.6463C250.947 73.876 250.603 74.4503 250.373 74.7949C248.995 78.0109 248.306 81.4566 248.076 84.9023C248.076 85.7063 248.076 86.6252 248.191 87.4292C248.42 88.5778 247.846 89.3817 246.583 89.4966C245.664 89.4966 244.745 89.152 243.826 88.9223C243.367 88.8075 243.252 88.2332 243.137 87.7737C242.333 84.5577 241.07 81.4566 239.921 78.3555C239.806 78.0109 239.691 77.7812 239.462 77.5514C239.691 77.4366 239.576 77.4366 239.462 77.4366Z" fill="#7D1810"/>
<path d="M125.982 259.371C126.212 260.289 125.638 260.634 124.719 260.634C121.503 260.749 118.402 261.208 115.301 262.127C114.267 262.472 113.348 262.816 112.429 263.505C111.396 264.309 110.362 263.965 109.902 262.816C109.098 260.979 109.328 259.83 110.936 258.567C113.348 256.614 115.645 254.661 117.828 252.479C118.057 252.249 118.402 252.02 118.287 251.675C118.057 251.331 117.713 251.56 117.368 251.56C115.53 251.905 113.693 252.135 111.97 252.479C111.281 252.594 110.821 252.824 110.592 253.513C110.477 253.972 110.362 254.432 109.788 254.317C109.213 254.317 108.754 254.087 108.409 253.628C108.065 252.824 107.835 252.02 107.835 251.101C107.835 250.412 108.294 250.297 108.754 250.297C112.659 250.067 116.449 249.263 120.24 248.459C120.699 248.344 121.273 248.229 121.618 247.77C122.192 246.736 123.111 246.736 123.685 247.77C124.834 249.493 124.489 251.331 122.881 252.479C120.469 254.202 118.402 256.269 116.449 258.452C116.22 258.681 115.875 258.911 115.99 259.256C116.22 259.715 116.679 259.371 117.024 259.371C118.517 259.141 120.125 258.796 121.618 258.567C122.422 258.452 123.341 258.222 123.456 257.188C123.57 256.614 124.03 256.729 124.489 256.844C125.638 257.303 125.868 258.222 125.982 259.371Z" fill="#7D1810"/>
<path d="M321.47 156.918C321.7 157.148 321.929 156.918 322.159 156.918C323.882 156.114 325.72 155.425 327.442 154.621C328.132 154.391 328.591 153.932 328.706 153.128C328.821 152.209 329.74 151.864 330.544 152.553C331.348 153.242 331.692 154.276 331.922 155.195C332.037 155.769 331.692 155.769 331.233 155.884C329.28 156.114 327.442 157.033 325.834 157.952C324.686 158.641 323.308 158.985 322.044 159.445C320.896 159.904 319.862 160.593 319.288 161.627C318.713 162.661 317.794 162.776 316.99 161.742C316.416 160.938 316.186 160.019 315.842 159.1C315.612 158.641 316.072 158.296 316.301 158.066C318.369 155.425 320.092 152.668 321.814 149.797C321.929 149.567 322.274 149.337 322.159 148.878C320.896 149.108 319.862 149.797 318.828 150.256C318.024 150.601 317.22 150.945 316.416 151.405C315.957 151.634 315.497 151.864 315.497 152.438C315.497 153.013 315.382 153.472 314.693 153.587C314.004 153.587 313.43 153.472 313.085 152.898C312.741 152.324 312.511 151.749 312.281 151.06C312.166 150.601 312.281 150.256 312.856 150.141C316.186 149.337 319.058 147.385 322.274 146.236C323.422 145.892 324.341 145.088 325.03 144.054C325.72 143.135 326.638 143.135 327.213 144.054C327.672 144.858 328.017 145.777 328.361 146.581C328.591 147.04 328.132 147.385 327.902 147.729C325.72 150.486 323.767 153.472 321.814 156.344C321.47 156.573 321.355 156.688 321.47 156.918Z" fill="#7D1810"/>
<path d="M160.21 103.739C161.703 105.347 163.082 107.07 164.575 108.678C164.919 109.022 165.494 109.137 165.953 109.022C166.872 108.793 167.102 109.367 167.102 110.056C167.102 110.975 165.838 112.583 165.034 112.698C164.46 112.813 164.345 112.353 164.115 112.009C162.507 109.367 160.44 107.07 158.143 104.887C157.224 103.969 156.19 103.165 154.927 102.705C154.352 102.475 154.008 102.016 154.008 101.327C153.893 99.8338 156.305 98.1109 157.683 98.5703C160.784 99.7189 164 100.753 167.216 101.671C167.561 101.786 167.906 102.016 168.365 101.786C166.872 99.9486 165.264 98.1109 163.771 96.388C163.426 96.0435 162.967 95.9286 162.392 96.0435C161.359 96.2732 160.784 95.6989 161.129 94.6652C161.474 93.5166 162.507 92.8274 163.426 92.2532C163.886 92.0234 164 92.4829 164.115 92.7126C166.183 96.1583 169.169 98.9149 171.811 101.901C172.155 102.246 172.5 102.475 173.074 102.475C174.223 102.475 174.682 103.05 174.223 104.083C173.878 105.002 172.959 105.347 172.385 106.036C171.581 106.955 170.777 106.381 170.088 106.036C166.872 104.773 163.541 103.969 160.21 103.165C160.44 103.509 160.325 103.624 160.21 103.739Z" fill="#7D1810"/>
<path d="M336.976 199.76C334.449 199.874 332.152 200.104 329.97 200.449C329.395 200.564 329.166 200.908 328.936 201.482C328.706 202.172 328.247 202.057 327.787 201.827C326.868 201.368 326.179 199.415 326.524 198.496C326.754 198.037 327.098 198.037 327.443 198.037C330.774 198.266 334.104 197.233 337.435 197.348C338.584 197.348 339.618 196.888 340.536 196.084C341.34 195.395 342.259 195.51 342.719 196.544C343.408 197.922 343.063 199.76 341.685 200.678C339.158 202.516 336.631 204.469 334.104 206.306C333.76 206.536 333.186 206.766 333.415 207.225C333.645 207.8 334.219 207.455 334.564 207.455C336.402 207.225 338.124 207.11 339.962 206.881C340.536 206.766 340.996 206.766 341.34 206.192C341.915 205.158 342.719 205.158 343.408 205.962C344.097 206.881 343.982 207.914 343.867 208.948C343.867 209.293 343.523 209.408 343.178 209.408C340.077 208.948 337.206 209.867 334.219 210.097C333.3 210.097 332.382 210.326 331.463 210.441C330.888 210.556 330.314 210.671 329.97 211.245C329.28 212.164 328.476 212.049 328.017 211.13C327.558 210.212 327.443 209.063 327.443 208.029C327.443 207.455 327.902 207.34 328.362 207.11C331.118 205.158 333.76 203.205 336.287 200.908C336.516 200.449 336.631 200.219 336.976 199.76Z" fill="#7D1810"/>
<path d="M301.255 107.874C301.255 112.468 296.201 117.177 291.607 116.947C290.114 116.833 288.85 116.373 287.702 115.339C286.323 113.961 284.945 112.468 283.567 111.09C282.992 110.516 282.992 110.171 283.796 109.826C285.175 109.022 286.323 107.874 287.357 106.725C288.276 105.577 289.31 104.543 290.458 103.624C291.607 102.59 292.526 101.442 292.755 99.8338C292.87 98.9149 293.444 98.8001 294.248 99.0298C296.89 99.4892 301.255 105.117 301.255 107.874ZM290.458 113.846C293.789 113.846 298.268 109.367 298.268 106.036C298.268 105.117 297.924 104.313 297.235 103.624C296.546 103.05 295.742 102.935 295.052 103.624C292.755 105.921 290.458 108.218 288.161 110.516C287.242 111.434 287.472 112.468 288.506 113.272C288.965 113.732 289.654 113.846 290.458 113.846Z" fill="#7D1810"/>
<path d="M343.637 246.047C343.522 247.655 343.407 249.378 342.833 250.986C342.144 252.709 341.11 253.972 339.043 254.317C336.975 254.546 335.597 253.628 334.563 252.02C334.104 251.216 333.644 251.101 332.726 251.445C331.003 252.249 329.05 252.709 327.902 254.432C327.557 254.891 327.098 254.661 326.753 254.317C325.719 253.283 326.179 252.02 326.408 250.871C326.523 249.952 327.327 250.067 327.902 249.952C329.624 249.608 331.232 248.918 332.496 247.77C332.726 247.54 333.07 247.31 333.07 246.851C332.955 246.392 332.496 246.392 332.151 246.277C331.003 246.047 329.739 245.588 328.706 246.736C328.131 247.31 327.787 246.736 327.442 246.277C326.983 245.702 326.983 242.716 327.327 242.142C327.557 241.797 327.902 241.912 328.246 241.912C331.922 242.946 335.712 243.061 339.387 243.52C340.306 243.635 341.11 243.635 341.684 242.831C342.144 242.142 342.603 242.601 342.948 242.946C343.982 243.75 343.752 244.898 343.637 246.047ZM338.813 250.526C340.306 250.526 341.34 249.722 341.455 248.344C341.455 247.655 341.225 247.196 340.536 247.081C339.272 246.851 338.009 246.736 336.746 246.506C335.827 246.392 335.482 246.851 335.597 247.77C335.712 249.378 337.09 250.526 338.813 250.526Z" fill="#7D1810"/>
<path d="M306.997 334.947C308.146 334.947 308.605 335.636 308.146 336.784C307.801 337.818 306.883 338.507 306.193 339.426C305.964 339.771 305.619 339.541 305.389 339.311C302.748 336.44 299.532 334.372 296.66 331.845C296.086 331.386 295.512 330.927 294.823 331.386C293.904 331.845 293.674 331.271 293.559 330.582C293.444 330.008 293.559 329.319 293.904 328.859C295.052 327.251 296.086 325.643 297.579 324.38C299.072 323.116 300.795 322.312 302.748 323.116C304.585 323.92 305.504 325.413 305.504 327.366C305.504 328.285 305.849 328.744 306.768 328.859C308.605 329.089 310.443 329.548 312.396 328.974C313.2 328.744 313.315 329.548 313.429 330.123C313.429 331.041 312.625 331.616 312.166 332.305C311.477 333.339 310.788 332.994 309.984 332.649C308.376 332.075 306.653 331.96 304.93 332.19C304.585 332.19 304.126 332.305 304.011 332.649C303.781 333.109 304.241 333.224 304.471 333.568C305.045 334.257 305.734 335.176 306.997 334.947ZM302.403 328.974C302.403 327.021 301.025 325.643 299.187 325.873C298.268 325.988 297.694 326.447 297.349 327.251C297.12 328.055 297.694 328.4 298.153 328.859C298.843 329.433 299.532 329.893 300.106 330.467C301.484 331.501 301.944 331.386 302.173 329.663C302.403 329.319 302.403 329.089 302.403 328.974Z" fill="#7D1810"/>
<path d="M128.164 145.662C130.462 145.892 133.333 146.925 135.4 149.452C137.008 151.405 137.238 153.702 136.434 155.999C135.86 157.952 134.711 159.56 133.792 161.397C133.448 162.086 133.103 161.857 132.644 161.627C129.313 159.56 125.638 158.181 122.192 156.573C121.618 156.344 121.158 156.114 120.584 156.458C119.665 156.918 119.206 156.573 118.976 155.654C118.976 155.425 118.861 155.195 118.976 154.965C119.895 152.209 120.814 149.567 122.881 147.385C124.144 146.121 125.638 145.662 128.164 145.662ZM134.596 155.31C134.596 154.506 134.367 153.817 133.907 153.128C131.84 150.371 128.968 149.108 125.523 149.222C124.259 149.222 123.111 149.797 122.536 151.06C122.077 151.979 122.307 152.783 123.226 153.242C126.097 154.621 128.968 155.999 131.955 157.262C133.448 157.952 134.596 157.033 134.596 155.31Z" fill="#7D1810"/>
<path d="M107.95 197.577C108.065 195.854 108.409 194.017 108.983 192.179C109.558 190.456 110.706 189.308 112.544 188.963C114.611 188.504 116.105 189.537 117.138 191.26C117.713 192.294 118.287 192.409 119.321 191.949C120.929 191.145 122.651 190.686 123.915 189.308C124.604 188.504 125.063 189.422 125.408 189.997C125.867 190.801 125.523 191.605 125.408 192.409C125.293 193.557 124.489 193.557 123.685 193.672C122.077 194.017 120.584 194.821 118.976 195.395C118.517 195.51 118.287 195.969 118.287 196.429C118.402 196.888 118.746 197.118 119.091 197.233C120.354 197.348 121.618 198.152 122.766 196.773C122.996 196.429 123.341 196.658 123.57 196.888C124.259 197.577 124.374 198.381 124.259 199.3C124.145 199.874 124.03 200.449 123.915 201.023C123.8 201.712 123.455 201.942 122.766 201.712C119.091 200.449 115.186 200.334 111.51 199.645C110.936 199.53 110.362 199.53 109.787 200.104C109.098 200.908 108.524 200.793 108.065 199.874C107.95 199.07 107.95 198.381 107.95 197.577ZM115.186 196.658C115.875 196.773 116.105 196.544 115.99 195.74C115.875 195.05 115.645 194.361 115.301 193.787C114.382 192.294 112.314 192.064 111.051 193.213C110.477 193.787 110.247 194.476 110.477 195.165C110.591 195.969 111.281 195.969 111.855 196.084C113.003 196.429 114.037 196.544 115.186 196.658Z" fill="#7D1810"/>
<path d="M145.279 114.306C148.61 114.306 153.089 117.407 154.352 120.623C154.812 121.771 154.812 123.035 154.352 124.183C153.319 126.825 151.596 129.122 149.873 131.305C149.528 131.764 149.184 131.764 148.724 131.305C145.968 128.433 142.522 126.595 139.536 124.069C139.076 123.724 138.502 123.494 137.928 123.724C137.009 124.069 137.009 123.494 136.894 122.92C136.894 122.805 136.894 122.69 136.894 122.575C136.894 119.589 141.144 114.076 145.279 114.306ZM143.671 117.522C143.096 117.522 142.407 117.637 141.948 117.866C140.225 118.785 140.11 120.278 141.718 121.427C144.13 123.15 146.542 124.988 148.839 126.825C149.988 127.629 150.907 127.514 151.596 126.251C152.055 125.562 152.055 124.758 151.94 123.839C151.136 120.738 146.887 117.407 143.671 117.522Z" fill="#7D1810"/>
<path d="M223.381 86.6252C218.672 86.6252 215.686 83.7537 215.456 79.8486C215.341 77.7812 215.341 75.8286 216.26 73.9909C217.409 71.464 219.246 69.7412 222.233 69.7412C225.219 69.6263 227.516 70.8897 228.779 73.7612C230.158 76.7475 230.158 79.6189 228.894 82.6052C227.746 85.3617 225.563 86.6252 223.381 86.6252ZM226.138 78.2406C226.023 76.6326 226.023 74.9097 225.104 73.3017C224.53 72.268 223.726 71.6937 222.462 71.6937C221.199 71.6937 220.51 72.4977 220.165 73.5314C218.902 76.5177 218.902 79.6189 220.28 82.6052C220.739 83.6389 221.429 84.5578 222.692 84.5578C223.955 84.5578 224.759 83.7537 225.334 82.72C225.908 81.3417 226.023 79.8486 226.138 78.2406Z" fill="#7D1810"/>
<path d="M216.835 380.2C214.653 380.2 213.045 379.741 211.666 378.248C209.829 376.18 209.944 373.768 211.896 371.816C212.126 371.586 212.356 371.356 212.7 371.242C214.078 370.208 214.078 370.208 213.274 368.715C211.896 366.188 212.815 364.12 215.572 363.431C217.065 363.087 218.443 363.316 219.821 364.006C222.348 365.384 222.578 367.796 220.625 369.748C219.477 370.782 219.477 370.782 220.625 371.931C222.118 373.309 222.693 375.032 222.004 376.984C221.314 378.937 219.821 379.856 217.869 380.086C217.524 380.086 217.065 380.086 216.835 380.2ZM218.902 375.376C218.902 373.883 217.869 372.16 216.95 372.046C216.031 371.931 214.882 373.079 214.423 374.458V374.572C214.078 375.721 214.193 376.755 215.112 377.559C215.801 378.248 216.72 378.363 217.639 377.903C218.443 377.444 218.788 376.41 218.902 375.376ZM218.902 366.877C218.902 365.958 218.098 365.039 217.409 365.154C216.605 365.154 215.801 366.188 215.916 367.107C216.031 368.025 216.261 368.944 217.294 369.289C217.754 369.289 218.902 367.796 218.902 366.877Z" fill="#7D1810"/>
<path d="M176.864 83.8686C177.783 83.8686 178.472 84.2131 179.046 84.7874C181.803 86.9697 184.444 89.3817 186.971 92.0235C187.431 92.4829 187.89 92.9423 188.694 93.172C189.728 93.4018 189.957 93.976 189.498 94.8949C188.809 96.1583 187.431 96.5029 186.397 97.192C185.937 97.4218 185.823 96.8475 185.708 96.5029C185.248 95.6989 184.904 94.78 184.329 94.0909C183.87 93.5166 183.296 93.4018 182.721 93.8612C181.917 94.3206 180.999 94.78 180.195 95.3543C178.931 96.1583 178.816 97.3069 180.08 98.2258C181.343 99.0298 181.343 99.7189 180.195 100.753C178.242 102.361 177.897 102.361 177.323 99.8337C176.519 96.2732 175.6 92.7126 174.911 89.0372C174.796 88.4629 174.567 88.0034 174.107 87.7737C173.073 87.0846 173.073 86.2806 173.763 85.3617C174.452 84.2131 175.6 83.9834 176.864 83.8686ZM176.749 87.4292C176.979 88.5777 177.208 89.6115 177.438 90.76C178.242 94.4355 177.553 94.2057 181.113 92.2532C181.228 92.2532 181.228 92.1383 181.343 92.1383C181.688 91.9086 181.688 91.6789 181.458 91.4492C180.08 89.956 178.587 88.5777 176.749 87.4292Z" fill="#7D1810"/>
<path d="M132.3 131.879C134.712 132.224 137.124 132.798 139.651 133.372C140.915 133.717 142.178 134.061 143.441 134.291C143.901 134.406 144.36 134.406 144.82 134.406C145.279 134.406 145.624 133.717 146.083 134.291C146.542 134.865 146.772 135.554 146.657 136.243C146.428 137.277 145.738 138.081 145.049 138.885C144.705 139.345 144.36 139 144.016 138.77C143.327 138.196 142.637 137.737 141.833 137.507C141.144 137.277 140.57 137.392 140.225 138.081C139.766 139 139.192 139.804 138.732 140.723C138.158 141.872 138.502 142.676 139.766 142.905C140.57 143.02 141.604 142.676 141.719 143.939C141.833 145.202 141.144 146.121 140.455 147.04C140.11 147.5 139.766 147.04 139.536 146.81C136.78 143.824 134.023 140.838 131.266 137.737C130.922 137.277 130.577 136.933 129.888 136.818C128.625 136.818 128.165 136.244 128.28 134.98C128.51 133.487 130.462 131.879 132.3 131.879ZM131.841 135.21C132.76 136.244 133.564 137.162 134.368 137.966C136.78 140.608 136.205 140.608 138.043 137.392C138.043 137.277 138.158 137.277 138.158 137.162C138.388 136.703 138.273 136.358 137.698 136.243C135.976 135.784 134.138 135.44 131.841 135.21Z" fill="#7D1810"/>
<path d="M330.773 167.025C327.902 167.025 325.719 167.944 323.882 169.667C323.422 170.012 323.192 170.471 322.963 170.93C322.618 171.964 322.388 172.998 323.422 173.802C324.111 174.376 325.604 174.146 326.523 173.457C327.098 172.998 326.983 172.424 326.983 171.734C326.868 170.816 327.327 170.586 328.016 170.93C328.935 171.275 329.395 171.964 329.624 172.883C329.854 173.802 330.428 174.836 330.314 175.525C330.084 176.558 328.706 175.984 327.902 176.329C327.098 176.673 326.294 176.903 325.49 177.133C324.111 177.477 323.078 177.133 322.159 175.984C319.632 172.883 320.091 168.059 323.078 165.532C325.604 163.465 328.591 162.661 331.807 163.35C336.056 164.269 338.468 168.748 337.205 172.883C336.86 173.802 336.401 173.917 335.597 173.457C334.678 172.998 334.334 172.079 333.989 171.045C333.874 170.816 333.874 170.586 334.104 170.471C335.138 170.356 335.023 169.667 335.023 168.978C334.908 168.059 334.334 167.37 333.415 167.14C332.381 167.14 331.462 167.025 330.773 167.025Z" fill="#7D1810"/>
<path d="M265.305 82.3755C265.075 85.2469 264.845 88.1184 264.386 90.9898C264.271 92.0235 264.041 93.1721 264.616 94.2058C264.96 94.8949 263.927 95.6989 263.008 95.5841C261.974 95.4692 261.055 94.8949 260.136 94.3206C259.562 93.9761 259.907 93.6315 260.136 93.2869C260.596 92.5978 260.94 91.9086 261.17 91.1046C261.4 90.3006 261.17 89.7263 260.366 89.3818C259.562 89.0372 258.758 88.6926 257.839 88.348C256.346 87.7738 255.427 88.3481 255.197 89.8412C255.083 90.5304 255.197 91.4492 254.279 91.5641C253.245 91.6789 252.211 91.3343 251.292 90.6452C250.948 90.4155 251.292 90.0709 251.522 89.8412C254.164 86.7401 256.576 83.5241 259.332 80.5378C259.907 79.9635 260.366 79.504 260.136 78.5852C259.907 77.5515 260.711 77.3218 261.515 77.2069C263.352 76.9772 265.305 78.5852 265.535 80.5378C265.42 81.2269 265.305 81.8012 265.305 82.3755ZM261.974 83.8686C261.974 83.1795 261.974 82.8349 261.974 82.4903C261.974 82.1457 262.089 81.6863 261.744 81.5715C261.285 81.3418 261.17 81.916 260.94 82.1458C260.021 83.1795 259.217 84.2132 258.299 85.2469C258.069 85.4766 257.609 85.8212 258.069 86.1658C258.988 86.8549 259.907 87.3143 261.055 87.4292C261.629 87.4292 261.629 86.9698 261.744 86.5103C261.744 85.4766 261.974 84.5578 261.974 83.8686Z" fill="#7D1810"/>
<path d="M176.175 348.385C176.06 348.73 175.946 349.304 175.831 349.878C174.912 352.979 173.763 356.08 172.615 359.067C172.27 359.871 171.926 360.675 172.5 361.479C172.73 361.823 172.5 362.053 172.155 362.283C171.236 362.742 170.318 362.742 169.514 362.053C169.169 361.823 168.939 361.594 168.595 361.364C167.331 360.33 167.331 360.33 168.365 359.182C168.595 358.837 168.939 358.607 169.054 358.263C169.973 356.884 169.858 356.54 168.595 355.506C167.906 355.047 167.331 354.472 166.642 354.013C165.494 353.094 164.46 353.554 164.115 355.047C163.886 356.655 163.082 356.999 161.703 356.195C159.521 355.047 159.521 354.702 161.474 353.324C164.575 351.142 167.446 348.615 170.777 346.777C171.236 346.547 171.351 346.203 171.466 345.743C171.581 344.595 172.385 344.135 173.534 344.48C174.797 344.939 176.175 346.662 176.175 348.385ZM173.074 348.385C172.959 348.27 172.844 348.27 172.844 348.155C171.926 348.844 170.892 349.534 169.973 350.108C167.102 352.175 167.102 352.175 170.088 354.013C170.088 354.013 170.203 354.013 170.203 354.128C170.662 354.472 171.007 354.358 171.236 353.783C171.811 351.946 172.385 350.223 173.074 348.385Z" fill="#7D1810"/>
<path d="M242.104 367.336C242.104 362.857 244.745 360.33 249.11 360.56C249.569 360.56 250.144 360.56 250.258 361.019C250.373 361.593 250.029 362.053 249.454 362.283C248.765 362.512 248.076 362.627 247.502 362.857C246.009 363.201 245.32 364.235 245.434 365.728C245.434 366.303 245.664 366.532 246.238 366.188C246.468 366.073 246.583 365.958 246.813 365.843C249.569 364.35 251.981 365.039 253.474 367.796C254.164 369.059 254.508 370.552 254.508 372.045C254.393 374.572 252.9 376.41 250.603 377.099C248.191 377.788 246.009 376.984 244.516 374.917C242.908 372.505 242.218 369.978 242.104 367.336ZM251.177 372.39C251.062 371.241 250.603 369.863 249.914 368.6C249.34 367.796 248.65 367.336 247.617 367.566C246.583 367.911 246.238 368.715 246.353 369.633C246.468 371.127 246.813 372.505 247.732 373.768C248.306 374.572 248.995 375.261 250.029 374.917C251.062 374.687 251.177 373.768 251.177 372.39Z" fill="#7D1810"/>
<path d="M326.754 279.7C325.72 279.7 324.686 279.7 323.652 279.7C323.193 279.7 322.734 279.7 322.389 280.045C321.355 280.619 320.436 280.16 320.322 279.011C320.207 277.863 320.666 276.829 321.126 275.795C321.24 275.451 321.47 275.451 321.815 275.565C322.159 275.68 322.389 275.795 322.734 275.91C325.146 276.829 325.72 276.484 326.294 274.072C326.409 273.498 326.639 272.924 326.754 272.349C327.098 270.971 326.294 270.052 324.801 270.397C323.423 270.741 322.848 270.282 322.963 268.789C323.078 266.147 323.423 265.917 325.72 267.411C328.821 269.478 332.152 271.201 335.138 273.498C335.483 273.843 335.942 273.843 336.402 273.728C337.665 273.383 338.239 273.957 338.354 275.221C338.469 277.173 336.976 279.011 335.023 279.241C332.152 279.471 329.51 279.7 326.754 279.7ZM330.774 276.255C331.463 276.255 332.496 276.14 333.645 276.025C333.875 276.025 334.219 275.91 334.219 275.68C334.334 275.451 334.104 275.336 333.875 275.221C332.496 274.302 331.118 273.383 329.625 272.464C329.166 272.12 328.821 272.349 328.706 272.809C328.591 273.153 328.476 273.383 328.476 273.728C327.902 276.255 327.902 276.255 330.774 276.255Z" fill="#7D1810"/>
<path d="M115.989 277.403C118.516 277.403 121.043 276.944 123.455 276.025C124.489 275.68 125.408 275.106 126.097 274.302C127.59 272.579 126.671 269.937 124.374 269.593C121.158 269.018 118.172 269.937 115.185 271.201C114.726 271.43 114.496 271.775 114.381 272.234C113.922 273.383 113.003 273.498 112.199 272.579C111.625 271.775 111.51 270.741 111.395 269.823C111.395 269.478 111.625 269.248 112.084 269.248C114.611 269.133 117.023 268.1 119.55 267.64C121.273 267.296 123.11 267.066 124.948 267.41C127.13 267.87 128.394 269.363 128.968 271.43C129.657 273.498 129.542 275.45 127.934 277.173C126.556 278.552 124.948 279.471 123.11 279.93C121.502 280.275 119.78 280.619 118.172 280.964C117.368 281.078 116.678 281.423 116.564 282.227C116.449 282.801 115.989 282.801 115.645 282.572C114.841 282.227 114.381 281.653 114.037 280.849C113.807 280.16 113.692 279.471 113.462 278.781C113.003 277.403 113.003 277.403 114.611 277.403C114.956 277.403 115.415 277.403 115.989 277.403Z" fill="#7D1810"/>
<path d="M321.354 316.569C321.354 320.475 317.679 323.461 313.889 322.657C311.362 322.083 309.294 320.704 307.112 319.326C306.193 318.752 305.274 317.603 303.896 318.637C303.551 318.867 303.322 318.407 303.207 318.063C302.747 317.029 302.977 316.11 303.551 315.306C304.93 312.894 304.93 312.894 306.882 314.732C308.835 316.455 310.902 317.948 313.314 318.981C314.348 319.441 315.267 319.671 316.415 319.556C317.564 319.441 318.368 318.867 318.827 317.833C319.287 316.799 319.172 315.88 318.483 314.961C316.415 312.435 313.659 310.941 310.787 309.793C310.443 309.678 309.983 309.678 309.639 309.908C309.294 310.137 308.95 310.597 308.49 310.023C308.031 309.563 307.801 308.989 308.031 308.3C308.261 307.496 308.835 306.807 309.294 306.117C309.524 305.773 309.869 305.773 310.098 306.117C311.362 307.496 313.085 308.185 314.578 308.989C316.301 310.023 318.138 311.056 319.517 312.549C320.665 313.698 321.354 314.961 321.354 316.569Z" fill="#7D1810"/>
<path d="M277.823 345.399C280.35 345.513 281.728 346.892 282.647 348.844C283.566 350.912 282.992 352.635 281.613 354.243C281.269 354.587 280.924 354.817 280.58 355.161C280.12 355.621 279.201 355.506 279.431 356.425C279.661 357.344 281.039 358.607 281.843 358.722C283.221 358.837 283.566 359.526 282.877 360.789C282.188 361.938 281.039 362.512 280.005 363.201C279.661 363.546 279.431 363.087 279.316 362.742C277.823 359.411 275.067 356.999 273.114 353.898C272.54 353.094 271.736 352.52 270.817 352.175C269.898 351.831 269.668 351.141 270.128 350.452C272.195 347.811 274.722 345.973 277.823 345.399ZM274.722 349.648C274.722 350.108 274.837 350.452 275.067 350.797C275.641 351.831 276.33 352.635 277.249 353.439C277.708 353.898 278.283 354.243 278.972 353.898C279.661 353.553 280.005 352.979 280.005 352.175C280.12 350.682 278.512 348.615 277.134 348.27C275.871 347.925 274.722 348.615 274.722 349.648Z" fill="#7D1810"/>
<path d="M344.671 232.494C344.671 233.757 344.671 235.136 344.671 236.399C344.671 236.973 345.015 238.007 343.752 237.892C342.489 237.777 341.57 236.858 341.799 235.825C342.144 234.676 342.374 233.528 342.374 232.379C342.374 231.23 341.914 230.886 340.881 230.886C338.469 230.771 338.354 230.886 338.239 233.298C338.239 233.987 338.239 234.561 338.354 235.25C338.354 235.825 338.124 235.94 337.55 235.825C336.861 235.595 336.401 235.136 336.286 234.446C336.171 234.102 336.171 233.757 336.171 233.298C336.171 230.312 336.286 230.771 333.53 230.656C330.543 230.656 330.543 230.656 330.314 233.757C330.199 234.676 330.314 235.595 330.314 236.399C330.314 237.433 329.969 237.662 329.05 237.203C328.476 236.973 328.131 236.514 328.131 235.825C327.787 232.953 327.902 230.082 327.902 227.21C327.902 226.292 328.706 226.521 329.165 226.636C332.955 227.096 336.746 227.096 340.536 227.21C341.34 227.21 342.144 227.21 342.489 226.406C342.603 226.062 342.948 226.062 343.293 226.177C343.867 226.406 344.326 226.751 344.326 227.44C344.441 228.359 344.441 229.393 344.441 230.426C344.671 231.001 344.671 231.805 344.671 232.494Z" fill="#7D1810"/>
<path d="M307.342 124.758C306.423 124.758 305.964 124.069 305.39 123.494C303.552 121.657 303.552 121.657 301.484 123.265C299.072 125.102 299.072 125.102 300.91 127.514C301.484 128.318 302.059 129.237 302.863 129.812C303.552 130.386 303.322 130.73 302.518 130.96C301.714 131.19 301.025 131.19 300.451 130.501C298.613 128.318 296.89 126.021 295.282 123.724C294.938 123.265 295.052 123.035 295.627 122.805C298.958 121.427 301.37 118.441 304.471 116.718C305.39 116.258 305.734 115.225 306.079 114.306C306.423 113.042 307.342 112.813 308.261 113.732C308.72 114.191 309.18 114.765 309.639 115.339C311.133 117.292 312.626 119.36 314.234 121.312C314.923 122.116 314.578 122.576 313.774 122.805C312.281 123.265 311.132 122.346 310.903 120.853C310.788 119.589 309.754 119.015 309.065 118.211C308.95 118.096 308.721 118.096 308.491 118.211C308.376 118.211 308.261 118.326 308.146 118.441C305.275 120.623 305.275 119.934 307.342 122.69C307.572 123.035 307.802 123.265 308.031 123.494C308.261 123.724 308.606 123.954 308.376 124.298C308.146 124.643 307.687 124.643 307.342 124.758Z" fill="#7D1810"/>
<path d="M337.09 183.794C336.975 183.794 336.975 183.794 336.86 183.794C334.448 184.139 334.219 184.484 334.793 186.896C334.908 187.355 335.138 187.929 335.252 188.389C335.367 188.733 335.482 189.078 335.138 189.308C334.793 189.537 334.563 189.422 334.219 189.308C333.185 188.963 332.955 188.159 332.726 187.24C332.036 184.484 332.036 184.943 329.739 185.517C326.523 186.206 326.523 186.321 327.212 189.537C327.442 190.456 327.787 191.375 328.016 192.294C328.246 192.983 328.016 193.213 327.327 193.098C326.294 192.983 325.604 192.294 325.375 191.375C324.686 188.848 324.226 186.321 323.537 183.794C323.422 183.105 323.652 182.876 324.341 182.876C328.361 182.531 332.036 181.268 335.942 180.464C336.401 180.349 336.86 180.119 337.09 179.545C337.55 178.626 338.354 178.511 339.043 179.2C339.387 179.545 339.617 180.119 339.732 180.578C340.421 183.335 340.995 186.092 341.684 188.848C341.799 189.193 342.029 189.652 341.57 189.997C341.11 190.341 340.651 190.226 340.191 190.112C338.813 189.652 338.354 188.504 338.928 187.24C339.387 185.862 338.239 183.68 337.09 183.794Z" fill="#7D1810"/>
<path d="M123.11 211.475C122.996 212.968 122.881 214.461 122.766 215.954C122.766 216.758 122.421 216.988 121.617 216.873C117.827 216.184 114.037 216.184 110.246 215.84C109.557 215.725 108.983 215.84 108.524 216.414C108.179 216.758 107.949 217.218 107.26 216.873C106.686 216.529 106.341 216.069 106.341 215.38C106.341 214.576 106.456 213.657 106.456 212.853C106.571 210.556 106.801 208.259 106.916 205.962C106.916 204.928 107.49 204.813 108.294 205.273C109.672 205.962 110.017 207.34 109.098 208.604C108.409 209.637 108.524 210.786 108.868 211.82C109.213 212.624 110.246 212.394 110.936 212.394C112.544 212.509 112.658 212.279 112.773 210.671C112.773 209.982 112.773 209.408 112.773 208.718C112.773 208.259 112.658 207.685 113.233 207.685C113.807 207.57 114.381 207.914 114.611 208.604C114.841 209.408 114.956 210.326 114.956 211.13C114.841 212.279 115.3 212.853 116.564 212.853C117.368 212.853 118.057 212.968 118.861 213.083C120.354 213.198 120.698 212.853 120.698 211.36C120.813 209.982 120.698 208.604 120.813 207.225C120.813 206.881 120.698 206.536 121.043 206.306C121.388 206.077 121.732 206.306 122.077 206.421C122.881 206.881 123.225 207.57 123.225 208.489C123.225 209.408 123.11 210.441 123.11 211.475Z" fill="#7D1810"/>
<path d="M128.394 179.2C128.165 181.727 127.246 184.024 125.178 185.862C124.26 186.666 123.685 186.551 122.996 185.517C122.652 185.058 122.537 184.484 122.537 183.909C122.537 183.22 122.652 182.761 123.57 182.761C124.604 182.876 125.408 182.416 125.753 181.268C126.097 180.349 126.212 179.315 125.408 178.511C124.604 177.822 123.685 178.166 122.881 178.741C121.733 179.43 120.584 180.234 119.436 181.038C118.632 181.612 117.828 182.072 117.024 182.416C114.267 183.45 111.855 181.957 111.625 178.97C111.396 176.214 112.544 174.146 114.497 172.424C114.612 172.309 114.726 172.309 114.841 172.194C115.186 171.964 115.416 172.194 115.645 172.424C116.334 173.228 116.564 174.261 116.334 175.295C116.22 175.64 115.99 175.869 115.645 175.754C114.726 175.525 114.267 176.099 114.037 176.788C113.693 177.592 113.693 178.396 114.382 179.085C115.071 179.66 115.76 179.315 116.449 178.97C117.828 178.052 119.206 177.133 120.584 176.099C121.044 175.869 121.388 175.525 121.848 175.295C123.341 174.376 124.834 174.032 126.442 174.95C127.935 175.869 128.394 177.362 128.394 179.2Z" fill="#7D1810"/>
<path d="M105.998 223.19C105.998 221.008 105.998 221.008 107.95 221.582C111.511 222.731 115.071 223.42 118.517 224.798C119.551 225.143 120.47 225.602 121.388 226.062C122.192 226.521 122.767 227.21 122.652 228.244C122.537 229.163 121.848 229.622 121.044 229.852C117.713 230.886 114.382 231.92 110.936 232.953C109.903 233.298 108.869 233.528 108.295 234.561C107.95 235.136 107.491 234.791 107.146 234.561C106.342 233.987 105.883 231.23 106.342 230.426C106.572 230.082 106.916 230.197 107.261 230.082C110.707 229.852 113.808 228.474 117.024 227.44C117.254 227.325 117.598 227.325 117.598 226.981C117.598 226.636 117.254 226.636 117.024 226.521C114.727 225.947 112.544 225.258 110.247 224.684C109.328 224.454 108.524 224.569 108.18 225.717C107.95 226.521 107.491 226.292 107.031 226.062C105.883 225.373 106.112 224.109 105.998 223.19Z" fill="#7D1810"/>
<path d="M290.688 335.291C290.573 336.325 290.458 337.244 288.965 337.359C287.817 337.473 287.357 338.622 286.783 339.426C286.553 339.771 286.783 340 287.013 340.23C289.425 342.642 288.736 342.987 291.262 340.345C291.377 340.23 291.492 340 291.722 339.885C292.066 339.656 292.181 338.852 292.756 339.196C293.33 339.541 293.56 340.345 293.1 340.919C292.756 341.608 292.296 342.297 291.722 342.757C291.033 343.446 291.033 344.02 291.722 344.709C292.411 345.399 292.985 346.088 293.56 346.777C294.249 347.696 294.823 347.581 295.627 346.892C296.89 345.858 297.924 344.824 298.843 343.561C299.073 343.331 299.188 342.757 299.647 342.872C299.992 342.987 300.106 343.446 300.221 343.791C300.566 344.595 300.336 345.399 299.762 345.973C297.809 347.811 295.857 349.533 293.904 351.371C293.33 351.831 293.1 351.601 292.756 351.141C290.458 348.385 287.702 345.973 285.06 343.561C284.486 343.101 284.026 342.527 282.993 342.757C282.418 342.987 281.844 341.838 282.074 341.034C282.189 340.575 282.648 340.23 282.993 339.885C285.06 338.048 287.013 336.21 289.08 334.372C289.425 334.142 289.654 333.683 290.114 333.798C290.688 334.257 290.573 334.832 290.688 335.291Z" fill="#7D1810"/>
<path d="M188.924 82.3755C189.039 77.4366 192.829 74.1057 197.309 75.0246C198.572 75.2543 198.802 75.8286 197.998 76.8623C197.194 77.896 196.735 77.896 195.471 77.3217C194.667 76.8623 193.978 77.3217 193.404 77.896C192.715 78.4703 192.485 79.3892 192.485 80.1932C192.255 82.9497 193.059 85.4766 194.897 87.5441C196.39 89.3818 198.457 89.6115 200.295 88.2332C200.64 88.0035 200.869 87.7738 201.099 87.5441C201.444 87.3143 201.788 86.74 202.248 87.0846C202.707 87.4292 202.707 88.0035 202.592 88.4629C202.363 89.3818 201.788 89.956 201.099 90.5303C198.343 92.5978 194.323 92.3681 191.911 89.8412C189.958 87.6589 188.924 85.2469 188.924 82.3755Z" fill="#7D1810"/>
<path d="M196.505 373.654C197.538 373.883 198.228 373.309 198.572 372.275C199.376 369.634 200.295 367.107 200.984 364.465C201.444 362.972 200.869 362.398 199.376 362.168C198.917 362.168 197.998 362.283 197.998 361.823C197.883 361.134 198.687 360.904 199.261 360.675C200.18 360.215 201.214 360.445 202.133 360.56C203.052 360.675 203.856 360.904 204.774 360.904C205.693 360.904 205.693 361.249 205.464 361.938C204.43 365.269 203.396 368.6 202.362 371.816C202.248 372.275 202.018 372.85 201.903 373.309C201.673 374.687 202.018 375.262 203.281 375.721C203.626 375.836 204.315 375.836 204.315 376.41C204.315 376.984 203.741 377.329 203.281 377.444C202.707 377.674 202.133 377.444 201.558 377.329C199.491 376.755 197.424 376.066 195.356 375.376C194.897 375.262 194.208 375.262 194.208 374.572C194.208 373.998 194.897 373.654 195.471 373.539C195.93 373.539 196.16 373.654 196.505 373.654Z" fill="#7D1810"/>
<path d="M135.056 324.265C134.022 324.265 133.448 323.92 132.989 323.116C131.84 321.279 130.806 319.326 129.658 317.373C129.198 316.569 129.658 316.34 130.232 316.11C133.678 314.502 137.009 312.435 140.11 310.252C140.684 309.908 141.143 309.563 141.143 308.759C141.143 307.955 142.407 307.725 143.211 308.415C144.13 309.219 144.589 310.252 145.049 311.286C145.278 311.86 144.934 311.975 144.474 312.205C141.029 313.698 137.927 315.995 134.711 317.833C133.333 318.637 133.218 319.096 134.022 320.475C134.482 321.393 135.171 322.197 135.86 322.887C136.09 323.116 136.549 323.346 136.434 323.691C136.319 324.035 135.86 323.92 135.515 324.035C135.171 324.265 135.056 324.265 135.056 324.265Z" fill="#7D1810"/>
<path d="M274.837 103.05C274.148 103.05 273.689 102.705 273.114 102.361C271.391 101.212 269.669 99.9486 267.946 98.8C267.257 98.3406 267.257 97.996 267.831 97.5366C269.094 96.388 270.013 95.1246 270.817 93.6314C271.621 92.2532 272.54 90.8749 273.574 89.7263C274.378 88.8074 274.722 87.6589 274.608 86.3954C274.493 85.132 275.297 84.5577 276.445 84.9023C277.479 85.2469 278.283 86.0509 279.202 86.74C279.776 87.0846 279.317 87.4291 278.972 87.7737C276.56 90.6451 274.722 93.8611 272.54 96.9623C271.506 98.4554 271.621 98.9149 273.114 99.8337C274.033 100.523 274.952 100.982 276.101 101.327C276.33 101.442 276.79 101.327 276.79 101.786C276.79 102.131 276.445 102.246 276.216 102.361C275.986 102.82 275.526 103.05 274.837 103.05Z" fill="#7D1810"/>
<path d="M231.766 366.532C230.617 366.647 229.124 366.762 227.631 367.221C226.712 367.566 226.597 367.107 226.712 366.303C226.942 364.809 227.516 364.12 229.124 363.891C231.651 363.661 234.293 363.546 236.819 363.316C237.509 363.316 237.738 363.546 237.509 364.235C235.556 369.289 233.603 374.343 231.651 379.396C231.421 379.971 231.077 380.43 230.387 380.545C229.813 380.66 229.239 380.775 228.894 380.315C228.55 379.856 228.894 379.511 229.124 379.052C230.502 375.376 231.881 371.816 233.259 368.14C233.833 366.647 233.718 366.532 231.766 366.532Z" fill="#7D1810"/>
<path d="M207.991 88.348C206.957 88.4629 207.072 87.6589 206.957 87.0846C206.727 83.9834 205.923 80.9972 204.889 78.0109C204.545 76.9772 204.085 76.0583 203.396 75.1394C202.592 74.1057 202.822 72.9572 204.085 72.3829C205.004 71.9234 206.038 71.9234 207.072 71.6937C207.646 71.5789 207.761 72.0383 207.761 72.4977C207.646 76.0583 209.254 79.3892 209.713 82.8349C209.828 83.8686 210.403 84.6726 211.092 85.3617C211.896 86.1657 211.781 87.0846 210.747 87.7737C209.943 88.1183 209.024 88.2332 207.991 88.348Z" fill="#7D1810"/>
<path d="M131.725 168.059C131.61 168.978 131.151 170.012 130.921 171.045C130.806 171.62 130.462 171.505 130.002 171.275C126.901 169.437 123.226 169.207 120.01 167.829C119.091 167.37 118.057 167.485 117.024 167.829C115.875 168.174 114.956 167.37 115.186 166.106C115.416 165.073 115.76 164.039 116.105 163.005C116.334 162.316 116.909 162.776 117.253 163.005C119.206 164.039 121.158 164.728 123.341 165.302C125.638 165.877 127.935 166.566 130.347 166.106C130.921 166.106 131.61 166.91 131.725 168.059Z" fill="#7D1810"/>
<path d="M120.01 242.257C117.023 242.487 114.037 242.716 110.936 242.946C110.247 242.946 109.673 243.176 109.328 243.865C108.983 244.554 108.524 244.439 108.065 244.095C107.031 243.52 106.342 240.764 107.031 239.73C107.261 239.385 107.605 239.385 108.065 239.385C111.625 239.73 115.071 238.696 118.517 238.811C119.435 238.811 120.125 238.467 120.929 237.892C121.962 237.088 122.996 237.433 123.341 238.696C123.57 239.615 123.57 240.419 123.57 241.338C123.57 241.912 123.226 242.142 122.537 242.142C121.618 242.257 120.814 242.372 120.01 242.257Z" fill="#7D1810"/>
<path d="M341.34 261.668C341.225 262.701 340.995 263.505 340.88 264.424C340.765 265.113 340.306 264.884 339.846 264.769C336.286 263.735 332.496 263.161 328.82 262.586C327.901 262.472 327.097 262.127 326.293 263.046C325.949 263.505 325.489 263.046 325.26 262.701C324.341 261.897 324.456 259.141 325.26 258.222C325.604 257.877 325.834 258.107 326.178 258.222C329.509 259.6 333.3 259.371 336.745 260.404C337.549 260.634 338.353 260.404 339.157 260.06C340.421 259.6 341.34 260.289 341.34 261.668Z" fill="#7D1810"/>
<path d="M320.436 133.142C321.01 133.142 321.47 133.372 321.814 133.832C322.274 134.636 322.848 135.554 323.307 136.358C323.537 136.818 323.422 137.162 322.963 137.277C319.517 138.196 316.875 140.838 313.545 142.216C312.626 142.561 312.051 143.365 311.592 144.284C311.018 145.317 310.329 145.547 309.41 144.743C308.491 143.939 308.146 142.79 307.572 141.872C307.342 141.412 307.687 141.297 308.031 141.182C311.707 139.804 314.808 137.392 318.254 135.669C318.943 135.325 319.517 134.865 319.517 134.061C319.402 133.372 319.862 133.142 320.436 133.142Z" fill="#7D1810"/>
<path d="M140.57 332.994C139.536 332.994 139.077 332.305 138.617 331.616C137.239 329.663 137.239 329.663 139.306 328.4C142.408 326.562 145.164 324.265 148.036 322.083C148.38 321.853 148.61 321.508 148.725 321.049C148.84 319.785 149.644 319.441 150.677 320.13C151.826 320.819 152.285 321.968 152.974 323.001C153.204 323.346 152.745 323.576 152.515 323.691C149.184 325.069 146.772 327.825 143.671 329.663C142.752 330.237 142.063 331.156 141.833 332.19C141.374 332.764 141.144 333.109 140.57 332.994Z" fill="#7D1810"/>
<path d="M339.847 219.86C337.665 219.86 335.482 219.974 333.3 220.319C332.381 220.434 331.577 220.778 330.773 221.123C329.739 221.697 328.591 221.238 328.361 220.089C328.131 219.17 328.246 218.252 328.361 217.333C328.476 216.529 329.05 216.644 329.51 216.758C332.611 217.103 335.712 216.988 338.813 216.644C340.077 216.414 341.34 216.184 342.489 215.61C343.637 215.036 344.441 215.495 344.671 216.758C344.671 216.873 344.671 216.873 344.671 216.988C345.015 220.089 344.901 220.204 341.914 220.089C341.11 219.86 340.421 219.86 339.847 219.86Z" fill="#7D1810"/>
<path d="M142.407 244.324C142.636 240.419 143.67 236.858 144.934 233.413C146.197 229.852 147.69 226.521 149.413 223.19C149.872 222.272 149.758 221.697 148.954 221.123C148.15 220.664 147.575 219.974 146.771 219.515C145.967 218.941 145.967 218.481 146.542 217.792C147.231 216.988 147.805 216.069 148.379 215.15C149.298 213.887 149.298 213.887 150.676 214.806C151.251 215.265 151.94 215.725 152.514 216.184C153.318 216.873 153.892 216.758 154.582 216.069C157.798 212.738 161.243 209.637 165.148 207.11C167.56 205.502 169.972 204.009 172.844 203.32C173.303 203.205 173.763 203.09 174.107 203.09C174.796 203.09 175.371 203.435 175.715 204.124C175.945 204.813 175.256 205.043 174.911 205.273C169.168 209.293 164.115 214.232 159.75 219.745C159.061 220.664 158.946 221.123 159.98 221.812C162.736 223.765 165.378 225.832 168.02 227.785C168.479 228.129 168.939 228.474 169.628 228.014C170.317 227.555 171.006 228.014 171.58 228.244C174.337 229.622 177.094 231.001 179.735 232.494C180.769 233.068 181.458 232.953 182.147 232.034C182.836 231.116 183.755 230.312 184.559 229.622C185.363 228.933 185.478 228.244 184.904 227.325C183.066 224.339 181.458 221.353 179.62 218.366C179.161 217.562 179.276 217.103 180.08 216.529C181.803 215.38 183.64 214.117 185.248 212.853C186.052 212.279 186.512 212.279 187.201 213.083C189.498 215.495 191.795 217.907 194.093 220.434C194.897 221.238 195.586 221.582 196.619 220.893C197.194 220.434 197.998 220.204 198.687 219.86C200.41 219.056 200.869 218.252 200.639 216.299C200.18 213.313 199.721 210.441 199.261 207.455C198.917 205.502 198.916 205.502 200.754 204.928C202.477 204.354 204.315 203.894 206.038 203.205C206.957 202.861 207.531 203.09 207.875 204.009C209.254 207.11 210.747 210.097 212.24 213.198C212.585 214.002 213.044 214.346 214.078 214.117C215.341 213.887 216.605 213.657 217.868 213.542C218.902 213.428 219.361 212.968 219.476 211.934C219.935 208.833 220.51 205.732 220.854 202.631C220.969 201.482 221.429 201.023 222.692 201.023C224.759 201.138 226.827 201.138 228.779 201.023C229.928 201.023 230.273 201.368 230.387 202.516C230.732 205.732 231.077 208.833 231.421 212.049C231.536 212.968 231.881 213.542 232.914 213.657C234.178 213.772 235.556 214.002 236.819 214.346C237.853 214.576 238.542 214.232 239.117 213.198C240.495 210.326 241.988 207.57 243.366 204.698C243.826 203.78 244.285 203.55 245.204 203.894C247.157 204.584 249.109 205.158 251.062 205.732C251.866 205.962 252.095 206.421 251.981 207.225C251.521 210.441 251.177 213.657 250.717 216.873C250.487 218.137 250.832 218.941 251.981 219.4C253.014 219.86 253.933 220.319 254.967 220.893C255.771 221.353 256.23 221.238 256.919 220.549C259.102 218.137 261.284 215.725 263.351 213.313C264.041 212.509 264.5 212.509 265.304 213.198C266.912 214.576 268.52 215.84 270.243 217.103C271.277 217.792 271.277 218.366 270.702 219.4C269.209 222.042 267.831 224.684 266.338 227.44C265.878 228.244 265.878 228.818 266.682 229.393C267.946 230.426 269.094 231.46 270.243 232.609C270.817 233.183 271.391 233.183 272.081 232.724C273.459 231.805 274.952 231.001 276.33 230.082C277.479 229.393 278.742 228.818 280.006 228.474C282.418 227.9 284.6 226.636 286.553 225.143C288.161 223.88 289.769 222.501 291.606 221.582C292.525 221.123 291.951 220.664 291.606 220.089C287.931 215.265 283.681 210.901 278.857 207.225C277.938 206.536 276.905 205.847 275.986 205.158C275.641 204.928 275.182 204.698 275.297 204.239C275.411 203.78 275.756 203.55 276.215 203.32C276.905 202.976 277.709 203.205 278.398 203.435C280.81 204.124 282.992 205.273 285.059 206.651C289.079 209.293 292.87 212.509 296.201 216.069C297.349 217.333 297.349 217.333 298.727 216.299C299.417 215.84 300.106 215.265 300.795 214.806C301.369 214.346 301.829 214.346 302.173 215.036C302.977 216.184 303.666 217.218 304.585 218.366C305.045 218.941 304.93 219.4 304.355 219.86C303.551 220.434 302.862 221.123 302.058 221.697C301.139 222.272 301.139 222.846 301.599 223.765C303.781 227.9 305.619 232.149 306.882 236.514C307.571 239.041 308.375 241.568 308.49 244.209C308.49 244.669 308.49 245.243 308.49 245.702C308.375 246.506 308.375 247.31 307.342 247.54C306.308 247.77 306.193 246.851 305.963 246.162C303.437 239.73 300.45 233.528 296.66 227.67C296.086 226.636 295.626 226.521 294.593 227.21C291.721 229.393 288.85 231.575 285.978 233.757C285.404 234.217 284.945 234.561 285.289 235.48C285.634 236.399 284.83 236.858 284.255 237.433C282.303 239.156 280.35 240.993 278.398 242.716C277.594 243.405 277.479 244.094 278.053 244.898C278.627 245.817 279.087 246.851 279.431 247.885C280.006 249.263 280.58 249.722 282.073 249.493C285.059 249.033 288.161 248.574 291.147 248.114C292.87 247.885 292.87 247.885 293.329 249.378C293.903 251.216 294.363 253.168 295.052 255.006C295.282 255.81 295.167 256.155 294.363 256.614C291.377 258.107 288.39 259.715 285.404 261.208C284.485 261.668 284.141 262.242 284.37 263.161C284.6 263.965 284.6 264.654 284.83 265.458C285.289 267.525 285.863 268.1 288.046 268.444C290.573 268.789 293.099 269.133 295.626 269.363C296.66 269.478 297.119 269.823 297.119 270.971C297.005 273.153 297.119 275.336 297.119 277.633C297.119 278.552 296.89 279.011 295.856 279.126C292.87 279.471 289.883 279.93 286.897 280.275C285.634 280.389 285.059 280.849 284.945 282.112C284.83 283.261 284.715 284.524 284.37 285.673C284.141 286.592 284.485 287.051 285.289 287.396C288.275 288.774 291.377 290.267 294.363 291.76C295.167 292.105 295.397 292.564 295.052 293.483C294.248 295.551 293.559 297.733 292.985 299.915C292.755 300.834 292.295 301.064 291.377 300.834C288.39 300.26 285.404 299.685 282.303 299.111C280.58 298.767 280.121 299.111 279.431 300.604V300.719C277.938 304.05 277.938 304.395 280.465 306.921C282.188 308.644 283.796 310.482 285.519 312.09C286.208 312.779 286.208 313.353 285.634 314.157C284.485 315.651 283.451 317.144 282.418 318.637C281.729 319.785 281.039 319.785 279.891 319.211C277.134 317.718 274.378 316.34 271.621 314.847C270.817 314.387 270.358 314.502 269.669 315.191C268.75 316.225 267.716 317.373 266.682 318.292C265.993 318.981 265.993 319.671 266.453 320.475C267.946 323.116 269.324 325.873 270.817 328.629C271.391 329.663 271.277 330.237 270.358 330.812C268.635 331.845 267.027 333.109 265.419 334.257C264.615 334.832 264.041 334.832 263.351 334.028C261.169 331.616 258.987 329.319 256.805 326.907C256.23 326.217 255.656 326.103 254.967 326.562C254.048 327.136 253.014 327.711 251.981 328.055C250.717 328.515 250.487 329.319 250.717 330.582C251.291 333.568 251.636 336.669 252.095 339.656C252.325 340.689 251.981 341.264 250.947 341.608C249.109 342.183 247.386 342.757 245.663 343.446C244.63 343.791 244.17 343.676 243.596 342.642C242.218 340 240.725 337.359 239.231 334.717C238.313 333.109 237.853 332.879 236.13 333.224C235.786 333.339 235.441 333.339 235.211 333.453C233.374 333.683 232.57 334.717 232.34 336.44C231.881 339.081 231.306 341.723 230.962 344.365C230.732 345.513 230.273 345.973 229.124 345.858C227.286 345.743 225.334 345.743 223.496 345.858C222.462 345.858 222.003 345.513 221.888 344.48C221.429 341.264 220.739 338.163 220.28 334.947C220.165 334.143 219.821 333.683 219.017 333.568C217.638 333.339 216.145 333.224 214.767 332.879C213.963 332.649 213.503 332.994 213.159 333.798C211.781 336.669 210.287 339.541 209.024 342.412C208.565 343.331 208.22 343.676 207.186 343.331C205.234 342.757 203.396 342.183 201.443 341.723C200.639 341.493 200.295 341.149 200.41 340.23C200.869 337.244 201.328 334.257 201.788 331.271C202.132 329.089 202.018 328.859 200.065 327.94C199.261 327.596 198.457 327.251 197.653 326.677C196.505 325.873 195.701 326.217 194.782 327.136C192.599 329.319 190.417 331.271 188.235 333.453C187.316 334.372 186.627 334.372 185.708 333.568C184.33 332.42 182.951 331.386 181.573 330.352C180.769 329.778 180.539 329.319 181.114 328.285C182.607 325.528 184.1 322.657 185.593 319.785C186.053 318.981 186.052 318.292 185.248 317.718C184.215 316.914 183.181 315.995 182.262 315.191C181.573 314.502 180.999 314.387 180.08 314.847C177.323 316.225 174.567 317.603 171.925 318.981C171.121 319.441 170.662 319.326 170.087 318.522C168.939 316.914 167.79 315.421 166.642 313.928C166.067 313.124 166.067 312.664 166.756 311.975C168.939 309.678 171.006 307.381 173.074 305.084C174.452 303.705 174.452 303.361 173.533 301.638C173.418 301.523 173.418 301.408 173.303 301.293C172.614 300.26 172.614 298.767 171.466 298.307C170.432 297.848 169.168 298.537 168.02 298.652C165.608 298.996 163.196 299.456 160.784 299.8C159.98 299.915 159.52 299.685 159.176 298.881C158.487 296.814 157.683 294.747 156.879 292.679C156.534 291.875 156.764 291.531 157.453 291.186C160.324 289.808 163.081 288.314 165.952 286.936C167.79 286.017 167.905 285.788 167.56 283.835C167.446 282.916 167.216 282.112 167.101 281.193C167.101 279.93 166.412 279.585 165.263 279.47C162.162 279.126 159.176 278.666 156.19 278.322C154.926 278.207 154.582 277.633 154.696 276.484C154.811 274.647 154.811 272.694 154.696 270.856C154.582 269.478 155.271 269.133 156.419 268.904C159.52 268.444 162.622 267.87 165.723 267.41C166.642 267.296 167.101 266.951 167.216 266.032C167.331 265.228 167.446 264.309 167.675 263.505C168.02 261.553 167.905 261.323 166.182 260.404C163.426 259.026 160.554 257.533 157.798 256.154C156.879 255.695 156.764 255.236 157.108 254.317C157.912 252.364 158.602 250.297 159.291 248.344C159.635 247.54 160.095 247.196 160.899 247.425C163.77 248 166.527 248.574 169.398 249.148C171.58 249.608 171.925 249.378 172.844 247.425C173.303 246.506 173.763 245.473 174.222 244.554C174.567 243.98 174.567 243.405 173.992 242.946C171.466 240.649 169.054 238.352 166.527 236.054C166.182 235.71 165.723 235.365 165.838 235.021C166.182 233.872 165.378 233.413 164.689 232.953C162.162 231.001 159.52 229.048 156.994 227.096C156.19 226.406 155.73 226.521 155.156 227.44C151.48 233.068 148.494 239.041 145.967 245.358C145.623 246.162 145.623 247.655 144.359 247.425C142.177 246.736 142.636 245.243 142.407 244.324ZM225.793 226.751C223.496 226.866 221.199 226.981 218.902 227.325C216.49 227.67 214.193 228.244 211.895 228.933C203.626 231.575 196.619 236.054 191.106 242.831C189.958 244.209 189.958 244.209 191.451 245.358C194.667 247.77 197.883 250.182 201.214 252.594C202.018 253.168 202.018 253.628 201.328 254.317C200.524 255.121 199.72 255.925 199.031 256.844C198.227 257.877 197.423 257.762 196.505 257.073C193.863 255.006 191.221 253.053 188.465 250.986C186.167 249.263 186.512 248.689 184.789 251.79C180.31 260.174 178.702 269.133 179.735 278.437C181.114 291.645 187.086 302.442 197.538 310.597C206.612 317.603 216.949 320.819 228.32 320.015C242.218 319.096 253.589 313.124 262.203 302.212C268.52 294.287 271.736 285.098 271.966 274.876C272.195 266.147 270.358 257.992 265.878 250.412C265.074 248.918 264.845 248.918 263.581 249.952C260.48 252.364 257.264 254.776 254.163 257.188C253.359 257.763 252.785 257.877 252.21 256.958C251.521 256.04 250.717 255.35 250.028 254.432C248.879 253.053 248.879 253.053 250.258 252.02C253.589 249.608 256.919 247.081 260.25 244.669C261.514 243.75 261.514 243.75 260.48 242.486C259.906 241.797 259.217 241.108 258.642 240.534C249.683 231.345 238.542 226.981 225.793 226.751Z" fill="#7D1810"/>
<path d="M235.786 173.917C235.671 177.362 236.36 180.693 237.739 183.794C238.313 185.173 239.117 186.092 240.38 186.666C243.826 188.274 247.157 189.882 250.717 191.145C250.947 191.26 251.177 191.26 251.407 191.375C252.096 191.605 252.67 191.949 252.44 192.753C252.096 193.672 251.407 193.213 250.832 193.098C241.759 190.341 232.57 188.963 223.152 189.193C215.686 189.422 208.45 190.571 201.329 192.638C198.572 193.442 198.113 193.098 198.687 190.112C199.376 186.436 200.984 183.105 202.477 179.774C204.775 174.491 207.646 169.437 210.517 164.498C210.862 163.809 211.321 163.235 212.125 163.12C212.47 163.12 212.815 162.89 212.815 162.546C212.815 162.086 212.47 161.972 212.125 161.857C211.092 161.627 210.058 161.397 209.024 161.168C207.416 160.708 205.808 160.134 204.315 159.33C203.511 158.87 203.396 158.411 203.741 157.607C204.085 157.033 204.2 156.344 204.545 155.654C206.038 151.864 205.693 148.189 203.396 144.743C201.099 141.412 199.376 137.852 198.917 133.832C198.113 126.825 200.18 120.508 204.66 115.11C210.403 107.874 217.983 104.313 227.287 104.773C228.895 104.888 230.388 105.232 231.766 105.806C232.111 105.921 232.8 106.151 232.685 106.61C232.57 107.07 231.996 106.84 231.651 106.955C228.665 107.185 225.793 107.759 223.037 108.907C217.064 111.434 213.848 116.029 212.929 122.346C212.125 128.433 213.044 134.291 214.537 140.034C214.767 140.838 215.112 140.953 215.916 140.608C219.361 139 220.625 136.244 219.476 132.338C218.213 128.433 218.328 124.413 219.247 120.508C221.084 112.698 228.091 108.333 236.245 109.826C241.759 110.86 245.779 113.961 249.339 118.096C251.062 120.164 252.67 122.346 254.163 124.643C254.852 125.792 254.852 125.791 253.474 125.906C251.981 126.021 250.488 126.021 248.995 126.136C248.076 126.136 247.846 126.596 248.305 127.4C248.995 128.663 249.684 129.926 250.373 131.19C250.947 132.338 251.407 133.487 251.292 134.865C251.177 136.129 251.636 137.277 252.325 138.311C253.359 140.034 254.508 141.642 255.197 143.594C256.116 146.121 255.427 147.04 252.785 147.155C251.636 147.155 251.292 147.614 251.521 148.763C251.866 150.716 251.521 152.553 250.603 154.161C250.143 154.965 250.028 155.769 250.028 156.573C250.258 160.019 248.65 161.627 245.204 161.857C243.367 161.972 241.644 161.742 239.806 161.397C238.772 161.168 238.313 161.512 237.968 162.431C236.705 166.106 235.786 169.897 235.786 173.917ZM239.576 135.669C240.036 134.176 241.069 133.257 242.333 132.568C244.056 131.649 245.893 131.649 247.846 132.224C248.191 132.338 248.65 132.683 248.995 132.338C249.339 131.994 248.995 131.42 248.765 131.075C248.191 130.041 247.501 129.008 246.812 127.974C246.238 126.94 245.434 126.71 244.285 126.94C239.576 128.089 235.212 129.697 231.307 132.568C229.469 133.946 228.55 135.669 228.665 137.966C228.78 144.054 230.043 149.912 233.489 155.08C233.948 155.769 234.178 156.229 233.259 156.803C228.78 159.445 224.071 161.397 218.787 161.857C216.605 161.972 214.997 163.005 213.733 164.613C213.044 165.417 213.044 165.992 213.848 166.796C217.524 170.471 221.314 174.146 225.449 177.362C228.32 179.66 231.421 181.842 234.523 183.794C234.867 184.024 235.327 184.484 235.671 184.254C236.131 183.909 235.671 183.45 235.671 182.99V182.876C233.719 175.41 234.178 168.174 237.164 161.168C237.853 159.56 237.853 159.56 239.461 160.019C241.414 160.593 243.367 161.168 245.319 160.823C247.042 160.478 248.191 159.56 248.191 157.837C248.076 155.884 249.339 154.046 248.65 152.094C248.535 151.864 248.88 151.634 248.995 151.52C249.913 150.83 250.028 149.797 249.799 148.763C249.454 147.155 249.684 146.81 251.292 146.466C253.589 146.006 254.163 145.088 253.015 142.905C252.325 141.527 251.407 140.264 250.717 139C250.028 137.852 249.339 136.703 249.454 135.21C249.454 134.865 249.684 134.406 249.454 134.176C248.995 133.946 248.65 134.291 248.191 134.521C247.157 135.21 246.812 136.244 246.697 137.507C246.583 138.196 246.468 139.115 245.549 138.541C244.63 137.852 244.171 138.196 243.481 138.77C243.252 139 243.022 139.115 242.677 139C242.448 138.77 242.448 138.426 242.563 138.196C242.677 137.277 243.367 136.818 244.056 136.358C244.745 135.899 245.549 135.554 246.123 134.865C246.697 134.291 246.583 133.832 245.779 133.717C244.63 133.487 243.481 133.717 242.448 134.291C241.644 134.636 240.725 135.44 239.576 135.669Z" fill="#7D1810"/>
<path d="M156.994 152.094C158.257 152.094 159.635 152.094 160.899 152.094C161.128 152.094 161.473 152.094 161.588 151.864C161.703 151.634 161.473 151.405 161.243 151.29C159.75 150.026 158.027 149.108 156.075 149.222C155.271 149.337 154.811 148.993 154.582 148.304C154.352 147.385 154.926 146.696 155.5 146.121C155.73 145.892 156.075 146.236 156.419 146.351C158.946 147.959 161.703 149.108 164.344 150.486C164.919 150.716 165.378 150.945 165.952 150.716C166.412 150.601 166.871 150.601 167.101 151.175C167.56 152.324 166.297 154.276 165.034 154.276C162.736 154.276 160.554 154.276 158.257 154.276C157.912 154.276 157.568 154.276 157.223 154.276C157.108 154.276 156.879 154.391 156.879 154.506C156.764 154.736 156.879 154.85 157.108 154.965C158.946 155.769 160.554 157.492 162.851 157.033C163.426 156.918 163.77 157.262 163.885 157.837C164 158.641 163.54 159.33 163.081 159.789C162.622 160.134 162.162 159.56 161.818 159.445C159.291 158.181 156.764 156.803 154.237 155.425C153.663 155.195 153.203 155.08 152.629 155.31C151.71 155.54 151.48 155.08 151.48 154.276C151.595 152.668 152.399 151.979 154.007 151.979C154.811 152.094 155.845 151.979 156.994 152.094Z" fill="#7D1810"/>
<path d="M304.241 165.877C304.241 168.174 302.633 169.667 300.566 169.093C299.647 168.863 299.417 169.208 299.073 169.897C298.498 171.39 297.35 172.424 295.742 172.653C294.134 172.883 292.756 172.194 291.952 170.93C291.148 169.437 290.688 167.829 290.229 166.221C289.999 165.647 290.229 165.302 290.803 165.302C293.56 164.843 295.857 163.35 298.384 162.661C299.188 162.431 299.762 161.972 300.336 161.397C301.14 160.478 301.829 160.478 302.518 161.512C303.667 162.776 304.012 164.498 304.241 165.877ZM294.823 170.012C296.661 170.012 298.384 167.944 298.269 166.106C298.269 165.417 297.809 165.532 297.35 165.647C296.201 166.106 295.168 166.451 294.019 166.91C293.33 167.255 292.526 167.485 292.756 168.518C292.985 169.667 293.674 170.126 294.823 170.012ZM301.025 166.796C302.174 166.796 302.518 166.106 302.633 165.302C302.633 164.613 302.289 164.039 301.485 164.154C300.681 164.269 299.762 164.498 299.877 165.532C299.877 166.451 300.336 166.91 301.025 166.796Z" fill="#7D1810"/>
<path d="M311.362 190.341C311.362 194.017 308.72 195.625 305.619 194.017C304.7 193.557 304.126 193.557 303.437 194.246C302.518 195.165 301.369 195.854 300.91 197.118C300.68 197.577 300.221 197.577 299.876 197.348C298.843 196.773 298.613 194.936 299.647 194.246C300.68 193.442 301.829 192.638 302.633 191.605C302.863 191.375 303.092 191.145 302.977 190.801C302.863 190.456 302.518 190.571 302.173 190.571C301.255 190.571 300.336 190.686 299.761 191.49C299.417 192.064 298.957 191.949 298.498 191.605C297.694 190.916 297.579 189.997 297.579 189.078C297.579 188.618 298.039 188.504 298.383 188.504C301.025 188.389 303.437 187.355 306.079 187.01C306.997 186.896 307.801 186.551 308.376 185.862C309.18 184.943 309.754 185.402 310.213 186.092C311.132 187.47 311.247 188.963 311.362 190.341ZM309.639 190.226C309.639 189.422 309.295 188.963 308.376 189.078C307.572 189.193 306.883 189.422 306.079 189.537C305.619 189.652 305.045 189.537 304.93 190.112C304.815 190.571 305.275 190.916 305.504 191.26C305.849 191.605 306.193 191.949 306.768 192.064C308.031 192.409 309.524 191.49 309.639 190.226Z" fill="#7D1810"/>
<path d="M300.91 184.598C297.464 184.598 295.282 182.99 294.937 180.119C294.708 178.511 295.167 177.133 296.316 176.099C298.728 173.917 301.484 172.998 304.7 173.687C308.376 174.491 309.754 178.741 307.342 181.612C305.619 183.794 303.322 184.484 300.91 184.598ZM303.552 176.099C301.714 176.214 299.532 176.788 297.694 178.166C297.005 178.741 296.43 179.43 296.775 180.349C297.005 181.268 297.694 181.727 298.613 181.842C298.957 181.842 299.302 181.957 299.761 181.957C301.599 181.842 303.437 181.382 305.16 180.349C306.538 179.545 306.997 178.626 306.768 177.592C306.423 176.558 305.504 176.099 303.552 176.099Z" fill="#7D1810"/>
<path d="M173.074 123.15C173.304 123.265 173.763 123.379 174.223 123.494C176.635 124.413 178.932 125.562 181.229 126.71C182.033 127.17 182.837 127.629 183.871 127.629C184.56 127.629 184.79 128.203 184.675 128.778C184.445 129.811 183.756 130.386 183.067 131.075C182.607 131.419 182.378 130.96 182.148 130.73C180.195 128.778 180.081 128.778 178.243 130.845C177.094 132.109 177.094 132.109 178.473 133.142C179.851 134.176 179.966 135.095 178.817 136.014C178.243 136.473 177.898 136.358 177.554 135.784C176.061 133.372 174.453 130.845 172.959 128.433C172.5 127.744 172.155 126.94 171.237 126.71C170.892 126.595 170.662 126.251 170.662 125.906C170.433 124.758 171.926 123.15 173.074 123.15ZM174.453 126.136C173.763 126.021 173.763 126.366 173.878 126.71C174.223 127.399 174.567 127.974 174.912 128.663C175.257 129.237 175.601 130.156 176.29 130.041C176.979 129.926 177.324 129.007 177.898 128.433C178.128 128.203 178.128 127.974 177.783 127.859C176.635 127.285 175.486 126.71 174.453 126.136Z" fill="#7D1810"/>
<path d="M298.957 153.357C298.842 154.046 298.498 154.391 298.153 154.85C296.315 157.033 294.133 158.985 292.066 160.938C291.606 161.397 291.032 161.857 290.917 162.431C290.687 163.235 290.113 163.12 289.539 162.89C288.62 162.431 288.39 161.512 288.046 160.593C287.931 160.249 288.275 160.134 288.505 160.019C288.965 159.789 289.309 159.674 289.769 159.445C290.687 158.985 291.032 158.181 290.458 157.262C290.343 157.033 290.228 156.803 289.998 156.458C288.965 154.506 288.735 154.506 287.242 155.999C286.782 156.573 286.208 156.458 285.749 156.114C285.174 155.654 284.715 155.08 284.715 154.276C284.715 153.932 285.174 153.932 285.404 153.817C288.275 153.128 291.262 152.553 294.133 151.864C294.822 151.749 295.511 151.634 295.971 151.06C296.775 150.256 297.464 150.486 297.923 151.29C298.383 151.979 298.842 152.553 298.957 153.357ZM295.397 153.357C294.478 153.587 293.559 153.702 292.525 153.932C290.802 154.276 290.687 154.506 291.606 155.999C291.721 156.229 291.836 156.458 292.066 156.573C292.295 156.918 292.64 156.918 292.87 156.573C293.789 155.654 294.822 154.85 295.397 153.357Z" fill="#7D1810"/>
<path d="M152.629 192.179C152.514 193.787 151.825 195.395 150.447 196.658C150.102 197.003 149.757 197.233 149.298 196.888C148.724 196.429 148.379 195.854 148.379 195.05C148.379 194.476 148.839 194.476 149.298 194.361C150.447 194.017 151.021 192.868 150.791 191.834C150.561 190.916 149.643 190.571 148.609 191.145C147.69 191.72 146.771 192.409 145.852 192.983C145.163 193.442 144.589 193.902 143.9 194.132C141.258 195.28 139.076 193.672 139.076 190.916C139.076 189.422 139.765 188.274 140.684 187.125C140.913 186.781 141.258 186.436 141.717 186.781C142.292 187.125 142.636 187.7 142.636 188.389C142.636 188.848 142.521 189.193 142.062 189.308C141.258 189.422 141.028 189.882 140.913 190.571C140.913 191.145 140.913 191.605 141.488 191.949C142.177 192.294 142.636 191.949 143.211 191.605C144.589 190.686 145.852 189.652 147.231 188.733C148.379 187.929 149.643 187.7 150.906 188.389C152.169 189.193 152.744 190.341 152.629 192.179Z" fill="#7D1810"/>
<path d="M154.582 162.776C154.467 163.12 154.352 163.58 154.122 164.039C153.778 164.843 154.008 165.302 154.812 165.532C158.028 166.796 157.913 167.6 159.406 163.694C159.406 163.58 159.521 163.465 159.521 163.35C159.75 162.89 159.636 162.086 160.44 162.316C161.129 162.546 161.358 163.235 161.244 163.924C160.899 165.073 160.44 166.106 160.095 167.14C159.75 168.059 159.636 169.437 158.832 169.782C157.913 170.241 156.994 169.093 156.075 168.748C153.893 167.944 151.71 167.025 149.528 166.221C148.954 165.992 148.38 165.992 147.69 165.992C146.886 165.992 146.542 165.647 146.772 164.843C147.576 162.661 148.494 160.478 149.298 158.296C149.528 157.837 149.758 157.837 150.217 158.066C151.136 158.756 151.366 159.674 150.562 160.593C150.332 160.823 149.988 161.053 149.873 161.397C149.298 162.316 149.528 163.235 150.332 163.694C151.94 164.613 152.285 164.498 152.859 163.12C152.974 162.776 153.089 162.546 153.204 162.201C153.318 161.857 153.433 161.282 154.008 161.512C154.352 161.742 154.582 162.086 154.582 162.776Z" fill="#7D1810"/>
<path d="M277.135 124.528C276.446 124.643 275.987 124.184 275.757 123.724C275.527 123.38 275.412 122.92 275.183 122.576C274.838 122.116 274.378 121.427 273.574 121.657C272.77 121.886 272.196 122.575 271.737 123.379C271.622 123.609 271.852 123.954 271.966 124.183C272.426 124.643 272.885 124.988 273.23 125.447C273.46 125.677 274.034 125.906 273.804 126.251C273.574 126.71 273.115 126.71 272.656 126.71C271.966 126.595 271.507 126.021 270.933 125.562C270.358 125.102 269.899 125.102 269.325 125.677C266.798 127.974 266.798 128.548 269.325 130.616C269.44 130.73 269.554 130.73 269.554 130.845C269.784 131.19 270.703 131.305 270.244 131.994C269.899 132.568 269.095 132.568 268.521 132.223C268.176 131.994 267.717 131.764 267.487 131.42C266.453 130.386 265.42 129.237 264.386 128.203C263.926 127.744 263.812 127.285 264.386 126.825C266.683 124.988 268.636 122.69 270.703 120.508C271.048 120.163 271.277 119.704 271.277 119.245C271.277 118.211 272.081 117.751 272.771 118.326C274.608 119.934 276.331 121.657 277.824 123.609C278.743 124.413 277.48 124.298 277.135 124.528Z" fill="#7D1810"/>
<path d="M149.069 185.747C147.116 185.747 144.934 184.828 143.211 182.761C141.374 180.578 141.488 177.707 143.671 175.869C144.015 175.525 144.475 174.95 144.934 175.754C145.279 176.329 145.853 176.903 145.049 177.592C144.475 178.051 143.556 178.052 143.671 179.085C143.786 180.234 144.475 180.923 145.394 181.497C146.887 182.416 148.495 182.876 150.218 182.99C152.515 183.105 153.663 181.842 153.548 179.545C153.548 179.2 153.204 178.626 153.778 178.511C154.352 178.281 154.697 178.741 154.927 179.2C155.386 179.774 155.386 180.578 155.386 181.268C155.156 184.024 152.974 185.747 149.069 185.747Z" fill="#7D1810"/>
<path d="M158.028 142.561C158.028 141.871 158.372 141.297 158.717 140.838C159.866 139.115 161.014 137.392 162.278 135.669C162.507 135.439 162.622 134.865 163.082 135.095C163.541 135.325 163.656 135.784 163.656 136.243C163.656 136.933 163.196 137.507 162.852 138.081C162.507 138.656 162.622 139.115 163.196 139.46C165.723 141.068 167.906 143.135 170.892 143.939C171.696 144.169 171.926 144.858 171.466 145.662C171.236 146.006 170.892 146.351 170.662 146.696C170.203 147.27 169.858 147.385 169.284 146.81C167.102 144.973 164.46 143.48 162.163 141.872C161.244 141.182 160.555 141.297 159.98 142.331C159.866 142.561 159.751 142.79 159.521 143.02C159.291 143.365 159.176 144.054 158.602 143.824C158.028 143.594 158.028 143.02 158.028 142.561Z" fill="#7D1810"/>
<path d="M280.121 126.136C280.695 126.136 281.269 126.481 281.614 126.94C283.222 128.778 284.715 130.615 286.208 132.453C286.782 133.142 286.438 133.372 285.749 133.487C285.06 133.602 284.485 133.142 284.026 132.683C282.762 131.534 282.762 131.534 281.499 132.568C280.121 133.717 278.742 134.98 277.249 136.129C276.56 136.703 275.871 137.277 275.756 138.311C275.756 138.426 275.641 138.655 275.526 138.77C274.378 139.345 273.804 138.311 273.229 137.737C272.77 137.277 272.081 136.703 273.114 136.129C275.641 134.521 277.709 132.453 280.006 130.616C281.154 129.697 281.154 129.237 280.121 128.089C279.891 127.859 279.661 127.629 279.432 127.4C279.202 127.17 278.857 126.94 279.087 126.596C279.432 126.251 279.776 126.136 280.121 126.136Z" fill="#7D1810"/>
<path d="M284.485 152.783C283.796 152.783 283.337 152.324 282.992 151.749C282.303 150.601 281.614 149.337 280.81 148.189C280.35 147.5 280.58 147.04 281.269 146.696C282.303 146.121 283.337 145.547 284.37 144.973C286.438 143.824 288.39 142.446 289.998 140.723C290.802 139.804 291.377 139.919 292.066 140.953C292.181 141.182 292.296 141.412 292.41 141.642C293.1 142.446 292.87 143.02 291.951 143.48C289.424 144.858 287.127 146.466 284.6 147.959C283.566 148.533 283.452 149.222 284.026 150.026C284.37 150.486 284.715 151.06 285.06 151.52C285.289 151.749 285.749 151.979 285.519 152.438C285.289 152.668 284.83 152.668 284.485 152.783Z" fill="#7D1810"/>
<path d="M166.297 130.501C166.642 130.501 166.757 130.73 166.986 130.96C168.824 132.798 171.006 134.291 173.074 135.899C173.878 136.473 174.567 137.162 175.715 137.162C176.405 137.162 176.634 137.622 176.634 138.196C176.519 139.23 175.83 139.804 175.026 140.493C174.682 140.723 174.452 140.493 174.222 140.263C172.155 138.196 169.743 136.588 167.446 134.75C166.871 134.291 166.297 133.831 165.493 133.946C165.149 133.946 164.919 133.832 164.689 133.487C164.23 132.683 165.493 130.501 166.297 130.501Z" fill="#7D1810"/>
<path d="M157.223 174.606C157.108 174.95 156.994 175.295 156.879 175.754C156.649 176.444 156.304 176.558 155.615 176.214C153.318 175.065 150.906 174.376 148.494 173.572C147.46 173.227 146.312 172.768 145.163 172.883C144.244 172.998 144.015 172.424 144.244 171.62V171.505C144.704 169.322 144.704 169.322 146.771 170.126C149.758 171.39 152.859 172.538 156.075 173.228C156.994 173.572 157.223 173.802 157.223 174.606Z" fill="#7D1810"/>
<path d="M297.349 165.762C297.809 165.647 298.153 165.532 298.268 166.221Z" fill="#030303"/>
<path d="M301.025 166.796C300.336 166.796 299.876 166.336 299.876 165.532Z" fill="#030303"/>
<path d="M188.006 286.132C189.384 284.294 190.877 282.457 192.256 280.619C194.093 278.207 196.046 275.91 197.769 273.498C198.458 272.579 199.262 272.12 200.296 272.234C204.201 272.234 208.106 272.234 212.126 272.234C213.389 272.234 213.734 271.775 213.734 270.626C213.734 260.174 213.734 249.722 213.734 239.385C213.734 237.548 213.734 237.548 215.572 237.548C222.118 237.548 228.78 237.548 235.327 237.548C237.05 237.548 237.05 237.548 237.05 239.385C237.05 249.837 237.05 260.289 237.05 270.626C237.05 272.579 237.05 272.579 239.003 272.579C242.793 272.579 246.583 272.579 250.259 272.579C251.867 272.579 253.015 273.153 253.934 274.417C256.576 278.092 259.332 281.653 261.974 285.328C262.204 285.673 262.778 286.017 262.548 286.477C262.319 286.936 261.744 286.706 261.285 286.706C253.934 286.706 246.698 286.706 239.347 286.706C237.854 286.706 237.509 287.051 237.624 288.544C237.739 289.233 237.969 289.578 238.658 289.233C239.921 288.429 240.496 289.004 241.185 290.037C245.09 295.206 248.995 300.375 252.785 305.543C253.13 306.003 253.704 306.347 253.36 307.036C252.9 307.955 252.096 308.07 251.522 307.266C248.995 304.05 246.468 300.949 243.941 297.733C243.597 297.273 243.252 296.584 242.448 297.273C241.759 297.848 241.989 298.422 242.333 298.996C243.941 301.064 245.435 303.131 247.043 305.313C247.847 306.462 248.765 307.496 249.569 308.644C249.914 309.104 250.488 309.563 249.569 310.137C248.88 310.597 248.421 310.827 247.732 309.908C245.434 306.807 243.023 303.705 240.611 300.604C239.232 298.767 237.739 296.929 236.361 295.091C235.786 294.402 235.097 293.943 234.179 294.287C233.374 294.517 233.604 295.321 233.604 296.01C233.604 302.327 233.604 308.644 233.604 315.076C233.604 315.306 233.604 315.536 233.604 315.765C233.489 316.569 233.834 317.718 232.685 317.718C231.422 317.718 231.422 316.569 231.422 315.651C231.422 311.86 231.422 308.07 231.422 304.395C231.422 303.82 231.537 303.131 230.733 302.901C229.814 302.672 229.24 303.131 229.24 304.28C229.24 307.266 229.24 310.252 229.24 313.239C229.24 314.387 229.24 315.536 229.24 316.684C229.24 317.373 229.125 317.948 228.321 318.063C227.517 318.063 227.287 317.488 227.172 316.914C227.057 316.569 227.057 316.225 227.057 315.765C227.057 314.272 225.449 313.353 224.071 314.043C223.727 314.272 223.612 314.502 223.612 314.847C223.612 315.421 223.612 316.11 223.612 316.684C223.612 317.259 223.497 317.833 222.693 317.833C222.004 317.833 221.889 317.259 221.889 316.684C221.889 312.664 221.889 308.759 221.889 304.739C221.889 304.28 222.004 303.705 221.774 303.246C221.544 302.787 221.2 302.672 220.74 302.672C220.166 302.672 219.821 302.901 219.592 303.476C219.362 303.935 219.362 304.509 219.362 305.084C219.362 308.644 219.362 312.32 219.362 315.88C219.362 316.799 219.132 317.488 218.098 317.488C217.065 317.488 216.835 316.684 216.835 315.88C216.835 309.448 216.835 302.901 216.835 296.469C216.835 295.78 217.18 294.861 216.261 294.517C215.342 294.172 214.768 294.861 214.193 295.55C210.403 300.26 206.613 305.084 202.822 309.793C202.478 310.252 202.133 310.941 201.329 310.367C200.525 309.793 200.87 309.219 201.329 308.644C203.741 305.543 206.153 302.442 208.68 299.226C208.795 299.111 208.91 298.881 209.025 298.766C209.369 298.077 209.599 297.388 208.91 296.929C208.221 296.355 207.646 296.814 207.187 297.388C204.89 300.26 202.593 303.246 200.296 306.117C199.951 306.462 199.606 306.921 199.377 307.266C198.917 307.84 198.343 308.185 197.654 307.611C196.965 307.036 197.194 306.347 197.654 305.773C198.802 304.28 199.836 302.787 200.985 301.408C203.741 297.848 206.613 294.172 209.369 290.612C210.288 289.463 211.207 288.429 212.815 289.348C213.274 289.578 213.504 289.119 213.504 288.774C213.504 288.085 213.734 287.281 212.815 287.051C212.356 286.936 211.896 287.051 211.437 287.051C204.086 287.051 196.735 287.051 189.384 287.051C189.154 286.362 188.695 286.477 188.006 286.132ZM209.599 283.376C214.423 283.376 219.132 283.376 223.956 283.376C224.99 283.376 225.449 283.031 225.449 281.997C225.449 280.045 225.449 278.092 225.449 276.14C225.449 274.991 224.99 274.532 223.841 274.532C216.261 274.532 208.68 274.532 200.985 274.532C199.951 274.532 199.377 274.876 198.917 275.68C197.539 277.748 196.046 279.93 194.668 281.997C194.438 282.342 193.978 282.686 194.208 283.146C194.438 283.49 195.012 283.376 195.357 283.376C200.181 283.376 204.89 283.376 209.599 283.376ZM218.443 251.101C218.443 253.053 218.443 255.006 218.443 256.958C218.443 260.289 218.443 260.289 221.774 260.289C225.564 260.289 225.564 260.289 225.564 256.499C225.564 255.121 225.334 254.317 223.956 253.742C222.808 253.398 222.118 252.364 222.118 251.101C222.118 249.952 222.463 248.689 223.497 248.344C225.564 247.655 225.679 246.277 225.564 244.554C225.564 243.98 225.564 243.52 225.564 242.946C225.564 242.027 225.105 241.682 224.186 241.682C222.693 241.682 221.2 241.682 219.821 241.682C218.788 241.682 218.328 242.027 218.443 243.061C218.443 245.817 218.443 248.459 218.443 251.101ZM234.983 256.04C234.983 251.101 234.983 246.162 234.983 241.223C234.983 240.074 234.638 239.73 233.489 239.73C231.766 239.845 230.158 239.73 228.436 239.73C227.861 239.73 226.828 239.385 226.828 240.189C226.828 240.993 227.861 240.993 228.551 240.993C229.929 241.108 231.307 240.993 232.685 240.993C233.489 240.993 233.949 241.338 233.949 242.257C233.949 248.344 233.949 254.317 233.949 260.404C233.949 261.323 233.489 261.668 232.685 261.553C231.192 261.553 229.699 261.553 228.321 261.553C227.172 261.553 226.598 262.012 226.598 263.161C226.598 265.688 226.598 268.329 226.598 270.856C226.598 271.89 227.057 272.234 227.976 272.234C229.814 272.234 231.652 272.12 233.489 272.234C234.753 272.234 235.097 271.775 235.097 270.626C234.868 265.802 234.983 260.864 234.983 256.04ZM230.618 291.071C231.192 291.071 231.652 291.071 232.226 291.071C235.672 291.071 235.212 291.531 235.212 287.97C235.212 287.051 234.868 286.706 233.949 286.706C232.226 286.706 230.618 286.706 228.895 286.706C225.794 286.706 225.909 286.132 226.024 289.923C226.024 290.727 226.368 291.071 227.172 291.071C228.321 291.071 229.469 291.071 230.618 291.071ZM221.085 269.248C221.429 269.248 221.774 269.248 222.004 269.248C223.267 269.363 223.612 268.904 223.612 267.64C223.726 264.424 223.726 264.424 220.51 264.539C218.443 264.539 218.328 264.654 218.328 266.606C218.558 269.478 218.213 269.133 221.085 269.248ZM226.483 297.503C226.483 296.584 226.483 295.665 226.483 294.632C226.483 294.057 226.368 293.483 225.564 293.483C224.76 293.483 224.301 293.713 224.301 294.632C224.301 296.469 224.301 298.422 224.301 300.26C224.301 301.064 224.645 301.408 225.449 301.293C226.138 301.293 226.483 300.949 226.483 300.26C226.483 299.341 226.483 298.422 226.483 297.503ZM229.24 250.986C229.24 249.378 228.321 248.229 226.943 248C226.368 247.885 226.024 248 226.024 248.689C226.024 250.182 226.024 251.79 226.024 253.283C226.024 254.087 226.483 254.202 227.172 253.972C228.55 253.513 229.24 252.479 229.24 250.986Z" fill="#7D1810"/>
<path d="M239.576 135.669C239.462 135.669 239.462 135.555 239.576 135.669V135.669Z" fill="#7D1810"/>
<path d="M230.388 265.113C230.273 265.688 229.928 266.147 229.239 266.147C228.55 266.147 228.206 265.803 228.206 265.113C228.206 264.424 228.665 264.08 229.239 264.08C229.814 264.08 230.158 264.424 230.388 265.113Z" fill="#7D1810"/>
<path d="M233.144 265.113C233.029 265.802 232.685 266.147 231.996 266.032C231.306 265.917 230.962 265.573 230.962 264.884C231.077 264.309 231.421 263.965 231.996 263.965C232.8 264.08 233.144 264.424 233.144 265.113Z" fill="#7D1810"/>
<path d="M233.144 268.789C233.144 269.478 232.8 269.823 232.11 269.823C231.421 269.823 230.962 269.478 230.962 268.789C230.962 268.215 231.421 267.87 231.996 267.755C232.685 267.755 233.029 268.1 233.144 268.789Z" fill="#7D1810"/>
<path d="M229.124 267.87C229.813 267.87 230.273 268.215 230.273 268.789C230.273 269.478 229.813 269.823 229.239 269.823C228.55 269.823 228.205 269.478 228.09 268.789C228.09 268.1 228.55 267.87 229.124 267.87Z" fill="#7D1810"/>
<path d="M356.386 224.913C356.386 229.048 356.386 233.183 356.386 237.318C356.386 237.892 356.616 238.581 355.812 239.041C355.582 239.156 355.697 239.5 355.582 239.845C354.434 257.762 350.873 275.336 345.13 292.335C338.239 313.009 327.902 331.845 313.889 348.5C300.566 364.35 284.945 376.984 265.764 385.024C256.001 389.044 245.779 391.456 235.327 392.949C229.125 393.868 223.037 393.294 216.835 393.409C215.342 393.409 213.619 392.72 211.896 392.49C193.059 390.078 176.061 382.842 160.555 371.816C150.677 364.695 142.063 356.31 134.367 346.892C118.632 327.596 108.065 305.658 101.403 281.768C98.417 271.201 96.3496 260.519 95.0861 249.608C94.7416 246.392 94.8564 243.176 94.1673 240.074C92.6742 232.724 93.8227 225.258 93.3633 217.907C93.3633 217.333 93.3633 216.758 93.3633 216.184C93.3633 214.346 93.8227 212.394 93.9376 210.671C94.8564 198.381 96.809 186.321 99.6804 174.376C104.964 152.323 113.578 131.764 126.557 113.157C136.894 98.3406 149.184 85.4766 164.115 75.2543C177.554 66.1805 192.37 60.3228 208.45 57.5663C210.633 57.2217 213.045 57.2217 215.227 56.6474C220.51 55.1542 225.909 56.3028 231.307 55.9583C231.996 55.9583 232.685 55.8434 233.259 56.5325C233.374 56.6474 233.719 56.6474 233.949 56.6474C245.09 57.4514 255.657 60.3228 265.879 64.5726C278.398 69.856 289.769 77.092 299.762 86.2806C321.47 106.036 336.172 130.386 345.475 158.181C349.495 170.356 352.366 182.761 354.089 195.395C354.778 200.104 354.778 204.813 355.582 209.522C356.042 212.049 356.157 214.576 356.157 217.103C356.501 219.63 356.501 222.272 356.386 224.913C356.386 224.913 356.501 224.913 356.386 224.913ZM353.17 223.42C353.285 215.725 352.596 205.502 351.103 195.165C349.38 182.99 346.738 171.16 342.948 159.445C339.502 148.993 335.138 138.885 329.74 129.122C322.848 116.488 314.578 104.887 304.586 94.5503C300.796 90.6451 296.661 86.9697 292.411 83.6388C281.844 75.3691 270.473 68.8223 257.839 64.3428C241.07 58.4851 223.956 57.3365 206.498 60.6674C194.208 63.0794 182.493 67.3291 171.581 73.6463C158.487 81.3417 147.346 91.4491 137.583 103.165C129.428 113.042 122.422 123.724 116.679 135.21C112.085 144.398 108.295 154.046 105.308 164.039C98.6467 186.666 95.7753 209.867 96.6942 233.413C97.2684 248.344 99.5656 263.046 103.241 277.403C105.998 288.2 109.673 298.767 114.382 308.874C119.091 318.867 124.49 328.4 130.922 337.473C135.401 343.676 140.225 349.533 145.623 354.932C148.495 357.803 151.481 360.56 154.582 363.087C163.541 370.437 173.074 376.64 183.756 381.349C198.687 387.896 214.193 390.652 230.503 389.733C239.921 389.159 249.11 387.436 258.069 384.335C268.176 380.775 277.594 375.836 286.323 369.633C296.431 362.512 305.275 354.128 313.085 344.48C321.929 333.568 329.05 321.623 335.023 308.874C340.077 297.963 343.982 286.592 346.853 274.876C351.218 258.911 353.056 242.601 353.17 223.42Z" fill="#7D1810"/>
</svg>
