<svg width="450" height="450" viewBox="0 0 450 450" fill="none" xmlns="http://www.w3.org/2000/svg">
<path d="M231.788 305.563C229.501 305.429 227.215 305.496 224.929 305.563C224.592 305.563 224.055 306.101 224.055 306.37C223.987 310.539 223.987 314.708 223.987 319.079C226.61 319.079 228.963 319.214 231.317 319.012C233.805 318.81 235.486 317.398 236.226 314.91C236.831 312.893 236.696 310.875 236.024 308.925C235.419 306.908 233.872 305.765 231.788 305.563Z" fill="#2C81C3"/>
<path d="M225.466 46C126.886 46 47 125.953 47 224.534C47 323.114 126.886 403.067 225.466 403.067C324.047 403.067 404 323.114 404 224.534C404 125.953 324.114 46 225.466 46ZM165.417 96.5005C179.135 96.8367 190.836 108.47 190.499 122.995C190.23 136.645 178.664 148.01 164.678 147.942C150.355 147.875 139.057 136.444 139.057 122.121C138.99 108.335 150.691 96.097 165.417 96.5005ZM190.499 183.716C190.096 197.232 178.597 209 164.005 208.597C150.018 208.193 138.788 196.426 139.057 182.775C138.788 168.99 150.691 156.617 165.821 157.155C179.068 157.693 190.97 168.99 190.499 183.716ZM165.484 219.356C179.404 219.692 190.836 231.46 190.567 245.85C190.298 259.501 178.732 270.798 164.745 270.798C150.489 270.73 139.259 259.366 139.125 245.11C138.923 231.325 150.556 219.02 165.484 219.356ZM194.937 331.654C194.803 341.875 189.289 349.07 179.404 351.625C171.536 353.71 163.602 353.777 155.936 350.751C148.135 347.658 143.496 341.875 143.092 333.335C142.823 327.821 142.823 322.307 142.823 316.86C142.756 309.329 142.823 301.797 142.823 294.266C142.823 293.661 142.823 293.123 142.823 292.45C148.741 292.45 154.456 292.45 160.307 292.45C160.374 293.19 160.441 293.862 160.441 294.535C160.441 306.37 160.441 318.205 160.576 330.107C160.643 335.352 164.14 338.513 169.452 338.513C174.092 338.445 177.588 334.882 177.656 329.973C177.723 319.214 177.656 308.455 177.723 297.695C177.723 296.283 177.656 294.938 177.79 293.526C177.79 293.123 178.261 292.45 178.597 292.45C184.111 292.383 189.558 292.383 195.206 292.383C195.274 293.056 195.341 293.594 195.341 294.131C195.072 306.572 195.072 319.079 194.937 331.654ZM227.618 96.5005C241.269 96.8367 252.969 108.403 252.7 122.995C252.431 136.645 240.865 148.01 226.879 147.942C212.757 148.144 201.124 136.107 201.191 122.121C201.258 108.403 212.824 96.097 227.618 96.5005ZM227.685 157.155C240.933 157.491 252.835 168.654 252.633 183.313C252.431 197.098 240.865 208.798 226.542 208.597C212.354 208.395 200.989 196.493 201.258 182.842C200.989 168.788 213.093 156.751 227.685 157.155ZM227.484 219.356C241.471 219.625 252.969 231.393 252.7 245.85C252.431 259.501 240.865 270.798 226.879 270.798C212.824 270.999 201.191 258.963 201.258 244.976C201.326 231.393 212.623 219.087 227.484 219.356ZM250.011 324.19C246.985 328.964 242.546 331.654 236.898 331.99C232.594 332.259 228.291 332.326 223.785 332.461C223.785 338.714 223.785 345.103 223.785 351.558C218.607 351.558 213.631 351.558 208.521 351.558C208.521 331.856 208.521 312.22 208.521 292.316C209.126 292.316 209.597 292.249 210.067 292.249C218.002 292.249 225.937 292.249 233.872 292.249C245.169 292.316 252.431 299.377 252.969 310.606C253.238 315.448 252.633 320.021 250.011 324.19ZM307.168 308.858C307.168 309.261 307.101 309.732 307.034 310.606C302.327 305.899 296.813 305.16 290.895 306.303C287.735 306.908 285.112 308.454 283.028 311.01C278.119 316.927 277.85 326.879 282.49 332.999C285.448 336.899 289.55 338.58 294.325 338.782C299.099 338.983 303.134 337.101 306.966 334.075C307.101 334.613 307.168 334.814 307.168 335.016C307.168 339.589 307.235 344.161 307.101 348.667C307.101 349.205 306.496 349.877 306.025 350.146C300.646 352.836 294.93 353.71 288.878 352.97C281.615 352.096 275.362 349.406 270.318 344.094C265.275 338.782 262.854 332.326 262.316 325.064C261.778 317.6 263.19 310.674 267.292 304.42C273.008 295.813 281.212 291.509 291.5 291.105C296.544 290.904 301.318 291.912 305.891 294.064C306.832 294.535 307.235 295.006 307.235 296.082C307.101 300.318 307.168 304.554 307.168 308.858ZM287.802 270.798C273.681 270.865 262.115 259.501 261.913 245.581C261.711 231.325 273.277 219.423 287.398 219.356C301.856 219.356 313.355 230.653 313.355 245.043C313.489 259.299 302.058 270.73 287.802 270.798ZM287.129 208.597C273.21 208.328 261.644 196.627 261.98 182.237C262.316 168.385 274.151 156.751 288.743 157.155C302.125 157.558 313.489 169.057 313.422 182.909C313.556 197.031 301.587 208.866 287.129 208.597ZM287.6 147.942C273.681 148.01 261.711 136.309 261.98 121.717C262.249 107.798 273.95 96.1643 288.273 96.4332C302.058 96.7022 313.422 108.201 313.422 122.188C313.355 136.578 301.923 147.875 287.6 147.942Z" fill="#2C81C3"/>
</svg>
