<svg width="450" height="450" viewBox="0 0 450 450" fill="none" xmlns="http://www.w3.org/2000/svg">
<g clip-path="url(#clip0)">
<path d="M135.044 302.758L90.0659 380.713H180.023L135.044 302.758Z" fill="#6BABDE"/>
<path d="M90.0651 380.713L135.043 302.758H44.9785L90.0651 380.713Z" fill="#5DA1D8"/>
<path d="M90.0651 224.911L44.9785 302.758H135.043L90.0651 224.911Z" fill="#4F97D2"/>
<path d="M44.9784 302.758L90.065 224.911H0L44.9784 302.758Z" fill="#3F89C9"/>
<path d="M44.9784 146.955L0 224.911H90.065L44.9784 146.955Z" fill="#3B81C3"/>
<path d="M90.0651 224.911L135.043 146.955H44.9785L90.0651 224.911Z" fill="#2356A3"/>
<path d="M90.0651 69L44.9785 146.955H135.043L90.0651 69Z" fill="#184999"/>
<path d="M180.021 224.911L225 146.955H135.043L180.021 224.911Z" fill="#ED698B"/>
<path d="M180.021 69L135.043 146.955H225L180.021 69Z" fill="#EA5279"/>
<path d="M135.044 146.955L180.023 69H90.0659L135.044 146.955Z" fill="#E73059"/>
<path d="M225 302.758L269.978 224.911H180.021L225 302.758Z" fill="#EF7D9A"/>
<path d="M225 146.955L180.021 224.911H269.978L225 146.955Z" fill="#EE7292"/>
<path d="M269.979 380.713L314.957 302.758H225L269.979 380.713Z" fill="#EA5279"/>
<path d="M269.979 224.911L225 302.758H314.957L269.979 224.911Z" fill="#ED698B"/>
<path d="M360.043 380.713L405.022 302.758H314.957L360.043 380.713Z" fill="#184999"/>
<path d="M360.043 224.911L314.957 302.758H405.022L360.043 224.911Z" fill="#2356A3"/>
<path d="M405.022 302.758L450 224.911H360.043L405.022 302.758Z" fill="#3B81C3"/>
<path d="M405.022 146.955L360.043 224.911H450L405.022 146.955Z" fill="#3F89C9"/>
<path d="M360.043 224.911L405.022 146.955H314.957L360.043 224.911Z" fill="#4F97D2"/>
<path d="M360.043 69L314.957 146.955H405.022L360.043 69Z" fill="#5DA1D8"/>
<path d="M314.958 302.758L269.979 380.713H360.044L314.958 302.758Z" fill="#E73059"/>
<path d="M314.958 146.955L360.044 69H269.979L314.958 146.955Z" fill="#6BABDE"/>
</g>
<defs>
<clipPath id="clip0">
<rect width="450" height="450" fill="white"/>
</clipPath>
</defs>
</svg>
