<svg width="287" height="280" viewBox="0 0 287 280" fill="none" xmlns="http://www.w3.org/2000/svg">
<path d="M143.53 0C190.974 0 238.479 0 285.923 0C286.821 0 287 0.17948 287 1.07692C287 93.6325 287 186.188 287 278.744C287 279.641 286.821 279.82 285.923 279.82C190.974 279.82 96.0256 279.82 1.07692 279.82C0.179489 279.82 0 279.641 0 278.744C0 186.188 0 93.6325 0 1.07692C0 0.17948 0.179489 0 1.07692 0C48.5812 0 96.0256 0 143.53 0ZM143.53 267.855C186.906 267.855 230.282 267.855 273.598 267.855C274.795 267.855 275.094 267.556 275.094 266.359C275.034 182 275.034 97.7008 275.094 13.3419C275.094 12.1453 274.795 11.8461 273.598 11.8461C186.846 11.906 100.154 11.906 13.4017 11.8461C12.2051 11.8461 11.906 12.1453 11.906 13.3419C11.9658 97.7008 11.9658 182 11.906 266.359C11.906 267.556 12.2051 267.855 13.4017 267.855C56.7778 267.855 100.154 267.855 143.53 267.855Z" fill="#CB4D96"/>
<path d="M143.53 267.855C100.154 267.855 56.7778 267.855 13.4615 267.855C12.265 267.855 11.9658 267.556 11.9658 266.359C12.0256 182 12.0256 97.7009 11.9658 13.3419C11.9658 12.1453 12.265 11.8462 13.4615 11.8462C100.214 11.906 186.906 11.906 273.658 11.8462C274.855 11.8462 275.154 12.1453 275.154 13.3419C275.094 97.7009 275.094 182 275.154 266.359C275.154 267.556 274.855 267.855 273.658 267.855C230.222 267.855 186.906 267.855 143.53 267.855ZM99.9744 144.786C100.274 145.385 100.513 145.803 100.692 146.222C105.778 156.992 110.923 167.761 116.009 178.53C118.462 183.675 120.915 188.761 123.368 193.846C123.846 194.863 124.504 195.641 125.761 195.641C132.701 195.641 139.641 195.641 146.581 195.641C147.658 195.641 148.077 195.043 147.718 194.026C147.598 193.667 147.419 193.368 147.239 193.068C136.35 172.009 125.521 150.949 114.632 129.889C114.214 129.111 114.274 128.513 114.692 127.735C124.923 108.171 135.094 88.547 145.325 68.9829C146.462 66.7693 146.222 66.3505 143.65 66.3505C138.026 66.3505 132.402 66.4103 126.778 66.2906C124.923 66.2308 123.906 66.9488 123.188 68.5642C116.427 83.2821 109.368 97.8804 102.786 112.658C102.427 113.556 102.009 114.393 101.53 115.35C101.35 114.991 101.231 114.812 101.171 114.633C94.171 99.0171 86.6325 83.6411 79.3932 68.1453C78.7351 66.7094 77.8376 66.2308 76.3419 66.2906C69.9402 66.3505 63.5385 66.2906 57.0769 66.2906C55.2222 66.2906 54.8633 66.8889 55.7009 68.5043C65.9915 88.906 76.3419 109.308 86.6325 129.709C86.9915 130.487 87.0513 131.026 86.6325 131.803C77.9573 148.436 69.2821 165.128 60.6068 181.821C58.5128 185.889 56.4188 189.897 54.265 193.966C53.7863 194.923 54.0257 195.402 55.0427 195.581C55.4017 195.641 55.7607 195.641 56.1197 195.641C61.9829 195.641 67.8462 195.581 73.7094 195.701C75.7436 195.761 76.8804 194.983 77.7778 193.128C84.1197 179.727 90.3419 166.265 96.3846 152.803C97.5812 150.111 98.718 147.539 99.9744 144.786ZM230.103 124.863C230.103 105.957 230.103 86.9915 230.103 68.0855C230.103 66.5898 230.043 66.53 228.547 66.53C222.504 66.53 216.521 66.53 210.479 66.53C208.624 66.53 208.385 66.8291 208.385 68.6838C208.385 75.265 208.385 81.8462 208.385 88.4274C208.385 91.5983 208.385 94.7095 208.385 97.8804C208.385 98.4189 208.504 98.8377 207.607 98.7778C201.923 98.2992 196.239 98.5385 190.675 99.7949C177.932 102.667 168.239 109.667 161.718 121.034C157.47 128.453 155.436 136.47 155.017 144.966C154.658 152.744 155.316 160.462 157.65 167.94C163.333 186.068 177.154 195.162 194.624 196.658C200.487 197.137 206.291 196.778 212.094 195.701C218.197 194.564 224.06 192.709 229.684 190.077C230.402 189.718 230.88 189.299 230.761 188.462C230.282 184.573 230.103 180.684 230.162 176.795C230.103 159.385 230.103 142.094 230.103 124.863Z" fill="#280E1F"/>
<path d="M99.9744 144.786C98.718 147.538 97.5812 150.111 96.3846 152.684C90.3419 166.205 84.1197 179.667 77.7778 193.009C76.9402 194.803 75.7436 195.581 73.7094 195.581C67.8462 195.462 61.9829 195.521 56.1197 195.521C55.7607 195.521 55.4017 195.521 55.0428 195.461C54.0257 195.282 53.7863 194.803 54.265 193.846C56.359 189.778 58.453 185.769 60.6069 181.701C69.2821 165.009 77.9573 148.376 86.6325 131.684C87.0513 130.906 86.9915 130.368 86.6325 129.59C76.2821 109.188 65.9915 88.7863 55.7009 68.3846C54.8633 66.7094 55.2222 66.1709 57.0769 66.1709C63.4787 66.1709 69.8804 66.1709 76.3419 66.1709C77.7778 66.1709 78.7351 66.5897 79.3932 68.0256C86.6325 83.5213 94.171 98.8974 101.171 114.513C101.231 114.692 101.35 114.872 101.53 115.231C102.009 114.214 102.427 113.376 102.786 112.538C109.308 97.7008 116.368 83.1624 123.188 68.4444C123.906 66.829 124.983 66.1111 126.778 66.1709C132.402 66.2906 138.026 66.2307 143.65 66.2307C146.222 66.2307 146.462 66.5897 145.325 68.8632C135.154 88.4273 124.923 108.051 114.692 127.615C114.274 128.393 114.214 128.991 114.633 129.769C125.521 150.829 136.41 171.889 147.239 192.949C147.419 193.248 147.598 193.547 147.718 193.906C148.077 194.923 147.658 195.521 146.581 195.521C139.641 195.521 132.701 195.521 125.761 195.521C124.504 195.521 123.846 194.744 123.368 193.726C120.915 188.641 118.402 183.556 116.009 178.41C110.863 167.641 105.778 156.872 100.692 146.103C100.513 145.803 100.274 145.385 99.9744 144.786Z" fill="#CB4D96"/>
<path d="M230.102 124.863C230.102 142.094 230.102 159.385 230.102 176.615C230.102 180.504 230.222 184.393 230.701 188.282C230.82 189.12 230.402 189.538 229.624 189.897C224 192.59 218.137 194.444 212.034 195.521C206.231 196.598 200.427 196.957 194.564 196.479C177.094 194.983 163.273 185.889 157.59 167.761C155.256 160.282 154.538 152.624 154.957 144.786C155.376 136.291 157.41 128.273 161.658 120.855C168.179 109.487 177.931 102.487 190.615 99.6153C196.179 98.3589 201.863 98.1196 207.547 98.5982C208.444 98.658 208.325 98.2392 208.325 97.7008C208.325 94.5298 208.325 91.4187 208.325 88.2478C208.325 81.6666 208.325 75.0854 208.325 68.5042C208.325 66.6495 208.624 66.3503 210.419 66.3503C216.461 66.3503 222.444 66.3503 228.487 66.3503C229.923 66.3503 230.043 66.4102 230.043 67.9059C230.102 86.9914 230.102 105.897 230.102 124.863ZM208.325 147.06C208.325 137.607 208.325 128.094 208.325 118.641C208.325 117.684 208.025 117.325 207.188 117.085C201.624 115.769 196.239 116.188 191.034 118.581C184.214 121.752 180.325 127.376 178.231 134.316C175.837 142.393 175.957 150.53 177.632 158.726C178.59 163.333 180.325 167.641 183.555 171.111C190.256 178.231 198.513 179.068 207.487 176.974C208.325 176.795 208.384 176.256 208.384 175.598C208.325 166.085 208.325 156.573 208.325 147.06Z" fill="#CB4D96"/>
<path d="M208.325 147.06C208.325 156.573 208.325 166.085 208.325 175.598C208.325 176.256 208.325 176.795 207.427 176.974C198.453 179.068 190.197 178.231 183.496 171.111C180.205 167.641 178.53 163.333 177.573 158.726C175.897 150.53 175.778 142.393 178.171 134.316C180.265 127.316 184.214 121.692 190.974 118.581C196.179 116.188 201.564 115.709 207.128 117.085C207.966 117.265 208.265 117.684 208.265 118.641C208.325 128.094 208.325 137.607 208.325 147.06Z" fill="#280E1F"/>
</svg>
