<svg width="450" height="450" viewBox="0 0 450 450" fill="none" xmlns="http://www.w3.org/2000/svg">
<path d="M225.467 364.771C178.513 364.771 131.624 364.771 84.6701 364.836C82.521 364.836 82 364.315 82 362.101C82.0651 270.602 82.0651 179.169 82 87.6701C82 85.4559 82.521 85 84.7352 85C178.578 85.0651 272.422 85.0651 366.33 85C368.479 85 369 85.521 369 87.7352C368.935 179.234 368.935 270.668 369 362.166C369 364.381 368.479 364.836 366.265 364.836C319.311 364.771 272.356 364.771 225.467 364.771ZM225.598 97.0479C182.681 97.113 139.7 97.113 96.7831 97.0479C94.7642 97.0479 93.9176 97.3084 93.9176 99.6528C93.9828 183.141 93.9828 266.695 93.8525 350.184C93.8525 352.463 94.5689 352.854 96.6528 352.854C182.486 352.789 268.254 352.789 354.087 352.854C356.431 352.854 356.952 352.268 356.952 349.988C356.887 266.565 356.887 183.141 356.952 99.718C356.952 97.5037 356.366 96.9828 354.217 96.9828C311.366 97.0479 268.514 97.0479 225.598 97.0479Z" fill="#BEA0CC"/>
<path d="M225.598 97.0478C268.449 97.0478 311.366 97.0478 354.217 96.9827C356.366 96.9827 356.952 97.5037 356.952 99.7179C356.887 183.141 356.887 266.565 356.952 349.988C356.952 352.267 356.431 352.854 354.087 352.854C268.254 352.788 182.486 352.788 96.6529 352.854C94.5689 352.854 93.8525 352.463 93.8525 350.183C93.9177 266.695 93.9177 183.141 93.9177 99.6527C93.9177 97.2432 94.7643 97.0478 96.7831 97.0478C139.765 97.1129 182.681 97.0478 225.598 97.0478ZM182.225 243.446C187.826 243.446 193.361 243.511 198.962 243.381C200.851 243.316 201.567 243.967 202.023 245.725C204.888 256.405 207.819 267.021 210.684 277.766C211.27 279.98 212.312 280.697 214.527 280.631C219.997 280.501 225.533 280.566 231.003 280.566C233.868 280.566 234.129 280.241 233.347 277.571C226.444 254.126 219.476 230.747 212.573 207.302C207.103 188.742 201.697 170.117 196.227 151.556C195.836 150.189 195.576 148.886 193.557 148.886C185.742 149.016 177.927 148.951 170.112 148.886C168.614 148.886 167.963 149.407 167.963 150.97C167.963 154.096 167.573 157.157 166.726 160.153C161.451 178.648 156.046 197.143 150.901 215.638C148.426 224.56 145.561 233.352 143.216 242.274C140.09 253.996 136.639 265.588 133.317 277.31C132.471 280.176 132.731 280.501 135.662 280.501C140.351 280.501 145.04 280.501 149.729 280.501C153.245 280.501 153.245 280.501 154.157 276.984C156.892 266.565 159.693 256.08 162.363 245.66C162.818 243.902 163.6 243.316 165.423 243.316C171.089 243.576 176.69 243.446 182.225 243.446ZM287.14 236.608C293.847 236.673 302.313 236.543 310.714 235.891C312.798 235.696 313.645 234.719 313.905 232.831C314.752 225.341 315.012 217.917 313.384 210.493C308.109 186.202 288.572 177.931 268.84 183.206C256.727 186.463 248.977 194.929 244.288 206.13C238.948 218.764 237.711 231.984 240.055 245.53C241.358 253.084 243.702 260.248 248.326 266.565C251.973 271.579 256.466 275.877 262.002 278.352C267.928 280.957 274.375 282.259 280.953 282.259C289.289 282.259 297.494 281.739 305.244 278.287C306.546 277.701 307.719 277.115 307.719 275.422C307.719 270.537 307.719 265.718 307.719 260.834C307.719 259.401 307.067 259.141 305.96 259.596C300.62 261.876 295.02 262.788 289.289 263.113C282.972 263.504 276.915 262.722 271.51 259.336C264.021 254.712 261.676 247.223 260.895 239.017C260.699 237.129 261.09 236.412 263.239 236.412C270.533 236.673 277.957 236.608 287.14 236.608Z" fill="#271A3E"/>
<path d="M182.225 243.446C176.625 243.446 171.089 243.511 165.489 243.381C163.6 243.316 162.884 243.902 162.428 245.725C159.758 256.21 156.957 266.63 154.222 277.05C153.31 280.566 153.31 280.566 149.794 280.566C145.105 280.566 140.416 280.566 135.727 280.566C132.796 280.566 132.536 280.241 133.383 277.375C136.704 265.718 140.221 254.061 143.281 242.339C145.626 233.417 148.491 224.625 150.966 215.703C156.111 197.143 161.451 178.713 166.791 160.218C167.638 157.222 168.028 154.161 168.028 151.035C168.028 149.472 168.614 148.951 170.177 148.951C177.992 149.017 185.807 149.017 193.622 148.951C195.641 148.951 195.901 150.254 196.292 151.621C201.762 170.182 207.168 188.807 212.638 207.367C219.541 230.812 226.509 254.191 233.413 277.636C234.194 280.306 233.934 280.631 231.068 280.631C225.598 280.631 220.062 280.566 214.592 280.697C212.378 280.762 211.336 280.045 210.749 277.831C207.949 267.151 204.954 256.471 202.088 245.79C201.632 244.097 200.916 243.381 199.027 243.446C193.361 243.576 187.826 243.446 182.225 243.446ZM182.095 168.228C181.574 170.638 181.183 172.461 180.793 174.285C177.341 190.044 172.978 205.609 168.81 221.174C168.028 224.039 168.028 224.039 171.089 224.039C178.839 224.039 186.524 223.974 194.273 224.104C196.162 224.104 196.487 223.713 196.032 221.825C191.408 204.176 186.328 186.658 182.095 168.228Z" fill="#BEA0CC"/>
<path d="M287.14 236.608C278.022 236.608 270.598 236.673 263.174 236.543C261.025 236.478 260.634 237.194 260.83 239.148C261.676 247.353 263.956 254.843 271.445 259.466C276.85 262.853 282.907 263.569 289.224 263.244C294.955 262.918 300.555 262.006 305.895 259.727C307.002 259.271 307.719 259.532 307.654 260.964C307.589 265.849 307.654 270.668 307.654 275.552C307.654 277.245 306.481 277.831 305.179 278.417C297.429 281.804 289.224 282.39 280.888 282.39C274.245 282.39 267.798 281.087 261.937 278.482C256.401 276.008 251.908 271.71 248.261 266.695C243.637 260.378 241.293 253.215 239.99 245.66C237.646 232.114 238.883 218.894 244.223 206.26C248.977 195.059 256.662 186.528 268.775 183.337C288.572 178.062 308.11 186.333 313.319 210.624C314.948 218.048 314.622 225.472 313.84 232.961C313.645 234.85 312.798 235.827 310.649 236.022C302.248 236.543 293.847 236.673 287.14 236.608ZM277.306 219.871C280.562 219.871 283.818 219.871 287.075 219.871C294.629 219.871 295.085 219.35 293.261 211.861C291.568 204.893 286.879 200.204 280.758 199.422C273.529 198.511 267.538 201.702 264.151 208.409C262.588 211.47 261.742 214.726 261.155 218.178C260.96 219.611 261.351 219.936 262.718 219.936C267.603 219.871 272.487 219.871 277.306 219.871Z" fill="#BEA0CC"/>
<path d="M182.095 168.228C186.328 186.593 191.408 204.111 195.966 221.76C196.487 223.648 196.097 224.104 194.208 224.039C186.458 223.974 178.774 223.974 171.024 223.974C167.963 223.974 168.028 223.974 168.745 221.108C172.912 205.544 177.276 189.979 180.727 174.219C181.183 172.461 181.574 170.638 182.095 168.228Z" fill="#271A3E"/>
<path d="M277.306 219.871C272.487 219.871 267.603 219.806 262.783 219.871C261.416 219.871 261.025 219.545 261.221 218.113C261.741 214.726 262.653 211.47 264.216 208.344C267.603 201.636 273.594 198.445 280.823 199.357C286.944 200.139 291.633 204.828 293.326 211.796C295.085 219.285 294.694 219.806 287.14 219.806C283.818 219.871 280.562 219.871 277.306 219.871Z" fill="#271A3E"/>
</svg>
