<svg width="450" height="450" viewBox="0 0 450 450" fill="none" xmlns="http://www.w3.org/2000/svg">
<path d="M258.738 277.887H287.663L241.488 158.051H209.507L163.333 277.887H192.26L199.806 257.588H243.434L235.537 235.126H206.811L225.497 183.563L258.738 277.887ZM354.121 189.163C353.092 185.462 349.269 183.287 345.552 184.319C341.849 185.348 339.679 189.183 340.707 192.886C343.61 203.339 345.081 214.144 345.081 225C345.081 291.213 291.213 345.079 225 345.079C158.787 345.079 104.92 291.213 104.92 225C104.92 158.786 158.787 104.919 225 104.919C253.049 104.919 280.189 114.883 301.609 132.615C300.776 134.604 300.313 136.787 300.313 139.078C300.313 148.327 307.811 155.825 317.06 155.825C326.309 155.825 333.807 148.327 333.807 139.078C333.807 129.829 326.309 122.331 317.06 122.331C315.279 122.331 313.566 122.615 311.956 123.13C287.836 102.574 256.943 91 225 91C151.113 91 91 151.112 91 225C91 298.887 151.113 358.999 225 358.999C298.887 358.999 359 298.887 359 225C359 212.886 357.36 200.828 354.121 189.163Z" fill="#112B49"/>
</svg>
