<svg width="450" height="450" viewBox="0 0 450 450" fill="none" xmlns="http://www.w3.org/2000/svg">
<path d="M362.897 225.436C362.897 301.349 301.355 362.886 225.459 362.886C149.537 362.886 88 301.349 88 225.436C88 149.541 149.537 88 225.459 88C301.359 88.0002 362.897 149.541 362.897 225.436Z" fill="#00979D" stroke="#81C9CB" stroke-width="1.69732" stroke-miterlimit="10"/>
<path opacity="0.5" d="M362.897 225.55C362.897 301.462 301.355 363 225.459 363C149.537 363 88 301.459 88 225.55C88 149.654 149.537 88.1128 225.459 88.1128C301.359 88.116 362.897 149.654 362.897 225.55Z" fill="url(#paint0_linear)" stroke="url(#paint1_linear)" stroke-width="1.82116" stroke-miterlimit="10"/>
<path d="M277.946 274.588C275.358 274.588 272.708 274.402 270.101 274.014C248.254 270.896 233.645 255.205 225.462 243.143C217.253 255.205 202.645 270.911 180.807 274.025C178.209 274.397 175.587 274.584 172.962 274.584C159.379 274.584 146.627 269.528 137.036 260.349C127.353 251.094 122.01 238.675 122.01 225.432C122.01 212.172 127.353 199.769 137.05 190.498C146.632 181.317 159.393 176.276 172.982 176.276C175.572 176.276 178.208 176.462 180.805 176.834C202.644 179.949 217.251 195.642 225.46 207.706C233.645 195.642 248.253 179.953 270.099 176.834C272.705 176.461 275.341 176.276 277.931 176.276C291.514 176.276 304.274 181.33 313.856 190.498C323.548 199.769 328.879 212.172 328.879 225.432C328.879 238.675 323.562 251.094 313.87 260.349C304.27 269.528 291.529 274.588 277.946 274.588V274.588ZM235.136 225.437C239.402 233.563 251.989 253.84 272.563 256.786C274.364 257.034 276.178 257.172 277.944 257.172C296.425 257.172 311.469 242.938 311.469 225.432C311.469 207.926 296.429 193.692 277.931 193.692C276.164 193.692 274.352 193.818 272.567 194.077C251.989 197.017 239.403 217.294 235.136 225.437ZM172.982 193.696C154.476 193.696 139.43 207.93 139.43 225.436C139.43 242.939 154.47 257.177 172.959 257.177C174.733 257.177 176.547 257.039 178.347 256.791C198.922 253.845 211.505 233.579 215.775 225.441C211.517 217.315 198.922 197.021 178.347 194.091C176.568 193.822 174.75 193.696 172.982 193.696" fill="white"/>
<path d="M158.943 220.631H189.541V230.49H158.943V220.631ZM291.683 220.631H281.324V210.256H271.431V220.631H261.077V230.49H271.431V240.862H281.324V230.49H291.683V220.631Z" fill="white"/>
<defs>
<linearGradient id="paint0_linear" x1="88" y1="225.556" x2="362.897" y2="225.556" gradientUnits="userSpaceOnUse">
<stop offset="0.117" stop-color="white" stop-opacity="0"/>
<stop offset="0.252" stop-color="#C0D1D3" stop-opacity="0.153"/>
<stop offset="0.387" stop-color="#91B3B7" stop-opacity="0.306"/>
<stop offset="0.52" stop-color="#6D9FA3" stop-opacity="0.457"/>
<stop offset="0.65" stop-color="#4D9195" stop-opacity="0.604"/>
<stop offset="0.776" stop-color="#30888B" stop-opacity="0.746"/>
<stop offset="0.895" stop-color="#148386" stop-opacity="0.881"/>
<stop offset="1" stop-color="#008184"/>
</linearGradient>
<linearGradient id="paint1_linear" x1="87.8998" y1="225.556" x2="362.997" y2="225.556" gradientUnits="userSpaceOnUse">
<stop stop-color="white" stop-opacity="0"/>
<stop offset="0.153" stop-color="#C0D1D3" stop-opacity="0.153"/>
<stop offset="0.306" stop-color="#91B3B7" stop-opacity="0.306"/>
<stop offset="0.457" stop-color="#6D9FA3" stop-opacity="0.457"/>
<stop offset="0.604" stop-color="#4D9195" stop-opacity="0.604"/>
<stop offset="0.746" stop-color="#30888B" stop-opacity="0.746"/>
<stop offset="0.881" stop-color="#148386" stop-opacity="0.881"/>
<stop offset="1" stop-color="#008184"/>
</linearGradient>
</defs>
</svg>
