<svg width="450" height="450" viewBox="0 0 450 450" fill="none" xmlns="http://www.w3.org/2000/svg">
<path d="M225.327 364.678C178.081 364.678 130.904 364.678 83.6578 364.678C82.2763 364.678 82 364.402 82 363.02C82.0691 270.877 82.0691 178.733 82 86.6578C82 85.2763 82.2763 85 83.6578 85C178.219 85.0691 272.781 85.0691 367.342 85C368.724 85 369 85.2763 369 86.6578C368.931 178.802 368.931 270.946 369 363.02C369 364.402 368.724 364.678 367.342 364.678C320.027 364.678 272.643 364.678 225.327 364.678ZM225.535 352.659C268.705 352.659 311.807 352.659 354.978 352.729C356.705 352.729 357.05 352.245 357.05 350.656C356.981 266.732 356.981 182.877 356.981 99.0219C356.981 97.3641 356.498 96.9497 354.909 96.9497C268.636 97.0188 182.364 97.0188 96.0219 96.9497C94.2951 96.9497 93.9497 97.4332 93.9497 99.0219C94.0188 182.877 94.0188 266.732 93.9497 350.587C93.9497 352.245 94.4332 352.659 96.0219 352.659C139.262 352.659 182.364 352.659 225.535 352.659Z" fill="#5BBCA9"/>
<path d="M225.534 352.659C182.363 352.659 139.262 352.659 96.0908 352.729C94.5021 352.729 94.0186 352.383 94.0186 350.656C94.0876 266.801 94.0876 182.946 94.0186 99.091C94.0186 97.5023 94.3639 97.0188 96.0908 97.0188C182.363 97.0879 268.636 97.0879 354.978 97.0188C356.567 97.0188 357.05 97.3642 357.05 99.091C356.981 182.877 356.981 266.732 356.981 350.587C356.981 352.176 356.636 352.659 354.909 352.659C311.807 352.659 268.636 352.659 225.534 352.659ZM180.153 154.212C176.285 154.212 172.417 154.281 168.48 154.212C167.167 154.212 166.477 154.764 166.546 156.007C166.684 161.741 164.888 167.059 163.368 172.516C153.076 208.227 142.853 243.938 132.631 279.649C131.94 281.997 132.216 282.274 134.634 282.274C139.607 282.274 144.58 282.205 149.554 282.274C151.419 282.274 152.247 281.583 152.662 279.787C155.494 269.081 158.464 258.374 161.296 247.599C161.572 246.563 161.987 246.217 163.023 246.217C174.627 246.217 186.232 246.217 197.767 246.217C198.734 246.217 199.148 246.494 199.355 247.461C200.184 250.845 201.22 254.23 202.187 257.545C204.26 265.074 206.332 272.534 208.404 280.063C208.68 281.168 209.164 282.136 210.545 282.136C216.762 282.136 223.048 282.136 229.264 282.136C230.369 282.136 230.715 281.514 230.508 280.478C230.369 279.994 230.231 279.58 230.093 279.096C217.867 238.067 205.641 196.968 193.484 155.938C193.07 154.488 192.379 154.143 191.067 154.143C187.475 154.281 183.814 154.212 180.153 154.212ZM314.017 232.195C313.948 232.195 313.81 232.195 313.741 232.195C313.741 218.104 313.741 204.013 313.741 189.992C313.741 188.265 313.258 187.643 311.462 187.643C306.557 187.712 301.653 187.643 296.749 187.643C293.572 187.643 293.572 187.643 293.572 190.751C293.572 214.444 293.572 238.205 293.572 261.897C293.572 263.209 293.226 263.762 291.914 264.176C287.286 265.696 282.52 266.041 277.754 265.489C270.846 264.66 267.047 261.068 265.459 254.299C264.906 252.02 264.837 249.74 264.837 247.461C264.837 228.396 264.837 209.332 264.837 190.337C264.837 187.781 264.768 187.712 262.143 187.712C256.894 187.712 251.575 187.712 246.325 187.712C243.493 187.712 243.424 187.85 243.424 190.751C243.424 210.506 243.424 230.33 243.424 250.085C243.424 253.884 243.701 257.684 244.529 261.483C246.809 272.189 252.956 279.511 263.525 282.757C271.192 285.106 279.066 285.037 286.941 284.139C295.989 283.103 304.623 280.271 313.119 277.093C314.363 276.61 314.777 275.988 314.708 274.676C314.363 269.633 314.017 264.66 314.086 259.618C314.017 250.431 314.017 241.313 314.017 232.195Z" fill="#002620"/>
<path d="M180.153 154.212C183.814 154.212 187.406 154.212 191.067 154.212C192.379 154.212 193.07 154.557 193.484 156.008C205.641 197.106 217.867 238.136 230.093 279.165C230.231 279.649 230.369 280.063 230.508 280.547C230.715 281.583 230.37 282.205 229.264 282.205C223.048 282.205 216.762 282.205 210.545 282.205C209.164 282.205 208.75 281.238 208.404 280.132C206.332 272.603 204.26 265.144 202.188 257.615C201.221 254.23 200.253 250.914 199.356 247.53C199.079 246.563 198.734 246.287 197.767 246.287C186.163 246.287 174.558 246.287 163.023 246.287C161.987 246.287 161.572 246.632 161.296 247.668C158.464 258.374 155.494 269.081 152.662 279.856C152.178 281.583 151.419 282.343 149.554 282.343C144.58 282.274 139.607 282.343 134.634 282.343C132.216 282.343 131.94 281.997 132.631 279.718C142.853 244.007 153.145 208.296 163.368 172.585C164.888 167.197 166.753 161.81 166.546 156.077C166.477 154.833 167.167 154.281 168.48 154.281C172.417 154.281 176.285 154.212 180.153 154.212ZM180.153 172.585C179.393 176.315 178.703 179.562 177.943 182.877C174.765 197.037 170.966 211.059 167.167 225.15C166.753 226.67 166.822 227.222 168.687 227.222C176.492 227.153 184.298 227.153 192.172 227.222C193.761 227.222 194.106 226.877 193.692 225.288C190.514 213.269 187.406 201.251 184.298 189.232C182.916 183.844 181.604 178.456 180.153 172.585Z" fill="#5BBBA8"/>
<path d="M314.018 232.195C314.018 241.313 314.018 250.362 314.018 259.479C314.018 264.522 314.294 269.564 314.639 274.537C314.708 275.85 314.363 276.471 313.051 276.955C304.554 280.132 295.92 282.964 286.872 284C278.997 284.898 271.123 284.968 263.456 282.619C252.888 279.373 246.671 272.051 244.461 261.344C243.632 257.614 243.355 253.815 243.355 249.947C243.355 230.192 243.355 210.368 243.355 190.613C243.355 187.712 243.494 187.574 246.257 187.574C251.506 187.574 256.825 187.574 262.074 187.574C264.699 187.574 264.768 187.643 264.768 190.199C264.768 209.263 264.768 228.327 264.768 247.322C264.768 249.602 264.906 251.95 265.39 254.161C266.979 260.93 270.778 264.522 277.685 265.351C282.451 265.903 287.217 265.558 291.845 264.038C293.088 263.624 293.503 263.071 293.503 261.759C293.434 238.067 293.503 214.305 293.503 190.613C293.503 187.505 293.503 187.505 296.68 187.505C301.584 187.505 306.489 187.574 311.393 187.505C313.189 187.436 313.672 188.127 313.672 189.853C313.603 203.944 313.672 218.035 313.672 232.057C313.81 232.195 313.879 232.195 314.018 232.195Z" fill="#5BBCA9"/>
<path d="M180.154 172.585C181.604 178.456 182.917 183.844 184.298 189.163C187.406 201.182 190.515 213.2 193.692 225.219C194.106 226.808 193.83 227.153 192.172 227.153C184.367 227.084 176.493 227.084 168.687 227.153C166.822 227.153 166.822 226.601 167.168 225.081C170.898 211.059 174.697 197.037 177.943 182.808C178.703 179.631 179.394 176.315 180.154 172.585Z" fill="#002620"/>
</svg>
