<svg width="450" height="450" viewBox="0 0 450 450" fill="none" xmlns="http://www.w3.org/2000/svg">
<path d="M214.843 323.185L282.06 311.298L282.682 311.153L248.118 269.983C236.533 256.25 225.012 242.464 213.554 228.624C213.554 228.421 249.248 130.019 249.45 129.671C249.508 129.555 273.806 171.537 308.327 231.437L367.551 334.217L368 335L258.138 334.986L148.277 334.971L214.843 323.2V323.185ZM83 310.66C83 310.602 99.2903 282.291 119.201 247.745L155.401 184.932L197.582 149.488C220.779 130.004 239.821 114.029 239.908 114C239.753 114.596 239.524 115.171 239.227 115.711L193.412 214.07L148.422 310.66L115.711 310.704C97.7264 310.733 83 310.704 83 310.646V310.66Z" fill="#0089D6"/>
</svg>
