<svg width="450" height="450" viewBox="0 0 450 450" fill="none" xmlns="http://www.w3.org/2000/svg">
<path d="M86.6074 92.0008C83.8054 91.9647 81.1308 93.1694 79.301 95.2919C77.4713 97.4143 76.6738 100.237 77.1224 103.003L117.386 347.432C118.422 353.607 123.741 358.146 130.001 358.198H323.164C327.863 358.258 331.897 354.869 332.649 350.23L372.913 103.051C373.361 100.285 372.564 97.4618 370.734 95.3393C368.904 93.2168 366.23 92.0121 363.428 92.0482L86.6074 92.0008ZM256.152 268.659H194.499L177.806 181.444H271.091L256.152 268.659Z" fill="#2684FF"/>
<path d="M359.865 181.321H270.919L255.992 268.466H194.389L121.649 354.806C123.955 356.8 126.894 357.908 129.942 357.934H322.998C327.693 357.994 331.724 354.608 332.475 349.973L359.865 181.321Z" fill="url(#paint0_linear)"/>
<defs>
<linearGradient id="paint0_linear" x1="380.431" y1="205.726" x2="277.684" y2="351.614" gradientUnits="userSpaceOnUse">
<stop offset="0.18" stop-color="#0052CC"/>
<stop offset="1" stop-color="#2684FF"/>
</linearGradient>
</defs>
</svg>
