<svg width="450" height="450" viewBox="0 0 450 450" fill="none" xmlns="http://www.w3.org/2000/svg">
<path d="M369 320.833C369 347.325 347.325 369 320.833 369H128.167C101.675 369 80 347.325 80 320.833V128.167C80 101.675 101.675 80 128.167 80H320.833C347.325 80 369 101.675 369 128.167V320.833Z" fill="#563D7C"/>
<path d="M158.53 142.806H240.461C255.572 142.806 267.708 146.253 276.822 153.194C285.936 160.136 290.516 170.572 290.516 184.597C290.516 193.097 288.439 200.369 284.283 206.414C280.127 212.458 274.177 217.181 266.433 220.486V220.958C276.822 223.178 284.708 228.089 290.044 235.692C295.38 243.342 298.072 252.881 298.072 264.403C298.072 271.014 296.891 277.2 294.53 282.914C292.169 288.675 288.486 293.633 283.433 297.789C278.38 301.944 271.958 305.25 264.072 307.706C256.186 310.161 246.836 311.389 235.975 311.389H158.53V142.806ZM188.044 213.403H236.211C243.294 213.403 249.197 211.419 253.919 207.358C258.641 203.297 261.002 197.536 261.002 189.981C261.002 181.481 258.877 175.483 254.627 172.036C250.377 168.589 244.239 166.842 236.211 166.842H188.044V213.403ZM188.044 287.306H240.225C249.197 287.306 256.186 284.992 261.097 280.317C266.055 275.689 268.558 269.078 268.558 260.578C268.558 252.219 266.102 245.844 261.097 241.311C256.091 236.778 249.197 234.606 240.225 234.606H188.044V287.306Z" fill="white"/>
</svg>
