<svg width="450" height="450" viewBox="0 0 450 450" fill="none" xmlns="http://www.w3.org/2000/svg">
<path d="M96 286.214C96 244.76 96 203.244 96 161.789C96.3735 161.54 96.3735 161.54 96.4357 160.918C96.9959 156.81 98.4275 153.075 100.917 149.776C103.096 146.913 105.834 144.735 108.884 142.992C127.558 132.224 146.231 121.518 164.841 110.75C179.158 102.471 193.536 94.1927 207.852 85.9766C210.217 84.6072 212.52 83.1134 215.072 82.0552C219.554 80.1879 224.222 79.5032 229.015 80.3746C232.563 80.9971 235.799 82.4909 238.911 84.296C269.847 102.098 300.719 119.899 331.654 137.763C335.14 139.755 338.626 141.747 342.111 143.801C345.597 145.917 348.46 148.718 350.452 152.328C344.788 155.565 339.124 158.802 333.46 162.101C328.605 164.902 323.812 167.64 318.957 170.441C314.04 173.242 309.185 176.105 304.267 178.906C302.462 179.902 300.782 181.023 298.914 181.894C298.541 181.272 298.167 180.649 297.732 180.027C290.2 167.951 280.366 158.241 268.104 151.021C256.589 144.237 244.202 140.44 230.882 139.506C224.72 139.07 218.496 139.319 212.333 140.191C201.627 141.747 191.606 145.233 182.27 150.648C168.825 158.428 158.244 169.01 150.525 182.516C143.803 194.218 140.131 206.854 139.446 220.361C139.135 226.025 139.446 231.627 140.317 237.229C141.811 247.499 145.048 257.147 150.09 266.234C150.276 266.608 150.588 266.919 150.588 267.355C150.339 267.728 149.903 267.853 149.53 268.039C144.177 271.151 138.824 274.201 133.471 277.314C124.01 282.729 114.611 288.206 105.15 293.621C103.158 294.742 101.291 295.987 99.1744 296.983C97.5561 294.306 96.7469 291.318 96.4357 288.206C96.3735 287.397 96.6847 286.712 96 286.214Z" fill="#5B8DBC"/>
<path d="M350.515 152.266C351.822 154.196 352.506 156.374 353.004 158.615C353.253 159.798 353.502 160.918 353.564 162.163C353.564 162.412 353.502 162.785 354 162.723C354 204.053 354 245.383 354 286.712C353.44 286.712 353.627 287.148 353.564 287.459C353.316 290.136 352.631 292.688 351.573 295.115C351.261 295.8 351.013 296.485 350.515 297.045C350.39 296.796 350.141 296.671 349.892 296.547C346.22 294.368 342.485 292.252 338.813 290.074C334.58 287.646 330.41 285.219 326.177 282.729C322.692 280.675 319.144 278.621 315.658 276.629C311.799 274.388 307.878 272.147 304.019 269.907C302.4 268.973 300.844 267.977 299.164 267.23C298.977 266.794 298.541 266.67 298.168 266.483C287.399 260.259 276.694 254.034 265.925 247.81C264.867 247.188 263.809 246.565 262.689 245.943C262.378 245.756 262.129 245.507 261.755 245.881C261.631 245.196 261.008 245.009 260.572 244.698C255.842 241.959 251.174 239.283 246.443 236.544C240.157 232.934 233.87 229.262 227.646 225.589C226.899 225.153 226.089 224.904 225.529 224.22C225.841 223.971 226.152 223.722 226.463 223.535C230.135 221.419 233.808 219.303 237.48 217.186C245.198 212.767 252.917 208.285 260.635 203.866C260.946 203.679 261.319 203.555 261.506 203.119C262.004 203.244 262.315 202.932 262.689 202.683C274.515 195.899 286.279 189.114 298.105 182.268C298.417 182.081 298.728 181.956 298.977 181.707C300.844 180.836 302.587 179.716 304.33 178.72C309.247 175.919 314.102 173.118 319.019 170.255C323.874 167.454 328.667 164.715 333.522 161.914C339.124 158.739 344.788 155.503 350.515 152.266ZM291.445 234.303C291.445 235.61 291.445 236.917 291.445 238.225C291.445 239.221 291.445 239.221 292.379 239.221C294.993 239.221 297.67 239.221 300.284 239.221C301.218 239.221 301.218 239.221 301.218 238.225C301.218 235.61 301.218 233.058 301.218 230.444C301.218 229.386 301.218 229.386 302.276 229.324C304.765 229.324 307.317 229.324 309.807 229.324C310.99 229.324 310.99 229.324 310.99 228.203C310.99 225.651 310.99 223.099 310.99 220.547C310.99 219.552 310.99 219.552 309.994 219.552C307.38 219.552 304.828 219.552 302.213 219.552C301.218 219.552 301.218 219.552 301.218 218.493C301.218 215.879 301.218 213.327 301.218 210.713C301.218 209.779 301.218 209.717 300.284 209.717C297.67 209.717 294.993 209.717 292.379 209.717C291.445 209.717 291.445 209.717 291.445 210.651C291.445 213.14 291.445 215.692 291.445 218.182C291.445 219.552 291.632 219.489 290.2 219.489C287.586 219.489 285.034 219.489 282.42 219.489C281.798 219.489 281.611 219.676 281.611 220.298C281.611 221.73 281.611 223.162 281.611 224.593C281.611 225.9 281.611 227.145 281.611 228.452C281.611 229.324 281.611 229.324 282.42 229.324C282.669 229.324 282.856 229.324 283.105 229.324C285.594 229.324 288.084 229.324 290.512 229.324C291.321 229.324 291.383 229.324 291.383 230.133C291.508 231.627 291.445 232.996 291.445 234.303ZM327.235 234.241C327.235 235.61 327.235 237.042 327.235 238.411C327.235 239.221 327.235 239.283 328.045 239.283C330.721 239.283 333.398 239.283 336.074 239.283C337.008 239.283 337.008 239.283 337.008 238.287C337.008 235.673 337.008 233.121 337.008 230.506C337.008 229.448 337.008 229.448 338.128 229.448C340.742 229.448 343.419 229.448 346.033 229.448C346.593 229.448 346.842 229.324 346.842 228.639C346.842 225.9 346.842 223.224 346.842 220.485C346.842 219.614 346.842 219.614 345.909 219.614C343.294 219.614 340.742 219.614 338.128 219.614C337.07 219.614 337.07 219.614 337.07 218.556C337.07 215.941 337.07 213.265 337.07 210.651C337.07 209.842 337.07 209.841 336.199 209.841C333.584 209.841 330.908 209.841 328.294 209.841C327.173 209.841 327.235 209.779 327.235 210.962C327.235 213.576 327.235 216.128 327.235 218.742C327.235 219.614 327.235 219.614 326.364 219.676C325.991 219.676 325.679 219.676 325.306 219.676C322.941 219.676 320.575 219.676 318.21 219.676C317.712 219.676 317.401 219.8 317.401 220.361C317.401 223.162 317.401 226.025 317.401 228.826C317.401 229.262 317.525 229.448 318.023 229.448C318.272 229.448 318.584 229.448 318.833 229.448C321.26 229.448 323.688 229.448 326.115 229.448C327.173 229.448 327.173 229.448 327.173 230.569C327.235 231.751 327.235 232.996 327.235 234.241Z" fill="#1D5A8F"/>
<path d="M96.4357 288.019C96.3112 287.895 96.249 287.584 96 287.646C96 287.21 96 286.712 96 286.277C96.6847 286.712 96.3735 287.397 96.4357 288.019Z" fill="#1C4674"/>
<path d="M298.976 181.77C298.79 182.081 298.416 182.205 298.105 182.33C286.279 189.115 274.515 195.899 262.688 202.746C262.315 202.933 262.004 203.306 261.506 203.182C261.506 202.746 261.132 202.435 260.946 202.061C252.729 188.866 237.729 181.023 221.857 182.205C214.201 182.766 207.167 185.193 200.88 189.488C184.386 200.754 177.913 221.606 185.382 240.528C186.066 242.333 186.876 244.076 187.996 245.694C188.805 247.561 190.05 249.18 191.233 250.736C200.445 262.624 215.383 269.16 231.069 266.795C240.716 265.363 248.87 261.13 255.655 254.097C258.082 251.607 260.136 248.931 261.817 245.819C262.128 245.445 262.439 245.694 262.751 245.881C263.809 246.503 264.867 247.126 265.987 247.748C276.755 253.972 287.461 260.197 298.23 266.421C298.603 266.608 299.039 266.732 299.225 267.168C298.852 267.728 298.479 268.351 298.105 268.911C291.632 279.555 283.229 288.393 272.959 295.364C261.568 303.083 248.995 307.813 235.301 309.494C229.015 310.241 222.728 310.365 216.441 309.743C209.159 308.996 202.125 307.44 195.279 304.888C176.419 297.792 161.854 285.53 151.397 268.288C151.148 267.915 151.023 267.417 150.588 267.168C150.525 266.732 150.276 266.359 150.09 266.048C145.048 256.96 141.811 247.312 140.317 237.042C139.508 231.44 139.197 225.776 139.446 220.174C140.131 206.667 143.865 194.032 150.525 182.33C158.244 168.885 168.887 158.242 182.27 150.461C191.606 145.046 201.69 141.623 212.333 140.004C218.495 139.071 224.658 138.884 230.882 139.32C244.202 140.253 256.651 144.112 268.104 150.835C280.366 158.055 290.262 167.765 297.732 179.84C298.167 180.525 298.541 181.147 298.976 181.77Z" fill="white"/>
<path d="M150.588 267.168C150.961 267.479 151.148 267.915 151.397 268.288C161.854 285.53 176.419 297.729 195.279 304.887C202.126 307.439 209.159 309.058 216.442 309.742C222.728 310.365 229.015 310.303 235.301 309.493C248.995 307.813 261.506 303.145 272.959 295.364C283.229 288.393 291.632 279.554 298.105 268.911C298.479 268.288 298.852 267.728 299.226 267.168C300.906 267.915 302.462 268.973 304.081 269.844C307.94 272.085 311.861 274.326 315.72 276.567C319.206 278.621 322.754 280.612 326.239 282.666C330.472 285.094 334.642 287.521 338.875 290.011C342.61 292.19 346.282 294.306 349.954 296.484C350.203 296.609 350.452 296.733 350.577 296.982C349.519 299.223 347.9 301.028 346.095 302.709C343.605 305.012 340.618 306.568 337.692 308.249C325.492 315.282 313.293 322.316 301.093 329.349C288.146 336.818 275.137 344.288 262.191 351.757C254.348 356.301 246.505 360.782 238.663 365.326C235.799 366.944 232.874 368.251 229.637 368.874C224.098 369.994 218.869 369.123 213.827 366.695C210.84 365.264 208.101 363.459 205.238 361.84C196.835 356.985 188.494 352.13 180.091 347.338C166.771 339.682 153.451 332.026 140.131 324.37C129.487 318.27 118.844 312.108 108.262 306.008C104.901 304.078 102.038 301.526 99.9837 298.227C99.6725 297.792 99.3613 297.356 99.2368 296.796C101.291 295.862 103.22 294.617 105.212 293.435C114.673 288.019 124.072 282.542 133.533 277.127C138.886 274.015 144.239 270.965 149.592 267.852C149.903 267.666 150.339 267.541 150.588 267.168Z" fill="#1C4674"/>
<path d="M187.996 245.632C186.876 244.013 186.129 242.271 185.382 240.465C177.913 221.606 184.448 200.754 200.881 189.426C207.23 185.069 214.201 182.703 221.857 182.143C237.667 180.961 252.667 188.803 260.946 201.999C261.195 202.372 261.506 202.684 261.506 203.119C261.319 203.493 260.946 203.679 260.635 203.866C252.916 208.285 245.198 212.767 237.48 217.186C233.808 219.303 230.135 221.419 226.463 223.535C226.152 223.722 225.84 223.971 225.529 224.22C225.094 224.22 224.782 224.469 224.471 224.656C213.641 230.88 202.748 237.167 191.918 243.391C190.611 244.2 189.366 245.071 187.996 245.632Z" fill="#5B8DBC"/>
<path d="M187.996 245.632C189.365 245.071 190.673 244.2 191.98 243.453C202.81 237.229 213.703 230.942 224.533 224.718C224.844 224.531 225.156 224.282 225.591 224.282C226.151 224.967 226.961 225.216 227.708 225.651C233.932 229.324 240.219 232.934 246.505 236.606C251.236 239.345 255.904 242.021 260.634 244.76C261.132 245.009 261.755 245.258 261.817 245.943C260.199 248.993 258.082 251.731 255.655 254.221C248.87 261.192 240.716 265.487 231.069 266.919C215.383 269.284 200.383 262.749 191.233 250.86C189.988 249.117 188.805 247.499 187.996 245.632Z" fill="#1C4674"/>
<path d="M291.445 234.303C291.445 232.934 291.445 231.565 291.445 230.257C291.445 229.448 291.445 229.448 290.574 229.448C288.084 229.448 285.594 229.448 283.167 229.448C282.918 229.448 282.731 229.448 282.482 229.448C281.673 229.448 281.673 229.448 281.673 228.577C281.673 227.27 281.673 226.025 281.673 224.718C281.673 223.286 281.673 221.855 281.673 220.423C281.673 219.801 281.86 219.614 282.482 219.614C285.096 219.614 287.648 219.614 290.262 219.614C291.632 219.614 291.445 219.676 291.507 218.307C291.507 215.817 291.507 213.265 291.507 210.775C291.507 209.842 291.507 209.842 292.441 209.842C295.055 209.842 297.732 209.842 300.346 209.842C301.28 209.842 301.28 209.842 301.28 210.837C301.28 213.452 301.28 216.004 301.28 218.618C301.28 219.614 301.28 219.676 302.276 219.676C304.89 219.676 307.442 219.676 310.056 219.676C311.052 219.676 311.052 219.676 311.052 220.672C311.052 223.224 311.052 225.776 311.052 228.328C311.052 229.386 311.052 229.448 309.869 229.448C307.379 229.448 304.828 229.448 302.338 229.448C301.28 229.448 301.28 229.448 301.28 230.569C301.28 233.183 301.28 235.735 301.28 238.349C301.28 239.283 301.28 239.345 300.346 239.345C297.732 239.345 295.055 239.345 292.441 239.345C291.507 239.345 291.507 239.345 291.507 238.349C291.445 236.98 291.445 235.673 291.445 234.303Z" fill="#FEFEFE"/>
<path d="M327.235 234.241C327.235 232.996 327.235 231.751 327.235 230.506C327.235 229.448 327.235 229.386 326.177 229.386C323.75 229.386 321.322 229.386 318.895 229.386C318.646 229.386 318.334 229.386 318.085 229.386C317.65 229.386 317.463 229.199 317.463 228.763C317.463 225.962 317.463 223.099 317.463 220.298C317.463 219.738 317.712 219.614 318.272 219.614C320.637 219.614 323.003 219.614 325.368 219.614C325.741 219.614 326.053 219.614 326.426 219.614C327.297 219.614 327.297 219.614 327.297 218.68C327.297 216.066 327.297 213.514 327.297 210.9C327.297 209.717 327.235 209.779 328.356 209.779C330.97 209.779 333.646 209.779 336.26 209.779C337.07 209.779 337.132 209.779 337.132 210.588C337.132 213.203 337.132 215.879 337.132 218.493C337.132 219.551 337.132 219.551 338.19 219.551C340.804 219.551 343.356 219.551 345.97 219.551C346.842 219.551 346.904 219.551 346.904 220.423C346.904 223.162 346.904 225.838 346.904 228.577C346.904 229.199 346.655 229.386 346.095 229.386C343.481 229.386 340.804 229.386 338.19 229.386C337.132 229.386 337.07 229.386 337.07 230.444C337.07 233.058 337.07 235.61 337.07 238.224C337.07 239.22 337.07 239.22 336.136 239.22C333.46 239.22 330.783 239.22 328.107 239.22C327.297 239.22 327.297 239.22 327.297 238.349C327.235 237.042 327.235 235.61 327.235 234.241Z" fill="#FEFEFE"/>
</svg>
