<svg width="450" height="450" viewBox="0 0 450 450" fill="none" xmlns="http://www.w3.org/2000/svg">
<path d="M262.281 168.31C261.671 177.943 261.244 187.576 260.33 197.149C257.464 227.39 251.123 256.9 243.014 286.105C239.356 299.335 235.332 312.444 231.369 325.613C230.881 327.199 230.149 328.723 229.54 330.308C229.113 331.406 228.381 331.954 227.162 331.893C225.577 331.832 223.991 331.71 222.467 331.893C220.577 332.137 219.723 331.223 219.236 329.576C218.138 325.979 217.102 322.382 215.882 318.785C208.2 295.616 202.286 271.898 197.164 248.059C194.604 235.987 192.653 223.793 190.701 211.599C188.628 198.734 187.714 185.747 187.409 172.76C187.043 155.567 188.202 138.556 192.774 121.85C194.908 114.107 197.774 106.668 201.798 99.6569C204.359 95.0841 207.651 91.121 211.797 87.8896C220.699 80.878 229.54 81.1219 238.258 88.3773C242.77 92.1575 246.063 96.7913 248.806 101.913C254.538 112.644 257.769 124.106 259.659 136.056C261.427 146.787 261.854 157.518 262.281 168.31Z" fill="#989897"/>
<path d="M204.968 81.061C198.384 84.0486 192.043 87.5239 186.25 91.8528C172.044 102.523 163.448 116.851 159.119 133.922C155.887 146.726 155.277 159.774 156.253 172.883C158.814 208.55 170.337 241.718 184.726 274.033C192.896 292.385 202.347 310.066 212.956 327.077C213.077 327.26 213.199 327.443 213.138 327.869C212.529 327.443 211.919 327.016 211.309 326.528C210.7 326.04 210.09 325.614 209.541 325.126C196.372 313.663 185.519 300.128 175.825 285.739C159.302 261.229 146.498 235.011 138.511 206.477C135.462 195.564 133.328 184.467 132.596 173.126C131.621 158.006 132.718 143.19 138.389 128.923C145.766 110.388 159.18 97.706 177.044 89.353C184.726 85.8167 192.713 83.3169 200.944 81.4878C202.286 81.2439 203.627 81.2439 204.968 81.061Z" fill="#989897"/>
<path d="M244.234 81C251.123 81.4878 257.22 83.4998 263.195 85.5118C275.511 89.7188 286.669 95.9378 295.936 105.205C306.423 115.753 312.642 128.496 315.569 143.007C317.215 151.177 317.886 159.469 317.581 167.761C317.032 181.845 314.654 195.685 310.569 209.16C298.741 248.242 279.474 283.178 252.099 313.541C247.709 318.419 242.587 322.565 237.771 327.077C237.466 327.321 237.1 327.565 236.551 327.626C236.917 326.955 237.344 326.345 237.71 325.674C256.611 294.884 271.914 262.448 282.767 228C286.547 215.989 289.535 203.795 291.608 191.357C293.254 181.113 294.29 170.87 294.107 160.505C293.863 146.238 291.669 132.276 285.632 119.168C277.767 102.096 264.781 90.2065 247.77 82.5243C246.672 82.0975 245.697 81.6707 244.234 81Z" fill="#989897"/>
<path d="M154.973 95.511C150.827 99.4741 146.315 103.376 142.23 107.705C131.194 119.35 123.695 132.886 120.403 148.677C118.634 157.457 118.269 166.298 119.122 175.199C121.134 196.966 129.06 216.842 139.06 235.987C150.522 257.875 164.667 277.935 179.727 297.445C186.434 306.103 193.384 314.517 200.213 323.114C200.396 323.358 200.579 323.601 200.579 324.089C198.323 321.955 196.006 319.882 193.811 317.687C163.082 286.836 138.206 251.961 121.134 211.782C117.049 202.087 113.757 192.088 111.989 181.723C110.769 174.895 109.794 168.066 110.038 161.115C110.647 143.678 116.927 128.557 128.451 115.57C136.255 106.669 146.498 99.0473 154.973 95.511Z" fill="#989897"/>
<path d="M248.685 324.272C253.501 318.297 258.318 312.383 263.135 306.347C278.316 287.202 292.827 267.509 305.082 246.352C314.35 230.317 322.276 213.672 327.032 195.685C329.714 185.686 331.3 175.504 331.117 165.078C330.873 145.141 324.288 127.52 311.545 112.278C308.923 109.168 306.119 106.181 303.253 103.315C300.388 100.51 297.278 98.0107 294.108 95.2061C294.839 95.5719 295.51 95.8158 296.12 96.1206C315.508 106.181 329.47 121.058 336.604 141.97C338.86 148.555 339.531 155.445 339.592 162.396C339.774 178.431 335.689 193.612 329.958 208.428C321.117 231.17 308.862 252.022 294.778 271.838C281.487 290.616 266.671 308.054 249.721 323.601C249.416 323.845 249.111 324.15 248.807 324.394C248.807 324.333 248.746 324.272 248.685 324.272Z" fill="#989897"/>
<path d="M200.944 345.002C216.431 345.002 231.673 345.002 247.038 345.002C246.977 345.368 247.038 345.856 246.916 346.282C245.087 353.599 243.258 360.854 241.429 368.171C241.124 369.39 240.636 370 239.234 370C229.296 369.939 219.357 369.939 209.419 370C208.383 370 207.651 369.939 207.346 368.719C205.334 361.22 203.261 353.721 201.249 346.221C201.127 345.977 201.066 345.673 200.944 345.002Z" fill="#61A830"/>
</svg>
