<svg width="450" height="450" viewBox="0 0 450 450" fill="none" xmlns="http://www.w3.org/2000/svg">
<path d="M98.907 296.478C97.083 293.115 96.228 289.524 96.057 285.762C96 284.679 96 283.596 96 282.513C96 243.696 96 204.878 96 166.061C96 163.154 96.114 160.304 96.912 157.511C98.565 151.526 102.099 146.966 107.4 143.717C111.276 141.38 115.152 139.1 119.085 136.877C131.967 129.467 144.849 122.057 157.732 114.647C174.433 105.013 191.077 95.3804 207.778 85.8043C209.887 84.6073 211.939 83.2393 214.219 82.2703C221.914 78.9072 229.495 79.3062 236.791 83.2963C242.491 86.4313 248.077 89.7373 253.721 92.9864C282.506 109.574 311.291 126.161 340.076 142.748C343.496 144.686 346.517 147.08 348.797 150.329C349.196 150.899 349.596 151.469 349.881 152.096C349.596 152.267 349.311 152.495 348.969 152.666C344.066 155.459 339.164 158.309 334.319 161.102C329.474 163.895 324.629 166.688 319.784 169.481C313.685 173.015 307.586 176.492 301.487 180.026C300.461 180.596 299.549 181.394 298.352 181.565C298.067 181.166 297.839 180.824 297.554 180.425C292.652 172.331 286.61 165.206 279.314 159.164C265.178 147.365 248.933 140.753 230.578 139.328C222.256 138.701 213.991 139.271 205.84 141.152C183.667 146.282 166.054 158.252 153.343 177.062C141.771 194.219 137.268 213.258 139.491 233.835C140.517 243.354 143.082 252.474 147.187 261.138C148.156 263.19 149.296 265.128 150.265 267.123C149.866 267.351 149.41 267.522 149.011 267.807C141.999 271.854 135.045 275.844 128.034 279.891C120.453 284.223 112.929 288.612 105.348 292.944C103.239 294.027 101.13 295.338 98.907 296.478Z" fill="#9A4993"/>
<path d="M98.9072 296.478C101.13 295.395 103.239 294.027 105.405 292.83C112.986 288.498 120.51 284.109 128.092 279.777C135.103 275.73 142.057 271.74 149.068 267.693C149.467 267.465 149.866 267.237 150.322 267.009C150.55 267.351 150.778 267.636 150.949 267.978C155.794 276.186 161.836 283.311 169.132 289.467C182.356 300.639 197.632 307.251 214.846 309.246C222.256 310.101 229.667 309.987 237.077 308.847C244.487 307.764 251.612 305.769 258.452 302.748C273.614 296.136 285.869 285.933 295.217 272.31C296.414 270.543 297.554 268.719 298.694 266.895C298.979 267.009 299.264 267.123 299.549 267.294C302.969 269.289 306.389 271.284 309.866 273.279C317.048 277.44 324.23 281.544 331.413 285.705C337.683 289.353 343.953 293.001 350.166 296.592C348.684 299.556 346.461 301.95 343.782 303.945C342.699 304.743 341.559 305.484 340.362 306.168C306.389 325.72 272.36 345.328 238.388 364.879C235.367 366.646 232.232 368.014 228.755 368.641C224.764 369.382 220.831 368.926 217.012 367.729C214.39 366.874 211.996 365.62 209.602 364.252C186.574 350.8 163.432 337.576 140.29 324.295C129.859 318.253 119.37 312.21 108.939 306.225C105.633 304.344 102.669 302.007 100.446 298.872C99.7622 298.188 99.1352 297.447 98.9072 296.478Z" fill="#672575"/>
<path d="M350.052 296.706C343.781 293.058 337.568 289.41 331.298 285.819C324.116 281.658 316.934 277.497 309.752 273.393C306.332 271.398 302.912 269.403 299.435 267.408C299.15 267.237 298.865 267.123 298.58 267.009C298.523 266.439 297.953 266.325 297.611 266.154C287.636 260.397 277.661 254.64 267.686 248.883C265.919 247.857 264.095 246.831 262.328 245.805C261.986 245.634 261.701 245.292 261.302 245.634C261.188 245.235 260.846 245.007 260.504 244.779C259.991 244.437 259.421 244.152 258.908 243.81C253.607 240.732 248.306 237.711 243.061 234.633C238.387 231.954 233.713 229.218 229.039 226.482C227.671 225.684 226.303 225.057 225.049 224.088C226.189 223.119 227.557 222.549 228.811 221.808C233.599 219.015 238.444 216.222 243.232 213.486C248.876 210.237 254.462 206.988 260.105 203.796C260.447 203.625 260.789 203.454 261.017 203.112C261.416 203.169 261.701 202.941 261.986 202.77C273.842 195.93 285.698 189.146 297.554 182.306C297.839 182.135 298.238 182.021 298.295 181.622C299.492 181.451 300.404 180.653 301.43 180.083C307.529 176.606 313.628 173.072 319.727 169.538C324.572 166.745 329.417 163.952 334.262 161.159C339.164 158.366 344.066 155.516 348.912 152.723C349.197 152.552 349.482 152.381 349.824 152.153C351.363 154.433 352.104 157.055 352.617 159.734C352.959 161.615 353.073 163.496 353.073 165.434C353.073 204.822 353.073 244.266 353.073 283.653C353.073 288.099 352.275 292.374 350.223 296.421C350.223 296.421 350.109 296.592 350.052 296.706ZM313.742 211.149C312.374 211.149 311.006 211.149 309.638 211.149C308.498 211.149 308.498 211.149 308.498 209.952C308.498 208.299 308.498 206.703 308.498 205.05C308.498 204.195 308.498 204.195 307.643 204.195C305.363 204.195 303.14 204.195 300.86 204.195C300.062 204.195 300.062 204.195 300.005 205.05C300.005 206.76 300.005 208.47 300.005 210.18C300.005 211.092 300.005 211.092 299.093 211.092C297.44 211.092 295.73 211.092 294.077 211.092C293.222 211.092 293.222 211.092 293.222 211.89C293.222 214.17 293.222 216.507 293.222 218.787C293.222 219.414 293.45 219.585 294.02 219.585C295.73 219.585 297.44 219.585 299.15 219.585C299.948 219.585 300.005 219.585 300.005 220.44C300.005 223.29 300.005 226.14 300.005 228.99C300.005 229.788 300.005 229.845 299.15 229.845C297.44 229.845 295.73 229.845 294.02 229.845C293.393 229.845 293.222 230.016 293.222 230.643C293.279 232.923 293.222 235.26 293.222 237.54C293.222 238.11 293.393 238.395 294.02 238.338C295.616 238.281 297.212 238.338 298.808 238.338C300.176 238.338 300.062 238.281 300.062 239.649C300.062 241.245 300.062 242.841 300.062 244.437C300.062 245.235 300.062 245.292 300.917 245.292C303.14 245.292 305.363 245.292 307.586 245.292C308.498 245.292 308.498 245.292 308.498 244.266C308.498 242.613 308.498 240.903 308.498 239.25C308.498 238.395 308.498 238.395 309.296 238.395C312.203 238.395 315.053 238.395 317.96 238.395C318.758 238.395 318.758 238.395 318.758 239.25C318.758 241.017 318.758 242.727 318.758 244.494C318.758 245.121 318.986 245.292 319.556 245.292C321.836 245.292 324.059 245.292 326.339 245.292C327.194 245.292 327.251 245.292 327.251 244.38C327.251 242.727 327.251 241.017 327.251 239.364C327.251 238.452 327.251 238.395 328.22 238.395C329.873 238.395 331.469 238.395 333.122 238.395C334.091 238.395 334.091 238.395 334.091 237.483C334.091 235.26 334.091 233.037 334.091 230.814C334.091 229.959 334.091 229.959 333.179 229.959C331.526 229.959 329.816 229.959 328.163 229.959C327.251 229.959 327.251 229.959 327.251 229.047C327.251 226.254 327.251 223.461 327.251 220.611C327.251 219.699 327.251 219.699 328.163 219.699C329.873 219.699 331.583 219.699 333.293 219.699C334.091 219.699 334.148 219.699 334.148 218.844C334.148 216.564 334.148 214.341 334.148 212.061C334.148 211.263 334.148 211.206 333.293 211.206C331.583 211.206 329.873 211.206 328.163 211.206C327.251 211.206 327.251 211.206 327.251 210.294C327.251 208.641 327.251 206.931 327.251 205.278C327.251 204.309 327.251 204.309 326.282 204.309C324.116 204.309 321.893 204.309 319.727 204.309C318.758 204.309 318.758 204.309 318.758 205.278C318.758 206.931 318.758 208.527 318.758 210.18C318.758 211.206 318.758 211.263 317.675 211.263C316.364 211.149 315.053 211.149 313.742 211.149Z" fill="#823185"/>
<path d="M298.295 181.508C298.238 181.907 297.839 182.021 297.554 182.192C285.698 189.032 273.842 195.815 261.985 202.655C261.7 202.826 261.415 203.054 261.016 202.997C260.959 202.883 260.959 202.769 260.902 202.655C252.352 188.405 236.449 180.311 219.919 182.135C214.048 182.762 208.576 184.472 203.446 187.379C186.289 197.069 177.283 217.818 184.123 238.053C184.978 240.618 186.004 243.069 187.486 245.349C187.657 245.748 187.828 246.147 188.056 246.489C197.632 262.335 216.214 270.201 234.568 265.755C242.377 263.874 249.103 259.941 254.746 254.184C257.311 251.619 259.534 248.769 261.244 245.52C261.643 245.178 261.985 245.52 262.27 245.691C264.037 246.717 265.861 247.743 267.629 248.769C277.604 254.526 287.579 260.283 297.554 266.04C297.953 266.268 298.466 266.325 298.523 266.895C297.383 268.719 296.243 270.543 295.046 272.31C285.698 285.933 273.443 296.079 258.28 302.748C251.44 305.769 244.315 307.707 236.905 308.848C229.495 309.931 222.085 310.101 214.675 309.246C197.461 307.251 182.242 300.639 168.961 289.467C161.721 283.311 155.622 276.186 150.777 267.978C150.606 267.636 150.321 267.351 150.15 267.009C149.124 265.014 147.984 263.019 147.072 261.024C143.025 252.36 140.403 243.24 139.377 233.721C137.211 213.144 141.714 194.105 153.228 176.948C165.94 158.081 183.496 146.168 205.726 141.038C213.877 139.157 222.142 138.587 230.464 139.214C248.818 140.639 265.063 147.251 279.2 159.05C286.496 165.092 292.538 172.274 297.44 180.311C297.782 180.71 298.067 181.109 298.295 181.508Z" fill="white"/>
<path d="M187.543 245.349C186.061 243.069 185.035 240.618 184.18 238.053C177.34 217.818 186.346 197.07 203.503 187.379C208.633 184.472 214.105 182.762 219.976 182.135C236.506 180.311 252.41 188.406 260.96 202.656C261.017 202.77 261.017 202.884 261.074 202.998C260.846 203.34 260.504 203.511 260.162 203.682C254.519 206.931 248.933 210.18 243.29 213.372C238.501 216.165 233.656 218.901 228.868 221.694C227.614 222.435 226.246 223.005 225.106 223.974C224.764 223.974 224.536 224.145 224.251 224.316C222.655 225.228 221.059 226.14 219.463 227.052C209.488 232.809 199.513 238.566 189.538 244.323C188.854 244.722 188.284 245.178 187.543 245.349Z" fill="#9A4993"/>
<path d="M187.543 245.349C188.284 245.178 188.854 244.722 189.538 244.38C199.513 238.623 209.488 232.866 219.463 227.109C221.059 226.197 222.655 225.285 224.251 224.373C224.536 224.202 224.821 224.088 225.106 224.031C226.303 225 227.728 225.684 229.096 226.482C233.77 229.218 238.444 231.897 243.119 234.633C248.42 237.711 253.721 240.732 258.965 243.81C259.478 244.095 260.048 244.437 260.561 244.779C260.903 245.007 261.245 245.178 261.359 245.634C259.649 248.826 257.426 251.676 254.861 254.298C249.218 259.998 242.492 263.931 234.682 265.869C216.385 270.315 197.803 262.449 188.17 246.603C187.885 246.09 187.714 245.691 187.543 245.349Z" fill="#672575"/>
<path d="M313.742 211.148C315.053 211.148 316.364 211.148 317.732 211.148C318.815 211.148 318.815 211.148 318.815 210.065C318.815 208.412 318.815 206.816 318.815 205.163C318.815 204.194 318.815 204.194 319.784 204.194C321.95 204.194 324.173 204.194 326.339 204.194C327.308 204.194 327.308 204.194 327.308 205.163C327.308 206.816 327.308 208.526 327.308 210.179C327.308 211.091 327.308 211.091 328.22 211.091C329.93 211.091 331.641 211.091 333.351 211.091C334.149 211.091 334.206 211.091 334.206 211.946C334.206 214.226 334.206 216.449 334.206 218.729C334.206 219.527 334.206 219.584 333.351 219.584C331.641 219.584 329.93 219.584 328.22 219.584C327.365 219.584 327.308 219.584 327.308 220.496C327.308 223.29 327.308 226.083 327.308 228.933C327.308 229.788 327.308 229.788 328.22 229.845C329.873 229.845 331.583 229.845 333.237 229.845C334.149 229.845 334.149 229.845 334.149 230.7C334.149 232.923 334.149 235.146 334.149 237.369C334.149 238.281 334.149 238.281 333.18 238.281C331.527 238.281 329.93 238.281 328.277 238.281C327.308 238.281 327.308 238.281 327.308 239.25C327.308 240.903 327.308 242.613 327.308 244.266C327.308 245.178 327.308 245.178 326.396 245.178C324.116 245.178 321.893 245.178 319.613 245.178C319.043 245.178 318.758 245.007 318.815 244.38C318.872 242.613 318.815 240.903 318.815 239.136C318.815 238.281 318.815 238.281 318.017 238.281C315.11 238.281 312.26 238.281 309.353 238.281C308.555 238.281 308.555 238.281 308.555 239.136C308.555 240.789 308.555 242.499 308.555 244.152C308.555 245.121 308.555 245.178 307.643 245.178C305.42 245.178 303.197 245.178 300.974 245.178C300.119 245.178 300.119 245.178 300.119 244.323C300.119 242.727 300.119 241.131 300.119 239.535C300.119 238.167 300.233 238.224 298.865 238.224C297.269 238.224 295.673 238.224 294.077 238.224C293.45 238.224 293.279 237.996 293.279 237.426C293.279 235.146 293.279 232.809 293.279 230.529C293.279 229.902 293.507 229.731 294.077 229.731C295.787 229.788 297.497 229.731 299.207 229.731C300.062 229.731 300.062 229.731 300.062 228.876C300.062 226.026 300.062 223.176 300.062 220.325C300.062 219.527 300.062 219.47 299.207 219.47C297.497 219.47 295.787 219.47 294.077 219.47C293.507 219.47 293.222 219.299 293.279 218.672C293.336 216.392 293.279 214.055 293.279 211.775C293.279 210.977 293.279 210.977 294.134 210.977C295.787 210.977 297.497 210.977 299.15 210.977C300.005 210.977 300.062 210.977 300.062 210.065C300.062 208.355 300.062 206.645 300.062 204.935C300.062 204.08 300.062 204.08 300.917 204.08C303.197 204.08 305.42 204.08 307.7 204.08C308.498 204.08 308.555 204.08 308.555 204.935C308.555 206.588 308.555 208.184 308.555 209.837C308.555 210.977 308.555 210.977 309.695 211.034C311.006 211.148 312.374 211.148 313.742 211.148ZM313.742 219.584C312.203 219.584 310.721 219.584 309.182 219.584C308.669 219.584 308.498 219.755 308.498 220.268C308.498 223.233 308.498 226.197 308.498 229.161C308.498 229.674 308.669 229.845 309.182 229.845C312.146 229.845 315.11 229.845 318.074 229.845C318.644 229.845 318.815 229.674 318.815 229.104C318.815 226.197 318.815 223.29 318.815 220.325C318.815 219.755 318.644 219.584 318.074 219.584C316.649 219.641 315.167 219.584 313.742 219.584Z" fill="#FEFEFF"/>
<path d="M313.742 219.585C315.167 219.585 316.649 219.585 318.074 219.585C318.644 219.585 318.815 219.756 318.815 220.326C318.815 223.233 318.815 226.14 318.815 229.104C318.815 229.674 318.644 229.845 318.074 229.845C315.11 229.845 312.146 229.845 309.182 229.845C308.669 229.845 308.498 229.674 308.498 229.161C308.498 226.197 308.498 223.233 308.498 220.269C308.498 219.756 308.669 219.585 309.182 219.585C310.721 219.585 312.203 219.585 313.742 219.585Z" fill="#823185"/>
</svg>
