<svg width="450" height="450" viewBox="0 0 450 450" fill="none" xmlns="http://www.w3.org/2000/svg">
<path d="M224.399 369.322L120.217 340.401L97 80H352.11L328.868 340.36L224.399 369.322Z" fill="#1673B6"/>
<path d="M308.971 323.781L328.832 101.292H224.555V347.185L308.971 323.781Z" fill="#35A9DB"/>
<path d="M150.223 197.87L153.086 229.807H224.555V197.87H150.223Z" fill="#EBEBEB"/>
<path d="M144.472 133.229L147.375 165.166H224.555V133.229H144.472Z" fill="#EBEBEB"/>
<path d="M224.555 280.814L224.415 280.852L188.846 271.247L186.572 245.776H154.513L158.987 295.922L224.408 314.083L224.555 314.042V280.814Z" fill="#EBEBEB"/>
<path d="M298.682 197.87L304.447 133.229H224.444V165.166H269.447L266.541 197.87H224.444V229.807H263.771L260.064 271.227L224.444 280.841V314.068L289.917 295.922L290.397 290.526L297.902 206.446L298.682 197.87Z" fill="white"/>
</svg>
