<svg width="450" height="450" viewBox="0 0 450 450" fill="none" xmlns="http://www.w3.org/2000/svg">
<path d="M214.375 90.0694C215.006 90.003 220.484 89.9698 226.494 90.0362C234.364 90.1026 238.614 90.2686 241.536 90.6671C268.564 94.2862 291.94 104.513 312.493 121.712C316.345 124.899 325.111 133.665 328.298 137.516C345.564 158.135 355.659 181.278 359.377 208.67C360.208 214.746 360.208 235.265 359.377 241.341C355.659 268.734 345.564 291.876 328.298 312.495C325.111 316.347 316.345 325.112 312.493 328.3C291.873 345.565 268.73 355.659 241.336 359.377C235.26 360.208 214.74 360.208 208.664 359.377C181.27 355.659 158.127 345.565 137.507 328.3C133.655 325.112 124.889 316.347 121.702 312.495C104.436 291.876 94.3414 268.734 90.6226 241.341C89.7925 235.265 89.7925 214.746 90.6226 208.67C94.3414 181.278 104.436 158.135 121.702 137.516C124.889 133.665 133.655 124.899 137.507 121.712C158.359 104.247 183.926 93.2569 209.892 90.5342C211.718 90.3682 213.744 90.1358 214.375 90.0694ZM221.846 187.652C215.006 186.623 205.974 186.756 199.599 187.951C179.577 191.736 160.053 202.527 150.589 214.978C148.464 217.767 146.14 222.549 145.31 225.836C144.546 228.824 144.38 234.136 144.978 236.793C146.074 241.707 149.759 245.857 155.769 248.978C160.982 251.668 167.225 254.025 170.711 254.656C177.12 255.818 186.35 256.183 192.294 255.552C200.894 254.656 215.802 250.638 223.24 247.218C224.801 246.521 226.494 245.923 227.059 245.923C230.313 245.923 232.869 249.443 231.442 251.9C230.645 253.195 225.432 255.818 219.422 257.91C216.134 259.039 215.371 259.404 215.537 259.835C216.334 261.828 217.761 270.859 218.492 278.296C219.787 291.245 219.986 314.587 218.99 333.081C218.791 336.899 218.592 341.78 218.592 343.872L218.525 347.69L226.494 347.657C237.452 347.624 244.624 346.76 255.714 344.038C264.779 341.813 271.652 339.423 278.791 335.969C283.937 333.479 283.506 334.276 283.141 328.432C282.941 325.677 282.709 321.194 282.609 318.472C282.244 309.075 280.551 286.132 279.256 273.482C276.4 245.259 274.142 234.734 268.331 222.847C264.347 214.68 260.097 208.902 253.19 202.295C248.542 197.846 246.55 196.352 242.366 194.193C235.891 190.873 229.35 188.781 221.846 187.652ZM173.932 325.013C172.637 324.88 172.67 324.614 173.367 331.454C173.766 335.239 174.032 336.501 174.43 336.8C175.791 337.829 175.891 337.464 175.659 332.483C175.526 329.893 175.327 327.171 175.227 326.44C175.028 325.245 174.895 325.112 173.932 325.013ZM158.525 303.696C157.795 303.696 157.761 304.36 158.392 310.171C158.658 312.528 158.957 316.048 159.09 317.974C159.222 319.899 159.521 323.02 159.754 324.946C160.019 326.839 160.152 328.499 160.086 328.632C159.92 328.831 160.683 329.595 161.547 330.093C162.111 330.425 162.012 328.698 160.75 315.981C160.318 311.333 159.92 306.851 159.92 305.987C159.92 305.157 159.754 304.327 159.521 304.095C159.289 303.862 158.857 303.696 158.525 303.696ZM293.401 284.837C293.102 284.804 292.77 284.87 292.637 285.003C292.371 285.236 292.703 327.304 292.936 327.569C293.035 327.669 293.334 327.436 293.666 327.071C294.198 326.473 294.231 324.979 294.065 305.688C293.932 287.294 293.832 284.937 293.401 284.837ZM184.536 290.748L183.395 290.747L183.628 293.47C184.524 304.825 185.255 312.196 185.487 312.429C185.62 312.595 186.085 312.628 186.483 312.495C187.214 312.263 187.214 312.163 187.014 309.042C186.682 304.394 185.852 294.532 185.62 292.474C185.454 290.814 185.387 290.747 184.424 290.747L184.536 290.748ZM133.157 269.796C132.825 269.232 132.028 269.497 132.028 270.195C132.028 270.593 132.526 274.81 133.157 279.591C134.253 288.025 135.681 301.804 135.681 303.896C135.681 304.659 135.913 305.091 136.544 305.522L137.374 306.054L137.208 304.626C137.108 303.829 136.644 299.612 136.179 295.23C134.618 280.72 133.356 270.095 133.157 269.796ZM324.779 269.829C324.646 269.829 323.982 270.394 323.318 271.058L322.089 272.32L322.023 286.564C321.923 302.103 321.823 301.571 323.716 298.782L324.546 297.554L324.779 283.675C324.878 276.072 324.878 269.829 324.779 269.829ZM195.581 263.421C195.415 262.923 194.452 262.624 194.087 263.023C193.987 263.089 194.186 266.111 194.485 269.73C194.817 273.349 195.315 279.525 195.581 283.443C196.312 292.905 196.378 293.403 197.009 293.403C197.573 293.403 197.54 291.71 196.61 278.296C196.345 274.644 196.046 269.929 195.946 267.837C195.814 265.746 195.647 263.753 195.581 263.421ZM118.581 235.199C118.348 233.34 118.049 233.008 117.153 233.605C116.721 233.871 116.688 233.638 121.868 269.431C122.665 274.976 123.428 279.591 123.528 279.691C124.325 280.521 124.192 278.562 122.399 264.849C121.204 255.984 118.879 237.922 118.581 235.199ZM337.23 206.412C337.007 206.412 336.906 209.906 336.899 216.894L336.898 217.767C336.865 224.043 336.799 231.248 336.732 233.804C336.666 236.361 336.5 247.351 336.433 258.208C336.234 279.923 336.134 278.927 338.193 273.98C339.455 270.958 339.488 269.929 339.754 234.9L339.986 207.408L338.791 206.91C338.127 206.644 337.429 206.412 337.23 206.412ZM167.988 262.525C167.092 262.525 167.092 262.458 167.557 268.402C167.996 273.921 167.991 274.139 169.163 274.146L169.453 274.146C170.742 274.161 170.669 274.53 170.18 268.169C169.881 264.583 169.649 263.255 169.283 262.923C168.985 262.724 168.42 262.525 167.988 262.525ZM139.964 247.086L140.163 248.746C140.256 249.58 140.579 252.602 140.918 255.668L140.993 256.349C141.325 259.603 141.757 262.425 141.923 262.591C142.454 263.122 143.65 262.259 143.65 261.33C143.65 260.234 142.687 251.236 142.488 250.406C142.388 250.041 141.79 249.144 141.126 248.414L139.964 247.086ZM120.938 159.662C120.739 159.463 118.78 162.584 118.547 163.481C118.448 163.912 118.813 167.93 119.411 172.446C119.975 176.994 120.872 184.033 121.403 188.151C121.934 192.268 122.897 199.738 123.561 204.752C124.192 209.766 125.089 216.705 125.553 220.191C127.778 237.49 128.774 245.193 129.372 249.742C129.737 252.464 130.036 254.988 130.036 255.287C130.036 255.984 130.368 256.05 131.165 255.453C131.696 255.054 131.696 254.789 131.231 250.904C130.966 248.613 130.501 244.595 130.235 241.939C129.936 239.283 128.376 225.105 126.716 210.396C125.055 195.688 123.129 178.289 122.399 171.748C121.669 165.174 121.004 159.762 120.938 159.662ZM306.616 132.27L306.815 137.051C306.915 139.674 307.081 161.323 307.214 185.162C307.38 224.508 307.446 228.525 307.944 228.89C308.243 229.123 308.741 229.322 309.106 229.322C309.704 229.322 309.704 228.127 309.604 182.074C309.505 141.965 309.438 134.694 309.04 134.229C308.774 133.93 308.143 133.366 307.579 132.967L306.616 132.27ZM138.702 212.256C138.603 212.189 138.005 212.455 137.441 212.853C136.179 213.65 136.179 213.883 136.81 219.195L137.208 222.515L138.271 220.258C139.234 218.133 139.3 217.867 139.101 215.178C139.001 213.65 138.802 212.322 138.702 212.256ZM111.076 178.854C110.977 178.854 110.545 179.85 110.147 181.078L109.383 183.336L111.74 199.605C113.069 208.537 114.297 217.07 114.496 218.531C114.696 219.992 114.961 221.32 115.094 221.453C115.227 221.586 115.625 221.453 116.024 221.121L116.721 220.523L116.09 215.875C115.725 213.318 114.928 207.176 114.297 202.262C113.666 197.314 112.737 190.043 112.239 186.059C111.707 182.108 111.209 178.854 111.076 178.854ZM322.62 188.151C322.421 188.151 322.288 194.061 322.288 204.553L322.289 205.959C322.293 219.312 322.37 220.994 322.82 221.154C323.55 221.42 325.277 221.387 325.31 221.088C325.476 220.224 325.675 199.506 325.609 190.442C325.609 189.313 325.476 189.18 324.281 188.682C323.55 188.383 322.786 188.151 322.62 188.151ZM292.969 181.178H291.906L292.006 198.344C292.135 216.637 292.108 216.717 293.954 216.706L295.061 216.705L295.061 198.98C295.059 184.188 294.989 182.169 294.53 181.709C294.264 181.41 293.533 181.178 292.969 181.178ZM185.885 206.744C188.94 204.885 193.124 207.342 193.124 210.994C193.124 214.779 189.04 217.269 185.885 215.377C182.698 213.418 182.698 208.703 185.885 206.744ZM163.373 203.557C167.424 201.797 171.209 206.18 168.885 209.965C167.656 212.023 165.266 212.588 162.908 211.392C159.654 209.732 159.92 205.051 163.373 203.557ZM146.007 155.479C145.775 154.881 145.642 154.914 144.48 156.01L143.185 157.205L144.115 166.768C144.613 172.047 145.609 181.975 146.306 188.815C147.003 195.654 147.667 202.428 147.8 203.889L148.033 206.512L149.294 205.217L150.589 203.922L149.46 191.637C148.83 184.863 147.867 174.106 147.269 167.731C146.704 161.323 146.14 155.811 146.007 155.479ZM277.131 140.338V196.816L278.326 197.314C278.99 197.58 279.588 197.746 279.654 197.68C279.82 197.547 279.787 152.557 279.621 145.219C279.588 143.061 279.422 141.169 279.256 141.036C279.09 140.87 278.558 140.67 278.06 140.538L277.131 140.338ZM216.035 101.823L215.138 101.856C214.607 101.89 213.777 101.989 213.279 102.056L212.349 102.188L212.548 109.559C212.748 116.266 214.707 162.12 215.304 173.94C215.437 176.629 215.67 178.92 215.769 179.053C215.902 179.153 216.666 179.352 217.496 179.418L218.99 179.584L218.824 177.16C218.658 174.737 217.562 147.543 217.197 137.184C217.097 134.262 216.865 128.651 216.666 124.733C216.3 116.731 216.035 108.298 216.035 104.413V101.823ZM131.929 144.788C131.597 144.422 129.04 147.776 129.04 148.573C129.04 149.901 132.36 179.285 132.526 179.451C132.792 179.717 135.349 178.455 135.349 178.057C135.349 177.858 134.884 173.209 134.319 167.731C133.788 162.252 133.058 154.881 132.692 151.362C132.36 147.809 132.028 144.854 131.929 144.788ZM171.01 114.739C170.778 114.307 170.18 114.407 169.117 114.972C168.254 115.436 168.221 115.569 168.387 117.03C168.486 117.893 169.151 125.829 169.881 134.694C171.143 149.768 172.936 170.619 173.401 174.936C173.5 175.998 173.699 176.862 173.799 176.862C173.932 176.862 174.53 176.563 175.127 176.198C176.19 175.533 176.223 175.467 176.057 173.774C175.957 172.844 175.327 165.407 174.696 157.272C172.77 133.333 171.209 115.038 171.01 114.739ZM261.193 154.284H260.429L260.628 161.655C260.761 165.739 260.861 170.354 260.861 171.948V174.803L261.89 175.168C263.683 175.799 264.048 175.301 263.982 172.313C263.982 170.885 263.915 166.502 263.882 162.584L263.849 155.413L262.886 154.848C262.355 154.549 261.591 154.284 261.193 154.284ZM187.048 141.368C186.251 141.434 184.524 142.032 184.358 142.264C184.192 142.53 185.354 158.866 185.686 160.825C185.819 161.821 185.952 161.92 186.948 161.92C188.841 161.92 188.907 161.555 188.509 155.711C188.309 152.823 188.077 149.104 187.977 147.477C187.878 145.817 187.712 143.792 187.612 142.895C187.512 142.032 187.247 141.335 187.048 141.368ZM228.985 131.274V133.731C228.985 136.122 229.981 160.725 230.08 160.791C230.113 160.825 230.844 160.924 231.74 161.024L233.301 161.256L233.268 156.342C233.235 148.174 232.77 132.071 232.571 131.872C232.471 131.772 231.641 131.606 230.678 131.473L228.985 131.274ZM201.092 122.628C201.086 121.413 201.008 121.416 200.03 121.446C199.433 121.446 198.503 121.612 197.972 121.811C197.075 122.143 197.042 122.21 197.241 123.87C197.335 124.748 197.637 128.676 197.894 132.802L197.939 133.532C198.204 137.915 198.603 143.659 198.769 146.315C198.968 148.971 199.134 151.86 199.2 152.79C199.267 154.45 199.267 154.45 200.362 154.416C202.587 154.284 202.521 154.483 202.288 148.706C202.156 145.85 201.857 139.243 201.591 134.03C201.325 128.817 201.093 123.87 201.093 122.973L201.092 122.628ZM246.018 103.218C244.624 102.985 244.258 103.018 244.126 103.384C243.926 103.882 244.159 123.837 244.424 129.714C244.491 131.639 244.657 137.549 244.79 142.895L245.022 152.557L246.55 152.69C247.38 152.79 248.21 152.79 248.343 152.69C248.509 152.624 248.542 151.561 248.442 150.333C248.343 149.137 248.177 138.147 248.044 125.895C247.944 113.677 247.844 103.649 247.811 103.616C247.778 103.583 246.981 103.417 246.018 103.218ZM293.201 127.522C291.84 126.958 291.84 126.958 291.707 127.456C291.641 127.688 291.608 132.835 291.674 138.911L291.774 149.934L293.168 150.598L294.563 151.295L294.662 144.057C294.729 140.106 294.662 134.86 294.563 132.436L294.33 127.987L293.201 127.522ZM262.421 121.413C260.15 120.645 260.19 120.032 260.196 129.637L260.197 131.131C260.201 136.329 260.298 140.845 260.396 141.235C260.562 141.866 262.554 142.995 263.517 142.995C263.882 142.995 263.982 127.124 263.65 123.803C263.45 121.911 263.351 121.745 262.421 121.413Z" fill="#222222"/>
</svg>
