<svg width="450" height="450" viewBox="0 0 450 450" fill="none" xmlns="http://www.w3.org/2000/svg">
<path d="M212.953 70H263.061V302.529C237.394 307.445 218.499 309.379 198.056 309.379C136.857 309.314 105 281.631 105 228.465C105 177.239 138.792 143.993 191.156 143.993C199.282 143.993 205.473 144.64 212.953 146.581V70ZM214.709 188.484C208.841 186.544 204.004 185.897 197.813 185.897C172.47 185.897 157.831 201.55 157.831 228.98C157.831 255.686 171.825 270.433 197.491 270.433C203.037 270.433 207.551 270.116 214.709 269.146V188.484Z" fill="#2BA977"/>
<path d="M345 150.237V266.66C345 306.755 342.034 326.035 333.328 342.658C325.202 358.64 314.497 368.718 292.378 379.849L245.882 357.664C268.001 347.257 278.706 338.059 285.542 324.024C292.7 309.672 294.957 293.049 294.957 249.326V150.237H345Z" fill="#2BA977"/>
<path d="M289.908 70H340.015V121.55H289.908V70Z" fill="#2BA977"/>
</svg>
