<svg width="450" height="450" viewBox="0 0 450 450" fill="none" xmlns="http://www.w3.org/2000/svg">
<path fill-rule="evenodd" clip-rule="evenodd" d="M252.647 188.526H283.91V220.484H299.718C307.017 220.484 314.526 219.184 321.439 216.841C324.835 215.69 328.648 214.087 331.999 212.071C327.586 206.309 325.333 199.034 324.669 191.862C323.768 182.108 325.736 169.412 332.338 161.778L335.624 157.977L339.54 161.124C349.4 169.046 357.691 180.114 359.153 192.732C371.025 189.24 384.963 190.066 395.427 196.105L399.72 198.583L397.46 202.993C388.611 220.265 370.109 225.615 352.021 224.668C324.954 292.083 266.026 324 194.576 324C157.663 324 123.796 310.201 104.51 277.451L104.194 276.916L101.384 271.199C94.8653 256.783 92.7001 240.99 94.169 225.211L94.6098 220.484H121.343V188.526H152.605V157.263H215.132V126H252.647V188.526Z" fill="#364548"/>
<path fill-rule="evenodd" clip-rule="evenodd" d="M353.934 200.349C356.03 184.058 343.839 171.262 336.277 165.186C327.565 175.26 326.211 201.66 339.88 212.776C332.252 219.552 316.176 225.694 299.717 225.694H99.3586C97.7579 242.875 100.775 258.697 107.664 272.241L109.943 276.409C111.386 278.859 112.963 281.222 114.667 283.498H114.667C122.904 284.027 130.499 284.21 137.447 284.056H137.45C151.105 283.754 162.246 282.143 170.69 279.217C171.947 278.78 173.317 279.447 173.752 280.703C174.186 281.958 173.521 283.329 172.266 283.765C171.143 284.154 169.972 284.517 168.763 284.863C168.762 284.864 168.76 284.864 168.759 284.865C162.11 286.762 154.981 288.04 145.782 288.608C146.328 288.616 145.213 288.69 145.21 288.69C144.898 288.709 144.504 288.754 144.19 288.772C140.569 288.975 136.661 289.017 132.666 289.017C128.297 289.017 123.994 288.934 119.183 288.69L119.06 288.772C135.754 307.535 161.857 318.789 194.576 318.789C263.823 318.789 322.559 288.092 348.568 219.177C367.021 221.07 384.755 216.365 392.822 200.618C379.972 193.202 363.448 195.567 353.934 200.349Z" fill="#22A0C8"/>
<path fill-rule="evenodd" clip-rule="evenodd" d="M353.934 200.349C356.03 184.058 343.838 171.262 336.277 165.186C327.565 175.26 326.211 201.66 339.88 212.776C332.252 219.552 316.176 225.694 299.717 225.694H111.223C110.405 252.007 120.17 271.981 137.447 284.056H137.45C151.105 283.754 162.246 282.143 170.69 279.217C171.947 278.78 173.317 279.447 173.752 280.703C174.186 281.958 173.521 283.329 172.265 283.765C171.143 284.154 169.972 284.517 168.763 284.863C168.762 284.864 168.76 284.864 168.759 284.865C162.11 286.762 154.368 288.204 145.169 288.772C145.167 288.772 144.947 288.559 144.944 288.559C168.51 300.648 202.682 300.605 241.859 285.555C285.789 268.679 326.665 236.527 355.188 199.753C354.757 199.947 354.339 200.146 353.934 200.349Z" fill="#37B1D9"/>
<path fill-rule="evenodd" clip-rule="evenodd" d="M99.7339 246.569C100.979 255.773 103.671 264.39 107.664 272.241L109.943 276.409C111.387 278.859 112.963 281.222 114.668 283.498C122.906 284.027 130.502 284.21 137.45 284.056C151.105 283.754 162.246 282.143 170.69 279.217C171.947 278.779 173.317 279.447 173.752 280.702C174.187 281.958 173.522 283.329 172.266 283.765C171.143 284.153 169.973 284.517 168.764 284.863C168.762 284.864 168.761 284.864 168.759 284.864C162.111 286.762 154.41 288.122 145.211 288.69C144.895 288.709 144.344 288.713 144.026 288.731C140.407 288.934 136.54 289.058 132.544 289.058C128.175 289.058 123.708 288.974 118.898 288.731C135.591 307.494 161.857 318.789 194.576 318.789C253.859 318.789 305.436 296.287 335.371 246.569H99.7339Z" fill="#1B81A5"/>
<path fill-rule="evenodd" clip-rule="evenodd" d="M113.027 246.569C116.571 262.729 125.087 275.416 137.45 284.056C151.105 283.754 162.246 282.143 170.69 279.217C171.947 278.78 173.317 279.447 173.752 280.702C174.187 281.958 173.522 283.329 172.266 283.765C171.143 284.153 169.973 284.517 168.764 284.863C168.762 284.864 168.761 284.864 168.759 284.864C162.111 286.762 154.246 288.122 145.047 288.69C168.612 300.776 202.685 300.603 241.859 285.555C265.559 276.45 288.368 262.894 308.832 246.569H113.027Z" fill="#1D91B4"/>
<path fill-rule="evenodd" clip-rule="evenodd" d="M126.553 193.736H153.647V220.831H126.553V193.736ZM128.81 195.994H130.948V218.575H128.81V195.994ZM132.83 195.994H135.054V218.575H132.83V195.994ZM136.934 195.994H139.158V218.575H136.934V195.994ZM141.04 195.994H143.264V218.575H141.04V195.994ZM145.146 195.994H147.37V218.575H145.146V195.994ZM149.251 195.994H151.391V218.575H149.251V195.994Z" fill="#23A3C2"/>
<path fill-rule="evenodd" clip-rule="evenodd" d="M157.814 162.473H184.911V189.567H157.814V162.473ZM160.074 164.731H162.211V187.31H160.074V164.731ZM164.094 164.731H166.316V187.31H164.094V164.731ZM168.198 164.731H170.421V187.31H168.198V164.731ZM172.303 164.731H174.527V187.31H172.303V164.731ZM176.409 164.731H178.633V187.31H176.409V164.731ZM180.514 164.731H182.655V187.31H180.514V164.731Z" fill="#23A3C2"/>
<path fill-rule="evenodd" clip-rule="evenodd" d="M157.814 193.736H184.911V220.831H157.814V193.736ZM160.074 195.994H162.211V218.575H160.074V195.994ZM164.094 195.994H166.316V218.575H164.094V195.994ZM168.198 195.994H170.421V218.575H168.198V195.994ZM172.303 195.994H174.527V218.575H172.303V195.994ZM176.409 195.994H178.633V218.575H176.409V195.994ZM180.514 195.994H182.655V218.575H180.514V195.994Z" fill="#34BBDE"/>
<path fill-rule="evenodd" clip-rule="evenodd" d="M189.079 193.736H216.174V220.831H189.079V193.736ZM191.337 195.994H193.473V218.575H191.337V195.994ZM195.356 195.994H197.58V218.575H195.356V195.994ZM199.462 195.994H201.685V218.575H199.462V195.994ZM203.567 195.994H205.791V218.575H203.567V195.994ZM207.672 195.994H209.897V218.575H207.672V195.994ZM211.778 195.994H213.916V218.575H211.778V195.994Z" fill="#23A3C2"/>
<path fill-rule="evenodd" clip-rule="evenodd" d="M189.079 162.473H216.174V189.567H189.079V162.473ZM191.337 164.731H193.473V187.31H191.337V164.731ZM195.356 164.731H197.58V187.31H195.356V164.731ZM199.462 164.731H201.685V187.31H199.462V164.731ZM203.567 164.731H205.791V187.31H203.567V164.731ZM207.672 164.731H209.897V187.31H207.672V164.731ZM211.778 164.731H213.916V187.31H211.778V164.731Z" fill="#34BBDE"/>
<path fill-rule="evenodd" clip-rule="evenodd" d="M220.342 193.736H247.437V220.831H220.342V193.736ZM222.6 195.994H224.737V218.575H222.6V195.994ZM226.62 195.994H228.844V218.575H226.62V195.994ZM230.724 195.994H232.948V218.575H230.724V195.994ZM234.83 195.994H237.054V218.575H234.83V195.994ZM238.936 195.994H241.16V218.575H238.936V195.994ZM243.041 195.994H245.18V218.575H243.041V195.994Z" fill="#34BBDE"/>
<path fill-rule="evenodd" clip-rule="evenodd" d="M220.342 162.473H247.437V189.567H220.342V162.473ZM222.6 164.731H224.737V187.31H222.6V164.731ZM226.62 164.731H228.844V187.31H226.62V164.731ZM230.724 164.731H232.948V187.31H230.724V164.731ZM234.83 164.731H237.054V187.31H234.83V164.731ZM238.936 164.731H241.16V187.31H238.936V164.731ZM243.041 164.731H245.18V187.31H243.041V164.731Z" fill="#23A3C2"/>
<path fill-rule="evenodd" clip-rule="evenodd" d="M220.342 131.21H247.437V158.305H220.342V131.21ZM222.6 133.466H224.737V156.047H222.6V133.466ZM226.62 133.466H228.844V156.047H226.62V133.466ZM230.724 133.466H232.948V156.047H230.724V133.466ZM234.83 133.466H237.054V156.047H234.83V133.466ZM238.936 133.466H241.16V156.047H238.936V133.466ZM243.041 133.466H245.18V156.047H243.041V133.466Z" fill="#34BBDE"/>
<path fill-rule="evenodd" clip-rule="evenodd" d="M251.605 193.736H278.701V220.831H251.605V193.736ZM253.862 195.994H256.001V218.575H253.862V195.994ZM257.882 195.994H260.105V218.575H257.882V195.994ZM261.988 195.994H264.212V218.575H261.988V195.994ZM266.092 195.994H268.316V218.575H266.092V195.994ZM270.199 195.994H272.422V218.575H270.199V195.994ZM274.304 195.994H276.442V218.575H274.304V195.994Z" fill="#23A3C2"/>
<path fill-rule="evenodd" clip-rule="evenodd" d="M183.215 264.761C187.343 264.761 190.689 268.109 190.689 272.236C190.689 276.364 187.343 279.71 183.215 279.71C179.087 279.71 175.74 276.364 175.74 272.236C175.74 268.109 179.087 264.761 183.215 264.761Z" fill="#D3ECEC"/>
<path fill-rule="evenodd" clip-rule="evenodd" d="M183.214 266.882C183.898 266.882 184.551 267.01 185.153 267.244C184.5 267.621 184.059 268.328 184.059 269.136C184.059 270.343 185.037 271.32 186.244 271.32C187.07 271.32 187.789 270.861 188.16 270.182C188.422 270.814 188.568 271.509 188.568 272.236C188.568 275.192 186.171 277.589 183.214 277.589C180.258 277.589 177.86 275.192 177.86 272.236C177.86 269.279 180.258 266.882 183.214 266.882Z" fill="#364548"/>
<path fill-rule="evenodd" clip-rule="evenodd" d="M51 249.271H398.72C391.149 247.351 374.765 244.756 377.467 234.834C363.701 250.764 330.5 246.01 322.121 238.154C312.79 251.688 258.471 246.544 254.682 236.001C242.985 249.729 206.738 249.729 195.04 236.001C191.25 246.544 136.931 251.688 127.6 238.154C119.221 246.01 86.0227 250.764 72.2545 234.834C74.9564 244.756 58.5727 247.351 51 249.271Z" fill="#364548"/>
<path fill-rule="evenodd" clip-rule="evenodd" d="M203.086 318.627C184.574 309.842 174.413 297.901 168.759 284.864C161.884 286.827 153.618 288.082 144.014 288.621C140.396 288.823 136.59 288.927 132.596 288.927C127.992 288.927 123.14 288.791 118.046 288.521C135.022 305.487 155.907 318.55 194.576 318.789C197.431 318.789 200.266 318.733 203.086 318.627Z" fill="#BDD9D7"/>
<path fill-rule="evenodd" clip-rule="evenodd" d="M175.635 296.894C173.074 293.417 170.59 289.048 168.763 284.863C161.886 286.827 153.619 288.082 144.013 288.621C150.611 292.202 160.047 295.521 175.635 296.894Z" fill="#D3ECEC"/>
</svg>
