<svg width="450" height="450" viewBox="0 0 450 450" fill="none" xmlns="http://www.w3.org/2000/svg">
<path d="M374 76H76V374H374V76Z" fill="#F26522"/>
<path d="M198.851 262.202H244.432V249.802H212.927V230.586H241.974V218.185H212.927V200.199H244.432V187.798H198.851V262.202ZM305.318 241.981C305.318 227.123 304.313 223.883 284.315 219.079C271.467 215.951 271.244 215.727 271.244 207.237C271.244 200.757 272.92 198.746 282.416 198.746C288.896 198.746 296.157 199.64 302.302 200.981L303.866 189.138C296.492 187.463 288.672 186.681 282.192 186.681C263.312 186.681 257.168 193.384 257.168 206.902C257.168 222.654 259.625 226.117 277.612 230.139C291.018 233.044 291.242 233.714 291.242 241.981C291.242 249.131 289.566 251.254 279.399 251.254C272.026 251.254 265.323 249.913 258.396 247.791L255.939 258.851C260.854 261.197 270.685 263.319 279.176 263.319C301.185 263.319 305.318 256.058 305.318 241.981ZM331.237 214.275C331.237 202.88 336.711 200.645 349.894 200.645C352.24 200.645 357.155 200.981 360.395 201.651L361.289 190.256C357.937 189.474 352.575 188.915 348.441 188.915C328.109 188.915 317.607 195.171 317.607 214.834V241.981C317.607 254.829 321.406 263.319 340.621 263.319C358.161 263.319 363.523 254.605 363.523 242.987V237.624C363.523 224.777 358.049 219.191 344.531 219.191C339.727 219.191 335.147 219.861 331.237 221.202V214.275ZM342.409 230.921C347.324 230.921 349.894 232.597 349.894 237.959V243.434C349.894 249.131 347.659 251.589 340.621 251.589C333.583 251.589 331.237 249.578 331.237 243.434V233.267C334.365 231.927 338.387 230.921 342.409 230.921Z" fill="white"/>
</svg>
