<svg width="450" height="450" viewBox="0 0 450 450" fill="none" xmlns="http://www.w3.org/2000/svg">
<path d="M178.25 366.5C204.332 366.5 225.5 345.332 225.5 319.25V272H178.25C152.168 272 131 293.168 131 319.25C131 345.332 152.168 366.5 178.25 366.5Z" fill="#0ACF83"/>
<path d="M131 224.75C131 198.668 152.168 177.5 178.25 177.5H225.5V272H178.25C152.168 272 131 250.832 131 224.75Z" fill="#A259FF"/>
<path d="M131 130.25C131 104.168 152.168 83 178.25 83H225.5V177.5H178.25C152.168 177.5 131 156.332 131 130.25Z" fill="#F24E1E"/>
<path d="M225.5 83H272.75C298.832 83 320 104.168 320 130.25C320 156.332 298.832 177.5 272.75 177.5H225.5V83Z" fill="#FF7262"/>
<path d="M320 224.75C320 250.832 298.832 272 272.75 272C246.668 272 225.5 250.832 225.5 224.75C225.5 198.668 246.668 177.5 272.75 177.5C298.832 177.5 320 198.668 320 224.75Z" fill="#1ABCFE"/>
</svg>
