<svg width="450" height="450" viewBox="0 0 450 450" fill="none" xmlns="http://www.w3.org/2000/svg">
<path d="M327 364.64C327 371.514 281.11 377.087 224.5 377.087C167.89 377.087 122 371.514 122 364.64C122 357.765 175.833 352.194 224.5 352.194C282.433 352.194 327 357.765 327 364.64Z" fill="#1A4658"/>
<path d="M320.655 274.831C317.483 274.831 314.066 273.367 311.625 262.141C309.184 250.915 305.524 239.445 305.524 239.445C309.429 239.445 311.625 237.736 311.625 237.736C308.94 236.515 303.083 232.367 299.179 227.242C295.274 222.117 285.267 213.819 285.267 213.819V197.224C285.267 185.997 292.468 177.213 292.468 177.213C287.587 177.213 285.267 181.605 285.267 181.605V157.932C285.267 134.504 297.103 124.011 297.103 124.011C293.443 123.767 291.003 125.475 291.003 125.475C292.711 108.148 298.019 103.022 298.019 103.022C278.496 97.897 267.605 109.368 267.605 109.368C265.409 98.8741 273.996 92.7705 273.996 92.7705C263.991 90.5742 255.715 93.5028 255.715 93.5028C255.715 78.1281 261.828 73 261.828 73C231.321 73 214.001 95.9375 214.001 95.9375C212.781 86.1752 215.467 77.6251 215.467 77.6251C185.938 90.0717 178.131 117.635 178.131 117.635C176.179 112.998 175.935 102.472 175.935 102.472C175.935 102.472 163.732 122.911 161.536 137.065C159.339 151.221 163.488 191.854 163.488 191.854C163.488 191.854 161.536 189.415 157.387 188.927C157.387 188.927 161.78 193.808 161.78 204.79C161.78 204.79 160.071 203.326 157.143 204.058C157.143 204.058 161.779 208.206 162.268 215.284C162.268 215.284 156.899 218.945 153.97 222.605C153.97 222.605 149.333 222.849 146.893 223.581C146.893 223.581 150.798 225.778 151.53 227.73C151.53 227.73 140.06 239.445 134.202 248.962C134.202 248.962 139.328 245.79 142.988 246.766C142.988 246.766 134.934 256.528 132.25 272.635C132.25 272.635 136.154 270.683 137.863 271.659C137.863 271.659 132.982 281.908 132.738 292.647L127.369 295.82L131.518 298.748C131.518 298.748 128.345 311.927 127.613 319.492C127.613 319.492 130.053 317.052 132.005 316.32C132.005 316.32 134.69 322.664 138.351 327.545C142.012 332.427 150.31 336.575 155.191 336.575L164.365 336.218C163.227 341.127 160.982 345.291 156.251 345.509L155.726 346.351C155.627 346.344 155.53 346.339 155.434 346.337C155.34 347.771 152.447 348.029 151.652 349.022C149.233 352.04 147.389 356.185 146.16 359.882C145.26 362.591 145.686 362.59 145.062 365.373C144.858 366.284 143.913 367.257 143.598 368.179C146.233 367.294 153.536 366.703 157.383 366.421L157.448 369.825C157.448 369.825 158.082 370.415 159.133 370.843C159.169 370.836 159.204 370.826 159.248 370.829C159.604 370.858 159.949 370.911 160.286 370.994C166.058 370.478 170.078 371.452 176.768 370.896C178.07 370.741 179.291 370.558 180.43 369.91C180.754 368.942 180.798 368.882 180.95 367.632C180.983 367.409 180.983 367.18 181.037 366.908C181.142 366.89 181.243 366.875 181.346 366.86C181.385 366.845 181.447 366.833 181.585 366.827C181.613 366.819 181.637 366.805 181.669 366.803C181.775 366.793 181.881 366.784 181.987 366.775C182.06 366.748 182.129 366.74 182.192 366.758C183.403 366.649 185.347 366.547 186.558 366.481C190.494 366.475 195.672 366.928 195.672 366.928C195.992 362.517 196.312 355.672 203.451 335.721L205.22 334.623C205.22 334.623 227.145 342.349 247.489 334.311C249.099 338.273 254.308 351.591 255.127 359.987C255.827 360.971 255.749 362.22 255.773 363.543C255.793 364.662 255.887 365.783 255.917 366.899C256.649 366.799 259.29 366.476 262.625 366.481C263.835 366.547 265.779 366.649 266.99 366.758C267.054 366.74 267.123 366.748 267.196 366.775C267.302 366.784 267.407 366.793 267.513 366.803C267.545 366.805 267.57 366.819 267.598 366.827C267.736 366.833 267.798 366.845 267.837 366.86C267.939 366.875 268.041 366.89 268.146 366.908C268.199 367.18 268.2 367.409 268.233 367.632C268.385 368.882 268.428 368.942 268.752 369.91C268.857 369.969 268.962 370.02 269.068 370.073C272.711 369.611 276.402 369.526 280.068 369.7C282.951 369.836 285.785 370.377 288.622 370.894C288.623 370.92 288.625 370.948 288.625 370.975C288.911 371.006 289.191 371.026 289.47 371.044C290.992 371.316 292.519 371.57 294.055 371.736C294.085 369.814 294.074 368.133 294.034 366.657C297.091 366.804 301.515 367.412 303.371 367.683C304.107 367.859 304.705 367.968 305.332 368.103C305.417 368.128 305.507 368.154 305.585 368.179C305.582 368.172 305.578 368.164 305.575 368.157C306.205 368.299 306.884 368.478 307.781 368.789C307.645 367.138 307.657 367.173 307.438 365.103C307.27 363.502 306.122 358.639 303.975 356.633C303.975 356.633 306.315 357.644 307.029 358.047C304.722 354.922 303.601 350.453 296.353 347.373C296.353 347.373 297.677 346.749 298.887 346.591C297.623 345.812 296.657 345.505 295.376 345.598C295.811 344.363 297.725 341.247 299.331 340.847C299.331 340.847 298.346 340.161 296.734 340.691C296.135 341.005 295.554 341.342 294.988 341.741C294.774 341.892 294.463 341.735 294.399 341.501C293.893 339.627 293.563 337.723 293.264 335.812C307.869 335.282 309.917 327.79 309.917 327.79C311.137 328.767 311.137 330.963 311.137 330.963C317.481 322.665 316.75 314.367 316.75 314.367C318.214 314.611 319.435 315.587 319.435 315.587C320.167 302.897 316.262 281.177 316.262 281.177C318.215 282.153 319.435 280.933 319.435 280.933C317.238 279.957 316.994 277.516 316.994 277.516C320.167 277.76 320.655 274.831 320.655 274.831Z" fill="#EDF7FA"/>
<path d="M181.037 366.908C181.037 366.908 181.609 360.736 179.596 356.282C179.596 356.282 183.408 356.541 184.049 366.608C184.049 366.608 181.379 366.918 181.037 366.908Z" fill="#CDE9EE"/>
<path d="M161.901 346.094L161.925 345.904C161.939 345.998 161.937 346.07 161.901 346.094Z" fill="#CDE9EE"/>
<path d="M165.47 366.43C165.448 366.424 165.436 366.421 165.436 366.421C165.436 366.421 165.452 366.378 165.48 366.305L165.47 366.43Z" fill="#CDE9EE"/>
<path d="M214.002 95.9375C212.782 86.1752 215.468 77.6251 215.468 77.6251C185.939 90.0717 178.131 117.635 178.131 117.635C176.179 112.998 175.935 102.472 175.935 102.472C175.935 102.472 163.732 122.911 161.536 137.065C159.339 151.221 163.488 191.854 163.488 191.854C163.488 191.854 161.536 189.415 157.387 188.927C157.387 188.927 161.78 193.808 161.78 204.79C161.78 204.79 160.071 203.326 157.143 204.058C157.143 204.058 161.779 208.206 162.268 215.284C162.268 215.284 156.899 218.945 153.97 222.605C153.97 222.605 149.333 222.849 146.893 223.581C146.893 223.581 150.798 225.778 151.53 227.73C151.53 227.73 140.06 239.445 134.202 248.962C134.202 248.962 139.328 245.79 142.988 246.766C142.988 246.766 134.934 256.528 132.25 272.635C132.25 272.635 136.154 270.683 137.863 271.659C137.863 271.659 132.982 281.908 132.738 292.647L127.369 295.82L131.518 298.748C131.518 298.748 128.345 311.927 127.613 319.492C127.613 319.492 130.053 317.052 132.005 316.32C132.005 316.32 134.69 322.664 138.351 327.545C142.012 332.427 150.31 336.575 155.191 336.575L155.809 336.491C155.536 338.173 155.23 339.85 154.783 341.501C154.72 341.735 154.409 341.892 154.195 341.741C153.629 341.342 153.048 341.005 152.449 340.691C150.837 340.161 149.851 340.847 149.851 340.847C151.457 341.247 153.371 344.363 153.807 345.598C152.526 345.505 151.56 345.812 150.295 346.591C151.506 346.749 152.829 347.373 152.829 347.373C145.582 350.453 144.46 354.922 142.154 358.047C142.868 357.644 145.208 356.633 145.208 356.633C143.06 358.639 141.913 363.502 141.744 365.103C141.526 367.173 141.538 367.138 141.402 368.789C143.323 368.121 144.257 368.056 145.812 367.683C148.215 367.333 154.931 366.412 157.397 366.668L157.009 371.413C157.009 371.413 157.058 371.413 157.13 371.411C158.396 371.048 159.428 371.097 160.557 370.975C160.574 369.667 160.643 368.361 160.75 367.058C160.674 364.832 160.951 362.804 161.405 360.544C161.42 360.468 161.439 360.389 161.455 360.313C162.351 357.227 163.909 355.471 164.922 354.39C165.258 354.031 165.55 353.607 165.799 353.171C166.403 352.367 167.031 351.32 167.516 349.998C168.519 347.26 168.089 341.245 166.073 335.375C168.199 338.433 170.136 341.117 171.054 342.035L170.993 334.562C170.993 334.562 174.897 338.464 178.392 341.412C180.075 342.881 182.15 344.792 183.624 345.553C183.73 345.62 183.826 344.91 183.943 345.982H183.942C183.957 345.982 183.972 345.769 183.987 345.778C185.966 346.888 188.002 347.77 189.908 349.004C190.112 349.136 190.321 349.199 190.521 349.338C191.403 349.945 192.956 350.62 194.352 351.356L195.672 366.942C196.861 350.561 206.196 334.874 206.196 334.874L205.854 334.769C202.966 333.876 181.832 326.565 169.345 300.458C168.523 298.738 173.982 302.409 173.982 302.409C168.857 289.962 166.904 269.95 166.904 269.95C168.613 271.415 170.321 271.659 170.321 271.659C166.661 261.408 165.196 248.718 165.196 237.247C164.22 175.504 187.039 161.349 187.039 161.349C183.134 159.885 178.986 160.007 178.986 160.007C183.501 149.147 198.509 134.016 198.509 134.016C194.482 134.26 178.741 138.53 178.741 138.53C191.798 104.486 204.976 95.4564 204.976 95.4564C204 103.632 207.173 112.296 207.173 112.296C235.483 77.2742 258.228 78.9081 258.228 78.9081C259.915 75.395 261.831 73 261.831 73C231.325 73 214.002 95.9375 214.002 95.9375Z" fill="#CDE9EE"/>
<path d="M294.023 366.715C294.023 366.715 293.747 357.868 291.735 353.414C291.735 353.414 296.982 356.648 296.952 366.867C296.952 366.867 294.365 366.725 294.023 366.715Z" fill="#CDE9EE"/>
<path d="M157.505 321.213C160.961 287.362 161.902 221.14 161.902 221.14C154.397 235.966 148.357 262.872 148.357 262.872L149.821 268.729L146.527 267.265C141.232 285.643 144.814 310.243 146.001 317.173C149.369 319.84 153.381 320.739 157.505 321.213Z" fill="#ABD8D7"/>
<path d="M150.426 320.481C151.499 325.899 152.612 331.117 153.848 336.498C154.764 336.636 155.793 336.567 155.793 336.567C156.633 333.294 156.773 328.228 157.426 321.997C155.019 321.716 152.659 321.288 150.426 320.481Z" fill="#ABD8D7"/>
<path d="M265.119 349.652C264.923 349.708 264.773 349.62 264.692 349.486C264.312 349.56 264.022 349.629 263.827 349.679C263.827 349.678 263.827 349.678 263.827 349.678C268.862 346.014 269.325 342.14 269.325 342.14C265.985 343.645 262.439 344.208 260.714 344.406C272.352 334.319 274.286 315.587 274.286 315.587C269.519 321.439 262.755 326.384 257.527 329.703L257.538 329.68C257.538 329.68 254.035 331.639 250.799 333.164C250.657 333.142 250.514 333.18 250.408 333.346C248.745 334.116 247.195 334.745 246.281 334.897C246.281 334.897 248.977 339.874 250.102 342.558L249.882 342.737C249.882 342.737 253.781 351.953 255.2 360.882C255.35 362.39 255.466 363.712 255.547 364.722C255.615 366.028 255.708 366.928 255.708 366.928C260.864 366.165 268.146 366.908 268.146 366.908C268.111 367.748 268.573 369.764 268.657 370.13C271.106 369.8 273.576 369.656 276.047 369.634C276.014 360.981 275.634 346.602 265.119 349.652Z" fill="#CDE9EE"/>
<path d="M157.234 323.824C149.149 322.456 141.812 313.164 141.812 313.164C147.707 319.433 155.046 320.273 155.046 320.273C156.014 313.114 150.097 296.728 150.097 296.728C154.479 302.186 156.877 308.498 158.187 313.665L157.234 323.824Z" fill="#83BAC0"/>
<path d="M175.583 311.148C175.583 311.148 181.944 322.359 187.527 327.21C193.551 332.444 199.149 339.839 201.529 344.323C201.529 344.323 204.549 337.308 206.196 334.867C206.196 334.867 188.35 329.635 175.583 311.148Z" fill="#ABD8D7"/>
<path d="M258.604 333.014C259.488 331.769 260.501 330.613 261.467 329.432C263.05 327.493 264.858 325.612 266.187 323.503C263.893 325.22 261.339 326.707 258.728 328.278C251.15 333.413 245.87 334.867 245.87 334.867C247.517 337.308 250.538 344.323 250.538 344.323C251.977 341.609 254.601 337.829 257.78 334.106C258.047 333.736 258.344 333.381 258.604 333.014Z" fill="#ABD8D7"/>
<path d="M173.171 144.198C172.477 144.248 170.256 144.304 170.256 144.304C150.135 145.709 135.344 130.116 135.344 130.116C135.344 130.116 134.022 142.288 142.763 152.953C151.506 163.619 169.224 165.444 169.224 165.444C169.799 167.938 168.552 173.5 168.552 173.5C168.552 173.5 173.733 167.769 175.049 156.911C175.972 149.302 173.6 144.167 173.171 144.198Z" fill="#545352"/>
<path d="M173.171 144.198C172.504 144.236 170.256 144.304 170.256 144.304C150.135 145.709 135.345 130.116 135.345 130.116C135.345 130.116 144.537 156.719 175.237 154.617C175.237 154.617 176.085 149.696 173.171 144.198Z" fill="#6E7979"/>
<path d="M273.633 144.198C274.326 144.248 276.547 144.304 276.547 144.304C296.669 145.709 311.458 130.116 311.458 130.116C311.458 130.116 312.781 142.288 304.04 152.953C295.296 163.619 277.579 165.444 277.579 165.444C277.004 167.938 278.251 173.5 278.251 173.5C278.251 173.5 273.07 167.769 271.754 156.911C270.831 149.302 273.203 144.167 273.633 144.198Z" fill="#545352"/>
<path d="M273.633 144.198C274.3 144.236 276.547 144.304 276.547 144.304C296.669 145.709 311.459 130.116 311.459 130.116C311.459 130.116 302.266 156.719 271.567 154.617C271.567 154.617 270.718 149.696 273.633 144.198Z" fill="#6E7979"/>
<path d="M162.668 234.319C162.668 234.319 148.204 286.301 162.668 319.614V234.319Z" fill="#CDE9EE"/>
<path d="M306.683 316.546C299.544 321.993 292.117 322.338 292.117 322.338C291.786 315.222 299.566 299.663 299.566 299.663C297.795 300.708 296.373 301.972 295.202 303.359L295.151 298.137L300.764 293.501L296.25 289.84L301.984 266.777L296.494 270.438C296.494 270.438 294.786 237.615 296.006 223.46C296.006 223.46 289.05 216.503 285.634 213.698C285.634 213.698 286.279 223.804 287.016 239.951C290.133 252.905 294.974 279.712 288.952 303.288C289.021 308.066 289.073 312.92 289.101 317.819C289.101 317.819 292.102 328.246 293.077 335.567C293.077 335.567 294.053 335.842 295.518 335.598L295.407 324.386C302.948 322.109 306.683 316.546 306.683 316.546Z" fill="#CDE9EE"/>
<path d="M239.02 215.891C239.02 221.435 242.57 225.929 246.951 225.929C251.332 225.929 254.884 221.435 254.884 215.891C254.884 210.345 251.332 205.851 246.951 205.851C242.57 205.851 239.02 210.345 239.02 215.891Z" fill="#CDE9EE"/>
<path d="M239.265 213.209C239.265 218.668 242.761 223.093 247.074 223.093C251.388 223.093 254.884 218.668 254.884 213.209C254.884 207.75 251.388 203.325 247.074 203.325C242.761 203.325 239.265 207.75 239.265 213.209Z" fill="white"/>
<path d="M245.001 208.113C244.939 208.356 244.896 208.609 244.896 208.877C244.896 210.269 245.803 211.396 246.922 211.396C247.916 211.396 248.739 210.505 248.911 209.33C249.549 210.167 249.942 211.293 249.942 212.538C249.942 215.116 248.262 217.205 246.19 217.205C244.118 217.205 242.438 215.116 242.438 212.538C242.438 210.477 243.512 208.732 245.001 208.113Z" fill="#474746"/>
<path d="M200.948 215.891C200.948 221.435 204.499 225.929 208.88 225.929C213.26 225.929 216.812 221.435 216.812 215.891C216.812 210.345 213.26 205.851 208.88 205.851C204.499 205.851 200.948 210.345 200.948 215.891Z" fill="#CDE9EE"/>
<path d="M201.193 213.209C201.193 218.668 204.689 223.093 209.003 223.093C213.316 223.093 216.812 218.668 216.812 213.209C216.812 207.75 213.316 203.325 209.003 203.325C204.689 203.325 201.193 207.75 201.193 213.209Z" fill="white"/>
<path d="M208.394 208.113C208.332 208.356 208.289 208.609 208.289 208.877C208.289 210.269 209.196 211.396 210.315 211.396C211.308 211.396 212.132 210.505 212.304 209.33C212.942 210.167 213.335 211.293 213.335 212.538C213.335 215.116 211.655 217.205 209.583 217.205C207.51 217.205 205.831 215.116 205.831 212.538C205.831 210.477 206.905 208.732 208.394 208.113Z" fill="#474746"/>
<path d="M267.599 223.767C267.101 225.265 265.411 225.663 260.596 226.594L260.268 226.657C255.55 227.563 247.115 227.445 242.496 226.77C242.296 226.741 242.104 226.712 241.921 226.681C237.639 225.957 237.152 225.403 235.775 223.183C234.352 220.886 233.478 214.142 233.317 212.812L233.309 212.745C233.138 211.339 233.053 210.636 234.859 209.827C237.288 208.738 248.068 207.217 252.485 207.018C255.973 206.864 263.365 207.35 266.745 207.844C267.275 207.922 267.668 207.993 267.91 208.057C268.299 208.161 269.731 208.857 269.658 210.379C269.563 212.386 268.272 221.742 267.599 223.767ZM220.583 212.745L220.574 212.812C220.414 214.142 219.54 220.886 218.117 223.183C216.74 225.403 216.253 225.957 211.97 226.681C211.788 226.712 211.595 226.741 211.396 226.77C206.776 227.445 198.341 227.563 193.623 226.657L193.296 226.594C188.481 225.663 186.79 225.265 186.293 223.767C185.62 221.742 184.328 212.386 184.234 210.379C184.16 208.857 185.593 208.161 185.982 208.057C186.224 207.993 186.616 207.922 187.146 207.844C190.527 207.35 197.919 206.864 201.407 207.018C205.824 207.217 216.603 208.738 219.032 209.827C220.839 210.636 220.754 211.339 220.583 212.745ZM273.782 203.836C270.245 203.319 264.072 202.733 256.662 203.111C247.019 203.607 238.757 204.946 233.821 205.745C232.348 205.984 231.19 206.173 230.307 206.29L229.343 206.42C228.26 206.569 227.551 206.663 226.946 206.693C226.341 206.663 225.631 206.569 224.549 206.42L223.584 206.29C222.702 206.173 221.544 205.984 220.07 205.745C215.135 204.946 206.873 203.607 197.23 203.111C189.82 202.733 183.647 203.319 180.109 203.836C180.109 203.836 176.335 204.317 173.107 205.682L173.722 209.785C173.722 209.785 177.133 208.973 180.465 208.528C181.084 214.314 182.289 221.748 182.289 221.748L182.308 221.978C182.399 222.353 182.485 222.717 182.577 223.114C183.263 226.037 183.944 227.755 186.686 228.786C189.378 229.802 195.749 230.744 202.174 231.075C204.563 231.199 207.275 231.052 210.018 230.652C214.085 230.058 217.764 228.963 219.17 227.924C221.215 226.412 222.309 222.609 223.033 220.092L223.25 219.35C223.506 218.492 223.729 217.591 223.943 216.717C224.252 215.462 224.571 214.165 224.844 213.717C224.893 213.639 225.122 213.369 226.016 213.237C226.293 213.198 226.604 213.176 226.946 213.172C227.288 213.176 227.598 213.198 227.875 213.237C228.769 213.369 228.999 213.639 229.048 213.717C229.32 214.165 229.639 215.462 229.948 216.717C230.163 217.591 230.386 218.492 230.642 219.35L230.858 220.092C231.582 222.609 232.677 226.412 234.722 227.924C236.128 228.963 239.806 230.058 243.874 230.652C246.616 231.052 249.328 231.199 251.717 231.075C258.143 230.744 264.513 229.802 267.206 228.786C269.947 227.755 270.628 226.037 271.315 223.114C271.407 222.717 271.492 222.353 271.583 221.978L271.603 221.748C271.603 221.748 272.807 214.314 273.427 208.528C276.759 208.973 280.169 209.785 280.169 209.785L280.785 205.682C277.557 204.317 273.782 203.836 273.782 203.836Z" fill="#545352"/>
<path d="M211.329 193.446C211.329 193.446 202.507 189.239 197.457 197.051C197.457 197.051 196.936 189.282 204.061 188.414C211.186 187.545 211.329 193.446 211.329 193.446Z" fill="#A0D1DE"/>
<path d="M208.02 182.031C208.02 182.031 199.841 178.171 196.115 185.589C196.115 185.589 194.898 179.108 200.734 177.544C206.571 175.979 208.02 182.031 208.02 182.031Z" fill="#A0D1DE"/>
<path d="M242.931 198.209C242.931 198.209 249.783 194.942 253.704 201.01C253.704 201.01 254.109 194.976 248.576 194.301C243.042 193.626 242.931 198.209 242.931 198.209Z" fill="#A0D1DE"/>
<path d="M247.803 187.403C247.803 187.403 254.736 186.281 255.923 192.617C255.923 192.617 258.224 188.043 254.205 185.621C250.185 183.198 247.803 187.403 247.803 187.403Z" fill="#A0D1DE"/>
<path d="M210.715 254.992C210.715 254.992 215.556 251.739 218.413 251.291C218.413 251.291 219.037 257.43 221.876 260.455C221.876 260.455 228.003 254.931 234.063 254.539C234.063 254.539 235.627 257.905 238.167 259.153L238.153 259.192C239.069 259.764 240.192 260.343 241.279 260.584C241.279 260.584 244.757 258.48 245.764 254.636C245.764 254.636 246.098 262.751 241.005 267.174C241.005 267.174 237.12 265.278 234.322 262.244C233.481 261.425 232.608 260.473 232.183 259.699C232.183 259.699 223.197 266.057 222.868 269.682C222.868 269.682 216.381 263.358 214.169 258.484C214.169 258.484 209.84 259.851 208.639 260.732C208.639 260.732 205.159 255.041 204.453 249.905C204.453 249.905 208.637 253.902 210.715 254.992Z" fill="#B2DCE5"/>
<path d="M227.05 239.043C226.692 238.966 236.166 239.699 245.468 239.368C245.468 239.368 245.965 237.593 246.679 236.618C246.679 236.618 246.524 239.605 247.359 240.217C247.359 240.217 242.704 242.049 238.009 242.036C238.009 242.036 243.125 241.182 244.841 240.299C244.841 240.299 235.506 240.819 227.05 239.043Z" fill="#545352"/>
</svg>
