<svg width="450" height="450" viewBox="0 0 450 450" fill="none" xmlns="http://www.w3.org/2000/svg">
<path d="M357.794 212.702L237.289 92.2057C230.354 85.2648 219.097 85.2648 212.154 92.2057L187.131 117.229L218.873 148.971C226.25 146.479 234.708 148.151 240.589 154.032C246.498 159.949 248.157 168.48 245.604 175.881L276.196 206.473C283.598 203.923 292.137 205.574 298.049 211.494C306.31 219.752 306.31 233.137 298.049 241.402C289.784 249.666 276.399 249.666 268.132 241.402C261.918 235.182 260.382 226.054 263.529 218.399L234.999 189.869L234.996 264.947C237.01 265.946 238.912 267.276 240.589 268.947C248.851 277.206 248.851 290.591 240.589 298.861C232.325 307.122 218.934 307.122 210.682 298.861C202.42 290.591 202.42 277.206 210.682 268.947C212.723 266.909 215.085 265.368 217.604 264.332V188.555C215.085 187.525 212.726 185.993 210.682 183.939C204.422 177.689 202.917 168.504 206.124 160.818L174.836 129.524L92.2079 212.145C85.264 219.092 85.264 230.348 92.2079 237.289L212.714 357.789C219.652 364.73 230.905 364.73 237.852 357.789L357.794 237.85C364.735 230.906 364.735 219.643 357.794 212.702Z" fill="#DE4C36"/>
</svg>
