<svg width="450" height="450" viewBox="0 0 450 450" fill="none" xmlns="http://www.w3.org/2000/svg">
<path d="M251.474 289.855C255.79 289.087 260.125 288.76 264.173 287.511C271.193 285.34 278.309 283.188 284.889 279.96C295.784 274.599 303.437 265.78 307.907 254.463C314.045 238.88 315.503 222.818 311.781 206.428C310.036 198.704 306.18 191.96 301.078 185.946C300.023 184.697 299.754 183.698 300.253 182.103C303.629 171.132 302.708 160.334 298.987 149.593C298.335 147.691 297.223 146.845 295.4 147.172C290.797 147.998 285.944 148.267 281.724 150.035C274.953 152.879 268.642 156.798 262.063 160.141C260.835 160.756 259.147 161.217 257.862 160.91C236.398 155.588 214.991 155.568 193.507 160.833C192.069 161.179 190.093 160.795 188.789 160.026C180.215 154.877 171.621 149.881 161.685 147.748C153.629 146.019 152.535 146.576 150.502 154.492C148.085 163.888 147.874 173.265 150.771 182.622C151.039 183.486 150.694 184.928 150.099 185.638C139.262 198.377 136.212 213.326 137.497 229.542C138.149 237.824 139.588 245.932 142.676 253.656C149.888 271.66 163.853 281.612 181.998 286.397C187.619 287.876 193.392 288.799 199.415 290.067C194.85 294.889 192.606 300.711 191.378 307.013C191.244 307.724 190.227 308.455 189.441 308.781C174.268 315.237 160.438 310.875 151.557 296.965C147.989 291.373 143.693 286.301 137.324 284.033C134.044 282.861 130.227 282.688 126.679 282.861C123.226 283.034 122.631 285.34 124.991 287.992C125.758 288.837 126.621 289.682 127.599 290.24C135.656 294.659 140.259 302.095 143.463 310.126C148.776 323.441 158.942 328.591 172.235 329.014C177.568 329.186 182.919 328.399 188.271 328.072C188.923 328.034 189.575 328.072 190.438 328.072C190.496 328.975 190.611 329.801 190.611 330.647C190.669 337.564 190.726 344.481 190.745 351.398C190.784 358.603 186.66 361.735 179.869 359.045C172.216 356.009 164.466 352.973 157.388 348.862C117.471 325.632 94.1274 290.912 88.1236 245.087C80.3934 186.003 113.156 126.959 167.766 103.21C220.458 80.2879 270.138 87.2434 314.563 123.712C343.45 147.422 359.122 179.029 362.44 216.381C368.041 279.192 331.174 337.045 272.037 358.661C270.867 359.083 269.678 359.449 268.45 359.679C263.213 360.678 259.838 357.95 259.838 352.57C259.838 339.889 259.991 327.207 259.972 314.526C259.953 308.032 258.859 301.691 255.598 295.946C254.467 293.871 252.951 292.007 251.474 289.855Z" fill="black"/>
</svg>
