<svg width="450" height="450" viewBox="0 0 450 450" fill="none" xmlns="http://www.w3.org/2000/svg">
<path d="M224.5 360.743L278.818 193.571H170.182L224.5 360.743Z" fill="#E24329"/>
<path d="M224.5 360.743L170.182 193.571H94.0571L224.5 360.743Z" fill="#FC6D26"/>
<path d="M94.0574 193.572L77.5512 244.374C76.0457 249.007 77.6946 254.083 81.6363 256.946L224.5 360.743L94.0574 193.572Z" fill="#FCA326"/>
<path d="M94.0571 193.572H170.182L137.466 92.8856C135.784 87.7041 128.454 87.7055 126.771 92.8856L94.0571 193.572Z" fill="#E24329"/>
<path d="M224.5 360.743L278.818 193.571H354.943L224.5 360.743Z" fill="#FC6D26"/>
<path d="M354.943 193.572L371.449 244.374C372.954 249.007 371.305 254.083 367.364 256.946L224.5 360.743L354.943 193.572Z" fill="#FCA326"/>
<path d="M354.943 193.572H278.818L311.534 92.8856C313.216 87.7041 320.546 87.7055 322.228 92.8856L354.943 193.572Z" fill="#E24329"/>
</svg>
