<svg width="450" height="450" viewBox="0 0 450 450" fill="none" xmlns="http://www.w3.org/2000/svg">
<path d="M119.778 237.287C120.2 245.981 128.894 241.93 132.777 239.228C136.491 236.612 137.589 238.806 137.926 233.742C138.18 230.365 138.517 227.073 138.349 223.696C132.693 223.19 126.615 224.541 121.972 227.917C119.525 229.605 115.135 235.177 119.778 237.287Z" fill="#F6D2A2"/>
<path d="M293.077 344.153C299.746 348.29 311.985 360.783 301.94 366.86C292.317 375.639 286.915 357.153 278.474 354.62C282.103 349.64 286.662 345.082 293.077 344.153Z" fill="#F6D2A2"/>
<path d="M173.718 358.25C165.867 359.432 161.478 366.523 154.894 370.152C148.731 373.782 146.368 368.971 145.861 367.958C144.933 367.536 145.017 368.38 143.498 366.86C137.758 357.828 149.407 351.244 155.484 346.77C163.926 345.082 169.244 352.426 173.718 358.25Z" fill="#F6D2A2"/>
<path d="M330.134 236.189C329.712 244.884 321.017 240.832 317.134 238.131C313.42 235.514 312.323 237.709 311.985 232.644C311.732 229.268 311.394 225.976 311.563 222.599C317.219 222.093 323.296 223.443 327.939 226.82C330.303 228.508 334.777 234.079 330.134 236.189Z" fill="#F6D2A2"/>
<path d="M307.089 130.167C337.225 119.531 313.674 78.2532 287.421 96.4864C270.201 81.7141 246.481 79.0129 221.579 79.0129C197.184 80.9544 173.971 85.4283 157.763 99.6096C131.595 82.7271 107.453 123.245 138.18 133.459C129.569 166.887 139.361 200.989 138.011 235.008C136.745 265.565 128.725 306.505 145.692 333.939C160.127 357.406 191.191 365.763 216.768 366.691C249.436 367.873 289.025 359.854 304.895 328.199C320.089 298.064 315.868 260.5 313.927 228.001C311.985 195.165 315.615 161.822 307.089 130.167Z" fill="#69D7E2"/>
<path d="M332.413 231.04C331.569 229.268 329.965 227.242 328.446 226.144C324.563 223.359 319.583 221.839 314.433 221.67C314.265 216.437 314.096 210.697 314.096 203.437V196.853C314.011 176.088 313.758 166.971 312.576 155.575C311.648 146.628 310.213 138.355 308.187 130.589C315.024 127.972 319.498 123.667 321.271 118.096C322.959 112.947 322.115 107.122 319.245 101.973C316.29 96.9084 311.563 93.1099 306.077 91.5904C300.168 89.9866 293.752 91.1684 287.59 95.3046C282.103 90.6619 275.772 87.1166 268.682 84.4154C256.104 79.7727 241.501 78 221.664 78V78.8441L221.579 78C200.392 79.6883 184.691 82.9803 171.692 89.3113C166.458 91.8437 161.815 94.8825 157.763 98.4279C151.517 94.5449 145.017 93.6163 139.024 95.4734C133.453 97.1617 128.641 101.129 125.771 106.278C122.901 111.427 122.226 117.336 124.167 122.401C126.109 127.466 130.583 131.433 137.251 133.881C135.141 142.407 134.043 151.439 133.875 161.4C133.706 171.107 134.128 178.873 135.647 196.431C136.745 209.515 137.167 215.508 137.336 222.768C131.595 222.515 125.855 224.034 121.55 227.157C120.031 228.255 118.343 230.196 117.583 232.053C116.486 234.417 116.908 236.527 119.102 237.793C119.44 241.845 121.719 243.702 125.18 243.364C127.713 243.111 130.751 241.761 133.368 239.904C133.959 239.481 134.55 239.144 135.141 238.891C135.394 238.806 135.563 238.722 135.816 238.637C135.816 238.637 136.323 238.469 136.491 238.384C136.745 238.3 136.998 238.215 137.167 238.046C136.998 242.014 136.66 246.15 135.901 255.604C135.056 266.24 134.634 272.065 134.466 278.565C133.706 302.707 136.576 320.264 145.186 334.193C147.887 338.582 151.179 342.465 155.062 346.01C154.303 346.517 151.095 348.88 150.082 349.64C146.537 352.341 144.089 354.62 142.654 357.153C140.796 360.445 140.796 363.737 142.907 367.198L142.991 367.282L143.076 367.367C144.004 368.295 144.511 368.549 145.186 368.549H145.27H145.439C145.524 368.717 145.608 368.802 145.692 368.971C145.946 369.393 146.199 369.73 146.452 370.068C148.562 372.516 151.517 373.107 155.484 370.743C157.595 369.646 159.114 368.38 162.322 365.678C162.406 365.594 162.406 365.594 162.491 365.51C167.64 361.12 170.172 359.516 173.971 358.925L175.321 358.672C175.828 358.925 176.334 359.094 176.925 359.348C188.912 364.159 202.84 366.776 216.937 367.282C235.17 367.958 252.728 365.678 267.584 360.276C271.552 358.841 275.266 357.153 278.811 355.296C281.006 356.14 282.863 357.913 286.408 362.049C286.577 362.218 286.577 362.218 286.662 362.386C286.83 362.555 286.83 362.64 286.915 362.724C287.084 362.977 287.337 363.146 287.506 363.399C290.291 366.691 292.148 368.295 294.259 369.224C297.044 370.406 299.746 369.815 302.531 367.282C307.427 364.243 307.765 359.516 304.557 354.114C302.278 350.315 298.311 346.348 294.596 343.816C298.986 339.511 302.784 334.361 305.739 328.537C313.843 312.33 316.966 293.421 316.797 269.11C316.713 260.5 316.375 252.988 315.446 238.637V238.215C315.868 238.384 316.29 238.637 316.713 238.975C319.329 240.748 322.368 242.183 324.901 242.436C328.362 242.774 330.641 240.917 330.978 236.865C333.089 235.514 333.511 233.404 332.413 231.04ZM305.57 93.3631C310.635 94.7137 315.024 98.259 317.726 102.986C320.427 107.713 321.186 113.031 319.667 117.758C318.063 122.739 314.011 126.706 307.68 129.07C306.414 124.511 304.895 120.038 303.207 115.732C305.654 113.622 306.836 111.005 304.895 107.291C302.953 103.577 299.577 103.155 296.116 104.252C293.921 101.382 291.473 98.8499 288.941 96.4864C294.512 92.941 300.252 91.9281 305.57 93.3631ZM125.602 121.895C123.83 117.336 124.42 111.934 127.122 107.207C129.823 102.48 134.212 98.7655 139.446 97.2461C144.848 95.6423 150.673 96.402 156.413 99.7785C153.121 102.733 150.166 106.109 147.634 109.824C143.244 107.544 138.771 107.122 136.238 111.765C133.621 116.745 136.66 119.869 140.965 122.232C140.374 123.667 139.784 125.187 139.277 126.706C138.686 128.563 138.095 130.505 137.589 132.446C131.427 130.083 127.375 126.453 125.602 121.895ZM135.816 236.949C135.732 236.949 135.225 237.118 135.225 237.202C134.972 237.287 134.719 237.371 134.466 237.54C133.79 237.793 133.115 238.215 132.44 238.722C130.076 240.41 127.206 241.676 125.011 241.845C122.479 242.098 121.044 241.001 120.791 237.962C122.563 237.371 123.323 236.949 123.998 235.936L122.648 234.923C122.141 235.599 121.635 235.852 120.115 236.358C120.031 236.358 120.031 236.358 119.947 236.443C118.596 235.683 118.343 234.501 119.102 232.813C119.778 231.293 121.297 229.521 122.563 228.592C126.615 225.638 132.018 224.203 137.42 224.54C137.42 226.651 137.504 228.761 137.42 230.787C137.42 231.04 137.42 231.209 137.336 231.462C137.251 232.644 137.251 233.151 137.167 233.741C136.913 236.189 136.745 236.527 135.816 236.949ZM161.309 364.328C161.224 364.412 161.224 364.412 161.14 364.497C158.017 367.198 156.497 368.295 154.556 369.393C151.348 371.334 149.153 370.912 147.634 369.055C147.381 368.802 147.212 368.464 147.043 368.211C146.959 368.126 146.874 367.958 146.79 367.873C146.79 367.873 146.79 367.873 146.79 367.789C146.959 366.269 147.549 365.172 149.069 362.808C149.153 362.724 149.153 362.724 149.153 362.64C150.082 361.289 150.504 360.529 150.926 359.601L149.407 358.925C149.069 359.685 148.647 360.36 147.803 361.711C147.718 361.795 147.718 361.795 147.718 361.88C146.199 364.075 145.524 365.425 145.186 366.945H145.102C145.102 366.945 145.102 366.945 145.017 366.945H144.848C144.679 366.86 144.426 366.691 144.089 366.354C140.796 361.12 143.413 356.646 150.842 351.075C151.77 350.4 154.893 348.205 155.738 347.53C155.906 347.53 156.075 347.445 156.244 347.361C160.802 351.244 166.12 354.62 172.029 357.406C172.029 357.49 172.114 357.575 172.198 357.659C168.737 358.503 166.036 360.276 161.309 364.328ZM303.038 355.127C305.654 359.516 305.57 363.062 302.278 365.51C302.025 365.003 301.856 364.412 301.518 363.568C301.518 363.484 301.518 363.484 301.434 363.399C300.252 360.192 299.492 358.841 298.057 357.322L296.876 358.503C298.142 359.685 298.733 360.951 299.914 363.906C299.914 363.99 299.914 363.99 299.999 364.075C300.421 365.172 300.674 365.847 300.927 366.438C298.733 368.295 296.791 368.633 294.765 367.704C292.993 366.945 291.304 365.341 288.603 362.302C288.434 362.133 288.265 361.88 288.097 361.627C288.012 361.542 287.928 361.458 287.843 361.289C287.675 361.12 287.675 361.12 287.59 360.951C284.467 357.322 282.61 355.38 280.584 354.283C285.311 351.582 289.532 348.543 293.33 344.997C296.876 347.614 300.843 351.497 303.038 355.127ZM304.219 327.777C296.96 342.381 284.129 352.679 266.909 358.925C252.221 364.243 234.832 366.438 216.852 365.763C185.873 364.666 159.03 353.861 146.452 333.433C138.011 319.842 135.225 302.538 135.985 278.733C136.238 272.234 136.576 266.409 137.42 255.773C138.349 243.787 138.602 240.326 138.855 234.923C139.024 231.04 139.024 227.073 138.939 222.852C138.771 215.424 138.349 209.515 137.251 196.262C135.732 178.704 135.31 171.023 135.478 161.4C135.732 148.738 137.42 137.595 140.965 127.044C146.705 109.908 157.257 98.3435 172.451 90.8307C185.198 84.5842 200.645 81.3765 221.664 79.6883C241.332 79.6883 255.682 81.4609 268.091 86.0192C282.947 91.506 294.006 101.129 301.603 115.901C306.499 127.888 309.369 140.803 310.888 155.66C312.07 166.971 312.323 176.088 312.408 196.769V203.353C312.492 213.567 312.661 220.742 313.083 227.917C313.252 230.703 313.336 231.884 313.758 238.553C314.687 252.903 315.024 260.331 315.109 268.942C315.278 293.168 312.239 311.823 304.219 327.777ZM330.05 235.345C329.965 235.345 329.881 235.261 329.797 235.261C328.277 234.754 327.771 234.417 327.264 233.826L325.914 234.839C326.673 235.852 327.433 236.274 329.121 236.865C328.784 239.904 327.349 241.001 324.901 240.748C322.706 240.579 319.836 239.228 317.472 237.624C316.797 237.118 316.122 236.78 315.446 236.443C315.362 236.443 315.278 236.358 315.193 236.358C314.855 231.716 314.855 230.534 314.687 228.086C314.602 226.566 314.518 225.047 314.433 223.527C319.161 223.612 323.803 225.047 327.349 227.664C328.615 228.592 330.134 230.365 330.809 231.884C331.654 233.319 331.485 234.586 330.05 235.345Z" fill="black"/>
<path d="M234.377 166.067C234.461 170.373 235.305 175.1 234.546 179.658C233.364 181.853 231.169 182.106 229.228 182.95C226.526 182.528 224.247 180.755 223.15 178.223C222.475 173.074 223.319 168.178 223.572 163.029C223.572 162.86 226.78 163.113 229.65 163.957C232.098 164.717 234.377 165.983 234.377 166.067Z" fill="white"/>
<path d="M210.488 166.405C208.124 175.353 213.611 189.956 222.643 177.97C221.968 172.905 222.728 168.009 222.981 163.029C223.065 162.607 210.572 165.814 210.488 166.405Z" fill="white"/>
<path d="M235.39 170.035C235.221 167.502 235.137 166.489 235.137 165.223V164.632L234.546 164.464L223.91 161.171V160.581L222.812 160.834H222.728V160.918L210.741 163.957L210.319 164.041L210.151 164.464C208.293 168.937 208.715 175.69 211.079 179.827C213.78 184.554 218.17 184.638 222.644 179.236C223.91 181.684 226.273 183.372 228.975 183.794H229.228L229.481 183.71C229.819 183.541 230.156 183.456 230.747 183.203C230.832 183.203 230.832 183.203 230.916 183.119C233.364 182.275 234.377 181.599 235.221 179.995L235.305 179.911V179.742C235.559 178.223 235.643 176.619 235.643 174.846C235.643 173.58 235.559 172.398 235.39 170.035ZM221.884 166.912C221.799 168.431 221.715 169.022 221.631 169.866C221.462 172.989 221.462 175.353 221.715 177.716C217.748 182.781 214.624 182.781 212.514 178.983C210.488 175.437 210.066 169.444 211.586 165.477L222.222 162.775C222.137 163.873 222.053 164.97 221.884 166.912ZM233.702 179.405C233.111 180.418 232.351 180.924 230.325 181.599C230.241 181.599 230.241 181.599 230.156 181.684C229.65 181.853 229.312 182.021 229.059 182.106C226.78 181.684 224.838 180.164 223.91 178.054C223.657 175.775 223.657 173.411 223.825 170.288C223.91 169.444 223.91 168.853 224.079 167.334C224.247 165.392 224.332 164.21 224.332 163.113L233.533 165.899C233.533 166.996 233.617 168.009 233.786 170.204C233.955 172.483 234.039 173.665 234.039 175.015C234.039 176.619 233.955 178.054 233.702 179.405Z" fill="black"/>
<path d="M159.675 129.291C167.441 159.51 215.81 151.744 213.953 121.44C211.758 85.1427 152.247 92.149 159.675 129.291Z" fill="white"/>
<path d="M214.796 121.356C214.29 112.577 210.407 105.739 203.992 101.434C198.252 97.5512 190.654 96.0317 183.142 96.9603C175.629 97.9732 168.707 101.35 164.149 106.668C159.084 112.577 157.143 120.343 158.915 129.29L159.675 129.122L158.915 129.29C166.85 160.354 216.654 152.841 214.796 121.356ZM160.435 129.122C158.746 120.596 160.604 113.336 165.331 107.85C169.636 102.869 176.135 99.5771 183.311 98.6485C190.486 97.72 197.661 99.155 203.063 102.869C209.056 106.921 212.686 113.252 213.193 121.609C214.965 151.069 167.947 158.159 160.435 129.122Z" fill="black"/>
<path d="M173.012 133.173C177.534 133.173 181.2 129.205 181.2 124.31C181.2 119.415 177.534 115.447 173.012 115.447C168.49 115.447 164.824 119.415 164.824 124.31C164.824 129.205 168.49 133.173 173.012 133.173Z" fill="black"/>
<path d="M176.727 128.615C177.799 128.615 178.668 127.595 178.668 126.336C178.668 125.077 177.799 124.057 176.727 124.057C175.654 124.057 174.785 125.077 174.785 126.336C174.785 127.595 175.654 128.615 176.727 128.615Z" fill="white"/>
<path d="M227.509 123.641C233.502 158.334 290.227 149.133 282.039 114.186C274.695 82.785 225.483 91.4795 227.509 123.641Z" fill="white"/>
<path d="M282.799 114.017C275.286 81.6874 224.639 90.5507 226.665 123.725V123.809C229.45 140.185 244.054 148.542 260.176 145.841C267.52 144.575 274.105 141.03 278.41 135.796C283.137 129.971 284.825 122.459 282.799 114.017ZM277.143 134.783C273.092 139.679 266.929 143.055 259.923 144.237C244.645 146.77 230.97 138.919 228.268 123.556C226.411 92.3234 274.189 83.9665 281.28 114.355C283.137 122.374 281.617 129.381 277.143 134.783Z" fill="black"/>
<path d="M241.437 130.984C245.866 130.984 249.456 127.016 249.456 122.121C249.456 117.226 245.866 113.258 241.437 113.258C237.008 113.258 233.417 117.226 233.417 122.121C233.417 127.016 237.008 130.984 241.437 130.984Z" fill="black"/>
<path d="M245.151 126.426C246.177 126.426 247.008 125.406 247.008 124.147C247.008 122.888 246.177 121.868 245.151 121.868C244.125 121.868 243.294 122.888 243.294 124.147C243.294 125.406 244.125 126.426 245.151 126.426Z" fill="white"/>
<path d="M212.231 148.169C205.562 148.76 200.16 156.611 203.621 162.857C208.179 171.13 218.393 162.097 224.724 162.941C232.068 163.11 238.061 170.707 243.886 164.292C250.385 157.201 241.1 150.28 233.756 147.241L212.231 148.169Z" fill="#F6D2A2"/>
<path d="M244.73 153.825C242.451 150.955 238.483 148.338 234.178 146.565L234.009 146.481H233.841L212.231 147.325C204.718 148 199.316 156.695 202.945 163.279C204.38 165.811 206.322 167.078 208.939 167.246C210.88 167.331 212.906 166.909 216.029 165.811C216.283 165.727 216.62 165.643 217.042 165.474C221.263 164.039 222.951 163.617 224.64 163.87H224.724C226.75 163.87 228.438 164.461 231.646 165.727C235.191 167.162 236.288 167.584 238.061 167.753C240.509 167.922 242.619 167.078 244.561 164.967C247.853 161.338 247.684 157.455 244.73 153.825ZM243.295 163.786C241.691 165.558 240.087 166.149 238.146 166.065C236.626 165.98 235.613 165.558 232.237 164.208C228.86 162.773 227.003 162.266 224.808 162.182C222.698 161.928 220.925 162.351 216.452 163.87C216.029 164.039 215.692 164.123 215.439 164.208C209.276 166.318 206.322 166.149 204.296 162.435C201.257 156.948 205.9 149.52 212.231 148.929L233.587 148.085C237.639 149.773 241.269 152.221 243.379 154.838C245.912 157.877 245.996 160.916 243.295 163.786Z" fill="#231F20"/>
<path d="M235.444 144.539C232.827 134.916 210.88 136.351 211.387 147.831C212.484 156.357 237.977 154.078 235.444 144.539Z" fill="black"/>
</svg>
