<svg width="450" height="450" viewBox="0 0 450 450" fill="none" xmlns="http://www.w3.org/2000/svg">
<path d="M276.825 156.692L304.119 129.397L305.938 117.904C256.2 72.6769 177.135 77.8051 132.298 128.604C119.843 142.714 110.603 160.304 105.676 178.468L115.452 177.09L170.04 168.089L174.255 163.779C198.537 137.111 239.594 133.523 267.63 156.213L276.825 156.692Z" fill="#EA4335"/>
<path d="M343.002 177.665C336.728 154.562 323.847 133.792 305.938 117.905L267.63 156.213C283.806 169.43 293.022 189.342 292.627 210.227V217.027C311.456 217.027 326.721 232.291 326.721 251.12C326.721 269.951 311.456 284.832 292.627 284.832H224.343L217.638 292.111V333.004L224.343 339.421H292.627C341.603 339.802 381.616 300.791 381.998 251.815C382.228 222.128 367.592 194.297 343.002 177.665Z" fill="#4285F4"/>
<path d="M156.154 339.421H224.342V284.832H156.154C151.296 284.831 146.59 283.787 142.172 281.768L132.498 284.736L105.012 312.031L102.618 321.321C118.032 332.96 136.839 339.505 156.154 339.421Z" fill="#34A853"/>
<path d="M156.153 162.342C107.176 162.634 67.7097 202.576 68.0016 251.553C68.1647 278.902 80.9382 304.648 102.618 321.321L142.172 281.768C125.011 274.015 117.385 253.819 125.139 236.66C132.89 219.5 153.087 211.874 170.245 219.626C177.807 223.042 183.863 229.099 187.279 236.66L226.833 197.107C210.003 175.106 183.853 162.243 156.153 162.342Z" fill="#FBBC05"/>
</svg>
