<svg width="450" height="450" viewBox="0 0 450 450" fill="none" xmlns="http://www.w3.org/2000/svg">
<path d="M129.27 148.418C129.27 148.418 134.373 168.099 135.101 174.66C135.831 181.22 121.98 195.798 121.98 203.088C121.98 210.378 124.893 223.498 140.931 230.06C156.97 236.62 159.154 253.385 159.154 263.592C159.154 273.797 153.324 293.476 153.324 293.476C153.324 293.476 149.681 342.314 169.36 351.06C189.039 359.806 184.667 359.806 189.039 359.806C193.411 359.806 225.486 372.93 244.436 367.827C263.389 362.725 268.488 356.894 268.488 356.894C268.488 356.894 287.442 358.35 293.272 341.583C299.106 324.82 302.748 289.833 300.561 273.795C298.374 257.756 295.459 236.621 308.579 229.33C321.703 222.041 335.55 213.296 333.363 206.006C331.176 198.716 319.516 188.51 319.516 188.51C319.516 188.51 316.6 170.289 318.785 165.915C320.971 161.541 334.093 150.604 326.803 142.588C319.517 134.57 306.393 134.57 306.393 134.57L289.629 136.026C289.629 136.026 261.201 110.515 224.026 111.973C186.852 113.431 163.525 136.026 163.525 136.026C163.525 136.026 151.135 131.653 140.2 136.026C129.265 140.402 127.085 136.025 129.27 148.418Z" fill="#FBA919"/>
<path d="M195.875 256.947C195.875 256.947 181.44 279.018 170.852 294.682C169.213 297.104 181.44 297.273 181.44 297.273L195.875 256.947Z" fill="#E78724"/>
<path d="M202.747 211.186C202.747 211.186 198.396 222.042 196.012 227.797C193.425 234.053 183.56 237.165 183.56 237.165C183.56 237.165 188.673 231.802 188.673 218.215C188.673 212.514 196.033 210.248 196.033 210.248L202.747 211.186Z" fill="#E78724"/>
<path d="M198.352 217.324C198.352 217.324 189.437 227.936 172.884 221.993C156.328 216.052 154.631 194.825 154.631 188.882C154.631 182.938 186.044 194.825 190.29 197.372C194.536 199.92 202.596 210.107 198.352 217.324Z" fill="#E78724"/>
<path d="M135.824 103.928C135.824 103.928 151.105 100.954 161.292 109.021C171.483 117.085 174.45 123.455 174.45 123.455L157.28 137.066C157.28 137.066 148.983 133.219 146.435 122.181C143.889 111.144 145.587 106.051 135.824 103.928Z" fill="#E78724"/>
<path d="M193.895 186.671C187.316 177.332 176.474 173.259 167.817 172.584C153.055 171.429 146.047 176.647 146.047 176.647C146.047 176.647 170.223 177.671 177.191 186.823C190.162 203.856 209.086 205.24 212.112 201.499C208.613 201.673 204.763 199.939 200.643 196.044C198.069 193.607 195.983 189.636 193.895 186.671Z" fill="#E78724"/>
<path d="M153.085 219.694C153.085 219.694 126.261 210.473 131.36 201.136C136.453 191.796 132.399 186.707 132.399 186.707C132.399 186.707 117.421 197.887 121.238 209.772C123.583 217.067 127.518 222.349 149.126 232.475C159.489 251.726 151.266 286.376 151.758 286.539C152.579 286.812 166.31 279.752 165.372 247.335C165.087 237.38 164.291 223.79 153.085 219.694Z" fill="#E78724"/>
<path d="M188.234 120.538C176.987 126.252 161.579 134.209 161.579 134.209L167.643 137.243C167.064 138.181 166.785 138.74 166.785 138.74L173.009 141.57C173.009 141.57 188.203 152.577 197.513 159.654C194.409 150.096 185.298 135.08 185.298 135.08C185.298 135.08 182.715 128.18 188.234 120.538Z" fill="#E78724"/>
<path d="M225.597 353.449C191.028 353.449 179.318 335.9 179.318 335.9L184.721 349.055C186.763 354.747 208.547 372.458 225.545 372.458" fill="#E78724"/>
<path d="M183.106 324.041C183.106 324.041 186.287 343.479 199.022 343.479C209.844 343.479 213.033 327.06 213.033 323.667L183.106 324.041Z" fill="#E78724"/>
<path d="M161.913 294.726C163.045 291.611 167.006 279.018 168.279 267.558C169.805 253.832 169.249 233.756 169.249 233.756C169.249 233.756 165.851 246.915 162.879 249.042C159.909 251.163 154.39 265.595 154.39 265.595C154.39 265.595 151.433 287.08 150.026 294.302C153.92 295.082 157.198 292.787 161.913 294.726Z" fill="#E78724"/>
<path d="M131.159 209.561C131.159 209.561 138.374 207.012 140.498 191.308C142.62 175.601 137.949 162.017 137.949 162.017C137.949 162.017 138.374 183.666 135.828 187.912C133.279 192.156 131.159 193.429 128.186 198.949C125.212 204.47 129.459 207.863 131.159 209.561Z" fill="#E78724"/>
<path d="M139.774 107.643L138.301 106.71C133.958 106.857 139.774 107.643 139.774 107.643Z" fill="#FDC168"/>
<path d="M194.106 115.888C194.106 115.888 187.316 114.757 183.918 109.664C180.52 104.569 170.9 94.3796 155.563 94.2657C140.227 94.151 125.054 98.3421 125.054 98.3421L138.299 106.711C139.7 106.666 142.149 106.684 146.2 106.819C162.822 107.372 165.381 123.813 165.381 123.813L223.962 115.747" fill="#FBA919"/>
<path d="M199.768 206.697C199.768 206.697 191.843 214.622 179.672 212.073C167.502 209.527 160.143 204.15 159.577 194.81C159.011 185.471 162.126 181.792 162.126 181.792C162.126 181.792 175.709 186.04 182.221 191.7C188.73 197.359 193.541 206.415 199.768 206.697Z" fill="white"/>
<path d="M190.176 203.866C190.176 203.866 183.303 207.006 175.621 204.449C165.565 201.095 164.895 190.637 164.895 190.637C164.895 190.637 158.726 208.741 176.022 212.225C189.895 215.02 198.099 206.981 198.099 206.981L190.176 203.866Z" fill="#C9C9C9"/>
<path d="M195.06 112.048C194.321 96.5214 207.049 84.1554 211.459 83.6288C211.703 86.2598 211.213 96.5222 215.622 99.678C216.906 91.2958 221.246 82.0545 238.386 76C234.715 85.7359 237.896 93.8913 239.411 97.6714C251.115 87.0478 259.001 88.8036 259.001 88.8036C259.001 88.8036 250.869 102.836 254.049 112.044C230.554 110.202 195.175 114.541 195.06 112.048Z" fill="#463014"/>
<path d="M145.249 135.697C139.643 131.046 143.822 126.73 143.379 121.445C143.138 118.634 142.916 115.981 141.989 114.517C136.83 106.371 124.66 103.899 124.538 103.873L118.826 102.754L122.607 98.3312C123.097 97.7584 138.625 82.9429 162.654 90.7006C179.463 96.1218 191.906 114.505 192.37 115.248L183.941 119.211C183.843 119.054 174.005 101.775 159.585 97.1251C147.928 93.3637 137.184 96.9419 132.582 99.2874C137.474 101.241 143.87 104.798 147.724 110.882C149.542 113.756 149.849 117.374 150.145 120.878C150.535 125.516 150.901 129.895 154.315 132.731L145.249 135.697Z" fill="#463014"/>
<path d="M130.276 203.591C130.276 203.591 137.339 194.833 139.431 177.79C140.253 171.078 138.793 157.837 136.458 152.743C136.882 165.266 133.698 177.79 133.698 177.79C133.698 177.79 131.552 201.044 130.276 203.591Z" fill="#463014"/>
<path d="M167.52 126.851C167.517 126.833 165.254 116.945 158.981 111.953C150.131 104.914 139.326 108.659 139.222 108.692L137.653 103.845C138.176 103.675 150.526 99.7838 161.908 107.784C173.358 115.83 174.732 123.124 174.851 123.93L167.52 126.851Z" fill="#463014"/>
<path d="M152.46 197.31C152.46 197.31 148.754 192.005 149.42 186.172C149.752 183.291 151.087 180.333 153.471 179.284C157.9 177.338 159.864 182.359 159.864 182.359C159.864 182.359 153.629 183.897 152.46 197.31Z" fill="#463014"/>
<path d="M193.146 205.395C193.301 205.684 193.38 205.846 193.38 205.846C193.38 205.846 181.823 214.52 169.978 205.718C163.638 201.002 164.237 189.337 166.179 184.39C171.23 185.535 175.515 187.598 179.096 190.008C174.57 185.969 170.609 182.995 170.619 182.927L165.476 181.471L155.478 178.043C155.35 178.805 151.703 195.898 162.229 207.544C166.894 212.708 188.766 224.273 199.15 204.499L193.146 205.395Z" fill="#463014"/>
<path d="M192.064 206.666C198.571 216.57 214.989 210.911 214.707 200.44C214.707 200.44 203.736 206.495 194.044 195.347C188.385 188.839 170.253 170.894 145.663 176.858C162.644 180.592 185.125 196.107 192.064 206.666Z" fill="#463014"/>
<path d="M143.365 234.618C144.931 235.523 150.452 241.24 150.455 249.791C150.455 254.079 150.028 275.621 147.906 288.781C151.098 290.855 153.322 291.296 156.501 293.41C158.092 278.169 159.233 256.079 158.701 247.161C158.093 236.995 152.65 230.173 147.603 227.264C146.022 226.355 144.37 225.461 142.707 224.562C134.062 219.89 125.122 215.058 125.122 206.807C125.122 200.352 127.631 198.333 130.288 196.193L130.574 195.961C132.337 194.537 134.332 192.921 135.514 190.269C138.739 183.017 139.267 164.545 135.514 159.856C133.644 157.52 128.632 149.662 130.073 144.382C130.621 142.367 131.891 140.874 133.957 139.815C136.143 138.695 139.097 138.128 142.733 138.128C149.875 138.128 157.797 140.302 161.884 141.596C176.488 146.225 194.109 159.57 199.161 163.55C199.305 163.661 199.391 163.726 199.406 163.737L202.638 165.985L200.617 162.602C200.492 162.391 187.689 141.34 164.798 133.621C160.344 132.12 151.595 129.6 142.996 129.6C137.877 129.6 133.533 130.494 130.093 132.255C125.901 134.399 123.062 137.821 121.883 142.146C118.992 152.75 128.407 164.555 128.728 164.932C129.825 166.892 130.291 181.126 127.755 186.823C127.406 187.609 126.45 188.382 125.239 189.358C124.86 189.665 124.436 189.984 123.987 190.324C120.41 193.025 115 197.105 115 206.509C115 219.376 128.041 226.353 138.521 231.963C140.241 232.888 141.882 233.763 143.365 234.618Z" fill="#463014"/>
<path d="M145.249 135.697C139.643 131.046 143.822 126.73 143.379 121.445C143.138 118.634 142.916 115.981 141.989 114.517C136.83 106.371 124.66 103.899 124.538 103.873L118.826 102.754L122.607 98.3312C123.097 97.7584 138.625 82.9429 162.654 90.7006C179.463 96.1218 191.906 114.505 192.37 115.248L183.941 119.211C183.843 119.054 174.005 101.775 159.585 97.1251C147.928 93.3637 137.184 96.9419 132.582 99.2874C137.474 101.241 143.87 104.798 147.724 110.882C149.542 113.756 149.849 117.374 150.145 120.878C150.535 125.516 150.901 129.895 154.315 132.731L145.249 135.697Z" fill="#463014"/>
<path d="M145.067 136.65L144.705 136.35C140.548 132.9 141.285 129.501 141.999 126.213C142.324 124.696 142.666 123.127 142.527 121.518C142.301 118.812 142.083 116.259 141.268 114.97C136.356 107.214 124.484 104.729 124.367 104.705L117.232 103.306L121.962 97.7774C122.048 97.6742 132.018 87.6101 148.903 87.6101C153.506 87.6101 158.222 88.3759 162.914 89.8915C180.457 95.5484 192.973 114.608 193.091 114.797L193.597 115.606L183.627 120.296L183.227 119.66C182.154 117.832 172.701 102.242 159.328 97.9286C156.044 96.8684 152.584 96.3329 149.046 96.3329C142.64 96.3329 137.444 98.0789 134.68 99.2512C139.3 101.332 144.902 104.833 148.448 110.424C150.375 113.47 150.687 117.192 150.993 120.788C151.369 125.26 151.723 129.466 154.861 132.07L156.044 133.052L145.067 136.65Z" fill="#463014"/>
<path d="M167.52 126.851C167.517 126.833 165.254 116.945 158.981 111.953C150.131 104.914 139.326 108.659 139.222 108.692L137.653 103.845C138.176 103.675 150.526 99.7838 161.908 107.784C173.358 115.83 174.732 123.124 174.851 123.93L167.52 126.851Z" fill="#463014"/>
<path d="M166.912 128.008L166.691 127.035C166.668 126.94 164.449 117.39 158.45 112.619C155.031 109.897 150.907 108.515 146.201 108.515C142.528 108.515 139.798 109.392 139.5 109.495L138.689 109.764L136.584 103.299L137.391 103.038C137.753 102.924 141.031 101.902 145.668 101.902C151.784 101.902 157.567 103.697 162.399 107.089C174.135 115.337 175.568 122.964 175.691 123.805L175.794 124.47L166.912 128.008ZM146.202 106.819C151.229 106.819 155.834 108.365 159.509 111.288C164.836 115.531 167.342 123.021 168.099 125.706L173.874 123.405C173.351 121.366 171.049 115.248 161.421 108.48C156.815 105.242 151.517 103.602 145.668 103.602C142.459 103.602 139.966 104.113 138.734 104.424L139.776 107.643C140.984 107.318 143.308 106.819 146.202 106.819Z" fill="#463014"/>
<path d="M198.49 338.816C195.982 338.816 193.422 337.906 191.648 336.37C190.289 335.2 185.696 330.981 183.671 325.812C182.915 323.879 183.085 322.334 184.181 321.221C184.938 320.459 186.506 319.547 189.692 319.547L191.958 319.543C194.658 319.541 199.205 319.541 203.091 319.541H206.817C209.24 319.541 210.977 320.065 211.976 321.086C213.258 322.404 212.848 324.08 212.489 324.963C211.865 326.509 209.281 331.539 204.907 336.216C203.34 337.892 201.061 338.816 198.49 338.816Z" fill="#463014"/>
<path d="M201.119 207.249L192.063 206.666C192.063 206.666 194.378 210.747 195.878 216.025C197.571 221.995 194.329 230.72 194.329 230.72C194.329 230.72 206.404 217.049 201.119 207.249Z" fill="#463014"/>
<path d="M189.814 362.729C157.581 360.252 146.241 329.794 146.241 323.451L154.658 323.454L150.45 323.451H154.658C154.7 326.193 163.267 352.247 190.459 354.338L189.814 362.729Z" fill="#463014"/>
<path d="M180.757 308.16C180.253 305.249 180.201 302.488 180.815 299.775C178.366 297.934 173.97 297.25 170.672 296.181C167.975 294.474 154.175 297.931 144.162 285.814C131.617 270.641 134.257 261.582 134.257 261.582C131.041 265.155 127.923 263.794 123.021 280.457C118.111 297.123 125.325 308.742 138.771 320.406C145.123 325.916 154.103 328.186 161.827 329.055C159.24 326.457 166.247 326.197 171.077 324.39C170.692 320.491 171.336 316.705 174.244 313.657C175.997 311.819 178.253 310.721 180.593 309.846C180.724 309.543 180.834 309.264 180.958 308.974C180.881 308.709 180.805 308.441 180.757 308.16Z" fill="white"/>
<path d="M171.011 324.289C170.732 323.47 170.521 322.636 170.314 321.796C170.09 320.879 168.979 318.281 170.349 321.248C169.997 320.488 169.767 319.705 169.597 318.916C147.821 318.889 128.877 303.938 132.537 272.506C129.686 268.721 125.694 280.137 125.694 280.137C125.694 280.137 114.793 311.791 142.948 324.059C152.329 328.151 160.62 331.083 162.575 329.899C166.65 330.727 170.328 327.886 171.707 326.019C171.449 325.445 171.213 324.87 171.011 324.289Z" fill="#C9C9C9"/>
<path d="M180.363 303.603C180.397 300.95 180.939 298.38 182.221 295.819C182.311 295.643 182.415 295.474 182.511 295.303C174.132 295.231 164.481 294.428 156.264 291.139C147.231 287.526 135.933 275.165 133.991 260.643C133.991 260.643 116.98 273.769 121.979 301.865C126.671 328.248 148.748 336.849 173.926 338.304C173.94 338.133 171.094 332.256 171.994 328.658C157.697 329.697 141.709 324.173 133.991 311.474C126.925 299.85 128.907 280.006 131.811 277.098C138.895 299.449 164.383 303.993 180.363 303.603Z" fill="#463014"/>
<path d="M183.002 287.602C178.471 300.898 169.216 311.659 169.216 311.659C169.216 311.659 181.947 311.08 182.65 308.827C183.17 307.166 194.145 281.474 198.357 251.378C194.395 257.888 183.39 286.463 183.002 287.602Z" fill="#463014"/>
<path d="M255.128 256.947C255.128 256.947 269.56 279.018 280.151 294.682C281.79 297.104 269.56 297.273 269.56 297.273L255.128 256.947Z" fill="#E78724"/>
<path d="M248.253 211.186C248.253 211.186 252.605 222.042 254.986 227.797C257.573 234.053 267.437 237.165 267.437 237.165C267.437 237.165 262.324 231.802 262.324 218.215C262.324 212.514 254.966 210.248 254.966 210.248L248.253 211.186Z" fill="#E78724"/>
<path d="M252.649 217.324C252.649 217.324 261.563 227.936 278.121 221.993C294.678 216.05 296.374 194.825 296.374 188.882C296.374 182.938 264.961 194.825 260.715 197.372C256.469 199.92 248.405 210.107 252.649 217.324Z" fill="#E78724"/>
<path d="M315.178 103.928C315.178 103.928 299.897 100.954 289.707 109.021C279.52 117.085 276.547 123.455 276.547 123.455L293.719 137.065C293.719 137.065 302.019 133.218 304.567 122.18C307.112 111.144 305.415 106.051 315.178 103.928Z" fill="#E78724"/>
<path d="M257.107 186.671C263.686 177.332 274.525 173.259 283.186 172.584C297.948 171.429 304.952 176.647 304.952 176.647C304.952 176.647 280.777 177.671 273.808 186.823C260.836 203.856 241.918 205.24 238.892 201.499C242.39 201.673 246.242 199.939 250.359 196.044C252.932 193.607 255.02 189.636 257.107 186.671Z" fill="#E78724"/>
<path d="M297.918 219.694C297.918 219.694 324.738 210.473 319.644 201.136C314.551 191.796 318.601 186.707 318.601 186.707C318.601 186.707 333.582 197.887 329.762 209.772C327.417 217.067 323.482 222.349 301.874 232.475C291.511 251.726 299.734 286.376 299.244 286.539C298.422 286.812 284.694 279.752 285.631 247.335C285.916 237.38 286.712 223.79 297.918 219.694Z" fill="#E78724"/>
<path d="M262.769 120.538C274.012 126.252 289.423 134.209 289.423 134.209L283.36 137.243C283.939 138.181 284.219 138.74 284.219 138.74L277.994 141.57C277.994 141.57 262.799 152.577 253.489 159.654C256.59 150.096 265.701 135.08 265.701 135.08C265.701 135.08 268.288 128.18 262.769 120.538Z" fill="#E78724"/>
<path d="M225.408 353.449C259.972 353.449 271.681 335.9 271.681 335.9L266.282 349.055C264.24 354.747 242.454 372.458 225.46 372.458" fill="#E78724"/>
<path d="M267.896 324.041C267.896 324.041 264.712 343.479 251.98 343.479C241.16 343.479 237.971 327.06 237.971 323.667L267.896 324.041Z" fill="#E78724"/>
<path d="M289.089 294.726C287.958 291.611 283.996 279.018 282.72 267.558C281.195 253.832 281.754 233.756 281.754 233.756C281.754 233.756 285.151 246.915 288.119 249.042C291.093 251.163 296.61 265.595 296.61 265.595C296.61 265.595 299.566 287.08 300.973 294.302C297.08 295.082 293.805 292.787 289.089 294.726Z" fill="#E78724"/>
<path d="M319.845 209.561C319.845 209.561 312.628 207.012 310.506 191.308C308.385 175.601 313.055 162.017 313.055 162.017C313.055 162.017 312.628 183.666 315.176 187.912C317.725 192.158 319.845 193.429 322.818 198.949C325.787 204.469 321.543 207.863 319.845 209.561Z" fill="#E78724"/>
<path d="M311.228 107.643L312.704 106.71C317.048 106.857 311.228 107.643 311.228 107.643Z" fill="#FDC168"/>
<path d="M256.894 115.888C256.894 115.888 263.687 114.757 267.081 109.664C270.478 104.569 280.102 94.3796 295.44 94.2657C310.775 94.151 325.949 98.3421 325.949 98.3421L312.703 106.711C311.302 106.666 308.852 106.684 304.798 106.819C288.179 107.372 285.62 123.813 285.62 123.813L227.041 115.747" fill="#FBA919"/>
<path d="M251.235 206.697C251.235 206.697 259.16 214.622 271.328 212.073C283.499 209.527 290.857 204.15 291.424 194.81C291.989 185.471 288.877 181.792 288.877 181.792C288.877 181.792 275.291 186.04 268.782 191.7C262.273 197.361 257.463 206.415 251.235 206.697Z" fill="white"/>
<path d="M260.823 203.866C260.823 203.866 267.699 207.006 275.378 204.449C285.437 201.095 286.107 190.637 286.107 190.637C286.107 190.637 292.272 208.741 274.976 212.225C261.106 215.02 252.9 206.981 252.9 206.981L260.823 203.866Z" fill="#C9C9C9"/>
<path d="M305.752 135.697C311.358 131.046 307.183 126.73 307.626 121.445C307.862 118.634 308.085 115.981 309.012 114.517C314.172 106.371 326.341 103.899 326.467 103.873L332.18 102.754L328.398 98.3312C327.908 97.7584 312.38 82.9429 288.347 90.7006C271.541 96.1218 259.097 114.505 258.635 115.248L267.06 119.211C267.162 119.054 277 101.775 291.421 97.1251C303.077 93.3637 313.821 96.9419 318.42 99.2874C313.531 101.241 307.132 104.798 303.278 110.882C301.46 113.756 301.156 117.374 300.86 120.878C300.47 125.516 300.101 129.895 296.686 132.731L305.752 135.697Z" fill="#463014"/>
<path d="M320.723 203.591C320.723 203.591 313.663 194.833 311.571 177.79C310.749 171.078 312.206 157.837 314.541 152.743C314.117 165.266 317.303 177.79 317.303 177.79C317.303 177.79 319.45 201.044 320.723 203.591Z" fill="#463014"/>
<path d="M283.482 126.851C283.486 126.833 285.748 116.945 292.023 111.953C300.871 104.914 311.677 108.659 311.777 108.692L313.351 103.845C312.826 103.675 300.478 99.7838 289.093 107.784C277.643 115.83 276.272 123.124 276.149 123.93L283.482 126.851Z" fill="#463014"/>
<path d="M298.543 197.31C298.543 197.31 302.248 192.005 301.579 186.172C301.25 183.291 299.915 180.333 297.532 179.284C293.102 177.338 291.138 182.359 291.138 182.359C291.138 182.359 297.373 183.897 298.543 197.31Z" fill="#463014"/>
<path d="M257.857 205.395C257.702 205.684 257.622 205.846 257.622 205.846C257.622 205.846 269.176 214.52 281.021 205.718C287.365 201.002 286.766 189.337 284.82 184.39C279.771 185.535 275.488 187.598 271.905 190.008C276.431 185.969 280.393 182.995 280.379 182.927L285.526 181.471L295.522 178.045C295.651 178.807 299.296 195.899 288.767 207.546C284.103 212.71 262.231 224.275 251.85 204.5L257.857 205.395Z" fill="#463014"/>
<path d="M258.936 206.666C252.429 216.57 236.015 210.911 236.299 200.44C236.299 200.44 247.265 206.495 256.958 195.347C262.616 188.839 280.752 170.894 305.341 176.858C288.361 180.592 265.878 196.107 258.936 206.666Z" fill="#463014"/>
<path d="M307.639 234.618C306.072 235.523 300.549 241.24 300.549 249.791C300.545 254.079 300.973 275.621 303.098 288.781C299.905 290.855 297.681 291.296 294.503 293.41C292.911 278.169 291.767 256.079 292.302 247.161C292.91 236.995 298.35 230.173 303.397 227.264C304.978 226.355 306.63 225.461 308.297 224.562C316.942 219.89 325.882 215.058 325.882 206.807C325.882 200.352 323.37 198.333 320.714 196.193L320.431 195.961C318.668 194.537 316.669 192.921 315.491 190.269C312.265 183.017 311.736 164.545 315.487 159.856C317.358 157.52 322.373 149.662 320.933 144.382C320.38 142.367 319.11 140.874 317.045 139.815C314.858 138.695 311.908 138.128 308.269 138.128C301.131 138.128 293.205 140.302 289.121 141.596C274.518 146.225 256.896 159.57 251.841 163.55C251.697 163.661 251.613 163.726 251.597 163.737L248.363 165.985L250.385 162.602C250.513 162.391 263.313 141.34 286.204 133.621C290.658 132.12 299.407 129.6 308.006 129.6C313.126 129.6 317.465 130.494 320.908 132.255C325.101 134.399 327.939 137.821 329.12 142.146C332.011 152.75 322.595 164.555 322.274 164.932C321.176 166.892 320.712 181.126 323.244 186.823C323.593 187.609 324.549 188.382 325.762 189.358C326.141 189.665 326.562 189.984 327.015 190.324C330.593 193.025 336 197.105 336 206.509C336 219.376 322.959 226.353 312.482 231.963C310.761 232.888 309.118 233.763 307.639 234.618Z" fill="#463014"/>
<path d="M292.082 134.183C290.008 130.67 284.704 123.886 272.477 117.925C258.833 111.274 243.042 107.899 225.535 107.891V107.887H225.501H225.467V107.889C207.957 107.898 192.163 111.274 178.523 117.923C166.297 123.885 160.994 130.668 158.918 134.181L158.027 135.36L168.497 137.69L168.829 137.271L169.004 136.887C169.166 136.195 170.569 132.459 182.243 126.767C194.722 120.68 209.276 117.595 225.499 117.59C241.724 117.595 256.272 120.68 268.75 126.767C280.424 132.459 281.832 136.195 281.992 136.887L282.167 137.271L282.495 137.69L292.968 135.36L292.082 134.183Z" fill="#463014"/>
<path d="M305.752 135.697C311.358 131.046 307.183 126.73 307.626 121.445C307.862 118.634 308.085 115.981 309.012 114.517C314.172 106.371 326.341 103.899 326.467 103.873L332.18 102.754L328.398 98.3312C327.908 97.7584 312.38 82.9429 288.347 90.7006C271.541 96.1218 259.097 114.505 258.635 115.248L267.06 119.211C267.162 119.054 277 101.775 291.421 97.1251C303.077 93.3637 313.821 96.9419 318.42 99.2874C313.531 101.241 307.132 104.798 303.278 110.882C301.46 113.756 301.156 117.374 300.86 120.878C300.47 125.516 300.101 129.895 296.686 132.731L305.752 135.697Z" fill="#463014"/>
<path d="M294.962 133.055L296.141 132.073C299.281 129.469 299.633 125.263 300.012 120.792C300.316 117.194 300.63 113.471 302.558 110.428C306.099 104.838 311.706 101.336 316.325 99.2536C313.56 98.0822 308.364 96.3362 301.956 96.3362C298.417 96.3362 294.963 96.8716 291.678 97.9319C278.301 102.246 268.849 117.835 267.779 119.664L267.378 120.298L257.408 115.61L257.915 114.8C258.033 114.612 270.544 95.5517 288.089 89.8948C292.781 88.3792 297.496 87.6143 302.103 87.6143C318.987 87.6143 328.958 97.6801 329.044 97.7815L333.773 103.31L326.638 104.709C326.519 104.733 314.649 107.217 309.733 114.975C308.918 116.264 308.704 118.814 308.473 121.522C308.339 123.132 308.677 124.701 309.006 126.217C309.719 129.506 310.456 132.907 306.297 136.354L305.936 136.654L294.962 133.055Z" fill="#463014"/>
<path d="M283.482 126.851C283.486 126.833 285.748 116.945 292.023 111.953C300.871 104.914 311.677 108.659 311.777 108.692L313.351 103.845C312.826 103.675 300.478 99.7838 289.093 107.784C277.643 115.83 276.272 123.124 276.149 123.93L283.482 126.851Z" fill="#463014"/>
<path d="M275.214 124.47L275.313 123.805C275.437 122.964 276.871 115.339 288.605 107.089C293.433 103.697 299.218 101.902 305.335 101.902C309.974 101.902 313.252 102.922 313.615 103.038L314.421 103.299L312.317 109.764L311.505 109.495C311.202 109.393 308.473 108.515 304.801 108.515C300.096 108.515 295.975 109.895 292.556 112.619C286.556 117.391 284.335 126.94 284.315 127.035L284.094 128.006L275.214 124.47ZM311.228 107.643L312.273 104.424C311.04 104.111 308.544 103.602 305.335 103.602C299.488 103.602 294.188 105.244 289.584 108.48C279.953 115.25 277.651 121.366 277.129 123.405L282.908 125.706C283.664 123.019 286.167 115.529 291.496 111.288C295.174 108.365 299.773 106.819 304.8 106.819C307.691 106.819 310.02 107.318 311.228 107.643Z" fill="#463014"/>
<path d="M246.1 336.216C241.726 331.54 239.139 326.509 238.514 324.963C238.156 324.082 237.749 322.404 239.031 321.086C240.031 320.065 241.764 319.541 244.187 319.541H247.915C251.801 319.541 256.345 319.541 259.047 319.543L261.314 319.547C264.497 319.547 266.065 320.458 266.82 321.221C267.918 322.332 268.09 323.878 267.334 325.812C265.308 330.982 260.714 335.2 259.356 336.37C257.577 337.906 255.024 338.816 252.515 338.816C249.944 338.816 247.666 337.892 246.1 336.216Z" fill="#463014"/>
<path d="M249.885 207.249L258.936 206.666C258.936 206.666 256.625 210.747 255.125 216.025C253.431 221.995 256.673 230.72 256.673 230.72C256.673 230.72 244.597 217.049 249.885 207.249Z" fill="#463014"/>
<path d="M225.502 174.916C219.73 174.916 212.205 174.758 206.559 170.7C206.559 170.7 213.952 183.661 225.492 183.661L225.502 182.02L225.512 183.661C237.053 183.661 244.446 170.7 244.446 170.7C238.799 174.758 231.268 174.916 225.502 174.916Z" fill="#E78724"/>
<path d="M241.394 174.854C235.605 178.358 230.435 179.572 225.503 179.68C220.57 179.572 215.401 178.358 209.611 174.854C209.611 174.854 218.042 185.142 225.46 185.222V185.228C225.473 185.228 225.487 185.224 225.502 185.224C225.515 185.224 225.528 185.228 225.544 185.228V185.222C232.96 185.142 241.394 174.854 241.394 174.854Z" fill="#463014"/>
<path d="M261.189 362.729L260.543 354.337C287.729 352.246 296.296 326.192 296.34 323.45H304.758C304.762 329.793 293.417 360.252 261.189 362.729Z" fill="#463014"/>
<path d="M270.246 308.16C270.752 305.249 270.801 302.488 270.187 299.775C272.64 297.934 277.032 297.25 280.33 296.181C283.027 294.474 296.831 297.931 306.844 285.814C319.389 270.641 316.745 261.582 316.745 261.582C319.964 265.155 323.079 263.794 327.985 280.457C332.895 297.123 325.677 308.742 312.231 320.406C305.88 325.916 296.899 328.186 289.175 329.055C291.762 326.457 284.755 326.197 279.928 324.39C280.314 320.491 279.666 316.705 276.759 313.657C275.01 311.819 272.75 310.721 270.412 309.846C270.28 309.543 270.167 309.264 270.046 308.974C270.124 308.709 270.197 308.441 270.246 308.16Z" fill="white"/>
<path d="M279.988 324.289C280.27 323.47 280.478 322.636 280.685 321.796C280.912 320.879 282.024 318.281 280.651 321.248C281.003 320.488 281.234 319.705 281.404 318.916C303.179 318.889 322.123 303.938 318.46 272.506C321.311 268.721 325.305 280.137 325.305 280.137C325.305 280.137 336.207 311.791 308.052 324.059C298.671 328.151 290.382 331.083 288.425 329.899C284.347 330.727 280.669 327.886 279.293 326.019C279.55 325.445 279.791 324.87 279.988 324.289Z" fill="#C9C9C9"/>
<path d="M270.635 303.603C270.605 300.95 270.06 298.38 268.781 295.819C268.69 295.643 268.586 295.474 268.491 295.303C276.869 295.231 286.521 294.428 294.738 291.139C303.77 287.526 315.068 275.165 317.011 260.643C317.011 260.643 334.022 273.769 329.023 301.865C324.328 328.248 302.253 336.849 277.076 338.304C277.062 338.133 279.909 332.256 279.008 328.658C293.302 329.697 309.29 324.173 317.012 311.474C324.073 299.85 322.092 280.006 319.188 277.098C312.108 299.449 286.617 303.993 270.635 303.603Z" fill="#463014"/>
<path d="M280.802 310.22C277.794 306.968 272.263 303.092 259.511 303.092C259.511 303.092 235.334 303.078 225.545 303.072H225.503H225.461C215.673 303.079 191.49 303.092 191.49 303.092C178.741 303.092 173.211 306.969 170.201 310.22C165.817 314.953 165.129 321.537 168.162 329.766C176.221 351.669 187.547 373.923 225.46 373.954V373.957C225.474 373.957 225.486 373.954 225.501 373.954C225.515 373.954 225.528 373.957 225.543 373.957V373.954C263.452 373.921 274.778 351.669 282.84 329.766C285.873 321.537 285.183 314.953 280.802 310.22ZM274.9 328.23C271.06 339.229 260.74 365.852 225.5 365.898C190.256 365.852 179.94 339.23 176.101 328.23C173.976 322.127 174.137 317.612 176.598 314.806C178.278 312.889 182.138 310.6 190.936 310.6L200.126 310.596C206.907 310.59 215.419 310.583 225.501 310.58C235.58 310.583 244.097 310.59 250.876 310.596L260.063 310.6C268.863 310.6 272.722 312.888 274.403 314.806C276.861 317.614 277.024 322.127 274.9 328.23Z" fill="#463014"/>
<path d="M267.998 287.602C272.529 300.898 281.783 311.659 281.783 311.659C281.783 311.659 269.053 311.08 268.35 308.827C267.833 307.166 256.857 281.474 252.645 251.378C256.604 257.888 267.61 286.463 267.998 287.602Z" fill="#463014"/>
</svg>
