<svg width="450" height="450" viewBox="0 0 450 450" fill="none" xmlns="http://www.w3.org/2000/svg">
<path d="M264.909 377.203L268.027 325.244L276.637 310.547C276.637 310.547 257.041 318.563 224.233 318.563C191.426 318.563 172.126 310.695 172.126 310.695L181.776 326.728L185.189 377.203C185.189 382.614 203.035 387 225.049 387C247.063 387 264.909 382.614 264.909 377.203Z" fill="#D34A47"/>
<path d="M255.073 134.566L261.618 108.696L297.862 70.5583L288.309 62.4219L249.937 103.048L242.338 133.955C236.832 133.769 231.086 133.67 225.174 133.67C184.761 133.67 152 138.276 152 143.956C152 149.637 184.761 154.242 225.174 154.242C265.586 154.242 298.347 149.637 298.347 143.956C298.347 139.773 280.579 136.173 255.073 134.566Z" fill="#D34A47"/>
<path d="M251.266 149.053C251.266 149.053 249.848 149.371 245.679 149.389C241.508 149.406 238.546 149.362 237.367 148.288C237.05 147.999 236.876 147.426 236.878 147.038C236.881 146.3 237.405 145.865 238.073 145.593L238.704 146.583C238.43 146.678 238.273 146.79 238.272 146.91C238.27 147.47 242.537 147.854 245.8 147.813C249.065 147.773 253.008 147.504 253.012 146.951C253.012 146.784 252.714 146.626 252.195 146.502L252.823 145.519C253.669 145.781 254.407 146.289 254.406 147.167C254.398 148.659 252.498 148.886 251.266 149.053Z" fill="white"/>
<path d="M297.791 70.6336C298.702 69.581 297.319 66.8886 294.702 64.6208C292.084 62.3541 289.222 61.3693 288.309 62.4219C287.398 63.4745 288.781 66.167 291.399 68.4336C294.017 70.7009 296.879 71.6868 297.791 70.6336Z" fill="#D34A47"/>
<path d="M263.165 250.29C262.306 242.025 281.242 230.056 276.383 229.673C265.921 230.271 260.714 241.933 255.451 254.147C253.522 258.623 246.922 277.712 242.593 275.362C238.265 273.013 248.204 257.316 250.989 247.994C247.775 250.351 235.988 259.509 232.95 250.933C228.066 255.081 217.63 257.328 218.808 246.432C216.209 251.034 210.378 257.46 203.379 254.79C194.187 251.284 208.705 222.004 212.315 223.481C215.926 224.958 211.586 231.628 210.45 234.218C207.951 239.918 205.063 247.084 206.992 248.551C210.297 251.064 219.289 239.044 219.489 238.779C221.17 236.558 225.962 222.022 229.823 223.691C233.685 225.36 220.191 244.552 225.236 248.361C226.254 249.13 230.417 247.887 232.95 245.147C234.589 243.374 234.025 239.448 239.487 226.422C244.95 213.396 249.818 197.173 253.564 198.409C257.311 199.645 254.223 207.971 252.879 211.074C246.572 225.642 235.667 249.709 240.81 247.887C245.953 246.066 248.631 245.959 253.667 240.065C258.703 234.172 258.471 224.465 261.828 224.671C265.186 224.878 264.622 227.99 263.808 230.36C267.111 226.58 279.468 218.617 282.451 226.503C285.985 235.839 264.772 249.325 270.061 248.637C275.218 247.967 283.572 242.676 287.139 237.865L296.957 149.596C296.957 149.596 287.078 157.772 224.224 157.772C161.369 157.772 152.511 149.766 152.511 149.766L160.87 230.335C165.307 217.724 175.843 192.218 192.45 193.074C200.004 193.464 210.089 208.01 201.451 208.503C197.794 208.711 197.423 201.242 193.093 200.146C189.968 199.354 185.618 201.894 182.807 204.646C177.2 210.133 165.142 231.782 166.735 242.576C168.765 256.336 185.723 237.794 188.593 232.289C190.614 228.411 191.979 216.922 196.398 218.128C200.819 219.333 196.013 231.19 192.809 241.673C189.21 253.444 187.318 265.861 182.807 264.433C178.295 263.006 185.644 247.809 185.378 245.147C181.138 249.059 173.326 258.963 163.332 254.061L168.523 304.093C168.523 304.093 182.32 314.995 223.883 314.995C265.445 314.995 279.753 304.263 279.753 304.263L286.199 246.314C280.925 251.45 264.234 260.569 263.165 250.29Z" fill="#D34A47"/>
</svg>
