<svg width="450" height="450" viewBox="0 0 450 450" fill="none" xmlns="http://www.w3.org/2000/svg">
<path d="M317.382 375.035H132.615C116.811 375.035 104 362.226 104 346.422V103.614C104 87.8106 116.811 75 132.615 75H317.382C333.185 75 346 87.8106 346 103.614V346.422C346 362.226 333.185 375.035 317.382 375.035Z" fill="#6762A6"/>
<path d="M255.658 333.752V214.599C255.658 214.599 263.407 186.085 160.192 226.263C160.003 226.773 160.003 116.082 160.003 116.082L193.727 115.875V186.796C193.727 186.796 288.155 149.604 288.155 215.001V333.752H255.658V333.752ZM274.875 158.798H239.103C251.979 143.055 263.635 116.082 263.635 116.082H300.622C300.622 116.082 294.29 133.659 274.875 158.798ZM160.615 333.545V265.691L194.545 299.621L160.615 333.545Z" fill="white"/>
</svg>
