<svg width="450" height="450" viewBox="0 0 450 450" fill="none" xmlns="http://www.w3.org/2000/svg">
<path d="M121.188 341.098L98 81H352.68L329.464 341.119L225.278 370L121.188 341.098Z" fill="#E34E26"/>
<path d="M225.34 102.26V347.907L309.587 324.554L329.436 102.26H225.34Z" fill="#EF662A"/>
<path d="M145.443 134.164L154.042 230.633H264.61L260.899 272.01L225.299 281.635L189.766 272.024L187.39 245.456H155.369L159.948 296.671L225.291 314.819L290.717 296.671L299.488 198.736H183.218L180.299 166.067H302.282H302.379L305.237 134.164H145.443Z" fill="white"/>
<path d="M225.34 134.164H145.443L154.042 230.633H225.34V198.736H183.218L180.299 166.067H225.34V134.164Z" fill="#EBEBEB"/>
<path d="M225.34 281.621L225.299 281.635L189.766 272.024L187.39 245.456H155.369L159.948 296.671L225.291 314.819L225.34 314.805V281.621Z" fill="#EBEBEB"/>
</svg>
