<svg width="450" height="450" viewBox="0 0 450 450" fill="none" xmlns="http://www.w3.org/2000/svg">
<path d="M354.881 225.711C354.881 247.725 354.765 269.739 354.996 291.753C355.112 298.125 352.447 302.296 347.118 305.309C308.999 327.323 270.88 349.337 232.761 371.351C227.663 374.247 222.449 374.363 217.351 371.466C183.172 351.306 148.297 332.305 114.465 311.565C110.41 309.132 106.007 307.047 101.836 304.729C97.3173 302.18 95 298.357 95 292.911C95.1159 247.957 95.1159 203.002 95 158.047C95 152.601 97.0855 148.778 101.72 146.229C140.418 123.867 179.232 101.39 217.931 79.0285C222.797 76.2478 227.2 76.3637 232.066 79.1444C270.764 101.622 309.578 123.983 348.276 146.345C352.911 149.01 354.881 152.833 354.881 158.279C354.765 180.524 354.881 203.118 354.881 225.711ZM330.433 225.479C330.433 208.1 330.318 190.72 330.433 173.341C330.433 166.621 327.537 162.102 321.628 159.09C314.444 155.382 307.493 151.095 300.541 147.156C277.716 133.948 254.891 120.739 232.066 107.531C227.315 104.75 222.565 104.75 217.815 107.531C214.339 109.5 210.747 111.586 207.271 113.556C180.97 128.734 154.669 144.143 128.253 159.09C122.228 162.566 119.331 166.968 119.447 173.92C119.563 208.332 119.563 242.627 119.447 277.038C119.447 283.527 121.996 287.929 127.557 291.058C157.103 308.089 186.648 325.005 215.961 342.269C222.102 345.861 227.547 345.977 233.688 342.269C263.233 324.89 292.894 307.858 322.671 290.826C328 287.698 330.433 283.411 330.433 277.154C330.318 259.89 330.433 242.627 330.433 225.479Z" fill="#CD0E7D"/>
<path d="M330.433 225.479C330.433 242.627 330.317 259.89 330.549 277.038C330.665 283.295 328.116 287.698 322.786 290.71C293.125 307.858 263.464 324.89 233.804 342.153C227.547 345.861 222.217 345.745 216.076 342.153C186.647 324.89 157.218 307.974 127.673 290.942C122.112 287.698 119.447 283.411 119.563 276.922C119.679 242.511 119.679 208.216 119.563 173.804C119.563 166.853 122.459 162.334 128.368 158.974C154.785 143.912 181.086 128.618 207.387 113.44C210.863 111.47 214.339 109.385 217.93 107.415C222.681 104.75 227.547 104.75 232.181 107.415C255.006 120.623 277.831 133.832 300.656 147.04C307.608 151.095 314.56 155.266 321.743 158.974C327.652 162.102 330.549 166.505 330.549 173.225C330.317 190.72 330.433 208.1 330.433 225.479ZM281.771 225.943C281.771 201.959 281.655 178.091 281.887 154.108C281.887 149.126 280.38 147.735 275.63 148.083C269.721 148.43 263.696 148.43 257.671 148.083C253.5 147.851 252.457 149.473 252.457 153.412C252.689 168.822 252.342 184.232 252.573 199.758C252.689 204.16 251.531 205.782 246.78 205.667C231.95 205.319 217.003 205.319 202.173 205.667C197.191 205.782 195.453 204.508 195.569 199.294C195.916 183.884 195.569 168.475 195.8 152.949C195.8 149.126 194.642 147.851 190.818 148.083C184.214 148.314 177.726 148.314 171.122 148.083C167.53 147.967 166.487 149.357 166.603 152.833C166.719 201.032 166.719 249.347 166.603 297.546C166.603 301.254 167.53 302.76 171.469 302.528C177.61 302.296 183.867 302.18 190.007 302.528C194.41 302.76 195.916 301.601 195.916 296.851C195.685 277.502 195.916 258.268 195.685 238.919C195.685 234.864 196.843 233.59 200.898 233.705C215.961 233.937 231.023 233.937 246.085 233.705C251.067 233.59 252.689 234.864 252.573 240.078C252.226 258.964 252.573 277.849 252.342 296.851C252.226 301.485 253.732 302.876 258.251 302.644C264.16 302.296 270.184 302.296 276.209 302.644C280.612 302.876 281.771 301.485 281.655 297.082C281.655 273.446 281.771 249.695 281.771 225.943Z" fill="#D84F96"/>
<path d="M281.771 225.943C281.771 249.695 281.655 273.446 281.887 297.198C281.887 301.485 280.728 302.991 276.441 302.76C270.532 302.412 264.507 302.412 258.483 302.76C253.964 302.991 252.573 301.717 252.573 296.967C252.805 278.081 252.458 259.195 252.805 240.194C252.921 234.98 251.299 233.705 246.317 233.821C231.255 234.169 216.193 234.053 201.13 233.821C197.075 233.821 195.801 234.98 195.917 239.035C196.148 258.384 195.801 277.617 196.148 296.967C196.264 301.717 194.642 302.876 190.239 302.644C184.099 302.296 177.842 302.296 171.701 302.644C167.762 302.876 166.835 301.253 166.835 297.662C166.951 249.463 166.951 201.148 166.835 152.949C166.835 149.473 167.762 148.083 171.354 148.199C177.958 148.43 184.446 148.43 191.05 148.199C194.874 148.083 196.032 149.241 196.032 153.065C195.801 168.475 196.148 184 195.801 199.41C195.685 204.624 197.423 205.898 202.405 205.782C217.235 205.435 232.066 205.435 247.012 205.782C251.762 205.898 252.921 204.276 252.805 199.873C252.574 184.464 252.805 169.054 252.689 153.528C252.689 149.589 253.616 147.967 257.903 148.199C263.812 148.546 269.837 148.546 275.862 148.199C280.612 147.851 282.119 149.241 282.119 154.223C281.539 178.091 281.771 201.959 281.771 225.943Z" fill="white"/>
</svg>
