<svg width="450" height="450" viewBox="0 0 450 450" fill="none" xmlns="http://www.w3.org/2000/svg">
<path d="M93.0215 96.0217H357.561V353.394H93.0215V96.0217Z" fill="url(#paint0_radial)"/>
<path d="M93.0219 96.0219H357.561V353.394H93.0219V96.0219ZM81 365.416H369.641V84H81V365.416ZM270.056 184.336C270.056 183.354 270.402 182.891 271.5 182.891H290.4C291.383 182.891 291.845 183.238 291.845 184.336V279.24C291.845 280.222 291.614 280.685 290.4 280.685H271.732C270.518 280.685 270.171 280.107 270.171 279.124V184.336H270.056ZM268.726 156.998C268.726 149.311 274.159 144.745 280.979 144.745C288.32 144.745 293.232 149.658 293.232 156.998C293.232 164.916 288.088 169.251 280.748 169.251C273.812 169.309 268.726 164.974 268.726 156.998ZM214.628 223.87C211.276 210.519 203.299 181.447 200.294 167.344H200.063C197.52 181.389 191.162 205.201 186.134 223.87H214.628ZM181.221 243.348L171.742 279.413C171.511 280.396 171.164 280.627 169.95 280.627H152.264C151.051 280.627 150.819 280.28 151.051 278.835L185.209 159.31C185.787 157.172 186.191 155.206 186.423 149.311C186.423 148.444 186.769 148.097 187.405 148.097H212.663C213.53 148.097 213.876 148.329 214.108 149.311L252.37 279.066C252.601 280.049 252.37 280.627 251.387 280.627H231.447C230.464 280.627 229.886 280.396 229.655 279.529L219.772 243.348H181.221V243.348Z" fill="#FF7F18"/>
<defs>
<radialGradient id="paint0_radial" cx="0" cy="0" r="1" gradientUnits="userSpaceOnUse" gradientTransform="translate(180.236 153.747) scale(201.058 194.661)">
<stop stop-color="#423325" stop-opacity="0.98"/>
<stop offset="1" stop-color="#1C0A00"/>
</radialGradient>
</defs>
</svg>
