<svg width="450" height="450" viewBox="0 0 450 450" fill="none" xmlns="http://www.w3.org/2000/svg">
<path d="M184.112 293.449C185.311 249.674 185.265 205.899 184.112 162.123C184.527 162.077 184.896 161.939 185.265 161.754C210.451 161.847 235.682 161.939 260.868 162.031C260.868 205.852 260.822 249.72 260.822 293.541C235.59 293.725 210.312 293.864 185.081 294.048C184.804 293.772 184.481 293.587 184.112 293.449Z" fill="#A63C23"/>
<path d="M313.868 83.6604C316.774 84.583 315.806 87.0277 315.806 88.919C315.852 110.783 315.667 132.648 315.99 154.512C316.083 160.463 314.376 162.492 308.287 162.354C293.48 161.985 278.673 162.262 263.866 162.308C263.405 162.262 262.99 162.17 262.575 161.939C261.329 158.018 257.777 155.942 255.194 153.129C234.621 130.434 212.342 109.307 192.83 85.5516C229.501 85.5516 266.126 85.5516 302.798 85.4594C306.488 85.4594 310.593 86.8432 313.868 83.6604Z" fill="#B05328"/>
<path d="M260.822 293.541C260.822 249.72 260.868 205.852 260.868 162.031C261.421 162.031 261.975 161.985 262.529 161.939C262.944 162.17 263.359 162.308 263.82 162.308C263.728 203.961 263.636 245.614 263.589 287.268C263.589 289.297 264.512 291.281 264.973 293.31C281.256 297.554 297.585 296.954 313.915 293.725C317.651 295.893 315.668 299.445 315.714 302.259C315.944 320.618 315.898 339.023 315.714 357.382C315.668 360.241 317.513 363.793 313.961 366.007C310.916 362.363 306.765 363.839 303.075 363.839C276.966 363.701 250.858 363.793 224.796 363.793C214.048 363.793 203.301 363.793 191.123 363.793C192.968 361.164 193.568 359.965 194.49 359.042C214.002 340.222 233.514 321.448 253.026 302.582C255.932 299.814 261.191 299.076 260.822 293.541Z" fill="#913A1D"/>
<path d="M184.388 366.284C169.581 366.469 154.728 366.561 139.921 366.93C135.078 367.068 133.002 365.731 133.048 360.426C133.325 340.268 133.371 320.111 133.002 299.999C132.91 293.864 135.678 293.218 140.613 293.31C155.097 293.541 169.581 293.449 184.112 293.495C184.481 293.633 184.804 293.818 185.08 294.049C184.85 318.127 184.619 342.206 184.388 366.284Z" fill="#B05328"/>
<path d="M184.111 162.124C169.996 162.17 155.881 162.077 141.766 162.262C137.246 162.308 135.677 161.432 136.831 156.265C141.951 133.94 146.748 111.568 151.361 89.1035C152.329 84.3524 154.359 82.8302 159.156 83.0147C169.028 83.476 178.899 83.3837 188.77 83.476C188.816 84.214 188.909 84.9059 188.955 85.644C187.709 111.014 186.51 136.338 185.265 161.708C184.896 161.939 184.527 162.077 184.111 162.124Z" fill="#D46227"/>
<path d="M184.388 366.284C184.619 342.206 184.849 318.081 185.08 294.002C210.358 293.864 235.59 293.679 260.822 293.495C261.191 299.076 255.932 299.814 253.026 302.582C233.514 321.402 214.002 340.176 194.49 359.042C193.568 359.919 192.968 361.164 191.123 363.793C203.3 363.793 214.048 363.793 224.796 363.793C250.904 363.793 277.012 363.747 303.074 363.839C306.765 363.839 310.916 362.41 313.961 366.007C288.683 367.853 263.405 366.515 238.127 366.746C220.229 366.976 202.286 366.469 184.388 366.284Z" fill="#842D1C"/>
<path d="M188.955 85.69C188.909 84.9519 188.817 84.26 188.771 83.522C230.47 83.5681 272.169 83.6142 313.869 83.6603C310.593 86.797 306.488 85.4593 302.798 85.4593C266.126 85.5977 229.501 85.5516 192.83 85.5516C191.538 85.5977 190.247 85.6438 188.955 85.69Z" fill="#A63C23"/>
<path d="M313.915 293.726C297.586 296.955 281.257 297.554 264.974 293.311C281.303 293.08 297.632 292.25 313.915 293.726Z" fill="#842D1C"/>
<path d="M188.955 85.6902C190.247 85.644 191.538 85.644 192.784 85.5979C212.25 109.354 234.529 130.48 255.102 153.175C257.685 155.989 261.237 158.064 262.482 161.985C261.929 162.031 261.375 162.031 260.822 162.077C235.636 161.985 210.404 161.893 185.219 161.801C186.51 136.384 187.71 111.014 188.955 85.6902Z" fill="#842D1C"/>
</svg>
