<svg width="450" height="450" viewBox="0 0 450 450" fill="none" xmlns="http://www.w3.org/2000/svg">
<path d="M117.443 344.073L93 75L356.322 75.1027L332.085 343.868L224.456 374.267L117.443 344.073ZM312.264 329.387L332.701 98.929H224.866L225.688 353.111L312.264 329.387V329.387ZM214.802 132.717H188.613L188.305 270.643L137.469 256.778L137.572 288.307L214.802 309.155V132.717V132.717Z" fill="#D4BC04"/>
<path opacity="0.986" d="M137.571 288.307L137.469 256.778C137.469 256.778 169.922 265.919 188.305 270.643L188.613 132.82H214.802V309.155L137.571 288.307V288.307Z" fill="white"/>
<path d="M224.866 98.8264H332.701L312.264 329.284L224.866 353.008V98.8264ZM306.718 290.669L313.804 204.504L261.427 210.358V164.349L317.296 164.143L319.555 132.717L235.239 133.128L236.369 247.536L287.308 238.806L286.589 264.276L235.239 277.935L235.752 309.155L306.718 290.669Z" fill="#FCDC04"/>
<path d="M319.573 132.703L235.211 133.122L235.63 248.32L286.403 238.979L286.104 264.066L235.091 277.778L235.75 309.151L306.76 290.71L313.945 204.312L261.436 210.36V164.376L317.298 164.137L319.573 132.703Z" fill="white"/>
</svg>
