<svg width="450" height="450" viewBox="0 0 450 450" fill="none" xmlns="http://www.w3.org/2000/svg">
<path d="M184.396 310.223C184.396 310.223 172.427 317.184 192.914 319.539C217.734 322.37 230.419 321.964 257.77 316.788C257.77 316.788 264.961 321.297 275.003 325.202C213.689 351.48 136.237 323.68 184.396 310.223Z" fill="#5382A1"/>
<path d="M176.904 275.932C176.904 275.932 163.479 285.869 183.982 287.989C210.495 290.725 231.433 290.948 267.663 283.972C267.663 283.972 272.674 289.052 280.554 291.831C206.421 313.508 123.851 293.54 176.904 275.932Z" fill="#5382A1"/>
<path d="M240.066 217.762C255.174 235.156 236.097 250.808 236.097 250.808C236.097 250.808 274.458 231.005 256.84 206.206C240.386 183.08 227.768 171.59 296.078 131.972C296.078 131.972 188.853 158.752 240.066 217.762Z" fill="#E76F00"/>
<path d="M321.16 335.587C321.16 335.587 330.017 342.885 311.405 348.531C276.013 359.253 164.101 362.49 133.013 348.959C121.837 344.097 142.795 337.35 149.387 335.934C156.262 334.443 160.191 334.721 160.191 334.721C147.763 325.966 79.8592 351.913 125.699 359.343C250.712 379.617 353.586 350.214 321.16 335.587Z" fill="#5382A1"/>
<path d="M190.152 240.402C190.152 240.402 133.227 253.922 169.993 258.832C185.517 260.911 216.464 260.44 245.29 258.025C268.849 256.038 292.504 251.813 292.504 251.813C292.504 251.813 284.197 255.37 278.187 259.474C220.381 274.677 108.708 267.604 140.857 252.053C168.046 238.911 190.152 240.402 190.152 240.402Z" fill="#5382A1"/>
<path d="M292.269 297.482C351.033 266.946 323.863 237.601 304.899 241.555C300.251 242.522 298.178 243.361 298.178 243.361C298.178 243.361 299.904 240.657 303.199 239.487C340.717 226.298 369.57 278.389 291.088 299.021C291.088 299.021 291.998 298.209 292.269 297.482Z" fill="#5382A1"/>
<path d="M256.841 68C256.841 68 289.385 100.555 225.974 150.615C175.125 190.772 214.379 213.669 225.953 239.829C196.271 213.049 174.489 189.475 189.102 167.534C210.551 135.327 269.971 119.712 256.841 68Z" fill="#E76F00"/>
<path d="M195.926 380.226C252.331 383.837 338.948 378.223 341 351.533C341 351.533 337.057 361.651 294.384 369.686C246.241 378.746 186.863 377.689 151.645 371.882C151.646 371.881 158.855 377.849 195.926 380.226Z" fill="#5382A1"/>
</svg>
