<svg width="450" height="450" viewBox="0 0 450 450" fill="none" xmlns="http://www.w3.org/2000/svg">
<path d="M331.73 219.583C331.73 279.833 283.96 328.722 225 328.722C166.041 328.722 118.271 279.833 118.271 219.583C118.271 159.332 166.041 110.443 225 110.443C283.96 110.443 331.73 159.332 331.73 219.583Z" fill="#D33833"/>
<path d="M122.661 246.609C122.661 246.609 114.914 132.822 219.836 129.551L212.52 117.329L155.626 136.437L139.359 155.115L125.157 182.313L117.066 213.988L119.476 235.162" fill="#EF3D3A"/>
<path d="M151.925 145.13C133.247 164.324 121.628 190.748 121.628 220.013C121.628 249.277 133.247 275.701 151.925 294.895C170.689 314.089 196.424 325.881 225 325.881C253.576 325.881 279.311 314.089 298.075 294.895C316.753 275.701 328.372 249.277 328.372 220.013C328.372 190.748 316.753 164.324 298.075 145.13C279.311 126.022 253.576 114.144 225 114.144C196.51 114.144 170.689 125.936 151.925 145.13ZM147.191 299.457C127.308 279.144 115 250.999 115 220.013C115 189.027 127.308 160.881 147.191 140.482C167.074 120.169 194.617 107.517 225 107.517C255.383 107.517 282.926 120.169 302.809 140.482C322.692 160.795 335 188.941 335 220.013C335 250.999 322.692 279.144 302.809 299.457C282.926 319.856 255.383 332.423 225 332.423C194.617 332.423 167.074 319.856 147.191 299.457Z" fill="#231F20"/>
<path d="M269.93 220.185L253.662 222.595L231.714 225.091L217.512 225.435L203.654 225.005L193.067 221.734L183.685 211.578L176.369 190.834L174.734 186.359L165.008 183.088L159.327 173.706L155.282 160.279L159.757 148.487L170.344 144.786L178.865 148.831L182.911 157.783L187.817 157.008L189.452 154.942L187.817 145.56L187.387 133.769L189.797 117.501L189.711 108.205L197.113 96.3272L210.11 86.9454L232.833 77.2192L258.052 80.9203L280 96.7576L290.157 113.025L296.698 124.817L298.333 154.082L293.427 179.301L284.476 201.679L276.041 213.643" fill="#F0D6B7"/>
<path d="M256.158 290.505L198.059 292.915V302.641L202.965 336.812L200.555 339.652L159.929 325.795L157.089 320.889L153.044 274.926L143.49 247.383L141.424 240.842L173.959 218.463L184.116 214.418L193.067 225.435L200.813 232.321L209.765 235.161L213.81 236.366L218.716 257.54L222.418 262.016L231.799 258.745L225.258 271.397L260.547 288.095L256.158 290.505Z" fill="#335061"/>
<path d="M159.757 148.66L170.344 144.958L178.866 149.004L182.911 157.955L187.817 157.181L189.022 152.275L186.612 142.893L189.022 120.514L186.957 108.291L194.273 99.7701L210.11 87.2035L205.634 81.0923L183.255 92.1096L173.873 99.4258L168.623 110.787L160.532 121.805L158.122 134.802L159.757 148.66Z" fill="#6D6B6D"/>
<path d="M176.457 110.443C176.457 110.443 182.568 95.3804 206.927 88.0642C231.285 80.748 208.132 82.8137 208.132 82.8137L181.707 92.9704L171.551 103.127L167.075 111.218L176.457 110.443Z" fill="#DCD9D8"/>
<path d="M164.233 145.819C164.233 145.819 155.712 117.329 188.248 113.284L187.043 108.377L164.664 113.628L158.122 134.802L159.757 148.66L164.233 145.819Z" fill="#DCD9D8"/>
<path d="M177.23 183.604L182.567 178.439C182.567 178.439 184.977 178.698 185.407 181.538C185.838 184.378 187.043 210.028 204.516 223.8C206.151 225.091 191.519 221.734 191.519 221.734L178.522 201.421" fill="#F7E4CD"/>
<path d="M252.027 175.858C252.027 175.858 252.974 163.549 256.33 164.496C259.687 165.443 259.687 168.8 259.687 168.8C259.687 168.8 251.596 173.964 252.027 175.858Z" fill="#F7E4CD"/>
<path d="M285.767 130.756C285.767 130.756 279.053 132.133 278.451 138.072C277.848 144.011 285.767 139.277 286.972 138.847" fill="#F7E4CD"/>
<path d="M236.62 131.186C236.62 131.186 227.668 132.391 227.668 138.072C227.668 143.753 237.825 143.323 240.665 140.913" fill="#F7E4CD"/>
<path d="M181.362 157.611C181.362 157.611 165.955 148.229 164.32 157.181C162.685 166.132 159.069 172.588 166.73 181.97L161.48 180.334L156.573 167.768L154.938 155.545L164.32 145.819L174.907 146.594L181.018 151.5L181.362 157.611Z" fill="#F7E4CD"/>
<path d="M188.678 131.961C188.678 131.961 195.564 96.1549 230.509 89.2692C259.257 83.5884 274.406 90.4742 280.087 97.0157C280.087 97.0157 254.437 66.5462 230.079 75.8419C205.72 85.2238 187.817 102.266 188.248 113.197C188.936 131.961 188.678 131.961 188.678 131.961Z" fill="#F7E4CD"/>
<path d="M282.926 101.061C282.926 101.061 271.134 100.63 270.704 111.217C270.704 111.217 270.704 112.853 271.479 114.488C271.479 114.488 280.861 103.901 286.542 109.582" fill="#F7E4CD"/>
<path d="M231.37 115.607C231.37 115.607 229.304 99.4255 215.532 108.807C206.581 114.919 207.442 123.44 208.991 125.075C210.626 126.711 210.196 129.981 211.401 127.743C212.606 125.506 212.262 118.189 216.737 116.124C221.127 114.058 228.529 111.82 231.37 115.607Z" fill="#F7E4CD"/>
<path d="M193.153 225.435L154.937 242.477C154.937 242.477 170.775 305.482 162.684 325.02L157.003 322.954L156.573 298.94L145.986 253.494L141.51 240.928L181.362 214.073L193.153 225.435Z" fill="#49728B"/>
<path d="M197.026 260.294L202.449 266.922V291.28H195.993C195.993 291.28 195.219 274.238 195.219 272.172C195.219 270.106 195.993 262.79 195.993 262.79" fill="#49728B"/>
<path d="M197.199 294.981L178.866 295.756L184.116 299.457L197.113 301.522" fill="#49728B"/>
<path d="M259.773 290.936L274.836 290.505L278.537 327.861L263.13 329.927L259.773 290.936Z" fill="#335061"/>
<path d="M263.818 290.936L286.541 289.731C286.541 289.731 295.923 266.147 295.923 264.942C295.923 263.737 304.014 230.771 304.014 230.771L285.681 211.663L281.98 208.393L272.253 218.119V255.904L263.818 290.936Z" fill="#335061"/>
<path d="M273.975 288.095L259.773 290.936L261.839 302.297C267.089 304.707 276.041 298.252 276.041 298.252" fill="#49728B"/>
<path d="M274.405 216.914L302.895 238.088L303.67 228.362L282.152 208.479L274.405 216.914Z" fill="#49728B"/>
<path d="M211.315 370.983L202.88 336.812L198.662 311.593L197.974 292.915L236.104 290.85H259.773L257.622 333.541L261.323 366.507L260.892 372.618L229.992 375.028L211.315 370.983Z" fill="white"/>
<path d="M254.523 290.505C254.523 290.505 252.457 332.767 258.568 362.892C258.568 362.892 246.346 370.638 228.529 372.618L262.699 371.413L266.745 369.003L261.839 302.383L260.548 288.095" fill="#DCD9D8"/>
<path d="M279.139 324.677L294.977 320.201L325.016 318.565L329.492 304.708L321.401 280.693L312.019 279.488L299.022 283.534L286.627 289.645L280 288.44L274.835 290.506" fill="white"/>
<path d="M278.881 316.5C278.881 316.5 289.468 311.593 291.103 312.024L286.627 289.645L291.878 287.579C291.878 287.579 295.579 308.753 295.579 311.163C295.579 311.163 318.302 312.368 320.368 312.368C320.368 312.368 325.274 302.986 324.069 293.26L328.545 306.257L328.975 313.573L322.434 323.299L315.118 324.935L302.895 324.504L298.85 319.254L284.648 321.32L280.172 322.955" fill="#DCD9D8"/>
<path d="M262.872 287.665L253.921 264.942L244.539 251.515C244.539 251.515 246.604 245.834 249.445 245.834H258.827L267.778 249.105L267.004 264.168L262.872 287.665Z" fill="white"/>
<path d="M264.679 279.919C264.679 279.919 253.318 257.97 253.318 254.7C253.318 254.7 255.383 249.793 258.224 250.998C261.064 252.203 267.175 255.474 267.175 255.474V247.728L253.318 244.887L243.936 246.092L259.773 283.62L263.044 284.05" fill="#DCD9D8"/>
<path d="M214.93 226.296L203.654 225.091L193.067 221.82V225.521L198.232 231.202L214.5 238.518" fill="white"/>
<path d="M196.768 227.5C196.768 227.5 209.335 232.751 213.467 231.546L213.897 236.452L202.535 234.042L195.649 229.136L196.768 227.5Z" fill="#DCD9D8"/>
<path d="M279.14 247.211C272.254 247.039 265.971 246.178 260.548 244.629C260.892 242.391 260.204 240.239 260.806 238.604C262.356 237.485 264.852 237.485 267.176 237.227C265.196 236.28 262.356 235.85 260.118 236.452C260.032 234.903 259.343 233.956 258.913 232.751C262.786 231.374 271.91 222.336 277.074 225.263C279.57 226.726 280.603 234.817 280.775 238.862C280.947 242.133 280.431 245.404 279.14 247.211Z" fill="#D33833"/>
<path d="M279.14 247.211C272.254 247.039 265.971 246.178 260.548 244.629C260.892 242.391 260.204 240.239 260.806 238.604C262.356 237.485 264.852 237.485 267.176 237.227C265.196 236.28 262.356 235.85 260.118 236.452C260.032 234.903 259.343 233.956 258.913 232.751C262.786 231.374 271.91 222.336 277.074 225.263C279.57 226.726 280.603 234.817 280.775 238.862C280.947 242.133 280.431 245.404 279.14 247.211Z" fill="black" stroke="#D33833" stroke-width="2"/>
<path d="M246.174 235.936C246.174 236.452 246.174 236.969 246.088 237.485C243.936 238.862 240.493 238.862 238.083 240.067C241.526 240.24 244.28 241.1 246.69 242.219C246.604 243.51 246.604 244.887 246.518 246.179C242.559 248.847 238.944 252.892 234.296 255.474C232.058 256.679 224.397 259.778 222.073 259.176C220.782 258.831 220.61 257.196 220.094 255.647C218.975 252.376 216.392 247.039 216.134 242.047C215.876 235.764 215.187 225.177 221.987 226.468C227.496 227.501 233.865 229.997 238.083 232.321C240.751 233.87 242.214 235.592 246.174 235.936Z" fill="#D33833"/>
<path d="M246.174 235.936C246.174 236.452 246.174 236.969 246.088 237.485C243.936 238.862 240.493 238.862 238.083 240.067C241.526 240.24 244.28 241.1 246.69 242.219C246.604 243.51 246.604 244.887 246.518 246.179C242.559 248.847 238.944 252.892 234.296 255.474C232.058 256.679 224.397 259.778 222.073 259.176C220.782 258.831 220.61 257.196 220.094 255.647C218.975 252.376 216.392 247.039 216.134 242.047C215.876 235.764 215.187 225.177 221.987 226.468C227.496 227.501 233.865 229.997 238.083 232.321C240.751 233.87 242.214 235.592 246.174 235.936Z" fill="black" stroke="#D33833" stroke-width="2"/>
<path d="M250.047 243.424C249.445 239.981 248.756 239.034 249.014 236.022C258.224 229.911 259.859 246.523 250.047 243.424Z" fill="#D33833"/>
<path d="M250.047 243.424C249.445 239.981 248.756 239.034 249.014 236.022C258.224 229.911 259.859 246.523 250.047 243.424Z" fill="black" stroke="#D33833" stroke-width="2"/>
<path d="M263.302 246.179C263.302 246.179 260.462 242.133 262.528 240.928C264.593 239.723 266.573 240.928 267.778 238.862C268.983 236.797 267.778 235.592 268.208 233.182C268.639 230.772 270.618 230.341 272.684 229.911C274.75 229.48 280.431 228.706 281.205 230.685L278.795 223.369L273.889 221.734L258.482 230.685L257.708 235.161V244.113" fill="#EF3D3A"/>
<path d="M220.611 259.606C220.094 253.237 219.578 246.953 219.061 240.584C218.201 231.116 221.299 232.751 229.562 232.751C230.853 232.751 237.309 234.215 237.739 235.161C239.977 239.723 234.038 238.69 240.321 242.133C245.572 244.974 254.954 240.412 252.802 233.956C251.597 232.493 246.605 233.526 244.797 232.579C241.612 230.944 238.428 229.309 235.243 227.673C231.198 225.607 221.902 222.509 217.598 225.435C206.667 232.838 218.287 251.429 222.16 259.176" fill="#EF3D3A"/>
<path d="M231.37 115.607C220.266 113.025 214.758 120.255 211.401 127.743C208.388 127.055 209.593 122.923 210.368 120.858C212.348 115.435 220.352 108.119 226.894 109.152C229.648 109.496 233.435 112.078 231.37 115.607Z" fill="#231F20"/>
<path d="M285.336 128.174H285.853C288.349 133.338 290.501 138.847 293.685 143.495C291.533 148.487 277.676 152.79 277.848 144.011C280.86 142.72 286.025 143.753 288.693 142.031C287.144 137.814 284.992 134.199 285.336 128.174Z" fill="#231F20"/>
<path d="M236.964 128.346C239.374 132.735 240.149 137.297 243.506 140.568C245.055 142.031 247.981 143.839 246.518 147.97C246.174 148.917 243.678 151.069 242.215 151.499C236.964 153.049 224.656 151.844 228.787 145.216C233.177 145.388 239.03 148.056 242.301 144.872C239.804 140.912 235.329 132.994 236.964 128.346Z" fill="#231F20"/>
<path d="M283.357 172.587C275.439 177.665 266.573 183.26 253.49 181.969C250.736 179.559 249.617 174.136 252.371 170.607C253.748 173.017 252.887 177.493 256.847 178.182C264.249 179.473 272.856 173.62 278.193 171.64C281.464 166.046 277.935 164.066 274.922 160.451C268.811 153.135 260.72 144.011 260.978 133.08C263.474 131.272 263.647 135.834 263.991 136.609C267.176 144.011 275.18 153.565 280.947 159.934C282.411 161.484 284.734 163.033 284.993 164.066C285.767 166.992 283.013 170.607 283.357 172.587Z" fill="#231F20"/>
<path d="M178.521 167.25C176.025 165.787 175.422 159.59 172.496 159.418C168.278 159.16 169.053 167.509 169.053 172.415C166.213 169.833 165.696 161.742 167.762 157.61C165.352 156.405 164.319 158.901 162.942 159.762C164.749 147.282 181.275 153.995 178.521 167.25Z" fill="#231F20"/>
<path d="M288.349 177.837C284.648 184.895 279.397 192.641 268.552 192.9C268.294 190.662 268.122 187.133 268.552 185.756C276.901 184.895 282.066 180.677 288.349 177.837Z" fill="#231F20"/>
<path d="M236.362 182.399C243.248 186.014 255.986 186.444 265.454 186.186C265.971 188.252 265.971 190.834 265.971 193.33C253.835 193.847 239.547 190.834 236.362 182.399Z" fill="#231F20"/>
<path d="M235.071 189.113C239.891 201.163 256.331 199.786 270.189 199.441C269.586 200.991 268.295 202.884 266.574 203.487C262.098 205.294 249.875 206.671 243.678 203.401C239.805 201.335 237.223 196.601 235.071 193.847C234.124 192.555 228.96 189.199 235.071 189.113Z" fill="#231F20"/>
<path d="M282.754 255.474C277.16 265.114 271.737 275.013 265.109 283.448C267.864 275.271 269.069 261.499 269.499 250.998C275.352 248.244 280.344 251.601 282.754 255.474Z" fill="#81B0C4"/>
<path d="M312.966 290.075C306.683 291.366 302.293 297.477 296.096 297.047C299.539 292.313 305.392 290.247 312.966 290.075Z" fill="#231F20"/>
<path d="M315.72 299.887C310.556 300.404 304.531 301.264 299.366 300.834C301.862 297.047 311.33 298.424 315.72 299.887Z" fill="#231F20"/>
<path d="M317.528 308.408C311.761 308.494 304.617 308.408 299.108 307.978C302.379 304.449 313.826 306.687 317.528 308.408Z" fill="#231F20"/>
<path d="M271.91 331.648C272.77 338.878 275.611 346.194 275.266 354.113C272.082 355.146 270.274 356.093 265.97 356.093C265.712 349.379 264.765 339.05 265.024 332.595C267.089 332.767 270.188 331.131 271.91 331.648Z" fill="#DCD9D8"/>
<path d="M262.614 224.919C259.687 226.812 257.277 229.136 254.437 231.202C248.239 231.546 244.883 230.772 240.407 227.243C240.493 226.984 240.923 227.071 240.923 226.726C247.551 229.653 255.986 225.521 262.614 224.919Z" fill="#F0D6B7"/>
<path d="M228.013 269.935C229.82 262.102 236.964 257.97 243.42 253.667C250.047 262.102 254.093 272.947 258.569 283.448C247.982 280.263 237.223 275.185 228.013 269.935Z" fill="#81B0C4"/>
<path d="M265.024 332.681C264.766 339.136 265.627 349.379 265.971 356.178C270.274 356.178 272.082 355.231 275.267 354.199C275.611 346.28 272.77 338.964 271.91 331.734C270.188 331.131 267.09 332.767 265.024 332.681ZM198.576 296.186C201.417 322.094 205.462 343.784 212.95 366.765C229.562 371.843 249.531 372.274 264.249 367.712C261.581 354.801 262.7 339.05 261.151 325.192C259.946 314.778 260.548 304.363 258.913 293.776C241.096 290.075 215.963 292.915 198.576 296.186ZM263.13 293.948C262.958 305.052 263.647 316.069 264.508 327.172C268.811 326.57 271.652 326.139 275.611 325.192C274.32 314.519 274.492 302.383 271.824 292.915C268.811 293.001 266.143 292.915 263.13 293.948ZM284.734 292.141C282.669 291.71 280.345 292.141 278.451 292.141C279.398 301.178 281.55 311.163 282.324 320.717C285.337 320.803 286.972 319.339 289.468 318.909C289.641 310.56 288.78 299.026 284.734 292.141ZM317.528 322.094C323.897 320.544 327.857 312.798 326.049 304.793C324.844 299.457 322.778 289.3 320.454 285.857C318.819 283.361 314.257 280.005 310.556 282.329C304.617 286.116 294.202 287.235 289.899 291.796C292.051 299.026 292.739 308.839 293.6 317.962C301.002 318.393 310.04 315.897 316.237 318.565C311.933 319.942 306.425 319.942 302.724 322.008C305.822 323.471 312.88 323.213 317.528 322.094ZM258.483 283.447C254.007 272.947 249.961 262.102 243.334 253.667C236.878 257.97 229.821 262.102 227.927 269.934C237.223 275.185 247.982 280.263 258.483 283.447ZM269.5 250.998C269.069 261.499 267.864 275.271 265.11 283.447C271.738 274.926 277.16 265.114 282.755 255.474C280.345 251.601 275.353 248.244 269.5 250.998ZM257.019 246.609C254.523 246.35 252.371 249.535 249.101 248.158C248.326 249.019 247.637 249.879 246.863 250.74C254.093 259.519 257.45 271.914 263.044 282.156C266.057 272.258 265.713 261.499 266.401 250.74C262.27 250.912 259.946 246.867 257.019 246.609ZM249.015 236.022C248.756 239.034 249.445 239.981 250.047 243.424C259.86 246.523 258.224 229.911 249.015 236.022ZM238.083 232.407C233.866 230.083 227.497 227.587 221.988 226.554C215.188 225.263 215.877 235.85 216.135 242.133C216.393 247.125 218.975 252.375 220.094 255.732C220.611 257.282 220.783 258.917 222.074 259.261C224.398 259.778 232.145 256.765 234.296 255.56C238.944 253.064 242.559 249.019 246.519 246.264C246.605 244.973 246.605 243.596 246.691 242.305C244.281 241.1 241.612 240.325 238.083 240.153C240.407 238.948 243.936 238.948 246.088 237.571C246.088 237.055 246.088 236.538 246.174 236.022C242.215 235.591 240.752 233.87 238.083 232.407ZM197.63 225.091C194.101 228.706 207.528 233.526 211.745 233.784C211.745 231.546 213.037 229.394 212.778 227.759C207.7 226.898 201.073 227.501 197.63 225.091ZM241.01 226.726C241.01 227.07 240.58 226.984 240.493 227.242C245.055 230.771 248.412 231.546 254.523 231.202C257.278 229.222 259.774 226.812 262.7 224.919C255.986 225.521 247.551 229.652 241.01 226.726ZM280.775 238.776C280.603 234.817 279.57 226.64 277.074 225.177C271.91 222.164 262.786 231.288 258.913 232.665C259.343 233.87 260.032 234.817 260.118 236.366C262.442 235.764 265.196 236.194 267.176 237.141C264.852 237.399 262.356 237.399 260.806 238.518C260.29 240.153 260.979 242.305 260.548 244.543C265.971 246.092 272.254 246.867 279.14 247.125C280.431 245.404 280.947 242.133 280.775 238.776ZM191.691 228.534C190.572 227.759 183.083 218.033 182.051 218.463C168.537 223.8 155.885 233.009 144.609 241.789C155.368 264.942 159.758 293.26 160.533 320.544C172.841 326.311 183.686 334.66 200.47 335.521C198.49 321.836 196.769 309.527 195.65 296.616C191.432 294.809 185.407 296.703 181.448 296.1C181.448 291.366 187.473 294.034 187.99 290.85C188.334 288.44 184.633 288.267 185.838 284.48C188.936 285.599 190.572 288.095 193.842 289.042C196.855 282.501 193.842 270.881 194.273 265.372C194.359 264.339 194.789 259.692 197.113 260.466C199.179 261.155 197.027 272.947 197.199 278.111C197.371 282.931 196.597 287.493 198.576 290.505C214.758 288.267 231.198 286.89 248.756 286.374C244.883 284.739 240.321 283.189 235.329 280.349C232.575 278.8 224.054 275.615 223.279 273.033C221.988 268.901 226.55 266.75 227.324 263.221C219.148 267.696 217.598 258.917 215.619 252.806C213.897 247.211 212.864 242.994 212.434 239.809C205.29 236.194 197.716 232.837 191.691 228.534ZM273.631 219.582C284.907 214.16 286.972 239.981 282.497 248.33C283.185 250.826 285.509 251.773 286.456 254.011C280.173 265.286 273.201 275.787 266.745 286.89C271.479 283.878 278.365 286.374 283.96 284.136C286.026 283.361 287.489 278.627 289.038 274.84C293.342 264.512 297.817 251.429 299.797 241.616C300.227 239.379 301.519 234.473 301.174 232.493C300.658 228.878 295.838 226.21 293.342 224.058C288.78 219.926 285.939 216.397 281.119 212.524C279.312 215.365 275.181 217.258 273.631 219.582ZM165.955 119.652C160.619 125.591 161.738 136.609 162.34 144.527C172.066 138.416 184.891 145.044 184.805 155.372C189.453 155.286 186.526 149.606 185.666 145.904C182.911 133.94 190.314 121.03 186.01 110.098C177.661 110.787 170.861 114.144 165.955 119.652ZM204.343 85.3098C192.207 88.7526 176.628 97.618 171.636 108.549C175.509 107.947 178.177 106.053 181.965 105.795C183.428 105.709 185.321 106.397 186.957 105.967C190.227 105.106 193.068 97.7041 195.564 94.9498C197.974 92.2816 200.9 91.0766 202.88 88.6666C204.171 88.0641 206.065 88.0641 206.151 86.1705C205.634 85.568 205.032 85.1376 204.343 85.3098ZM267.606 88.5805C254.954 81.4365 233.608 76.1 220.181 82.8137C209.335 88.2362 194.703 97.1877 189.711 108.463C194.359 119.394 188.334 129.379 187.904 140.482C187.731 146.421 190.658 151.499 190.916 157.955C189.281 160.623 184.461 160.881 181.104 160.709C179.985 155.028 178.005 148.659 172.152 147.97C163.889 147.023 157.778 153.909 157.434 161.053C157.004 169.488 163.889 183.432 173.702 182.485C177.489 182.141 178.436 178.354 182.567 178.354C184.805 182.829 179.124 184.206 178.522 187.391C178.35 188.252 178.952 191.437 179.382 192.986C181.19 200.302 185.149 209.856 189.022 215.451C194.015 222.595 203.741 223.627 214.242 224.316C216.135 220.271 223.021 220.615 227.497 221.648C222.074 219.496 217.082 214.332 212.95 209.77C208.216 204.519 203.396 198.925 203.138 192.039C212.176 204.519 219.578 215.451 235.932 220.959C248.326 225.091 262.786 219.066 272.34 212.352C276.299 209.598 278.623 205.122 281.464 201.163C291.965 186.014 296.871 164.496 295.838 143.58C295.407 134.973 295.407 126.366 292.481 120.599C289.468 114.574 279.226 109.066 273.201 114.574C272.082 108.635 278.193 105.02 285.337 107.172C280.259 100.544 274.922 92.7119 267.606 88.5805ZM291.19 283.189C301.088 278.283 319.508 270.02 325.619 283.189C327.943 288.095 330.611 296.272 331.73 301.35C333.365 308.408 329.922 323.385 322.606 325.709C316.151 327.775 308.662 327.688 300.916 326.139C299.969 325.365 299.022 324.073 298.248 322.696C292.739 322.524 287.489 322.955 283.185 325.278C283.616 329.41 280.861 330.012 278.193 330.873C276.299 338.534 282.066 348.518 280.689 355.404C279.742 360.396 273.631 361.17 269.155 362.031C268.983 364.785 269.328 367.109 269.672 369.433C268.639 373.221 264.077 375.372 259.688 375.889C245.314 377.61 223.537 378.385 209.766 373.393C205.893 363.925 202.88 352.477 199.695 341.718C186.268 343.181 175.337 335.951 165.094 331.131C161.565 329.496 156.659 328.549 155.282 325.709C153.991 322.955 154.508 317.704 154.163 312.798C153.389 300.145 152.614 287.923 149.343 275.012C147.88 269.16 145.212 264.081 143.404 258.487C141.683 253.322 138.756 246.867 137.982 241.703C136.863 234.042 144.093 233.612 148.655 230.255C155.799 225.091 161.393 222.25 169.14 217.602C171.464 216.225 178.35 212.782 179.124 211.147C180.673 207.962 176.456 203.487 175.337 200.99C173.529 197.031 172.583 193.674 172.324 189.801C165.869 188.768 160.877 184.895 157.95 180.591C153.044 173.361 149.601 160.02 153.905 149.95C154.249 149.175 155.885 147.54 156.143 146.335C156.659 143.925 155.196 140.74 155.11 138.158C154.68 124.989 157.348 113.627 166.213 109.668C169.828 95.2941 182.739 90.5601 194.875 83.4162C199.437 80.7479 204.429 79.0265 209.594 77.1329C228.099 70.3332 256.589 71.6243 271.996 83.244C278.537 88.1501 288.952 98.5648 292.653 106.139C302.551 126.022 301.777 159.332 294.891 183.604C293.944 186.875 292.653 191.609 290.76 195.568C289.468 198.322 285.423 203.745 285.853 206.155C286.37 208.651 295.149 215.278 297.043 217.086C300.4 220.357 306.855 224.66 307.371 228.792C307.974 233.181 305.478 239.206 304.187 243.424C300.055 257.54 295.924 270.537 291.19 283.189Z" fill="#231F20"/>
<path d="M260.978 255.302C260.978 256.507 259.945 257.54 258.74 257.54C257.535 257.54 256.502 256.507 256.502 255.302C256.502 254.097 257.535 253.064 258.74 253.064C260.031 253.064 260.978 254.097 260.978 255.302Z" fill="#1D1919"/>
<path d="M263.217 265.717C263.217 266.922 262.184 267.955 260.979 267.955C259.774 267.955 258.741 266.922 258.741 265.717C258.741 264.512 259.774 263.479 260.979 263.479C262.27 263.479 263.217 264.426 263.217 265.717Z" fill="#1D1919"/>
</svg>
