<svg width="450" height="450" viewBox="0 0 450 450" fill="none" xmlns="http://www.w3.org/2000/svg">
<path fill-rule="evenodd" clip-rule="evenodd" d="M360.409 292.851L359.137 296.145C337.473 338.327 299.091 364.209 244.342 365.351C218.747 365.878 194.36 359.312 178.43 352.169C144.049 336.723 115.133 308.077 99.3396 277.471C76.6856 233.596 72.6009 172.563 119.705 126.976C120.43 126.976 113.991 136.86 114.717 136.86L113.421 141.078C79.4771 247.348 184.053 338.417 285.71 328.001C310.142 325.499 341.297 312.118 360.409 292.851Z" fill="#21609B"/>
<path fill-rule="evenodd" clip-rule="evenodd" d="M298.892 248.908C324.468 249.085 351.182 237.131 367 220.349C353.161 255.48 313.088 278.063 259.347 270.88C214.353 264.86 171.489 219.58 167.072 174.21C163.843 141.19 175.353 121.483 194.316 97.5789C187.726 110.081 185.263 119.724 184.649 125.875C177.444 197.301 241.706 248.536 298.892 248.908Z" fill="#21609B"/>
<path fill-rule="evenodd" clip-rule="evenodd" d="M364.431 160.193C360.455 169.312 337.562 186.535 327.454 188.688C287.425 197.214 261.788 178.232 248.361 156.633C246.363 153.404 242.672 144.596 242.012 142.353C236.804 124.646 239.199 97.8641 254.735 84C250.054 97.1817 249.372 112.494 251.835 122.447C253.326 128.467 257.873 138.972 262.423 145.582C270.705 157.622 275.956 160.547 286.591 166.939C291.38 169.818 296.519 172.125 298.74 172.761C308.823 175.726 330.112 183.548 364.431 160.193Z" fill="#21609B"/>
</svg>
