<svg width="450" height="450" viewBox="0 0 450 450" fill="none" xmlns="http://www.w3.org/2000/svg">
<path d="M276.751 240.839C265.302 240.839 255.038 245.912 248.009 253.897L229.998 241.147C231.91 235.883 233.008 230.231 233.008 224.315C233.008 218.501 231.949 212.944 230.1 207.757L248.07 195.142C255.098 203.088 265.335 208.132 276.751 208.132C297.883 208.132 315.077 190.941 315.077 169.806C315.077 148.672 297.883 131.48 276.751 131.48C255.619 131.48 238.425 148.672 238.425 169.806C238.425 173.589 238.996 177.237 240.022 180.691L222.04 193.313C214.528 183.994 203.712 177.487 191.389 175.501V153.828C208.75 150.182 221.83 134.757 221.83 116.326C221.83 95.1917 204.636 78 183.504 78C162.373 78 145.178 95.1917 145.178 116.326C145.178 134.51 157.92 149.745 174.933 153.651V175.606C151.714 179.681 134 199.945 134 224.315C134 248.803 151.89 269.141 175.276 273.078V296.26C158.089 300.038 145.178 315.366 145.178 333.674C145.178 354.808 162.373 372 183.504 372C204.636 372 221.83 354.808 221.83 333.674C221.83 315.366 208.919 300.038 191.732 296.26V273.077C203.812 271.043 214.429 264.665 221.864 255.553L239.995 268.386C238.989 271.809 238.425 275.421 238.425 279.165C238.425 300.3 255.619 317.492 276.751 317.492C297.883 317.492 315.077 300.3 315.077 279.165C315.077 258.031 297.883 240.839 276.751 240.839ZM276.751 151.224C286.998 151.224 295.333 159.562 295.333 169.806C295.333 180.05 286.998 188.388 276.751 188.388C266.504 188.388 258.169 180.05 258.169 169.806C258.169 159.562 266.504 151.224 276.751 151.224ZM164.922 116.326C164.922 106.082 173.257 97.7445 183.504 97.7445C193.751 97.7445 202.086 106.082 202.086 116.326C202.086 126.57 193.751 134.908 183.504 134.908C173.257 134.908 164.922 126.57 164.922 116.326ZM202.086 333.674C202.086 343.918 193.751 352.256 183.504 352.256C173.257 352.256 164.922 343.918 164.922 333.674C164.922 323.43 173.257 315.092 183.504 315.092C193.751 315.092 202.086 323.43 202.086 333.674ZM183.503 250.23C169.211 250.23 157.585 238.606 157.585 224.315C157.585 210.023 169.211 198.397 183.503 198.397C197.794 198.397 209.42 210.023 209.42 224.315C209.42 238.606 197.794 250.23 183.503 250.23ZM276.751 297.748C266.504 297.748 258.169 289.41 258.169 279.165C258.169 268.921 266.504 260.584 276.751 260.584C286.998 260.584 295.333 268.921 295.333 279.165C295.333 289.41 286.998 297.748 276.751 297.748Z" fill="black"/>
</svg>
