<svg width="450" height="450" viewBox="0 0 450 450" fill="none" xmlns="http://www.w3.org/2000/svg">
<path d="M169.295 372.017C162.055 372.017 155.218 368.799 150.593 362.968L80.2114 275.493C75.5863 269.662 73.7765 262.221 75.5863 254.982L100.723 145.79C102.331 138.55 107.158 132.719 113.794 129.501L215.546 80.8372C218.763 79.2284 222.383 78.4241 226.002 78.4241C229.622 78.4241 233.242 79.2284 236.459 80.8372L338.211 129.3C344.847 132.518 349.673 138.349 351.282 145.588L376.418 254.781C378.027 262.02 376.418 269.46 371.793 275.292L301.412 362.767C296.786 368.397 289.949 371.816 282.71 371.816L169.295 372.017Z" fill="#326DE6"/>
<path d="M225.802 83.4513C228.617 83.4513 231.432 84.0545 234.046 85.2611L335.798 133.724C341.027 136.338 345.049 141.164 346.255 146.795L371.392 255.987C372.799 261.819 371.392 267.852 367.571 272.477L297.189 359.951C293.569 364.576 287.939 367.191 282.107 367.191H169.295C163.463 367.191 157.833 364.576 154.213 359.951L83.8314 272.477C80.2118 267.852 78.8041 261.819 80.0107 255.987L105.147 146.795C106.555 140.963 110.375 136.137 115.604 133.724L217.356 85.06C219.97 84.0545 222.986 83.4513 225.802 83.4513ZM225.802 74C221.579 74 217.356 75.0055 213.334 76.8153L111.582 125.479C103.538 129.3 97.9078 136.338 95.8969 144.985L70.7605 254.177C68.7496 262.824 70.7605 271.672 76.391 278.711L146.773 366.185C152.202 373.022 160.447 376.843 169.094 376.843H281.906C290.553 376.843 298.798 373.022 304.227 366.185L374.609 278.711C380.24 271.874 382.25 262.824 380.24 254.177L355.103 144.985C353.092 136.338 347.462 129.3 339.418 125.479L238.068 76.8153C234.247 75.0055 230.025 74 225.802 74Z" fill="white"/>
<path d="M327.755 247.341C327.554 247.341 327.554 247.341 327.755 247.341H327.554C327.352 247.341 327.151 247.341 327.151 247.139C326.749 247.139 326.347 246.938 325.945 246.938C324.537 246.737 323.331 246.536 322.124 246.536C321.521 246.536 320.918 246.536 320.113 246.335H319.912C315.689 245.933 312.271 245.531 309.053 244.525C307.646 243.922 307.243 243.118 306.841 242.313C306.841 242.112 306.64 242.112 306.64 241.911L304.026 241.107C305.232 231.857 304.83 222.204 302.618 212.753C300.406 203.302 296.586 194.454 291.357 186.41L293.368 184.6V184.198C293.368 183.193 293.569 182.187 294.374 181.182C296.787 178.97 299.803 177.16 303.423 174.948C304.026 174.546 304.629 174.345 305.232 173.942C306.439 173.339 307.444 172.736 308.651 171.931C308.852 171.73 309.254 171.529 309.656 171.127C309.858 170.926 310.059 170.926 310.059 170.725C312.874 168.312 313.477 164.29 311.466 161.676C310.461 160.268 308.651 159.464 306.841 159.464C305.232 159.464 303.825 160.067 302.417 161.073C302.216 161.274 302.216 161.274 302.015 161.475C301.613 161.676 301.412 162.078 301.01 162.279C300.004 163.285 299.2 164.089 298.395 165.094C297.993 165.497 297.591 166.1 296.988 166.502C294.172 169.518 291.558 171.931 288.944 173.741C288.341 174.143 287.738 174.345 287.134 174.345C286.732 174.345 286.33 174.345 285.928 174.143H285.526L283.112 175.752C280.498 172.937 277.683 170.524 274.868 168.111C262.802 158.659 248.123 152.828 232.84 151.42L232.639 148.806C232.438 148.605 232.438 148.605 232.236 148.404C231.633 147.801 230.829 147.197 230.628 145.79C230.427 142.572 230.829 138.953 231.231 134.931V134.73C231.231 134.126 231.432 133.322 231.633 132.719C231.834 131.512 232.035 130.306 232.236 128.898V127.691V127.088C232.236 123.469 229.421 120.452 226.003 120.452C224.394 120.452 222.785 121.257 221.579 122.463C220.372 123.67 219.769 125.278 219.769 127.088V127.49V128.697C219.769 130.105 219.97 131.311 220.372 132.518C220.573 133.121 220.573 133.724 220.774 134.529V134.73C221.176 138.751 221.78 142.371 221.378 145.589C221.176 146.996 220.372 147.599 219.769 148.203C219.568 148.404 219.568 148.404 219.367 148.605L219.166 151.219C215.546 151.621 211.926 152.023 208.307 152.828C192.823 156.246 179.148 164.089 168.491 175.35L166.48 173.942H166.078C165.675 173.942 165.273 174.143 164.871 174.143C164.268 174.143 163.664 173.942 163.061 173.54C160.447 171.73 157.833 169.116 155.018 166.1C154.615 165.698 154.213 165.094 153.61 164.692C152.806 163.687 152.001 162.882 150.996 161.877C150.795 161.676 150.392 161.475 149.99 161.073C149.789 160.871 149.588 160.871 149.588 160.67C148.382 159.665 146.773 159.062 145.164 159.062C143.354 159.062 141.544 159.866 140.539 161.274C138.528 163.888 139.131 167.91 141.947 170.323C142.148 170.323 142.148 170.524 142.349 170.524C142.751 170.725 142.952 171.127 143.354 171.328C144.561 172.133 145.566 172.736 146.773 173.339C147.376 173.54 147.979 173.942 148.583 174.345C152.202 176.557 155.219 178.366 157.632 180.578C158.637 181.584 158.637 182.589 158.637 183.595V183.997L160.648 185.807C160.246 186.41 159.844 186.812 159.643 187.415C149.588 203.302 145.767 222.003 148.382 240.503L145.767 241.308C145.767 241.509 145.566 241.509 145.566 241.71C145.164 242.514 144.561 243.319 143.354 243.922C140.338 244.927 136.718 245.33 132.495 245.732H132.294C131.691 245.732 130.887 245.732 130.283 245.933C129.077 245.933 127.87 246.134 126.463 246.335C126.06 246.335 125.658 246.536 125.256 246.536C125.055 246.536 124.854 246.536 124.653 246.737C121.033 247.542 118.821 250.96 119.424 254.178C120.028 256.993 122.642 258.803 125.859 258.803C126.463 258.803 126.865 258.803 127.468 258.602C127.669 258.602 127.87 258.602 127.87 258.401C128.272 258.401 128.675 258.199 129.077 258.199C130.484 257.797 131.49 257.395 132.696 256.792C133.3 256.591 133.903 256.189 134.506 255.987H134.707C138.528 254.58 141.947 253.373 145.164 252.971H145.566C146.773 252.971 147.577 253.574 148.18 253.977C148.382 253.977 148.382 254.178 148.583 254.178L151.398 253.775C156.224 268.656 165.474 281.928 177.741 291.581C180.556 293.793 183.371 295.602 186.388 297.412L185.181 300.026C185.181 300.227 185.382 300.227 185.382 300.429C185.784 301.233 186.187 302.238 185.784 303.646C184.578 306.662 182.768 309.679 180.556 313.097V313.298C180.154 313.902 179.752 314.304 179.35 314.907C178.545 315.913 177.942 316.918 177.138 318.125C176.936 318.326 176.735 318.728 176.534 319.13C176.534 319.331 176.333 319.532 176.333 319.532C174.724 322.951 175.931 326.771 178.947 328.179C179.752 328.581 180.556 328.782 181.36 328.782C183.774 328.782 186.187 327.174 187.393 324.962C187.393 324.761 187.594 324.559 187.594 324.559C187.795 324.157 187.996 323.755 188.198 323.554C188.801 322.146 189.002 321.141 189.404 319.934C189.605 319.331 189.806 318.728 190.007 318.125C191.415 314.103 192.42 310.885 194.23 308.07C195.035 306.863 196.04 306.662 196.844 306.26C197.046 306.26 197.046 306.26 197.247 306.059L198.654 303.445C207.502 306.863 217.155 308.673 226.807 308.673C232.639 308.673 238.671 308.07 244.302 306.662C247.922 305.858 251.34 304.853 254.759 303.646L255.965 305.858C256.166 305.858 256.166 305.858 256.367 306.059C257.373 306.26 258.177 306.662 258.982 307.869C260.59 310.684 261.797 314.103 263.204 317.923V318.125C263.406 318.728 263.607 319.331 263.808 319.934C264.21 321.141 264.411 322.347 265.014 323.554C265.215 323.956 265.416 324.157 265.618 324.559C265.618 324.761 265.819 324.962 265.819 324.962C267.025 327.375 269.438 328.782 271.851 328.782C272.656 328.782 273.46 328.581 274.264 328.179C275.672 327.375 276.879 326.168 277.281 324.559C277.683 322.951 277.683 321.141 276.879 319.532C276.879 319.331 276.678 319.331 276.678 319.13C276.476 318.728 276.275 318.326 276.074 318.125C275.471 316.918 274.667 315.913 273.862 314.907C273.46 314.304 273.058 313.902 272.656 313.298V313.097C270.444 309.679 268.433 306.662 267.427 303.646C267.025 302.238 267.427 301.434 267.628 300.429C267.628 300.227 267.83 300.227 267.83 300.026L266.824 297.613C277.482 291.379 286.531 282.531 293.368 271.673C296.988 266.042 299.803 259.808 301.814 253.574L304.227 253.977C304.428 253.977 304.428 253.775 304.629 253.775C305.434 253.373 306.037 252.77 307.243 252.77H307.646C310.863 253.172 314.282 254.379 318.102 255.786H318.303C318.907 255.987 319.51 256.39 320.113 256.591C321.32 257.194 322.325 257.596 323.733 257.998C324.135 257.998 324.537 258.199 324.939 258.199C325.14 258.199 325.342 258.199 325.543 258.401C326.146 258.602 326.548 258.602 327.151 258.602C330.168 258.602 332.782 256.591 333.586 253.977C333.586 251.563 331.374 248.346 327.755 247.341ZM234.65 237.487L225.802 241.71L216.954 237.487L214.742 228.036L220.774 220.394H230.628L236.66 228.036L234.65 237.487ZM287.134 216.574C288.743 223.411 289.145 230.248 288.542 236.884L257.775 228.036C254.96 227.231 253.351 224.416 253.954 221.601C254.155 220.797 254.558 219.992 255.161 219.389L279.493 197.47C282.911 203.101 285.526 209.535 287.134 216.574ZM269.84 185.405L243.498 204.106C241.286 205.514 238.269 205.111 236.459 202.899C235.856 202.296 235.655 201.492 235.454 200.687L233.644 167.91C247.519 169.518 260.188 175.752 269.84 185.405ZM211.524 168.915C213.736 168.513 215.747 168.111 217.959 167.709L216.149 199.883C215.948 202.698 213.736 205.111 210.72 205.111C209.915 205.111 208.91 204.91 208.307 204.508L181.562 185.405C189.806 177.16 200.062 171.529 211.524 168.915ZM171.909 197.47L195.839 218.786C198.051 220.595 198.252 224.014 196.442 226.226C195.839 227.03 195.035 227.634 194.029 227.835L162.86 236.884C161.654 223.21 164.67 209.334 171.909 197.47ZM166.48 251.966L198.453 246.536C201.067 246.335 203.48 248.145 204.084 250.759C204.285 251.966 204.285 252.971 203.883 253.977L191.616 283.537C180.355 276.298 171.306 265.238 166.48 251.966ZM239.878 291.983C235.253 292.988 230.628 293.591 225.802 293.591C218.763 293.591 211.926 292.385 205.491 290.374L221.378 261.618C222.986 259.808 225.6 259.004 227.812 260.21C228.818 260.814 229.622 261.618 230.226 262.422L245.71 290.374C243.9 290.977 241.889 291.379 239.878 291.983ZM279.091 264.031C274.063 272.075 267.427 278.51 259.786 283.537L247.117 253.172C246.514 250.759 247.519 248.145 249.932 246.938C250.737 246.536 251.742 246.335 252.748 246.335L284.922 251.765C283.716 256.189 281.705 260.21 279.091 264.031Z" fill="white"/>
</svg>
