<svg width="450" height="450" viewBox="0 0 450 450" fill="none" xmlns="http://www.w3.org/2000/svg">
<path d="M82 225.007C82 186.87 82 148.734 82 110.514C82 94.6172 92.2137 83.4151 108.029 82.0972C112.559 81.6853 117.007 82.5914 121.208 84.6506C166.016 107.137 210.907 129.542 255.716 152.028C287.675 168.008 319.634 183.987 351.676 199.802C361.807 204.827 367.655 212.652 367.985 224.019C368.314 235.303 363.372 243.952 353.241 249.141C333.472 259.19 313.539 269.074 293.688 279.041C268.565 291.643 243.443 304.164 218.32 316.684C187.679 332.004 157.038 347.242 126.397 362.563C121.208 365.199 116.101 367.752 110.17 367.835C94.4377 368.164 82 355.891 82 339.829C82 301.61 82 263.309 82 225.007ZM170.546 250.377C170.546 254.66 170.629 258.861 170.546 263.144C170.464 265.285 171.288 266.027 173.429 265.944C178.207 265.78 183.067 265.697 187.844 265.944C191.139 266.109 191.798 264.791 191.715 261.908C191.551 254.33 191.798 246.835 191.633 239.257C191.551 236.292 192.621 235.55 195.422 235.633C203 235.797 210.495 235.55 218.073 235.797C221.286 235.88 222.027 234.809 221.862 231.844C221.615 227.231 221.698 222.536 221.862 217.841C221.945 215.205 221.121 214.217 218.403 214.299C210.99 214.464 203.576 214.134 196.163 214.464C192.374 214.629 191.551 213.311 191.633 209.769C191.88 202.356 191.633 194.942 191.715 187.529C191.798 185.058 191.139 184.152 188.503 184.235C183.725 184.399 178.866 184.482 174.088 184.235C171.041 184.07 170.464 185.305 170.546 188.023C170.711 195.272 170.299 202.603 170.711 209.851C170.958 213.887 169.393 214.629 165.851 214.464C158.603 214.217 151.272 214.546 144.024 214.299C141.058 214.217 140.235 215.205 140.317 218.088C140.482 222.783 140.564 227.396 140.317 232.091C140.152 234.974 141.058 235.88 143.941 235.797C151.766 235.633 159.591 235.797 167.416 235.715C169.888 235.633 170.794 236.374 170.629 238.927C170.382 242.716 170.546 246.505 170.546 250.377Z" fill="#FEDE10"/>
<path d="M170.547 250.377C170.547 246.505 170.382 242.716 170.629 238.845C170.794 236.292 169.888 235.55 167.417 235.633C159.592 235.797 151.767 235.55 143.942 235.715C140.976 235.797 140.153 234.809 140.317 232.008C140.564 227.396 140.564 222.701 140.317 218.006C140.153 215.123 141.059 214.134 144.024 214.217C151.272 214.382 158.603 214.134 165.852 214.382C169.394 214.464 170.959 213.805 170.711 209.769C170.3 202.52 170.711 195.19 170.547 187.941C170.464 185.223 171.041 183.987 174.089 184.152C178.866 184.399 183.726 184.399 188.503 184.152C191.139 184.07 191.798 184.976 191.715 187.447C191.551 194.86 191.88 202.273 191.633 209.687C191.551 213.228 192.374 214.546 196.163 214.382C203.577 214.052 210.99 214.382 218.403 214.217C221.204 214.134 221.945 215.123 221.862 217.759C221.698 222.454 221.615 227.066 221.862 231.761C222.027 234.809 221.203 235.797 218.073 235.715C210.496 235.468 203 235.715 195.422 235.55C192.622 235.468 191.551 236.209 191.633 239.175C191.798 246.753 191.551 254.248 191.715 261.826C191.798 264.709 191.139 266.109 187.844 265.862C183.067 265.615 178.207 265.697 173.43 265.862C171.288 265.944 170.464 265.203 170.547 263.062C170.629 258.861 170.547 254.66 170.547 250.377Z" fill="#4E4F51"/>
</svg>
