<svg width="450" height="450" viewBox="0 0 450 450" fill="none" xmlns="http://www.w3.org/2000/svg">
<path d="M261.127 314.812C263.385 318.073 264.765 317.823 266.52 317.07C268.276 316.318 358.59 285.837 361.349 284.834C364.108 283.831 363.23 282.952 362.353 281.572C361.475 280.192 331.37 239.301 329.865 236.918C328.36 234.534 327.607 235.036 325.224 235.789L229.486 260.7C229.486 260.7 258.87 311.551 261.127 314.812Z" fill="#F35045"/>
<path d="M369 273.173V225.309C358.229 228.179 344.606 231.807 339.228 233.238C347.341 244.093 360.025 261.082 369 273.173Z" fill="#F35045"/>
<path d="M339.135 174.288C337.659 174.623 304.989 180.527 302.976 180.795C300.964 181.063 301.635 182.204 302.44 183.344L331.19 222.791C331.19 222.791 366.343 214.07 368.49 213.6C368.664 213.562 368.834 213.521 369 213.48V208.257C362.611 200.154 345.202 178.095 343.698 176.033C341.887 173.55 340.611 173.953 339.135 174.288Z" fill="#F35045"/>
<path d="M133.573 112.325C140.648 112.004 141.294 113.614 144.402 118.223L222.489 248.771L320.674 225.25C315.234 217.539 290.537 182.526 288.151 179.185C285.468 175.428 288.218 173.683 292.578 172.946C296.939 172.208 334.506 165.902 337.726 165.433C340.947 164.963 343.497 163.823 348.729 170.129C351.406 173.355 360.483 184.658 369 195.252V134.188C369 119.261 363.7 106.498 353.101 95.8988C342.502 85.2998 329.739 80 314.813 80H134.188C119.261 80 106.498 85.2998 95.8989 95.8988C89.8193 101.978 85.4926 108.773 82.8999 116.276C100.599 114.822 128.622 112.55 133.573 112.325Z" fill="#F35045"/>
<path d="M269.982 332.383C261.703 334.891 257.99 336.136 252.597 328.61C248.558 322.973 226.715 283.631 216.005 264.236C195.735 269.545 158.64 279.226 147.944 281.797C137.503 284.305 133.044 278.046 131.329 274.187C130.126 271.481 99.518 205.489 80 163.145V314.813C80 329.74 85.2998 342.502 95.8988 353.101C106.498 363.7 119.261 369 134.188 369H314.812C329.739 369 342.502 363.7 353.101 353.101C363.7 342.502 369 329.74 369 314.813V296.997C346.828 305.107 275.56 330.693 269.982 332.383Z" fill="#F35045"/>
<path d="M148.199 266.595C151.134 265.923 206.126 252.762 207.3 252.51C208.474 252.259 209.229 251.588 207.971 249.409C206.713 247.23 134.667 122.871 134.667 122.871C134.002 121.729 134.192 121.349 132.385 121.444C130.773 121.529 90.0078 125.166 80.5694 125.955C80.2909 127.918 80.1231 129.925 80.0493 131.973C89.6307 151.587 144.621 264.999 144.93 265.923C145.265 266.93 145.265 267.265 148.199 266.595Z" fill="#F35045"/>
</svg>
