<svg width="450" height="450" viewBox="0 0 450 450" fill="none" xmlns="http://www.w3.org/2000/svg">
<path d="M69.4519 244.123C69.4519 238.339 65.7357 232.142 55 231.729V217.271C65.7357 216.858 69.4519 210.661 69.4519 204.878C69.4519 194.55 67.8002 187.94 67.8002 175.96C67.8002 157.783 74.4068 152 89.2716 152H128.911V165.219H96.704C89.6845 165.219 87.62 167.698 87.62 176.786C87.62 185.875 88.4458 194.137 88.4458 204.051C88.4458 216.858 84.3167 221.815 76.0585 223.88V224.707C84.3167 226.772 88.4458 231.729 88.4458 244.536C88.4458 254.863 87.62 262.712 87.62 271.801C87.62 280.889 89.6845 283.781 96.704 283.781H100.007V296.587H89.2716C74.4068 296.587 67.8002 290.803 67.8002 272.627C67.8002 260.647 69.4519 254.45 69.4519 244.123ZM104.549 153.239H129.324V246.188C129.324 251.558 131.801 253.211 133.866 253.211C134.692 253.211 135.518 253.211 136.756 252.798L139.647 270.974C136.756 272.214 132.627 273.04 127.259 273.04C110.33 273.04 104.549 261.886 104.549 244.949V153.239ZM174.331 185.462C197.867 185.462 209.842 202.812 209.842 225.533C209.842 230.077 209.429 233.795 209.016 235.86H158.228C160.292 248.667 168.963 254.037 180.112 254.037C186.306 254.037 192.086 252.385 198.28 248.667L206.538 263.538C197.867 269.322 186.719 273.04 176.809 273.04C152.86 273.04 134.692 256.929 134.692 229.251C134.279 202.399 154.099 185.462 174.331 185.462ZM188.783 220.576C188.783 211.074 184.654 204.051 174.744 204.051C166.899 204.051 160.292 209.422 158.641 220.576H188.783ZM223.881 246.188C231.313 251.972 238.333 254.863 245.352 254.863C252.784 254.863 256.088 251.972 256.088 247.84C256.088 242.47 247.829 239.578 239.158 236.274C229.248 232.556 217.274 225.533 217.274 211.9C217.274 196.615 230.074 185.875 249.068 185.875C261.868 185.875 271.365 191.245 278.385 196.615L267.236 211.487C261.043 206.943 255.675 204.464 249.481 204.464C243.287 204.464 239.984 206.943 239.984 211.074C239.984 216.444 247.829 218.51 256.501 221.815C267.236 225.533 279.211 231.729 279.211 247.014C279.211 262.299 267.236 273.866 244.939 273.866C234.203 273.866 221.403 269.322 213.145 262.299L223.881 246.188ZM291.185 246.188C298.618 251.972 305.637 254.863 312.657 254.863C320.089 254.863 323.392 251.972 323.392 247.84C323.392 242.47 315.134 239.578 306.463 236.274C296.553 232.556 284.579 225.533 284.579 211.9C284.579 196.615 297.379 185.875 316.373 185.875C329.173 185.875 338.67 191.245 345.689 196.615L334.541 211.487C328.347 206.943 322.979 204.464 316.786 204.464C310.592 204.464 307.289 206.943 307.289 211.074C307.289 216.444 315.134 218.51 323.392 221.815C334.128 225.533 346.102 231.729 346.102 247.014C346.102 262.299 334.128 273.866 311.831 273.866C301.095 273.866 288.295 269.322 280.037 262.299L291.185 246.188ZM352.296 283.368C359.315 283.368 361.38 280.889 361.38 271.387C361.38 262.299 360.554 254.037 360.554 244.123C360.554 231.316 364.683 226.359 372.942 224.293V223.467C364.683 221.402 360.554 216.444 360.554 203.638C360.554 193.724 361.38 185.048 361.38 176.373C361.38 167.285 359.728 164.806 352.296 164.806H348.993V152H359.728C374.593 152 381.2 157.783 381.2 175.96C381.2 187.527 379.548 194.137 379.548 204.878C379.548 210.661 383.264 216.858 394 217.271V231.729C383.264 232.142 379.548 238.339 379.548 244.123C379.548 254.863 381.2 261.06 381.2 273.04C381.2 291.217 374.593 297 359.728 297H348.993V283.781L352.296 283.368Z" fill="#214674"/>
</svg>
