<svg width="450" height="450" viewBox="0 0 450 450" fill="none" xmlns="http://www.w3.org/2000/svg">
<path d="M134.493 138.474C135.791 136.267 137.479 134.147 139.902 133.108C140.897 132.935 141.892 133.022 142.888 133.022H191.872C190.444 134.233 189.059 135.488 188.107 137.133C185.598 141.243 183.91 145.83 182.352 150.417C177.938 164.264 174.866 178.501 171.88 192.738C170.539 199.185 169.241 205.676 168.029 212.124C164.308 233.241 160.456 254.315 155.653 275.215C153.36 284.865 151.023 294.515 147.475 303.819C145.83 307.67 144.229 311.781 141.07 314.637C140.335 315.286 139.599 316.108 138.56 315.978H95.2878C92.3452 315.892 89.446 316.151 86.5034 315.848C88.4507 314.334 90.1816 312.516 91.3067 310.353C94.5521 304.165 96.5859 297.458 98.5332 290.794C101.562 280.062 103.986 269.2 106.279 258.339C107.707 251.199 109.395 244.102 110.433 236.919C111.602 228.914 113.376 220.995 114.804 213.033C117.054 201.306 119.434 189.579 122.073 177.939C124.194 168.851 126.357 159.807 129.257 150.936C130.685 146.653 132.243 142.412 134.493 138.474Z" fill="#EB7077" stroke="#EB7077" stroke-width="0.09375"/>
<path d="M191.872 133.022C193.126 133.022 194.381 132.978 195.636 133.022C198.406 134.493 200.742 136.83 202.041 139.729C203.771 143.018 205.199 146.479 206.498 150.028C210.825 163.399 213.767 177.16 216.71 190.877C219.22 203.166 221.6 215.499 223.85 227.875C224.023 228.524 223.807 229.433 224.672 229.606C221.557 245.877 218.484 262.19 214.59 278.331C212.469 287.029 210.219 295.683 207.017 304.078C205.286 308.276 203.512 312.863 199.834 315.848C197.497 316.368 195.809 314.593 194.381 312.992C191.915 309.833 190.4 306.112 188.929 302.391C184.039 289.063 181.053 275.172 178.024 261.325C175.731 250.55 173.697 239.689 171.577 228.87C170.625 223.375 169.327 217.966 168.591 212.47C168.461 212.384 168.158 212.21 168.028 212.124C169.24 205.676 170.538 199.185 171.88 192.738C174.865 178.501 177.938 164.264 182.352 150.417C183.909 145.83 185.597 141.243 188.107 137.133C189.059 135.488 190.444 134.233 191.872 133.022Z" fill="#F6A2AD" stroke="#F6A2AD" stroke-width="0.09375"/>
<path d="M246.006 140.508C247.564 137.522 249.468 134.19 252.843 133.065C270.022 132.978 287.201 133.022 304.381 133.022C302.779 134.623 301.092 136.224 300.01 138.258C296.678 144.229 294.731 150.85 292.74 157.384C287.634 175.386 284.042 193.776 280.624 212.167C277.465 230.298 274.09 248.43 270.239 266.474C268.248 275.562 266.171 284.606 263.531 293.563C261.844 299.102 260.069 304.684 257.3 309.833C255.959 312.17 254.401 314.723 251.848 315.935C235.447 316.065 219.004 315.935 202.603 315.978C201.695 315.978 200.743 315.978 199.834 315.848C203.512 312.863 205.286 308.276 207.017 304.078C210.219 295.683 212.47 287.029 214.59 278.331C218.484 262.19 221.557 245.877 224.672 229.606C228.437 208.619 232.375 187.632 237.395 166.904C239.731 157.947 241.981 148.859 246.006 140.508Z" fill="#EB7077" stroke="#EB7077" stroke-width="0.09375"/>
<path d="M304.381 133.022C305.765 133.022 307.193 132.978 308.578 133.022C310.828 134.19 312.429 136.181 313.857 138.214C316.194 141.936 317.665 146.133 319.18 150.244C322.772 161.279 325.454 172.616 327.921 183.953C331.21 199.229 334.066 214.59 336.878 229.952C337.571 233.63 338.263 237.352 338.696 241.073C338.869 241.246 339.215 241.593 339.345 241.722C337.787 243.886 337.181 246.482 336.316 248.949C333.59 257.733 331.816 266.82 330.301 275.864C329.133 282.961 327.532 290.015 325.325 296.852C323.68 301.915 321.69 306.934 318.401 311.175C316.843 313.209 314.723 314.767 312.386 315.805C308.794 316.195 306.674 312.733 304.943 310.18C301.352 303.905 299.404 296.895 297.327 290.058C290.49 264.743 286.033 238.823 281.23 213.076C281.187 212.686 280.97 212.34 280.624 212.167C284.043 193.776 287.634 175.385 292.74 157.384C294.731 150.85 296.678 144.229 300.01 138.258C301.092 136.224 302.78 134.623 304.381 133.022Z" fill="#F6A2AD" stroke="#F6A2AD" stroke-width="0.09375"/>
<path d="M46 231.467C47.1251 231.38 48.2502 231.207 49.4185 231.207H96.5857C98.5762 231.467 100.653 231.294 102.557 232.159C105.327 233.284 107.793 235.188 109.611 237.568C109.827 237.438 110.217 237.092 110.433 236.919C109.394 244.102 107.707 251.199 106.279 258.339C103.985 269.201 101.562 280.062 98.5329 290.794C96.5857 297.458 94.5519 304.165 91.3064 310.353C90.1813 312.516 88.4504 314.334 86.5032 315.848C85.7675 315.978 85.205 315.459 84.5992 315.07C82.5653 313.771 81.397 311.521 80.1421 309.487C74.2137 295.986 73.5646 281.057 69.8865 266.95C68.0258 259.897 65.7323 252.887 62.357 246.396C60.28 242.501 57.7269 238.78 54.3949 235.794C51.9283 233.804 49.0724 232.202 46 231.467Z" fill="#F6A2AD" stroke="#F6A2AD" stroke-width="0.09375"/>
<path d="M343.154 235.967C345.88 232.895 349.947 230.948 354.058 231.121H389.542C394.475 231.207 399.451 230.948 404.384 231.25C402.913 232.246 401.139 232.635 399.581 233.457C394.172 235.924 389.542 240.035 386.599 245.184C381.883 253.406 380.238 262.839 378.853 272.1C377.469 281.187 377.512 290.577 374.569 299.405C372.579 305.593 369.55 311.824 364.314 315.892C348.043 316.065 331.773 315.935 315.546 315.978C314.464 315.978 313.425 316.021 312.387 315.805C314.723 314.767 316.844 313.209 318.402 311.175C321.69 306.934 323.681 301.915 325.325 296.852C327.532 290.015 329.133 282.961 330.302 275.865C331.816 266.821 333.59 257.733 336.316 248.949C337.182 246.482 337.788 243.886 339.346 241.722C340.644 239.818 341.509 237.612 343.154 235.967Z" fill="#EB7077" stroke="#EB7077" stroke-width="0.09375"/>
</svg>
