<svg width="450" height="450" viewBox="0 0 450 450" fill="none" xmlns="http://www.w3.org/2000/svg">
<path fill-rule="evenodd" clip-rule="evenodd" d="M278.404 81.2161C277.079 81.4681 272.815 86.2828 271.532 88.9747C271.115 89.8502 270.417 91.0212 269.981 91.5749C269.544 92.1285 268.717 93.539 268.14 94.7085C267.563 95.8779 266.957 97.0707 266.793 97.3584C265.409 99.7984 263.26 104.397 263.254 104.927C263.249 105.531 261.178 109.946 260.493 110.815C260.333 111.019 260.024 111.737 259.806 112.412C259.587 113.085 259.016 114.412 258.534 115.359C258.053 116.306 257.66 117.294 257.66 117.553C257.66 117.813 257.293 118.614 256.844 119.332C256.394 120.051 255.833 121.415 255.596 122.363C255.361 123.312 254.89 124.494 254.551 124.988C254.212 125.483 253.651 126.676 253.304 127.638C252.959 128.601 252.48 129.704 252.242 130.089C252.004 130.475 251.219 132.285 250.495 134.115C248.692 138.68 246.858 143.04 246.261 144.187C245.987 144.712 245.762 145.278 245.76 145.446C245.759 145.712 244.611 148.188 241.767 154.068C241.347 154.934 240.718 156.589 240.368 157.744C239.708 159.929 239.613 160.136 237.549 163.87C236.859 165.122 235.997 166.933 235.638 167.896C235.277 168.859 234.335 170.874 233.543 172.375C232.753 173.877 232.106 175.392 232.106 175.742C232.106 176.092 231.823 176.753 231.478 177.213C230.885 177.998 227.906 183.922 227.906 184.312C227.906 184.412 227.448 185.267 226.89 186.215C226.33 187.163 225.519 188.942 225.083 190.169C224.648 191.396 223.923 192.801 223.474 193.294C223.023 193.786 222.654 194.336 222.652 194.518C222.649 194.828 220.97 198.195 217.967 203.907C217.272 205.229 216.704 206.594 216.704 206.939C216.704 207.284 216.231 208.014 215.653 208.56C215.076 209.104 214.603 209.883 214.603 210.292C214.603 210.699 214.273 211.451 213.872 211.962C213.469 212.474 212.644 213.81 212.034 214.933C209.487 219.632 208.443 221.251 207.865 221.403C207.527 221.492 207.252 221.805 207.252 222.099C207.252 222.75 206.801 223.803 205.729 225.655C205.285 226.425 204.602 227.607 204.213 228.28C202.237 231.706 200.467 234.434 200.07 234.664C199.828 234.807 199.523 235.358 199.392 235.889C199.263 236.421 198.722 237.409 198.192 238.082C196.778 239.878 194.553 243.303 193.763 244.9C193.385 245.665 192.603 246.769 192.024 247.354C191.447 247.937 190.659 248.954 190.275 249.612C188.39 252.833 187.763 253.777 187.051 254.462C186.625 254.871 185.962 255.823 185.578 256.577C185.192 257.332 184.661 258.033 184.393 258.136C184.127 258.237 183.329 259.195 182.62 260.263C181.911 261.331 181.176 262.3 180.986 262.418C180.796 262.535 179.776 263.803 178.717 265.233C177.658 266.666 176.645 267.837 176.468 267.837C176.289 267.837 176.034 268.191 175.899 268.625C175.764 269.057 175.163 269.998 174.563 270.715C173.963 271.432 172.683 272.979 171.72 274.153C170.758 275.328 168.711 277.595 167.17 279.194C162.469 284.072 158.943 288.142 158.943 288.692C158.943 289.528 159.797 290.621 163.061 293.964C168.052 299.081 167.725 298.636 174.037 308.898C177.131 313.928 179.303 318.05 181.174 322.447C181.871 324.083 183.012 326.445 183.71 327.697C184.409 328.949 185.186 330.365 185.437 330.847L185.894 331.723L185.895 330.76C185.898 329.569 187.015 328.396 188.147 328.396C188.614 328.396 189.452 328.012 190.012 327.541C190.676 326.983 191.685 326.603 192.926 326.445C193.97 326.313 194.982 326.093 195.175 325.958C195.525 325.712 199.144 324.762 201.126 324.395C201.703 324.289 203.863 324.051 205.925 323.868C207.988 323.686 210.036 323.33 210.476 323.078C211.093 322.726 214.734 322.599 226.33 322.523C238.327 322.443 241.454 322.328 241.735 321.96C242.351 321.148 251.867 320.538 252.705 321.255C253.124 321.615 253.302 322.094 253.186 322.541C253.069 322.989 253.136 323.171 253.368 323.028C253.57 322.902 253.827 323.037 253.939 323.327C254.049 323.616 254.551 324.039 255.054 324.269C255.962 324.683 256.032 325.09 255.525 326.997C255.43 327.35 255.688 327.557 256.31 327.628C257.032 327.712 257.195 327.885 257.057 328.417C256.634 330.032 259.755 327.596 260.304 325.882C260.408 325.557 260.689 325.243 260.927 325.182C261.414 325.059 266.139 319.859 269.778 315.445C270.333 314.77 271.141 313.932 271.575 313.582C272.008 313.231 272.362 312.727 272.362 312.461C272.362 312.197 272.577 311.853 272.84 311.699C273.41 311.365 277.614 306.513 277.614 306.189C277.614 306.065 278.981 304.633 280.651 303.006C282.321 301.381 283.598 299.959 283.488 299.849C283.377 299.738 282.471 300.452 281.472 301.435C280.102 302.783 279.486 303.168 278.961 303.001C278.444 302.836 278.216 302.969 278.073 303.511C277.968 303.914 277.743 304.242 277.572 304.242C277.402 304.242 277.264 304.479 277.264 304.768C277.264 305.057 277.105 305.293 276.913 305.293C276.444 305.293 276.471 304.825 276.968 304.328C277.273 304.023 277.275 303.802 276.973 303.44C276.659 303.062 276.763 302.777 277.443 302.138C278.552 301.096 278.639 299.892 277.581 300.227C276.996 300.413 276.875 300.329 276.978 299.813C277.07 299.35 277.415 299.168 278.202 299.168C278.805 299.169 279.233 299.065 279.153 298.936C279.074 298.807 279.208 298.622 279.449 298.524C279.799 298.384 279.799 298.342 279.45 298.32C278.622 298.267 278.841 283.59 279.671 283.59C280.258 283.59 280.357 283.19 280.579 279.932C280.836 276.167 280.735 275.538 279.869 275.538C278.961 275.538 279.15 268.325 280.063 268.085C281.121 267.81 281.167 244.774 280.113 244.497C279.511 244.34 279.447 243.768 279.286 237.011C279.167 232.089 278.973 229.529 278.692 229.19C278.416 228.857 278.295 227.423 278.337 224.968C278.373 222.923 278.303 221.152 278.183 221.032C278.062 220.91 277.964 219.18 277.964 217.184C277.964 214.282 277.858 213.516 277.438 213.354C277.015 213.192 276.912 212.396 276.911 209.252C276.908 204.355 276.535 199.405 276.208 199.935C276.071 200.156 275.857 197.685 275.731 194.442C275.605 191.201 275.244 185.509 274.927 181.796C274.524 177.068 274.462 174.933 274.72 174.675C274.948 174.445 274.981 173.888 274.805 173.201C273.704 168.896 273.983 129.514 275.171 121.688C275.345 120.533 275.654 118.062 275.855 116.197C276.057 114.334 276.287 112.364 276.367 111.823C276.447 111.28 276.622 109.969 276.755 108.911C277.349 104.181 280.136 97.5295 281.687 97.1407C284.343 96.4735 288.996 105.678 290.909 115.387C291.136 116.542 291.479 118.118 291.671 118.888C291.862 119.657 292.156 120.996 292.324 121.863C292.492 122.729 293.041 125.329 293.543 127.638C294.045 129.949 294.605 132.784 294.787 133.94C294.969 135.095 295.209 136.591 295.316 137.266C296.518 144.706 296.905 147.556 297.243 151.443C297.46 153.945 297.776 156.782 297.944 157.744C298.272 159.623 299.185 167.125 299.434 169.995C299.518 170.958 299.907 174.661 300.297 178.222C300.687 181.783 301.017 185.486 301.028 186.449C301.039 187.411 301.286 189.528 301.577 191.153C301.869 192.778 302.213 196.683 302.342 199.831C302.471 202.978 302.711 205.636 302.872 205.735C303.034 205.837 303.168 206.776 303.168 207.822C303.168 208.871 303.306 209.728 303.477 209.728C303.647 209.728 303.852 211.814 303.931 214.365C304.02 217.195 304.25 219.32 304.521 219.814C304.864 220.438 304.872 220.738 304.555 221.12C304.14 221.62 304.193 222.438 304.875 226.181C305.623 230.28 306.098 234.188 306.23 237.334C306.351 240.213 306.451 240.633 307.043 240.788C307.651 240.947 307.718 241.301 307.718 244.381C307.718 246.992 307.842 247.901 308.244 248.234C308.605 248.534 308.769 249.337 308.771 250.814C308.772 252.032 309 253.392 309.295 253.962C309.622 254.587 309.819 255.938 309.819 257.551C309.819 259.041 309.967 260.136 310.169 260.136C310.362 260.136 310.519 261.006 310.519 262.072C310.519 263.47 310.665 264.064 311.045 264.21C311.444 264.364 311.569 265.016 311.569 266.945C311.569 270.423 311.974 275.859 312.233 275.83C313.57 275.676 313.704 276.651 312.424 277.234C311.408 277.696 311.607 278.425 312.705 278.268C313.104 278.211 313.497 278.36 313.578 278.601C313.674 278.883 313.374 279.041 312.736 279.044C312.191 279.047 311.527 279.187 311.259 279.357C310.738 279.687 313.797 279.488 314.719 279.13C315.009 279.019 315.371 278.956 315.523 278.988C315.677 279.023 316.78 278.873 317.974 278.657C322.148 277.903 329.818 279.498 336.043 282.416C337.905 283.29 349.665 291.818 350.951 293.229C351.144 293.44 352.164 294.311 353.218 295.165C354.273 296.019 357.428 299.001 360.23 301.793C363.031 304.584 366.225 307.656 367.328 308.618C368.43 309.581 369.937 310.92 370.676 311.595C374.077 314.699 381.075 320.423 383.546 322.123C385.865 323.719 385.957 324.003 379.718 310.194C378.456 307.402 377.021 304.056 376.528 302.755C374.181 296.578 373.724 295.435 372.303 292.167C370.385 287.759 369.636 285.856 367.755 280.614C366.925 278.304 364.964 273.367 363.393 269.642C361.824 265.919 360.061 261.509 359.474 259.842C358.888 258.175 358.202 256.338 357.952 255.759C356.879 253.288 354.87 248.34 354.61 247.534C354.454 247.052 353.991 245.793 353.579 244.734C353.167 243.674 352.619 242.178 352.36 241.407C352.102 240.637 350.999 237.487 349.909 234.406C346.005 223.378 338.65 201.943 331.529 180.847C329.644 175.264 327.907 170.145 327.667 169.471C327.428 168.796 326.319 165.646 325.202 162.47C322.455 154.649 317.256 140.485 316.659 139.191C316.391 138.613 316.061 137.667 315.923 137.09C315.786 136.513 315.564 135.882 315.432 135.691C315.299 135.498 314.904 134.552 314.553 133.59C314.203 132.627 313.642 131.209 313.307 130.439C312.971 129.669 312.429 128.33 312.1 127.464C311.774 126.598 311.149 125.1 310.713 124.138C310.278 123.175 309.485 121.363 308.951 120.113C298.709 96.1112 285.895 79.7932 278.404 81.2161ZM211.611 199.734C211.138 200.207 210.753 200.891 210.753 201.255C210.753 201.619 210.437 202.202 210.053 202.551C209.554 203.003 209.351 203.63 209.351 204.736C209.351 206.745 210.039 206.578 210.753 204.395C211.042 203.512 211.56 202.479 211.905 202.101C212.529 201.417 213.161 198.876 212.707 198.876C212.577 198.876 212.084 199.261 211.611 199.734ZM207.952 201.677C207.952 202.254 208.096 202.726 208.272 202.726C208.701 202.726 208.925 201.995 208.729 201.238C208.471 200.246 207.952 200.538 207.952 201.677ZM206.202 202.575C205.913 202.644 204.338 202.782 202.702 202.885C197.546 203.204 196.05 203.451 196.05 203.986C196.05 204.255 195.826 204.476 195.554 204.476C195.281 204.476 194.999 204.653 194.928 204.869C194.682 205.606 191.881 205.292 191.2 204.451C190.708 203.846 190.435 203.757 189.9 204.033C189.528 204.224 188.284 204.487 187.136 204.616C185.989 204.745 184.928 205.042 184.779 205.275C184.569 205.606 184.508 205.605 184.503 205.264C184.496 204.605 180.34 204.678 179.599 205.35C179.18 205.729 178.129 205.883 175.809 205.908C174.042 205.927 172.513 206.079 172.411 206.244C172.308 206.41 172 206.46 171.727 206.356C170.736 205.975 172.098 210.437 173.289 211.477C173.4 211.573 173.786 212.321 174.146 213.141C174.507 213.959 174.947 214.628 175.124 214.628C175.756 214.628 176.446 215.553 176.446 216.399C176.446 216.603 176.61 216.67 176.809 216.545C177.253 216.272 179.552 218.596 180.368 220.147C180.847 221.055 181.182 221.279 182.059 221.279C183.074 221.279 183.138 221.351 182.939 222.254C182.706 223.315 183.318 224.042 186.073 225.979C187.408 226.918 189.223 228.579 192.181 231.568L193.529 232.929L194.444 231.479C194.946 230.683 195.495 230.031 195.66 230.031C195.826 230.031 196.057 229.557 196.173 228.978C196.288 228.4 196.867 227.416 197.459 226.792C198.644 225.54 200.806 222.315 202.702 218.973C203.375 217.785 204.121 216.581 204.361 216.3C204.602 216.018 204.899 215.276 205.023 214.653C205.149 214.029 205.456 213.44 205.706 213.343C206.375 213.087 208.331 209.154 208.339 208.05C208.344 207.529 208.218 206.079 208.062 204.83C207.776 202.547 207.537 202.258 206.202 202.575ZM280.964 300.242C280.593 300.513 280.39 300.835 280.51 300.956C280.631 301.076 280.993 300.913 281.314 300.592C282.068 299.838 281.836 299.605 280.964 300.242ZM274.012 307.96C273.678 308.296 272.679 307.38 272.933 306.97C273.059 306.766 273.368 306.849 273.696 307.177C273.998 307.48 274.141 307.831 274.012 307.96ZM276.213 307.102C276.213 307.438 275.413 307.668 274.9 307.48C274.168 307.209 274.412 306.869 275.339 306.869C275.819 306.869 276.213 306.973 276.213 307.102ZM264.066 320.86C263.419 321.748 262.912 321.994 262.912 321.42C262.912 320.992 263.919 319.996 264.353 319.996C264.54 319.996 264.411 320.384 264.066 320.86ZM258.749 326.538C258.469 327.582 257.66 328.071 257.66 327.196C257.66 326.474 258.425 325.246 258.75 325.446C258.887 325.53 258.885 326.022 258.749 326.538ZM256.491 330.085C255.643 331.022 255.78 331.347 256.672 330.515C257.091 330.124 257.352 329.723 257.253 329.623C257.153 329.524 256.811 329.732 256.491 330.085Z" fill="#A74214"/>
<path fill-rule="evenodd" clip-rule="evenodd" d="M270.026 83.0947C269.872 83.3342 269.745 83.6359 269.742 83.765C269.732 84.2237 269.211 84.5145 269.211 84.0604C269.211 83.7323 269.011 83.7805 268.519 84.2237C268.14 84.569 267.893 84.9546 267.972 85.0837C268.051 85.2128 267.339 86.163 266.389 87.1971C265.439 88.2297 264.661 89.183 264.661 89.3121C264.661 89.4427 264.328 89.8486 263.921 90.2156C263.513 90.5827 263.036 91.1985 262.859 91.5826C262.681 91.9683 262.08 93.0709 261.521 94.0335C260.963 94.9961 260.243 96.3351 259.921 97.0085C257.402 102.288 256.806 103.571 256.595 104.185C256.462 104.57 256.033 105.751 255.643 106.81C255.251 107.869 253.949 111.493 252.747 114.861C251.547 118.231 250.359 121.46 250.107 122.038C249.856 122.615 249.076 124.663 248.374 126.589C246.517 131.686 245.477 134.35 244.339 136.915C243.785 138.167 241.735 143.05 239.785 147.766C237.835 152.485 235.872 157.131 235.422 158.094C234.972 159.057 233.798 161.626 232.815 163.804C231.831 165.983 230.237 169.448 229.269 171.505C228.304 173.563 226.778 176.822 225.879 178.748C223.099 184.704 214.629 201.299 212.283 205.389C211.056 207.527 210.053 209.437 210.053 209.634C210.053 209.83 209.816 210.188 209.527 210.427C209.238 210.667 209.001 211.238 209.001 211.696C209.001 212.153 208.863 212.528 208.692 212.528C208.323 212.528 204.692 218.474 203.132 221.629C202.798 222.304 202.33 223.063 202.089 223.316C201.848 223.571 201.548 224.196 201.419 224.706C201.291 225.218 200.907 225.876 200.565 226.17C200.223 226.464 199.549 227.428 199.067 228.311C198.585 229.196 197.408 231.084 196.451 232.509C195.495 233.935 194.792 235.23 194.89 235.389C195.116 235.753 196.4 234.617 196.4 234.056C196.4 233.826 196.714 233.275 197.1 232.831C197.486 232.387 197.8 231.812 197.8 231.552C197.8 231.292 197.961 231.081 198.157 231.081C198.355 231.081 198.692 230.692 198.909 230.216C199.126 229.742 199.464 229.453 199.661 229.574C199.874 229.706 199.933 229.573 199.809 229.246C199.688 228.93 199.885 228.436 200.274 228.084C200.646 227.747 200.95 227.285 200.95 227.055C200.95 226.826 201.266 226.353 201.65 226.005C202.036 225.657 202.352 225.224 202.352 225.044C202.352 224.864 202.675 224.297 203.072 223.784C204.358 222.125 206.552 218.467 206.552 217.985C206.552 217.726 206.774 217.329 207.048 217.102C207.322 216.876 208.219 215.556 209.043 214.172C209.868 212.786 210.826 211.276 211.172 210.818C211.519 210.359 211.802 209.776 211.802 209.521C211.802 209.266 212.207 208.463 212.699 207.735C213.194 207.008 213.855 205.858 214.169 205.182C214.485 204.505 214.841 203.872 214.962 203.776C215.083 203.68 215.418 203.129 215.706 202.551C215.993 201.974 216.785 200.478 217.464 199.226C220.848 193.002 233.855 167.347 233.855 166.898C233.855 166.809 234.585 165.184 235.474 163.29C236.364 161.394 237.611 158.641 238.244 157.172C238.877 155.701 240.571 151.999 242.007 148.945C246.446 139.504 247.859 136.401 247.859 136.106C247.858 135.848 248.401 134.608 250.348 130.416C250.712 129.634 251.009 128.876 251.009 128.732C251.009 128.497 251.96 126.284 253.285 123.438C253.554 122.861 254.192 121.363 254.705 120.113C255.217 118.861 256.072 116.892 256.605 115.737C257.139 114.581 258.081 112.456 258.702 111.011C259.321 109.568 260.224 107.52 260.708 106.461C261.192 105.401 261.817 103.983 262.095 103.31C262.375 102.636 262.848 101.612 263.146 101.035C263.447 100.456 265.02 97.4019 266.645 94.2481C268.271 91.0927 270.302 87.4382 271.157 86.1272C272.894 83.4664 273.286 81.5971 271.819 82.9672C271.109 83.6312 269.693 83.866 270.221 83.2315C270.483 82.9159 270.609 82.6561 270.501 82.6561C270.392 82.6561 270.179 82.8537 270.026 83.0947ZM265.711 86.6824C264.862 87.5486 264.244 88.2577 264.341 88.2577C264.437 88.2577 265.212 87.5486 266.061 86.6824C266.911 85.8162 267.529 85.107 267.432 85.107C267.336 85.107 266.561 85.8162 265.711 86.6824ZM241.645 129.47C241.404 129.554 241.207 129.892 241.207 130.22C241.207 130.876 238.597 133.538 237.619 133.879C237.283 133.997 237.019 134.294 237.034 134.542C237.056 134.893 237.099 134.895 237.238 134.552C237.484 133.943 238.057 134.003 238.057 134.64C238.057 134.929 237.821 135.165 237.532 135.165C237.239 135.165 237.006 135.476 237.006 135.865C237.006 136.257 236.773 136.565 236.476 136.565C235.886 136.565 234.49 138.625 234.771 139.081C235.09 139.596 233.799 139.84 233.46 139.33C233.24 138.999 233.205 139.146 233.355 139.79C233.529 140.538 233.322 141.056 232.373 142.239C231.713 143.065 230.966 144.261 230.714 144.897C230.402 145.684 230.089 145.99 229.736 145.854C229.122 145.619 228.255 146.25 228.255 146.934C228.255 147.2 228.509 147.416 228.818 147.416C229.175 147.416 229.307 147.225 229.179 146.892C229.058 146.575 229.178 146.367 229.481 146.367C229.784 146.367 229.904 146.575 229.783 146.892C229.671 147.18 229.755 147.416 229.968 147.416C230.181 147.416 230.336 147.535 230.314 147.679C230.19 148.462 230.394 149.3 230.624 148.951C230.765 148.737 231.213 148.458 231.621 148.331C232.597 148.026 236.216 144.67 236.764 143.561C237 143.082 237.543 142.536 237.969 142.348C238.824 141.97 239.457 140.519 239.457 138.936C239.457 138.282 239.81 137.558 240.435 136.933C241.211 136.157 241.348 135.804 241.095 135.237C240.7 134.35 241.522 132.276 242.169 132.525C242.41 132.616 242.608 132.445 242.608 132.14C242.608 131.806 242.41 131.665 242.105 131.783C241.343 132.075 241.242 131.226 241.966 130.621C242.636 130.063 242.396 129.211 241.645 129.47ZM227.587 148.959C226.954 149.633 226.868 149.939 227.162 150.488C227.364 150.866 227.436 151.27 227.319 151.387C227.204 151.502 227.523 151.405 228.03 151.171C228.535 150.934 228.951 150.625 228.952 150.48C228.954 150.335 229.192 150.217 229.481 150.217C230.192 150.217 230.167 148.605 229.451 148.329C228.598 148.001 228.434 148.057 227.587 148.959ZM197.626 172.972C197.204 173.437 196.546 173.672 195.668 173.672C194.94 173.672 193.901 173.844 193.36 174.056C191.974 174.597 182.337 174.84 182.029 174.342C181.681 173.778 177.667 177.359 172.527 182.817C168.106 187.514 165.548 190.456 166.832 189.366C167.661 188.663 169.445 188.887 169.445 189.694C169.445 190.176 169.509 190.178 170.058 189.699C170.395 189.407 171.557 189.08 172.641 188.974C174.558 188.789 179.404 187.399 181.522 186.429C182.101 186.164 183.045 185.841 183.623 185.712C184.94 185.415 189.824 182.906 190.733 182.059C191.108 181.71 192.543 180.855 193.923 180.161C195.302 179.466 196.515 178.679 196.616 178.413C196.826 177.869 199.551 175.97 199.551 176.37C199.551 176.511 199.787 176.291 200.075 175.878C200.364 175.466 200.512 174.9 200.405 174.62C200.297 174.34 200.467 173.855 200.781 173.541C201.308 173.014 201.271 172.972 200.296 172.972C199.716 172.972 199.145 172.813 199.025 172.62C198.703 172.1 198.33 172.193 197.626 172.972ZM154.743 203.729C154.262 204.076 152.923 204.731 151.768 205.185C150.612 205.637 149.126 206.309 148.463 206.675C147.801 207.04 146.462 207.648 145.488 208.025C144.513 208.401 143.244 208.92 142.666 209.177C142.089 209.435 139.884 210.311 137.765 211.124C135.647 211.939 133.419 212.824 132.811 213.091C132.204 213.359 131.52 213.578 131.29 213.578C131.06 213.578 130.453 213.796 129.943 214.062C129.432 214.328 128.226 214.859 127.264 215.245C124.074 216.523 121.665 217.593 121.488 217.813C121.253 218.103 117.987 219.529 117.558 219.529C117.37 219.529 116.721 219.755 116.115 220.03C115.508 220.305 113.908 220.946 112.561 221.455C111.213 221.962 109.146 222.831 107.966 223.386C106.787 223.941 105.406 224.498 104.899 224.626C104.392 224.753 103.892 224.997 103.786 225.168C103.68 225.339 103.346 225.479 103.044 225.479C102.742 225.479 101.567 225.952 100.43 226.531C99.2931 227.108 98.1314 227.58 97.8484 227.58C97.5654 227.58 97.3336 227.699 97.3336 227.845C97.3336 228.076 95.7521 228.722 94.1829 229.131C92.8393 229.482 91.6014 230.131 91.9949 230.277C92.9824 230.644 92.3821 231.149 91.2189 230.932C90.3495 230.768 89.5875 230.905 88.5285 231.417C87.7151 231.81 86.7712 232.131 86.4291 232.131C86.0885 232.131 85.524 232.437 85.1741 232.812C84.8257 233.187 83.7558 233.662 82.7978 233.871C80.2723 234.418 79.3952 234.753 73.9849 237.238C72.4064 237.964 71.2059 238.703 71.3163 238.882C71.4283 239.063 71.2199 239.113 70.842 238.993C70.4703 238.875 69.545 239.074 68.7861 239.437C68.0256 239.797 66.7737 240.303 66.004 240.561C63.7132 241.326 63.5686 241.553 64.6557 242.687C65.1797 243.234 65.7893 243.682 66.0071 243.682C66.3912 243.682 69.6103 245.957 73.4219 248.921C74.4219 249.697 75.3332 250.333 75.4498 250.333C75.5649 250.333 75.8495 250.495 76.0828 250.694C76.3145 250.892 77.4497 251.749 78.6052 252.599C79.7607 253.45 80.9737 254.383 81.3002 254.672C81.6268 254.962 82.3359 255.427 82.8756 255.706C83.4152 255.988 84.4867 256.706 85.2565 257.304C88.3528 259.705 90.4646 261.249 94.0492 263.729C95.228 264.544 98.0272 266.55 100.271 268.186C102.515 269.824 104.629 271.32 104.969 271.513C105.993 272.091 109.176 274.491 109.297 274.774C109.359 274.92 110.146 275.466 111.045 275.987C111.944 276.508 114.336 278.194 116.362 279.733C118.387 281.273 120.841 283.002 121.815 283.576C122.788 284.15 124.097 285.084 124.724 285.652C126.116 286.913 130.021 289.54 130.503 289.54C130.696 289.54 131.049 289.775 131.287 290.062C131.786 290.664 132.354 290.576 136.269 289.288C137.758 288.798 138.895 288.269 138.798 288.112C138.7 287.954 140.117 287.019 141.946 286.033C143.775 285.047 146.14 283.582 147.202 282.777C148.264 281.973 150.264 280.526 151.645 279.564C153.028 278.601 154.679 277.341 155.317 276.763C155.954 276.186 156.954 275.32 157.541 274.838C158.127 274.357 159.06 273.569 159.615 273.088C160.17 272.606 161.379 271.583 162.301 270.813C165.657 268.008 176.096 256.885 176.096 256.115C176.096 255.976 176.49 255.551 176.972 255.172C177.452 254.794 177.847 254.35 177.847 254.186C177.847 254.022 178.333 253.364 178.928 252.724C180.984 250.508 181.28 250.153 182.275 248.716C182.824 247.923 184.415 245.771 185.811 243.936C188.449 240.466 188.702 239.861 187.824 239.132C187.122 238.55 187.155 238.05 187.876 238.326C188.359 238.511 188.413 238.387 188.208 237.569C187.992 236.711 188.048 236.613 188.663 236.774C189.049 236.875 189.439 236.777 189.53 236.557C189.62 236.337 189.705 236.491 189.721 236.902C189.736 237.311 189.512 237.843 189.223 238.082C188.626 238.578 188.531 239.132 189.044 239.132C189.234 239.132 189.62 238.581 189.901 237.906C190.183 237.233 190.579 236.681 190.781 236.681C191.442 236.681 191.19 235.025 190.502 234.844C190.117 234.743 189.766 234.229 189.635 233.579C189.422 232.51 188.624 232.103 188.173 232.831C187.777 233.473 187.357 233.191 187.122 232.128C186.965 231.411 186.254 230.569 184.906 229.501C183.816 228.636 182.527 227.535 182.043 227.055C181.561 226.574 180.97 226.181 180.731 226.181C180.493 226.181 180.297 226.027 180.297 225.842C180.297 225.655 179.913 225.301 179.441 225.053C178.972 224.806 177.829 223.882 176.903 222.999C175.978 222.117 174.21 220.652 172.974 219.746C171.736 218.839 170.476 217.819 170.173 217.478C169.87 217.138 168.876 216.352 167.966 215.733C166.321 214.612 165.004 213.528 160.725 209.773C159.492 208.689 158.058 207.543 157.541 207.227C156.583 206.642 155.264 203.998 155.632 203.403C155.917 202.944 155.746 203.006 154.743 203.729ZM188.646 234.931C189.016 235.992 188.861 236.157 187.852 235.77C187.163 235.505 187.108 233.882 187.789 233.882C188.058 233.882 188.444 234.355 188.646 234.931ZM192.812 237.899C192.089 238.939 191.498 239.871 191.498 239.969C191.498 240.067 191.086 240.587 190.581 241.127C189.799 241.961 188.349 244.701 188.349 245.342C188.349 245.936 190.007 243.892 191.254 241.759C192.043 240.41 193.13 238.79 193.669 238.157C194.596 237.07 194.963 235.966 194.388 235.995C194.243 236.003 193.534 236.86 192.812 237.899ZM187.648 240.22C188.082 240.533 188.06 240.561 187.519 240.385C186.993 240.214 186.9 240.312 187.048 240.877C187.15 241.264 187.09 241.67 186.915 241.777C186.741 241.886 186.598 241.493 186.598 240.903C186.598 239.76 186.813 239.62 187.648 240.22ZM187.298 246.505C187.298 246.9 187.457 247.127 187.648 247.009C187.841 246.889 187.998 246.565 187.998 246.287C187.998 246.01 187.841 245.783 187.648 245.783C187.457 245.783 187.298 246.108 187.298 246.505ZM186.093 246.911C185.793 247.34 185.548 247.89 185.548 248.136C185.548 248.382 185.404 248.584 185.227 248.584C185.049 248.584 184.584 249.103 184.192 249.736C183.8 250.371 183.149 251.277 182.743 251.75C182.339 252.223 181.505 253.209 180.889 253.941C180.275 254.675 179.21 255.856 178.522 256.568C177.833 257.279 176.81 258.49 176.247 259.26C175.684 260.031 174.395 261.481 173.384 262.484C172.373 263.485 171.546 264.435 171.546 264.594C171.546 264.961 170.467 265.888 169.692 266.185C169.364 266.311 169.095 266.734 169.095 267.126C169.095 267.516 168.958 267.837 168.792 267.837C168.624 267.837 167.627 268.664 166.576 269.675C163.036 273.076 159.219 276.239 158.649 276.239C158.452 276.239 158.201 276.514 158.093 276.852C157.984 277.188 157.304 277.853 156.581 278.329C155.859 278.805 154.72 279.632 154.051 280.167C153.381 280.702 152.647 281.139 152.416 281.139C152.188 281.139 151.948 281.262 151.885 281.413C151.821 281.564 150.743 282.464 149.493 283.414C148.241 284.363 147.059 285.324 146.866 285.549C146.675 285.775 146.28 286.044 145.992 286.147C145.703 286.251 146.415 286.347 147.574 286.363C148.734 286.377 150.782 286.694 152.126 287.066C153.888 287.552 154.382 287.604 153.902 287.249C153.102 286.661 153.471 286.22 161.046 278.67C163.663 276.058 166.259 273.329 166.814 272.603C167.367 271.877 168.304 270.773 168.896 270.149C169.487 269.525 170.68 268.113 171.546 267.011C172.412 265.908 173.908 264.166 174.871 263.143C175.834 262.118 177.095 260.703 177.672 259.999C178.249 259.296 178.919 258.498 179.16 258.227C179.399 257.957 179.597 257.605 179.597 257.448C179.597 257.29 180.205 256.495 180.948 255.682C181.692 254.868 182.519 253.899 182.787 253.528C185.872 249.24 186.562 248.147 186.766 247.217C187.048 245.936 186.841 245.842 186.093 246.911ZM145.992 283.167C145.992 283.515 142.417 285.343 141.756 285.332C141.487 285.327 142.289 284.8 143.541 284.161C144.793 283.522 145.855 282.974 145.903 282.945C145.952 282.914 145.992 283.015 145.992 283.167ZM140.54 286.207C140.17 286.489 139.551 286.716 139.165 286.713C138.658 286.708 138.803 286.535 139.691 286.086C141.084 285.382 141.546 285.447 140.54 286.207ZM138.29 287.254C138.29 287.566 138.084 287.689 137.767 287.568C137.479 287.458 137.332 287.226 137.437 287.053C137.744 286.559 138.29 286.688 138.29 287.254Z" fill="#62B5AF"/>
<path fill-rule="evenodd" clip-rule="evenodd" d="M281.214 97.2353C280.041 97.7127 277.24 105.04 276.755 108.911C276.622 109.969 276.447 111.28 276.366 111.822C276.287 112.364 276.057 114.334 275.855 116.197C275.654 118.062 275.345 120.533 275.171 121.688C273.982 129.514 273.704 168.896 274.805 173.2C274.981 173.888 274.948 174.444 274.72 174.675C274.461 174.933 274.524 177.068 274.926 181.796C275.244 185.509 275.604 191.201 275.73 194.442C275.856 197.684 276.071 200.155 276.208 199.935C276.534 199.404 276.908 204.354 276.911 209.251C276.912 212.396 277.015 213.192 277.438 213.354C277.858 213.516 277.964 214.282 277.964 217.184C277.964 219.179 278.062 220.91 278.183 221.031C278.303 221.151 278.373 222.923 278.337 224.968C278.295 227.423 278.416 228.857 278.691 229.19C278.973 229.529 279.167 232.088 279.285 237.01C279.447 243.767 279.511 244.34 280.113 244.497C281.167 244.774 281.121 267.81 280.063 268.085C279.15 268.325 278.96 275.537 279.869 275.537C280.735 275.537 280.836 276.167 280.579 279.932C280.357 283.19 280.257 283.59 279.671 283.59C278.842 283.59 278.626 298.077 279.45 298.41C279.788 298.545 279.783 298.592 279.43 298.614C279.178 298.629 279.046 298.76 279.135 298.906C279.225 299.051 278.805 299.169 278.202 299.168C277.415 299.168 277.069 299.349 276.978 299.813C276.875 300.329 276.996 300.413 277.581 300.227C278.639 299.892 278.551 301.096 277.443 302.138C276.763 302.777 276.659 303.062 276.973 303.439C277.275 303.802 277.273 304.023 276.968 304.327C276.471 304.825 276.444 305.293 276.912 305.293C277.105 305.293 277.264 305.057 277.264 304.768C277.264 304.478 277.402 304.242 277.572 304.242C277.743 304.242 277.968 303.914 278.072 303.511C278.217 302.957 278.441 302.836 278.987 303.009C279.525 303.18 279.97 302.956 280.713 302.142C281.264 301.539 282.013 300.998 282.377 300.942C282.794 300.877 282.998 300.609 282.926 300.217C282.845 299.78 282.971 299.657 283.354 299.805C283.682 299.931 284.105 299.713 284.43 299.25C284.724 298.83 284.965 298.605 284.965 298.751C284.965 298.897 285.438 298.479 286.015 297.821C286.591 297.163 287.064 296.438 287.064 296.213C287.064 295.986 287.198 295.883 287.361 295.983C287.747 296.221 289.599 294.292 289.287 293.98C289.156 293.847 289.321 293.742 289.652 293.742C290.021 293.742 290.159 293.583 290.007 293.337C289.87 293.115 289.909 293.026 290.095 293.141C290.28 293.256 291.132 292.725 291.986 291.961C292.842 291.197 294.367 289.998 295.378 289.299C296.389 288.597 297.216 287.893 297.216 287.731C297.216 287.571 297.362 287.44 297.541 287.44C297.843 287.44 298.698 286.905 304.345 283.19C305.474 282.447 306.615 281.839 306.883 281.839C307.15 281.839 307.368 281.655 307.368 281.431C307.368 281.206 307.46 281.114 307.572 281.226C307.685 281.338 308.079 281.128 308.447 280.759C308.816 280.391 309.315 280.091 309.556 280.094C309.853 280.097 309.825 280.22 309.469 280.476C309.02 280.8 309.029 280.828 309.534 280.666C309.859 280.562 310.764 280.305 311.547 280.094C313.242 279.638 313.453 279.207 311.831 279.52C311.023 279.674 310.845 279.638 311.219 279.394C311.508 279.204 312.19 279.047 312.736 279.044C313.374 279.041 313.674 278.882 313.578 278.601C313.497 278.36 313.103 278.211 312.705 278.268C311.607 278.425 311.408 277.696 312.424 277.234C313.704 276.651 313.57 275.676 312.232 275.83C311.974 275.859 311.568 270.422 311.568 266.945C311.568 265.015 311.444 264.364 311.044 264.21C310.665 264.064 310.519 263.469 310.519 262.071C310.519 261.006 310.362 260.135 310.169 260.135C309.967 260.135 309.819 259.04 309.819 257.551C309.819 255.938 309.621 254.587 309.295 253.961C308.999 253.392 308.772 252.031 308.771 250.814C308.769 249.336 308.604 248.534 308.244 248.234C307.842 247.901 307.718 246.991 307.718 244.38C307.718 241.301 307.651 240.946 307.043 240.788C306.451 240.632 306.351 240.212 306.23 237.334C306.097 234.188 305.623 230.28 304.875 226.181C304.192 222.437 304.14 221.619 304.555 221.12C304.872 220.738 304.864 220.437 304.521 219.814C304.25 219.319 304.02 217.195 303.931 214.365C303.852 211.814 303.647 209.727 303.477 209.727C303.306 209.727 303.168 208.87 303.168 207.822C303.168 206.776 303.034 205.836 302.872 205.735C302.71 205.636 302.471 202.978 302.342 199.83C302.213 196.683 301.869 192.778 301.577 191.153C301.286 189.528 301.039 187.411 301.028 186.448C301.017 185.486 300.687 181.783 300.297 178.222C299.906 174.661 299.518 170.958 299.434 169.995C299.185 167.124 298.272 159.622 297.944 157.744C297.776 156.781 297.46 153.945 297.243 151.442C296.905 147.556 296.518 144.706 295.316 137.266C295.208 136.591 294.969 135.095 294.787 133.939C294.605 132.784 294.045 129.949 293.543 127.638C293.041 125.329 292.492 122.729 292.324 121.862C292.156 120.996 291.862 119.657 291.671 118.887C291.479 118.118 291.136 116.542 290.909 115.387C288.84 104.89 284.122 96.0565 281.214 97.2353ZM281.313 300.592C280.993 300.912 280.631 301.076 280.509 300.956C280.39 300.835 280.593 300.513 280.963 300.242C281.836 299.604 282.068 299.838 281.313 300.592ZM272.933 306.97C272.679 307.38 273.678 308.296 274.012 307.96C274.141 307.831 273.998 307.48 273.696 307.176C273.368 306.848 273.059 306.766 272.933 306.97ZM274.463 307.092C274.463 307.422 275.269 307.665 275.776 307.487C276.516 307.229 276.261 306.869 275.339 306.869C274.856 306.869 274.463 306.97 274.463 307.092ZM263.46 320.546C262.882 321.124 262.73 321.753 263.173 321.734C263.574 321.718 264.742 319.995 264.353 319.995C264.165 319.995 263.764 320.243 263.46 320.546ZM246.122 321.129C243.46 321.348 241.99 321.622 241.748 321.941C241.449 322.334 238.603 322.442 226.33 322.522C214.734 322.599 211.093 322.726 210.476 323.078C210.035 323.33 207.987 323.686 205.925 323.868C203.863 324.051 201.703 324.289 201.126 324.395C199.143 324.762 195.525 325.712 195.175 325.958C194.982 326.093 193.969 326.312 192.926 326.444C191.685 326.603 190.676 326.983 190.012 327.541C189.452 328.012 188.643 328.396 188.214 328.396C185.9 328.396 185.17 330.92 186.625 333.892C187.17 335.009 188.233 337.655 188.982 339.774C189.733 341.892 191.385 346.01 192.652 348.927C193.918 351.843 195.921 356.647 197.103 359.603C198.283 362.559 199.451 365.293 199.697 365.677C199.943 366.063 200.338 366.968 200.574 367.691C201.238 369.716 202.677 369.733 209.177 367.795C214.936 366.079 226.787 359.545 231.639 355.413C240.213 348.112 244.426 344.179 248.208 339.941C249.652 338.324 251.346 336.494 251.971 335.873C252.598 335.253 253.11 334.64 253.11 334.511C253.11 334.383 253.593 333.825 254.186 333.273C254.82 332.679 255.158 332.097 255.007 331.853C254.847 331.592 254.901 331.531 255.158 331.69C255.394 331.836 255.66 331.676 255.791 331.307C256.123 330.371 257.008 329.435 257.357 329.651C257.523 329.754 257.66 329.671 257.66 329.468C257.66 329.264 257.484 329.096 257.269 329.096C257.053 329.096 256.958 328.791 257.056 328.416C257.195 327.885 257.032 327.712 256.31 327.628C255.688 327.556 255.43 327.35 255.525 326.997C256.032 325.09 255.962 324.683 255.053 324.269C254.551 324.039 254.049 323.616 253.938 323.326C253.826 323.037 253.57 322.902 253.368 323.028C253.136 323.171 253.069 322.989 253.186 322.541C253.43 321.608 252.346 320.68 251.092 320.746C250.565 320.774 248.329 320.946 246.122 321.129ZM258.08 325.964C257.54 326.83 257.539 327.796 258.078 327.616C258.566 327.452 259.117 325.673 258.75 325.446C258.612 325.361 258.311 325.594 258.08 325.964Z" fill="#FBCB11"/>
<path fill-rule="evenodd" clip-rule="evenodd" d="M273.851 81.154C273.417 81.2364 273.062 81.451 273.062 81.6314C273.062 81.8102 272.859 81.9564 272.608 81.9564C272.061 81.9564 269.212 83.7604 269.212 84.1072C269.212 84.2409 269.929 83.9703 270.806 83.5038C273.324 82.1648 273.395 82.6982 271.157 86.1273C270.302 87.4383 268.271 91.0928 266.646 94.2482C265.021 97.402 263.447 100.456 263.147 101.035C262.848 101.612 262.376 102.637 262.096 103.31C261.817 103.983 261.192 105.402 260.708 106.461C260.225 107.52 259.321 109.568 258.702 111.011C258.082 112.456 257.139 114.582 256.606 115.737C256.073 116.892 255.217 118.861 254.706 120.113C254.192 121.363 253.555 122.861 253.286 123.438C251.961 126.284 251.009 128.497 251.009 128.732C251.009 128.876 250.712 129.634 250.348 130.416C248.401 134.609 247.858 135.848 247.86 136.106C247.86 136.402 246.446 139.504 242.008 148.945C240.571 152 238.877 155.701 238.245 157.172C237.612 158.642 236.364 161.394 235.475 163.29C234.585 165.184 233.856 166.809 233.856 166.898C233.856 167.347 220.849 193.002 217.465 199.226C216.785 200.478 215.994 201.974 215.706 202.551C215.418 203.129 215.084 203.68 214.963 203.776C214.841 203.873 214.485 204.505 214.17 205.182C213.855 205.858 213.195 207.008 212.7 207.735C212.207 208.463 211.803 209.266 211.803 209.521C211.803 209.776 211.52 210.359 211.173 210.818C210.826 211.276 209.868 212.787 209.044 214.172C208.22 215.556 207.322 216.877 207.049 217.102C206.775 217.329 206.553 217.726 206.553 217.985C206.553 218.467 204.358 222.125 203.072 223.784C202.676 224.298 202.352 224.864 202.352 225.044C202.352 225.224 202.036 225.657 201.651 226.005C201.267 226.353 200.951 226.826 200.951 227.055C200.951 227.285 200.646 227.747 200.274 228.084C199.886 228.436 199.688 228.93 199.809 229.246C199.934 229.573 199.875 229.706 199.662 229.574C199.464 229.453 199.127 229.742 198.909 230.216C198.693 230.692 198.355 231.081 198.158 231.081C197.962 231.081 197.8 231.293 197.8 231.552C197.8 231.812 197.486 232.387 197.1 232.831C196.715 233.275 196.401 233.826 196.401 234.056C196.401 234.617 195.116 235.753 194.891 235.389C194.793 235.23 195.496 233.935 196.452 232.509C197.408 231.084 198.586 229.196 199.068 228.311C199.55 227.428 200.223 226.464 200.565 226.17C200.907 225.876 201.292 225.218 201.419 224.707C201.548 224.197 201.848 223.571 202.089 223.316C202.33 223.063 202.798 222.304 203.133 221.629C204.693 218.474 208.324 212.528 208.692 212.528C208.863 212.528 209.002 212.154 209.002 211.696C209.002 211.238 209.238 210.667 209.527 210.427C209.817 210.188 210.053 209.83 210.053 209.634C210.053 209.437 211.056 207.527 212.283 205.389C214.63 201.299 223.099 184.704 225.88 178.748C226.779 176.823 228.304 173.563 229.27 171.506C230.237 169.448 231.831 165.983 232.816 163.805C233.798 161.626 234.973 159.057 235.422 158.094C235.873 157.131 237.836 152.485 239.786 147.766C241.736 143.05 243.785 138.167 244.339 136.915C245.477 134.35 246.518 131.686 248.375 126.589C249.076 124.663 249.857 122.615 250.107 122.038C250.359 121.46 251.547 118.231 252.748 114.861C253.95 111.493 255.251 107.87 255.643 106.811C256.034 105.751 256.463 104.57 256.595 104.185C256.807 103.571 257.402 102.288 259.922 97.0085C260.243 96.3352 260.963 94.9962 261.522 94.0336C262.08 93.071 262.682 91.9684 262.859 91.5827C263.036 91.1986 263.514 90.5827 263.921 90.2157C264.329 89.8487 264.662 89.4288 264.662 89.2827C264.662 89.1349 265.607 88.0308 266.763 86.8287C267.918 85.625 268.811 84.5893 268.748 84.5255C268.355 84.1321 261.901 91.0275 260.635 93.1923C260.444 93.5219 259.341 95.1844 258.186 96.8872C257.031 98.5886 256.027 100.117 255.956 100.282C255.886 100.448 255.087 101.708 254.182 103.084C253.275 104.459 251.614 107.16 250.488 109.086C249.361 111.011 247.311 114.319 245.932 116.437C244.552 118.555 242.838 121.312 242.123 122.562C241.408 123.814 240.319 125.511 239.703 126.334C239.086 127.156 237.479 129.41 236.133 131.34C233.702 134.82 230.562 138.888 225.883 144.617C220.751 150.9 210.722 160.194 207.077 162.044C206.307 162.434 204.766 163.305 203.652 163.979C202.539 164.654 200.018 165.703 198.051 166.313C191.937 168.209 190.668 168.709 187.625 170.436C183.518 172.764 182.058 173.774 182.053 174.289C182.047 174.848 191.85 174.645 193.36 174.056C193.902 173.844 194.915 173.672 195.614 173.672C196.435 173.672 197.167 173.403 197.695 172.907C198.324 172.316 198.604 172.235 198.926 172.555C199.153 172.784 199.794 172.972 200.346 172.972C201.274 172.972 201.309 173.014 200.781 173.541C200.467 173.855 200.298 174.341 200.405 174.62C200.512 174.9 200.365 175.466 200.075 175.879C199.788 176.291 199.551 176.512 199.551 176.37C199.551 175.97 196.827 177.869 196.617 178.413C196.516 178.679 195.303 179.466 193.923 180.161C192.544 180.855 191.109 181.71 190.734 182.059C189.824 182.906 184.941 185.415 183.624 185.712C183.045 185.841 182.101 186.164 181.523 186.429C179.405 187.399 174.559 188.789 172.641 188.974C171.557 189.08 170.396 189.407 170.058 189.699C169.509 190.178 169.446 190.176 169.446 189.694C169.446 188.893 167.69 188.677 166.811 189.371C164.998 190.799 156.936 200.681 155.917 202.722C155.28 204.003 156.131 206.364 157.541 207.227C158.059 207.543 159.493 208.689 160.726 209.773C165.004 213.528 166.321 214.612 167.967 215.734C168.876 216.352 169.87 217.138 170.173 217.478C170.477 217.819 171.736 218.839 172.974 219.746C174.21 220.652 175.979 222.117 176.904 222.999C177.829 223.882 178.972 224.806 179.442 225.053C179.913 225.301 180.297 225.655 180.297 225.842C180.297 226.027 180.493 226.181 180.731 226.181C180.971 226.181 181.562 226.574 182.044 227.055C182.527 227.535 183.817 228.636 184.907 229.501C186.255 230.569 186.966 231.411 187.123 232.128C187.358 233.191 187.777 233.473 188.174 232.831C188.625 232.103 189.423 232.51 189.636 233.579C189.766 234.229 190.118 234.743 190.502 234.845C191.191 235.025 191.443 236.681 190.782 236.681C190.58 236.681 190.183 237.233 189.902 237.907C189.62 238.581 189.235 239.132 189.045 239.132C188.532 239.132 188.627 238.578 189.224 238.082C189.513 237.843 189.737 237.311 189.721 236.902C189.706 236.491 189.62 236.337 189.53 236.557C189.44 236.778 189.05 236.876 188.664 236.774C188.048 236.613 187.992 236.711 188.208 237.569C188.413 238.387 188.359 238.512 187.877 238.326C187.155 238.05 187.123 238.55 187.824 239.132C188.703 239.861 188.449 240.466 185.812 243.936C184.415 245.771 182.824 247.923 182.275 248.716C181.28 250.153 180.985 250.508 178.929 252.724C178.333 253.365 177.848 254.022 177.848 254.186C177.848 254.351 177.453 254.794 176.972 255.172C176.49 255.551 176.097 255.976 176.097 256.116C176.097 256.885 165.657 268.008 162.301 270.813C161.379 271.583 160.171 272.606 159.616 273.088C159.06 273.569 158.127 274.357 157.541 274.838C156.955 275.32 155.955 276.186 155.317 276.763C154.68 277.342 153.028 278.601 151.646 279.564C150.265 280.526 148.265 281.973 147.202 282.777C146.14 283.582 143.741 285.066 141.87 286.074C138.45 287.918 137.931 288.65 140.783 287.609C141.626 287.299 143.262 286.817 144.417 286.534C145.573 286.251 146.675 285.822 146.867 285.581C147.059 285.338 148.241 284.363 149.493 283.414C150.744 282.464 151.821 281.564 151.885 281.413C151.949 281.262 152.188 281.139 152.417 281.139C152.647 281.139 153.381 280.702 154.051 280.167C154.72 279.632 155.86 278.805 156.581 278.329C157.305 277.853 157.984 277.188 158.093 276.852C158.202 276.514 158.452 276.239 158.65 276.239C159.219 276.239 163.037 273.076 166.576 269.675C167.628 268.664 168.624 267.837 168.792 267.837C168.959 267.837 169.096 267.516 169.096 267.126C169.096 266.734 169.365 266.311 169.693 266.185C170.467 265.888 171.547 264.961 171.547 264.594C171.547 264.436 172.374 263.485 173.385 262.484C174.396 261.481 175.685 260.031 176.248 259.26C176.811 258.49 177.834 257.279 178.523 256.568C179.21 255.856 180.275 254.676 180.89 253.942C181.506 253.209 182.339 252.223 182.743 251.75C183.149 251.278 183.801 250.371 184.193 249.736C184.585 249.103 185.05 248.584 185.227 248.584C185.404 248.584 185.549 248.365 185.549 248.097C185.549 247.83 185.871 247.239 186.266 246.785L186.983 245.959L186.756 247.13C186.561 248.135 185.89 249.217 182.787 253.528C182.52 253.9 181.692 254.868 180.949 255.682C180.205 256.495 179.597 257.29 179.597 257.448C179.597 257.605 179.4 257.957 179.16 258.227C178.919 258.498 178.249 259.296 177.672 259.999C177.095 260.703 175.834 262.118 174.871 263.143C173.909 264.167 172.413 265.908 171.547 267.011C170.68 268.113 169.488 269.525 168.897 270.149C168.304 270.773 167.416 271.815 166.92 272.463C166.424 273.113 163.167 276.528 159.681 280.052C152.711 287.098 152.95 286.769 154.306 287.469C154.835 287.742 156.19 288.478 157.316 289.103C159.483 290.308 160.051 290.507 159.364 289.82C158.337 288.794 159.684 286.96 167.17 279.194C168.712 277.595 170.758 275.328 171.721 274.154C172.683 272.979 173.963 271.432 174.563 270.715C175.164 269.998 175.764 269.057 175.899 268.625C176.035 268.191 176.29 267.837 176.469 267.837C176.646 267.837 177.658 266.666 178.717 265.233C179.776 263.803 180.796 262.535 180.986 262.419C181.176 262.3 181.911 261.332 182.621 260.263C183.33 259.195 184.128 258.237 184.393 258.136C184.661 258.033 185.193 257.332 185.578 256.577C185.963 255.823 186.625 254.871 187.051 254.462C187.763 253.777 188.39 252.833 190.275 249.612C190.659 248.954 191.448 247.937 192.024 247.354C192.603 246.769 193.385 245.665 193.763 244.9C194.553 243.303 196.779 239.878 198.192 238.082C198.722 237.409 199.264 236.421 199.393 235.89C199.523 235.358 199.828 234.807 200.071 234.664C200.467 234.434 202.237 231.706 204.214 228.28C204.602 227.607 205.285 226.425 205.73 225.655C206.801 223.803 207.252 222.75 207.252 222.099C207.252 221.805 207.528 221.492 207.865 221.404C208.444 221.251 209.487 219.632 212.034 214.933C212.644 213.81 213.47 212.474 213.873 211.962C214.274 211.451 214.603 210.7 214.603 210.292C214.603 209.883 215.076 209.104 215.653 208.56C216.232 208.014 216.704 207.284 216.704 206.939C216.704 206.594 217.272 205.229 217.967 203.907C220.97 198.195 222.65 194.828 222.653 194.518C222.654 194.336 223.023 193.786 223.474 193.295C223.923 192.802 224.648 191.396 225.083 190.169C225.519 188.942 226.331 187.163 226.891 186.216C227.449 185.267 227.906 184.412 227.906 184.312C227.906 183.922 230.886 177.998 231.478 177.213C231.823 176.753 232.106 176.092 232.106 175.742C232.106 175.392 232.753 173.877 233.543 172.375C234.335 170.874 235.277 168.859 235.638 167.896C235.997 166.933 236.859 165.122 237.549 163.87C239.613 160.136 239.708 159.929 240.369 157.744C240.719 156.589 241.347 154.934 241.767 154.068C244.207 149.023 245.714 145.735 245.939 144.967C246.079 144.485 246.311 143.935 246.454 143.742C246.743 143.353 248.488 139.198 250.496 134.116C251.219 132.285 252.004 130.475 252.242 130.089C252.48 129.704 252.959 128.601 253.304 127.638C253.651 126.676 254.213 125.483 254.552 124.988C254.891 124.494 255.362 123.312 255.597 122.363C255.833 121.415 256.394 120.051 256.844 119.332C257.293 118.614 257.66 117.813 257.66 117.553C257.66 117.294 258.054 116.306 258.534 115.359C259.016 114.412 259.587 113.085 259.806 112.412C260.024 111.737 260.334 111.019 260.494 110.815C261.178 109.946 263.25 105.531 263.254 104.927C263.26 104.397 265.41 99.7985 266.794 97.3585C266.957 97.0708 267.563 95.878 268.14 94.7085C268.717 93.539 269.545 92.1285 269.982 91.5749C270.417 91.0213 271.115 89.8503 271.532 88.9747C272.814 86.2844 277.079 81.4681 278.404 81.2146C279.151 81.0731 278.7 80.9985 277.089 81C275.74 81.0016 274.283 81.07 273.851 81.154ZM241.966 130.621C241.243 131.226 241.344 132.075 242.106 131.783C242.411 131.665 242.608 131.806 242.608 132.141C242.608 132.445 242.411 132.616 242.17 132.525C241.523 132.276 240.7 134.35 241.095 135.237C241.349 135.804 241.212 136.157 240.436 136.933C239.811 137.559 239.458 138.282 239.458 138.936C239.458 140.52 238.825 141.971 237.969 142.348C237.543 142.537 237 143.082 236.764 143.561C236.217 144.67 232.598 148.026 231.621 148.331C231.214 148.459 230.766 148.737 230.624 148.951C230.394 149.3 230.191 148.462 230.315 147.679C230.337 147.535 230.181 147.417 229.968 147.417C229.755 147.417 229.671 147.18 229.783 146.892C229.904 146.575 229.785 146.367 229.481 146.367C229.178 146.367 229.058 146.575 229.18 146.892C229.307 147.225 229.175 147.417 228.819 147.417C228.509 147.417 228.256 147.2 228.256 146.934C228.256 146.25 229.122 145.619 229.736 145.854C230.089 145.991 230.402 145.684 230.715 144.897C230.967 144.261 231.713 143.065 232.374 142.24C233.323 141.056 233.529 140.538 233.355 139.79C233.206 139.146 233.24 138.999 233.461 139.33C233.8 139.84 235.091 139.596 234.772 139.081C234.49 138.625 235.887 136.565 236.476 136.565C236.773 136.565 237.007 136.257 237.007 135.865C237.007 135.476 237.24 135.165 237.532 135.165C237.822 135.165 238.058 134.929 238.058 134.64C238.058 134.004 237.484 133.943 237.238 134.553C237.1 134.895 237.056 134.893 237.035 134.542C237.019 134.294 237.283 133.997 237.619 133.879C238.598 133.539 241.207 130.876 241.207 130.22C241.207 129.508 241.974 129.159 242.344 129.704C242.487 129.917 242.317 130.329 241.966 130.621ZM229.452 148.329C230.167 148.605 230.192 150.217 229.481 150.217C229.192 150.217 228.954 150.336 228.953 150.48C228.951 150.625 228.536 150.934 228.03 151.171C227.523 151.405 227.205 151.502 227.32 151.387C227.436 151.27 227.365 150.866 227.163 150.488C226.869 149.939 226.954 149.633 227.587 148.959C228.435 148.057 228.598 148.001 229.452 148.329ZM212.739 200.145C212.625 200.842 212.251 201.722 211.905 202.101C211.56 202.479 211.042 203.512 210.753 204.395C210.039 206.578 209.352 206.745 209.352 204.736C209.352 203.63 209.554 203.003 210.053 202.551C210.437 202.202 210.753 201.619 210.753 201.255C210.753 200.632 212.196 198.876 212.708 198.876C212.838 198.876 212.852 199.447 212.739 200.145ZM208.73 201.238C208.926 201.995 208.702 202.726 208.273 202.726C208.097 202.726 207.952 202.254 207.952 201.677C207.952 200.538 208.472 200.246 208.73 201.238ZM208.063 204.83C208.218 206.079 208.344 207.529 208.339 208.05C208.332 209.154 206.375 213.087 205.707 213.343C205.456 213.44 205.15 214.029 205.024 214.653C204.899 215.276 204.602 216.018 204.361 216.3C204.122 216.581 203.375 217.785 202.702 218.973C200.806 222.315 198.645 225.54 197.46 226.792C196.867 227.416 196.289 228.4 196.174 228.979C196.057 229.557 195.827 230.031 195.66 230.031C195.496 230.031 194.947 230.683 194.444 231.479L193.53 232.929L192.182 231.568C189.224 228.579 187.409 226.918 186.073 225.979C183.319 224.043 182.706 223.315 182.939 222.254C183.138 221.351 183.075 221.279 182.059 221.279C181.182 221.279 180.848 221.055 180.369 220.147C179.552 218.596 177.254 216.272 176.809 216.545C176.61 216.67 176.447 216.603 176.447 216.399C176.447 215.553 175.756 214.628 175.125 214.628C174.948 214.628 174.508 213.959 174.147 213.141C173.786 212.322 173.4 211.574 173.29 211.477C172.099 210.437 170.736 205.975 171.727 206.356C172.001 206.46 172.309 206.41 172.411 206.244C172.514 206.079 174.043 205.927 175.809 205.908C178.129 205.883 179.181 205.729 179.599 205.35C180.341 204.678 184.496 204.605 184.504 205.264C184.509 205.605 184.569 205.606 184.779 205.275C184.928 205.042 185.989 204.745 187.137 204.616C188.284 204.487 189.528 204.224 189.9 204.033C190.435 203.757 190.709 203.846 191.2 204.451C191.881 205.292 194.682 205.606 194.928 204.869C194.999 204.653 195.281 204.476 195.555 204.476C195.827 204.476 196.051 204.255 196.051 203.986C196.051 203.451 197.547 203.204 202.702 202.885C204.338 202.782 205.913 202.644 206.203 202.576C207.537 202.258 207.776 202.548 208.063 204.83ZM187.298 234.719C187.298 235.471 187.869 235.981 188.709 235.981C188.877 235.981 188.847 235.509 188.647 234.932C188.207 233.67 187.298 233.527 187.298 234.719ZM194.65 236.495C194.65 236.778 194.209 237.526 193.67 238.157C193.13 238.79 192.043 240.41 191.255 241.759C190.007 243.892 188.35 245.936 188.35 245.342C188.35 244.701 189.799 241.961 190.581 241.127C191.087 240.588 191.499 240.067 191.499 239.969C191.499 239.625 194.129 236.008 194.388 235.995C194.531 235.988 194.65 236.213 194.65 236.495ZM186.599 240.903C186.599 241.493 186.742 241.886 186.916 241.777C187.09 241.67 187.151 241.264 187.048 240.877C186.9 240.312 186.994 240.214 187.519 240.385C188.06 240.561 188.082 240.533 187.648 240.221C186.813 239.62 186.599 239.76 186.599 240.903ZM187.998 246.287C187.998 246.566 187.841 246.889 187.648 247.009C187.457 247.127 187.298 246.9 187.298 246.505C187.298 246.108 187.457 245.783 187.648 245.783C187.841 245.783 187.998 246.01 187.998 246.287Z" fill="#467B7D"/>
</svg>
