<svg width="450" height="450" viewBox="0 0 450 450" fill="none" xmlns="http://www.w3.org/2000/svg">
<path fill-rule="evenodd" clip-rule="evenodd" d="M231.27 371L223.47 368.335C223.47 368.335 224.422 328.571 210.153 325.718C200.64 314.683 211.675 -142.32 245.92 324.196C245.92 324.196 234.125 330.093 232.032 340.178C229.748 350.071 231.27 371 231.27 371Z" fill="white"/>
<path fill-rule="evenodd" clip-rule="evenodd" d="M231.27 371L223.47 368.335C223.47 368.335 224.422 328.571 210.153 325.718C200.64 314.683 211.675 -142.32 245.92 324.196C245.92 324.196 234.125 330.093 232.032 340.178C229.748 350.071 231.27 371 231.27 371Z" fill="#A6A385"/>
<path fill-rule="evenodd" clip-rule="evenodd" d="M235.456 332.568C235.456 332.568 303.759 287.666 287.777 194.248C272.367 126.326 236.026 104.066 232.032 95.5038C227.656 89.4159 223.469 78.762 223.469 78.762L226.325 267.688C226.325 267.878 220.425 325.527 235.456 332.568Z" fill="white"/>
<path fill-rule="evenodd" clip-rule="evenodd" d="M235.456 332.568C235.456 332.568 303.759 287.666 287.777 194.248C272.367 126.326 236.026 104.066 232.032 95.5038C227.656 89.4159 223.469 78.762 223.469 78.762L226.325 267.688C226.325 267.878 220.425 325.527 235.456 332.568Z" fill="#499D4A"/>
<path fill-rule="evenodd" clip-rule="evenodd" d="M219.475 335.04C219.475 335.04 155.357 291.28 159.163 214.226C162.777 137.171 208.059 99.3096 216.81 92.4598C222.519 86.3718 222.709 84.088 223.09 78C227.085 86.5623 226.325 206.045 226.894 220.124C228.607 274.347 223.85 324.767 219.475 335.04Z" fill="white"/>
<path fill-rule="evenodd" clip-rule="evenodd" d="M219.475 335.04C219.475 335.04 155.357 291.28 159.163 214.226C162.777 137.171 208.059 99.3096 216.81 92.4598C222.519 86.3718 222.709 84.088 223.09 78C227.085 86.5623 226.325 206.045 226.894 220.124C228.607 274.347 223.85 324.767 219.475 335.04Z" fill="#58AA50"/>
</svg>
