<svg width="450" height="450" viewBox="0 0 450 450" fill="none" xmlns="http://www.w3.org/2000/svg">
<path d="M332.624 293.212C318.705 292.865 307.918 294.257 298.871 298.084C296.261 299.127 292.085 299.128 291.737 302.433C293.13 303.826 293.304 306.088 294.522 308.001C296.611 311.48 300.263 316.178 303.569 318.615C307.222 321.398 310.876 324.181 314.703 326.617C321.489 330.793 329.144 333.228 335.755 337.404C339.584 339.838 343.41 342.972 347.237 345.581C349.152 346.972 350.369 349.235 352.805 350.104V349.583C351.587 348.016 351.239 345.755 350.022 344.015C348.283 342.275 346.542 340.709 344.802 338.969C339.757 332.185 333.494 326.269 326.708 321.398C321.142 317.57 308.962 312.351 306.7 305.913C306.7 305.913 306.526 305.74 306.352 305.566C310.18 305.218 314.703 303.826 318.357 302.782C324.273 301.215 329.666 301.564 335.755 299.998C338.538 299.302 341.323 298.432 344.106 297.562V295.997C340.976 292.865 338.713 288.69 335.407 285.732C326.534 278.075 316.791 270.595 306.7 264.332C301.306 260.853 294.347 258.59 288.606 255.633C286.519 254.588 283.038 254.067 281.821 252.327C278.689 248.5 276.949 243.455 274.688 238.931C269.644 229.361 264.77 218.749 260.421 208.659C257.291 201.873 255.376 195.087 251.548 188.825C233.629 159.248 214.143 141.328 184.218 123.755C177.78 120.102 170.126 118.536 161.949 116.623C157.6 116.448 153.25 116.101 148.9 115.926C146.117 114.708 143.332 111.403 140.896 109.837C130.981 103.573 105.405 90.0039 98.0976 107.924C93.3999 119.232 105.057 130.366 109.058 136.109C112.017 140.11 115.844 144.633 117.932 149.157C119.15 152.113 119.497 155.247 120.715 158.378C123.499 166.031 126.108 174.558 129.762 181.692C131.677 185.345 133.763 189.173 136.2 192.478C137.591 194.391 140.026 195.262 140.549 198.393C138.114 201.873 137.939 207.092 136.547 211.442C130.284 231.101 132.72 255.459 141.593 269.899C144.376 274.247 150.988 283.818 159.861 280.164C167.69 277.033 165.95 267.116 168.211 258.417C168.734 256.328 168.386 254.937 169.429 253.545C169.43 253.719 169.429 253.894 169.429 253.894C171.866 258.765 174.301 263.463 176.562 268.334C181.956 276.858 191.351 285.732 199.18 291.648C203.357 294.778 206.662 300.172 211.881 302.086V301.563H211.533C210.488 299.997 208.923 299.302 207.532 298.084C204.4 294.952 200.919 291.125 198.484 287.645C191.178 277.901 184.739 267.116 178.998 255.98C176.215 250.588 173.779 244.672 171.517 239.279C170.473 237.19 170.473 234.059 168.733 233.016C166.123 236.843 162.297 240.149 160.382 244.846C157.078 252.327 156.729 261.548 155.511 271.117C154.816 271.292 155.163 271.117 154.815 271.465C149.248 270.072 147.334 264.332 145.246 259.46C140.026 247.108 139.156 227.274 143.681 213.008C144.899 209.354 150.118 197.872 148.03 194.392C146.987 191.086 143.506 189.173 141.593 186.563C139.331 183.257 136.895 179.082 135.33 175.428C131.154 165.685 129.066 154.898 124.543 145.155C122.455 140.631 118.802 135.934 115.844 131.759C112.539 127.062 108.885 123.755 106.275 118.188C105.406 116.275 104.187 113.143 105.578 111.055C105.927 109.663 106.622 109.142 108.015 108.794C110.276 106.879 116.714 109.315 118.975 110.359C125.413 112.967 130.806 115.405 136.2 119.058C138.635 120.798 141.244 124.104 144.376 124.974H148.03C153.598 126.191 159.86 125.322 165.08 126.887C174.302 129.844 182.651 134.194 190.133 138.892C212.926 153.332 231.714 173.863 244.416 198.393C246.504 202.394 247.372 206.049 249.287 210.224C252.941 218.749 257.464 227.448 261.117 235.799C264.77 243.975 268.25 252.327 273.469 259.113C276.08 262.765 286.518 264.68 291.216 266.594C294.695 268.159 300.089 269.552 303.221 271.465C309.135 275.117 315.051 279.294 320.619 283.296C323.403 285.383 332.101 289.733 332.624 293.212L332.624 293.212Z" fill="#00546B"/>
<path d="M155.162 142.022C152.204 142.022 150.117 142.372 148.029 142.893C148.029 142.892 148.029 143.068 148.029 143.241H148.377C149.77 146.025 152.204 147.939 153.944 150.374C155.337 153.157 156.554 155.942 157.946 158.726C158.12 158.551 158.293 158.378 158.293 158.378C160.731 156.637 161.948 153.854 161.948 149.679C160.903 148.461 160.73 147.243 159.86 146.025C158.816 144.284 156.554 143.415 155.162 142.022Z" fill="#00546B"/>
</svg>
