<svg width="450" height="450" viewBox="0 0 450 450" fill="none" xmlns="http://www.w3.org/2000/svg">
<path d="M232.049 363.3C227.332 363.3 222.733 363.3 218.015 363.3C217.898 362.946 217.544 363.064 217.308 363.064C211.765 362.71 206.341 362.121 200.916 361.177C190.185 359.29 179.808 356.224 169.902 351.743C145.255 340.776 125.326 324.148 110.231 301.743C96.7878 281.695 89.1227 259.525 87.3538 235.35C87.2359 234.525 87.3538 233.582 87 232.756C87 227.685 87 222.614 87 217.544C87.3538 217.426 87.2358 217.072 87.2358 216.836C87.7076 209.996 88.533 203.157 89.9481 196.435C93.7218 178.746 100.679 162.354 110.821 147.378C113.062 143.958 115.656 140.892 118.014 137.59C118.486 137.236 118.84 136.764 119.194 136.175C119.548 135.821 119.901 135.467 120.255 135.114C123.085 131.93 125.915 128.746 129.099 125.797C129.689 125.915 130.043 126.387 130.515 126.741C151.741 147.967 172.85 169.076 194.077 190.303C194.548 190.774 194.784 191.246 195.492 191.364C195.492 194.666 195.492 197.85 195.492 201.152C195.61 210.35 195.374 219.548 195.61 228.747C195.61 230.633 195.845 232.638 195.963 234.525C195.374 233.935 194.902 233.228 194.548 232.52C180.987 211.176 167.307 189.949 153.746 168.604C153.392 168.015 153.038 167.897 152.331 167.897C149.029 167.897 145.845 167.897 142.543 167.897C141.482 167.897 141.246 168.133 141.246 169.194C141.246 186.883 141.246 204.69 141.246 222.379C141.246 230.044 141.246 237.827 141.246 245.492C141.246 246.435 141.482 246.671 142.425 246.671C144.666 246.553 146.906 246.553 149.265 246.671C150.326 246.671 150.562 246.435 150.562 245.374C150.562 226.86 150.562 208.463 150.562 189.949C150.562 187.119 150.68 184.289 150.326 181.576C150.208 180.751 150.208 179.925 150.208 178.982C151.152 180.397 151.859 182.048 152.803 183.463C155.043 186.883 157.166 190.185 159.288 193.605C170.491 210.94 181.576 228.275 192.779 245.492C193.251 246.317 193.841 246.553 194.784 246.553C197.614 246.435 200.562 246.435 203.393 246.553C204.572 246.553 204.808 246.317 204.808 245.138C204.808 230.987 204.808 216.718 204.808 202.567C204.808 202.095 204.808 201.624 204.926 201.152C205.397 201.27 205.751 201.742 206.105 202.095C212.119 208.11 218.015 214.006 224.03 220.02C224.383 220.374 224.737 220.846 225.327 220.963C225.327 228.747 225.327 236.648 225.327 244.431C225.327 246.553 225.327 246.553 227.45 246.553C235.233 246.553 243.134 246.553 250.917 246.553C251.035 247.143 251.506 247.497 251.978 247.851C275.917 271.789 299.738 295.61 323.677 319.549C324.031 319.903 324.62 320.257 324.62 320.964C324.385 321.2 324.149 321.554 323.913 321.79C320.847 324.974 317.545 327.804 314.243 330.752C313.653 330.988 313.3 331.46 312.828 331.932C312.592 332.049 312.356 332.167 312.12 332.403C289.714 350.328 264.124 360.47 235.469 362.71C234.643 362.828 233.7 362.71 232.874 363.064C232.756 363.064 232.52 363.064 232.402 363.064V362.946C232.167 363.3 232.167 363.3 232.049 363.3ZM273.912 296.082C272.261 297.261 270.61 298.087 268.841 298.559C262.591 300.092 258.11 297.143 257.639 291.129C257.521 290.186 257.756 289.832 258.818 289.832C263.535 289.832 268.134 289.832 272.851 289.832C273.794 289.832 275.092 290.304 275.681 289.596C276.271 289.007 275.799 287.709 275.799 286.766C275.799 283.582 274.856 280.516 272.733 278.157C268.606 273.676 260.469 274.266 256.459 279.101C253.747 282.403 252.804 286.294 253.157 290.54C253.393 294.195 254.69 297.497 257.521 299.974C261.648 303.511 269.431 302.804 273.441 300.21C273.676 299.974 273.912 299.856 273.912 299.502C273.912 298.441 273.912 297.379 273.912 296.082ZM199.855 270.846C199.855 269.549 199.855 268.488 199.855 267.308C199.855 266.719 199.619 266.483 199.147 266.247C197.378 265.657 195.492 265.304 193.605 265.068C185.35 264.124 178.157 267.898 174.737 275.091C172.024 280.634 171.907 286.412 174.147 292.191C175.444 295.493 177.567 298.205 180.633 299.974C186.765 303.511 193.015 303.04 199.383 300.445C199.737 300.328 199.973 300.092 199.855 299.62C199.855 298.559 199.855 297.379 199.855 296.2C196.435 298.205 192.897 298.794 189.124 298.559C185.232 298.323 182.166 296.554 179.925 293.37C177.095 289.242 176.741 284.643 177.685 279.926C179.1 272.733 184.996 268.252 192.308 268.605C194.784 268.841 197.261 269.549 199.855 270.846ZM230.28 288.535C230.28 288.181 230.28 287.709 230.28 287.356C230.162 281.577 226.86 276.978 221.789 275.563C219.902 274.973 217.898 274.973 216.011 275.209C212.355 275.681 209.289 277.332 207.166 280.516C205.044 283.582 204.572 287.002 204.926 290.658C205.869 301.743 216.954 305.162 224.266 300.681C228.629 297.851 230.28 293.606 230.28 288.535ZM250.445 280.044C250.445 278.747 250.445 277.686 250.445 276.624C250.445 275.917 250.209 275.681 249.502 275.563C246.318 274.973 243.605 276.389 241.836 279.455C241.601 279.808 241.483 280.162 241.129 280.752C241.129 279.926 241.129 279.455 241.129 278.983C241.011 277.922 241.601 276.624 240.893 276.035C240.186 275.445 238.888 275.917 237.945 275.799C237.002 275.681 236.766 276.035 236.766 276.978C236.766 282.874 236.766 288.771 236.766 294.667C236.766 296.79 236.766 298.794 236.766 300.917C236.766 301.625 237.002 301.86 237.709 301.86C238.417 301.86 239.242 301.743 239.95 301.86C240.775 301.978 241.129 301.625 241.129 300.681C241.129 296.436 241.129 292.191 241.129 288.063C241.129 285.823 241.719 283.7 242.898 281.695C243.841 280.28 245.138 279.455 246.907 279.219C248.204 279.219 249.266 279.455 250.445 280.044ZM124.972 241.718C124.972 238.299 122.26 235.586 118.84 235.468C115.538 235.468 112.708 238.299 112.708 241.6C112.708 244.902 115.42 247.733 118.722 247.733C122.26 247.851 124.972 245.138 124.972 241.718Z" fill="#6C4494"/>
<path d="M195.491 191.6C194.784 191.482 194.43 190.893 194.076 190.539C172.85 169.312 151.741 148.203 130.514 126.977C130.16 126.623 129.807 126.033 129.099 126.033C131.104 124.029 133.227 122.142 135.349 120.255C152.33 105.75 171.67 95.9624 193.369 90.7736C200.444 89.1227 207.638 87.9434 214.949 87.4717C215.303 87.4717 215.775 87.7076 215.775 87C222.025 87 228.157 87 234.407 87C234.525 87.5896 234.996 87.3538 235.232 87.3538C238.298 87.4717 241.247 87.9434 244.313 88.2972C253.865 89.5944 263.181 91.8349 272.143 95.1369C296.2 103.981 316.365 118.25 332.521 138.18C345.729 154.454 354.809 172.85 359.644 193.251C361.295 200.445 362.474 207.638 362.946 215.067C362.946 215.303 362.71 215.893 363.3 215.893C363.3 221.082 363.3 226.152 363.3 231.341C363.3 231.459 363.182 231.459 363.182 231.577H363.3C363.3 232.52 363.3 233.464 363.3 234.289C363.182 234.289 363.182 234.171 363.182 234.171C363.064 234.171 363.064 234.289 363.064 234.407C362.828 236.412 362.71 238.417 362.474 240.303C361.531 248.912 359.762 257.403 357.285 265.775C352.097 282.521 343.96 297.851 332.993 311.531C330.28 314.832 327.568 318.134 324.384 321.201C324.266 320.611 323.795 320.257 323.441 319.785C299.502 295.846 275.681 272.025 251.742 248.087C251.388 247.733 250.798 247.379 250.681 246.789C255.751 246.789 260.822 246.789 265.893 246.789C266.836 246.789 267.072 246.554 267.072 245.61C267.072 243.487 266.954 241.365 267.072 239.124C267.072 238.181 266.718 238.063 265.893 238.063C260.822 238.063 255.869 238.063 250.798 238.063C247.614 238.063 244.43 238.063 241.246 238.063C241.129 237.591 240.893 237.355 240.539 237.002C238.888 235.351 237.237 233.7 235.586 232.049C235.35 231.813 234.996 231.459 234.525 231.341C234.525 224.973 234.525 218.605 234.407 212.237C234.407 211.176 234.643 210.822 235.822 210.822C244.43 210.94 253.039 210.822 261.766 210.822C262.709 210.822 262.945 210.586 262.945 209.643C262.827 207.638 262.827 205.633 262.945 203.629C262.945 202.685 262.709 202.449 261.766 202.449C253.157 202.449 244.548 202.449 235.822 202.449C234.878 202.449 234.407 202.331 234.525 201.152C234.525 193.251 234.525 185.35 234.525 177.449C234.525 176.388 234.761 176.152 235.822 176.27C245.138 176.27 254.572 176.27 263.888 176.27C264.714 176.27 265.068 176.034 265.068 175.208C264.95 173.204 264.95 171.199 265.068 169.076C265.068 168.251 264.832 167.897 264.006 167.897C251.506 167.897 238.888 167.897 226.388 167.897C225.444 167.897 225.209 168.133 225.209 169.076C225.209 180.869 225.209 192.661 225.209 204.572C225.209 210.114 225.209 215.657 225.209 221.199C224.619 221.082 224.265 220.61 223.911 220.256C217.897 214.242 212.001 208.346 205.987 202.331C205.633 201.978 205.397 201.506 204.807 201.388C204.807 200.916 204.807 200.445 204.807 199.855C204.807 189.595 204.807 179.336 204.807 169.194C204.807 168.251 204.69 167.897 203.628 168.015C201.506 168.133 199.383 168.015 197.26 168.015C195.491 168.015 195.491 168.015 195.491 169.784C195.491 177.095 195.491 184.289 195.491 191.6ZM305.87 211.648C305.87 200.327 305.87 189.006 305.87 177.685C305.87 176.741 305.988 176.27 307.167 176.388C309.172 176.506 311.176 176.388 313.299 176.388C318.134 176.388 322.969 176.388 327.804 176.388C328.276 176.388 328.865 176.624 328.747 175.798C328.747 173.44 328.747 171.081 328.747 168.723C328.747 168.251 328.629 168.015 328.04 168.015C327.096 168.015 326.153 168.015 325.328 168.015C308.582 168.015 291.955 168.015 275.209 168.015C274.148 168.015 273.912 168.251 273.912 169.312C274.03 171.317 274.03 173.322 273.912 175.326C273.912 176.27 274.266 176.506 275.091 176.388C281.813 176.388 288.653 176.388 295.374 176.388C296.318 176.388 296.672 176.624 296.672 177.685C296.672 189.831 296.672 202.096 296.672 214.242C296.672 224.737 296.672 235.233 296.672 245.728C296.672 246.554 296.79 246.907 297.851 246.907C300.091 246.789 302.332 246.789 304.691 246.907C305.752 246.907 305.988 246.671 305.988 245.61C305.87 234.171 305.87 222.968 305.87 211.648Z" fill="#5A328A"/>
<path d="M363.301 231.578H363.182C363.182 231.459 363.301 231.459 363.301 231.341C363.301 231.459 363.301 231.578 363.301 231.578Z" fill="#020203"/>
<path d="M232.049 363.301C232.167 363.301 232.167 363.182 232.286 363.182V363.301C232.167 363.301 232.167 363.301 232.049 363.301Z" fill="#1C1B1C"/>
<path d="M195.492 191.6C195.492 184.407 195.492 177.095 195.492 169.902C195.492 168.133 195.492 168.133 197.261 168.133C199.383 168.133 201.506 168.251 203.629 168.133C204.69 168.133 204.808 168.487 204.808 169.312C204.808 179.572 204.808 189.831 204.808 199.973C204.808 200.445 204.808 200.916 204.808 201.506C204.808 201.978 204.69 202.449 204.69 202.921C204.69 217.072 204.69 231.341 204.69 245.492C204.69 246.554 204.454 246.907 203.275 246.907C200.445 246.79 197.496 246.79 194.666 246.907C193.723 246.907 193.133 246.672 192.661 245.846C181.576 228.511 170.373 211.176 159.171 193.959C157.048 190.539 154.807 187.237 152.685 183.817C151.741 182.402 151.034 180.869 150.09 179.336C150.09 180.161 150.208 180.987 150.208 181.93C150.444 184.761 150.444 187.473 150.444 190.303C150.444 208.817 150.444 227.214 150.444 245.728C150.444 246.79 150.208 247.025 149.147 247.025C146.906 246.907 144.666 246.907 142.307 247.025C141.364 247.025 141.128 246.789 141.128 245.846C141.128 238.181 141.128 230.398 141.128 222.733C141.128 205.044 141.128 187.237 141.128 169.548C141.128 168.487 141.482 168.251 142.425 168.251C145.727 168.369 148.911 168.251 152.213 168.251C152.92 168.251 153.274 168.487 153.628 168.959C167.19 190.303 180.751 211.53 194.43 232.874C194.902 233.582 195.256 234.289 195.845 234.879C195.728 232.992 195.492 230.987 195.492 229.101C195.256 219.902 195.492 210.704 195.374 201.506C195.492 198.086 195.492 194.784 195.492 191.6Z" fill="#FEFEFF"/>
<path d="M225.091 221.2C225.091 215.657 225.091 210.115 225.091 204.572C225.091 192.78 225.091 180.987 225.091 169.076C225.091 168.133 225.327 167.897 226.27 167.897C238.77 167.897 251.389 167.897 263.889 167.897C264.832 167.897 265.068 168.133 264.95 169.076C264.832 171.081 264.832 173.204 264.95 175.209C264.95 176.152 264.714 176.388 263.771 176.27C254.455 176.27 245.021 176.27 235.704 176.27C234.761 176.27 234.407 176.506 234.407 177.449C234.407 185.35 234.407 193.251 234.407 201.152C234.407 202.214 234.761 202.449 235.704 202.449C244.313 202.449 252.922 202.449 261.648 202.449C262.591 202.449 262.827 202.685 262.827 203.629C262.709 205.633 262.709 207.638 262.827 209.643C262.827 210.586 262.591 210.822 261.648 210.822C253.039 210.822 244.431 210.822 235.704 210.822C234.525 210.822 234.289 211.176 234.289 212.237C234.407 218.605 234.407 224.973 234.407 231.341C234.407 233.346 234.407 235.351 234.289 237.355C234.289 237.827 234.407 238.063 234.879 238.063C236.884 238.063 238.888 238.063 240.893 237.945C244.077 237.945 247.261 237.945 250.445 237.945C255.516 237.945 260.469 237.945 265.54 237.945C266.365 237.945 266.719 238.063 266.719 239.006C266.601 241.129 266.601 243.252 266.719 245.492C266.719 246.436 266.483 246.672 265.54 246.672C260.469 246.672 255.398 246.672 250.327 246.672C242.544 246.672 234.643 246.672 226.86 246.672C224.737 246.672 224.737 246.672 224.737 244.549C225.091 236.884 225.091 229.101 225.091 221.2Z" fill="#FEFEFF"/>
<path d="M273.913 296.082C273.913 297.38 273.913 298.441 273.913 299.502C273.913 299.856 273.677 300.092 273.441 300.21C269.431 302.804 261.53 303.512 257.521 299.974C254.691 297.498 253.393 294.196 253.158 290.54C252.804 286.295 253.747 282.521 256.46 279.101C260.469 274.266 268.606 273.677 272.733 278.158C274.974 280.516 275.799 283.582 275.799 286.766C275.799 287.71 276.271 289.007 275.681 289.597C275.092 290.186 273.795 289.832 272.851 289.832C268.134 289.832 263.535 289.832 258.818 289.832C257.875 289.832 257.639 290.068 257.639 291.13C258.228 297.026 262.71 299.974 268.842 298.559C270.611 298.087 272.144 297.262 273.913 296.082ZM264.479 286.413C266.601 286.413 268.606 286.413 270.729 286.413C271.082 286.413 271.436 286.53 271.554 285.941C271.908 283.111 269.549 279.691 266.719 279.101C262.474 278.158 258.111 281.46 257.639 285.823C257.521 286.53 257.993 286.53 258.464 286.53C260.351 286.413 262.474 286.413 264.479 286.413Z" fill="#F0EFF1"/>
<path d="M199.855 270.846C197.26 269.549 194.784 268.842 192.19 268.724C184.878 268.37 178.982 272.851 177.567 280.044C176.623 284.761 176.977 289.361 179.807 293.488C182.048 296.672 185.114 298.323 189.006 298.677C192.779 298.913 196.317 298.323 199.737 296.318C199.737 297.615 199.737 298.677 199.737 299.738C199.737 300.092 199.619 300.328 199.265 300.564C193.015 303.04 186.647 303.512 180.515 300.092C177.449 298.323 175.326 295.611 174.029 292.309C171.788 286.53 171.906 280.752 174.619 275.209C178.039 268.016 185.35 264.242 193.487 265.186C195.374 265.422 197.142 265.775 199.029 266.365C199.619 266.601 199.855 266.837 199.737 267.426C199.737 268.488 199.855 269.549 199.855 270.846Z" fill="#F0EFF1"/>
<path d="M230.28 288.535C230.28 293.606 228.629 297.969 224.148 300.681C216.954 305.045 205.869 301.743 204.808 290.658C204.454 287.12 204.926 283.582 207.048 280.516C209.171 277.332 212.237 275.681 215.893 275.209C217.78 274.974 219.784 274.973 221.671 275.563C226.742 276.978 230.044 281.577 230.162 287.356C230.28 287.709 230.28 288.063 230.28 288.535ZM226.034 289.007C226.152 286.884 225.681 284.879 224.737 282.875C222.261 277.686 214.478 277.568 211.294 281.577C208.228 285.469 208.228 292.073 211.176 295.964C214.242 299.974 222.379 300.092 224.855 294.549C225.681 292.898 226.152 291.011 226.034 289.007Z" fill="#F0EFF1"/>
<path d="M250.445 280.044C249.266 279.455 248.087 279.101 247.025 279.337C245.374 279.573 243.959 280.28 243.016 281.813C241.837 283.7 241.247 285.823 241.247 288.181C241.247 292.426 241.247 296.672 241.247 300.799C241.247 301.743 241.011 301.978 240.068 301.978C239.36 301.861 238.535 301.978 237.827 301.978C237.12 301.978 236.884 301.743 236.884 301.035C236.884 298.912 236.884 296.908 236.884 294.785C236.884 288.889 236.884 282.992 236.884 277.096C236.884 276.153 237.12 275.799 238.063 275.917C239.124 276.035 240.422 275.445 241.011 276.153C241.719 276.742 241.129 278.157 241.247 279.101C241.247 279.573 241.247 280.044 241.247 280.87C241.601 280.162 241.837 279.926 241.955 279.573C243.606 276.506 246.436 275.091 249.62 275.681C250.209 275.799 250.563 276.035 250.563 276.742C250.445 277.686 250.445 278.747 250.445 280.044Z" fill="#F0EFF1"/>
<path d="M124.972 241.719C124.972 245.138 122.26 247.851 118.84 247.851C115.538 247.851 112.826 245.138 112.826 241.719C112.826 238.299 115.656 235.469 118.958 235.587C122.26 235.587 124.972 238.299 124.972 241.719Z" fill="#FEFEFF"/>
<path d="M305.87 211.648C305.87 222.969 305.87 234.171 305.87 245.492C305.87 246.554 305.516 246.79 304.573 246.79C302.332 246.672 300.091 246.672 297.733 246.79C296.789 246.79 296.554 246.436 296.554 245.61C296.554 235.115 296.554 224.62 296.554 214.124C296.554 201.978 296.554 189.713 296.554 177.567C296.554 176.506 296.318 176.27 295.256 176.27C288.535 176.27 281.695 176.27 274.973 176.27C274.148 176.27 273.794 176.152 273.794 175.209C273.912 173.204 273.912 171.199 273.794 169.194C273.794 168.133 274.03 167.897 275.091 167.897C291.837 167.897 308.464 167.897 325.21 167.897C326.153 167.897 327.096 167.897 327.922 167.897C328.394 167.897 328.629 168.015 328.629 168.605C328.629 170.963 328.629 173.322 328.629 175.68C328.629 176.506 328.04 176.27 327.686 176.27C322.851 176.27 318.016 176.27 313.181 176.27C311.176 176.27 309.054 176.388 307.049 176.27C305.87 176.27 305.752 176.624 305.752 177.567C305.988 189.006 305.87 200.327 305.87 211.648Z" fill="#FEFEFF"/>
<path d="M241.247 238.063C239.242 238.063 237.238 238.063 235.233 238.181C234.761 238.181 234.525 237.945 234.643 237.473C234.643 235.468 234.643 233.464 234.761 231.459C235.233 231.577 235.469 231.931 235.823 232.167C237.474 233.817 239.125 235.468 240.775 237.119C240.893 237.355 241.247 237.591 241.247 238.063Z" fill="#6C4494"/>
<path d="M264.478 286.412C262.473 286.412 260.469 286.412 258.346 286.412C257.874 286.412 257.521 286.53 257.521 285.705C257.874 281.342 262.355 278.04 266.601 278.983C269.431 279.573 271.79 282.993 271.436 285.823C271.318 286.412 270.964 286.295 270.61 286.295C268.606 286.413 266.483 286.412 264.478 286.412Z" fill="#6C4494"/>
<path d="M226.034 289.007C226.152 291.012 225.68 292.898 224.855 294.667C222.379 300.21 214.242 300.092 211.176 296.082C208.227 292.191 208.227 285.469 211.294 281.695C214.478 277.686 222.261 277.804 224.737 282.993C225.68 284.879 226.152 286.884 226.034 289.007Z" fill="#6C4494"/>
</svg>
