<svg width="450" height="450" viewBox="0 0 450 450" fill="none" xmlns="http://www.w3.org/2000/svg">
<path d="M146.315 181.957H202.521V186.431H151.468V220.102H199.477V224.576H151.468V261.544H203.106V266.018H146.315V181.957ZM207.556 181.957H213.528L239.991 218.925L267.04 181.957L303.831 135L243.387 222.81L274.534 266.018H268.328L239.991 226.695L211.537 266.018H205.448L236.83 222.81L207.556 181.957ZM276.759 186.431V181.957H340.81V186.431H311.302V266.018H306.15V186.431H276.759ZM76 181.957H82.4402L171.247 315.042L134.547 266.018L81.3864 188.315L81.1522 266.018H76V181.957ZM340.291 260.194C339.238 260.194 338.449 259.377 338.449 258.321C338.449 257.266 339.238 256.449 340.291 256.449C341.356 256.449 342.133 257.266 342.133 258.321C342.133 259.377 341.356 260.194 340.291 260.194ZM345.354 255.268H348.11C348.148 256.763 349.238 257.769 350.842 257.769C352.634 257.769 353.649 256.688 353.649 254.665V241.848H356.456V254.677C356.456 258.321 354.351 260.42 350.867 260.42C347.597 260.42 345.354 258.384 345.354 255.268ZM360.128 255.105H362.91C363.148 256.826 364.827 257.919 367.246 257.919C369.501 257.919 371.155 256.751 371.155 255.142C371.155 253.76 370.103 252.931 367.709 252.365L365.378 251.8C362.108 251.033 360.617 249.45 360.617 246.786C360.617 243.557 363.248 241.408 367.196 241.408C370.867 241.408 373.549 243.557 373.712 246.61H370.98C370.717 244.939 369.263 243.896 367.158 243.896C364.94 243.896 363.461 244.964 363.461 246.597C363.461 247.892 364.414 248.633 366.769 249.186L368.762 249.676C372.471 250.543 374 252.051 374 254.778C374 258.246 371.318 260.42 367.033 260.42C363.023 260.42 360.328 258.347 360.128 255.105Z" fill="black"/>
</svg>
