<svg width="450" height="450" viewBox="0 0 450 450" fill="none" xmlns="http://www.w3.org/2000/svg">
<path d="M129.151 256.799C127.429 256.799 125.732 256.129 124.465 254.859L85.2522 215.643V250.173C85.2522 253.834 82.2863 256.799 78.6261 256.799C74.9685 256.799 72 253.834 72 250.173V199.645C72 196.963 73.6168 194.549 76.0923 193.523C78.5651 192.495 81.417 193.062 83.3121 194.959L122.525 234.175V199.645C122.525 195.985 125.491 193.019 129.151 193.019C132.812 193.019 135.777 195.985 135.777 199.645V250.173C135.777 252.853 134.161 255.27 131.685 256.296C130.866 256.635 130.007 256.799 129.151 256.799Z" fill="#009900"/>
<path d="M159.835 193.083L158.014 196.48L143.933 222.073L142.112 225.304L143.933 228.532L158.014 253.298L159.917 256.693H196.777L198.598 252.966L209.118 231.763L213.838 222.155H203.154L176.236 222.237C172.735 222.19 169.515 225.362 169.515 228.863C169.515 232.365 172.735 235.54 176.236 235.49L192.47 235.407L188.494 243.441H167.622L157.267 225.219L167.704 206.335H189.907L195.083 216.958H208.42L200.013 196.812L198.19 193.083H159.835Z" fill="#009900"/>
<path d="M226.963 193C223.491 193.043 220.374 196.239 220.419 199.709V216.976H233.672V199.709C233.714 196.184 230.486 192.955 226.963 193Z" fill="#009900"/>
<path d="M248.204 256.926C247.35 256.926 246.489 256.762 245.67 256.423C243.194 255.397 241.58 252.98 241.58 250.3V199.772C241.58 196.112 244.546 193.146 248.206 193.146C251.866 193.146 254.832 196.112 254.832 199.772V234.302L294.045 195.086C295.935 193.194 298.782 192.622 301.265 193.65C303.741 194.676 305.355 197.093 305.355 199.772V250.3C305.355 253.961 302.389 256.926 298.729 256.926C295.069 256.926 292.103 253.961 292.103 250.3V215.771L252.889 254.986C251.625 256.253 249.929 256.926 248.204 256.926Z" fill="#009900"/>
<path d="M354.439 224.986L375.051 204.447C377.643 201.866 377.651 197.67 375.067 195.076C372.486 192.483 368.293 192.478 365.698 195.06L345.054 215.632L324.409 195.06C321.814 192.475 317.621 192.483 315.04 195.076C312.456 197.67 312.464 201.866 315.053 204.447L335.666 224.986L315.114 245.466C312.519 248.05 312.514 252.243 315.098 254.835C316.392 256.136 318.091 256.786 319.792 256.786C321.483 256.786 323.174 256.142 324.468 254.851L345.054 234.339L365.637 254.851C366.933 256.142 368.621 256.786 370.315 256.786C372.016 256.786 373.713 256.136 375.009 254.835C377.59 252.243 377.585 248.05 374.993 245.466L354.439 224.986Z" fill="#009900"/>
<path d="M226.963 256.738C223.491 256.696 220.374 253.499 220.419 250.03V222.293H233.672V250.03C233.714 253.552 230.486 256.781 226.963 256.738Z" fill="#009900"/>
</svg>
