<svg width="450" height="450" viewBox="0 0 450 450" fill="none" xmlns="http://www.w3.org/2000/svg">
<path d="M225 369.464C221.025 369.464 217.315 368.404 213.87 366.549L178.623 345.613C173.323 342.698 175.973 341.638 177.563 341.108C184.718 338.723 186.043 338.193 193.464 333.952C194.259 333.422 195.319 333.687 196.114 334.217L223.145 350.383C224.205 350.913 225.53 350.913 226.325 350.383L332.064 289.166C333.124 288.636 333.654 287.576 333.654 286.251V164.081C333.654 162.756 333.124 161.696 332.064 161.166L226.325 100.213C225.265 99.6832 223.94 99.6832 223.145 100.213L117.406 161.166C116.346 161.696 115.816 163.021 115.816 164.081V286.251C115.816 287.311 116.346 288.636 117.406 289.166L146.292 305.861C161.928 313.812 171.733 304.536 171.733 295.261V174.681C171.733 173.091 173.058 171.501 174.913 171.501H188.429C190.019 171.501 191.609 172.826 191.609 174.681V295.261C191.609 316.197 180.213 328.387 160.337 328.387C154.242 328.387 149.472 328.387 135.957 321.762L108.13 305.861C101.24 301.886 97 294.466 97 286.516V164.346C97 156.395 101.24 148.975 108.13 145L213.87 83.7826C220.495 80.0725 229.505 80.0725 236.13 83.7826L341.87 145C348.76 148.975 353 156.395 353 164.346V286.516C353 294.466 348.76 301.886 341.87 305.861L236.13 367.079C232.685 368.669 228.71 369.464 225 369.464ZM257.596 285.455C211.219 285.455 201.679 264.255 201.679 246.234C201.679 244.644 203.004 243.054 204.859 243.054H218.64C220.23 243.054 221.555 244.114 221.555 245.704C223.675 259.749 229.77 266.64 257.861 266.64C280.122 266.64 289.663 261.605 289.663 249.679C289.663 242.789 287.012 237.754 252.296 234.308C223.41 231.393 205.389 225.033 205.389 201.977C205.389 180.511 223.41 167.791 253.621 167.791C287.542 167.791 304.238 179.451 306.358 204.892C306.358 205.687 306.093 206.482 305.563 207.277C305.033 207.807 304.238 208.337 303.443 208.337H289.663C288.337 208.337 287.012 207.277 286.747 205.952C283.567 191.377 275.352 186.607 253.621 186.607C229.24 186.607 226.325 195.087 226.325 201.447C226.325 209.133 229.77 211.518 262.631 215.758C295.228 219.998 310.598 226.093 310.598 248.884C310.333 272.205 291.253 285.455 257.596 285.455Z" fill="#539E43"/>
</svg>
