<svg width="450" height="450" viewBox="0 0 450 450" fill="none" xmlns="http://www.w3.org/2000/svg">
<path d="M93.9629 96.9631H357.094V352.905H93.9629V96.9631Z" fill="url(#paint0_radial)"/>
<path d="M93.9631 96.9631H357.094V352.905H93.9631V96.9631ZM82 364.868H369V85H82V364.868ZM275.538 199.858C266.106 199.858 262.885 204.631 262.885 208.6C262.885 212.913 265.013 215.904 277.724 222.461C296.474 231.548 302.34 240.291 302.34 253.059C302.34 272.211 287.731 282.507 268.004 282.507C257.593 282.507 248.621 280.379 243.502 277.388C242.639 277.043 242.524 276.41 242.524 275.49V257.833C242.524 256.625 243.1 256.28 243.962 256.855C251.497 261.744 260.124 263.929 268.004 263.929C277.436 263.929 281.405 259.961 281.405 254.612C281.405 250.298 278.644 246.502 266.566 240.233C249.599 232.123 242.524 223.899 242.524 210.095C242.524 194.681 254.603 181.855 275.538 181.855C285.833 181.855 293.023 183.408 296.934 185.191C297.911 185.766 298.141 186.744 298.141 187.607V203.999C298.141 204.976 297.566 205.552 296.359 205.206C291.067 201.871 283.303 199.858 275.538 199.858ZM172.701 214.064C175.462 214.294 177.59 214.294 182.364 214.294C196.34 214.294 209.511 209.405 209.511 190.368C209.511 175.184 200.078 167.534 184.147 167.534C179.373 167.534 174.829 167.764 172.644 167.879L172.701 214.064ZM151.363 150.567C151.363 149.704 153.031 149.129 154.009 149.129C161.658 148.784 173.046 148.554 184.837 148.554C217.966 148.554 230.906 166.729 230.906 189.907C230.906 220.275 208.878 233.331 181.846 233.331C177.302 233.331 175.749 233.101 172.529 233.101V278.998C172.529 279.976 172.184 280.436 171.091 280.436H152.801C151.823 280.436 151.363 280.091 151.363 278.998V150.567Z" fill="#31C5F0"/>
<defs>
<radialGradient id="paint0_radial" cx="0" cy="0" r="1" gradientUnits="userSpaceOnUse" gradientTransform="translate(180.688 154.386) scale(199.95 193.588)">
<stop stop-color="#34364E" stop-opacity="0.98"/>
<stop offset="1" stop-color="#0C0824"/>
</radialGradient>
</defs>
</svg>
