<svg width="450" height="450" viewBox="0 0 450 450" fill="none" xmlns="http://www.w3.org/2000/svg">
<path d="M225.5 299.842C307.514 299.842 374 266.299 374 224.921C374 183.543 307.514 150 225.5 150C143.486 150 77 183.543 77 224.921C77 266.299 143.486 299.842 225.5 299.842Z" fill="#6C70A3"/>
<path d="M195.5 233.448C193.605 236.605 191.395 238.974 188.948 241.342C184.211 246 178.684 249.079 172.211 250.658C167.395 251.763 162.579 252 157.684 252.079C154.053 252.158 150.342 252.158 146.711 252.079C145.763 252.079 145.369 252.395 145.211 253.263C144.579 256.816 143.869 260.369 143.158 263.842C142.684 266.29 142.29 268.658 141.658 271.105C141.263 272.842 140.079 273.632 138.342 273.632C132.421 273.632 126.579 273.632 120.658 273.632C118.605 273.632 117.184 271.737 117.579 269.684C119 262.263 120.421 254.763 121.842 247.342C123.263 240 124.763 232.579 126.184 225.237C127.369 219 128.553 212.684 129.737 206.447C130.842 200.526 132.027 194.684 133.211 188.763C133.527 187.105 134.711 185.842 136.763 185.842C148.369 185.842 160.053 185.763 171.658 185.921C177.105 186 182.553 186.79 187.527 189.237C193.684 192.237 198.027 196.816 200 203.526C200.237 204.316 200.316 205.184 200.869 206.211C201.579 202.579 202.211 199.184 202.921 195.79C203.948 190.5 204.974 185.29 206 180C206.79 175.895 207.579 171.869 208.369 167.763C208.763 165.553 210.027 164.448 212.158 164.448C217.763 164.448 223.369 164.448 228.974 164.448C231.658 164.448 233 166.263 232.448 168.948C231.421 174.237 230.395 179.526 229.369 184.816C229.29 185.132 229.211 185.526 229.132 186C233 186 236.79 186 240.579 186C245.474 186.079 250.369 186.395 255.105 187.737C260.632 189.316 265.132 192.237 267.263 198C267.737 199.342 268.053 200.763 268.527 202.263C268.763 201.158 269 200.132 269.237 199.026C269.869 195.553 270.579 192.079 271.211 188.605C271.527 187.026 272.869 186.079 274.763 186.079C282.105 186.079 289.448 186.079 296.79 186.079C300.5 186.079 304.211 186.079 307.921 186.079C314 186.158 320 186.79 325.605 189.474C331.211 192.158 335.237 196.342 337.448 202.184C338.869 206.053 339.421 210 339.105 214.105C338.553 222.711 336.105 230.684 330.579 237.474C325.763 243.395 319.921 247.895 312.5 250.184C308.79 251.29 305 251.921 301.053 252.158C295.527 252.474 289.921 252.316 284.395 252.316C283.448 252.316 283.132 252.711 282.974 253.579C282.027 258.553 281 263.447 280.053 268.421C279.895 269.369 279.737 270.316 279.5 271.263C279.105 272.842 278 273.869 276.342 273.869C270.421 273.869 264.5 273.869 258.5 273.869C256.448 273.869 254.79 271.421 255.342 269.448C256.448 265.105 257.158 260.605 257.948 256.184C258.184 254.842 258.658 253.421 258.658 251.921C257.553 252.316 256.527 252.316 255.5 252.316C250.29 252.316 245 252.316 239.79 252.316C236.869 252.316 235.369 250.342 235.921 247.5C236.869 242.921 237.737 238.263 238.605 233.684C239.632 228.553 240.737 223.5 241.684 218.369C242.316 215.053 243.263 211.737 243.105 208.263C243.027 207.237 242.711 206.763 241.842 206.447C240.5 205.974 239 205.895 237.579 205.895C233.869 205.816 230.079 205.895 226.29 205.816C225.5 205.816 225.105 205.974 224.948 206.842C224.237 210.711 223.448 214.579 222.737 218.448C221.948 222.711 221.079 226.895 220.211 231.158C219.263 236.132 218.237 241.026 217.29 246C217.053 247.184 216.816 248.29 216.579 249.474C216.184 251.29 214.921 252.395 213.184 252.395C207.421 252.395 201.737 252.474 195.974 252.395C193.369 252.395 192.027 250.342 192.579 247.579C193.527 243.158 194.395 238.737 195.263 234.316C195.658 233.921 195.579 233.842 195.5 233.448ZM238.921 202.342C239.711 202.184 240.5 202.5 241.29 202.579C244.053 202.816 246.184 204.553 246.658 206.684C247.053 208.658 246.816 210.553 246.5 212.526C245.79 216.474 244.921 220.421 244.132 224.29C243.184 229.263 242.237 234.237 241.29 239.29C240.658 242.369 240.105 245.526 239.474 248.684C245.474 248.684 251.237 248.684 257.079 248.684C257.158 248.763 257.237 248.763 257.237 248.605C257.316 248.132 257.474 247.737 257.553 247.342C258.027 244.658 258.579 242.053 259.053 239.369C259.842 234.869 260.869 230.369 261.737 225.869C262.605 221.448 263.316 217.026 264.342 212.605C265.132 208.895 265.605 205.184 264.974 201.395C264.342 197.448 262.29 194.526 258.816 192.553C254.395 190.105 249.579 189.553 244.684 189.316C243.5 189.237 242.316 189.474 241.132 189.158C235.921 188.921 230.711 189 225.5 189.079C225.421 189 225.342 188.842 225.421 188.763C226.132 185.211 226.842 181.658 227.474 178.105C228.184 174.632 228.816 171.158 229.527 167.526C223.842 167.526 218.237 167.526 212.711 167.526C212.079 167.526 211.842 167.684 211.763 168.395C211.527 170.29 211.053 172.184 210.737 174.079C209.869 178.5 209 182.842 208.132 187.263C207.421 190.974 206.711 194.684 206 198.474C205.527 201.079 204.895 203.605 204.421 206.211C203.632 210.395 202.763 214.579 201.974 218.842C201.105 223.263 200.316 227.684 199.448 232.105C198.737 235.737 198.027 239.369 197.316 243C196.921 244.895 196.605 246.79 196.29 248.605C196.29 248.763 196.369 248.763 196.448 248.684C202.132 248.684 207.895 248.684 213.579 248.684C213.658 248.763 213.737 248.763 213.737 248.605C214.369 245.684 214.921 242.763 215.553 239.842C216.5 234.948 217.369 230.132 218.316 225.237C219.342 219.869 220.448 214.5 221.553 209.211C222.027 206.921 222.263 204.553 222.974 202.263C228.184 202.342 233.553 202.342 238.921 202.342ZM259.053 270.158C259.211 270.474 259.527 270.395 259.842 270.395C265.132 270.395 270.5 270.395 275.79 270.395C276.027 270.395 276.342 270.474 276.579 270.158C277.527 265.579 278.395 261 279.342 256.342C279.816 253.816 280.369 251.29 280.842 248.763C280.921 248.684 280.921 248.684 281 248.605C281.237 248.605 281.474 248.605 281.711 248.526C288.895 248.369 296.079 248.842 303.263 248.211C306.737 247.895 310.132 247.263 313.369 246C321.421 243 327.184 237.474 331.369 230.053C333.816 225.79 335 221.211 335.632 216.316C336.105 212.132 336.105 207.948 334.842 203.921C332.948 198.158 329.158 194.132 323.553 191.684C319.527 189.869 315.263 189.237 310.921 189C310.448 188.684 309.895 188.842 309.342 188.842C297.895 188.842 286.448 188.842 275 188.842C274.842 188.842 274.684 188.921 274.527 188.921C274.211 190.895 273.816 192.79 273.421 194.684C272.237 200.605 271.053 206.526 270.027 212.448C268.921 218.369 267.737 224.29 266.553 230.211C265.605 235.184 264.579 240.079 263.632 245.053C262.605 250.5 261.5 255.948 260.474 261.395C260.079 264.474 259.29 267.237 259.053 270.158ZM136.605 189.158C136.527 189.632 136.369 190.184 136.29 190.658C135.5 194.763 134.79 198.869 134 203.053C133.053 207.79 131.948 212.526 131.158 217.342C130.605 220.737 129.816 224.053 129.184 227.448C128.711 230.053 128.079 232.579 127.684 235.184C127.211 238.579 126.342 241.816 125.79 245.211C125.316 247.816 124.605 250.421 124.211 253.026C123.658 256.737 122.711 260.448 122.079 264.237C121.763 266.211 121.132 268.184 120.974 270.237C121.211 270.711 121.605 270.474 122 270.474C127.211 270.474 132.342 270.474 137.553 270.474C137.869 270.474 138.184 270.632 138.5 270.316C138.816 270.158 138.737 269.921 138.816 269.684C139.369 266.842 139.921 264.079 140.474 261.237C141.263 257.132 142.053 253.026 142.842 248.921C142.921 248.842 142.921 248.842 143 248.763C148.053 248.763 153.105 248.763 158.158 248.763C158.237 248.921 158.316 248.842 158.316 248.763C161.237 248.684 164.079 248.684 167 248.29C171.421 247.737 175.605 246.632 179.474 244.5C184.684 241.658 188.948 237.711 192.105 232.737C197.079 225 199.132 216.474 197.711 207.237C196.684 200.526 193.053 195.632 187.053 192.474C182.79 190.184 178.053 189.474 173.316 189.158C172.763 188.842 172.132 189 171.5 189C160.132 189 148.763 189 137.395 189C137.079 189 136.842 188.921 136.605 189.158Z" fill="#FEFEFF"/>
<path d="M121.052 270.158C121.21 268.105 121.842 266.21 122.158 264.158C122.789 260.447 123.658 256.737 124.289 252.947C124.684 250.342 125.394 247.737 125.868 245.131C126.421 241.816 127.289 238.5 127.763 235.105C128.158 232.5 128.789 229.974 129.263 227.368C129.894 223.974 130.605 220.658 131.236 217.263C132.026 212.447 133.131 207.71 134.079 202.974C134.868 198.868 135.658 194.763 136.368 190.579C136.447 190.105 136.605 189.553 136.684 189.079C137.158 189.079 137.552 189.158 138.026 189.158C145.526 189.158 153.105 189.158 160.605 189.158C164.868 189.158 169.052 189.158 173.315 189.158C178.131 189.395 182.789 190.184 187.052 192.474C192.973 195.631 196.684 200.447 197.71 207.237C199.131 216.474 197.079 224.921 192.105 232.737C188.947 237.71 184.684 241.658 179.473 244.5C175.605 246.631 171.421 247.658 167 248.289C164.079 248.684 161.236 248.684 158.394 248.763C158.315 248.684 158.236 248.684 158.236 248.763C153.184 248.763 148.131 248.763 143.079 248.763C142.921 248.684 142.842 248.763 142.921 248.921C142.131 253.026 141.342 257.131 140.552 261.237C140 264.079 139.447 266.842 138.894 269.684C138.815 269.921 138.894 270.158 138.579 270.316C137.947 270.316 137.315 270.316 136.763 270.316C131.394 270.158 126.184 270.158 121.052 270.158ZM152.079 201.947C151.921 201.868 151.842 201.947 151.921 202.105C151.763 202.737 151.605 203.447 151.447 204.079C150.5 208.816 149.473 213.474 148.684 218.21C147.894 222.474 147.026 226.737 146.236 230.921C145.921 232.5 145.21 234.079 145.526 235.737C149.236 235.895 152.947 235.974 156.658 235.737C159.342 235.737 161.947 235.579 164.552 234.947C168.579 234 172.21 232.342 174.658 228.868C178.368 223.579 179.71 217.5 179.473 211.184C179.315 207.237 177.263 204.395 173.394 203.132C170.789 202.263 168.184 201.868 165.421 201.947C165.026 201.632 164.631 201.789 164.236 201.789C160.21 201.947 156.184 201.947 152.079 201.947Z" fill="#030304"/>
<path d="M280.842 248.842C280.369 251.368 279.816 253.895 279.342 256.421C278.395 261 277.526 265.579 276.579 270.237C270.737 270.237 264.895 270.237 259.053 270.237C259.29 267.316 260.079 264.474 260.632 261.632C261.658 256.184 262.684 250.737 263.79 245.29C264.737 240.316 265.763 235.421 266.711 230.447C267.895 224.526 269.079 218.605 270.184 212.684C271.29 206.763 272.474 200.842 273.579 194.921C273.974 193.026 274.369 191.053 274.684 189.158C275.158 189.158 275.553 189.237 276.026 189.237C284 189.237 291.974 189.237 299.947 189.237C303.658 189.237 307.369 189.237 311.079 189.237C315.421 189.553 319.684 190.105 323.711 191.921C329.237 194.368 333.105 198.395 335 204.158C336.342 208.184 336.263 212.368 335.79 216.553C335.237 221.368 333.974 226.026 331.526 230.29C327.342 237.632 321.5 243.158 313.526 246.237C310.29 247.5 306.895 248.132 303.421 248.447C296.237 249 289.053 248.605 281.869 248.763C281.632 248.763 281.395 248.763 281.158 248.842C280.842 248.605 280.763 248.684 280.842 248.842ZM289.921 202.105C289.053 204.868 288.737 207.711 288.184 210.474C287.158 215.368 286.29 220.342 285.342 225.316C284.711 228.79 283.842 232.263 283.369 235.816C287.079 236.053 290.79 236.053 294.5 235.816C294.737 235.816 294.974 235.816 295.211 235.816V235.895V235.816C297.974 235.895 300.737 235.5 303.421 234.79C308.474 233.526 312.342 230.684 314.553 225.947C316.763 221.132 317.869 216 317.395 210.632C317.158 207.632 315.105 204.632 312.263 203.605C309.421 202.579 306.5 202.026 303.421 202.105C302.947 201.79 302.474 201.947 302 201.947C298.053 201.947 294.026 201.947 290.079 201.947C290 201.868 289.921 201.947 289.921 202.105Z" fill="#030304"/>
<path d="M241.052 189.158C242.237 189.474 243.421 189.237 244.605 189.316C249.5 189.632 254.395 190.184 258.737 192.553C262.21 194.447 264.263 197.447 264.895 201.395C265.447 205.184 265.052 208.895 264.263 212.605C263.316 217.026 262.526 221.447 261.658 225.868C260.789 230.368 259.763 234.868 258.973 239.368C258.5 242.053 257.868 244.658 257.473 247.342C257.395 247.816 257.158 248.21 257.158 248.605C257.079 248.605 257 248.605 257 248.684C251.237 248.684 245.395 248.684 239.395 248.684C240.026 245.447 240.658 242.368 241.21 239.289C242.158 234.316 243.105 229.342 244.052 224.289C244.842 220.342 245.631 216.474 246.421 212.526C246.816 210.632 246.973 208.658 246.579 206.684C246.184 204.632 244.052 202.895 241.21 202.579C240.421 202.5 239.631 202.184 238.842 202.342C238.447 202.263 238.052 202.184 237.658 202.184C232.921 202.184 228.105 202.184 223.368 202.184C223.131 202.184 222.973 202.105 222.816 202.342C222.105 204.632 221.868 206.921 221.395 209.289C220.289 214.658 219.184 219.947 218.158 225.316C217.21 230.21 216.342 235.026 215.395 239.921C214.842 242.842 214.21 245.763 213.579 248.684C213.5 248.684 213.421 248.684 213.421 248.763C207.737 248.763 201.973 248.763 196.289 248.763C196.21 248.684 196.21 248.684 196.131 248.684C196.447 246.789 196.763 244.895 197.158 243.079C197.868 239.447 198.579 235.816 199.289 232.184C200.158 227.763 200.947 223.342 201.816 218.921C202.605 214.737 203.473 210.553 204.263 206.289C204.737 203.684 205.289 201.158 205.842 198.553C206.552 194.842 207.263 191.132 207.973 187.342C208.842 182.921 209.71 178.579 210.579 174.158C210.973 172.263 211.368 170.368 211.605 168.474C211.684 167.763 211.921 167.605 212.552 167.605C218.079 167.605 223.684 167.605 229.368 167.605C228.658 171.158 228.026 174.632 227.316 178.184C226.605 181.737 225.895 185.289 225.263 188.842C225.263 188.921 225.342 189.079 225.342 189.158C230.631 189.316 235.842 189.237 241.052 189.158Z" fill="#030304"/>
<path d="M173.237 189.237C168.974 189.237 164.79 189.237 160.527 189.237C153.027 189.237 145.448 189.237 137.948 189.237C137.474 189.237 137.079 189.237 136.605 189.158C136.842 188.921 137.079 189 137.316 189C148.684 189 160.053 189 171.421 189C172.053 189.079 172.684 188.921 173.237 189.237Z" fill="#6C70A3"/>
<path d="M311.079 189.237C307.368 189.237 303.658 189.237 299.947 189.237C291.974 189.237 284 189.237 276.026 189.237C275.553 189.237 275.158 189.158 274.684 189.158C274.842 189.158 275 189.079 275.158 189.079C286.605 189.079 298.053 189.079 309.5 189.079C309.974 189.079 310.526 188.921 311.079 189.237Z" fill="#6C70A3"/>
<path d="M121.052 270.158C126.263 270.158 131.473 270.158 136.684 270.158C137.315 270.158 137.947 270.158 138.5 270.158C138.263 270.474 137.868 270.316 137.552 270.316C132.342 270.316 127.21 270.316 122 270.316C121.684 270.395 121.21 270.553 121.052 270.158Z" fill="#ADB1D4"/>
<path d="M259.053 270.158C264.895 270.158 270.737 270.158 276.579 270.158C276.421 270.474 276.105 270.395 275.79 270.395C270.5 270.395 265.132 270.395 259.842 270.395C259.526 270.395 259.211 270.474 259.053 270.158Z" fill="#ADB1D4"/>
<path d="M222.895 202.342C223.052 202.105 223.21 202.184 223.447 202.184C228.184 202.184 233 202.184 237.737 202.184C238.131 202.184 238.526 202.263 238.921 202.342C233.552 202.342 228.184 202.342 222.895 202.342Z" fill="#ADB1D4"/>
<path d="M241.052 189.158C235.842 189.237 230.631 189.316 225.421 189.079C230.631 189 235.842 188.921 241.052 189.158Z" fill="#6C70A3"/>
<path d="M142.763 248.842C142.763 248.684 142.763 248.605 142.921 248.684C142.921 248.763 142.842 248.763 142.763 248.842Z" fill="#ADB1D4"/>
<path d="M158.079 248.684C158.158 248.605 158.158 248.605 158.237 248.684C158.237 248.763 158.158 248.842 158.079 248.684Z" fill="#ADB1D4"/>
<path d="M196.21 248.605C196.289 248.605 196.368 248.605 196.368 248.684C196.289 248.842 196.21 248.763 196.21 248.605Z" fill="#ADB1D4"/>
<path d="M213.5 248.684C213.579 248.605 213.579 248.605 213.658 248.605C213.658 248.763 213.579 248.842 213.5 248.684Z" fill="#ADB1D4"/>
<path d="M257 248.684C257.079 248.605 257.079 248.605 257.158 248.605C257.158 248.763 257.158 248.842 257 248.684Z" fill="#ADB1D4"/>
<path d="M280.842 248.842C280.842 248.684 280.842 248.605 281 248.684C280.921 248.763 280.842 248.763 280.842 248.842Z" fill="#ADB1D4"/>
<path d="M165.421 202.105C168.184 202.026 170.79 202.421 173.395 203.29C177.263 204.553 179.316 207.316 179.474 211.342C179.711 217.737 178.447 223.816 174.658 229.026C172.211 232.421 168.579 234.158 164.553 235.105C161.947 235.737 159.342 235.895 156.658 235.895C152.947 235.816 149.237 235.737 145.526 235.895C145.211 234.237 145.921 232.658 146.237 231.079C147.026 226.816 147.895 222.553 148.684 218.369C149.553 213.632 150.579 208.974 151.447 204.237C151.605 203.526 151.763 202.895 151.921 202.263C152 202.184 152.079 202.184 152.079 202.105C156.105 202.105 160.211 202.105 164.237 202.105C164.632 202.263 165.026 202.105 165.421 202.105ZM155.237 232.579C157.684 232.658 160.763 232.5 163.763 231.868C167.474 231.079 170.711 229.579 172.763 226.184C175.447 221.842 176.474 216.947 176.395 211.895C176.316 208.421 174.974 207 171.579 206.132C170.711 205.895 169.921 205.737 169.053 205.658C164.711 205.105 160.29 205.5 155.947 205.342C155 205.342 154.684 205.658 154.526 206.526C152.868 214.895 151.211 223.342 149.553 231.711C149.395 232.342 149.553 232.658 150.263 232.579C151.684 232.5 153.184 232.579 155.237 232.579Z" fill="#FEFEFF"/>
<path d="M145.526 235.816C149.237 235.658 152.947 235.737 156.658 235.816C153.026 236.053 149.237 236.053 145.526 235.816Z" fill="#6C70A3"/>
<path d="M165.421 202.105C165.026 202.105 164.632 202.263 164.237 201.947C164.711 201.947 165.105 201.711 165.421 202.105Z" fill="#ADB1D4"/>
<path d="M152.079 201.947C152 202.026 151.921 202.026 151.921 202.105C151.921 201.947 151.921 201.868 152.079 201.947Z" fill="#ADB1D4"/>
<path d="M303.5 202.105C306.5 202.026 309.5 202.579 312.342 203.605C315.184 204.632 317.237 207.632 317.473 210.632C317.947 216 316.763 221.132 314.631 225.947C312.421 230.763 308.552 233.605 303.5 234.79C300.816 235.421 298.052 235.895 295.289 235.816H295.21C294.973 235.816 294.737 235.816 294.5 235.816C290.789 235.816 287.079 235.816 283.368 235.816C283.763 232.263 284.631 228.79 285.342 225.316C286.289 220.342 287.158 215.447 288.184 210.474C288.737 207.711 289.052 204.79 289.921 202.105C290 202.026 290.079 202.026 290.079 201.948C294.026 201.948 298.052 201.948 302 201.948C302.473 202.263 303.026 202.105 303.5 202.105ZM292.605 232.579C294.894 232.658 297.658 232.5 300.342 232.105C305 231.395 309.026 229.579 311.316 225.079C313.605 220.579 314.473 215.842 314.158 210.869C314 208.895 312.973 207.474 311.158 206.684C309.894 206.132 308.473 205.816 307.131 205.658C302.552 205.105 297.973 205.5 293.394 205.342C292.605 205.342 292.526 205.816 292.447 206.369C292.052 208.421 291.658 210.474 291.263 212.526C290 218.921 288.816 225.316 287.552 231.632C287.394 232.342 287.552 232.579 288.263 232.579C289.605 232.5 290.868 232.579 292.605 232.579Z" fill="#FEFEFF"/>
<path d="M283.368 235.816C287.079 235.816 290.789 235.816 294.5 235.816C290.789 236.053 287.079 236.053 283.368 235.816Z" fill="#6C70A3"/>
<path d="M303.5 202.105C303.026 202.105 302.553 202.263 302.079 201.947C302.553 201.868 303.026 201.789 303.5 202.105Z" fill="#ADB1D4"/>
<path d="M290.158 201.947C290.079 202.026 290 202.026 290 202.105C289.921 201.947 290 201.868 290.158 201.947Z" fill="#ADB1D4"/>
<path d="M155.237 232.579C153.184 232.579 151.684 232.579 150.184 232.579C149.473 232.579 149.316 232.263 149.473 231.711C151.131 223.342 152.789 214.974 154.447 206.526C154.605 205.658 154.921 205.263 155.868 205.342C160.21 205.5 164.631 205.105 168.973 205.658C169.842 205.737 170.71 205.974 171.5 206.132C174.894 207 176.237 208.5 176.316 211.895C176.394 216.947 175.368 221.842 172.684 226.184C170.631 229.5 167.394 231.079 163.684 231.868C160.684 232.5 157.684 232.579 155.237 232.579Z" fill="#777CB4"/>
<path d="M292.605 232.579C290.868 232.579 289.526 232.579 288.263 232.579C287.474 232.579 287.395 232.342 287.553 231.632C288.816 225.237 290.079 218.921 291.263 212.526C291.658 210.474 292.053 208.421 292.447 206.369C292.526 205.895 292.605 205.342 293.395 205.342C297.974 205.5 302.553 205.105 307.132 205.658C308.553 205.816 309.895 206.132 311.158 206.684C313.053 207.474 314 208.895 314.158 210.869C314.474 215.842 313.605 220.579 311.316 225.079C309.026 229.579 305.079 231.395 300.342 232.105C297.658 232.5 294.895 232.579 292.605 232.579Z" fill="#777CB4"/>
</svg>
