<svg width="450" height="450" viewBox="0 0 450 450" fill="none" xmlns="http://www.w3.org/2000/svg">
<path d="M133.948 205.579C120.073 224.313 107.659 241.222 93.4184 260.443C82.5861 220.785 88.0631 185.507 109.241 154.243C146.119 99.8664 213.913 83.9304 272.699 102.299C278.541 104.124 284.627 108.747 287.913 113.734C310.917 149.256 332.703 185.629 356.193 220.907C366.052 235.748 361.305 249.251 356.924 267.742C347.795 254.239 340.006 243.533 332.946 232.342C317.124 207.161 301.667 181.736 285.844 156.555C278.785 145.241 270.63 144.998 262.841 155.46C254.929 165.922 246.775 176.262 238.498 186.967C252.495 208.985 266.249 230.639 280.124 252.171C293.999 273.824 307.874 295.356 321.749 317.009C284.262 354.72 214.521 365.425 163.889 340.609C152.57 335.013 141.738 328.444 131.758 320.78C128.836 318.469 127.498 309.589 129.567 306.304C138.208 292.071 149.041 279.298 157.56 265.065C160.481 260.078 161.455 251.197 159.021 246.331C152.205 232.585 142.955 219.812 133.948 205.579ZM260.893 263.849C259.92 262.389 258.946 261.173 258.216 259.956C236.064 224.556 214.156 189.035 191.518 153.878C189.327 150.472 180.077 146.944 179.225 148.039C168.271 160.569 158.047 173.95 148.067 187.453C147.337 188.427 149.893 191.954 151.231 194.022C171.192 225.408 191.153 256.915 211.478 288.179C226.327 310.927 229.248 311.048 244.706 289.395C250.426 281.123 255.416 272.364 260.893 263.849Z" fill="#E30B17"/>
</svg>
