<svg width="450" height="450" viewBox="0 0 450 450" fill="none" xmlns="http://www.w3.org/2000/svg">
<path d="M365.254 254.157C363.559 249.024 359.119 245.449 353.377 244.591C350.669 244.186 347.569 244.359 343.899 245.115C337.504 246.435 332.759 246.937 329.296 247.034C342.367 224.967 352.995 199.802 359.113 176.113C369.007 137.809 363.72 120.359 357.542 112.467C341.192 91.5749 317.338 80.3517 288.56 80.0083C273.208 79.8206 259.731 82.8517 252.701 85.0314C246.155 83.8764 239.117 83.2315 231.732 83.1122C217.888 82.8914 205.657 85.9092 195.206 92.1115C189.42 90.1549 180.133 87.3966 169.409 85.6365C144.187 81.4957 123.858 84.7222 108.989 95.2265C90.9838 107.945 82.6371 130.042 84.1808 160.905C84.6711 170.704 90.1524 200.517 98.7829 228.792C103.743 245.043 109.032 258.539 114.503 268.907C122.263 283.61 130.565 292.268 139.886 295.378C145.11 297.118 154.602 298.337 164.585 290.022C165.85 291.555 167.539 293.077 169.779 294.492C172.625 296.286 176.104 297.753 179.579 298.622C192.102 301.752 203.832 300.969 213.839 296.581C213.901 298.361 213.948 300.062 213.988 301.53C214.054 303.912 214.121 306.247 214.208 308.431C214.801 323.199 215.806 334.682 218.783 342.716C218.946 343.158 219.166 343.831 219.398 344.546C220.883 349.093 223.366 356.705 229.685 362.667C236.227 368.843 244.141 370.736 251.389 370.736C255.024 370.736 258.492 370.259 261.534 369.608C272.378 367.284 284.693 363.743 293.602 351.058C302.025 339.067 306.119 321.005 306.86 292.546C306.956 291.741 307.044 290.973 307.129 290.241L307.306 288.737L309.29 288.911L309.801 288.946C320.846 289.449 334.35 287.107 342.644 283.254C349.197 280.213 370.198 269.126 365.254 254.157" fill="black"/>
<path d="M346.369 257.068C313.53 263.842 311.272 252.724 311.272 252.724C345.944 201.276 360.439 135.97 347.932 119.986C313.807 76.3865 254.738 97.0065 253.752 97.5409L253.435 97.5983C246.947 96.2512 239.686 95.4495 231.525 95.3159C216.667 95.073 205.395 99.2116 196.842 105.698C196.842 105.698 91.4674 62.2868 96.369 160.294C97.4113 181.144 126.253 318.056 160.654 276.702C173.227 261.58 185.377 248.794 185.377 248.794C191.41 252.803 198.634 254.848 206.207 254.113L206.795 253.614C206.612 255.491 206.696 257.328 207.031 259.502C198.168 269.403 200.773 271.141 183.057 274.788C165.13 278.483 175.661 285.06 182.537 286.78C190.873 288.864 210.157 291.816 223.186 273.576L222.667 275.657C226.139 278.439 228.577 293.748 228.168 307.626C227.76 321.504 227.487 331.032 230.222 338.475C232.96 345.917 235.686 362.662 258.976 357.672C278.435 353.502 288.52 342.695 289.923 324.668C290.918 311.852 293.172 313.747 293.313 302.289L295.121 296.865C297.205 279.492 295.452 273.887 307.441 276.494L310.356 276.751C319.178 277.151 330.728 275.331 337.507 272.18C352.102 265.407 360.759 254.097 346.367 257.068H346.369" fill="#336791"/>
<path d="M203.01 169.618C200.051 169.206 197.371 169.587 196.015 170.614C195.253 171.192 195.017 171.861 194.953 172.321C194.783 173.541 195.637 174.891 196.163 175.586C197.649 177.556 199.82 178.91 201.969 179.208C202.28 179.252 202.59 179.272 202.899 179.272C206.482 179.272 209.74 176.482 210.027 174.423C210.386 171.843 206.642 170.124 203.01 169.619V169.618ZM301.046 169.7C300.763 167.678 297.166 167.102 293.752 167.576C290.342 168.051 287.036 169.591 287.312 171.617C287.533 173.192 290.378 175.882 293.746 175.882C294.031 175.882 294.318 175.864 294.607 175.823C296.856 175.511 298.505 174.084 299.289 173.261C300.482 172.007 301.173 170.609 301.046 169.7" fill="white"/>
<path d="M357.297 256.298C356.045 252.512 352.014 251.294 345.319 252.676C325.437 256.78 318.317 253.937 315.98 252.216C331.433 228.674 344.146 200.217 351.004 173.666C354.253 161.089 356.047 149.409 356.194 139.888C356.356 129.439 354.576 121.76 350.906 117.07C336.107 98.1602 314.387 88.0169 288.096 87.7387C270.022 87.5355 254.75 92.161 251.79 93.4618C245.556 91.9115 238.759 90.9596 231.36 90.8382C217.791 90.6184 206.062 93.867 196.352 100.489C192.134 98.9188 181.233 95.1766 167.902 93.0289C144.855 89.3188 126.541 92.1301 113.471 101.389C97.8765 112.438 90.6771 132.187 92.0717 160.089C92.541 169.475 97.8898 198.353 106.33 226.008C117.441 262.407 129.519 283.012 142.226 287.251C143.713 287.747 145.428 288.094 147.32 288.094C151.955 288.094 157.638 286.005 163.552 278.896C170.764 270.244 178.224 261.802 185.924 253.581C190.919 256.262 196.407 257.759 202.02 257.909C202.031 258.056 202.045 258.203 202.059 258.349C201.092 259.501 200.146 260.67 199.221 261.855C195.332 266.792 194.522 267.82 182.004 270.397C178.443 271.132 168.985 273.081 168.846 279.711C168.696 286.954 180.026 289.996 181.317 290.319C185.816 291.445 190.15 292.001 194.283 292.001C204.334 292.001 213.18 288.697 220.249 282.305C220.032 308.128 221.108 333.573 224.209 341.326C226.749 347.673 232.952 363.183 252.547 363.182C255.423 363.182 258.587 362.848 262.069 362.101C282.52 357.718 291.401 348.679 294.836 328.751C296.675 318.101 299.83 292.67 301.314 279.028C304.445 280.006 308.477 280.453 312.835 280.452C321.925 280.452 332.414 278.52 338.991 275.467C346.381 272.035 359.715 263.615 357.297 256.298V256.298ZM308.595 164.119C308.527 168.146 307.973 171.802 307.386 175.618C306.753 179.723 306.099 183.966 305.935 189.117C305.772 194.13 306.399 199.342 307.004 204.383C308.227 214.564 309.483 225.045 304.623 235.387C303.816 233.956 303.097 232.478 302.47 230.96C301.866 229.496 300.554 227.144 298.738 223.889C291.672 211.217 275.125 181.542 283.596 169.434C286.119 165.829 292.522 162.124 308.595 164.119V164.119ZM289.112 95.8932C312.669 96.4133 331.304 105.226 344.497 122.085C354.616 135.016 343.473 193.856 311.216 244.618C310.892 244.205 310.566 243.794 310.238 243.385L309.829 242.874C318.165 229.108 316.535 215.488 315.084 203.412C314.488 198.457 313.925 193.776 314.068 189.379C314.216 184.719 314.832 180.722 315.429 176.857C316.161 172.095 316.906 167.167 316.701 161.357C316.854 160.748 316.916 160.028 316.836 159.173C316.311 153.602 309.951 136.93 296.987 121.84C289.896 113.586 279.555 104.349 265.436 98.1193C271.509 96.8605 279.814 95.6868 289.112 95.8932V95.8932ZM157.294 273.693C150.779 281.526 146.281 280.024 144.801 279.532C135.161 276.316 123.976 255.942 114.114 223.632C105.581 195.676 100.594 167.564 100.199 159.681C98.9531 134.75 104.996 117.376 118.162 108.038C139.588 92.8445 174.814 101.939 188.969 106.551C188.766 106.752 188.554 106.94 188.353 107.144C165.125 130.602 165.676 170.68 165.733 173.13C165.731 174.076 165.811 175.414 165.919 177.255C166.319 183.996 167.063 196.542 165.075 210.75C163.229 223.953 167.299 236.875 176.24 246.205C177.158 247.16 178.122 248.07 179.13 248.93C175.15 253.192 166.501 262.618 157.294 273.693V273.693ZM182.115 240.574C174.909 233.055 171.637 222.596 173.135 211.876C175.233 196.868 174.459 183.796 174.043 176.773C173.984 175.79 173.932 174.929 173.902 174.25C177.296 171.241 193.021 162.816 204.235 165.385C209.352 166.557 212.47 170.042 213.767 176.036C220.476 207.067 214.654 220.001 209.977 230.395C209.013 232.536 208.102 234.56 207.325 236.653L206.722 238.272C205.196 242.364 203.776 246.169 202.896 249.782C195.235 249.76 187.782 246.487 182.115 240.573V240.574ZM183.291 282.424C181.054 281.865 179.042 280.894 177.862 280.09C178.848 279.626 180.603 278.994 183.646 278.367C198.373 275.336 200.647 273.196 205.614 266.89C206.753 265.443 208.043 263.805 209.831 261.808L209.833 261.806C212.496 258.825 213.713 259.33 215.922 260.247C217.712 260.987 219.455 263.23 220.162 265.699C220.497 266.866 220.872 269.078 219.643 270.801C209.268 285.328 194.149 285.141 183.291 282.424V282.424ZM260.364 354.144C242.348 358.005 235.969 348.812 231.765 338.303C229.052 331.519 227.718 300.926 228.664 267.14C228.677 266.691 228.613 266.257 228.489 265.849C228.378 265.042 228.21 264.244 227.985 263.461C226.579 258.545 223.15 254.433 219.037 252.728C217.403 252.051 214.404 250.809 210.799 251.731C211.568 248.564 212.901 244.988 214.346 241.115L214.952 239.487C215.635 237.65 216.492 235.748 217.397 233.734C222.292 222.86 228.996 207.965 221.72 174.316C218.995 161.713 209.894 155.558 196.098 156.988C187.828 157.844 180.26 161.181 176.486 163.094C175.675 163.505 174.933 163.903 174.239 164.289C175.293 151.591 179.272 127.859 194.159 112.844C203.533 103.392 216.016 98.7233 231.225 98.9751C261.193 99.4654 280.411 114.845 291.257 127.661C300.603 138.705 305.663 149.829 307.683 155.83C292.494 154.285 282.164 157.283 276.928 164.769C265.536 181.054 283.16 212.661 291.631 227.852C293.184 230.635 294.525 233.041 294.947 234.064C297.705 240.749 301.276 245.212 303.883 248.469C304.683 249.468 305.458 250.436 306.047 251.282C301.447 252.608 293.184 255.672 293.938 270.989C293.33 278.674 289.012 314.656 286.818 327.368C283.921 344.163 277.741 350.419 260.364 354.145V354.144ZM335.565 268.087C330.861 270.27 322.989 271.907 315.512 272.26C307.252 272.646 303.047 271.334 302.058 270.527C301.594 260.982 305.146 259.985 308.906 258.93C309.497 258.764 310.073 258.602 310.63 258.407C310.975 258.689 311.354 258.968 311.769 259.242C318.408 263.624 330.248 264.096 346.965 260.646L347.148 260.609C344.893 262.717 341.035 265.546 335.565 268.087Z" fill="white"/>
</svg>
