<svg width="450" height="450" viewBox="0 0 450 450" fill="none" xmlns="http://www.w3.org/2000/svg">
<path d="M352.902 218.097C352.816 214.813 352.643 211.443 352.47 208.159C352.297 204.788 352.211 201.418 351.865 198.048C351.26 193.467 350.655 188.801 349.618 184.307C348.84 180.591 347.544 177.048 346.248 173.505C344.606 169.356 342.964 165.122 340.89 161.147C337.519 154.752 333.112 149.048 329.05 143.085C326.371 139.282 322.915 136.171 320.322 132.283C318.853 130.036 316.692 128.134 314.532 126.406C311.075 123.641 307.445 121.134 303.816 118.715C301.05 116.813 298.285 114.999 295.347 113.357C293.013 112.06 290.507 111.023 288.087 109.9C285.322 108.603 282.643 107.048 279.532 106.443C278.754 106.27 278.063 106.011 277.285 105.752C275.297 105.06 273.396 104.283 271.408 103.678C268.384 102.727 265.446 101.603 262.334 100.826C259.31 100.048 256.199 99.5293 253.088 99.0973C249.631 98.5793 246.088 98.4063 242.631 98.0603C240.384 97.8013 238.137 97.5423 235.976 97.4553C232.693 97.2833 229.322 97.2833 226.038 97.1963C224.396 97.1103 222.668 96.9373 221.026 97.0233C218.52 97.1103 216.014 97.3693 213.507 97.7153C211.088 97.9743 208.668 98.4063 206.334 98.7523C203.483 99.0973 200.631 99.2703 197.779 99.6163C195.1 99.9623 192.335 100.48 189.656 100.912C188.705 101.085 187.754 101.431 186.804 101.603C184.73 102.036 182.569 102.209 180.495 102.9C176.779 104.023 173.063 105.32 169.433 106.702C166.063 108.085 162.779 109.554 159.582 111.283C156.298 113.097 153.187 115.258 150.075 117.332C147.137 119.319 144.199 121.394 141.347 123.641C138.582 125.801 135.989 128.221 133.483 130.641C132.1 132.023 130.977 133.665 129.68 135.221C127.52 137.727 125.359 140.147 123.285 142.739C121.557 144.9 120.001 147.147 118.36 149.394C115.421 153.369 112.915 157.603 110.582 161.838C109.631 163.566 108.767 165.295 107.903 167.023C106.606 169.616 105.224 172.122 104.014 174.801C103.15 176.616 102.458 178.603 101.94 180.591C100.73 184.825 99.5196 189.146 98.3966 193.381C97.3596 197.183 97.0996 201.159 97.0136 205.048C96.9266 208.504 97.2726 211.875 97.6186 215.332C97.7046 216.196 97.1866 217.233 98.2236 217.924C98.3096 217.924 98.2236 218.27 98.1366 218.356C97.8776 218.875 98.1366 219.393 98.6556 219.566C98.6556 219.566 98.7416 219.653 98.7416 219.739H98.3096C98.0506 220.517 98.9146 221.122 98.5686 221.986C98.4826 222.159 98.8286 222.504 99.0006 222.764C99.0006 223.023 98.9146 223.369 99.0006 223.628C99.0876 224.406 99.4336 225.183 99.4336 226.048C99.4336 226.653 99.9516 227.344 100.125 227.949C100.211 228.208 100.125 228.64 99.9516 228.813C99.4336 229.418 99.5196 229.937 100.298 230.282C100.471 230.369 100.73 230.714 100.73 230.887C100.73 231.406 100.557 231.924 100.471 232.443C100.643 232.616 100.73 232.788 100.643 232.961C100.643 233.22 100.384 233.48 100.471 233.653C101.162 235.035 101.421 236.591 101.508 238.146C101.508 238.492 101.681 238.838 101.853 239.27C101.94 239.27 102.199 239.27 102.372 239.356L101.853 240.912C102.285 240.652 102.631 240.566 103.063 240.393C103.322 241.517 103.582 242.554 103.927 243.504C104.014 243.677 104.187 243.85 104.446 244.023C104.359 244.196 104.359 244.541 104.187 244.628C104.532 246.183 104.705 247.653 105.31 249.122C105.397 249.122 105.483 249.035 105.569 249.035C105.31 247.48 105.137 245.838 104.878 244.282V243.764C104.878 243.764 105.051 243.677 105.137 243.677C105.224 244.023 105.397 244.455 105.397 244.714C106.088 244.714 107.125 245.146 107.816 245.146C107.903 244.887 107.989 244.541 108.076 244.369C107.557 243.85 107.125 243.072 106.606 242.554C106.779 243.245 106.606 243.504 106.606 243.764C106.261 243.591 105.829 243.418 105.397 243.245C105.742 242.813 106.088 242.381 106.606 241.862C106.606 241.085 106.174 240.393 104.964 240.48C105.483 240.307 106.002 240.048 106.606 239.875C106.693 240.134 106.779 240.393 106.866 240.566C107.557 239.356 106.52 238.406 106.52 237.196C106.606 235.727 105.742 234.258 105.483 232.702C105.051 230.282 105.137 226.653 104.878 224.233C104.878 224.06 104.619 223.887 104.446 223.714C104.359 223.801 103.927 224.924 103.841 225.011C104.1 227.085 104.359 229.159 104.532 231.233C104.446 231.233 104.359 231.233 104.359 231.319C104.014 229.504 103.668 227.603 103.236 225.529C103.15 226.134 103.063 226.393 103.063 226.739C102.804 226.653 102.718 226.566 102.285 226.393C102.631 227.171 102.977 227.69 103.236 228.295C102.631 228.035 101.94 228.122 101.94 228.122V230.541C101.076 229.677 100.816 228.986 100.384 228.381C100.211 227.69 100.125 226.998 99.9516 226.307L100.211 226.22C100.125 225.875 99.9516 225.615 99.9516 225.356C99.8656 224.751 99.7786 224.06 99.6926 223.282C99.7786 223.196 100.125 223.109 100.298 222.937L99.6056 221.9C100.298 221.986 100.73 222.072 101.162 222.072C101.162 221.9 101.248 221.813 101.162 221.727C100.298 220.949 100.903 220.257 101.248 219.566C101.421 219.22 102.026 219.134 102.199 218.788C102.89 217.492 104.014 216.455 104.014 214.813C104.014 214.035 104.273 213.171 104.359 212.393C104.532 210.924 104.705 209.455 104.792 207.986C104.964 206.085 104.792 204.183 105.224 202.369C105.915 199.344 106.779 196.319 107.73 193.295C108.421 191.134 109.199 189.06 110.063 186.9C111.36 183.529 112.569 180.159 114.211 176.961C116.545 172.295 119.224 167.801 121.816 163.221C123.458 160.369 125.187 157.69 127.001 154.924C128.73 152.245 130.458 149.48 132.446 146.974C135.211 143.431 138.236 140.147 141.606 137.208C145.063 134.097 148.347 130.9 152.063 128.048C156.903 124.332 162.001 121.048 167.446 118.196C171.853 115.863 176.433 114.048 181.014 112.319C183.952 111.196 187.149 110.678 190.174 109.727C193.631 108.603 197.088 108.085 200.717 107.998C203.051 107.912 205.298 107.653 207.631 107.394C209.705 107.221 211.779 107.048 214.026 106.789C213.767 107.134 213.68 107.307 213.594 107.48C212.643 108.863 211.606 110.245 210.656 111.628C209.878 112.752 209.014 113.961 208.236 115.085C206.853 116.9 205.384 118.715 204.088 120.616C202.1 123.468 200.285 126.406 198.211 129.258C196.137 132.023 193.89 134.616 191.73 137.295C188.878 141.011 186.199 144.813 183.347 148.529C180.754 152.073 177.989 155.443 175.483 158.986C173.236 162.097 171.248 165.381 169.088 168.579C165.89 173.332 162.693 177.998 159.495 182.751C156.989 186.381 154.483 189.924 151.89 193.554C151.717 193.813 151.458 193.9 151.199 194.072C151.026 194.245 150.68 194.418 150.68 194.591C150.508 195.196 150.508 195.801 150.248 196.319C149.557 197.616 148.866 198.912 148.088 200.122C147.656 200.813 147.051 201.418 146.532 202.109C146.359 202.023 146.273 201.937 146.1 201.937C146.446 201.072 147.915 200.554 147.224 199.258C146.792 199.949 146.359 200.554 145.927 201.245L144.89 203.319C145.236 203.579 145.841 203.751 145.236 204.27C144.977 204.702 144.717 205.22 144.458 205.653C144.545 205.653 144.545 205.739 144.631 205.739C144.89 205.393 145.15 205.134 145.409 204.788C145.495 204.788 145.582 204.875 145.668 204.875C145.409 205.739 144.89 206.517 144.458 207.295C144.112 207.986 143.248 208.504 142.643 209.023C142.73 209.109 143.335 209.369 143.421 209.455C143.68 209.109 143.767 209.282 144.026 208.937C144.199 209.196 144.458 208.764 144.545 209.023C144.804 208.677 145.063 208.418 145.15 208.159C145.495 207.295 146.014 206.603 146.878 206.258C147.224 206.085 147.483 205.825 147.742 205.566C150.335 202.887 153.014 200.295 155.347 197.443C158.977 193.035 162.261 188.455 165.717 183.961C167.187 182.06 168.915 180.159 170.47 178.344C170.643 178.431 170.816 178.431 170.903 178.517C170.73 180.332 170.557 182.233 170.47 184.048C170.211 187.245 170.038 190.443 169.779 193.727C169.693 195.023 169.779 196.319 169.693 197.616C169.693 197.961 169.433 198.22 169.433 198.566C169.433 199.43 169.693 200.381 169.693 201.245C169.433 204.443 169.088 207.554 168.828 210.751C168.742 211.443 169.088 212.134 169.261 212.739C169.174 212.653 169.088 212.566 168.828 212.393C168.828 217.406 169.779 222.332 169.001 227.258C169.347 227.171 169.52 227.085 169.52 226.912C169.606 226.307 169.779 225.702 169.779 225.097C169.866 224.579 169.779 224.06 169.779 223.455V222.591C169.866 221.035 170.211 219.393 170.038 217.838C169.866 216.109 169.866 214.467 170.211 212.825C170.384 212.134 170.125 211.27 170.557 210.406V211.702C170.47 216.628 170.643 221.554 169.952 226.48C169.866 226.912 170.211 227.69 169.261 227.603C169.174 227.603 169.088 228.035 168.915 228.295C168.483 229.159 169.433 230.282 168.569 231.146C168.396 231.319 168.742 232.097 168.828 232.616C168.828 232.788 168.915 232.961 168.828 233.048C168.483 233.653 168.483 233.653 169.001 233.739C169.088 235.64 169.261 237.369 169.347 239.183H169.606C170.73 235.899 170.038 232.529 170.643 229.159C170.73 230.541 170.816 231.924 170.73 233.393C170.73 235.64 170.643 237.801 170.557 240.048C170.557 240.48 170.47 240.912 170.384 241.344C170.125 242.554 170.038 243.764 169.606 244.887C169.261 245.751 169.433 247.048 169.433 248.085V251.368C169.433 251.455 169.693 251.714 169.693 252.06C169.779 252.838 169.347 253.616 169.606 254.48C169.693 254.653 169.52 254.912 169.433 255.085C169.347 255.344 169.261 255.603 169.347 255.862L169.606 257.159C169.606 257.245 169.693 257.332 169.779 257.504C169.866 257.159 169.866 256.899 169.866 256.813C171.335 256.986 170.557 258.282 171.248 258.974C170.903 259.146 170.643 259.233 170.643 259.319C170.73 259.665 170.903 259.924 170.903 260.27C170.903 261.047 170.816 261.739 170.73 262.517C170.73 264.504 170.643 266.492 170.643 268.393C170.643 268.652 170.73 268.912 170.73 269.171C170.73 269.344 170.643 269.517 170.643 269.776V271.591H170.989C170.816 271.85 170.643 272.109 170.384 272.368C170.298 272.368 170.038 272.368 170.038 272.282V261.393H168.742C168.569 266.578 169.001 271.245 168.051 276.084C167.014 276.171 166.668 276.344 165.545 276.344C162.866 276.344 160.187 276.344 157.508 276.43C154.31 276.43 151.199 276.517 148.001 276.517C146.446 276.517 144.804 276.689 143.248 276.689C141.174 276.689 139.014 276.43 136.94 276.43C133.742 276.43 130.631 276.689 127.434 276.776C125.1 276.862 122.767 276.862 120.434 276.949C118.878 277.035 117.322 277.122 115.767 277.294C115.076 277.381 114.471 277.64 113.606 277.899C113.347 277.899 112.742 277.813 112.224 277.899C111.36 278.072 110.582 278.591 109.718 278.763C108.421 279.023 108.076 279.368 108.248 280.665V281.529C108.076 281.356 107.816 281.183 107.643 281.097C107.557 281.097 107.471 281.183 107.471 281.183C107.557 281.442 107.73 281.615 107.816 281.875C108.162 281.702 108.594 281.27 108.94 281.27H110.15C109.977 281.27 109.89 281.788 109.631 282.22C110.322 281.961 110.755 281.788 111.187 281.615C111.273 281.875 111.273 282.22 111.273 282.307C112.483 282.22 113.606 281.875 114.643 282.134C118.014 282.998 121.471 283.344 124.927 283.689C127.174 283.862 129.335 283.949 131.582 284.035C134.779 284.208 137.977 284.381 141.174 284.381C143.853 284.381 146.446 284.122 149.125 284.122C152.841 284.122 156.557 284.294 160.273 284.381C161.051 284.381 161.915 284.294 162.779 284.294H169.088C174.705 284.122 180.322 284.035 185.94 283.862C189.137 283.776 192.421 283.603 195.619 283.517L205.47 283.257C209.273 283.171 213.075 283.171 216.791 283.084C219.643 283.084 222.409 282.998 225.26 282.912C228.458 282.825 231.742 282.566 234.939 282.393C236.668 282.307 238.396 282.134 240.125 281.961C242.199 281.788 244.359 281.529 246.433 281.442C249.544 281.27 252.742 281.183 255.853 281.01C259.742 280.751 263.631 280.405 267.606 280.319C271.236 280.146 274.952 280.233 278.581 280.146C281.779 280.06 284.976 279.887 288.26 279.801L293.705 279.541C293.705 279.541 297.334 279.455 299.149 279.282C302.26 279.109 305.371 278.763 308.482 278.677C310.47 278.591 312.458 278.677 314.445 278.591C317.643 278.504 320.927 278.331 324.124 278.331C325.334 278.331 326.631 278.504 328.186 278.591C327.495 279.196 327.063 279.541 326.544 279.973C326.89 280.06 327.235 280.233 327.581 280.405C327.581 280.492 327.495 280.578 327.495 280.751C327.063 280.751 326.631 280.838 326.198 280.838C326.026 281.27 325.853 281.442 325.68 282.307H327.235C326.631 282.307 326.112 283.084 325.507 283.603C325.594 283.689 325.68 283.689 325.766 283.776C324.816 283.43 324.211 283.603 323.865 284.554C324.124 284.64 324.297 284.64 324.556 284.64C324.47 284.899 324.384 285.159 324.297 285.504C324.211 285.677 324.124 285.85 324.124 286.109L323.865 285.85C323.865 285.677 323.865 285.504 323.779 285.331C323.26 285.85 322.482 286.196 322.914 287.319C322.569 287.492 322.137 287.665 321.705 287.924C321.791 288.097 321.964 288.27 322.05 288.529C321.273 288.615 320.495 288.788 320.668 289.739C321.013 289.825 321.359 289.998 321.618 290.084C321.186 290.257 320.754 290.516 320.322 290.689C320.235 290.862 320.149 291.294 319.976 291.381C318.766 291.64 319.458 292.072 319.803 292.504C319.544 292.677 319.285 292.85 319.026 292.936C319.285 293.023 319.458 293.109 319.631 293.282C319.371 293.455 319.198 293.541 319.026 293.628C319.198 293.714 319.458 293.887 319.544 293.887C319.198 294.146 318.766 294.492 318.248 294.924C318.248 295.097 318.248 295.183 318.334 295.356C317.989 295.702 317.643 296.047 317.297 296.566C316.952 297.084 316.779 297.776 316.347 298.294C314.532 300.282 313.235 302.615 310.902 304.171C310.038 304.776 309.26 305.553 308.482 306.331C306.927 307.8 305.544 309.442 303.902 310.825C301.742 312.64 299.495 314.282 297.161 315.924C294.31 317.911 291.458 319.899 288.606 321.8C287.05 322.837 285.322 323.615 283.68 324.566C282.038 325.516 280.483 326.381 278.84 327.331C277.803 328.023 276.853 328.973 275.729 329.492C272.877 330.702 269.853 331.739 266.915 332.862C266.655 332.948 266.483 333.035 266.223 333.121C264.063 334.072 261.989 335.109 259.828 335.887C257.84 336.578 255.767 337.097 253.692 337.529C253.001 337.702 252.223 337.529 251.446 337.615C249.976 337.874 248.507 338.22 247.038 338.393C243.236 338.912 239.433 339.257 235.631 339.776C233.384 340.035 231.223 340.467 228.976 340.726C227.421 340.813 225.779 340.64 224.223 340.64C223.1 340.64 221.89 340.899 220.766 340.726C218.952 340.467 217.137 340.035 215.322 339.689C214.89 339.603 214.285 339.43 213.939 339.603C213.248 339.948 212.643 339.43 211.952 339.603C211.52 339.689 211.088 339.344 210.655 339.344C210.31 339.257 209.878 339.43 209.446 339.344C208.495 339.084 207.631 338.739 206.594 338.825C205.557 338.912 204.52 338.393 203.396 338.134C201.841 337.788 200.372 337.442 198.816 337.097C198.211 336.924 197.693 336.665 197.088 336.319C196.915 336.405 196.655 336.578 196.31 336.578C194.841 336.319 193.372 336.233 191.989 335.714C190.779 335.282 189.656 334.677 188.359 334.85C188.014 334.936 187.754 334.763 187.409 334.763C187.149 334.418 186.89 333.726 186.631 333.726C184.902 333.813 183.865 332.344 182.396 331.912C181.618 331.652 181.014 330.788 180.236 330.529C178.335 329.751 176.779 328.109 174.619 327.85C173.927 327.763 173.236 327.418 172.458 327.158C172.717 327.504 172.89 327.763 173.149 328.023L172.976 328.195C170.643 326.813 168.31 325.43 165.977 324.134C165.631 324.047 165.372 323.702 165.112 323.529L162.779 321.973C162.52 321.8 162.001 321.541 162.001 321.627C161.483 322.233 160.964 321.714 160.619 321.541C158.285 319.899 155.606 318.862 153.359 317.047C152.409 316.27 151.285 315.751 150.594 314.8C149.384 313.331 147.915 312.294 146.273 311.43C144.977 310.739 143.767 309.961 142.557 309.183C141.952 308.751 141.347 308.233 141.347 307.282C141.347 306.677 141.088 306.072 140.31 306.418C139.964 305.899 139.619 305.294 139.187 305.121C138.15 304.689 137.458 303.912 136.68 303.22C135.903 302.529 135.298 301.578 134.347 301.233C132.619 300.541 131.582 299.072 130.545 297.862C128.125 295.01 125.964 291.899 123.717 288.874C123.545 288.615 123.199 288.442 122.94 288.183L122.853 288.27C123.285 289.134 123.717 289.912 124.15 290.776C124.063 290.862 123.89 290.949 123.804 291.035C123.285 290.43 122.68 289.825 122.162 289.22C122.075 289.307 121.989 289.393 121.903 289.393L128.125 299.245C128.643 300.023 129.075 300.8 129.594 301.578C129.508 301.665 129.421 301.751 129.248 301.837C128.298 301.665 127.434 300.973 127.001 300.195C126.224 298.813 125.359 297.949 123.631 298.121C123.458 297.516 123.285 296.825 123.199 296.22C122.853 296.22 122.594 296.22 121.989 296.134C123.199 298.035 124.236 299.677 125.359 301.578C124.927 301.319 124.668 301.146 124.495 301.06C126.051 302.702 127.174 304.776 129.162 305.813C129.594 307.8 131.841 308.751 132.359 310.652C131.927 310.566 131.582 310.479 131.15 310.393C130.458 309.529 129.68 308.665 128.903 307.714C129.075 308.319 129.335 308.837 129.68 309.27C130.717 310.566 131.668 311.862 132.878 312.986C133.31 313.418 133.915 313.591 133.915 314.368C134.088 314.195 134.261 314.109 134.606 313.936C134.433 314.282 134.347 314.455 134.261 314.714C134.606 314.714 134.866 314.8 135.125 314.8C135.298 315.319 135.038 316.097 136.075 315.924C136.162 315.924 136.248 316.01 136.335 316.097C136.767 317.22 137.458 317.22 138.409 316.788C138.582 316.702 139.014 316.788 139.1 316.961C139.532 317.911 140.137 317.998 140.915 317.307C140.915 317.739 141.001 318.171 141.001 318.516H141.347C141.347 318.344 141.261 318.084 141.261 317.652C141.693 317.998 141.952 318.171 142.125 318.344C142.989 319.553 143.767 320.677 144.977 321.627C146.619 323.01 148.088 324.479 149.643 325.776C152.668 328.282 156.038 330.356 159.409 332.257C163.557 334.59 167.532 337.097 171.767 339.343C176.865 342.023 182.31 343.837 187.927 345.134C190.001 345.566 191.989 345.998 194.063 346.516C195.878 347.035 197.693 347.813 199.507 348.245C202.273 348.85 205.125 349.368 207.89 349.887C208.495 349.973 209.1 350.06 209.791 350.146V350.319C210.569 350.319 211.52 349.973 211.693 350.232C212.125 350.924 212.47 350.578 212.989 350.492C213.594 350.319 214.285 350.319 214.976 350.319C217.396 350.405 219.729 350.924 222.149 350.751C222.668 350.751 223.446 350.319 223.878 351.183C224.051 351.096 224.137 351.01 224.31 350.924C224.655 350.837 225.088 350.837 225.433 350.751V350.924C225.26 351.01 225.088 351.01 224.742 351.097C225.174 351.183 225.433 351.269 225.693 351.356C225.52 351.529 225.433 351.529 225.26 351.615C225.088 351.701 224.828 351.788 224.483 352.047C227.594 352.652 230.532 352.739 233.125 352.047V351.529H233.47C233.47 351.701 233.557 351.874 233.643 352.047C237.618 352.393 241.507 351.874 245.223 350.578C245.569 351.01 245.828 351.615 246.347 350.751C246.52 350.492 246.952 350.405 247.297 350.319C248.075 350.146 249.026 349.8 249.717 350.06C250.495 350.319 250.754 349.627 251.359 349.627C252.396 349.627 253.347 349.541 254.297 349.368C254.816 349.282 255.334 349.022 255.939 348.85C255.939 348.763 255.939 348.677 255.853 348.59C255.248 348.504 254.557 348.418 254.038 348.418C255.075 347.899 256.026 347.467 256.976 347.035C256.976 347.121 257.063 347.121 257.063 347.208C256.803 347.294 256.631 347.64 256.285 347.64H257.495C257.236 347.64 256.89 348.418 256.458 348.936C259.569 348.158 262.421 347.467 265.186 346.776V346.603C264.841 346.689 264.581 346.689 264.322 346.776C264.236 344.961 266.223 345.566 266.915 344.529C266.05 344.788 265.186 345.047 264.322 345.22V345.047C267.26 343.751 270.285 342.455 273.223 341.158C273.223 341.245 273.31 341.245 273.31 341.331C272.791 341.677 272.273 341.936 271.495 342.368C272.013 342.455 272.359 342.455 272.618 342.541C272.618 342.8 272.618 342.973 272.532 343.06C274.001 342.973 273.655 341.677 274.087 340.899C274.347 340.985 274.692 341.158 274.952 341.072C275.729 340.899 276.421 340.64 277.198 340.381C278.063 340.121 278.927 339.862 279.791 339.516C281.174 338.911 282.47 338.134 283.853 337.442C284.112 337.356 284.544 337.442 284.89 337.442C285.149 337.442 285.322 337.269 285.495 337.097C285.84 336.837 286.186 336.319 286.445 336.405C287.655 336.578 288.519 336.146 288.865 335.023C288.952 335.023 288.952 334.936 289.038 334.936C289.47 334.591 289.902 334.245 290.334 333.985C292.236 332.948 294.05 331.912 295.952 330.874C296.038 330.788 296.211 330.874 296.384 330.874C296.643 330.874 296.989 330.874 297.161 330.788C298.285 330.269 299.322 329.665 300.359 329.06C300.1 328.973 300.359 328.887 299.495 328.8V328.627C300.359 328.455 300.618 328.368 301.137 328.195L300.964 328.023C303.211 325.776 306.063 324.134 308.223 322.233C308.655 322.319 308.828 322.405 309.087 322.405C309.174 322.146 309.174 321.887 309.174 321.714C309.519 321.282 309.865 320.763 310.297 320.418C312.198 318.689 314.273 317.22 316.001 315.405C318.507 312.899 320.927 310.307 323.174 307.628C325.248 305.208 327.322 302.788 329.05 300.109C331.47 296.393 333.544 292.591 335.704 288.702C337.26 285.936 338.643 283.171 340.198 280.405C340.371 280.146 340.717 279.801 340.976 279.801C343.309 279.541 345.643 279.368 347.89 279.109C348.408 279.023 349.013 278.677 349.532 278.418C349.272 277.986 349.099 277.467 348.84 277.035C348.495 276.516 347.976 276.084 347.63 275.566C347.285 275.134 347.026 274.615 346.766 274.097C346.507 273.665 346.248 273.319 345.988 272.887C345.47 271.936 344.951 270.986 344.519 269.949C344.433 269.689 344.26 269.257 344.346 268.998C345.902 265.628 346.507 261.998 347.976 258.628C349.445 255.171 349.877 251.282 350.569 247.566C351.174 244.023 351.519 240.48 351.951 236.936C352.211 234.43 352.556 232.01 352.643 229.504C353.161 225.529 352.988 221.813 352.902 218.097ZM135.643 314.541C135.039 313.85 134.52 313.072 133.915 312.381L134.174 312.121C135.125 313.159 136.076 314.195 137.026 315.319C136.508 315.06 135.903 314.887 135.643 314.541ZM137.026 315.319C137.285 315.233 137.545 315.233 137.804 315.146C138.063 315.578 138.236 316.097 138.495 316.615C137.285 316.529 136.68 316.01 137.026 315.319ZM226.902 351.01V350.751C228.544 350.578 230.1 350.405 231.742 350.233V350.492C230.1 350.751 228.544 350.924 226.902 351.01ZM248.68 348.763C247.47 349.023 246.174 349.195 244.964 349.368C244.532 349.455 244.014 349.887 243.841 349.109C243.668 349.195 243.495 349.195 243.322 349.282C243.754 350.578 244.791 349.541 245.655 350.06C243.754 350.319 241.939 350.492 240.125 350.751V350.578C240.643 350.492 241.248 350.405 241.767 350.319V350.06C240.902 349.973 240.038 349.887 239.174 349.887C238.915 349.887 238.569 350.233 238.31 350.319C237.964 350.405 237.618 350.492 237.186 350.492C235.717 350.578 234.248 350.578 232.865 350.665C232.779 350.665 232.606 350.578 232.52 350.578V350.319C238.31 349.541 244.014 348.763 249.804 347.986C249.89 348.158 249.89 348.331 249.976 348.504C249.458 348.504 249.112 348.677 248.68 348.763ZM249.976 347.899C251.964 347.64 253.779 347.467 255.68 347.208C251.705 348.331 250.409 348.504 249.976 347.899ZM174.705 173.418C177.471 169.616 180.322 165.813 183.088 161.924C183.952 160.801 184.643 159.591 185.508 158.468C185.767 158.122 186.112 157.949 186.545 157.603L186.458 157.431C186.804 156.998 187.149 156.653 187.322 156.307C187.754 155.616 188.014 154.838 188.359 154.06C188.446 153.887 188.705 153.715 188.705 153.715C189.915 154.319 189.915 153.023 190.347 152.591C191.125 151.727 191.903 150.776 192.594 149.912C193.112 149.221 193.631 148.616 194.063 147.838C194.149 147.579 193.89 147.147 193.804 146.801H193.545C193.804 146.628 194.063 146.369 194.322 146.196C194.409 146.196 194.409 146.196 194.495 146.11C195.014 145.332 195.532 144.554 196.051 143.863C197.088 142.48 198.211 141.097 199.421 139.887C199.248 140.319 199.075 140.752 198.903 141.097C198.989 141.097 198.989 141.184 199.075 141.184C200.112 139.801 201.236 138.505 202.273 137.122C202.186 137.036 202.1 136.949 202.014 136.949C201.582 137.381 201.236 137.813 200.804 138.245C200.717 138.159 200.631 138.073 200.544 138.073C201.409 136.949 202.273 135.826 203.137 134.529C203.31 134.789 203.483 135.134 203.828 135.826C204.174 134.961 204.52 134.356 204.779 133.752C204.52 134.011 204.174 134.27 203.915 134.529L203.655 134.27L205.211 131.937C206.853 129.603 208.495 127.184 210.137 124.85C210.742 123.986 211.52 123.295 212.038 122.431C213.68 119.147 216.273 116.554 218.26 113.529C218.693 112.925 219.297 112.406 219.816 111.887C220.248 111.369 220.594 111.542 220.94 111.974C223.273 114.912 225.606 117.937 227.939 120.875C229.668 123.036 231.396 125.11 233.038 127.356C235.026 130.122 236.927 132.887 238.915 135.653C241.162 138.85 243.409 142.048 245.569 145.332C248.853 150.171 251.964 155.011 255.248 159.85C257.668 163.394 260.088 166.85 262.421 170.394H258.013C253.952 170.307 249.804 169.961 245.742 170.134C240.211 170.394 234.594 170.998 229.063 171.43C222.063 172.035 214.976 172.122 207.977 172.122C205.47 172.122 202.964 172.467 200.458 172.64C197.433 172.813 194.495 172.986 191.47 173.073C187.927 173.245 184.47 173.332 180.927 173.418C178.94 173.505 176.865 173.418 174.705 173.418ZM273.828 213.171V213.949C273.742 213.949 273.655 214.035 273.482 214.035C273.137 212.825 272.791 211.529 272.359 210.319C271.495 207.813 270.544 205.307 268.989 203.06C267.26 200.64 265.705 198.134 263.976 195.628C263.544 195.023 262.939 194.504 262.421 193.986C260.606 191.998 258.791 189.924 256.458 188.455C253.001 186.295 249.458 184.48 245.655 182.924C244.618 182.492 243.668 181.974 242.631 181.369H244.705L259.483 181.11C262.68 181.023 265.791 181.023 268.989 180.85C269.767 180.85 270.199 181.11 270.631 181.801C271.409 183.097 272.186 184.393 273.05 185.69C273.137 185.862 273.31 186.122 273.31 186.381C273.31 188.282 273.31 190.27 273.396 192.171C273.483 194.159 273.655 196.06 273.742 198.048C273.742 200.035 273.569 202.109 273.655 204.183C273.742 207.122 273.828 210.146 273.828 213.171ZM180.841 184.221C184.903 184.048 188.791 183.788 192.767 183.616C195.878 183.443 199.075 183.356 202.186 183.184C203.483 183.097 204.693 183.011 205.989 183.184C204.606 183.875 203.224 184.566 202.014 185.431C200.458 186.467 198.989 187.85 197.433 188.974C195.878 190.097 194.495 191.48 193.199 192.949C191.557 194.937 189.742 196.665 188.014 198.566C186.804 199.949 185.421 201.245 184.384 202.714C182.915 204.616 181.619 206.69 180.236 208.85C180.668 200.64 181.187 192.517 180.841 184.221ZM237.273 267.356C234.507 268.047 231.656 268.825 228.804 269.171C226.384 269.517 223.878 269.43 221.372 269.43C219.125 269.43 216.964 269.344 214.717 269.171C212.211 268.912 209.705 268.652 207.285 267.529C205.211 266.578 203.051 265.714 200.977 264.677C198.903 263.64 196.828 262.43 195.273 260.529C194.149 259.146 192.594 258.023 191.211 256.813C191.47 257.85 192.075 258.714 193.026 259.319C192.594 259.838 191.989 259.578 191.125 258.196C190.866 258.368 190.606 258.455 190.433 258.541C190.693 257.936 190.952 257.332 191.211 256.813C190.866 256.122 190.433 255.344 190.088 254.653C189.396 253.529 188.705 252.319 188.1 251.196C187.927 250.936 187.927 250.677 187.754 250.418C187.322 249.899 186.89 249.381 186.545 248.862C185.853 247.825 185.248 246.702 184.384 245.665C184.384 245.924 184.47 246.183 184.47 246.529C184.384 246.529 184.298 246.615 184.298 246.615L182.483 242.208C182.396 242.208 182.396 242.208 182.31 242.295L183.866 247.998C183.779 247.998 183.693 248.085 183.606 248.085C183.347 247.739 183.088 247.393 182.915 246.961C182.742 246.27 182.224 246.27 181.791 246.529C181.532 246.702 181.359 247.307 181.446 247.566C182.051 249.035 182.742 250.504 183.433 251.974C183.606 252.492 183.779 252.924 184.038 253.443C184.125 253.616 184.384 253.788 184.384 254.048C184.73 254.739 184.989 255.43 185.421 256.035C186.199 257.072 187.063 258.109 187.841 259.146C188.619 260.183 189.31 261.307 190.001 262.344C190.088 262.517 190.347 262.517 190.433 262.603C190.866 263.899 192.335 264.85 193.372 264.332C193.631 266.319 195.791 267.011 196.656 268.912C195.619 268.48 194.841 268.134 194.149 267.788C194.063 267.875 194.063 267.961 193.977 268.134C195.014 268.652 196.051 269.171 197.001 269.776C197.865 270.294 198.73 270.813 199.507 271.418C200.545 272.368 201.754 272.887 203.224 273.233C203.137 272.973 203.051 272.887 203.051 272.887C205.47 274.011 207.977 275.22 209.878 276.171C200.89 276.344 191.298 276.517 181.359 276.689C181.359 275.047 181.273 273.492 181.273 271.85C181.273 271.159 181.446 270.554 181.359 269.862C181.1 265.887 181.1 261.912 180.582 258.023C180.063 253.875 180.063 249.813 180.15 245.665C180.236 243.418 180.063 241.085 179.977 238.838C179.977 235.813 179.977 232.875 180.063 229.85C180.063 229.418 180.236 229.072 180.409 228.64H180.668C180.754 228.813 180.668 229.072 180.841 229.159C181.1 229.418 181.532 229.85 181.705 229.764C182.224 229.418 183.001 229.072 183.174 228.554C183.606 227.517 183.779 226.393 183.779 225.356C183.779 224.579 184.125 224.06 184.47 223.541C184.643 223.282 184.73 223.023 184.903 222.677C184.557 222.418 184.211 222.245 183.779 221.9C184.125 220.949 184.038 219.825 185.335 219.307C185.508 219.22 185.508 218.788 185.594 218.529C185.68 217.838 185.767 217.06 185.853 216.369C186.026 216.628 186.112 216.714 186.285 216.887C186.372 216.714 186.458 216.628 186.458 216.628C186.458 216.282 186.372 215.591 186.458 215.591C187.495 215.418 187.063 214.295 187.582 213.776C187.668 213.69 187.495 213.43 187.495 213.258C187.495 213.085 187.495 212.825 187.582 212.825C188.791 212.566 188.619 211.27 189.396 210.665C189.656 210.492 189.742 210.233 190.088 209.801C190.779 211.011 189.569 211.616 189.483 212.48C190.952 211.616 191.384 209.542 190.52 208.937C190.866 208.677 191.211 208.332 191.47 207.986C192.421 206.949 193.458 205.998 194.322 204.961C194.927 204.183 195.273 203.233 195.878 202.455C196.224 202.023 196.915 201.677 197.433 201.418C198.989 200.554 200.458 199.603 201.409 198.134C201.582 197.961 201.841 197.788 202.1 197.616C202.359 197.443 202.878 197.443 202.964 197.183C203.051 197.011 202.791 196.579 202.618 196.319C202.964 196.146 203.31 195.801 204.001 195.455C203.742 195.974 203.656 196.319 203.483 196.665L203.915 197.097C204.693 196.492 205.903 195.801 206.68 195.282C206.68 195.196 206.248 194.85 206.248 194.85C205.73 195.11 204.952 195.542 204.174 195.887C204.347 195.628 204.347 195.455 204.433 195.369C205.643 194.591 206.853 193.813 208.149 193.208C211.174 191.825 214.199 190.443 217.223 189.146C217.742 188.887 218.433 189.06 219.038 189.06C219.297 189.06 219.47 189.06 219.73 188.974C221.112 188.542 222.495 188.11 223.878 187.764C224.483 187.591 225.174 187.505 225.779 187.505C228.372 187.591 230.964 187.591 233.557 187.764C234.68 187.85 235.717 188.11 236.754 188.455C238.051 188.887 239.433 189.492 240.643 190.097C242.112 190.875 243.495 191.739 244.878 192.69C247.384 194.332 249.717 196.146 252.223 197.616C254.643 199.085 256.544 201.072 258.1 203.319C260.001 205.998 262.162 208.418 263.026 211.702L264.322 217.406C264.581 218.443 265.186 219.48 264.927 220.69C264.495 222.85 264.149 225.097 263.804 227.258C263.631 228.122 263.458 228.986 263.544 229.85C263.717 232.529 262.68 234.862 261.643 237.282C261.297 238.06 260.779 238.838 260.347 239.702C260.433 239.788 260.952 240.048 261.038 240.048L261.816 238.492C261.902 238.492 261.902 238.492 261.989 238.579C261.557 239.788 261.211 241.085 260.779 242.295C259.742 244.974 258.705 247.739 257.409 250.332C256.717 251.801 255.507 253.011 254.643 254.393C253.779 255.603 253.088 256.899 252.223 258.023C251.446 258.974 250.668 259.924 249.631 260.616C247.297 262.344 244.878 264.072 242.372 265.455C240.816 266.406 239.001 266.924 237.273 267.356ZM191.211 262.776L191.125 262.862C190.952 262.776 190.693 262.689 190.52 262.517L188.446 259.406C188.273 259.146 188.187 258.887 188.273 258.541C189.223 260.01 190.174 261.393 191.211 262.776ZM244.964 274.615C248.853 272.973 252.051 270.64 254.989 267.961C255.421 267.529 255.853 267.097 256.372 266.751C260.001 264.504 262.68 261.393 265.1 257.936C267.865 253.961 269.68 249.467 271.927 245.233C272.1 244.887 272.273 244.541 272.446 244.282C272.273 254.134 273.396 263.813 274.692 273.578C264.927 273.924 254.989 274.27 244.964 274.615ZM332.594 272.023C332.507 272.196 332.334 272.368 332.248 272.541C332.161 272.368 332.161 272.109 332.075 271.764C331.556 273.146 330.433 272.455 329.655 272.455C324.989 272.541 320.236 272.541 315.569 272.541C311.075 272.541 306.495 272.541 302.001 272.628C300.532 272.628 298.976 272.973 297.507 273.06C293.964 273.233 290.421 273.319 286.878 273.405C286.618 273.405 286.359 272.973 285.927 272.628C285.841 272.801 285.668 273.06 285.408 273.405C285.322 273.233 285.149 273.06 284.976 272.801C284.89 273.06 284.803 273.319 284.717 273.492H284.458C284.285 272.282 283.939 271.159 283.939 269.949C283.939 267.356 284.198 264.764 284.285 262.171C284.371 260.961 284.285 259.838 284.285 258.714C284.631 258.974 284.89 259.146 285.236 259.406C285.408 259.06 285.581 258.801 285.754 258.541C285.754 258.541 285.581 258.455 285.408 258.282C285.581 258.196 285.754 258.023 285.754 257.937C285.841 257.677 286.013 257.418 286.013 257.245C286.013 256.64 285.841 256.122 285.754 255.603C285.841 255.603 285.927 255.603 286.013 255.517L286.532 258.109H286.791C286.446 257.504 287.569 256.986 286.618 256.294C286.532 256.208 286.705 255.689 286.705 255.43C286.446 254.912 286.273 254.393 286.013 253.702C286.1 253.616 286.359 253.529 286.618 253.443C286.273 253.27 286.013 253.097 285.754 253.01C286.618 252.233 286.618 251.801 285.841 250.936C286.013 250.85 286.186 250.85 286.186 250.764C286.186 249.986 286.186 249.208 286.013 248.43C285.841 247.566 286.273 246.529 284.976 246.011C285.063 246.27 285.149 246.443 285.322 246.702C285.322 246.702 285.063 246.788 284.803 246.961C283.68 245.924 284.371 244.541 284.112 242.986C284.717 243.159 285.149 243.332 285.581 243.504C285.408 242.9 284.976 242.208 284.717 241.43H284.371V235.727C284.371 235.813 284.976 235.813 285.322 235.899C285.322 235.813 285.408 235.727 285.408 235.64C285.149 235.294 284.803 234.949 284.458 234.517L284.631 234.344C283.939 233.48 284.285 232.27 284.285 232.011V225.961C285.149 226.825 283.853 227.949 285.149 228.467V227.603H285.063C284.976 226.307 284.976 225.011 284.89 223.714H284.717C284.631 223.887 284.631 223.974 284.544 224.146H284.371C284.544 217.319 284.717 210.492 284.89 203.492C285.754 204.616 286.705 205.653 287.31 206.776C289.297 210.406 291.89 213.517 294.31 216.801C296.384 219.653 298.285 222.764 300.186 225.702C302.519 229.245 304.766 232.788 307.1 236.332C308.828 239.011 310.643 241.69 312.458 244.282C314.1 246.615 315.828 248.862 317.557 251.109C319.026 253.097 320.581 255.085 322.05 257.072C323.779 259.492 325.507 261.912 327.236 264.245C328.1 265.455 329.05 266.665 330.001 267.875C330.519 268.566 331.297 269.085 331.816 269.517C331.729 269.517 331.643 269.517 331.47 269.43C331.729 269.776 331.902 270.035 332.075 270.208C333.026 270.726 333.112 271.245 332.594 272.023ZM337.001 250.418V249.813C337.001 249.986 337.087 250.245 337.001 250.418ZM339.939 212.307C339.853 212.307 339.334 211.788 339.248 211.702C339.161 211.961 339.248 212.22 339.075 212.566C338.989 212.307 338.384 212.393 338.384 212.134C338.297 213.344 338.902 214.554 338.816 215.764C339.075 215.591 340.112 215.504 340.371 215.245C340.458 215.332 340.63 215.418 340.717 215.418C338.989 216.714 339.421 218.011 340.198 219.48C340.371 219.825 340.89 220.517 340.371 221.208C340.198 221.381 340.458 221.9 340.544 222.332H340.803V222.504L340.026 222.764C339.853 222.504 338.816 221.986 338.816 221.554V225.961C339.68 226.22 339.68 227.43 340.026 228.035C340.198 227.776 340.285 227.603 340.371 227.344L340.458 227.43C340.371 227.949 340.285 228.467 340.112 228.986C339.939 229.764 339.766 230.455 339.68 231.233C339.68 231.319 339.853 231.492 339.853 231.578C338.902 233.739 339.421 236.159 339.075 238.406C338.816 240.048 339.075 241.776 338.902 243.504C338.729 244.974 338.384 246.529 338.038 247.998C337.952 248.257 337.779 248.344 337.347 248.517C337.519 247.48 337.433 246.788 337.26 245.838C337.174 245.838 336.05 245.233 335.964 245.233C335.964 246.443 336.655 248.085 336.915 249.467C336.655 249.381 335.618 248.776 335.532 248.776C335.359 249.813 335.359 251.196 335.273 252.319C335.186 253.183 334.408 253.961 334.322 254.912C334.322 255.43 334.927 255.776 334.84 256.64H335.532C335.532 254.912 336.31 253.356 336.31 251.541H336.569C336.655 251.714 336.915 251.887 336.828 251.974C336.655 252.924 336.31 253.961 336.396 254.912C336.396 255.43 336.828 255.949 336.655 256.554C336.482 257.072 336.396 257.591 336.31 258.368C336.223 257.936 336.137 257.764 336.137 257.504C336.05 257.504 335.273 257.418 335.186 257.418C335.1 257.936 335.791 258.455 335.705 258.887C335.618 258.974 335.532 258.974 335.359 259.06L332.507 254.912C330.26 251.628 328.013 248.344 325.766 244.974C325.161 244.109 324.643 243.245 324.211 242.381C321.532 237.801 318.594 233.393 315.31 229.159C312.803 225.961 310.816 222.504 308.482 219.134C306.322 215.937 304.161 212.825 302.001 209.628C301.223 208.591 300.273 207.64 299.581 206.517C297.334 202.974 295.347 199.344 293.1 195.801C291.199 192.862 289.124 190.011 287.137 187.159C286.446 186.208 285.754 185.171 285.063 184.134C284.976 183.961 284.89 183.788 284.89 183.529C284.717 181.628 284.544 179.727 284.458 177.912C284.458 176.183 284.631 174.455 284.631 172.64V171.085C284.631 170.653 284.717 170.307 284.717 169.875C284.803 169.788 284.89 169.616 284.976 169.529C282.47 169.529 279.878 169.443 277.371 169.529C275.73 169.616 274.865 168.924 273.742 167.715C270.458 163.998 268.038 159.764 265.186 155.789C262.507 151.986 259.742 148.27 256.976 144.554C254.73 141.529 252.483 138.591 250.236 135.566C247.73 132.11 245.31 128.653 242.717 125.196C239.606 121.048 236.409 116.9 233.211 112.752C231.742 110.85 230.1 109.036 228.458 107.048C229.581 107.221 230.618 107.394 231.656 107.48L235.804 107.739C238.915 107.999 242.026 108.171 245.137 108.603C247.73 108.949 250.322 109.468 253.001 109.9C258.705 110.85 264.322 112.406 269.767 114.221C272.964 115.258 276.075 116.641 279.186 117.937C286.186 120.789 292.841 124.245 299.408 127.875C301.483 128.998 302.692 130.813 304.248 132.455C306.495 134.789 308.742 137.122 310.902 139.542C313.408 142.394 315.742 145.332 318.161 148.27C320.322 150.863 322.569 153.455 324.729 156.048C325.421 156.826 325.939 157.776 326.544 158.64C327.927 160.714 329.482 162.702 330.692 164.949C331.557 166.591 332.075 168.492 332.68 170.307C333.544 172.986 334.408 175.579 335.273 178.258C335.877 180.245 336.396 182.319 336.828 184.393C337.174 185.776 337.087 187.245 337.519 188.628C338.038 190.443 337.519 192.43 338.038 194.245C338.124 194.418 338.211 194.677 338.297 194.85C338.643 195.196 338.902 195.541 338.384 196.06C338.297 196.146 338.297 196.492 338.384 196.751C338.556 196.579 338.643 196.406 338.816 196.146C338.816 196.319 338.902 196.406 338.902 196.492C338.902 196.838 338.816 197.183 338.902 197.529C338.902 197.702 339.075 197.961 339.161 198.134C339.334 197.961 339.507 197.875 339.853 197.616C340.63 200.554 340.717 203.492 340.717 206.517C340.717 209.369 341.235 212.22 340.026 214.986C340.285 214.035 339.68 213.171 339.939 212.307Z" fill="#DD3735"/>
<path d="M285.001 246.197C285.087 246.197 285.174 246.284 285.174 246.284L285.087 246.197C285.087 246.111 285.087 246.111 285.001 246.197ZM298.655 331.58C297.705 332.271 296.754 332.876 295.544 333.135C295.458 333.049 295.458 332.962 295.371 332.876C296.322 332.271 297.359 331.666 298.31 331.061C298.396 331.234 298.569 331.407 298.655 331.58ZM136.619 214.481C137.569 213.271 138.52 212.061 139.557 210.852C139.643 210.938 140.335 211.111 140.421 211.197C139.471 212.407 138.174 214.049 137.224 215.345C137.051 215.173 136.792 214.568 136.619 214.481ZM112.076 256.827C111.384 255.358 110.693 253.802 110.002 252.333C110.088 252.247 110.693 251.987 110.779 251.987C111.73 253.37 112.162 255.012 112.853 256.481C112.853 256.481 112.162 256.827 112.076 256.827ZM134.113 215.345C133.594 216.123 133.076 216.987 132.557 217.765C132.471 217.679 131.52 218.111 131.434 218.024C131.952 217.247 133.248 215.864 133.767 215.086C133.853 215.173 133.94 215.259 134.113 215.345ZM289.408 335.123C289.495 335.123 289.495 335.036 289.581 335.036C290.186 335.123 290.878 335.209 291.569 335.209C290.445 335.987 289.754 335.901 289.408 335.123ZM134.285 218.975C134.372 218.716 134.545 218.456 134.717 218.197C134.89 218.197 135.15 218.111 135.15 218.111C135.495 217.506 135.495 217.074 135.841 216.555C135.755 216.469 135.668 216.469 135.582 216.382C135.063 216.728 134.545 217.16 134.026 217.506C134.199 217.679 134.199 217.765 134.199 217.938C133.508 217.852 133.248 218.197 132.903 219.148C132.816 219.407 132.384 219.493 131.952 219.839C131.866 220.012 131.779 220.444 131.606 220.876L131.693 220.963C131.52 221.135 131.261 221.222 131.261 221.222C130.742 221.74 130.137 222.173 129.619 222.691C129.532 222.95 129.446 223.21 129.446 223.469C130.051 222.864 131.088 221.74 131.866 221.049L131.952 221.135C132.298 220.617 132.557 220.098 132.903 219.58C132.989 219.666 132.989 219.753 133.076 219.839C132.816 220.53 132.557 221.308 132.298 222C132.125 222.086 131.866 222.259 131.866 222.173C131.52 222.432 131.261 222.777 130.915 223.037L129.36 224.074C128.495 224.852 127.631 225.543 126.681 226.321C126.076 227.271 125.471 228.135 124.779 229.259C125.816 229 126.076 229.432 125.989 230.296C127.199 230.469 127.285 229.518 127.631 228.827C127.718 228.654 127.804 228.308 127.977 228.222C128.755 227.531 129.619 226.926 130.483 226.234C130.656 226.061 130.656 225.716 130.656 225.456C130.656 225.37 130.224 225.37 129.965 225.284C130.742 224.419 131.866 222.95 132.644 222C133.076 221.74 133.508 221.395 133.508 221.135C133.421 220.185 134.026 219.926 134.717 219.58C134.372 219.321 134.285 219.061 134.285 218.975Z" fill="#DD3735"/>
<path d="M136.014 218.024C135.668 218.629 135.323 219.148 134.977 219.753L134.458 219.493C134.113 221.481 132.903 223.21 131.693 223.555C132.039 223.728 132.384 223.901 132.644 223.814C132.903 223.728 133.076 223.296 133.248 223.037L135.582 219.666L136.36 218.37L136.014 218.024ZM107.236 255.962C107.668 255.962 108.1 256.049 108.619 256.049C108.619 255.703 109.051 255.79 109.051 255.444H109.31C109.31 255.876 109.397 256.222 109.397 256.654H107.582C107.495 256.567 107.15 256.049 107.236 255.962ZM106.545 251.987C106.286 251.728 105.853 251.469 105.853 251.209C105.767 250.864 106.026 250.432 106.286 250C106.458 250.604 106.545 251.123 106.718 251.728C106.631 251.814 106.545 251.901 106.545 251.987ZM108.705 246.456C109.051 247.321 109.397 248.271 109.742 249.135C109.656 249.135 109.137 249.395 109.051 249.481C108.705 248.617 108.273 247.666 107.928 246.802C108.014 246.716 108.532 246.456 108.705 246.456ZM301.075 329.074C301.507 328.901 302.026 328.814 302.717 328.641C301.939 329.246 301.334 329.678 300.816 330.197C300.729 330.11 300.643 330.024 300.557 330.024C300.729 329.678 300.902 329.419 301.075 329.073V329.074ZM194.866 146.469C195.384 146.123 195.816 145.864 196.335 145.518L196.508 145.691C195.989 146.383 195.557 147.074 194.952 147.938C194.866 147.333 194.866 146.987 194.779 146.555C194.693 146.555 194.779 146.555 194.866 146.469ZM220.186 190.197C220.964 189.852 221.742 189.506 222.693 189.074C222.606 189.592 222.606 189.938 222.606 190.284C222.347 190.197 222.001 190.111 221.742 190.111C221.224 190.197 220.273 190.889 219.841 190.975C219.754 190.975 220.186 190.284 220.186 190.197ZM285.001 263.481C285.174 264.345 286.816 264.777 285.174 265.641C285.433 265.814 285.692 265.901 285.952 266.074C285.952 266.16 285.865 266.333 285.779 266.419C285.606 266.506 285.26 266.679 285.087 266.592C285.001 266.592 284.828 266.246 284.828 266.074C284.828 265.296 284.915 264.518 285.001 263.481Z" fill="#DD3735"/>
</svg>
