<svg width="450" height="450" viewBox="0 0 450 450" fill="none" xmlns="http://www.w3.org/2000/svg">
<path d="M296.639 349.694C295.931 349.694 295.288 350.144 294.581 349.887C295.031 349.115 295.931 349.501 296.51 349.051C296.575 348.986 296.767 349.179 296.896 349.244C296.832 349.372 296.703 349.565 296.639 349.694Z" fill="#9F621A"/>
<path d="M82 379.86C82 286.917 82 194.037 82 101.093C82 100.193 82.193 100 83.0935 100C178.031 100 272.969 100 367.907 100C368.807 100 369 100.193 369 101.093C369 194.037 369 286.917 369 379.86C273.29 379.86 177.645 379.86 82 379.86ZM225.436 367.897C268.788 367.897 312.14 367.897 355.557 367.897C356.715 367.897 357.036 367.639 357.036 366.417C356.972 282.093 356.972 197.703 357.036 113.379C357.036 112.157 356.715 111.899 355.557 111.899C268.852 111.899 182.083 111.899 95.3788 111.899C94.221 111.899 93.9637 112.157 93.9637 113.314C93.9637 197.703 93.9637 282.093 93.9637 366.482C93.9637 367.639 94.2853 367.897 95.3788 367.897C138.731 367.897 182.083 367.897 225.436 367.897Z" fill="#B681B8"/>
<path d="M225.436 367.897C182.083 367.897 138.731 367.897 95.3145 367.897C94.221 367.897 93.8994 367.704 93.8994 366.482C93.9637 282.093 93.9637 197.704 93.8994 113.314C93.8994 112.157 94.221 111.899 95.3145 111.899C182.019 111.899 268.788 111.899 355.493 111.899C356.65 111.899 356.972 112.092 356.972 113.379C356.908 197.704 356.908 282.093 356.972 366.417C356.972 367.639 356.65 367.897 355.493 367.897C312.205 367.897 268.788 367.897 225.436 367.897ZM156.419 229.928C156.355 229.928 156.355 229.928 156.419 229.928C156.355 251.154 156.355 272.316 156.355 293.542C156.355 295.407 156.677 295.664 158.478 295.664C164.138 295.664 169.798 295.664 175.458 295.664C177.388 295.664 177.645 295.407 177.645 293.413C177.645 278.812 177.645 264.211 177.645 249.675C177.645 248.453 177.967 248.26 179.125 248.26C184.206 248.453 189.287 248.646 194.369 248.131C200.672 247.488 206.783 246.202 212.636 243.564C221.898 239.448 228.845 232.951 232.704 223.368C236.628 213.526 237.078 203.428 234.634 193.201C232.318 183.36 226.786 175.77 218.103 170.496C210.706 166.058 202.537 164.257 194.111 163.678C188.644 163.292 183.113 163.485 177.645 163.549C171.085 163.678 164.588 163.742 158.027 164.064C156.87 164.128 156.484 164.643 156.419 165.672C156.419 166.058 156.419 166.379 156.419 166.765C156.419 187.862 156.419 208.895 156.419 229.928ZM254.187 254.563C254.187 267.685 254.187 280.806 254.187 293.928C254.187 295.471 254.38 295.729 255.988 295.729C261.841 295.729 267.695 295.729 273.548 295.729C275.67 295.729 275.863 295.536 275.863 293.349C275.863 274.567 275.863 255.785 275.863 237.004C275.863 231.408 275.863 225.747 275.863 220.152C275.863 219.251 276.056 218.736 277.021 218.544C278.179 218.286 279.337 217.965 280.494 217.772C286.219 216.743 292.008 216.485 297.861 216.55C299.726 216.614 299.855 216.421 299.855 214.62C299.855 209.539 299.855 204.393 299.855 199.312C299.855 196.867 299.662 196.674 297.154 196.739C289.371 196.932 281.588 197.768 273.998 199.312C267.502 200.662 261.134 202.399 254.959 204.843C253.994 205.229 253.415 205.744 253.544 206.901C253.994 211.018 254.187 215.135 254.187 219.315C254.187 231.022 254.187 242.792 254.187 254.563Z" fill="#271333"/>
<path d="M156.419 229.928C156.419 208.895 156.419 187.862 156.419 166.829C156.419 166.444 156.419 166.122 156.419 165.736C156.484 164.707 156.87 164.192 158.027 164.128C164.524 163.806 171.084 163.742 177.645 163.613C183.112 163.485 188.644 163.292 194.111 163.742C202.602 164.321 210.77 166.122 218.103 170.56C226.786 175.77 232.254 183.424 234.634 193.265C237.078 203.492 236.628 213.591 232.704 223.432C228.909 232.951 221.898 239.448 212.636 243.629C206.847 246.201 200.672 247.552 194.369 248.195C189.287 248.71 184.206 248.517 179.125 248.324C178.031 248.26 177.645 248.517 177.645 249.739C177.71 264.34 177.645 278.941 177.645 293.477C177.645 295.407 177.388 295.729 175.458 295.729C169.798 295.729 164.138 295.729 158.478 295.729C156.612 295.729 156.355 295.407 156.355 293.606C156.355 272.316 156.355 251.09 156.419 229.928C156.355 229.928 156.355 229.928 156.419 229.928ZM177.645 206.001C177.645 213.14 177.645 220.344 177.645 227.484C177.645 229.156 177.645 229.156 179.382 229.221C182.341 229.285 185.299 229.221 188.194 229.285C191.603 229.285 195.012 228.963 198.357 228.063C204.274 226.519 209.098 223.496 211.864 217.836C214.565 212.369 214.951 206.515 214.051 200.534C212.764 192.043 207.94 186.576 199.707 184.067C192.696 181.945 185.492 182.717 178.353 183.038C177.452 183.103 177.645 183.682 177.645 184.196C177.645 191.4 177.645 198.668 177.645 206.001Z" fill="#B681B8"/>
<path d="M254.187 254.563C254.187 242.792 254.187 231.022 254.187 219.315C254.187 215.199 253.994 211.018 253.544 206.901C253.416 205.808 253.994 205.229 254.959 204.843C261.134 202.399 267.502 200.662 273.998 199.312C281.652 197.703 289.371 196.932 297.154 196.739C299.662 196.674 299.855 196.867 299.855 199.312C299.855 204.393 299.855 209.539 299.855 214.62C299.855 216.421 299.727 216.614 297.861 216.55C292.072 216.421 286.219 216.742 280.495 217.772C279.337 217.965 278.179 218.35 277.021 218.543C276.121 218.736 275.864 219.251 275.864 220.151C275.928 225.747 275.864 231.408 275.864 237.004C275.864 255.785 275.864 274.567 275.864 293.349C275.864 295.536 275.671 295.729 273.548 295.729C267.695 295.729 261.842 295.729 255.988 295.729C254.38 295.729 254.187 295.536 254.187 293.928C254.187 280.806 254.187 267.685 254.187 254.563Z" fill="#B681B8"/>
<path d="M177.645 206.001C177.645 198.733 177.645 191.4 177.645 184.132C177.645 183.617 177.452 183.038 178.353 182.974C185.492 182.653 192.696 181.945 199.707 184.003C207.94 186.447 212.765 191.915 214.051 200.469C214.951 206.451 214.566 212.304 211.864 217.772C209.098 223.432 204.21 226.455 198.357 227.999C195.012 228.899 191.667 229.285 188.194 229.221C185.235 229.221 182.276 229.221 179.382 229.157C177.645 229.157 177.645 229.092 177.645 227.42C177.645 220.345 177.645 213.141 177.645 206.001Z" fill="#271333"/>
</svg>
