<svg width="450" height="450" viewBox="0 0 450 450" fill="none" xmlns="http://www.w3.org/2000/svg">
<path d="M223.947 80C149.82 80 154.449 112.146 154.449 112.146L154.531 145.449H225.27V155.449H126.434C126.434 155.449 79 150.069 79 224.865C79 299.66 120.402 297.008 120.402 297.008H145.111V262.3C145.111 262.3 143.779 220.898 185.851 220.898H256.011C256.011 220.898 295.429 221.535 295.429 182.802V118.757C295.429 118.757 301.414 80 223.947 80ZM184.942 102.395C191.98 102.395 197.668 108.083 197.668 115.121C197.668 122.159 191.98 127.847 184.942 127.847C177.904 127.848 172.216 122.159 172.216 115.121C172.216 108.083 177.904 102.395 184.942 102.395Z" fill="url(#paint0_linear)"/>
<path d="M226.053 370.479C300.18 370.479 295.551 338.333 295.551 338.333L295.469 305.03H224.73V295.031H323.566C323.566 295.031 371 300.41 371 225.615C371 150.819 329.598 153.472 329.598 153.472H304.889V188.18C304.889 188.18 306.221 229.581 264.149 229.581H193.989C193.989 229.581 154.571 228.944 154.571 267.678V331.722C154.571 331.722 148.586 370.479 226.053 370.479ZM265.058 348.085C258.02 348.085 252.332 342.396 252.332 335.358C252.332 328.32 258.02 322.632 265.058 322.632C272.096 322.632 277.784 328.32 277.784 335.358C277.784 342.396 272.096 348.085 265.058 348.085Z" fill="url(#paint1_linear)"/>
<defs>
<linearGradient id="paint0_linear" x1="107.062" y1="106.128" x2="251.766" y2="249.389" gradientUnits="userSpaceOnUse">
<stop stop-color="#387EB8"/>
<stop offset="1" stop-color="#366994"/>
</linearGradient>
<linearGradient id="paint1_linear" x1="195.881" y1="198.121" x2="351.279" y2="345.023" gradientUnits="userSpaceOnUse">
<stop stop-color="#FFE052"/>
<stop offset="1" stop-color="#FFC331"/>
</linearGradient>
</defs>
</svg>
