<svg width="450" height="450" viewBox="0 0 450 450" fill="none" xmlns="http://www.w3.org/2000/svg">
<path d="M342.44 198.308H257.35C253.081 198.308 249.615 194.842 249.615 190.574V101.894C249.615 95.3268 244.289 90 237.726 90H207.351C200.783 90 195.462 95.3268 195.462 101.894V190.037C195.462 194.61 191.764 198.327 187.191 198.347L159.306 198.48C154.694 198.505 150.947 194.763 150.957 190.155L151.129 101.914C151.144 95.3366 145.817 90 139.24 90H108.889C102.322 90 97 95.3268 97 101.894V350.209C97 356.043 101.726 360.769 107.555 360.769H342.44C348.274 360.769 353 356.043 353 350.209V208.868C353 203.034 348.274 198.308 342.44 198.308ZM302.538 291.541C302.538 299.186 296.34 305.385 288.695 305.385H264.69C257.044 305.385 250.846 299.186 250.846 291.541V267.536C250.846 259.89 257.044 253.692 264.69 253.692H288.695C296.34 253.692 302.538 259.89 302.538 267.536V291.541Z" fill="#FF6600"/>
</svg>
