<svg width="450" height="450" viewBox="0 0 450 450" fill="none" xmlns="http://www.w3.org/2000/svg">
<path d="M87.0517 315H189.207C189.207 315 169.681 225.905 234.336 189.828C248.431 182.974 293.302 157.371 366.75 211.681C369.078 209.741 371.276 208.19 371.276 208.19C371.276 208.19 304.034 141.078 229.164 148.578C191.534 151.94 145.241 186.207 118.086 231.466C90.931 276.724 87.0517 315 87.0517 315ZM299.897 155.819L300.414 147.155C299.25 146.509 296.017 144.957 287.871 142.629L287.353 151.164C291.621 152.586 295.759 154.138 299.897 155.819ZM287.612 183.233L287.095 191.379C291.362 191.509 295.629 192.026 299.897 192.931L300.414 184.914C296.017 184.009 291.75 183.491 287.612 183.233ZM239.767 142.888H241.06L238.474 135C234.466 135 230.328 135.259 226.06 135.776L228.517 143.405C232.267 143.017 236.017 142.888 239.767 142.888ZM245.974 190.474L248.948 199.397C252.698 197.586 256.448 196.034 260.198 194.871L257.353 186.336C252.957 187.629 249.207 189.052 245.974 190.474ZM187.267 156.466L181.448 147.543C178.216 149.224 174.853 151.034 171.362 153.103L177.31 162.155C180.672 160.086 183.905 158.147 187.267 156.466ZM213.776 214.655L219.983 223.966C222.181 220.733 224.767 217.759 227.612 214.784L221.793 205.991C218.819 208.707 216.103 211.681 213.776 214.655ZM195.026 256.293L205.5 264.569C206.017 259.526 206.922 254.483 208.216 249.44L198.905 242.069C197.224 246.853 196.06 251.638 195.026 256.293ZM138.388 194.871L129.207 186.853C125.845 190.086 122.612 193.319 119.638 196.552L129.595 205.086C132.31 201.595 135.284 198.103 138.388 194.871ZM99.3362 252.672L84.4655 247.241C82.0086 252.802 79.2931 259.267 78 262.759L92.8707 268.19C94.5517 263.793 97.2672 257.457 99.3362 252.672ZM193.086 289.138C193.345 295.991 193.991 301.552 194.638 305.431L210.155 310.991C208.991 305.948 207.828 300.259 207.052 294.181L193.086 289.138Z" fill="#CC0000"/>
</svg>
