<svg width="450" height="450" viewBox="0 0 450 450" fill="none" xmlns="http://www.w3.org/2000/svg">
<path d="M177.984 80.0041C176.523 80.0492 174.949 80.5893 173.164 81.9975C168.791 80.3117 164.551 79.7256 160.759 83.1582C154.905 82.3989 153.002 83.9662 151.56 85.7961C150.275 85.7696 141.943 84.4745 138.122 90.1746C128.52 89.0387 125.485 95.8225 128.924 102.149C126.962 105.185 124.93 108.185 129.516 113.973C127.894 117.196 128.9 120.693 132.721 124.925C131.713 129.457 133.695 132.654 137.252 135.146C136.586 141.347 142.939 144.953 144.835 146.238C145.563 149.851 147.081 153.261 154.336 155.146C155.533 160.531 159.893 161.461 164.116 162.591C150.16 170.703 138.192 181.376 138.274 207.565L136.229 211.211C120.227 220.943 105.83 252.221 128.344 277.643C129.814 285.601 132.28 291.317 134.476 297.643C137.76 323.134 159.195 335.071 164.849 336.483C173.133 342.793 181.956 348.78 193.896 352.975C205.152 364.583 217.346 369.007 229.606 369C229.786 369 254.603 364.583 265.859 352.975C277.799 348.78 286.622 342.793 294.907 336.483C300.56 335.071 321.995 323.134 325.279 297.643C327.475 291.317 329.941 285.601 331.412 277.643C353.924 252.218 339.528 220.939 323.526 211.208L321.478 207.561C321.56 181.375 309.592 170.702 295.636 162.587C299.858 161.458 304.219 160.528 305.415 155.142C312.67 153.257 314.189 149.847 314.916 146.234C316.814 144.95 323.165 141.344 322.5 135.142C326.056 132.65 328.039 129.453 327.03 124.921C330.852 120.69 331.858 117.193 330.235 113.969C334.823 108.184 332.788 105.184 330.829 102.149C334.266 95.8217 331.233 89.0369 321.627 90.1737C317.807 84.4736 309.477 85.7678 308.188 85.7943C306.747 83.9653 304.845 82.398 298.99 83.1573C295.199 79.7247 290.959 80.31 286.586 81.9966C281.393 77.8993 277.957 81.1834 274.032 82.4254C267.746 80.3709 266.307 83.1848 263.219 84.3313C256.362 82.8824 254.279 86.0366 250.992 89.3657L247.169 89.2897C236.827 95.3841 231.69 107.794 229.869 114.174C228.047 107.793 222.921 95.3832 212.582 89.2897L208.758 89.3657C205.467 86.0366 203.385 82.8824 196.528 84.3313C193.439 83.1848 192.006 80.3709 185.714 82.4254C183.138 81.6103 180.769 79.9166 177.98 80.0032L107 204.645" fill="black"/>
<path d="M157.396 106.815C184.832 120.96 200.782 132.403 209.52 142.148C205.046 160.084 181.701 160.903 173.165 160.4C174.912 159.586 176.371 158.611 176.888 157.115C174.746 155.592 167.152 156.954 161.849 153.975C163.886 153.553 164.839 153.142 165.791 151.639C160.782 150.042 155.386 148.664 152.213 146.018C153.925 146.039 155.524 146.401 157.761 144.85C153.274 142.432 148.487 140.515 144.767 136.819C147.086 136.763 149.587 136.796 150.315 135.943C146.208 133.399 142.743 130.57 139.875 127.475C143.122 127.867 144.493 127.53 145.278 126.965C142.173 123.785 138.244 121.1 136.371 117.182C138.781 118.013 140.987 118.331 142.576 117.11C141.521 114.73 137.002 113.326 134.4 107.765C136.938 108.011 139.629 108.318 140.167 107.765C138.99 102.966 136.969 100.268 134.987 97.4731C140.417 97.3926 148.646 97.4943 148.274 97.0355L144.915 93.6047C150.22 92.1761 155.648 93.8336 159.589 95.0641C161.358 93.6683 159.557 91.9029 157.398 90.1004C161.907 90.7024 165.98 91.7385 169.663 93.1662C171.63 91.3902 168.386 89.6133 166.816 87.8374C173.781 89.1581 176.732 91.0154 179.664 92.8745C181.792 90.835 179.786 89.1015 178.35 87.3264C183.602 89.2712 186.307 91.7827 189.155 94.2615C190.12 92.9584 191.608 92.0028 189.811 88.8593C193.54 91.0083 196.349 93.541 198.426 96.3787C200.733 94.9094 199.801 92.901 199.813 91.049C203.689 94.2014 206.148 97.5562 209.158 100.831C209.764 100.389 210.295 98.8928 210.764 96.5245C220.008 105.493 233.071 128.084 214.122 137.04C197.995 123.74 178.734 114.071 157.389 106.819L157.396 106.815Z" fill="#75A928"/>
<path d="M302.972 106.815C275.54 120.962 259.589 132.401 250.852 142.148C255.327 160.084 278.671 160.902 287.207 160.399C285.459 159.586 284 158.611 283.484 157.114C285.626 155.592 293.221 156.953 298.522 153.975C296.485 153.553 295.533 153.142 294.58 151.639C299.59 150.041 304.986 148.664 308.159 146.017C306.446 146.039 304.847 146.401 302.611 144.85C307.098 142.432 311.886 140.515 315.606 136.819C313.285 136.763 310.784 136.796 310.058 135.943C314.164 133.399 317.629 130.57 320.497 127.475C317.25 127.867 315.88 127.53 315.095 126.964C318.198 123.785 322.128 121.1 324.001 117.182C321.59 118.013 319.385 118.331 317.795 117.109C318.85 114.73 323.37 113.326 325.971 107.765C323.434 108.011 320.743 108.318 320.204 107.765C321.384 102.964 323.405 100.266 325.387 97.4711C319.957 97.3907 311.728 97.4923 312.1 97.0335L315.459 93.6018C310.154 92.1741 304.726 93.8317 300.785 95.0622C299.016 93.6663 300.816 91.901 302.975 90.0985C298.467 90.6996 294.393 91.7366 290.711 93.1642C288.743 91.3883 291.988 89.6114 293.558 87.8354C286.593 89.1561 283.642 91.0134 280.709 92.8725C278.581 90.8331 280.588 89.0996 282.024 87.3245C276.772 89.2693 274.067 91.7808 271.219 94.2595C270.253 92.9565 268.766 92.0009 270.562 88.8573C266.834 91.0064 264.025 93.539 261.948 96.3767C259.641 94.9075 260.573 92.8981 260.561 91.047C256.685 94.1994 254.226 97.5533 251.216 100.829C250.61 100.387 250.079 98.8908 249.61 96.5217C240.366 105.491 227.303 128.082 246.252 137.038C262.371 123.734 281.63 114.068 302.976 106.815H302.972Z" fill="#75A928"/>
<path d="M263.41 289.451C263.506 306.188 248.869 319.827 230.72 319.915C212.569 320.003 197.778 306.507 197.682 289.77C197.681 289.664 197.681 289.558 197.682 289.451C197.587 272.715 212.222 259.075 230.373 258.987C248.523 258.899 263.314 272.395 263.41 289.132V289.451Z" fill="#BC1142"/>
<path d="M211.531 202.881C225.148 211.803 227.603 232.026 217.014 248.049C206.424 264.074 186.801 269.832 173.184 260.911C159.566 251.988 157.112 231.766 167.701 215.742C178.29 199.718 197.914 193.959 211.531 202.881Z" fill="#BC1142"/>
<path d="M248.284 201.265C234.667 210.187 232.213 230.41 242.801 246.434C253.391 262.458 273.014 268.217 286.631 259.294C300.249 250.373 302.703 230.15 292.114 214.126C281.525 198.102 261.902 192.344 248.284 201.265Z" fill="#BC1142"/>
<path d="M143.473 217.467C158.175 213.526 148.436 278.289 136.474 272.975C123.316 262.392 119.078 231.398 143.473 217.467Z" fill="#BC1142"/>
<path d="M313.374 216.659C298.671 212.719 308.411 277.485 320.373 272.172C333.532 261.587 337.77 230.59 313.374 216.659Z" fill="#BC1142"/>
<path d="M263.422 168.431C288.794 164.147 309.906 179.221 309.054 206.733C308.219 217.281 254.075 170.002 263.422 168.431Z" fill="#BC1142"/>
<path d="M193.32 167.623C167.946 163.339 146.836 178.416 147.689 205.927C148.523 216.474 202.669 169.194 193.32 167.623Z" fill="#BC1142"/>
<path d="M229.766 161.208C214.623 160.813 200.09 172.446 200.054 179.194C200.013 187.392 212.027 195.786 229.869 195.999C248.089 196.129 259.715 189.28 259.774 180.819C259.841 171.233 243.203 161.059 229.766 161.207V161.208Z" fill="#BC1142"/>
<path d="M230.691 329.328C243.893 328.752 261.609 333.581 261.644 339.987C261.863 346.207 245.577 360.261 229.815 359.989C213.491 360.694 197.485 346.618 197.694 341.739C197.449 334.586 217.57 329 230.691 329.328Z" fill="#BC1142"/>
<path d="M181.925 291.364C191.325 302.689 195.611 322.584 187.766 328.45C180.345 332.927 162.322 331.083 149.513 312.681C140.874 297.239 141.987 281.525 148.053 276.909C157.124 271.384 171.139 278.848 181.926 291.364H181.925Z" fill="#BC1142"/>
<path d="M277.575 287.775C267.404 299.687 261.741 321.414 269.16 328.412C276.254 333.848 295.297 333.088 309.364 313.57C319.578 300.461 316.156 278.568 310.321 272.755C301.654 266.052 289.212 274.631 277.575 287.771V287.775Z" fill="#BC1142"/>
</svg>
