<svg width="450" height="450" viewBox="0 0 450 450" fill="none" xmlns="http://www.w3.org/2000/svg">
<path fill-rule="evenodd" clip-rule="evenodd" d="M155.261 80.311C130.961 83.4552 120.052 111.077 126.821 152.325C127.564 156.853 129.941 168.438 130.341 169.482C130.493 169.874 129.847 170.213 127.836 170.797C72.5863 186.841 49.426 217.469 70.9772 245.986C74.962 251.26 83.9734 258.875 90.3966 262.399C91.2095 262.845 92.8721 263.782 94.0913 264.481C102.472 269.289 120.327 276.451 129.102 278.526C130.541 278.866 130.538 278.774 129.329 283.865C120.56 320.787 124.848 350.957 140.515 362.573C159.184 376.415 187.821 367.416 220.438 337.457C225.272 333.017 224.25 333.106 228.255 336.784C289.854 393.357 335.402 372.985 322.223 294.756C321.641 291.302 320.672 286.401 320.07 283.865C318.861 278.774 318.857 278.866 320.296 278.526C329.072 276.451 346.927 269.289 355.307 264.481C356.527 263.782 358.189 262.845 359.002 262.399C365.425 258.875 374.437 251.26 378.421 245.986C399.974 217.466 376.817 186.843 321.563 170.797C319.552 170.213 318.906 169.874 319.058 169.482C319.169 169.191 319.836 166.251 320.54 162.949C329.358 121.58 323.448 93.1251 304.028 83.4588C284.869 73.9228 258.323 84.2892 226.648 113.677L224.699 115.486L222.75 113.677C196.341 89.1736 173.61 77.9362 155.261 80.311ZM165.953 94.7434C177.638 96.6342 194.153 106.719 210.743 122.093L214.706 125.765L210.671 130.271C204.951 136.658 199.59 143.267 193.381 151.587C190.423 155.549 187.812 159.004 187.578 159.262C187.328 159.538 185.094 159.96 182.187 160.278C171.262 161.474 159.03 163.367 149.732 165.3C145.778 166.122 144.34 166.295 144.14 165.973C141.902 162.351 138.771 137.747 139.097 126.328C139.784 102.177 148.506 91.9197 165.953 94.7434ZM294.529 94.9374C308.899 98.8593 313.912 120.824 307.964 153.803C306.966 159.341 305.482 165.88 305.151 166.212C305.046 166.316 302.573 165.904 299.653 165.298C290.368 163.367 278.13 161.474 267.212 160.278C264.305 159.96 262.07 159.538 261.821 159.262C261.586 159.004 258.975 155.549 256.018 151.587C249.809 143.267 244.448 136.658 238.727 130.271L234.693 125.765L238.656 122.098C255.462 106.546 271.853 96.5658 283.63 94.7166C288.696 93.9204 290.972 93.9666 294.529 94.9374ZM227.91 139.671C229.497 141.449 232.121 144.483 233.741 146.414C235.36 148.344 236.783 150.007 236.902 150.109C237.021 150.21 238.13 151.623 239.364 153.249C240.599 154.875 241.961 156.605 242.39 157.093C242.821 157.581 243.173 158.08 243.173 158.201C243.173 158.323 234.86 158.422 224.699 158.422C214.539 158.422 206.226 158.366 206.226 158.299C206.226 157.396 223.947 136.438 224.711 136.438C224.883 136.438 226.322 137.893 227.91 139.671ZM244.353 172.65C255.026 173.182 253.68 172.614 257.31 178.108C266.845 192.535 276.531 209.411 282.393 221.813L283.717 224.611L281.712 228.648C274.983 242.207 266.962 256.172 258.244 269.504L254.222 275.658L251.745 275.889C239.072 277.077 210.327 277.077 197.653 275.889L195.177 275.658L191.154 269.504C182.38 256.085 174.017 241.513 167.688 228.617L165.691 224.548L168.337 219.195C178.041 199.557 193.834 173.644 196.364 173.208C201.144 172.384 231.839 172.027 244.353 172.65ZM176.668 175.428C176.668 175.536 175.203 177.988 173.413 180.878C169.703 186.868 163.309 197.998 160.369 203.584C159.275 205.663 158.277 207.367 158.151 207.371C157.747 207.381 152.252 193.099 149.372 184.553C148.327 181.448 148.005 180.036 148.341 180.036C148.408 180.036 151.276 179.47 154.714 178.779C158.153 178.087 163.626 177.098 166.877 176.579C175.302 175.236 176.668 175.076 176.668 175.428ZM282.521 176.586C285.773 177.1 291.246 178.087 294.684 178.779C298.122 179.47 300.99 180.036 301.058 180.036C301.732 180.036 298.069 190.786 293.342 202.679C291.138 208.224 291.416 208.171 288.973 203.497C285.995 197.796 279.617 186.695 275.998 180.912C274.201 178.041 272.731 175.573 272.731 175.428C272.731 175.113 274.634 175.338 282.521 176.586ZM136.868 191.411C139.008 197.952 145.815 215.699 147.038 217.924C147.407 218.597 148.71 221.526 149.569 223.619C149.924 224.481 149.235 226.517 146.752 231.946C143.376 239.326 138.148 253.137 135.003 262.982C134.148 265.658 134.613 265.651 126.974 263.096C70.0619 244.058 61.2288 216.733 104.927 194.894C112.728 190.994 131.534 183.793 133.994 183.763C134.197 183.76 135.491 187.202 136.868 191.411ZM317.24 184.247C318.059 184.531 320.642 185.382 322.979 186.138C355.028 196.501 374.366 212.521 372.114 226.839C370.079 239.775 352.659 252.785 324.456 262.428C317.813 264.699 315.188 265.363 314.981 264.824C314.879 264.555 314.326 262.867 313.753 261.072C311.223 253.139 305.646 238.359 303.187 233.071C300.232 226.714 299.455 224.527 299.829 223.619C300.688 221.526 301.992 218.597 302.36 217.924C303.583 215.699 310.391 197.952 312.531 191.411C313.908 187.202 315.196 183.752 315.392 183.744C315.588 183.737 316.42 183.963 317.24 184.247ZM221.255 195.571C196.963 198.426 186.939 228.427 204.544 245.589C206.27 247.273 211.567 250.974 212.25 250.974C212.413 250.974 213.245 251.292 214.097 251.68C223.329 255.882 237.077 253.158 244.855 245.586C264.804 226.168 248.837 192.329 221.255 195.571ZM161.157 246.91C163.653 251.572 169.679 262.14 171.486 265.027C175.822 271.951 176.944 273.881 176.632 273.881C175.818 273.881 163.299 271.939 159.857 271.278C150.576 269.498 148.219 268.939 148.219 268.517C148.219 268.052 151.464 258.409 153.314 253.376C155.594 247.17 158.019 241.415 158.247 241.664C158.378 241.806 159.687 244.167 161.157 246.91ZM294.099 248.295C296.741 255.016 301.18 267.684 301.18 268.502C301.18 268.942 298.952 269.473 289.541 271.278C286.1 271.939 273.58 273.881 272.767 273.881C272.454 273.881 273.577 271.951 277.912 265.027C278.353 264.322 280.254 261.08 282.135 257.822C285.301 252.34 286.444 250.272 289.75 244.047C291.365 241.005 291.15 240.795 294.099 248.295ZM161.335 285.869C169.281 287.202 183.136 289.02 185.505 289.042C186.998 289.055 187.637 289.465 188.651 291.062C191.461 295.486 203.274 310.38 210.238 318.279L214.688 323.327L210.18 327.488C186.373 349.461 164.616 359.039 152.031 353.085C138.68 346.769 135.227 320.498 143.267 286.413L144.19 282.503L148.883 283.535C151.464 284.103 157.068 285.153 161.335 285.869ZM307.075 290.692C312.828 318.3 311.084 340.007 302.365 349.331C291.054 361.424 267.045 353.115 239.211 327.474L234.71 323.327L239.16 318.279C246.125 310.38 257.938 295.486 260.748 291.062C261.762 289.465 262.4 289.055 263.894 289.042C268.36 289.002 291.343 285.546 300.441 283.548L305.059 282.533L305.528 284.026C305.785 284.847 306.482 287.847 307.075 290.692ZM243.173 290.81C243.173 291.536 225.313 312.676 224.699 312.676C224.086 312.676 206.226 291.536 206.226 290.81C206.226 290.745 214.539 290.692 224.699 290.692C234.86 290.692 243.173 290.745 243.173 290.81Z" fill="#64DCFC"/>
</svg>
