<svg width="450" height="450" viewBox="0 0 450 450" fill="none" xmlns="http://www.w3.org/2000/svg">
<path d="M286.347 245.79C281.596 247.341 276.488 247.817 271.526 248.686C270.175 248.923 268.751 248.712 267.387 248.901C256.801 250.37 252.802 254.609 251.307 265.881C250.511 271.881 248.932 277.583 245.489 282.688C239.671 291.31 228.369 295.223 218.697 291.855C208.343 288.249 202.071 278.812 202.908 268.097C203.661 258.443 211.286 249.914 221.995 247.435C227.009 246.275 232.211 245.821 237.356 245.352C246.959 244.479 251.2 240.269 252.8 230.826C253.72 225.394 252.9 220.268 251.695 215.143C249.856 207.31 244.152 203.671 234.577 202.974C229.352 202.593 224.036 201.835 219.036 200.333C208.511 197.168 202.383 188.031 202.869 177.312C203.294 167.926 210.938 158.787 220.119 156.688C230.997 154.2 241.826 158.551 246.452 168.238C248.879 173.321 250.213 179.08 251.163 184.682C252.865 194.727 256.856 198.624 266.875 199.713C273.354 200.418 279.956 201.221 286.135 203.154C295.519 206.091 301.155 214.835 301.153 224.553C301.152 234.059 295.334 242.858 286.347 245.79Z" fill="#62DAFB"/>
<path d="M175.853 247.334C163.275 247.336 153.005 237.07 153.003 224.493C153.001 211.915 163.268 201.645 175.844 201.643C188.422 201.641 198.691 211.908 198.693 224.484C198.695 237.062 188.429 247.332 175.853 247.334Z" fill="#424242"/>
<path d="M121.769 293.027C109.201 292.996 98.9686 282.694 99.0001 270.106C99.0316 257.538 109.332 247.305 121.921 247.338C134.488 247.368 144.721 257.67 144.69 270.258C144.658 282.826 134.357 293.059 121.769 293.027Z" fill="#424242"/>
<path d="M328.326 293.027C315.726 293.099 305.381 282.908 305.309 270.354C305.237 257.755 315.429 247.409 327.982 247.338C340.582 247.265 350.927 257.455 351 270.01C351.071 282.61 340.88 292.955 328.326 293.027Z" fill="#424242"/>
</svg>
