<svg width="450" height="450" viewBox="0 0 450 450" fill="none" xmlns="http://www.w3.org/2000/svg">
<path d="M279.792 278.264C290.327 277.174 298.319 268.092 297.955 257.194C297.592 246.296 288.511 237.578 277.613 237.578H276.886C265.625 237.941 256.907 247.386 257.27 258.647C257.634 264.097 259.813 268.819 263.083 272.088C250.732 296.428 231.842 314.228 203.508 329.122C184.256 339.294 164.276 342.926 144.297 340.383C127.951 338.204 115.237 330.938 107.245 318.95C95.6208 301.15 94.531 281.897 104.339 262.643C111.241 248.839 122.139 238.668 129.04 233.582C127.587 228.859 125.408 220.867 124.318 215.055C71.6458 253.198 77.0947 304.783 93.078 329.122C105.065 347.286 129.404 358.547 156.285 358.547C163.55 358.547 170.815 357.82 178.08 356.004C224.577 346.922 259.813 319.314 279.792 278.264ZM343.726 233.219C316.118 200.887 275.433 183.087 228.936 183.087H223.124C219.855 176.548 212.953 172.189 205.325 172.189H204.598C193.337 172.552 184.619 181.997 184.982 193.259C185.345 204.157 194.427 212.875 205.325 212.875H206.051C214.043 212.512 220.945 207.426 223.851 200.524H230.389C257.997 200.524 284.151 208.516 307.763 224.137C325.926 236.125 339.003 251.745 346.269 270.635C352.444 285.893 352.081 300.787 345.542 313.501C335.371 332.755 318.298 343.29 295.776 343.29C281.245 343.29 267.442 338.93 260.176 335.661C256.181 339.294 248.915 345.106 243.83 348.739C259.45 356.004 275.433 360 290.69 360C325.563 360 351.354 340.747 361.162 321.493C371.697 300.424 370.97 264.097 343.726 233.219ZM159.191 284.44C159.554 295.338 168.636 304.056 179.533 304.056H180.26C191.521 303.693 200.239 294.248 199.876 282.987C199.512 272.088 190.431 263.37 179.533 263.37H178.807C178.08 263.37 176.99 263.37 176.264 263.733C161.37 239.031 155.195 212.149 157.375 183.087C158.828 161.291 166.093 142.401 178.807 126.78C189.341 113.339 209.684 106.8 223.487 106.437C261.993 105.71 278.339 153.662 279.429 172.916C284.151 174.005 292.143 176.548 297.592 178.365C293.233 119.515 256.907 89 222.034 89C189.341 89 159.191 112.613 147.203 147.487C130.494 193.985 141.391 238.668 161.734 273.905C159.917 276.448 158.828 280.444 159.191 284.44Z" fill="#764ABC"/>
</svg>
