<svg width="450" height="450" viewBox="0 0 450 450" fill="none" xmlns="http://www.w3.org/2000/svg">
<path d="M332.048 241.194C321.674 241.248 312.658 243.747 305.108 247.44C302.338 241.954 299.568 237.066 299.079 233.481C298.536 229.299 297.885 226.747 298.536 221.75C299.188 216.753 302.121 209.638 302.067 209.095C302.012 208.552 301.415 205.999 295.44 205.945C289.466 205.89 284.306 207.085 283.709 208.66C283.111 210.235 281.971 213.82 281.21 217.513C280.178 222.945 269.261 242.335 263.015 252.491C261.006 248.526 259.268 245.05 258.888 242.28C258.344 238.098 257.693 235.545 258.344 230.549C258.996 225.552 261.929 218.437 261.875 217.894C261.82 217.35 261.223 214.798 255.249 214.743C249.274 214.689 244.114 215.884 243.517 217.459C242.919 219.034 242.268 222.727 241.018 226.312C239.769 229.897 225.268 262.268 221.466 270.632C219.51 274.923 217.827 278.344 216.632 280.68C216.632 280.68 216.577 280.843 216.414 281.114C215.382 283.124 214.785 284.21 214.785 284.21C214.785 284.21 214.785 284.21 214.785 284.265C213.97 285.731 213.101 287.089 212.667 287.089C212.341 287.089 211.743 283.178 212.775 277.856C214.948 266.613 220.108 249.124 220.053 248.526C220.053 248.2 221.031 245.159 216.686 243.584C212.45 242.009 210.929 244.616 210.549 244.616C210.168 244.616 209.897 245.539 209.897 245.539C209.897 245.539 214.622 225.878 200.881 225.878C192.299 225.878 180.459 235.274 174.593 243.747C170.9 245.756 163.024 250.047 154.606 254.664C151.401 256.456 148.088 258.248 144.992 259.932C144.775 259.715 144.558 259.443 144.341 259.226C127.721 241.466 96.9792 228.919 98.2827 205.076C98.7716 196.385 101.759 173.574 157.321 145.874C203.053 123.334 239.443 129.58 245.744 143.43C254.76 163.2 226.245 199.916 178.992 205.239C160.96 207.248 151.51 200.296 149.12 197.689C146.622 194.973 146.241 194.81 145.318 195.353C143.797 196.168 144.775 198.612 145.318 200.024C146.73 203.718 152.542 210.235 162.373 213.44C171.063 216.264 192.191 217.839 217.772 207.954C246.395 196.874 268.773 166.079 262.201 140.28C255.629 114.101 212.178 105.465 171.063 120.075C146.622 128.765 120.117 142.452 101.053 160.267C78.404 181.449 74.8193 199.861 76.2858 207.574C81.5542 234.948 119.302 252.763 134.401 265.961C133.641 266.395 132.935 266.776 132.337 267.101C124.788 270.849 96.0016 285.894 88.8322 301.808C80.6852 319.84 90.1357 332.766 96.3818 334.504C115.772 339.881 135.705 330.214 146.404 314.246C157.104 298.277 155.801 277.53 150.858 268.025C150.804 267.916 150.75 267.808 150.641 267.699C152.596 266.558 154.606 265.363 156.561 264.223C160.417 261.942 164.219 259.823 167.478 258.085C165.631 263.137 164.274 269.165 163.622 277.856C162.807 288.066 166.989 301.319 172.475 306.533C174.919 308.814 177.798 308.868 179.644 308.868C186.053 308.868 188.932 303.546 192.136 297.245C196.047 289.533 199.577 280.571 199.577 280.571C199.577 280.571 195.178 304.795 207.127 304.795C211.472 304.795 215.871 299.146 217.827 296.268V296.322C217.827 296.322 217.935 296.159 218.152 295.779C218.587 295.073 218.859 294.638 218.859 294.638V294.53C220.597 291.488 224.507 284.59 230.319 273.13C237.814 258.357 245.038 239.89 245.038 239.89C245.038 239.89 245.689 244.398 247.916 251.894C249.22 256.293 251.935 261.127 254.108 265.798C252.37 268.242 251.284 269.6 251.284 269.6C251.284 269.6 251.284 269.6 251.338 269.654C249.926 271.501 248.405 273.51 246.721 275.466C240.801 282.527 233.74 290.619 232.763 292.955C231.622 295.725 231.894 297.734 234.066 299.364C235.641 300.559 238.466 300.721 241.344 300.559C246.667 300.178 250.415 298.875 252.261 298.06C255.14 297.028 258.507 295.453 261.658 293.118C267.469 288.827 270.999 282.689 270.674 274.597C270.511 270.143 269.044 265.689 267.252 261.507C267.795 260.747 268.284 259.986 268.827 259.226C278.006 245.811 285.121 231.092 285.121 231.092C285.121 231.092 285.773 235.6 288 243.095C289.086 246.897 291.313 251.025 293.268 255.044C284.632 262.05 279.309 270.197 277.408 275.52C273.987 285.405 276.648 289.859 281.699 290.891C283.98 291.38 287.239 290.293 289.629 289.261C292.67 288.284 296.255 286.6 299.677 284.102C305.488 279.811 311.083 273.836 310.757 265.744C310.594 262.05 309.616 258.411 308.258 254.881C315.591 251.839 325.041 250.156 337.099 251.568C362.952 254.609 368.057 270.74 367.08 277.53C366.102 284.319 360.671 288.012 358.879 289.153C357.086 290.293 356.489 290.673 356.652 291.488C356.869 292.683 357.738 292.629 359.259 292.412C361.377 292.031 372.837 286.926 373.326 274.434C374.141 258.466 358.933 241.031 332.048 241.194ZM132.609 308.434C124.027 317.776 112.078 321.306 106.919 318.319C101.379 315.115 103.551 301.319 114.088 291.434C120.497 285.405 128.753 279.811 134.238 276.389C135.487 275.629 137.334 274.542 139.561 273.185C139.941 272.967 140.158 272.859 140.158 272.859C140.593 272.587 141.027 272.316 141.462 272.044C145.318 286.165 141.625 298.603 132.609 308.434ZM195.069 265.961C192.082 273.239 185.836 291.868 182.034 290.836C178.775 289.967 176.766 275.846 181.382 261.887C183.718 254.881 188.66 246.517 191.539 243.258C196.21 238.044 201.37 236.306 202.619 238.424C204.194 241.194 196.916 261.399 195.069 265.961ZM246.613 290.619C245.363 291.271 244.169 291.705 243.625 291.38C243.245 291.162 244.169 290.293 244.169 290.293C244.169 290.293 250.632 283.341 253.185 280.191C254.651 278.344 256.389 276.172 258.236 273.728V274.434C258.236 282.744 250.197 288.338 246.613 290.619ZM286.37 281.549C285.447 280.897 285.61 278.725 288.706 271.935C289.9 269.274 292.725 264.82 297.559 260.53C298.102 262.268 298.482 263.951 298.428 265.526C298.373 276.009 290.878 279.919 286.37 281.549Z" fill="#CD6799"/>
</svg>
