<svg width="450" height="450" viewBox="0 0 450 450" fill="none" xmlns="http://www.w3.org/2000/svg">
<path d="M332.702 212.652C327.054 228.754 314.767 238.168 299.953 244.905C284.446 251.99 267.948 254.368 251.153 255.458C250.608 255.508 250.013 255.26 249.171 255.954C252.887 259.422 254.967 264.228 258.931 267.547C261.012 269.331 263.34 269.132 265.669 268.042C268.84 266.556 271.515 264.376 274.389 262.394C276.469 261.007 278.649 259.818 281.077 259.224C286.725 257.886 293.265 260.958 296.733 266.408C299.805 271.213 299.309 276.465 295.296 281.518C290.391 287.662 283.852 291.625 276.915 295.044C274.339 296.332 271.713 297.521 268.988 298.512C261.507 301.237 254.868 299.751 249.121 294.301C246.198 291.526 243.325 288.702 240.402 285.878C239.212 284.689 238.469 284.64 237.478 286.324C235.051 290.337 231.979 293.954 228.759 297.372C227.867 298.314 227.966 298.859 228.759 299.751C238.37 310.105 248.725 319.667 259.08 329.279C260.17 330.319 261.359 329.972 262.548 329.873C271.812 329.279 281.028 329.427 289.846 332.895C299.111 336.512 303.223 343.944 301.588 353.753C301.043 356.875 299.309 358.807 296.436 359.748C293.859 360.64 291.134 361.086 288.41 361.185C273.645 361.73 259.08 359.847 244.514 357.816C243.275 357.618 242.433 356.825 241.591 356.032C229.799 345.678 218.355 334.976 207.603 323.532C205.077 320.807 202.352 318.28 199.825 315.555C198.884 314.564 198.141 314.614 197.051 315.258C185.606 322.244 173.616 328.04 160.834 332.152C158.803 332.796 158.704 333.589 159.744 335.224C161.23 337.503 162.221 340.079 162.915 342.705C165.64 353.01 156.871 362.275 146.318 360.343C142.701 359.699 139.58 358.014 136.855 355.686C126.55 346.966 119.316 336.215 116.443 322.937C113.916 311.146 122.983 303.367 134.427 307.38C137.053 308.322 139.134 308.024 141.908 306.637C137.846 305.795 134.179 305.002 130.612 303.813C117.632 299.602 107.475 291.972 101.728 279.289C97.8142 270.569 96.6747 261.602 99.796 252.337C100.391 250.504 101.332 248.869 102.471 247.333C107.178 241.091 114.56 240.694 119.911 246.441C123.874 250.702 126.451 255.954 129.473 260.859C132.594 265.912 135.913 270.866 140.273 274.929C143.147 277.604 146.367 279.685 150.331 281.221C149.439 278.05 148.547 275.127 147.754 272.155C146.268 266.606 147.457 261.552 152.213 258.282C159.992 252.981 167.126 246.838 174.855 241.437C176.688 240.149 178.67 239.307 181.147 238.316C177.629 235.839 174.508 233.461 171.684 230.736C163.064 222.561 156.028 213.346 152.907 201.604C152.808 201.307 152.808 200.96 152.758 200.613C152.808 200.068 152.857 199.474 152.313 199.077C152.164 197.938 152.758 196.699 151.916 195.659C151.668 194.519 151.569 193.429 151.768 192.29C151.768 191.993 151.768 191.745 151.718 191.448C151.371 190.209 151.47 189.02 151.718 187.781C151.718 187.583 151.768 187.385 151.768 187.187C151.817 186.345 151.817 185.502 151.867 184.71C153.056 182.431 151.223 182.53 149.885 182.232C149.687 182.084 149.439 181.985 149.241 181.836C149.191 181.737 149.092 181.688 148.993 181.737C148.101 181.291 147.259 180.845 146.367 180.35C146.219 179.359 146.565 178.715 147.655 178.665C148.993 178.913 149.885 179.854 151.074 180.399C151.619 180.647 152.065 181.043 152.461 180.251C152.907 179.904 152.857 179.408 152.808 178.913C154.988 167.419 160.19 157.312 166.829 147.799C167.77 146.412 168.464 145.174 168.315 143.291C166.829 125.852 165.491 108.412 164.104 90.9726C164.054 90.1799 164.005 89.3377 163.906 88C166.878 90.0808 169.554 91.8644 172.229 93.7471C181.791 100.386 191.353 107.025 200.866 113.713C202.253 114.704 203.541 114.952 205.225 114.556C216.323 112.029 227.471 111.286 238.866 112.029C243.721 112.376 249.072 111.385 253.233 107.322C259.724 100.98 266.709 95.1839 273.447 89.0404C274.884 87.7027 275.429 87.6532 275.825 89.7836C278.055 100.683 280.433 111.583 282.662 122.433C282.91 123.721 283.505 124.613 284.496 125.505C290.589 130.855 296.634 136.107 301.44 142.548C307.583 150.772 310.803 160.285 312.389 170.342C312.686 172.225 313.231 173.414 315.064 174.305C320.91 177.129 326.063 180.994 329.828 186.444C331.067 188.227 332.454 187.088 333.841 187.187C335.179 187.633 336.368 186.642 337.656 186.84C337.854 187.038 337.953 187.484 338.3 187.038C338.102 186.989 337.854 186.939 337.656 186.84C339.043 186.246 340.431 185.651 341.768 185.106C342.412 185.998 341.57 186.444 341.57 187.088C340.629 187.633 339.638 188.079 338.498 188.178C337.161 187.583 336.071 188.029 335.08 188.97C334.485 189.367 333.841 189.416 333.197 189.367C332.603 189.317 332.008 189.169 331.711 189.862C331.562 190.308 331.81 190.655 332.256 190.804C334.634 195.213 334.882 199.92 334.436 204.725C333.792 205.518 334.139 206.459 334.039 207.351C334.139 207.45 334.089 207.599 333.99 207.648C333.445 208.045 333.495 208.491 333.742 209.036C334.485 210.027 335.823 209.383 336.665 210.027C337.062 210.274 337.656 210.373 337.458 211.067C337.309 211.513 336.913 211.612 336.517 211.612C336.021 211.612 335.526 211.513 335.129 211.909C334.436 212.107 333.594 211.414 332.95 212.107C332.9 212.306 332.801 212.504 332.702 212.652ZM159.249 207.698C159.199 208.392 159.15 209.036 160.091 209.234C160.24 209.333 160.289 209.531 160.24 209.68C160.289 211.166 160.884 212.355 162.221 213.148C164.996 216.864 167.622 220.728 170.792 224.196C175.846 229.646 181.742 234.006 187.984 237.969C188.034 238.96 188.777 238.96 189.52 238.911C189.669 238.911 189.817 238.96 189.966 239.059C190.065 240.05 191.7 240.397 191.155 241.537C190.858 242.23 189.768 242.081 189.371 241.784C186.696 239.802 184.07 241.685 181.791 242.28C175.697 243.816 171.734 248.968 166.581 252.238C164.451 253.625 163.014 255.706 160.735 256.994C158.307 258.381 155.83 259.818 153.7 261.651C151.173 263.831 150.38 270.916 151.817 274.087C153.353 277.456 154.74 280.874 156.078 284.342C156.524 285.432 156.425 286.522 154.74 286.473C154.096 286.423 153.402 286.473 152.758 286.473C150.331 286.076 148.101 284.987 145.872 283.946C140.67 281.469 136.706 277.505 132.743 273.492C130.711 270.52 128.581 267.547 126.599 264.525C123.379 259.719 120.852 254.517 117.186 250.058C113.123 245.153 107.872 245.797 104.8 251.297C102.372 255.706 102.025 260.512 102.323 265.466C102.719 271.857 105.246 277.505 107.872 283.252C109.358 286.473 110.993 289.099 114.56 290.04C122.14 297.422 131.702 300.494 141.76 302.327C147.705 303.417 153.749 303.516 160.091 303.367C158.208 304.606 156.771 305.894 155.037 306.538C150.232 308.421 145.327 310.056 140.422 311.79C138.093 312.582 136.013 312.731 133.585 311.592C129.869 309.858 125.856 310.254 122.537 312.731C119.316 315.159 119.713 318.775 120.357 322.293C120.505 323.185 120.753 324.077 121.001 324.919C123.131 332.152 126.847 338.494 131.455 344.34C134.774 348.551 138.44 352.465 143.345 354.942C147.953 357.271 152.709 356.627 156.326 353.258C159.645 350.186 160.091 346.272 158.01 341.268C156.474 337.602 154.344 334.332 152.213 331.062C152.412 330.716 152.61 330.418 152.808 330.071C155.83 329.229 158.852 328.536 161.825 327.495C174.36 323.036 186.201 317.24 197.447 310.204C198.24 310.056 199.032 309.907 199.825 309.758C199.974 310.601 200.469 311.096 201.311 311.195C202.798 312.632 204.334 313.97 205.77 315.456C217.859 328.238 230.443 340.575 243.671 352.168C244.514 352.911 245.356 353.654 246.595 353.803C260.417 355.636 274.24 357.42 288.211 356.825C290.54 356.726 292.819 356.478 294.999 355.686C295.94 355.339 296.832 354.942 297.129 353.803C298.12 350.236 298.071 346.817 296.287 343.498C294.008 339.287 290.144 337.206 285.784 335.868C277.411 333.292 268.84 333.639 260.269 334.134C259.179 334.184 258.287 334.233 257.346 333.391C244.96 322.144 232.92 310.65 221.624 298.314C222.169 297.571 223.21 297.273 223.557 296.332C229.106 291.179 233.416 285.086 237.082 278.496C237.578 278.992 237.974 279.636 238.816 279.586L238.915 279.636C239.113 280.181 239.46 280.478 240.055 280.379C244.563 283.352 247.982 287.513 251.846 291.179C256.156 295.242 261.111 296.629 266.858 294.648C268.79 293.954 270.722 293.26 272.605 292.369C279.888 289 286.874 285.135 292.026 278.794C294.206 276.118 295.098 273.046 293.711 269.777C291.085 263.633 283.901 261.354 278.204 264.822C275.726 266.308 273.447 268.092 271.069 269.677C267.552 272.006 263.836 273.74 259.476 272.402C256.057 271.362 253.778 268.786 251.945 265.962C248.378 260.561 243.87 256.251 238.568 252.684C238.519 251.891 239.163 251.544 239.609 251.098C241.888 251.148 244.216 251.198 246.495 251.198C246.595 252.089 247.239 252.288 247.932 252.04C249.617 251.445 251.351 251.743 253.035 251.693C258.039 251.544 262.944 250.9 267.898 250.207C268.592 250.108 269.236 250.108 269.286 249.166C269.831 249.067 270.326 248.968 270.871 248.869C271.267 249.315 271.565 249.117 271.763 248.671C272.258 248.572 272.803 248.473 273.299 248.324C273.844 248.819 274.339 248.77 274.735 248.126C275.082 248.027 275.429 247.977 275.825 247.878C276.37 248.324 276.866 248.274 277.213 247.63C278.402 247.085 279.69 246.788 280.978 246.689L280.879 246.64C281.473 246.491 282.068 246.342 282.662 246.243C284.198 246.59 285.437 245.995 286.626 245.054C287.419 244.806 288.261 244.509 289.054 244.261C289.103 244.41 289.202 244.707 289.202 244.707C292.324 243.964 295.494 243.221 298.616 242.428C298.715 242.379 298.863 242.181 298.863 242.032C299.061 240.447 300.449 240.347 301.539 239.802C303.372 238.911 305.205 238.168 306.939 237.127C313.082 233.51 317.987 228.506 322.743 223.304C323.933 222.016 325.122 220.579 325.122 218.598C325.518 217.855 325.964 217.161 326.36 216.418C326.459 216.418 326.558 216.418 326.608 216.368C329.581 213.891 328.491 210.027 329.779 207.004C329.828 206.509 329.927 206.014 329.977 205.469C331.215 204.824 330.77 203.933 330.324 203.041C330.324 201.703 330.324 200.316 330.274 198.978C330.869 198.384 330.819 197.888 330.026 197.542C329.927 197.046 329.828 196.551 329.779 196.055C330.274 194.965 329.927 194.173 328.936 193.628C328.887 193.429 328.788 193.182 328.738 192.984C328.738 192.884 328.738 192.835 328.639 192.785C328.491 192.389 328.342 192.042 328.193 191.646C328.243 191.2 328.094 190.853 327.648 190.655C327.153 190.605 326.707 190.605 326.212 190.556C325.617 190.06 325.023 189.515 325.221 188.624C326.063 187.484 324.923 186.989 324.428 186.444C320.811 182.282 316.154 179.508 311.15 177.229C310.556 176.436 309.862 175.99 308.871 176.337V176.386C308.078 174.999 308.128 173.414 307.979 171.878C306.889 162.217 303.768 153.249 298.12 145.322C293.314 138.485 286.874 133.134 280.483 127.833C279.046 126.644 278.55 125.307 278.204 123.672C276.469 115.299 274.735 106.926 273.001 98.5528C272.456 95.9766 272.308 95.8775 270.227 97.7106C265.273 102.17 260.269 106.529 255.413 111.137C253.085 113.366 250.558 114.704 247.387 114.952C246.446 114.853 245.554 114.853 244.86 115.645C244.662 115.695 244.415 115.794 244.216 115.844C242.532 115.992 240.897 116.091 239.163 115.992C237.28 115.844 235.348 115.893 233.465 115.844C223.408 115.299 213.499 116.488 203.739 118.866C202.897 118.717 202.451 119.163 202.253 119.906C193.384 114.209 185.011 107.818 176.292 101.872C173.963 100.287 171.635 98.6024 168.959 96.7197C168.959 97.8592 168.91 98.4042 168.959 98.9492C170.198 113.911 171.436 128.874 172.675 143.836C172.774 145.025 173.27 146.313 172.328 147.403C168.315 152.358 165.392 158.006 162.172 163.406C161.23 163.356 160.784 164.149 160.586 164.743C159.695 167.716 158.159 170.54 158.159 173.76C156.375 174.504 157.366 176.039 157.168 177.229C157.118 177.377 157.118 177.575 157.069 177.724C155.533 180.003 156.078 183.075 154.245 185.304C154.195 185.403 154.245 185.651 154.344 185.75C155.582 186.89 155.136 188.376 155.087 189.714C154.839 194.47 155.285 199.127 157.019 203.586C157.267 204.18 157.168 204.924 158.109 204.924C158.208 206.162 158.109 207.153 159.249 207.698Z" fill="#342B29"/>
<path d="M147.705 178.814C146.615 178.913 146.268 179.508 146.417 180.499C140.571 177.922 134.873 174.95 128.68 173.166C127.788 172.919 127.491 172.423 127.739 171.531C127.986 170.491 128.68 170.54 129.473 170.838C135.666 173.166 141.958 175.346 147.705 178.814Z" fill="#573D2C"/>
<path d="M148.794 200.663C142.502 201.505 136.309 200.366 130.067 199.821C129.274 199.771 128.878 199.325 129.026 198.483C129.175 197.74 129.423 197.245 130.315 197.344C132.098 197.542 133.931 197.79 135.715 197.938C139.431 198.235 143.097 198.434 146.813 198.681C146.466 200.316 148.051 200.069 148.794 200.663Z" fill="#573D2C"/>
<path d="M341.57 187.088C341.57 186.444 342.362 185.998 341.768 185.106C340.43 185.701 339.043 186.246 337.656 186.84C336.368 186.593 335.179 187.633 333.841 187.187C339.192 185.75 344.295 183.769 348.853 180.548C349.695 179.954 350.141 180.201 350.686 180.895C351.478 181.886 350.587 182.233 350.042 182.579C347.366 184.413 344.691 186.196 341.57 187.088Z" fill="#573D2C"/>
<path d="M335.178 211.959C335.575 211.563 336.07 211.662 336.565 211.662C337.011 211.662 337.408 211.563 337.507 211.117C337.705 210.473 337.11 210.324 336.714 210.076C339.736 210.176 342.808 210.275 345.83 210.324C346.821 210.324 347.416 210.572 347.416 211.662C347.416 212.752 346.722 212.801 345.929 212.801C342.362 212.752 338.745 212.801 335.178 211.959Z" fill="#573D2C"/>
<path d="M148.795 200.663C148.052 200.068 146.417 200.366 146.813 198.632C148.002 198.582 149.142 198.483 150.331 198.433C151.371 198.978 151.074 199.771 150.777 200.613C150.132 200.613 149.488 200.613 148.795 200.663Z" fill="#342B29"/>
<path d="M150.826 200.564C151.123 199.771 151.42 198.929 150.38 198.384C152.213 198.285 151.916 196.997 151.916 195.808C152.758 196.848 152.163 198.087 152.312 199.226C152.263 199.276 152.163 199.375 152.114 199.424C152.163 199.375 152.263 199.276 152.312 199.226C152.907 199.623 152.808 200.167 152.758 200.762C152.114 200.712 151.47 200.663 150.826 200.564Z" fill="#573D2C"/>
<path d="M149.885 182.381C151.222 182.679 153.056 182.58 151.867 184.859C152.015 183.422 150.628 183.174 149.885 182.381Z" fill="#573D2C"/>
<path d="M335.129 189.02C336.12 188.079 337.21 187.633 338.547 188.228C337.408 188.674 336.318 189.07 335.129 189.02Z" fill="#573D2C"/>
<path d="M332.305 190.853C331.86 190.704 331.612 190.358 331.76 189.912C332.008 189.169 332.652 189.367 333.247 189.416C332.553 189.664 332.157 190.06 332.305 190.853Z" fill="#573D2C"/>
<path d="M334.089 207.401C334.188 206.509 333.841 205.568 334.485 204.775C334.336 205.667 334.237 206.509 334.089 207.401Z" fill="#573D2C"/>
<path d="M333.792 209.085C333.544 208.59 333.495 208.095 334.04 207.698C334.139 208.194 334.089 208.689 333.792 209.085Z" fill="#573D2C"/>
<path d="M152.807 179.062C152.857 179.557 152.906 180.052 152.46 180.399C152.609 179.953 152.708 179.507 152.807 179.062Z" fill="#573D2C"/>
<path d="M332.702 212.652C332.801 212.504 332.9 212.355 333.048 212.157C333.048 212.405 333.098 212.702 332.702 212.652Z" fill="#573D2C"/>
<path d="M151.768 187.385C151.768 187.583 151.718 187.781 151.718 187.979C151.669 187.831 151.619 187.682 151.619 187.533C151.619 187.484 151.718 187.434 151.768 187.385Z" fill="#573D2C"/>
<path d="M148.993 181.886C149.092 181.886 149.191 181.935 149.24 181.985L149.092 182.034L148.993 181.886Z" fill="#573D2C"/>
<path d="M151.718 191.596C151.718 191.893 151.718 192.141 151.768 192.438C151.52 192.191 151.47 191.893 151.718 191.596Z" fill="#573D2C"/>
<path d="M160.288 209.631C160.288 209.432 160.239 209.284 160.14 209.185C160.14 208.541 159.842 208.045 159.297 207.649C159.297 206.708 159 205.865 158.307 205.172C158.356 203.983 157.662 202.992 157.415 201.852C157.167 200.911 157.266 200.168 158.455 200.118C159.446 200.069 160.041 199.672 159.941 198.632C159.842 197.344 158.901 197.344 157.96 197.443C157.167 197.492 156.424 197.443 156.325 196.402C155.978 193.281 155.78 190.11 156.325 186.989C157.365 187.138 157.861 187.683 158.455 188.079C159.149 188.475 159.793 189.516 160.734 188.376C161.775 187.138 160.734 186.444 159.941 186.048C156.672 184.512 155.879 182.183 157.167 178.913C157.266 178.616 157.167 178.269 157.167 177.923C157.217 177.774 157.217 177.576 157.266 177.427C157.811 176.337 158.257 175.247 158.257 173.959C159.595 170.491 160.932 167.023 162.27 163.604C165.54 158.154 168.413 152.506 172.427 147.602C173.318 146.512 172.872 145.224 172.773 144.034C171.535 129.072 170.296 114.11 169.058 99.1477C169.008 98.6027 169.058 98.0082 169.058 96.9183C171.733 98.8009 174.061 100.485 176.39 102.071C185.11 108.016 193.483 114.407 202.351 120.105C203.936 122.186 206.166 123.573 207.9 123.622C207.85 123.474 207.801 123.276 207.652 123.177C206.562 122.334 205.472 121.442 204.333 120.65C203.738 120.204 203.292 119.857 203.788 119.064C213.548 116.686 223.457 115.497 233.514 116.042C233.712 116.141 233.911 116.389 234.158 116.389C240.896 116.884 247.585 117.677 254.075 119.461C254.422 119.56 254.917 119.609 255.016 118.817C254.62 118.668 254.174 118.569 253.728 118.42C250.656 117.33 247.287 117.281 244.265 115.993C244.463 115.943 244.711 115.844 244.909 115.794C245.851 115.943 246.643 115.596 247.436 115.101C250.607 114.853 253.134 113.515 255.462 111.286C260.268 106.678 265.272 102.319 270.276 97.8596C272.307 96.0265 272.505 96.076 273.05 98.7018C274.784 107.075 276.518 115.448 278.252 123.821C278.599 125.406 279.095 126.793 280.531 127.982C286.922 133.283 293.314 138.634 298.119 145.471C303.718 153.398 306.889 162.366 307.979 172.027C308.127 173.563 308.078 175.148 308.87 176.535C306.938 176.833 305.452 176.188 304.312 174.504C303.421 173.166 302.677 171.68 301.092 170.937C301.835 166.23 301.439 161.573 299.903 157.065C296.286 146.512 290.242 137.941 279.64 133.482C270.523 129.667 262.844 133.878 260.862 143.49C259.673 149.088 260.912 154.439 262.894 159.69C265.52 166.527 269.83 172.126 275.28 176.981C275.032 178.814 274.437 180.499 272.852 181.638C266.411 180.697 259.921 180.796 253.48 180.548C249.566 180.4 248.675 181.638 249.418 185.453C248.476 185.651 247.684 185.255 246.841 185.007C242.68 183.868 238.815 181.985 234.852 180.4C237.676 172.919 236.834 165.586 233.514 158.551C228.708 148.444 221.673 140.963 209.783 139.625C203.094 138.882 196.753 142.499 193.879 148.593C190.064 156.569 191.352 164.347 194.721 171.977C197.843 179.161 203.045 184.512 209.832 188.327C205.571 189.466 201.162 190.308 197.248 192.439C193.582 194.421 190.064 196.848 189.172 201.159C187.686 208.095 188.826 214.734 192.393 220.927C195.167 225.732 198.933 229.597 203.193 233.065C205.819 235.146 208.445 237.177 211.319 238.911C219.295 243.766 227.916 247.185 236.635 250.306C236.289 251.198 235.496 250.851 234.951 250.802C231.186 250.455 227.42 250.157 223.704 249.662C215.877 248.572 208.346 246.392 200.815 244.064C197.198 242.429 193.631 240.794 190.015 239.109C189.866 239.01 189.767 238.961 189.569 238.961C189.172 238.465 188.677 238.118 188.033 238.019C181.79 234.056 175.895 229.696 170.841 224.246C167.621 220.828 165.045 216.963 162.27 213.198C161.824 211.811 161.23 210.621 160.288 209.631Z" fill="#F3A226"/>
<path d="M272.804 181.588C274.439 180.449 274.984 178.814 275.231 176.931C276.569 177.724 277.907 178.516 279.244 179.309C287.072 183.768 298.022 183.719 301.093 170.936C302.629 171.679 303.422 173.166 304.314 174.503C305.404 176.188 306.89 176.832 308.872 176.535V176.485C309.169 177.972 310.308 177.327 311.151 177.377C316.105 179.656 320.762 182.381 324.428 186.592C324.924 187.187 326.113 187.633 325.221 188.772C323.784 188.921 322.298 189.119 320.861 189.218C319.97 189.268 319.573 189.614 319.672 190.556C319.771 191.596 320.316 191.745 321.159 191.596C322.843 191.299 324.528 191.002 326.212 190.754C326.707 190.803 327.153 190.803 327.649 190.853C327.649 191.249 327.797 191.596 328.194 191.844C328.342 192.24 328.491 192.587 328.64 192.934L328.541 193.082L328.689 193.181C328.739 193.38 328.838 193.627 328.887 193.826C329.086 194.668 329.086 195.56 329.73 196.253C329.829 196.749 329.928 197.244 329.977 197.74C329.829 198.285 329.977 198.73 330.225 199.176C330.225 200.514 330.225 201.901 330.275 203.239C329.977 204.032 329.73 204.824 329.928 205.667C329.878 206.162 329.779 206.657 329.73 207.202C329.185 208.045 328.541 208.391 327.55 207.995C325.816 207.301 323.983 206.757 322.249 206.063C321.406 205.766 320.713 205.419 320.267 206.608C319.87 207.747 320.514 208.094 321.406 208.342C321.852 208.491 322.348 208.689 322.794 208.887C324.528 209.779 327.302 209.432 328.144 210.968C329.086 212.751 326.807 214.584 326.361 216.616C325.964 217.359 325.518 218.053 325.122 218.796C324.775 219.142 324.428 219.489 324.181 219.886C319.92 226.029 314.272 230.488 308.029 234.501C301.985 238.415 295.544 241.437 289.054 244.36C288.261 244.608 287.419 244.905 286.626 245.153C285.239 245.351 283.902 245.648 282.663 246.342C282.068 246.491 281.474 246.639 280.879 246.738H280.929L280.978 246.788C279.69 246.937 278.402 247.184 277.213 247.729C276.718 247.531 276.222 247.581 275.826 247.977C275.479 248.076 275.132 248.126 274.736 248.225C274.24 248.027 273.745 248.076 273.299 248.423C272.804 248.522 272.259 248.621 271.763 248.77C271.416 248.621 271.119 248.621 270.872 248.968C270.327 249.067 269.831 249.166 269.286 249.265C261.755 250.355 254.126 250.801 246.545 251.296C244.266 251.247 241.938 251.197 239.659 251.197C238.668 250.851 237.628 250.553 236.637 250.207C227.867 247.085 219.296 243.617 211.32 238.811C208.446 237.077 205.82 235.046 203.195 232.965C198.934 229.497 195.168 225.633 192.394 220.827C188.827 214.634 187.687 207.995 189.174 201.059C190.115 196.749 193.633 194.321 197.249 192.339C201.163 190.209 205.573 189.416 209.833 188.227C212.657 189.069 215.382 190.258 218.355 190.407C226.133 190.803 231.435 187.137 234.853 180.35C238.817 181.935 242.681 183.768 246.843 184.957C247.685 185.205 248.527 185.651 249.419 185.403C251.549 187.732 253.977 189.664 256.652 191.249C265.669 196.6 269.534 195.262 273.497 185.453C273.596 185.205 273.696 185.007 273.795 184.759C274.191 183.52 274.042 182.381 272.804 181.588ZM255.216 238.217C256.504 238.068 258.386 238.019 260.269 237.721C273.943 235.294 284.248 227.367 293.364 217.458C294.653 216.071 293.959 215.873 292.572 215.625C286.626 214.634 280.681 213.594 274.785 212.504C259.575 209.729 245.109 204.428 230.444 199.721C224.697 197.888 224.697 197.839 223.309 203.734C221.08 213.148 221.922 221.917 229.701 228.655C236.785 234.749 245.158 237.969 255.216 238.217Z" fill="#FCFBFA"/>
<path d="M238.519 252.783C243.82 256.35 248.378 260.71 251.896 266.06C253.778 268.884 256.008 271.461 259.426 272.501C263.786 273.839 267.502 272.105 271.02 269.776C273.398 268.191 275.677 266.407 278.154 264.921C283.901 261.453 291.035 263.682 293.661 269.875C295.048 273.096 294.157 276.217 291.977 278.892C286.775 285.234 279.838 289.098 272.555 292.467C270.673 293.309 268.741 294.053 266.808 294.746C261.111 296.728 256.107 295.341 251.797 291.278C247.932 287.612 244.563 283.401 240.005 280.478C239.757 280.032 239.46 279.685 238.866 279.734L238.767 279.685C237.974 278.248 238.618 277.059 239.312 275.771C240.154 274.285 241.145 272.798 241.244 270.42C238.965 272.303 239.262 275.127 237.429 276.613C235.943 273.145 233.713 270.42 230.443 268.389C219.94 261.948 213.301 263.236 205.374 271.114C204.284 272.204 203.689 273.492 203.789 275.127C204.086 280.874 207.504 284.788 211.617 288.058C212.508 288.751 213.995 289.148 214.837 290.188C215.828 291.377 216.769 292.616 217.71 293.854C218.255 295.985 219.989 297.174 221.575 298.412C232.871 310.749 244.96 322.243 257.296 333.49C258.237 334.332 259.129 334.282 260.219 334.233C268.79 333.737 277.361 333.341 285.734 335.967C290.094 337.304 293.958 339.385 296.237 343.597C298.021 346.916 298.071 350.384 297.08 353.902C296.782 354.992 295.891 355.438 294.949 355.784C292.769 356.577 290.49 356.825 288.162 356.924C274.19 357.518 260.368 355.735 246.545 353.902C245.306 353.753 244.464 353.01 243.622 352.267C230.344 340.673 217.809 328.337 205.721 315.555C204.334 314.068 202.748 312.681 201.262 311.294C201.064 310.551 200.519 310.105 199.776 309.857C197.695 307.182 195.019 305.15 192.592 302.822C191.7 301.93 191.056 300.592 189.421 300.89C189.569 299.403 187.935 299.057 187.489 297.967C191.452 293.458 191.7 289.891 188.38 283.995C186.448 280.577 183.872 277.703 181.147 274.929C179.611 273.343 180.107 272.65 181.642 271.659C184.615 269.727 187.489 267.646 190.412 265.614C194.573 262.741 198.487 259.669 201.113 255.21C202.897 252.138 203.293 249.017 201.212 245.946C201.906 245.103 202.6 245.599 203.392 245.896C211.914 249.017 220.683 250.652 229.7 251.544C232.673 251.742 235.843 250.949 238.519 252.783Z" fill="#F3A226"/>
<path d="M197.447 310.254C186.2 317.289 174.359 323.135 161.825 327.545C158.902 328.585 155.83 329.279 152.808 330.121C152.51 329.972 152.114 329.625 152.015 329.675C150.826 330.616 148.894 329.873 148.052 331.409C149.538 332.004 150.876 331.112 152.263 331.062C154.443 334.332 156.523 337.602 158.059 341.268C160.19 346.322 159.694 350.186 156.375 353.258C152.758 356.627 148.002 357.271 143.394 354.942C138.49 352.465 134.873 348.601 131.504 344.34C126.896 338.494 123.18 332.103 121.05 324.919C120.802 324.027 120.604 323.185 120.406 322.293C119.762 318.775 119.316 315.159 122.586 312.731C125.905 310.254 129.869 309.857 133.634 311.591C136.062 312.731 138.192 312.582 140.471 311.79C145.327 310.056 150.281 308.421 155.087 306.538C156.771 305.894 158.258 304.556 160.14 303.367C153.799 303.516 147.754 303.417 141.809 302.327C131.702 300.494 122.19 297.471 114.609 290.04C114.659 288.058 114.609 286.076 114.758 284.144C115.204 278.992 116.789 276.96 121.1 275.276C124.221 274.037 127.392 274.533 130.612 274.533C131.454 274.533 132.742 275.127 132.792 273.492C136.755 277.505 140.719 281.469 145.921 283.946C148.151 284.986 150.331 286.027 152.808 286.473C155.087 287.166 157.019 288.108 158.208 290.486C159.892 293.756 162.32 296.53 165.293 298.76C165.937 299.255 166.036 299.701 165.689 300.345C165.491 300.395 165.243 300.395 165.045 300.444C165.095 300.543 165.144 300.593 165.144 300.692C165.293 300.593 165.491 300.444 165.64 300.345C166.432 300.246 167.275 300.147 168.067 300.543C174.409 303.764 180.305 302.376 186.052 299.007C187.538 298.958 187.934 300.84 189.421 300.89C191.501 303.615 194.177 305.745 196.654 308.123C197.397 308.718 198.19 309.164 197.447 310.254ZM163.162 301.435C162.37 301.881 161.527 302.327 160.19 303.02C161.973 303.07 162.568 302.079 163.162 301.435Z" fill="#F3A226"/>
<path d="M217.76 293.855C216.819 292.616 215.878 291.377 214.887 290.188C213.995 289.148 212.509 288.752 211.667 288.058C207.554 284.788 204.136 280.825 203.839 275.127C203.74 273.542 204.384 272.204 205.424 271.114C213.351 263.236 219.99 261.948 230.493 268.389C233.763 270.42 235.993 273.195 237.479 276.613C237.38 277.257 237.231 277.901 237.132 278.595C233.466 285.184 229.156 291.278 223.607 296.431C222.517 297.372 221.575 297.224 220.584 296.134C219.742 295.242 218.95 294.251 217.76 293.855Z" fill="#FCFBFA"/>
<path d="M132.792 273.493C132.693 275.177 131.454 274.533 130.612 274.533C127.441 274.583 124.221 274.087 121.1 275.276C116.789 276.961 115.154 278.992 114.758 284.145C114.609 286.126 114.659 288.108 114.609 290.04C111.042 289.05 109.407 286.424 107.921 283.253C105.295 277.555 102.768 271.858 102.372 265.467C102.075 260.562 102.422 255.756 104.849 251.297C107.921 245.748 113.222 245.154 117.235 250.058C120.901 254.517 123.478 259.72 126.649 264.525C128.68 267.547 130.761 270.52 132.792 273.493Z" fill="#FCFBFA"/>
<path d="M165.739 300.345C166.036 299.701 165.986 299.206 165.342 298.76C162.37 296.53 159.942 293.756 158.258 290.486C157.019 288.157 155.087 287.216 152.857 286.473C153.501 286.473 154.195 286.423 154.839 286.473C156.524 286.522 156.623 285.432 156.177 284.342C154.839 280.924 153.452 277.456 151.916 274.087C150.479 270.916 151.222 263.881 153.799 261.651C155.929 259.818 158.406 258.381 160.834 256.994C163.113 255.706 164.55 253.576 166.68 252.238C171.783 248.968 175.796 243.766 181.89 242.28C184.169 241.685 186.795 239.802 189.47 241.784C189.867 242.082 190.957 242.181 191.254 241.537C191.799 240.397 190.164 240.05 190.065 239.059C193.682 240.694 197.249 242.329 200.865 244.014C199.676 245.005 200.717 245.401 201.361 245.896C203.442 249.018 203.095 252.089 201.262 255.161C198.636 259.62 194.722 262.692 190.56 265.565C187.637 267.597 184.764 269.677 181.791 271.61C180.255 272.601 179.76 273.344 181.296 274.88C183.971 277.654 186.597 280.528 188.529 283.946C191.799 289.842 191.601 293.409 187.637 297.917C187.092 298.165 186.448 298.264 186.2 298.958C180.453 302.327 174.508 303.714 168.216 300.494C167.324 300.097 166.531 300.246 165.739 300.345ZM187.043 242.775C183.723 242.527 180.602 243.865 177.827 245.797C170.099 251.148 163.063 257.391 155.186 262.593C152.709 264.228 151.767 267.052 152.511 270.074C154.443 278.05 157.366 285.631 162.37 292.319C167.076 298.611 173.022 301.237 179.264 299.305C187.984 296.629 191.204 292.022 185.11 283.352C182.138 279.14 178.372 275.672 175.103 271.758C174.657 271.213 173.616 270.619 174.657 269.727C175.499 268.984 176.292 269.083 176.936 270.024C177.827 271.263 178.67 270.767 179.661 270.074C183.872 267.052 188.133 264.079 192.344 261.057C194.92 259.224 197.1 256.994 198.785 254.319C201.212 250.454 200.37 247.135 196.357 245.005C193.533 243.518 190.511 242.626 187.043 242.775Z" fill="#573D2C"/>
<path d="M289.054 244.41C295.544 241.437 301.985 238.415 308.029 234.551C314.222 230.538 319.92 226.029 324.18 219.935C324.478 219.539 324.824 219.192 325.122 218.845C325.122 220.827 323.933 222.214 322.744 223.552C318.037 228.754 313.082 233.758 306.939 237.375C305.205 238.415 303.322 239.158 301.539 240.05C300.449 240.545 299.062 240.694 298.863 242.279C298.863 242.428 298.715 242.676 298.616 242.676C295.494 243.469 292.324 244.212 289.202 244.955C289.202 244.856 289.103 244.558 289.054 244.41Z" fill="#573D2C"/>
<path d="M157.218 177.972C157.218 178.318 157.317 178.665 157.218 178.963C155.88 182.232 156.722 184.561 159.992 186.097C160.785 186.493 161.825 187.137 160.785 188.425C159.843 189.565 159.15 188.525 158.506 188.128C157.862 187.732 157.366 187.187 156.375 187.038C155.83 190.209 156.029 193.33 156.375 196.452C156.474 197.492 157.218 197.542 158.01 197.492C158.952 197.442 159.893 197.393 159.992 198.681C160.091 199.771 159.447 200.118 158.506 200.167C157.317 200.217 157.218 200.96 157.465 201.901C157.763 202.991 158.456 203.982 158.357 205.221C157.416 205.221 157.515 204.478 157.267 203.883C155.484 199.424 155.038 194.767 155.335 190.011C155.384 188.673 155.83 187.187 154.592 186.047C154.493 185.948 154.394 185.651 154.493 185.601C156.177 183.322 155.632 180.251 157.218 177.972Z" fill="#573D2C"/>
<path d="M201.262 245.847C200.618 245.351 199.578 244.955 200.767 243.964C208.297 246.292 215.828 248.472 223.656 249.562C227.372 250.107 231.137 250.405 234.903 250.702C235.497 250.751 236.24 251.098 236.587 250.206C237.578 250.553 238.618 250.85 239.609 251.197C239.114 251.643 238.47 251.94 238.569 252.783C235.893 250.95 232.723 251.742 229.8 251.445C220.783 250.504 211.964 248.918 203.492 245.797C202.6 245.45 201.956 245.004 201.262 245.847Z" fill="#9F621A"/>
<path d="M326.36 216.616C326.757 214.634 329.036 212.751 328.144 210.968C327.302 209.432 324.577 209.779 322.793 208.887C322.347 208.689 321.901 208.49 321.406 208.342C320.514 208.094 319.87 207.747 320.266 206.608C320.712 205.419 321.406 205.766 322.248 206.063C324.032 206.707 325.815 207.301 327.549 207.995C328.59 208.391 329.234 208.094 329.729 207.202C328.392 210.224 329.531 214.089 326.558 216.566C326.509 216.616 326.41 216.616 326.36 216.616Z" fill="#573D2C"/>
<path d="M246.445 251.346C254.026 250.801 261.655 250.405 269.186 249.315C269.136 250.207 268.492 250.257 267.799 250.356C262.894 251.099 257.939 251.693 252.936 251.842C251.251 251.891 249.517 251.594 247.833 252.189C247.238 252.436 246.544 252.238 246.445 251.346Z" fill="#573D2C"/>
<path d="M244.315 115.992C247.338 117.281 250.707 117.33 253.778 118.42C254.224 118.569 254.67 118.668 255.067 118.816C254.967 119.609 254.472 119.56 254.125 119.461C247.585 117.677 240.897 116.884 234.209 116.389C234.01 116.389 233.812 116.141 233.564 116.042C235.447 116.092 237.379 116.042 239.262 116.191C240.946 116.24 242.631 116.141 244.315 115.992Z" fill="#9F621A"/>
<path d="M326.211 190.754C324.527 191.051 322.842 191.299 321.158 191.596C320.316 191.745 319.771 191.596 319.672 190.556C319.573 189.565 319.969 189.268 320.861 189.218C322.297 189.119 323.784 188.921 325.221 188.772C325.022 189.714 325.567 190.259 326.211 190.754Z" fill="#573D2C"/>
<path d="M197.447 310.254C198.19 309.214 197.398 308.718 196.704 308.074C194.227 305.696 191.552 303.566 189.471 300.841C191.106 300.593 191.7 301.881 192.642 302.773C195.02 305.102 197.745 307.133 199.825 309.808C199.033 309.957 198.24 310.106 197.447 310.254Z" fill="#9F621A"/>
<path d="M237.083 278.546C237.182 277.902 237.33 277.258 237.429 276.564C239.312 275.078 239.015 272.204 241.244 270.371C241.195 272.749 240.154 274.186 239.312 275.722C238.618 276.961 237.974 278.199 238.767 279.636C237.974 279.735 237.578 279.091 237.083 278.546Z" fill="#9F621A"/>
<path d="M162.272 163.654C160.934 167.122 159.596 170.59 158.258 174.008C158.209 170.788 159.794 167.964 160.686 164.991C160.884 164.397 161.33 163.554 162.272 163.654Z" fill="#573D2C"/>
<path d="M217.76 293.855C218.949 294.301 219.742 295.242 220.535 296.134C221.526 297.224 222.467 297.372 223.557 296.431C223.21 297.422 222.17 297.67 221.625 298.413C220.039 297.174 218.305 295.985 217.76 293.855Z" fill="#9F621A"/>
<path d="M203.837 119.015C203.342 119.758 203.738 120.154 204.382 120.6C205.522 121.393 206.612 122.284 207.702 123.127C207.801 123.226 207.85 123.424 207.949 123.573C206.215 123.573 203.986 122.136 202.4 120.055C202.549 119.312 202.995 118.915 203.837 119.015Z" fill="#9F621A"/>
<path d="M152.263 331.112C150.827 331.161 149.489 332.053 148.052 331.459C148.944 329.923 150.876 330.666 152.016 329.724C152.115 329.625 152.561 329.972 152.808 330.17C152.61 330.468 152.462 330.765 152.263 331.112Z" fill="#9F621A"/>
<path d="M282.663 246.392C283.901 245.649 285.239 245.352 286.626 245.203C285.437 246.144 284.198 246.689 282.663 246.392Z" fill="#573D2C"/>
<path d="M160.288 209.63C161.229 210.621 161.824 211.81 162.27 213.098C160.932 212.355 160.288 211.166 160.288 209.63Z" fill="#573D2C"/>
<path d="M158.307 174.008C158.307 175.246 157.861 176.386 157.316 177.476C157.514 176.287 156.474 174.751 158.307 174.008Z" fill="#573D2C"/>
<path d="M329.927 205.716C329.779 204.874 329.977 204.082 330.274 203.289C330.77 204.181 331.166 205.072 329.927 205.716Z" fill="#573D2C"/>
<path d="M329.729 196.253C329.134 195.56 329.085 194.668 328.887 193.826C329.878 194.371 330.274 195.163 329.729 196.253Z" fill="#573D2C"/>
<path d="M158.307 205.171C159.001 205.865 159.249 206.707 159.298 207.649C158.109 207.153 158.208 206.162 158.307 205.171Z" fill="#573D2C"/>
<path d="M330.274 199.226C329.977 198.78 329.828 198.285 330.026 197.789C330.819 198.136 330.869 198.631 330.274 199.226Z" fill="#573D2C"/>
<path d="M275.775 248.027C276.171 247.581 276.667 247.581 277.162 247.779C276.815 248.473 276.32 248.473 275.775 248.027Z" fill="#573D2C"/>
<path d="M273.298 248.472C273.744 248.076 274.19 248.076 274.735 248.274C274.339 248.968 273.843 249.017 273.298 248.472Z" fill="#573D2C"/>
<path d="M247.487 115.051C246.744 115.596 245.901 115.943 244.96 115.744C245.654 114.952 246.545 114.952 247.487 115.051Z" fill="#9F621A"/>
<path d="M159.249 207.698C159.744 208.095 160.091 208.54 160.091 209.234C159.199 209.036 159.199 208.342 159.249 207.698Z" fill="#573D2C"/>
<path d="M311.15 177.427C310.308 177.328 309.119 178.022 308.871 176.535C309.862 176.188 310.556 176.634 311.15 177.427Z" fill="#F3A226"/>
<path d="M199.825 309.808C200.519 310.056 201.064 310.502 201.312 311.245C200.42 311.146 199.974 310.65 199.825 309.808Z" fill="#9F621A"/>
<path d="M187.984 237.92C188.628 238.019 189.123 238.366 189.52 238.862C188.777 238.911 188.083 238.911 187.984 237.92Z" fill="#573D2C"/>
<path d="M270.822 249.018C271.069 248.721 271.367 248.671 271.714 248.82C271.466 249.266 271.218 249.464 270.822 249.018Z" fill="#573D2C"/>
<path d="M238.916 279.685C239.51 279.636 239.807 279.983 240.055 280.429C239.461 280.528 239.114 280.23 238.916 279.685Z" fill="#9F621A"/>
<path d="M328.193 191.844C327.797 191.646 327.698 191.299 327.648 190.854C328.094 191.052 328.193 191.398 328.193 191.844Z" fill="#573D2C"/>
<path d="M337.607 186.89C337.805 186.939 338.053 186.989 338.251 187.088C337.904 187.484 337.805 187.038 337.607 186.89Z" fill="#573D2C"/>
<path d="M280.978 246.838L280.928 246.788H280.829L280.978 246.838Z" fill="#573D2C"/>
<path d="M328.738 193.182L328.59 193.083L328.689 192.934C328.689 192.984 328.738 193.083 328.738 193.182Z" fill="#573D2C"/>
<path d="M152.312 199.275C152.262 199.325 152.163 199.424 152.114 199.474C152.163 199.374 152.262 199.325 152.312 199.275Z" fill="#342B29"/>
<path d="M234.803 180.35C231.434 187.137 226.083 190.804 218.305 190.407C215.332 190.259 212.607 189.07 209.783 188.227C202.996 184.412 197.793 179.062 194.672 171.878C191.303 164.248 190.015 156.47 193.83 148.493C196.753 142.449 203.045 138.782 209.733 139.526C221.624 140.863 228.659 148.344 233.465 158.451C236.784 165.536 237.577 172.869 234.803 180.35ZM194.028 160.483C194.375 168.657 198.636 176.684 206.166 182.926C210.031 186.146 214.589 188.227 219.741 188.178C227.024 188.128 232.672 182.53 233.663 174.603C235.199 162.762 227.421 148.79 216.521 143.836C212.161 141.854 207.752 140.962 203.095 142.845C197.248 145.273 194.028 150.921 194.028 160.483Z" fill="#573D2C"/>
<path d="M301.093 170.937C298.021 183.719 287.072 183.768 279.244 179.309C277.906 178.566 276.569 177.724 275.231 176.931C269.831 172.076 265.471 166.478 262.845 159.641C260.814 154.389 259.625 149.038 260.814 143.44C262.795 133.828 270.524 129.617 279.591 133.432C290.193 137.891 296.287 146.462 299.854 157.015C301.44 161.573 301.836 166.23 301.093 170.937ZM299.062 166.18C298.963 158.6 295.841 151.862 291.283 145.719C287.766 141.012 283.455 137.197 277.758 135.315C270.128 132.788 264.232 136.603 263.192 144.53C262.35 151.069 263.935 157.163 267.056 162.811C271.02 170.045 276.222 176.139 284.446 178.864C291.927 181.341 298.12 177.179 298.913 169.351C298.963 168.41 299.012 167.419 299.062 166.18Z" fill="#573D2C"/>
<path d="M272.803 181.588C274.091 182.381 274.19 183.52 273.745 184.808C273.645 185.056 273.546 185.254 273.447 185.502C269.484 195.312 265.619 196.6 256.602 191.299C253.877 189.713 251.45 187.781 249.369 185.453C248.626 181.638 249.518 180.399 253.432 180.548C259.872 180.746 266.362 180.647 272.803 181.588Z" fill="#573D2C"/>
<path d="M255.215 238.217C245.158 237.97 236.785 234.749 229.7 228.655C221.922 221.917 221.079 213.198 223.309 203.735C224.696 197.889 224.696 197.889 230.443 199.722C245.108 204.428 259.575 209.68 274.785 212.504C280.681 213.594 286.626 214.634 292.571 215.625C293.959 215.873 294.702 216.022 293.364 217.458C284.248 227.318 273.943 235.294 260.269 237.722C258.436 238.019 256.503 238.069 255.215 238.217ZM290.045 217.756C288.558 217.458 287.766 217.26 286.973 217.112C274.488 215.13 262.201 212.554 250.162 208.59C242.879 206.212 235.546 203.933 228.263 201.604C227.57 201.406 226.727 200.613 226.282 202.001C223.903 209.928 223.259 217.756 229.106 224.494C235.348 231.727 243.82 235.294 253.134 235.691C268.245 236.384 279.294 227.912 290.045 217.756Z" fill="#573D2C"/>
<path d="M186.101 298.958C186.299 298.264 186.992 298.165 187.537 297.917C187.983 299.007 189.618 299.305 189.47 300.841C188.033 300.791 187.636 298.908 186.101 298.958Z" fill="#9F621A"/>
<path d="M163.163 301.435C162.568 302.079 161.974 303.07 160.19 303.021C161.528 302.278 162.32 301.881 163.163 301.435Z" fill="#342B29"/>
<path d="M165.69 300.345C165.541 300.444 165.343 300.593 165.194 300.692C165.145 300.593 165.095 300.543 165.095 300.444C165.293 300.444 165.492 300.395 165.69 300.345C165.69 300.345 165.739 300.345 165.69 300.345Z" fill="#573D2C"/>
<path d="M187.043 242.775C190.511 242.626 193.533 243.518 196.307 245.004C200.32 247.135 201.163 250.405 198.735 254.319C197.05 257.044 194.87 259.223 192.294 261.057C188.083 264.079 183.822 267.051 179.611 270.074C178.62 270.767 177.778 271.263 176.886 270.024C176.242 269.083 175.449 268.984 174.607 269.727C173.567 270.619 174.607 271.263 175.053 271.758C178.323 275.722 182.088 279.14 185.061 283.351C191.155 292.022 187.934 296.629 179.215 299.304C173.022 301.237 167.027 298.561 162.32 292.319C157.366 285.68 154.393 278.1 152.461 270.074C151.718 267.051 152.659 264.227 155.136 262.592C163.014 257.44 170.049 251.148 177.778 245.797C180.602 243.865 183.723 242.527 187.043 242.775Z" fill="#F3A226"/>
<path d="M194.028 160.483C193.978 150.921 197.248 145.273 203.144 142.845C207.752 140.963 212.211 141.904 216.57 143.836C227.42 148.741 235.248 162.762 233.713 174.603C232.672 182.53 227.074 188.128 219.791 188.178C214.638 188.227 210.08 186.097 206.216 182.926C198.635 176.684 194.424 168.658 194.028 160.483ZM222.466 172.324C222.466 170.094 220.683 168.212 218.651 168.261C216.669 168.311 215.134 170.045 215.134 172.274C215.084 174.702 216.62 176.337 218.849 176.238C220.93 176.188 222.466 174.454 222.466 172.324Z" fill="#FCFBFA"/>
<path d="M299.061 166.18C299.012 167.419 298.962 168.41 298.863 169.401C298.07 177.229 291.877 181.39 284.396 178.913C276.222 176.238 271.019 170.144 267.006 162.861C263.885 157.213 262.3 151.119 263.142 144.579C264.182 136.603 270.128 132.837 277.708 135.364C283.405 137.247 287.716 141.062 291.233 145.768C295.841 151.862 298.962 158.6 299.061 166.18ZM290.49 166.032C290.441 163.753 288.756 162.019 286.675 162.068C284.644 162.118 283.009 164.001 283.059 166.28C283.108 168.46 284.694 170.144 286.725 170.144C288.756 170.094 290.49 168.212 290.49 166.032Z" fill="#FCFBFA"/>
<path d="M290.044 217.756C279.293 227.912 268.245 236.384 253.134 235.69C243.82 235.294 235.348 231.727 229.105 224.494C223.259 217.756 223.903 209.928 226.281 202.001C226.677 200.613 227.569 201.406 228.263 201.604C235.546 203.933 242.878 206.162 250.161 208.59C262.151 212.553 274.487 215.13 286.972 217.112C287.765 217.26 288.558 217.458 290.044 217.756Z" fill="#FCFBFA"/>
<path d="M222.467 172.324C222.467 174.504 220.931 176.188 218.85 176.238C216.621 176.337 215.085 174.702 215.134 172.274C215.184 170.045 216.67 168.311 218.652 168.261C220.683 168.162 222.417 170.094 222.467 172.324Z" fill="#342B29"/>
<path d="M290.49 166.032C290.49 168.212 288.806 170.094 286.725 170.094C284.694 170.094 283.108 168.41 283.059 166.23C283.009 163.951 284.644 162.068 286.675 162.019C288.756 161.969 290.441 163.753 290.49 166.032Z" fill="#342B29"/>
</svg>
