<svg width="450" height="450" viewBox="0 0 450 450" fill="none" xmlns="http://www.w3.org/2000/svg">
<path d="M188.624 89.1824C173.635 89.1824 161.387 101.43 161.387 116.419C161.387 131.408 173.635 143.656 188.624 143.656H215.86V116.419C215.86 101.43 203.796 89.1824 188.624 89.1824ZM188.624 161.752H116.237C101.247 161.752 89 174 89 188.989C89 203.978 101.247 216.226 116.237 216.226H188.807C203.796 216.226 216.043 203.978 216.043 188.989C215.86 174 203.796 161.752 188.624 161.752Z" fill="#36C5F0"/>
<path d="M361 188.989C361 174 348.752 161.753 333.763 161.753C318.774 161.753 306.527 174 306.527 188.989V216.226H333.763C348.752 216.409 361 204.161 361 188.989ZM288.43 188.989V116.237C288.43 101.247 276.182 89 261.193 89C246.204 89 233.957 101.247 233.957 116.237V188.989C233.957 203.979 246.204 216.226 261.193 216.226C276.365 216.409 288.43 204.161 288.43 188.989Z" fill="#2EB67D"/>
<path d="M261.193 361.732C276.182 361.732 288.43 349.485 288.43 334.495C288.43 319.506 276.182 307.259 261.193 307.259H233.957V334.495C233.957 349.485 246.204 361.732 261.193 361.732ZM261.193 288.979H333.763C348.752 288.979 361 276.732 361 261.742C361 246.753 348.752 234.506 333.763 234.506H261.193C246.204 234.506 233.957 246.753 233.957 261.742C233.957 276.732 246.204 288.979 261.193 288.979Z" fill="#ECB22E"/>
<path d="M89 261.742C89 276.732 101.247 288.979 116.237 288.979C131.226 288.979 143.473 276.732 143.473 261.742V234.506H116.237C101.065 234.506 89 246.753 89 261.742ZM161.57 261.742V334.495C161.57 349.485 173.817 361.732 188.807 361.732C203.796 361.732 216.043 349.485 216.043 334.495V261.742C216.043 246.753 203.796 234.506 188.807 234.506C173.635 234.506 161.57 246.753 161.57 261.742Z" fill="#E01E5A"/>
</svg>
