<svg width="450" height="450" viewBox="0 0 450 450" fill="none" xmlns="http://www.w3.org/2000/svg">
<path d="M144.203 236.718C137.313 236.718 130.403 236.916 123.513 236.639C119.742 236.481 114.649 236.185 114.194 231.802C113.819 228.071 118.735 227.104 121.894 226.136C144.696 219.227 167.973 216.798 191.723 219.049C203.41 220.154 214.782 222.504 225.581 227.281C241.77 234.448 246.863 246.135 240.763 262.62C232.649 284.574 217.625 301.375 199.58 315.392C169.296 338.925 135.26 355.133 98.2031 364.985C93.761 366.169 89.24 366.939 84.6006 366.999C80.6916 367.058 79.3886 365.202 80.2572 361.589C80.6718 359.931 81.1259 358.233 81.8564 356.693C98.5584 321.63 119.525 289.233 143.571 258.79C145.368 256.52 147.46 254.506 150.244 253.48C152.041 252.828 154.054 252.275 155.654 253.815C157.035 255.158 156.779 256.935 156.305 258.692C155.12 263.173 152.89 267.181 150.639 271.189C141.952 286.706 132.397 301.75 125.467 318.215C124.283 321.018 123.276 323.94 122.644 326.921C121.519 332.291 123.394 334.108 128.804 332.982C138.675 330.929 147.559 326.408 156.048 321.157C173.106 310.614 188.742 298.394 200.982 282.284C205.286 276.618 208.998 270.557 210.241 263.39C211.979 253.401 208.879 247.774 199.679 243.687C188.051 238.515 175.534 238.021 163.156 237.113C156.858 236.659 150.52 237.034 144.183 237.034C144.203 236.916 144.203 236.817 144.203 236.718Z" fill="#E13D3D"/>
<path d="M283.347 336.22C266.27 335.944 249.351 334.048 232.53 331.225C229.905 330.791 227.22 330.317 224.712 329.468C222.225 328.619 219.165 327.632 219.303 324.335C219.461 320.564 222.876 320.15 225.68 319.854C243.033 317.958 260.486 318.314 277.879 317.346C287.829 316.794 297.759 316.201 307.453 313.714C318.666 310.831 321.332 305.027 316.12 294.524C311.638 285.502 304.906 278.118 298.49 270.517C287.493 257.507 275.885 244.971 266.665 230.539C265.224 228.288 263.901 225.939 262.736 223.55C254.523 206.769 259.163 194.015 276.2 185.921C288.461 180.097 301.569 178.834 314.817 178.774C329.604 178.715 344.233 180.551 358.645 183.927C361.231 184.539 363.817 185.368 366.206 186.494C368.398 187.52 371.221 188.764 370.925 191.646C370.609 194.627 367.549 194.864 365.16 195.437C361.409 196.345 357.618 196.602 353.768 196.602C339.021 196.602 324.273 197.016 309.605 198.793C291.738 200.965 287.789 208.98 297.305 224.518C304.452 236.185 314.481 245.543 323.128 256.026C331.42 266.056 340.363 275.611 346.918 286.943C351.735 295.255 354.914 303.961 350.768 313.694C346.187 324.454 336.928 329.133 326.603 332.252C312.487 336.536 297.917 336.595 283.347 336.22Z" fill="#E13D3D"/>
<path d="M201.713 101.128C195.849 101.976 190.302 101.799 184.793 100.97C182.187 100.575 178.871 100.002 178.298 97.0408C177.627 93.5267 181.339 92.9541 183.589 92.046C192.335 88.4924 201.614 86.8932 210.913 85.7087C230.616 83.1817 250.259 82.9645 269.587 88.4726C294.245 95.4812 301.175 112.223 288.323 134.532C276.438 155.143 258.413 169.732 239.164 182.861C227.95 190.501 216.204 197.392 203.588 202.604C200.212 203.986 196.856 205.427 193.223 205.861C191.427 206.078 189.216 206.71 188.189 204.38C187.261 202.288 188.525 200.689 189.867 199.267C195.435 193.423 201.811 188.507 208.247 183.671C224.515 171.47 240.289 158.677 253.102 142.705C257.544 137.157 261.611 131.353 263.27 124.266C265.027 116.823 262.658 112.124 255.61 109.103C246.548 105.194 236.854 103.655 227.18 102.588C218.671 101.582 210.005 101.562 201.713 101.128Z" fill="#E13D3D"/>
</svg>
