<svg width="450" height="450" viewBox="0 0 450 450" fill="none" xmlns="http://www.w3.org/2000/svg">
<path d="M130.985 321.509C125.102 315.923 119.889 309.742 115.197 303.114C107.079 291.719 100.823 279.431 96.5035 266.1C91.4392 250.385 89.3539 234.299 90.1731 217.765C91.5881 189.837 100.823 164.664 117.729 142.396C130.837 125.118 147.296 111.787 166.808 102.329C177.83 97.0409 189.299 93.3172 201.364 91.1574C215.068 88.6997 228.846 88.3274 242.549 90.1148C265.785 93.0938 286.936 101.733 305.779 115.66C311.215 119.681 316.28 124.075 321.046 128.916C322.089 129.959 322.536 129.81 323.355 128.693C328.27 121.692 332.441 114.319 335.941 106.499C336.09 106.127 336.016 105.382 336.76 105.457C337.207 105.531 337.207 106.127 337.356 106.499C340.633 116.256 343.686 126.086 346.516 135.991C349.049 144.928 351.432 153.865 353.517 162.877C355.454 171.293 357.166 179.708 358.507 188.273C360.816 203.466 361.709 218.659 360.369 234.075C359.401 245.098 357.464 255.896 354.038 266.397C349.198 281.367 341.899 295.145 332.217 307.582C321.344 321.509 308.311 332.978 292.969 341.841C281.351 348.543 268.988 353.459 255.955 356.512C242.847 359.64 229.516 360.683 216.185 359.715C187.661 357.629 162.191 347.575 139.997 329.478C142.082 329.552 144.168 329.701 146.253 329.105C151.466 327.616 155.19 322.85 155.264 317.487C155.339 311.604 151.764 306.763 146.178 305.05C141.189 303.56 135.379 305.72 132.475 310.114C130.092 313.689 129.868 317.562 130.985 321.509ZM172.245 316.519C172.84 317.338 173.511 316.966 174.032 316.892C180.214 316.147 186.32 315.477 192.576 315.625C202.928 315.774 213.28 316.519 223.633 317.04C238.974 317.785 254.316 317.934 269.658 316.296C282.096 314.955 294.16 312.423 305.704 307.433C318.886 301.699 329.909 293.283 338.101 281.367C348.9 265.653 353.517 248.002 354.783 229.309C355.677 215.754 354.858 202.274 352.921 188.869C351.283 177.102 348.825 165.484 345.846 153.94C343.016 142.769 339.59 131.672 335.941 120.724C335.792 120.352 335.792 119.756 335.271 119.681C334.675 119.607 334.675 120.203 334.526 120.575C331.621 126.086 328.196 131.225 324.248 135.991C314.492 147.759 302.725 157.068 289.469 164.59C275.02 172.782 259.604 178.144 243.071 180.155C233.091 181.347 223.037 181.645 212.983 182.241C199.279 183.06 185.874 184.996 173.287 190.88C150.796 201.381 136.273 218.361 131.507 243.012C129.124 255.152 130.092 267.142 135.082 278.611C138.433 286.357 143.497 292.762 150.945 297.081C153.105 298.273 155.115 299.315 157.648 298.273C158.69 297.826 159.882 297.751 160.999 297.528C170.308 295.666 179.543 293.432 188.778 291.198C196.97 289.187 205.088 287.101 213.132 284.718C222.143 282.037 231.155 279.133 239.719 275.037C263.03 264.014 283.287 248.896 300.118 229.309C307.864 220.297 314.418 210.541 319.557 199.742C320.972 196.763 321.94 193.561 323.504 190.88C323.057 191.401 323.504 192.295 323.28 193.039C321.269 201.306 318.588 209.424 314.939 217.095C307.566 232.809 297.586 246.736 285.67 259.322C267.647 278.164 246.571 292.464 221.622 300.581C207.397 305.199 193.023 309.221 178.873 314.136C176.639 314.955 174.479 315.774 172.245 316.519Z" fill="#6BB431"/>
<path d="M130.985 321.509C129.868 317.487 130.092 313.689 132.4 310.114C135.305 305.72 141.114 303.56 146.104 305.05C151.69 306.688 155.264 311.604 155.19 317.487C155.115 322.849 151.392 327.616 146.178 329.105C144.093 329.701 142.008 329.552 139.922 329.478C136.795 328.286 133.964 326.797 132.252 323.818C131.805 323.073 131.432 322.254 130.985 321.509Z" fill="#FEFEFE"/>
<path d="M172.245 316.519C174.479 315.7 176.713 314.955 178.873 314.21C193.023 309.295 207.397 305.273 221.622 300.656C246.571 292.538 267.573 278.313 285.67 259.397C297.661 246.885 307.566 232.958 314.939 217.169C318.588 209.424 321.195 201.381 323.28 193.114C323.504 192.295 322.983 191.475 323.504 190.954C321.94 193.635 320.972 196.838 319.557 199.817C314.492 210.616 307.939 220.372 300.119 229.383C283.287 248.97 263.03 264.089 239.719 275.111C231.155 279.133 222.218 282.112 213.132 284.793C205.088 287.176 196.971 289.336 188.778 291.272C179.543 293.506 170.308 295.666 160.999 297.602C159.882 297.826 158.69 297.9 157.648 298.347C155.116 299.464 153.105 298.422 150.945 297.156C143.497 292.836 138.433 286.506 135.082 278.686C130.166 267.217 129.124 255.301 131.507 243.087C136.348 218.435 150.796 201.455 173.288 190.954C185.874 185.071 199.279 183.134 212.983 182.315C223.037 181.719 233.091 181.421 243.071 180.23C259.604 178.219 275.021 172.857 289.469 164.664C302.725 157.142 314.492 147.833 324.249 136.066C328.196 131.3 331.622 126.161 334.526 120.65C334.675 120.277 334.675 119.681 335.271 119.756C335.792 119.83 335.792 120.426 335.941 120.799C339.59 131.746 343.016 142.769 345.846 154.014C348.751 165.558 351.209 177.176 352.922 188.943C354.858 202.349 355.677 215.829 354.783 229.383C353.517 248.077 348.9 265.727 338.101 281.441C329.909 293.357 318.886 301.848 305.704 307.508C294.235 312.498 282.096 315.03 269.658 316.37C254.316 318.009 238.975 317.785 223.633 317.115C213.281 316.594 202.929 315.923 192.577 315.7C186.395 315.625 180.214 316.296 174.032 316.966C173.511 316.966 172.841 317.338 172.245 316.519Z" fill="#FEFEFE"/>
</svg>
