<svg width="450" height="450" viewBox="0 0 450 450" fill="none" xmlns="http://www.w3.org/2000/svg">
<path d="M104.712 194.943C108.349 194.943 111.291 195.44 113.525 196.435C115.76 197.429 116.876 198.667 116.876 200.16C116.876 201.982 116.417 204.048 115.509 206.364C114.597 208.681 113.728 210.582 112.902 212.072C112.57 212.404 112.158 212.445 111.662 212.198C111.165 211.948 110.916 211.495 110.916 210.832C111.414 209.677 111.662 208.021 111.662 205.866C111.662 203.552 111.041 201.646 109.8 200.158C108.56 198.669 106.861 197.925 104.712 197.925C101.896 197.925 99.624 198.793 97.886 200.531C96.1493 202.268 95.2803 204.711 95.2803 207.85C95.2803 210.501 95.9813 213.025 97.3894 215.421C98.8422 217.898 100.416 220.301 102.106 222.622C103.881 225.081 105.498 227.652 106.946 230.317C108.435 233.048 109.18 236.15 109.18 239.625C109.18 245.58 106.78 250.213 101.983 253.521C97.1825 256.836 90.894 258.487 83.1195 258.487C77.4931 258.487 73.0666 257.578 69.8402 255.757C66.6113 253.939 65 251.955 65 249.801C65 249.143 65.247 248.23 65.7436 247.07C66.2402 245.915 66.8997 244.675 67.7311 243.346C68.5852 241.984 69.4964 240.658 70.4622 239.373C71.4541 238.051 72.5274 236.978 73.6873 236.15C74.1839 235.818 74.6391 235.898 75.0541 236.396C75.4654 236.893 75.5081 237.389 75.1795 237.886C74.1852 238.877 73.4428 239.914 72.9438 240.989C72.4472 242.064 72.1989 243.515 72.1989 245.332C72.1989 248.309 73.192 250.754 75.1795 252.651C77.1645 254.557 79.7276 255.508 82.8725 255.508C87.1735 255.508 90.5241 254.308 92.9254 251.909C95.3229 249.513 96.5242 246.572 96.5242 243.096C96.5242 239.954 95.8195 237.016 94.4138 234.286C93.0116 231.566 91.4796 228.915 89.8231 226.342C88.1802 223.802 86.6477 221.193 85.2299 218.521C83.8353 215.928 83.1103 213.027 83.1208 210.082C83.1208 205.784 84.939 202.182 88.5817 199.288C92.2169 196.399 97.5951 194.943 104.712 194.943V194.943ZM172.471 196.188C173.298 196.519 173.629 196.977 173.466 197.555C173.297 198.136 172.555 198.588 171.231 198.92C168.748 198.92 165.895 199.005 162.669 199.167C159.44 199.332 156.004 199.583 152.367 199.91C149.053 208.022 146.325 215.919 144.175 223.616C142.022 231.309 140.95 237.557 140.95 242.356C140.95 247.98 143.097 250.792 147.402 250.792C151.703 250.792 156.502 247.071 161.801 239.626C162.295 239.294 162.75 239.294 163.163 239.626C163.575 239.957 163.699 240.534 163.538 241.363C160.733 245.985 157.117 250.064 152.864 253.402C148.559 256.795 144.34 258.488 140.205 258.488C135.899 258.488 132.716 257.46 130.649 255.386C128.579 253.317 127.546 250.464 127.546 246.822C127.546 242.026 128.702 235.404 131.019 226.965C133.336 218.526 136.314 209.927 139.957 201.152C135.651 201.648 131.681 202.316 128.043 203.139C127.213 202.979 127.005 202.562 127.421 201.898C127.833 201.239 128.578 200.532 129.656 199.788C130.728 199.041 132.013 198.383 133.502 197.801C134.99 197.224 136.397 196.933 137.721 196.933H139.708C140.368 196.933 141.032 196.852 141.694 196.686C143.794 191.989 146.029 187.354 148.395 182.785C150.711 178.316 153.026 174.266 155.346 170.622C156.336 169.466 157.703 168.431 159.44 167.518C161.176 166.613 162.873 165.907 164.527 165.409C166.18 164.912 167.545 164.625 168.625 164.54C169.698 164.46 170.151 164.751 169.992 165.409C167.174 169.715 164.407 174.511 161.674 179.806C158.873 185.255 156.265 190.802 153.856 196.435C156.998 196.272 160.186 196.188 163.411 196.188H172.471V196.188Z" fill="#606060"/>
<path d="M323.065 72C325.546 72 327.57 72.622 329.147 73.8621C330.715 75.1023 331.791 76.7587 332.372 78.8277C332.951 80.8955 333.031 83.2542 332.62 85.9013C332.206 88.5508 331.256 91.1979 329.766 93.8438C329.434 94.1748 329.021 94.1748 328.525 93.8438C328.029 93.5115 327.697 93.1002 327.533 92.6023C327.863 90.6161 327.162 88.9634 325.422 87.638C323.686 86.3163 320.993 85.6517 317.356 85.6517C310.569 85.6517 303.744 88.1759 296.879 93.2231C290.011 98.2727 283.35 104.935 276.898 113.203C270.444 121.479 264.403 130.997 258.779 141.75C253.156 152.495 248.262 163.606 244.133 175.009C239.997 186.426 236.726 197.762 234.329 209.014C231.931 220.269 230.733 230.525 230.733 239.794C230.733 244.755 232.137 247.239 234.953 247.239C236.938 247.239 238.881 246.411 240.783 244.755C242.684 243.102 244.881 240.622 247.363 237.309C247.858 236.983 248.313 237.023 248.726 237.434C249.138 237.852 249.263 238.387 249.101 239.046C245.787 244.011 241.902 248.148 237.433 251.456C232.966 254.769 228.909 256.422 225.271 256.422C222.126 256.422 219.935 255.511 218.695 253.689C217.455 251.871 216.833 249.558 216.833 246.743C216.833 238.964 218.484 229.24 221.799 217.578C225.107 205.911 229.529 193.585 235.078 180.593C240.62 167.605 247.032 154.656 254.313 141.75C261.594 128.843 269.165 117.22 277.026 106.877C284.883 96.536 292.788 88.137 300.73 81.6817C308.667 75.2252 316.113 72 323.066 72H323.065ZM102.685 377C100.202 377 98.177 376.379 96.6021 375.139C95.0321 373.899 93.9563 372.243 93.3757 370.174C92.7989 368.103 92.7161 365.747 93.1274 363.1C93.5437 360.45 94.493 357.805 95.9814 355.158C96.3149 354.824 96.7262 354.824 97.2228 355.158C97.7181 355.486 98.0504 355.901 98.2147 356.399C97.8861 358.385 98.5871 360.038 100.325 361.363C102.062 362.684 104.753 363.347 108.392 363.347C115.178 363.347 122.005 360.823 128.869 355.776C135.737 350.731 142.399 344.07 148.852 335.799C155.304 327.523 161.346 318.008 166.971 307.253C172.593 296.507 177.485 285.395 181.613 273.992C185.751 262.575 189.022 251.24 191.419 239.987C193.818 228.733 195.016 218.476 195.016 209.209C195.016 204.244 193.611 201.763 190.796 201.763C188.81 201.763 186.866 202.587 184.965 204.244C183.064 205.895 180.867 208.382 178.386 211.692C177.89 212.018 177.437 211.978 177.023 211.567C176.611 211.15 176.487 210.613 176.649 209.95C179.962 204.99 183.847 200.849 188.316 197.54C192.782 194.232 196.839 192.58 200.478 192.58C203.623 192.58 205.813 193.485 207.053 195.307C208.295 197.129 208.917 199.445 208.917 202.26C208.917 210.037 207.264 219.756 203.951 231.424C200.643 243.091 196.219 255.416 190.672 268.408C185.129 281.397 178.717 294.345 171.436 307.252C164.155 320.159 156.585 331.781 148.724 342.124C140.866 352.465 132.962 360.865 125.019 367.317C117.08 373.772 109.634 377 102.685 377V377Z" fill="#B3D107"/>
<path d="M270.355 258.487C263.404 258.487 259.93 254.681 259.93 247.07C259.93 244.424 260.216 241.362 260.797 237.888C261.375 234.41 262.29 230.816 263.529 227.091C264.77 223.365 266.214 219.605 267.871 215.794C269.527 211.984 271.521 208.33 273.828 204.876C272.046 206.008 270.308 207.209 268.618 208.475C267.039 209.649 265.546 210.934 264.149 212.32C263.653 212.656 263.196 212.531 262.784 211.949C262.37 211.371 262.328 210.833 262.66 210.337C265.472 207.356 269.486 204.299 274.699 201.15C279.909 198.012 284.913 195.526 289.716 193.706C290.542 193.706 291.162 193.915 291.577 194.328C291.988 194.744 292.032 195.281 291.702 195.939C286.43 202.849 282.128 210.449 278.918 218.526C275.692 226.637 274.078 234.499 274.078 242.107C274.078 246.909 275.57 249.304 278.547 249.304C280.695 249.304 283.343 247.857 286.488 244.962C289.632 242.065 292.944 238.261 296.42 233.542C299.893 228.827 303.407 223.491 306.968 217.536C310.493 211.637 313.765 205.591 316.774 199.412C317.268 198.423 318.717 197.429 321.115 196.435C323.514 195.44 325.955 194.943 328.438 194.943C330.921 194.943 331.664 195.61 330.672 196.932C328.532 200.887 326.504 204.901 324.591 208.97C322.907 212.554 321.457 216.243 320.248 220.015C319.096 223.623 318.224 227.315 317.641 231.058C317.058 234.784 316.772 238.876 316.772 243.343C316.772 248.643 318.177 251.286 320.993 251.286C323.804 251.286 326.949 248.805 330.424 243.84C330.922 243.514 331.418 243.514 331.913 243.84C332.41 244.176 332.573 244.673 332.41 245.331C329.595 249.633 326.492 252.901 323.102 255.136C319.709 257.368 316.607 258.484 313.795 258.484C306.844 258.484 303.37 254.432 303.37 246.324C303.37 237.885 304.857 229.53 307.837 221.252C301.547 232.669 294.93 241.73 287.982 248.433C281.029 255.139 275.151 258.487 270.355 258.487V258.487ZM372.861 194.943C376.498 194.943 379.441 195.44 381.674 196.435C383.909 197.429 385.025 198.667 385.025 200.16C385.025 201.982 384.567 204.048 383.66 206.364C382.746 208.681 381.88 210.582 381.052 212.072C380.719 212.404 380.309 212.445 379.811 212.198C379.315 211.948 379.067 211.495 379.067 210.832C379.564 209.677 379.812 208.021 379.812 205.866C379.812 203.552 379.193 201.646 377.951 200.158C376.71 198.669 375.012 197.925 372.863 197.925C370.049 197.925 367.775 198.793 366.037 200.531C364.298 202.269 363.432 204.711 363.432 207.85C363.432 210.501 364.133 213.025 365.541 215.421C366.994 217.897 368.568 220.3 370.257 222.622C372.032 225.081 373.649 227.652 375.097 230.317C376.587 233.048 377.332 236.15 377.332 239.625C377.332 245.58 374.932 250.213 370.134 253.521C365.331 256.835 359.044 258.487 351.27 258.487C345.641 258.487 341.217 257.578 337.99 255.757C334.761 253.939 333.15 251.955 333.15 249.801C333.15 249.143 333.397 248.23 333.894 247.07C334.39 245.915 335.049 244.675 335.88 243.346C336.734 241.984 337.644 240.658 338.61 239.373C339.602 238.051 340.678 236.978 341.838 236.15C342.334 235.818 342.788 235.898 343.202 236.396C343.613 236.893 343.657 237.389 343.327 237.886C342.334 238.876 341.59 239.913 341.093 240.989C340.596 242.064 340.348 243.515 340.348 245.332C340.348 248.309 341.341 250.754 343.327 252.651C345.313 254.557 347.875 255.508 351.021 255.508C355.321 255.508 358.673 254.308 361.076 251.909C363.471 249.512 364.673 246.572 364.673 243.096C364.673 239.954 363.967 237.016 362.564 234.286C361.161 231.566 359.629 228.915 357.972 226.342C356.33 223.802 354.797 221.193 353.379 218.521C351.984 215.928 351.259 213.027 351.27 210.082C351.27 205.784 353.088 202.182 356.729 199.288C360.366 196.399 365.743 194.943 372.861 194.943V194.943Z" fill="#606060"/>
</svg>
