<svg width="450" height="450" viewBox="0 0 450 450" fill="none" xmlns="http://www.w3.org/2000/svg">
<path d="M224.5 123C179.033 123 150.617 145.733 139.25 191.2C156.3 168.467 176.192 159.942 198.925 165.625C211.896 168.868 221.166 178.277 231.428 188.694C248.145 205.662 267.492 225.3 309.75 225.3C355.217 225.3 383.633 202.567 395 157.1C377.95 179.833 358.058 188.358 335.325 182.675C322.354 179.432 313.084 170.023 302.822 159.606C286.105 142.638 266.758 123 224.5 123ZM139.25 225.3C93.7833 225.3 65.3667 248.033 54 293.5C71.05 270.767 90.9417 262.242 113.675 267.925C126.646 271.168 135.916 280.577 146.178 290.994C162.895 307.962 182.242 327.6 224.5 327.6C269.967 327.6 298.383 304.867 309.75 259.4C292.7 282.133 272.808 290.658 250.075 284.975C237.104 281.732 227.834 272.323 217.572 261.906C200.855 244.938 181.508 225.3 139.25 225.3Z" fill="url(#paint0_linear)"/>
<defs>
<linearGradient id="paint0_linear" x1="44.5278" y1="188.472" x2="339.037" y2="358.279" gradientUnits="userSpaceOnUse">
<stop stop-color="#2298BD"/>
<stop offset="1" stop-color="#0ED7B5"/>
</linearGradient>
</defs>
</svg>
