<svg width="450" height="450" viewBox="0 0 450 450" fill="none" xmlns="http://www.w3.org/2000/svg">
<path d="M234.594 176.004C258.033 176.004 277.035 157.002 277.035 133.563C277.035 110.123 258.033 91.1216 234.594 91.1216C211.154 91.1216 192.153 110.123 192.153 133.563C192.153 157.002 211.154 176.004 234.594 176.004Z" fill="#7B83EB"/>
<path d="M231.566 142.656H193.136L193.326 143.501L193.345 143.574L193.535 144.357C199.305 166.227 221.581 179.851 243.678 175.021V154.778C243.659 148.136 238.2 142.676 231.557 142.656H231.566Z" fill="black" fill-opacity="0.098039"/>
<path d="M222.472 151.75H196.245C203.258 166.538 218.226 176.004 234.594 176.004V163.881C234.574 157.238 229.114 151.779 222.472 151.759V151.75Z" fill="black" fill-opacity="0.2"/>
<path d="M330.079 179.033C347.657 179.033 361.908 164.782 361.908 147.204C361.908 129.625 347.657 115.375 330.079 115.375C312.5 115.375 298.25 129.625 298.25 147.204C298.25 164.782 312.5 179.033 330.079 179.033Z" fill="#5059C9"/>
<path d="M357.36 188.125H285.873C282.685 188.125 280.062 190.748 280.062 193.936V267.686C279.652 289.603 294.771 308.988 316.128 313.928C319.203 314.574 322.335 314.898 325.477 314.898C350.439 314.898 370.984 294.368 371 269.405V201.765C371 194.282 364.843 188.125 357.36 188.125V188.125Z" fill="#5059C9"/>
<path d="M307.344 201.766V288.197C307.344 328.081 274.524 360.901 234.639 360.901C208.689 360.901 184.634 347.008 171.665 324.531C169.915 321.623 168.395 318.582 167.117 315.437C165.927 312.472 164.926 309.435 164.118 306.344C162.618 300.397 161.854 294.288 161.844 288.156V201.765C161.844 201.76 161.844 201.753 161.844 201.748C161.844 194.274 167.993 188.125 175.467 188.125H293.721C301.194 188.125 307.344 194.274 307.344 201.748V201.766Z" fill="#7B83EB"/>
<path d="M222.472 151.75H196.245C203.258 166.538 218.226 176.004 234.594 176.004V163.881C234.574 157.238 229.114 151.779 222.472 151.759V151.75Z" fill="black" fill-opacity="0.2"/>
<path d="M243.688 188.125V303.342C243.688 308.971 239.73 313.879 234.23 315.074C233.374 315.328 232.485 315.451 231.592 315.438H167.117C165.927 312.472 164.926 309.435 164.118 306.344C162.618 300.397 161.854 294.288 161.844 288.156V201.765C161.844 201.76 161.844 201.753 161.844 201.748C161.844 194.274 167.993 188.125 175.467 188.125H243.688Z" fill="black" fill-opacity="0.098039"/>
<path d="M234.594 188.125V312.436C234.607 313.329 234.484 314.218 234.23 315.074C233.036 320.574 228.127 324.531 222.499 324.531H171.665C169.915 321.623 168.395 318.582 167.119 315.438C165.927 312.472 164.926 309.435 164.118 306.344C162.618 300.397 161.854 294.288 161.844 288.156V201.765C161.844 201.76 161.844 201.753 161.844 201.748C161.844 194.274 167.993 188.125 175.467 188.125H234.594ZM234.594 188.125V294.249C234.563 300.873 229.123 306.313 222.499 306.344H164.118C162.618 300.397 161.854 294.288 161.844 288.156V201.765C161.844 201.76 161.844 201.753 161.844 201.748C161.844 194.274 167.993 188.125 175.467 188.125H234.594ZM175.484 188.125C175.478 188.125 175.472 188.125 175.467 188.125C167.993 188.125 161.844 194.274 161.844 201.748V288.156C161.854 294.288 162.618 300.397 164.118 306.344H213.405C220.029 306.313 225.47 300.873 225.5 294.249V188.125H175.484Z" fill="black" fill-opacity="0.2"/>
<path d="M92.1215 151.75H213.369C220.019 151.75 225.491 157.222 225.491 163.871V285.119C225.491 291.769 220.019 297.241 213.369 297.241H92.1215C85.4721 297.241 80 291.769 80 285.119V163.871C80 157.222 85.4721 151.75 92.1215 151.75Z" fill="#4B53BC"/>
<path d="M188.944 196.991H161.762V269.924H143.902V196.991H116.565V179.076H188.944V196.991Z" fill="white"/>
</svg>
