<svg width="450" height="450" viewBox="0 0 450 450" fill="none" xmlns="http://www.w3.org/2000/svg">
<path d="M338.559 84H112.441C97.2859 84 85 96.2859 85 111.441V337.559C85 352.714 97.2859 365 112.441 365H338.559C353.714 365 366 352.714 366 337.559V111.441C366 96.2859 353.714 84 338.559 84Z" fill="url(#paint0_linear)"/>
<path d="M316.298 120.53H256.937C249.662 120.53 243.765 126.427 243.765 133.702V230.296C243.765 237.57 249.662 243.468 256.937 243.468H316.298C323.573 243.468 329.47 237.57 329.47 230.296V133.702C329.47 126.427 323.573 120.53 316.298 120.53Z" fill="white"/>
<path d="M194.063 120.53H134.702C127.427 120.53 121.53 126.427 121.53 133.702V300.546C121.53 307.82 127.427 313.718 134.702 313.718H194.063C201.338 313.718 207.235 307.82 207.235 300.546V133.702C207.235 126.427 201.338 120.53 194.063 120.53Z" fill="white"/>
<defs>
<linearGradient id="paint0_linear" x1="225.5" y1="84" x2="225.5" y2="365" gradientUnits="userSpaceOnUse">
<stop stop-color="#0091E6"/>
<stop offset="1" stop-color="#0079BF"/>
</linearGradient>
</defs>
</svg>
