<svg width="450" height="450" viewBox="0 0 450 450" fill="none" xmlns="http://www.w3.org/2000/svg">
<path d="M78 225V372H225H372V225V78H225H78V225Z" fill="#007ACC"/>
<path d="M143.014 225.975L142.921 238.015H162.054H181.188V292.382V346.748H194.721H208.254V292.382V238.015H227.388H246.521L246.521 226.208C246.521 219.675 246.381 214.215 246.194 214.075C246.054 213.888 222.768 213.795 194.534 213.842L143.154 213.982L143.014 225.975Z" fill="white"/>
<path d="M315.229 213.64C322.696 215.507 328.389 218.82 333.616 224.233C336.322 227.127 340.336 232.4 340.662 233.66C340.756 234.033 327.969 242.62 320.222 247.427C319.942 247.613 318.822 246.4 317.562 244.533C313.782 239.027 309.816 236.647 303.749 236.227C294.836 235.62 289.096 240.287 289.142 248.08C289.142 250.367 289.469 251.72 290.402 253.587C292.362 257.647 296.002 260.073 307.436 265.02C328.482 274.073 337.489 280.047 343.089 288.54C349.342 298.013 350.742 313.133 346.496 324.38C341.829 336.607 330.256 344.913 313.969 347.667C308.929 348.553 296.982 348.413 291.569 347.433C279.762 345.333 268.562 339.5 261.656 331.847C258.949 328.86 253.676 321.067 254.002 320.507C254.142 320.32 255.356 319.573 256.709 318.78C258.016 318.033 262.962 315.187 267.629 312.48L276.076 307.58L277.849 310.193C280.322 313.973 285.736 319.153 289.002 320.88C298.382 325.827 311.262 325.127 317.609 319.433C320.316 316.96 321.436 314.393 321.436 310.613C321.436 307.207 321.016 305.713 319.242 303.147C316.956 299.88 312.289 297.127 299.036 291.387C283.869 284.853 277.336 280.793 271.362 274.353C267.909 270.62 264.642 264.647 263.289 259.653C262.169 255.5 261.889 245.093 262.776 240.893C265.902 226.24 276.962 216.02 292.922 212.987C298.102 212.007 310.142 212.38 315.229 213.64Z" fill="white"/>
</svg>
