<svg width="450" height="450" viewBox="0 0 450 450" fill="none" xmlns="http://www.w3.org/2000/svg">
<path d="M224.5 74L358 149.516V300.597L224.5 376.113L91 300.597V149.516L224.5 74Z" fill="white"/>
<path d="M334.172 295.358L228.933 354.955V308.607L294.525 272.487L334.172 295.358ZM341.376 288.859V164.327L302.887 186.543V266.643L341.376 288.859ZM114.426 295.358L219.664 354.904V308.557L154.073 272.487L114.426 295.358ZM107.222 288.859V164.327L145.71 186.543V266.643L107.222 288.859ZM111.705 156.266L219.664 95.2089V140.045L150.496 178.08L149.942 178.382L111.705 156.266ZM336.842 156.266L228.933 95.2089V140.045L298.051 178.13L298.605 178.432L336.842 156.266Z" fill="#8ED6FB"/>
<path d="M219.664 298.028L154.979 262.411V191.933L219.664 229.263V298.028ZM228.933 298.028L293.617 262.462V191.933L228.933 229.263V298.028ZM159.311 183.772L224.298 148.055L289.235 183.772L224.298 221.253L159.311 183.772Z" fill="#1C78C0"/>
</svg>
