<svg width="450" height="450" viewBox="0 0 450 450" fill="none" xmlns="http://www.w3.org/2000/svg">
<path d="M106.686 225.492C106.686 272.52 134.016 313.161 173.647 332.42L116.973 177.14C110.38 191.916 106.686 208.268 106.686 225.492ZM305.703 219.497C305.703 204.813 300.428 194.644 295.905 186.73C289.882 176.943 284.237 168.655 284.237 158.868C284.237 147.947 292.52 137.78 304.188 137.78C304.715 137.78 305.214 137.846 305.728 137.875C284.59 118.51 256.428 106.686 225.497 106.686C183.99 106.686 147.472 127.982 126.228 160.238C129.016 160.322 131.643 160.381 133.874 160.381C146.301 160.381 165.538 158.873 165.538 158.873C171.942 158.495 172.697 167.902 166.299 168.66C166.299 168.66 159.863 169.417 152.701 169.792L195.967 298.484L221.968 220.505L203.457 169.788C197.059 169.413 190.998 168.655 190.998 168.655C184.596 168.28 185.346 158.491 191.748 158.868C191.748 158.868 211.369 160.376 223.044 160.376C235.469 160.376 254.707 158.868 254.707 158.868C261.117 158.491 261.869 167.898 255.469 168.655C255.469 168.655 249.019 169.413 241.871 169.788L284.807 297.505L296.657 257.904C301.794 241.471 305.703 229.668 305.703 219.497ZM227.581 235.885L191.934 339.469C202.577 342.598 213.834 344.309 225.497 344.309C239.332 344.309 252.6 341.917 264.951 337.574C264.632 337.066 264.343 336.525 264.105 335.938L227.581 235.885ZM329.748 168.49C330.259 172.275 330.548 176.337 330.548 180.707C330.548 192.764 328.296 206.317 321.514 223.263L285.223 328.19C320.544 307.593 344.302 269.325 344.302 225.494C344.305 204.838 339.028 185.414 329.748 168.49ZM225.497 87C149.132 87 87 149.127 87 225.492C87 301.866 149.132 363.991 225.497 363.991C301.859 363.991 364 301.866 364 225.492C363.998 149.127 301.859 87 225.497 87ZM225.497 357.643C152.633 357.643 93.3504 298.36 93.3504 225.492C93.3504 152.629 152.631 93.3504 225.497 93.3504C298.358 93.3504 357.636 152.629 357.636 225.492C357.636 298.36 298.358 357.643 225.497 357.643Z" fill="#464342"/>
</svg>
