<svg width="344" height="239" viewBox="0 0 344 239" fill="none" xmlns="http://www.w3.org/2000/svg">
<path d="M103.234 178.695L68.8501 238.287H137.617L103.234 178.695Z" fill="#6BABDE"/>
<path d="M68.8494 238.287L103.233 178.695H34.3833L68.8494 238.287Z" fill="#5DA1D8"/>
<path d="M68.8494 119.185L34.3833 178.695H103.233L68.8494 119.185Z" fill="#4F97D2"/>
<path d="M34.3835 178.695L68.8496 119.185H0L34.3835 178.695Z" fill="#3F89C9"/>
<path d="M34.3835 59.5925L0 119.185H68.8496L34.3835 59.5925Z" fill="#3B81C3"/>
<path d="M68.8494 119.185L103.233 59.5925H34.3833L68.8494 119.185Z" fill="#2356A3"/>
<path d="M68.8494 0L34.3833 59.5925H103.233L68.8494 0Z" fill="#184999"/>
<path d="M137.616 119.185L172 59.5925H103.233L137.616 119.185Z" fill="#ED698B"/>
<path d="M137.616 0L103.233 59.5925H172L137.616 0Z" fill="#EA5279"/>
<path d="M103.234 59.5925L137.617 0H68.8501L103.234 59.5925Z" fill="#E73059"/>
<path d="M172 178.695L206.384 119.185H137.617L172 178.695Z" fill="#EF7D9A"/>
<path d="M172 59.5925L137.617 119.185H206.384L172 59.5925Z" fill="#EE7292"/>
<path d="M206.383 238.287L240.767 178.695H172L206.383 238.287Z" fill="#EA5279"/>
<path d="M206.383 119.185L172 178.695H240.767L206.383 119.185Z" fill="#ED698B"/>
<path d="M275.233 238.287L309.617 178.695H240.767L275.233 238.287Z" fill="#184999"/>
<path d="M275.233 119.185L240.767 178.695H309.617L275.233 119.185Z" fill="#2356A3"/>
<path d="M309.616 178.695L344 119.185H275.233L309.616 178.695Z" fill="#3B81C3"/>
<path d="M309.616 59.5925L275.233 119.185H344L309.616 59.5925Z" fill="#3F89C9"/>
<path d="M275.233 119.185L309.617 59.5925H240.767L275.233 119.185Z" fill="#4F97D2"/>
<path d="M275.233 0L240.767 59.5925H309.617L275.233 0Z" fill="#5DA1D8"/>
<path d="M240.767 178.695L206.384 238.287H275.233L240.767 178.695Z" fill="#E73059"/>
<path d="M240.767 59.5925L275.233 0H206.384L240.767 59.5925Z" fill="#6BABDE"/>
</svg>
